<svg version="1.1" id="Layer_1" xmlns="http://www.w3.org/2000/svg" xmlns:xlink="http://www.w3.org/1999/xlink" x="0px" y="0px"
	 width="100%" viewBox="0 0 859 789" enable-background="new 0 0 859 789" xml:space="preserve">
<path fill="#FFFFFF" opacity="0.000000" stroke="none" 
	d="
M860.000000,225.000000 
	C860.000000,413.666595 860.000000,601.833191 860.000000,789.999817 
	C573.666870,789.999878 287.333740,789.999878 1.000446,789.999939 
	C1.000297,527.000305 1.000297,264.000610 1.000149,1.000693 
	C287.332916,1.000462 573.665833,1.000462 859.999390,1.000231 
	C860.000000,75.500000 860.000000,150.000000 860.000000,225.000000 
M682.000000,101.500000 
	C682.000000,127.594803 682.000000,153.689606 682.000000,179.713150 
	C736.309937,179.713150 790.045654,179.713150 843.713135,179.713150 
	C843.713135,125.690071 843.713135,71.954330 843.713135,18.286810 
	C789.690125,18.286810 735.954407,18.286810 682.000000,18.286810 
	C682.000000,45.882030 682.000000,73.191017 682.000000,101.500000 
M402.000000,125.500000 
	C402.000000,89.739494 402.000000,53.978992 402.000000,18.286003 
	C347.691772,18.286003 293.956024,18.286003 240.286011,18.286003 
	C240.286011,72.308235 240.286011,126.043983 240.286011,179.713989 
	C294.308228,179.713989 348.044006,179.713989 402.000000,179.713989 
	C402.000000,161.785919 402.000000,144.142960 402.000000,125.500000 
M461.000000,147.500000 
	C461.000000,158.264175 461.000000,169.028351 461.000000,179.711945 
	C515.312317,179.711945 569.048035,179.711945 622.711914,179.711945 
	C622.711914,125.687653 622.711914,71.951889 622.711914,18.288052 
	C568.687622,18.288052 514.951904,18.288052 461.000000,18.288052 
	C461.000000,61.217163 461.000000,103.858582 461.000000,147.500000 
M709.500000,590.000000 
	C700.401733,590.000000 691.303528,590.000000 682.288208,590.000000 
	C682.288208,644.312683 682.288208,698.048401 682.288208,751.711792 
	C736.312683,751.711792 790.048401,751.711792 843.711792,751.711792 
	C843.711792,697.687317 843.711792,643.951599 843.711792,590.000000 
	C799.115967,590.000000 754.807983,590.000000 709.500000,590.000000 
M452.713989,590.003906 
	C452.142670,591.601807 451.074738,593.198914 451.071991,594.797791 
	C450.984406,645.796387 451.000000,696.795166 451.000000,747.793884 
	C451.000000,749.077698 451.000000,750.361572 451.000000,751.780945 
	C505.169800,751.780945 558.907288,751.780945 612.777954,751.780945 
	C612.777954,697.824219 612.777954,644.086670 612.777954,590.000183 
	C559.598083,590.000183 506.639435,590.000183 452.713989,590.003906 
M240.000000,645.500000 
	C240.000000,680.927185 240.000000,716.354431 240.000000,751.713989 
	C294.308350,751.713989 348.044098,751.713989 401.713959,751.713989 
	C401.713959,697.691711 401.713959,643.955933 401.713959,590.286011 
	C347.691681,590.286011 293.955933,590.286011 240.000000,590.286011 
	C240.000000,608.547485 240.000000,626.523743 240.000000,645.500000 
M181.000000,691.500000 
	C181.000000,657.739319 181.000000,623.978577 181.000000,590.286194 
	C126.691368,590.286194 72.955620,590.286194 19.286180,590.286194 
	C19.286180,644.308594 19.286180,698.044312 19.286180,751.713806 
	C73.308594,751.713806 127.044334,751.713806 181.000000,751.713806 
	C181.000000,731.785645 181.000000,712.142822 181.000000,691.500000 
M19.000000,83.500000 
	C19.000000,115.594215 19.000000,147.688431 19.000000,179.713638 
	C73.308983,179.713638 127.044716,179.713638 180.713654,179.713638 
	C180.713654,125.691063 180.713654,71.955330 180.713654,18.286316 
	C126.691101,18.286316 72.955368,18.286316 19.000000,18.286316 
	C19.000000,39.881256 19.000000,61.190628 19.000000,83.500000 
M682.000000,334.500000 
	C682.000000,378.259888 682.000000,422.019806 682.000000,465.714630 
	C736.306946,465.714630 790.042725,465.714630 843.714600,465.714630 
	C843.714600,411.693054 843.714600,357.957306 843.714600,304.285339 
	C789.693054,304.285339 735.957336,304.285339 682.000000,304.285339 
	C682.000000,314.212769 682.000000,323.856384 682.000000,334.500000 
M489.500000,466.000000 
	C533.926514,466.000000 578.353088,466.000000 622.714722,466.000000 
	C622.714722,411.693115 622.714722,357.957397 622.714722,304.285309 
	C568.693176,304.285309 514.957397,304.285309 461.285278,304.285309 
	C461.285278,358.306824 461.285278,412.042572 461.285278,466.000000 
	C470.545929,466.000000 479.522980,466.000000 489.500000,466.000000 
M19.000000,315.517090 
	C19.000000,365.608582 19.000000,415.700073 19.000000,465.708069 
	C73.319420,465.708069 127.055550,465.708069 180.707550,465.708069 
	C180.707550,411.679535 180.707550,357.943420 180.707550,304.292969 
	C126.678497,304.292969 72.942375,304.292969 19.000000,304.292969 
	C19.000000,307.897186 19.000000,311.210114 19.000000,315.517090 
M402.000000,399.500000 
	C402.000000,367.739136 402.000000,335.978271 402.000000,304.286316 
	C347.691101,304.286316 293.955353,304.286316 240.286331,304.286316 
	C240.286331,358.308899 240.286331,412.044647 240.286331,465.713684 
	C294.308899,465.713684 348.044647,465.713684 402.000000,465.713684 
	C402.000000,443.785400 402.000000,422.142700 402.000000,399.500000 
z"/>
<path fill="#000000" opacity="1.000000" stroke="none" 
	d="
M682.000000,101.000000 
	C682.000000,73.191017 682.000000,45.882030 682.000000,18.286810 
	C735.954407,18.286810 789.690125,18.286810 843.713135,18.286810 
	C843.713135,71.954330 843.713135,125.690071 843.713135,179.713150 
	C790.045654,179.713150 736.309937,179.713150 682.000000,179.713150 
	C682.000000,153.689606 682.000000,127.594803 682.000000,101.000000 
M827.002625,43.541393 
	C827.002625,40.768135 827.002625,37.994877 827.002625,35.271564 
	C784.050598,35.271564 741.646179,35.271564 699.272339,35.271564 
	C699.272339,77.950844 699.272339,120.355263 699.272339,162.727020 
	C741.952271,162.727020 784.356628,162.727020 827.002625,162.727020 
	C827.002625,123.145653 827.002625,83.839508 827.002625,43.541393 
z"/>
<path fill="#000000" opacity="1.000000" stroke="none" 
	d="
M402.000000,126.000000 
	C402.000000,144.142960 402.000000,161.785919 402.000000,179.713989 
	C348.044006,179.713989 294.308228,179.713989 240.286011,179.713989 
	C240.286011,126.043983 240.286011,72.308235 240.286011,18.286003 
	C293.956024,18.286003 347.691772,18.286003 402.000000,18.286003 
	C402.000000,53.978992 402.000000,89.739494 402.000000,126.000000 
M256.999390,88.500000 
	C256.999390,113.261436 256.999390,138.022873 256.999390,162.714157 
	C299.975769,162.714157 342.378632,162.714157 384.714172,162.714157 
	C384.714172,120.024239 384.714172,77.621407 384.714172,35.285801 
	C342.024261,35.285801 299.621429,35.285801 256.999390,35.285801 
	C256.999390,52.880898 256.999390,70.190445 256.999390,88.500000 
z"/>
<path fill="#000000" opacity="1.000000" stroke="none" 
	d="
M461.000000,147.000000 
	C461.000000,103.858582 461.000000,61.217163 461.000000,18.288052 
	C514.951904,18.288052 568.687622,18.288052 622.711914,18.288052 
	C622.711914,71.951889 622.711914,125.687653 622.711914,179.711945 
	C569.048035,179.711945 515.312317,179.711945 461.000000,179.711945 
	C461.000000,169.028351 461.000000,158.264175 461.000000,147.000000 
M596.466492,34.999020 
	C557.042358,34.999020 517.618225,34.999020 478.297852,34.999020 
	C478.297852,77.999168 478.297852,120.402901 478.297852,162.701263 
	C521.001038,162.701263 563.404724,162.701263 605.700195,162.701263 
	C605.700195,119.997246 605.700195,77.593567 605.700195,34.999020 
	C602.754272,34.999020 600.105225,34.999020 596.466492,34.999020 
z"/>
<path fill="#000000" opacity="1.000000" stroke="none" 
	d="
M710.000000,590.000000 
	C754.807983,590.000000 799.115967,590.000000 843.711792,590.000000 
	C843.711792,643.951599 843.711792,697.687317 843.711792,751.711792 
	C790.048401,751.711792 736.312683,751.711792 682.288208,751.711792 
	C682.288208,698.048401 682.288208,644.312683 682.288208,590.000000 
	C691.303528,590.000000 700.401733,590.000000 710.000000,590.000000 
M698.999451,613.576538 
	C698.999451,653.997070 698.999451,694.417603 698.999451,734.684570 
	C742.032471,734.684570 784.436890,734.684570 826.682495,734.684570 
	C826.682495,691.963440 826.682495,649.558960 826.682495,607.320068 
	C783.959900,607.320068 741.556030,607.320068 698.999451,607.320068 
	C698.999451,609.291687 698.999451,610.945618 698.999451,613.576538 
z"/>
<path fill="#000000" opacity="1.000000" stroke="none" 
	d="
M453.197388,590.002075 
	C506.639435,590.000183 559.598083,590.000183 612.777954,590.000183 
	C612.777954,644.086670 612.777954,697.824219 612.777954,751.780945 
	C558.907288,751.780945 505.169800,751.780945 451.000000,751.780945 
	C451.000000,750.361572 451.000000,749.077698 451.000000,747.793884 
	C451.000000,696.795166 450.984406,645.796387 451.071991,594.797791 
	C451.074738,593.198914 452.142670,591.601807 453.197388,590.002075 
M568.500000,606.998108 
	C535.072266,606.998108 501.644562,606.998108 468.283997,606.998108 
	C468.283997,649.974304 468.283997,692.377869 468.283997,734.715942 
	C510.974182,734.715942 553.377808,734.715942 595.715942,734.715942 
	C595.715942,692.025818 595.715942,649.622192 595.715942,606.998108 
	C586.787842,606.998108 578.143921,606.998108 568.500000,606.998108 
z"/>
<path fill="#000000" opacity="1.000000" stroke="none" 
	d="
M240.000000,645.000000 
	C240.000000,626.523743 240.000000,608.547485 240.000000,590.286011 
	C293.955933,590.286011 347.691681,590.286011 401.713959,590.286011 
	C401.713959,643.955933 401.713959,697.691711 401.713959,751.713989 
	C348.044098,751.713989 294.308350,751.713989 240.000000,751.713989 
	C240.000000,716.354431 240.000000,680.927185 240.000000,645.000000 
M385.000214,630.500000 
	C385.000214,622.734375 385.000214,614.968750 385.000214,607.287903 
	C342.020721,607.287903 299.618103,607.287903 257.287872,607.287903 
	C257.287872,649.979248 257.287872,692.381897 257.287872,734.712158 
	C299.979218,734.712158 342.381866,734.712158 385.000214,734.712158 
	C385.000214,700.116333 385.000214,665.808167 385.000214,630.500000 
z"/>
<path fill="#000000" opacity="1.000000" stroke="none" 
	d="
M181.000000,692.000000 
	C181.000000,712.142822 181.000000,731.785645 181.000000,751.713806 
	C127.044334,751.713806 73.308594,751.713806 19.286180,751.713806 
	C19.286180,698.044312 19.286180,644.308594 19.286180,590.286194 
	C72.955620,590.286194 126.691368,590.286194 181.000000,590.286194 
	C181.000000,623.978577 181.000000,657.739319 181.000000,692.000000 
M164.000626,648.500000 
	C164.000626,634.736694 164.000626,620.973328 164.000626,607.286865 
	C121.022148,607.286865 78.619278,607.286865 36.286831,607.286865 
	C36.286831,649.977783 36.286831,692.380676 36.286831,734.713135 
	C78.977783,734.713135 121.380638,734.713135 164.000626,734.713135 
	C164.000626,706.117493 164.000626,677.808777 164.000626,648.500000 
z"/>
<path fill="#000000" opacity="1.000000" stroke="none" 
	d="
M19.000000,83.000000 
	C19.000000,61.190628 19.000000,39.881256 19.000000,18.286316 
	C72.955368,18.286316 126.691101,18.286316 180.713654,18.286316 
	C180.713654,71.955330 180.713654,125.691063 180.713654,179.713638 
	C127.044716,179.713638 73.308983,179.713638 19.000000,179.713638 
	C19.000000,147.688431 19.000000,115.594215 19.000000,83.000000 
M43.560471,34.999737 
	C41.122910,34.999737 38.685345,34.999737 36.268555,34.999737 
	C36.268555,77.938545 36.268555,120.342018 36.268555,162.729980 
	C78.941429,162.729980 121.344910,162.729980 163.728546,162.729980 
	C163.728546,120.055664 163.728546,77.652168 163.728546,34.999737 
	C123.819565,34.999737 84.181793,34.999737 43.560471,34.999737 
z"/>
<path fill="#000000" opacity="1.000000" stroke="none" 
	d="
M682.000000,334.000000 
	C682.000000,323.856384 682.000000,314.212769 682.000000,304.285339 
	C735.957336,304.285339 789.693054,304.285339 843.714600,304.285339 
	C843.714600,357.957306 843.714600,411.693054 843.714600,465.714630 
	C790.042725,465.714630 736.306946,465.714630 682.000000,465.714630 
	C682.000000,422.019806 682.000000,378.259888 682.000000,334.000000 
M749.500000,449.000916 
	C775.261414,449.000916 801.022827,449.000916 826.714478,449.000916 
	C826.714478,406.024475 826.714478,363.621460 826.714478,321.285461 
	C784.024475,321.285461 741.621460,321.285461 699.285522,321.285461 
	C699.285522,363.975494 699.285522,406.378510 699.285522,449.000916 
	C715.880615,449.000916 732.190308,449.000916 749.500000,449.000916 
z"/>
<path fill="#000000" opacity="1.000000" stroke="none" 
	d="
M489.000000,466.000000 
	C479.522980,466.000000 470.545929,466.000000 461.285278,466.000000 
	C461.285278,412.042572 461.285278,358.306824 461.285278,304.285309 
	C514.957397,304.285309 568.693176,304.285309 622.714722,304.285309 
	C622.714722,357.957397 622.714722,411.693115 622.714722,466.000000 
	C578.353088,466.000000 533.926514,466.000000 489.000000,466.000000 
M542.500000,320.999786 
	C521.071594,320.999786 499.643127,320.999786 478.286530,320.999786 
	C478.286530,363.976501 478.286530,406.379150 478.286530,448.713501 
	C520.976501,448.713501 563.379089,448.713501 605.713501,448.713501 
	C605.713501,406.023529 605.713501,363.620911 605.713501,320.999786 
	C584.785034,320.999786 564.142517,320.999786 542.500000,320.999786 
z"/>
<path fill="#000000" opacity="1.000000" stroke="none" 
	d="
M19.000000,315.020081 
	C19.000000,311.210114 19.000000,307.897186 19.000000,304.292969 
	C72.942375,304.292969 126.678497,304.292969 180.707550,304.292969 
	C180.707550,357.943420 180.707550,411.679535 180.707550,465.708069 
	C127.055550,465.708069 73.319420,465.708069 19.000000,465.708069 
	C19.000000,415.700073 19.000000,365.608582 19.000000,315.020081 
M35.999363,324.651398 
	C35.999363,366.065186 35.999363,407.478943 35.999363,448.656952 
	C79.087067,448.656952 121.492226,448.656952 163.654327,448.656952 
	C163.654327,405.907623 163.654327,363.502441 163.654327,320.999390 
	C149.647934,320.999390 135.987625,320.999390 122.327301,320.999390 
	C94.994804,320.999390 67.662254,320.980225 40.329906,321.043396 
	C38.544029,321.047516 35.544426,319.720123 35.999363,324.651398 
z"/>
<path fill="#000000" opacity="1.000000" stroke="none" 
	d="
M402.000000,400.000000 
	C402.000000,422.142700 402.000000,443.785400 402.000000,465.713684 
	C348.044647,465.713684 294.308899,465.713684 240.286331,465.713684 
	C240.286331,412.044647 240.286331,358.308899 240.286331,304.286316 
	C293.955353,304.286316 347.691101,304.286316 402.000000,304.286316 
	C402.000000,335.978271 402.000000,367.739136 402.000000,400.000000 
M256.998474,437.482910 
	C256.998474,441.254333 256.998474,445.025757 256.998474,448.718689 
	C299.967377,448.718689 342.371063,448.718689 384.718140,448.718689 
	C384.718140,406.031555 384.718140,363.627869 384.718140,321.282410 
	C342.030457,321.282410 299.626770,321.282410 256.998474,321.282410 
	C256.998474,359.873627 256.998474,398.181335 256.998474,437.482910 
z"/>
<path fill="#FEFEFE" opacity="1.000000" stroke="none" 
	d="
M827.002625,44.037376 
	C827.002625,83.839508 827.002625,123.145653 827.002625,162.727020 
	C784.356628,162.727020 741.952271,162.727020 699.272339,162.727020 
	C699.272339,120.355263 699.272339,77.950844 699.272339,35.271564 
	C741.646179,35.271564 784.050598,35.271564 827.002625,35.271564 
	C827.002625,37.994877 827.002625,40.768135 827.002625,44.037376 
M709.105957,140.102570 
	C709.354126,141.063736 709.532593,142.049500 709.861816,142.982071 
	C711.854065,148.625778 715.700928,152.212250 721.719299,152.960297 
	C728.402405,153.791000 733.842224,151.652527 737.268250,145.534760 
	C740.258850,140.194717 739.677795,133.528839 735.865051,128.710754 
	C731.901550,123.702209 725.518799,121.858086 719.294678,123.923248 
	C712.754089,126.093422 709.270264,131.311218 709.105957,140.102570 
M792.925110,129.701080 
	C788.562073,137.656219 790.261597,146.339905 797.060181,150.828568 
	C803.548706,155.112518 812.336060,153.678482 817.193848,147.542923 
	C822.081177,141.370087 821.243835,132.350967 815.331055,126.825493 
	C809.404541,121.287277 798.281799,121.854630 792.925110,129.701080 
M715.104797,109.584160 
	C721.496521,113.412254 729.104370,113.113144 734.050293,108.839241 
	C738.728210,104.797035 740.435364,97.855156 738.175049,92.067596 
	C735.756714,85.875648 731.154846,82.745445 724.382996,82.686157 
	C717.519897,82.626083 712.677612,85.645622 710.176514,91.544975 
	C707.604553,97.611778 709.117798,103.713638 715.104797,109.584160 
M818.028381,90.732521 
	C817.024231,89.626770 816.138550,88.376625 814.996399,87.438927 
	C808.084412,81.764297 798.333801,83.079231 793.011353,90.334755 
	C788.213257,96.875465 790.363647,107.177513 797.482483,111.755722 
	C803.057312,115.340942 809.823486,114.839424 815.061157,110.452744 
	C820.437683,105.949837 821.685852,98.923058 818.028381,90.732521 
M721.027100,41.979023 
	C713.135681,44.387108 708.828430,49.756523 709.028564,56.936485 
	C709.207336,63.352173 714.049438,69.646759 719.791077,70.927460 
	C727.432190,72.631859 734.339661,69.697220 737.556213,63.328285 
	C742.702026,53.139236 734.656067,39.689106 721.027100,41.979023 
M802.904358,41.951797 
	C796.070984,43.448124 791.617798,47.702705 790.853027,53.465500 
	C789.846375,61.050934 792.147705,66.278664 797.973572,69.640556 
	C802.821655,72.438217 810.892639,71.626434 815.295349,67.898392 
	C819.673157,64.191391 821.494934,57.122936 819.531006,51.463749 
	C817.326294,45.110764 812.084900,41.942108 802.904358,41.951797 
z"/>
<path fill="#FFFFFF" opacity="1.000000" stroke="none" 
	d="
M256.999390,88.000000 
	C256.999390,70.190445 256.999390,52.880898 256.999390,35.285801 
	C299.621429,35.285801 342.024261,35.285801 384.714172,35.285801 
	C384.714172,77.621407 384.714172,120.024239 384.714172,162.714157 
	C342.378632,162.714157 299.975769,162.714157 256.999390,162.714157 
	C256.999390,138.022873 256.999390,113.261436 256.999390,88.000000 
M273.484039,138.937103 
	C279.931000,145.114532 287.884583,145.994171 294.175934,141.225601 
	C300.113037,136.725525 301.882141,128.502380 298.310913,122.005203 
	C294.141266,114.419220 284.754639,111.812126 277.234985,116.151459 
	C269.709473,120.494171 267.919037,129.925308 273.484039,138.937103 
M366.875000,61.196869 
	C363.355804,52.225647 358.518646,49.110714 349.438782,49.968700 
	C342.811127,50.594971 337.076935,57.310493 337.014740,64.519012 
	C336.950317,71.982567 342.297516,78.463219 349.129395,79.201599 
	C361.040863,80.488991 367.087769,74.671501 366.875000,61.196869 
z"/>
<path fill="#FEFEFE" opacity="1.000000" stroke="none" 
	d="
M596.961304,34.999020 
	C600.105225,34.999020 602.754272,34.999020 605.700195,34.999020 
	C605.700195,77.593567 605.700195,119.997246 605.700195,162.701263 
	C563.404724,162.701263 521.001038,162.701263 478.297852,162.701263 
	C478.297852,120.402901 478.297852,77.999168 478.297852,34.999020 
	C517.618225,34.999020 557.042358,34.999020 596.961304,34.999020 
M526.788757,94.575523 
	C524.777405,101.023857 526.654480,106.382767 531.667786,110.598503 
	C536.413696,114.589287 541.859314,115.316116 547.462463,112.622246 
	C553.954834,109.500908 557.005798,103.333488 555.954895,96.181450 
	C555.102783,90.381897 549.469727,84.853905 543.604858,84.061775 
	C536.292664,83.074165 530.536438,86.440994 526.788757,94.575523 
M515.787598,126.936882 
	C510.095642,119.940819 503.287964,118.237663 496.106598,122.013084 
	C490.049591,125.197395 486.661163,132.440918 488.429535,138.806534 
	C490.015076,144.514053 493.644745,148.565414 499.491486,149.758041 
	C505.520996,150.987961 511.124054,149.751602 515.042969,144.429916 
	C518.966431,139.102051 519.127563,133.445297 515.787598,126.936882 
M564.796387,59.201485 
	C563.974792,65.687920 565.609985,71.237389 571.575073,74.576668 
	C576.503662,77.335732 581.891663,77.349846 586.848572,74.757576 
	C593.159180,71.457329 595.743164,64.294006 593.783447,57.110355 
	C592.089050,50.899258 586.247681,46.893841 578.955750,46.943024 
	C571.538757,46.993046 566.838806,50.815205 564.796387,59.201485 
z"/>
<path fill="#FFFFFF" opacity="1.000000" stroke="none" 
	d="
M698.999451,613.088013 
	C698.999451,610.945618 698.999451,609.291687 698.999451,607.320068 
	C741.556030,607.320068 783.959900,607.320068 826.682495,607.320068 
	C826.682495,649.558960 826.682495,691.963440 826.682495,734.684570 
	C784.436890,734.684570 742.032471,734.684570 698.999451,734.684570 
	C698.999451,694.417603 698.999451,653.997070 698.999451,613.088013 
M738.842773,691.760376 
	C734.235291,686.305359 728.434937,684.763428 721.808044,687.074707 
	C715.924866,689.126770 712.730408,693.658386 712.071655,699.762085 
	C711.354065,706.411621 715.001892,712.424011 720.973694,715.058533 
	C726.791199,717.625061 734.064514,716.033020 738.347900,711.255615 
	C742.938965,706.134888 743.276855,699.273254 738.842773,691.760376 
M796.796326,651.232178 
	C803.111206,650.187439 807.929321,645.640625 808.921021,639.790100 
	C810.070557,633.008667 806.956909,626.333435 801.250427,623.345276 
	C795.679077,620.427795 788.054993,621.490662 783.690063,625.793030 
	C779.138916,630.279114 777.769409,636.916260 780.193848,642.736877 
	C782.664001,648.667297 787.746460,651.416077 796.796326,651.232178 
z"/>
<path fill="#FEFEFE" opacity="1.000000" stroke="none" 
	d="
M569.000000,606.998108 
	C578.143921,606.998108 586.787842,606.998108 595.715942,606.998108 
	C595.715942,649.622192 595.715942,692.025818 595.715942,734.715942 
	C553.377808,734.715942 510.974182,734.715942 468.283997,734.715942 
	C468.283997,692.377869 468.283997,649.974304 468.283997,606.998108 
	C501.644562,606.998108 535.072266,606.998108 569.000000,606.998108 
M544.377258,679.706238 
	C549.238953,670.648254 547.267273,662.265747 539.233521,657.837952 
	C531.828003,653.756531 522.725769,656.445068 518.676697,663.909851 
	C515.231506,670.261292 516.916748,678.461060 522.552551,682.767395 
	C529.381104,687.985046 537.083801,687.107910 544.377258,679.706238 
M483.861176,698.233582 
	C482.848358,699.327820 481.690796,700.321411 480.847870,701.533813 
	C477.301178,706.635010 476.972107,712.035217 479.930786,717.478394 
	C483.277985,723.636414 488.766785,725.769226 495.466187,724.969849 
	C501.266998,724.277588 505.141602,720.950806 507.210663,715.522095 
	C509.341309,709.931763 507.700775,702.961914 503.368683,699.034119 
	C498.213287,694.359985 491.689270,693.926575 483.861176,698.233582 
M563.090149,720.300659 
	C569.952454,726.320129 577.554871,726.925842 583.797546,721.950500 
	C589.323242,717.546631 591.035461,709.203857 587.679871,703.033569 
	C583.514954,695.375061 573.569031,692.722168 566.210571,697.306885 
	C559.083069,701.747864 557.479919,711.760193 563.090149,720.300659 
M498.492035,642.542969 
	C506.936768,638.629211 510.410217,630.413086 506.988800,622.444763 
	C503.847229,615.128235 494.932861,611.675415 487.271637,614.807739 
	C479.689667,617.907593 475.925964,626.570435 479.145844,634.220825 
	C481.486176,639.781494 486.470459,644.888916 498.492035,642.542969 
M585.877502,638.287598 
	C586.442322,637.466309 587.092102,636.690369 587.558411,635.816528 
	C591.369141,628.676392 588.620300,619.198364 581.675476,615.427979 
	C574.291138,611.419006 564.840088,614.274658 561.035217,621.664429 
	C557.271362,628.974548 559.951660,638.319214 567.442322,641.778992 
	C573.788635,644.710266 580.092896,644.057617 585.877502,638.287598 
z"/>
<path fill="#FFFFFF" opacity="1.000000" stroke="none" 
	d="
M385.000214,631.000000 
	C385.000214,665.808167 385.000214,700.116333 385.000214,734.712158 
	C342.381866,734.712158 299.979218,734.712158 257.287872,734.712158 
	C257.287872,692.381897 257.287872,649.979248 257.287872,607.287903 
	C299.618103,607.287903 342.020721,607.287903 385.000214,607.287903 
	C385.000214,614.968750 385.000214,622.734375 385.000214,631.000000 
M333.815338,679.088623 
	C338.149200,669.967407 335.976837,661.964050 328.011963,657.708008 
	C320.917664,653.917114 312.215698,656.344971 308.056702,663.275513 
	C304.115845,669.842529 305.738281,678.463318 311.754303,682.922485 
	C318.876190,688.201233 326.956421,686.999207 333.815338,679.088623 
z"/>
<path fill="#FFFFFF" opacity="1.000000" stroke="none" 
	d="
M164.000626,649.000000 
	C164.000626,677.808777 164.000626,706.117493 164.000626,734.713135 
	C121.380638,734.713135 78.977783,734.713135 36.286831,734.713135 
	C36.286831,692.380676 36.286831,649.977783 36.286831,607.286865 
	C78.619278,607.286865 121.022148,607.286865 164.000626,607.286865 
	C164.000626,620.973328 164.000626,634.736694 164.000626,649.000000 
M75.363251,691.194824 
	C69.522560,685.552185 62.016922,684.455627 55.845711,688.343384 
	C50.416904,691.763489 47.706188,699.118591 49.604214,705.415222 
	C51.341076,711.177307 55.158268,714.935547 61.079433,715.901001 
	C67.444099,716.938782 73.133217,715.235168 76.677261,709.453857 
	C80.325729,703.502197 80.037422,697.473572 75.363251,691.194824 
M145.874985,633.196838 
	C142.355743,624.225586 137.518677,621.110657 128.438782,621.968689 
	C121.811089,622.594910 116.076866,629.310486 116.014671,636.518982 
	C115.950272,643.982544 121.297424,650.463135 128.129349,651.201599 
	C140.040375,652.489075 146.087952,646.671021 145.874985,633.196838 
z"/>
<path fill="#FFFFFF" opacity="1.000000" stroke="none" 
	d="
M44.052246,34.999737 
	C84.181793,34.999737 123.819565,34.999737 163.728546,34.999737 
	C163.728546,77.652168 163.728546,120.055664 163.728546,162.729980 
	C121.344910,162.729980 78.941429,162.729980 36.268555,162.729980 
	C36.268555,120.342018 36.268555,77.938545 36.268555,34.999737 
	C38.685345,34.999737 41.122910,34.999737 44.052246,34.999737 
M97.069168,84.120712 
	C95.683762,84.661789 94.227661,85.070404 92.924561,85.765724 
	C85.228035,89.872467 82.631729,99.093529 86.969505,106.704742 
	C91.126556,113.998856 100.952072,116.264709 108.233444,111.608391 
	C113.901489,107.983765 116.425102,101.094269 114.444420,94.652390 
	C112.253754,87.527588 106.693977,83.957977 97.069168,84.120712 
z"/>
<path fill="#FFFFFF" opacity="1.000000" stroke="none" 
	d="
M749.000000,449.000916 
	C732.190308,449.000916 715.880615,449.000916 699.285522,449.000916 
	C699.285522,406.378510 699.285522,363.975494 699.285522,321.285461 
	C741.621460,321.285461 784.024475,321.285461 826.714478,321.285461 
	C826.714478,363.621460 826.714478,406.024475 826.714478,449.000916 
	C801.022827,449.000916 775.261414,449.000916 749.000000,449.000916 
M738.154480,415.735016 
	C734.467896,408.511902 728.704468,405.142822 721.855652,406.207275 
	C715.560730,407.185638 710.289856,412.345795 709.177063,418.619537 
	C708.059021,424.922333 711.135437,431.639252 717.028503,434.489105 
	C722.430664,437.101654 728.005920,437.075317 733.041016,433.345764 
	C738.817444,429.067078 740.060852,423.207489 738.154480,415.735016 
M768.723755,371.470184 
	C762.677185,368.671661 757.005127,369.420135 752.090210,373.803314 
	C747.674500,377.741302 746.022949,382.855194 747.486145,388.685120 
	C749.135132,395.255127 754.995728,399.876770 761.538513,400.008270 
	C768.527771,400.148773 774.668091,395.777588 776.588684,389.294373 
	C778.599060,382.507996 776.062317,376.385132 768.723755,371.470184 
M813.530273,340.319183 
	C812.612854,339.142029 811.813293,337.844879 810.757751,336.808319 
	C806.052002,332.187286 800.374573,331.877319 794.569031,333.868500 
	C788.753052,335.863251 785.706238,340.881073 785.635498,347.468323 
	C785.565002,354.032715 788.636658,359.136932 794.080444,361.501526 
	C798.990601,363.634308 807.145508,362.298523 810.889893,358.573059 
	C816.015015,353.473846 816.015137,347.404449 813.530273,340.319183 
z"/>
<path fill="#FFFFFF" opacity="1.000000" stroke="none" 
	d="
M543.000000,320.999786 
	C564.142517,320.999786 584.785034,320.999786 605.713501,320.999786 
	C605.713501,363.620911 605.713501,406.023529 605.713501,448.713501 
	C563.379089,448.713501 520.976501,448.713501 478.286530,448.713501 
	C478.286530,406.379150 478.286530,363.976501 478.286530,320.999786 
	C499.643127,320.999786 521.071594,320.999786 543.000000,320.999786 
M546.494263,399.421783 
	C547.544250,398.930969 548.644714,398.525024 549.635925,397.935425 
	C555.409729,394.501221 558.171143,388.234436 556.813721,381.767670 
	C555.565674,375.822174 549.993164,370.691437 544.067078,370.031555 
	C537.462891,369.296173 531.136902,372.537964 528.415283,378.354980 
	C525.989197,383.540192 526.224426,388.833710 529.511047,393.518036 
	C533.419739,399.088776 539.063171,400.938477 546.494263,399.421783 
z"/>
<path fill="#FFFFFF" opacity="1.000000" stroke="none" 
	d="
M35.999493,324.165863 
	C35.544426,319.720123 38.544029,321.047516 40.329906,321.043396 
	C67.662254,320.980225 94.994804,320.999390 122.327301,320.999390 
	C135.987625,320.999390 149.647934,320.999390 163.654327,320.999390 
	C163.654327,363.502441 163.654327,405.907623 163.654327,448.656952 
	C121.492226,448.656952 79.087067,448.656952 35.999363,448.656952 
	C35.999363,407.478943 35.999363,366.065186 35.999493,324.165863 
M68.631241,429.666229 
	C69.822647,429.089020 71.089348,428.628357 72.193077,427.915436 
	C78.650482,423.744354 80.994354,415.409973 77.678108,408.627625 
	C74.354721,401.830627 66.925209,398.597015 59.696407,400.801300 
	C52.363617,403.037262 47.875256,410.256042 49.130482,417.794952 
	C50.530975,426.206421 56.907360,430.327606 68.631241,429.666229 
M140.502930,338.874786 
	C139.216705,338.140533 137.997406,337.235626 136.633011,336.700775 
	C129.671921,333.971924 121.652245,336.769653 118.052704,343.090851 
	C114.328056,349.631744 115.814270,357.734497 121.591911,362.386505 
	C126.911629,366.669800 136.269440,366.435181 141.340378,361.891388 
	C147.763168,356.136261 147.653275,346.654938 140.502930,338.874786 
z"/>
<path fill="#FEFEFE" opacity="1.000000" stroke="none" 
	d="
M256.998474,436.985992 
	C256.998474,398.181335 256.998474,359.873627 256.998474,321.282410 
	C299.626770,321.282410 342.030457,321.282410 384.718140,321.282410 
	C384.718140,363.627869 384.718140,406.031555 384.718140,448.718689 
	C342.371063,448.718689 299.967377,448.718689 256.998474,448.718689 
	C256.998474,445.025757 256.998474,441.254333 256.998474,436.985992 
M297.003479,426.122345 
	C297.547668,419.145721 295.096069,413.678162 288.616333,410.615723 
	C282.860413,407.895416 277.260559,408.531250 272.376984,412.726471 
	C267.217712,417.158508 265.668091,423.794098 268.080688,429.895233 
	C270.502960,436.020813 276.102539,439.299194 283.644287,439.007172 
	C290.111694,438.756775 294.626923,434.672516 297.003479,426.122345 
M376.772125,417.161133 
	C376.107544,416.213348 375.515900,415.203094 374.766266,414.328186 
	C370.674164,409.552429 364.620789,407.926331 358.568756,409.923187 
	C352.669922,411.869476 349.058197,416.589783 348.716003,422.800049 
	C348.319061,430.002930 350.980621,435.372894 356.908173,437.822968 
	C362.604889,440.177643 368.309631,439.871216 373.221802,435.617676 
	C378.884705,430.713989 379.085144,424.526947 376.772125,417.161133 
M361.761047,327.932800 
	C355.377502,328.713379 350.310211,332.761566 349.012268,338.117676 
	C347.255951,345.365295 349.481812,351.424652 355.269867,355.152496 
	C360.161835,358.303192 367.854553,357.963531 372.590149,354.387848 
	C377.594391,350.609314 379.598267,344.056702 377.663330,337.798340 
	C375.744507,331.592194 370.285767,328.007416 361.761047,327.932800 
M271.509247,331.978363 
	C265.857239,338.718750 265.516113,346.395508 270.608063,352.257477 
	C275.344238,357.709930 284.130310,359.065765 290.088806,355.263794 
	C297.303741,350.660004 299.372986,341.313354 294.718506,334.351654 
	C289.687073,326.826141 279.956116,325.578186 271.509247,331.978363 
z"/>
<path fill="#040404" opacity="1.000000" stroke="none" 
	d="
M709.076599,139.686737 
	C709.270264,131.311218 712.754089,126.093422 719.294678,123.923248 
	C725.518799,121.858086 731.901550,123.702209 735.865051,128.710754 
	C739.677795,133.528839 740.258850,140.194717 737.268250,145.534760 
	C733.842224,151.652527 728.402405,153.791000 721.719299,152.960297 
	C715.700928,152.212250 711.854065,148.625778 709.861816,142.982071 
	C709.532593,142.049500 709.354126,141.063736 709.076599,139.686737 
z"/>
<path fill="#030303" opacity="1.000000" stroke="none" 
	d="
M793.141357,129.384399 
	C798.281799,121.854630 809.404541,121.287277 815.331055,126.825493 
	C821.243835,132.350967 822.081177,141.370087 817.193848,147.542923 
	C812.336060,153.678482 803.548706,155.112518 797.060181,150.828568 
	C790.261597,146.339905 788.562073,137.656219 793.141357,129.384399 
z"/>
<path fill="#030303" opacity="1.000000" stroke="none" 
	d="
M714.816162,109.336716 
	C709.117798,103.713638 707.604553,97.611778 710.176514,91.544975 
	C712.677612,85.645622 717.519897,82.626083 724.382996,82.686157 
	C731.154846,82.745445 735.756714,85.875648 738.175049,92.067596 
	C740.435364,97.855156 738.728210,104.797035 734.050293,108.839241 
	C729.104370,113.113144 721.496521,113.412254 714.816162,109.336716 
z"/>
<path fill="#030303" opacity="1.000000" stroke="none" 
	d="
M818.238281,91.059036 
	C821.685852,98.923058 820.437683,105.949837 815.061157,110.452744 
	C809.823486,114.839424 803.057312,115.340942 797.482483,111.755722 
	C790.363647,107.177513 788.213257,96.875465 793.011353,90.334755 
	C798.333801,83.079231 808.084412,81.764297 814.996399,87.438927 
	C816.138550,88.376625 817.024231,89.626770 818.238281,91.059036 
z"/>
<path fill="#030303" opacity="1.000000" stroke="none" 
	d="
M721.452759,41.963833 
	C734.656067,39.689106 742.702026,53.139236 737.556213,63.328285 
	C734.339661,69.697220 727.432190,72.631859 719.791077,70.927460 
	C714.049438,69.646759 709.207336,63.352173 709.028564,56.936485 
	C708.828430,49.756523 713.135681,44.387108 721.452759,41.963833 
z"/>
<path fill="#030303" opacity="1.000000" stroke="none" 
	d="
M803.335999,41.942928 
	C812.084900,41.942108 817.326294,45.110764 819.531006,51.463749 
	C821.494934,57.122936 819.673157,64.191391 815.295349,67.898392 
	C810.892639,71.626434 802.821655,72.438217 797.973572,69.640556 
	C792.147705,66.278664 789.846375,61.050934 790.853027,53.465500 
	C791.617798,47.702705 796.070984,43.448124 803.335999,41.942928 
z"/>
<path fill="#040404" opacity="1.000000" stroke="none" 
	d="
M273.252258,138.644302 
	C267.919037,129.925308 269.709473,120.494171 277.234985,116.151459 
	C284.754639,111.812126 294.141266,114.419220 298.310913,122.005203 
	C301.882141,128.502380 300.113037,136.725525 294.175934,141.225601 
	C287.884583,145.994171 279.931000,145.114532 273.252258,138.644302 
z"/>
<path fill="#030303" opacity="1.000000" stroke="none" 
	d="
M366.926117,61.613899 
	C367.087769,74.671501 361.040863,80.488991 349.129395,79.201599 
	C342.297516,78.463219 336.950317,71.982567 337.014740,64.519012 
	C337.076935,57.310493 342.811127,50.594971 349.438782,49.968700 
	C358.518646,49.110714 363.355804,52.225647 366.926117,61.613899 
z"/>
<path fill="#050505" opacity="1.000000" stroke="none" 
	d="
M526.875488,94.185776 
	C530.536438,86.440994 536.292664,83.074165 543.604858,84.061775 
	C549.469727,84.853905 555.102783,90.381897 555.954895,96.181450 
	C557.005798,103.333488 553.954834,109.500908 547.462463,112.622246 
	C541.859314,115.316116 536.413696,114.589287 531.667786,110.598503 
	C526.654480,106.382767 524.777405,101.023857 526.875488,94.185776 
z"/>
<path fill="#040404" opacity="1.000000" stroke="none" 
	d="
M515.957947,127.281921 
	C519.127563,133.445297 518.966431,139.102051 515.042969,144.429916 
	C511.124054,149.751602 505.520996,150.987961 499.491486,149.758041 
	C493.644745,148.565414 490.015076,144.514053 488.429535,138.806534 
	C486.661163,132.440918 490.049591,125.197395 496.106598,122.013084 
	C503.287964,118.237663 510.095642,119.940819 515.957947,127.281921 
z"/>
<path fill="#030303" opacity="1.000000" stroke="none" 
	d="
M564.823730,58.807465 
	C566.838806,50.815205 571.538757,46.993046 578.955750,46.943024 
	C586.247681,46.893841 592.089050,50.899258 593.783447,57.110355 
	C595.743164,64.294006 593.159180,71.457329 586.848572,74.757576 
	C581.891663,77.349846 576.503662,77.335732 571.575073,74.576668 
	C565.609985,71.237389 563.974792,65.687920 564.823730,58.807465 
z"/>
<path fill="#040404" opacity="1.000000" stroke="none" 
	d="
M739.060181,692.067017 
	C743.276855,699.273254 742.938965,706.134888 738.347900,711.255615 
	C734.064514,716.033020 726.791199,717.625061 720.973694,715.058533 
	C715.001892,712.424011 711.354065,706.411621 712.071655,699.762085 
	C712.730408,693.658386 715.924866,689.126770 721.808044,687.074707 
	C728.434937,684.763428 734.235291,686.305359 739.060181,692.067017 
z"/>
<path fill="#030303" opacity="1.000000" stroke="none" 
	d="
M796.403076,651.261536 
	C787.746460,651.416077 782.664001,648.667297 780.193848,642.736877 
	C777.769409,636.916260 779.138916,630.279114 783.690063,625.793030 
	C788.054993,621.490662 795.679077,620.427795 801.250427,623.345276 
	C806.956909,626.333435 810.070557,633.008667 808.921021,639.790100 
	C807.929321,645.640625 803.111206,650.187439 796.403076,651.261536 
z"/>
<path fill="#040404" opacity="1.000000" stroke="none" 
	d="
M544.169189,680.017822 
	C537.083801,687.107910 529.381104,687.985046 522.552551,682.767395 
	C516.916748,678.461060 515.231506,670.261292 518.676697,663.909851 
	C522.725769,656.445068 531.828003,653.756531 539.233521,657.837952 
	C547.267273,662.265747 549.238953,670.648254 544.169189,680.017822 
z"/>
<path fill="#030303" opacity="1.000000" stroke="none" 
	d="
M484.160889,698.005798 
	C491.689270,693.926575 498.213287,694.359985 503.368683,699.034119 
	C507.700775,702.961914 509.341309,709.931763 507.210663,715.522095 
	C505.141602,720.950806 501.266998,724.277588 495.466187,724.969849 
	C488.766785,725.769226 483.277985,723.636414 479.930786,717.478394 
	C476.972107,712.035217 477.301178,706.635010 480.847870,701.533813 
	C481.690796,700.321411 482.848358,699.327820 484.160889,698.005798 
z"/>
<path fill="#030303" opacity="1.000000" stroke="none" 
	d="
M562.858032,719.998047 
	C557.479919,711.760193 559.083069,701.747864 566.210571,697.306885 
	C573.569031,692.722168 583.514954,695.375061 587.679871,703.033569 
	C591.035461,709.203857 589.323242,717.546631 583.797546,721.950500 
	C577.554871,726.925842 569.952454,726.320129 562.858032,719.998047 
z"/>
<path fill="#030303" opacity="1.000000" stroke="none" 
	d="
M498.106506,642.702026 
	C486.470459,644.888916 481.486176,639.781494 479.145844,634.220825 
	C475.925964,626.570435 479.689667,617.907593 487.271637,614.807739 
	C494.932861,611.675415 503.847229,615.128235 506.988800,622.444763 
	C510.410217,630.413086 506.936768,638.629211 498.106506,642.702026 
z"/>
<path fill="#030303" opacity="1.000000" stroke="none" 
	d="
M585.630127,638.570618 
	C580.092896,644.057617 573.788635,644.710266 567.442322,641.778992 
	C559.951660,638.319214 557.271362,628.974548 561.035217,621.664429 
	C564.840088,614.274658 574.291138,611.419006 581.675476,615.427979 
	C588.620300,619.198364 591.369141,628.676392 587.558411,635.816528 
	C587.092102,636.690369 586.442322,637.466309 585.630127,638.570618 
z"/>
<path fill="#040404" opacity="1.000000" stroke="none" 
	d="
M333.598358,679.396851 
	C326.956421,686.999207 318.876190,688.201233 311.754303,682.922485 
	C305.738281,678.463318 304.115845,669.842529 308.056702,663.275513 
	C312.215698,656.344971 320.917664,653.917114 328.011963,657.708008 
	C335.976837,661.964050 338.149200,669.967407 333.598358,679.396851 
z"/>
<path fill="#040404" opacity="1.000000" stroke="none" 
	d="
M75.602936,691.477417 
	C80.037422,697.473572 80.325729,703.502197 76.677261,709.453857 
	C73.133217,715.235168 67.444099,716.938782 61.079433,715.901001 
	C55.158268,714.935547 51.341076,711.177307 49.604214,705.415222 
	C47.706188,699.118591 50.416904,691.763489 55.845711,688.343384 
	C62.016922,684.455627 69.522560,685.552185 75.602936,691.477417 
z"/>
<path fill="#030303" opacity="1.000000" stroke="none" 
	d="
M145.926102,633.613892 
	C146.087952,646.671021 140.040375,652.489075 128.129349,651.201599 
	C121.297424,650.463135 115.950272,643.982544 116.014671,636.518982 
	C116.076866,629.310486 121.811089,622.594910 128.438782,621.968689 
	C137.518677,621.110657 142.355743,624.225586 145.926102,633.613892 
z"/>
<path fill="#040404" opacity="1.000000" stroke="none" 
	d="
M97.485382,84.075958 
	C106.693977,83.957977 112.253754,87.527588 114.444420,94.652390 
	C116.425102,101.094269 113.901489,107.983765 108.233444,111.608391 
	C100.952072,116.264709 91.126556,113.998856 86.969505,106.704742 
	C82.631729,99.093529 85.228035,89.872467 92.924561,85.765724 
	C94.227661,85.070404 95.683762,84.661789 97.485382,84.075958 
z"/>
<path fill="#040404" opacity="1.000000" stroke="none" 
	d="
M738.304077,416.114258 
	C740.060852,423.207489 738.817444,429.067078 733.041016,433.345764 
	C728.005920,437.075317 722.430664,437.101654 717.028503,434.489105 
	C711.135437,431.639252 708.059021,424.922333 709.177063,418.619537 
	C710.289856,412.345795 715.560730,407.185638 721.855652,406.207275 
	C728.704468,405.142822 734.467896,408.511902 738.304077,416.114258 
z"/>
<path fill="#050505" opacity="1.000000" stroke="none" 
	d="
M769.049683,371.677246 
	C776.062317,376.385132 778.599060,382.507996 776.588684,389.294373 
	C774.668091,395.777588 768.527771,400.148773 761.538513,400.008270 
	C754.995728,399.876770 749.135132,395.255127 747.486145,388.685120 
	C746.022949,382.855194 747.674500,377.741302 752.090210,373.803314 
	C757.005127,369.420135 762.677185,368.671661 769.049683,371.677246 
z"/>
<path fill="#030303" opacity="1.000000" stroke="none" 
	d="
M813.724365,340.666992 
	C816.015137,347.404449 816.015015,353.473846 810.889893,358.573059 
	C807.145508,362.298523 798.990601,363.634308 794.080444,361.501526 
	C788.636658,359.136932 785.565002,354.032715 785.635498,347.468323 
	C785.706238,340.881073 788.753052,335.863251 794.569031,333.868500 
	C800.374573,331.877319 806.052002,332.187286 810.757751,336.808319 
	C811.813293,337.844879 812.612854,339.142029 813.724365,340.666992 
z"/>
<path fill="#040404" opacity="1.000000" stroke="none" 
	d="
M546.110840,399.565430 
	C539.063171,400.938477 533.419739,399.088776 529.511047,393.518036 
	C526.224426,388.833710 525.989197,383.540192 528.415283,378.354980 
	C531.136902,372.537964 537.462891,369.296173 544.067078,370.031555 
	C549.993164,370.691437 555.565674,375.822174 556.813721,381.767670 
	C558.171143,388.234436 555.409729,394.501221 549.635925,397.935425 
	C548.644714,398.525024 547.544250,398.930969 546.110840,399.565430 
z"/>
<path fill="#040404" opacity="1.000000" stroke="none" 
	d="
M68.231842,429.774353 
	C56.907360,430.327606 50.530975,426.206421 49.130482,417.794952 
	C47.875256,410.256042 52.363617,403.037262 59.696407,400.801300 
	C66.925209,398.597015 74.354721,401.830627 77.678108,408.627625 
	C80.994354,415.409973 78.650482,423.744354 72.193077,427.915436 
	C71.089348,428.628357 69.822647,429.089020 68.231842,429.774353 
z"/>
<path fill="#030303" opacity="1.000000" stroke="none" 
	d="
M140.791046,339.114014 
	C147.653275,346.654938 147.763168,356.136261 141.340378,361.891388 
	C136.269440,366.435181 126.911629,366.669800 121.591911,362.386505 
	C115.814270,357.734497 114.328056,349.631744 118.052704,343.090851 
	C121.652245,336.769653 129.671921,333.971924 136.633011,336.700775 
	C137.997406,337.235626 139.216705,338.140533 140.791046,339.114014 
z"/>
<path fill="#040404" opacity="1.000000" stroke="none" 
	d="
M296.982025,426.542114 
	C294.626923,434.672516 290.111694,438.756775 283.644287,439.007172 
	C276.102539,439.299194 270.502960,436.020813 268.080688,429.895233 
	C265.668091,423.794098 267.217712,417.158508 272.376984,412.726471 
	C277.260559,408.531250 282.860413,407.895416 288.616333,410.615723 
	C295.096069,413.678162 297.547668,419.145721 296.982025,426.542114 
z"/>
<path fill="#030303" opacity="1.000000" stroke="none" 
	d="
M376.924805,417.532928 
	C379.085144,424.526947 378.884705,430.713989 373.221802,435.617676 
	C368.309631,439.871216 362.604889,440.177643 356.908173,437.822968 
	C350.980621,435.372894 348.319061,430.002930 348.716003,422.800049 
	C349.058197,416.589783 352.669922,411.869476 358.568756,409.923187 
	C364.620789,407.926331 370.674164,409.552429 374.766266,414.328186 
	C375.515900,415.203094 376.107544,416.213348 376.924805,417.532928 
z"/>
<path fill="#030303" opacity="1.000000" stroke="none" 
	d="
M362.193970,327.928345 
	C370.285767,328.007416 375.744507,331.592194 377.663330,337.798340 
	C379.598267,344.056702 377.594391,350.609314 372.590149,354.387848 
	C367.854553,357.963531 360.161835,358.303192 355.269867,355.152496 
	C349.481812,351.424652 347.255951,345.365295 349.012268,338.117676 
	C350.310211,332.761566 355.377502,328.713379 362.193970,327.928345 
z"/>
<path fill="#030303" opacity="1.000000" stroke="none" 
	d="
M271.774506,331.710815 
	C279.956116,325.578186 289.687073,326.826141 294.718506,334.351654 
	C299.372986,341.313354 297.303741,350.660004 290.088806,355.263794 
	C284.130310,359.065765 275.344238,357.709930 270.608063,352.257477 
	C265.516113,346.395508 265.857239,338.718750 271.774506,331.710815 
z"/>
</svg>