<?xml version="1.0" encoding="utf-8" standalone="no"?>
<!DOCTYPE svg PUBLIC "-//W3C//DTD SVG 1.1//EN"
  "http://www.w3.org/Graphics/SVG/1.1/DTD/svg11.dtd">
<svg xmlns:xlink="http://www.w3.org/1999/xlink" width="460.8pt" height="345.6pt" viewBox="0 0 460.8 345.6" xmlns="http://www.w3.org/2000/svg" version="1.1">
 <metadata>
  <rdf:RDF xmlns:dc="http://purl.org/dc/elements/1.1/" xmlns:cc="http://creativecommons.org/ns#" xmlns:rdf="http://www.w3.org/1999/02/22-rdf-syntax-ns#">
   <cc:Work>
    <dc:type rdf:resource="http://purl.org/dc/dcmitype/StillImage"/>
    <dc:date>2024-08-06T22:09:04.274603</dc:date>
    <dc:format>image/svg+xml</dc:format>
    <dc:creator>
     <cc:Agent>
      <dc:title>Matplotlib v3.8.3, https://matplotlib.org/</dc:title>
     </cc:Agent>
    </dc:creator>
   </cc:Work>
  </rdf:RDF>
 </metadata>
 <defs>
  <style type="text/css">*{stroke-linejoin: round; stroke-linecap: butt}</style>
 </defs>
 <g id="figure_1">
  <g id="patch_1">
   <path d="M 0 345.6 
L 460.8 345.6 
L 460.8 0 
L 0 0 
L 0 345.6 
z
" style="fill: none"/>
  </g>
  <g id="axes_1">
   <g id="patch_2">
    <path d="M 57.6 307.584 
L 414.72 307.584 
L 414.72 41.472 
L 57.6 41.472 
z
" style="fill: #ff0000"/>
   </g>
   <g id="LineCollection_1">
    <path d="M 57.6 201.1392 
L 414.72 201.1392 
" clip-path="url(#p0c6974ef0b)" style="fill: none; stroke: #d3d3d3; stroke-width: 1.5"/>
   </g>
   <g id="LineCollection_2">
    <path clip-path="url(#p0c6974ef0b)" style="fill: none; stroke: #d3d3d3; stroke-width: 1.5"/>
   </g>
   <g id="matplotlib.axis_1">
    <g id="text_1">
     <!-- X-as -->
     <g style="fill: #d3d3d3" transform="translate(225.512344 319.182437) scale(0.1 -0.1)">
      <defs>
       <path id="DejaVuSans-58" d="M 403 4666 
L 1081 4666 
L 2241 2931 
L 3406 4666 
L 4084 4666 
L 2584 2425 
L 4184 0 
L 3506 0 
L 2194 1984 
L 872 0 
L 191 0 
L 1856 2491 
L 403 4666 
z
" transform="scale(0.015625)"/>
       <path id="DejaVuSans-2d" d="M 313 2009 
L 1997 2009 
L 1997 1497 
L 313 1497 
L 313 2009 
z
" transform="scale(0.015625)"/>
       <path id="DejaVuSans-61" d="M 2194 1759 
Q 1497 1759 1228 1600 
Q 959 1441 959 1056 
Q 959 750 1161 570 
Q 1363 391 1709 391 
Q 2188 391 2477 730 
Q 2766 1069 2766 1631 
L 2766 1759 
L 2194 1759 
z
M 3341 1997 
L 3341 0 
L 2766 0 
L 2766 531 
Q 2569 213 2275 61 
Q 1981 -91 1556 -91 
Q 1019 -91 701 211 
Q 384 513 384 1019 
Q 384 1609 779 1909 
Q 1175 2209 1959 2209 
L 2766 2209 
L 2766 2266 
Q 2766 2663 2505 2880 
Q 2244 3097 1772 3097 
Q 1472 3097 1187 3025 
Q 903 2953 641 2809 
L 641 3341 
Q 956 3463 1253 3523 
Q 1550 3584 1831 3584 
Q 2591 3584 2966 3190 
Q 3341 2797 3341 1997 
z
" transform="scale(0.015625)"/>
       <path id="DejaVuSans-73" d="M 2834 3397 
L 2834 2853 
Q 2591 2978 2328 3040 
Q 2066 3103 1784 3103 
Q 1356 3103 1142 2972 
Q 928 2841 928 2578 
Q 928 2378 1081 2264 
Q 1234 2150 1697 2047 
L 1894 2003 
Q 2506 1872 2764 1633 
Q 3022 1394 3022 966 
Q 3022 478 2636 193 
Q 2250 -91 1575 -91 
Q 1294 -91 989 -36 
Q 684 19 347 128 
L 347 722 
Q 666 556 975 473 
Q 1284 391 1588 391 
Q 1994 391 2212 530 
Q 2431 669 2431 922 
Q 2431 1156 2273 1281 
Q 2116 1406 1581 1522 
L 1381 1569 
Q 847 1681 609 1914 
Q 372 2147 372 2553 
Q 372 3047 722 3315 
Q 1072 3584 1716 3584 
Q 2034 3584 2315 3537 
Q 2597 3491 2834 3397 
z
" transform="scale(0.015625)"/>
      </defs>
      <use xlink:href="#DejaVuSans-58"/>
      <use xlink:href="#DejaVuSans-2d" x="63.505859"/>
      <use xlink:href="#DejaVuSans-61" x="99.589844"/>
      <use xlink:href="#DejaVuSans-73" x="160.869141"/>
     </g>
    </g>
   </g>
   <g id="matplotlib.axis_2">
    <g id="text_2">
     <!-- Y-as -->
     <g style="fill: #d3d3d3" transform="translate(51.520313 184.460813) rotate(-90) scale(0.1 -0.1)">
      <defs>
       <path id="DejaVuSans-59" d="M -13 4666 
L 666 4666 
L 1959 2747 
L 3244 4666 
L 3922 4666 
L 2272 2222 
L 2272 0 
L 1638 0 
L 1638 2222 
L -13 4666 
z
" transform="scale(0.015625)"/>
      </defs>
      <use xlink:href="#DejaVuSans-59"/>
      <use xlink:href="#DejaVuSans-2d" x="49.208984"/>
      <use xlink:href="#DejaVuSans-61" x="85.292969"/>
      <use xlink:href="#DejaVuSans-73" x="146.572266"/>
     </g>
    </g>
   </g>
   <g id="line2d_1">
    <path d="M 115.695941 346.6 
L 117.12 334.1952 
L 119.5008 314.478217 
L 121.8816 295.762666 
L 124.2624 278.028111 
L 126.6432 261.254114 
L 129.024 245.420237 
L 131.4048 230.506043 
L 133.7856 216.491095 
L 136.1664 203.354955 
L 138.5472 191.077186 
L 140.928 179.63735 
L 143.3088 169.015011 
L 145.6896 159.18973 
L 148.0704 150.141071 
L 150.4512 141.848595 
L 152.832 134.291866 
L 155.2128 127.450445 
L 157.5936 121.303897 
L 159.9744 115.831783 
L 162.3552 111.013665 
L 164.736 106.829107 
L 167.1168 103.257671 
L 169.4976 100.27892 
L 171.8784 97.872416 
L 174.2592 96.017722 
L 176.64 94.6944 
L 179.0208 93.882013 
L 181.4016 93.560124 
L 183.7824 93.708295 
L 186.1632 94.306089 
L 188.544 95.333069 
L 190.9248 96.768796 
L 193.3056 98.592834 
L 195.6864 100.784746 
L 198.0672 103.324093 
L 200.448 106.190438 
L 202.8288 109.363345 
L 205.2096 112.822375 
L 207.5904 116.547092 
L 209.9712 120.517057 
L 214.7328 129.110984 
L 219.4944 138.440658 
L 224.256 148.342579 
L 231.3984 163.91077 
L 245.6832 195.598961 
L 250.4448 205.725694 
L 255.2064 215.361928 
L 259.968 224.344166 
L 264.7296 232.508908 
L 267.1104 236.233625 
L 269.4912 239.692655 
L 271.872 242.865562 
L 274.2528 245.731907 
L 276.6336 248.271254 
L 279.0144 250.463166 
L 281.3952 252.287204 
L 283.776 253.722931 
L 286.1568 254.749911 
L 288.5376 255.347705 
L 290.9184 255.495876 
L 293.2992 255.173987 
L 295.68 254.3616 
L 298.0608 253.038278 
L 300.4416 251.183584 
L 302.8224 248.77708 
L 305.2032 245.798329 
L 307.584 242.226893 
L 309.9648 238.042335 
L 312.3456 233.224217 
L 314.7264 227.752103 
L 317.1072 221.605555 
L 319.488 214.764134 
L 321.8688 207.207405 
L 324.2496 198.914929 
L 326.6304 189.86627 
L 329.0112 180.040989 
L 331.392 169.41865 
L 333.7728 157.978814 
L 336.1536 145.701045 
L 338.5344 132.564905 
L 340.9152 118.549957 
L 343.296 103.635763 
L 345.6768 87.801886 
L 348.0576 71.027889 
L 350.4384 53.293334 
L 352.8192 34.577783 
L 357.020804 -1 
L 357.020804 -1 
" clip-path="url(#p0c6974ef0b)" style="fill: none; stroke: #00ced1; stroke-width: 1.5; stroke-linecap: square"/>
   </g>
   <g id="patch_3">
    <path d="M 57.6 307.584 
L 57.6 41.472 
" style="fill: none; stroke: #d3d3d3; stroke-width: 0.8; stroke-linejoin: miter; stroke-linecap: square"/>
   </g>
   <g id="patch_4">
    <path d="M 414.72 307.584 
L 414.72 41.472 
" style="fill: none; stroke: #d3d3d3; stroke-width: 0.8; stroke-linejoin: miter; stroke-linecap: square"/>
   </g>
   <g id="patch_5">
    <path d="M 57.6 307.584 
L 414.72 307.584 
" style="fill: none; stroke: #d3d3d3; stroke-width: 0.8; stroke-linejoin: miter; stroke-linecap: square"/>
   </g>
   <g id="patch_6">
    <path d="M 57.6 41.472 
L 414.72 41.472 
" style="fill: none; stroke: #d3d3d3; stroke-width: 0.8; stroke-linejoin: miter; stroke-linecap: square"/>
   </g>
   <g id="PolyCollection_1">
    <defs>
     <path id="m3a399723f3" d="M 138.5472 -144.4608 
L 138.5472 -154.522814 
L 140.928 -165.96265 
L 143.3088 -176.584989 
L 145.6896 -186.41027 
L 148.0704 -195.458929 
L 150.4512 -203.751405 
L 152.832 -211.308134 
L 155.2128 -218.149555 
L 157.5936 -224.296103 
L 159.9744 -229.768217 
L 162.3552 -234.586335 
L 164.736 -238.770893 
L 167.1168 -242.342329 
L 169.4976 -245.32108 
L 171.8784 -247.727584 
L 174.2592 -249.582278 
L 176.64 -250.9056 
L 179.0208 -251.717987 
L 181.4016 -252.039876 
L 183.7824 -251.891705 
L 186.1632 -251.293911 
L 188.544 -250.266931 
L 190.9248 -248.831204 
L 193.3056 -247.007166 
L 195.6864 -244.815254 
L 198.0672 -242.275907 
L 200.448 -239.409562 
L 202.8288 -236.236655 
L 205.2096 -232.777625 
L 207.5904 -229.052908 
L 209.9712 -225.082943 
L 212.352 -220.888166 
L 214.7328 -216.489016 
L 217.1136 -211.905928 
L 219.4944 -207.159342 
L 221.8752 -202.269694 
L 224.256 -197.257421 
L 226.6368 -192.142961 
L 229.0176 -186.946752 
L 231.3984 -181.68923 
L 233.7792 -176.390834 
L 236.16 -171.072 
L 238.5408 -165.753166 
L 240.9216 -160.45477 
L 243.3024 -155.197248 
L 245.6832 -150.001039 
L 248.064 -144.886579 
L 250.4448 -139.874306 
L 252.8256 -134.984658 
L 255.2064 -130.238072 
L 257.5872 -125.654984 
L 259.968 -121.255834 
L 262.3488 -117.061057 
L 264.7296 -113.091092 
L 267.1104 -109.366375 
L 269.4912 -105.907345 
L 271.872 -102.734438 
L 274.2528 -99.868093 
L 276.6336 -97.328746 
L 279.0144 -95.136834 
L 281.3952 -93.312796 
L 283.776 -91.877069 
L 286.1568 -90.850089 
L 288.5376 -90.252295 
L 290.9184 -90.104124 
L 293.2992 -90.426013 
L 295.68 -91.2384 
L 298.0608 -92.561722 
L 300.4416 -94.416416 
L 302.8224 -96.82292 
L 305.2032 -99.801671 
L 307.584 -103.373107 
L 309.9648 -107.557665 
L 312.3456 -112.375783 
L 314.7264 -117.847897 
L 317.1072 -123.994445 
L 319.488 -130.835866 
L 321.8688 -138.392595 
L 321.8688 -144.4608 
L 321.8688 -144.4608 
L 319.488 -144.4608 
L 317.1072 -144.4608 
L 314.7264 -144.4608 
L 312.3456 -144.4608 
L 309.9648 -144.4608 
L 307.584 -144.4608 
L 305.2032 -144.4608 
L 302.8224 -144.4608 
L 300.4416 -144.4608 
L 298.0608 -144.4608 
L 295.68 -144.4608 
L 293.2992 -144.4608 
L 290.9184 -144.4608 
L 288.5376 -144.4608 
L 286.1568 -144.4608 
L 283.776 -144.4608 
L 281.3952 -144.4608 
L 279.0144 -144.4608 
L 276.6336 -144.4608 
L 274.2528 -144.4608 
L 271.872 -144.4608 
L 269.4912 -144.4608 
L 267.1104 -144.4608 
L 264.7296 -144.4608 
L 262.3488 -144.4608 
L 259.968 -144.4608 
L 257.5872 -144.4608 
L 255.2064 -144.4608 
L 252.8256 -144.4608 
L 250.4448 -144.4608 
L 248.064 -144.4608 
L 245.6832 -144.4608 
L 243.3024 -144.4608 
L 240.9216 -144.4608 
L 238.5408 -144.4608 
L 236.16 -144.4608 
L 233.7792 -144.4608 
L 231.3984 -144.4608 
L 229.0176 -144.4608 
L 226.6368 -144.4608 
L 224.256 -144.4608 
L 221.8752 -144.4608 
L 219.4944 -144.4608 
L 217.1136 -144.4608 
L 214.7328 -144.4608 
L 212.352 -144.4608 
L 209.9712 -144.4608 
L 207.5904 -144.4608 
L 205.2096 -144.4608 
L 202.8288 -144.4608 
L 200.448 -144.4608 
L 198.0672 -144.4608 
L 195.6864 -144.4608 
L 193.3056 -144.4608 
L 190.9248 -144.4608 
L 188.544 -144.4608 
L 186.1632 -144.4608 
L 183.7824 -144.4608 
L 181.4016 -144.4608 
L 179.0208 -144.4608 
L 176.64 -144.4608 
L 174.2592 -144.4608 
L 171.8784 -144.4608 
L 169.4976 -144.4608 
L 167.1168 -144.4608 
L 164.736 -144.4608 
L 162.3552 -144.4608 
L 159.9744 -144.4608 
L 157.5936 -144.4608 
L 155.2128 -144.4608 
L 152.832 -144.4608 
L 150.4512 -144.4608 
L 148.0704 -144.4608 
L 145.6896 -144.4608 
L 143.3088 -144.4608 
L 140.928 -144.4608 
L 138.5472 -144.4608 
z
" style="stroke: #00ff7f; stroke-opacity: 0.7"/>
    </defs>
    <g clip-path="url(#p0c6974ef0b)">
     <use xlink:href="#m3a399723f3" x="0" y="345.6" style="fill: #00ff7f; fill-opacity: 0.7; stroke: #00ff7f; stroke-opacity: 0.7"/>
    </g>
   </g>
   <g id="text_3">
    <!-- f(x) = (4x-7)³ -10x + 18 -->
    <g style="fill: #d3d3d3" transform="translate(164.800313 35.472) scale(0.12 -0.12)">
     <defs>
      <path id="DejaVuSans-66" d="M 2375 4863 
L 2375 4384 
L 1825 4384 
Q 1516 4384 1395 4259 
Q 1275 4134 1275 3809 
L 1275 3500 
L 2222 3500 
L 2222 3053 
L 1275 3053 
L 1275 0 
L 697 0 
L 697 3053 
L 147 3053 
L 147 3500 
L 697 3500 
L 697 3744 
Q 697 4328 969 4595 
Q 1241 4863 1831 4863 
L 2375 4863 
z
" transform="scale(0.015625)"/>
      <path id="DejaVuSans-28" d="M 1984 4856 
Q 1566 4138 1362 3434 
Q 1159 2731 1159 2009 
Q 1159 1288 1364 580 
Q 1569 -128 1984 -844 
L 1484 -844 
Q 1016 -109 783 600 
Q 550 1309 550 2009 
Q 550 2706 781 3412 
Q 1013 4119 1484 4856 
L 1984 4856 
z
" transform="scale(0.015625)"/>
      <path id="DejaVuSans-78" d="M 3513 3500 
L 2247 1797 
L 3578 0 
L 2900 0 
L 1881 1375 
L 863 0 
L 184 0 
L 1544 1831 
L 300 3500 
L 978 3500 
L 1906 2253 
L 2834 3500 
L 3513 3500 
z
" transform="scale(0.015625)"/>
      <path id="DejaVuSans-29" d="M 513 4856 
L 1013 4856 
Q 1481 4119 1714 3412 
Q 1947 2706 1947 2009 
Q 1947 1309 1714 600 
Q 1481 -109 1013 -844 
L 513 -844 
Q 928 -128 1133 580 
Q 1338 1288 1338 2009 
Q 1338 2731 1133 3434 
Q 928 4138 513 4856 
z
" transform="scale(0.015625)"/>
      <path id="DejaVuSans-20" transform="scale(0.015625)"/>
      <path id="DejaVuSans-3d" d="M 678 2906 
L 4684 2906 
L 4684 2381 
L 678 2381 
L 678 2906 
z
M 678 1631 
L 4684 1631 
L 4684 1100 
L 678 1100 
L 678 1631 
z
" transform="scale(0.015625)"/>
      <path id="DejaVuSans-34" d="M 2419 4116 
L 825 1625 
L 2419 1625 
L 2419 4116 
z
M 2253 4666 
L 3047 4666 
L 3047 1625 
L 3713 1625 
L 3713 1100 
L 3047 1100 
L 3047 0 
L 2419 0 
L 2419 1100 
L 313 1100 
L 313 1709 
L 2253 4666 
z
" transform="scale(0.015625)"/>
      <path id="DejaVuSans-37" d="M 525 4666 
L 3525 4666 
L 3525 4397 
L 1831 0 
L 1172 0 
L 2766 4134 
L 525 4134 
L 525 4666 
z
" transform="scale(0.015625)"/>
      <path id="DejaVuSans-b3" d="M 1638 3500 
Q 1925 3444 2083 3273 
Q 2241 3103 2241 2847 
Q 2241 2459 1944 2250 
Q 1647 2041 1094 2041 
Q 916 2041 720 2073 
Q 525 2106 306 2169 
L 306 2547 
Q 469 2463 655 2422 
Q 841 2381 1050 2381 
Q 1391 2381 1578 2504 
Q 1766 2628 1766 2847 
Q 1766 3078 1592 3197 
Q 1419 3316 1081 3316 
L 813 3316 
L 813 3653 
L 1106 3653 
Q 1400 3653 1551 3751 
Q 1703 3850 1703 4038 
Q 1703 4219 1547 4314 
Q 1391 4409 1094 4409 
Q 969 4409 809 4381 
Q 650 4353 397 4281 
L 397 4641 
Q 625 4694 825 4722 
Q 1025 4750 1197 4750 
Q 1647 4750 1911 4565 
Q 2175 4381 2175 4072 
Q 2175 3856 2034 3706 
Q 1894 3556 1638 3500 
z
" transform="scale(0.015625)"/>
      <path id="DejaVuSans-31" d="M 794 531 
L 1825 531 
L 1825 4091 
L 703 3866 
L 703 4441 
L 1819 4666 
L 2450 4666 
L 2450 531 
L 3481 531 
L 3481 0 
L 794 0 
L 794 531 
z
" transform="scale(0.015625)"/>
      <path id="DejaVuSans-30" d="M 2034 4250 
Q 1547 4250 1301 3770 
Q 1056 3291 1056 2328 
Q 1056 1369 1301 889 
Q 1547 409 2034 409 
Q 2525 409 2770 889 
Q 3016 1369 3016 2328 
Q 3016 3291 2770 3770 
Q 2525 4250 2034 4250 
z
M 2034 4750 
Q 2819 4750 3233 4129 
Q 3647 3509 3647 2328 
Q 3647 1150 3233 529 
Q 2819 -91 2034 -91 
Q 1250 -91 836 529 
Q 422 1150 422 2328 
Q 422 3509 836 4129 
Q 1250 4750 2034 4750 
z
" transform="scale(0.015625)"/>
      <path id="DejaVuSans-2b" d="M 2944 4013 
L 2944 2272 
L 4684 2272 
L 4684 1741 
L 2944 1741 
L 2944 0 
L 2419 0 
L 2419 1741 
L 678 1741 
L 678 2272 
L 2419 2272 
L 2419 4013 
L 2944 4013 
z
" transform="scale(0.015625)"/>
      <path id="DejaVuSans-38" d="M 2034 2216 
Q 1584 2216 1326 1975 
Q 1069 1734 1069 1313 
Q 1069 891 1326 650 
Q 1584 409 2034 409 
Q 2484 409 2743 651 
Q 3003 894 3003 1313 
Q 3003 1734 2745 1975 
Q 2488 2216 2034 2216 
z
M 1403 2484 
Q 997 2584 770 2862 
Q 544 3141 544 3541 
Q 544 4100 942 4425 
Q 1341 4750 2034 4750 
Q 2731 4750 3128 4425 
Q 3525 4100 3525 3541 
Q 3525 3141 3298 2862 
Q 3072 2584 2669 2484 
Q 3125 2378 3379 2068 
Q 3634 1759 3634 1313 
Q 3634 634 3220 271 
Q 2806 -91 2034 -91 
Q 1263 -91 848 271 
Q 434 634 434 1313 
Q 434 1759 690 2068 
Q 947 2378 1403 2484 
z
M 1172 3481 
Q 1172 3119 1398 2916 
Q 1625 2713 2034 2713 
Q 2441 2713 2670 2916 
Q 2900 3119 2900 3481 
Q 2900 3844 2670 4047 
Q 2441 4250 2034 4250 
Q 1625 4250 1398 4047 
Q 1172 3844 1172 3481 
z
" transform="scale(0.015625)"/>
     </defs>
     <use xlink:href="#DejaVuSans-66"/>
     <use xlink:href="#DejaVuSans-28" x="35.205078"/>
     <use xlink:href="#DejaVuSans-78" x="74.21875"/>
     <use xlink:href="#DejaVuSans-29" x="133.398438"/>
     <use xlink:href="#DejaVuSans-20" x="172.412109"/>
     <use xlink:href="#DejaVuSans-3d" x="204.199219"/>
     <use xlink:href="#DejaVuSans-20" x="287.988281"/>
     <use xlink:href="#DejaVuSans-28" x="319.775391"/>
     <use xlink:href="#DejaVuSans-34" x="358.789062"/>
     <use xlink:href="#DejaVuSans-78" x="422.412109"/>
     <use xlink:href="#DejaVuSans-2d" x="481.591797"/>
     <use xlink:href="#DejaVuSans-37" x="517.675781"/>
     <use xlink:href="#DejaVuSans-29" x="581.298828"/>
     <use xlink:href="#DejaVuSans-b3" x="620.3125"/>
     <use xlink:href="#DejaVuSans-20" x="660.400391"/>
     <use xlink:href="#DejaVuSans-2d" x="692.1875"/>
     <use xlink:href="#DejaVuSans-31" x="728.271484"/>
     <use xlink:href="#DejaVuSans-30" x="791.894531"/>
     <use xlink:href="#DejaVuSans-78" x="855.517578"/>
     <use xlink:href="#DejaVuSans-20" x="914.697266"/>
     <use xlink:href="#DejaVuSans-2b" x="946.484375"/>
     <use xlink:href="#DejaVuSans-20" x="1030.273438"/>
     <use xlink:href="#DejaVuSans-31" x="1062.060547"/>
     <use xlink:href="#DejaVuSans-38" x="1125.683594"/>
    </g>
   </g>
   <g id="text_4">
    <!-- $V$ -->
    <g style="fill: #ffffff" transform="translate(176.64 161.2224) scale(0.1728 -0.1728)">
     <defs>
      <path id="DejaVuSans-Oblique-56" d="M 1319 0 
L 500 4666 
L 1119 4666 
L 1797 653 
L 4063 4666 
L 4750 4666 
L 2053 0 
L 1319 0 
z
" transform="scale(0.015625)"/>
     </defs>
     <use xlink:href="#DejaVuSans-Oblique-56" transform="translate(0 0.09375)"/>
    </g>
   </g>
   <g id="PathCollection_1">
    <defs>
     <path id="m5820bfd0e3" d="M 0 3 
C 0.795609 3 1.55874 2.683901 2.12132 2.12132 
C 2.683901 1.55874 3 0.795609 3 0 
C 3 -0.795609 2.683901 -1.55874 2.12132 -2.12132 
C 1.55874 -2.683901 0.795609 -3 0 -3 
C -0.795609 -3 -1.55874 -2.683901 -2.12132 -2.12132 
C -2.683901 -1.55874 -3 -0.795609 -3 0 
C -3 0.795609 -2.683901 1.55874 -2.12132 2.12132 
C -1.55874 2.683901 -0.795609 3 0 3 
z
" style="stroke: #7fffd4"/>
    </defs>
    <g clip-path="url(#p0c6974ef0b)">
     <use xlink:href="#m5820bfd0e3" x="136.58304" y="201.14496" style="fill: #7fffd4; stroke: #7fffd4"/>
    </g>
   </g>
   <g id="PathCollection_2">
    <g clip-path="url(#p0c6974ef0b)">
     <use xlink:href="#m5820bfd0e3" x="248.263987" y="201.138667" style="fill: #7fffd4; stroke: #7fffd4"/>
    </g>
   </g>
   <g id="PathCollection_3">
    <g clip-path="url(#p0c6974ef0b)">
     <use xlink:href="#m5820bfd0e3" x="323.630592" y="201.142892" style="fill: #7fffd4; stroke: #7fffd4"/>
    </g>
   </g>
   <g id="legend_1">
    <g id="patch_7">
     <path d="M 234.42 64.972 
L 407.72 64.972 
Q 409.72 64.972 409.72 62.972 
L 409.72 48.472 
Q 409.72 46.472 407.72 46.472 
L 234.42 46.472 
Q 232.42 46.472 232.42 48.472 
L 232.42 62.972 
Q 232.42 64.972 234.42 64.972 
z
" style="fill: #ffffff; opacity: 0.8; stroke: #cccccc; stroke-linejoin: miter"/>
    </g>
    <g id="line2d_2">
     <path d="M 236.42 55.392313 
L 246.42 55.392313 
L 256.42 55.392313 
" style="fill: none; stroke: #00ced1; stroke-width: 1.5; stroke-linecap: square"/>
    </g>
    <g id="text_5">
     <!-- $f(x) = - 10 x + \left(4 x - 7\right)^{3} + 18$ -->
     <g transform="translate(264.42 58.892313) scale(0.1 -0.1)">
      <defs>
       <path id="DejaVuSans-Oblique-66" d="M 3059 4863 
L 2969 4384 
L 2419 4384 
Q 2106 4384 1964 4261 
Q 1822 4138 1753 3809 
L 1691 3500 
L 2638 3500 
L 2553 3053 
L 1606 3053 
L 1013 0 
L 434 0 
L 1031 3053 
L 481 3053 
L 563 3500 
L 1113 3500 
L 1159 3744 
Q 1278 4363 1576 4613 
Q 1875 4863 2516 4863 
L 3059 4863 
z
" transform="scale(0.015625)"/>
       <path id="DejaVuSans-Oblique-78" d="M 3841 3500 
L 2234 1784 
L 3219 0 
L 2559 0 
L 1819 1388 
L 531 0 
L -166 0 
L 1556 1844 
L 641 3500 
L 1300 3500 
L 1972 2234 
L 3144 3500 
L 3841 3500 
z
" transform="scale(0.015625)"/>
       <path id="DejaVuSans-2212" d="M 678 2272 
L 4684 2272 
L 4684 1741 
L 678 1741 
L 678 2272 
z
" transform="scale(0.015625)"/>
       <path id="DejaVuSans-33" d="M 2597 2516 
Q 3050 2419 3304 2112 
Q 3559 1806 3559 1356 
Q 3559 666 3084 287 
Q 2609 -91 1734 -91 
Q 1441 -91 1130 -33 
Q 819 25 488 141 
L 488 750 
Q 750 597 1062 519 
Q 1375 441 1716 441 
Q 2309 441 2620 675 
Q 2931 909 2931 1356 
Q 2931 1769 2642 2001 
Q 2353 2234 1838 2234 
L 1294 2234 
L 1294 2753 
L 1863 2753 
Q 2328 2753 2575 2939 
Q 2822 3125 2822 3475 
Q 2822 3834 2567 4026 
Q 2313 4219 1838 4219 
Q 1578 4219 1281 4162 
Q 984 4106 628 3988 
L 628 4550 
Q 988 4650 1302 4700 
Q 1616 4750 1894 4750 
Q 2613 4750 3031 4423 
Q 3450 4097 3450 3541 
Q 3450 3153 3228 2886 
Q 3006 2619 2597 2516 
z
" transform="scale(0.015625)"/>
      </defs>
      <use xlink:href="#DejaVuSans-Oblique-66" transform="translate(0 0.765625)"/>
      <use xlink:href="#DejaVuSans-28" transform="translate(35.205078 0.765625)"/>
      <use xlink:href="#DejaVuSans-Oblique-78" transform="translate(74.21875 0.765625)"/>
      <use xlink:href="#DejaVuSans-29" transform="translate(133.398438 0.765625)"/>
      <use xlink:href="#DejaVuSans-3d" transform="translate(191.894531 0.765625)"/>
      <use xlink:href="#DejaVuSans-2212" transform="translate(314.648438 0.765625)"/>
      <use xlink:href="#DejaVuSans-31" transform="translate(417.919922 0.765625)"/>
      <use xlink:href="#DejaVuSans-30" transform="translate(481.542969 0.765625)"/>
      <use xlink:href="#DejaVuSans-Oblique-78" transform="translate(545.166016 0.765625)"/>
      <use xlink:href="#DejaVuSans-2b" transform="translate(623.828125 0.765625)"/>
      <use xlink:href="#DejaVuSans-28" transform="translate(727.099609 0.765625)"/>
      <use xlink:href="#DejaVuSans-34" transform="translate(766.113281 0.765625)"/>
      <use xlink:href="#DejaVuSans-Oblique-78" transform="translate(829.736328 0.765625)"/>
      <use xlink:href="#DejaVuSans-2212" transform="translate(908.398438 0.765625)"/>
      <use xlink:href="#DejaVuSans-37" transform="translate(1011.669922 0.765625)"/>
      <use xlink:href="#DejaVuSans-29" transform="translate(1075.292969 0.765625)"/>
      <use xlink:href="#DejaVuSans-33" transform="translate(1115.263672 39.046875) scale(0.7)"/>
      <use xlink:href="#DejaVuSans-2b" transform="translate(1182.016602 0.765625)"/>
      <use xlink:href="#DejaVuSans-31" transform="translate(1285.288086 0.765625)"/>
      <use xlink:href="#DejaVuSans-38" transform="translate(1348.911133 0.765625)"/>
     </g>
    </g>
   </g>
  </g>
 </g>
 <defs>
  <clipPath id="p0c6974ef0b">
   <rect x="57.6" y="41.472" width="357.12" height="266.112"/>
  </clipPath>
 </defs>
</svg>
