<?xml version="1.0" encoding="utf-8" standalone="no"?>
<!DOCTYPE svg PUBLIC "-//W3C//DTD SVG 1.1//EN"
  "http://www.w3.org/Graphics/SVG/1.1/DTD/svg11.dtd">
<svg xmlns:xlink="http://www.w3.org/1999/xlink" width="460.8pt" height="345.6pt" viewBox="0 0 460.8 345.6" xmlns="http://www.w3.org/2000/svg" version="1.1">
 <metadata>
  <rdf:RDF xmlns:dc="http://purl.org/dc/elements/1.1/" xmlns:cc="http://creativecommons.org/ns#" xmlns:rdf="http://www.w3.org/1999/02/22-rdf-syntax-ns#">
   <cc:Work>
    <dc:type rdf:resource="http://purl.org/dc/dcmitype/StillImage"/>
    <dc:date>2024-08-09T16:38:29.423384</dc:date>
    <dc:format>image/svg+xml</dc:format>
    <dc:creator>
     <cc:Agent>
      <dc:title>Matplotlib v3.8.3, https://matplotlib.org/</dc:title>
     </cc:Agent>
    </dc:creator>
   </cc:Work>
  </rdf:RDF>
 </metadata>
 <defs>
  <style type="text/css">*{stroke-linejoin: round; stroke-linecap: butt}</style>
 </defs>
 <g id="figure_1">
  <g id="patch_1">
   <path d="M 0 345.6 
L 460.8 345.6 
L 460.8 0 
L 0 0 
L 0 345.6 
z
" style="fill: none"/>
  </g>
  <g id="axes_1">
   <g id="patch_2">
    <path d="M 57.6 307.584 
L 414.72 307.584 
L 414.72 41.472 
L 57.6 41.472 
z
" style="fill: #708090"/>
   </g>
   <g id="LineCollection_1">
    <path d="M 57.6 174.528 
L 414.72 174.528 
" clip-path="url(#p7f03af4fe6)" style="fill: none; stroke: #d3d3d3; stroke-width: 1.5"/>
   </g>
   <g id="LineCollection_2">
    <path d="M 57.6 307.584 
L 57.6 41.472 
" clip-path="url(#p7f03af4fe6)" style="fill: none; stroke: #d3d3d3; stroke-width: 1.5"/>
   </g>
   <g id="matplotlib.axis_1">
    <g id="xtick_1">
     <g id="line2d_1">
      <defs>
       <path id="m5e7e004e99" d="M 0 0 
L 0 3.5 
" style="stroke: #d3d3d3; stroke-width: 0.8"/>
      </defs>
      <g>
       <use xlink:href="#m5e7e004e99" x="57.6" y="307.584" style="fill: #d3d3d3; stroke: #d3d3d3; stroke-width: 0.8"/>
      </g>
     </g>
     <g id="text_1">
      <!-- 0.0 -->
      <g style="fill: #d3d3d3" transform="translate(49.648438 322.182437) scale(0.1 -0.1)">
       <defs>
        <path id="DejaVuSans-30" d="M 2034 4250 
Q 1547 4250 1301 3770 
Q 1056 3291 1056 2328 
Q 1056 1369 1301 889 
Q 1547 409 2034 409 
Q 2525 409 2770 889 
Q 3016 1369 3016 2328 
Q 3016 3291 2770 3770 
Q 2525 4250 2034 4250 
z
M 2034 4750 
Q 2819 4750 3233 4129 
Q 3647 3509 3647 2328 
Q 3647 1150 3233 529 
Q 2819 -91 2034 -91 
Q 1250 -91 836 529 
Q 422 1150 422 2328 
Q 422 3509 836 4129 
Q 1250 4750 2034 4750 
z
" transform="scale(0.015625)"/>
        <path id="DejaVuSans-2e" d="M 684 794 
L 1344 794 
L 1344 0 
L 684 0 
L 684 794 
z
" transform="scale(0.015625)"/>
       </defs>
       <use xlink:href="#DejaVuSans-30"/>
       <use xlink:href="#DejaVuSans-2e" x="63.623047"/>
       <use xlink:href="#DejaVuSans-30" x="95.410156"/>
      </g>
     </g>
    </g>
    <g id="xtick_2">
     <g id="line2d_2">
      <g>
       <use xlink:href="#m5e7e004e99" x="114.437413" y="307.584" style="fill: #d3d3d3; stroke: #d3d3d3; stroke-width: 0.8"/>
      </g>
     </g>
     <g id="text_2">
      <!-- 0.5 -->
      <g style="fill: #d3d3d3" transform="translate(106.485851 322.182437) scale(0.1 -0.1)">
       <defs>
        <path id="DejaVuSans-35" d="M 691 4666 
L 3169 4666 
L 3169 4134 
L 1269 4134 
L 1269 2991 
Q 1406 3038 1543 3061 
Q 1681 3084 1819 3084 
Q 2600 3084 3056 2656 
Q 3513 2228 3513 1497 
Q 3513 744 3044 326 
Q 2575 -91 1722 -91 
Q 1428 -91 1123 -41 
Q 819 9 494 109 
L 494 744 
Q 775 591 1075 516 
Q 1375 441 1709 441 
Q 2250 441 2565 725 
Q 2881 1009 2881 1497 
Q 2881 1984 2565 2268 
Q 2250 2553 1709 2553 
Q 1456 2553 1204 2497 
Q 953 2441 691 2322 
L 691 4666 
z
" transform="scale(0.015625)"/>
       </defs>
       <use xlink:href="#DejaVuSans-30"/>
       <use xlink:href="#DejaVuSans-2e" x="63.623047"/>
       <use xlink:href="#DejaVuSans-35" x="95.410156"/>
      </g>
     </g>
    </g>
    <g id="xtick_3">
     <g id="line2d_3">
      <g>
       <use xlink:href="#m5e7e004e99" x="171.274827" y="307.584" style="fill: #d3d3d3; stroke: #d3d3d3; stroke-width: 0.8"/>
      </g>
     </g>
     <g id="text_3">
      <!-- 1.0 -->
      <g style="fill: #d3d3d3" transform="translate(163.323264 322.182437) scale(0.1 -0.1)">
       <defs>
        <path id="DejaVuSans-31" d="M 794 531 
L 1825 531 
L 1825 4091 
L 703 3866 
L 703 4441 
L 1819 4666 
L 2450 4666 
L 2450 531 
L 3481 531 
L 3481 0 
L 794 0 
L 794 531 
z
" transform="scale(0.015625)"/>
       </defs>
       <use xlink:href="#DejaVuSans-31"/>
       <use xlink:href="#DejaVuSans-2e" x="63.623047"/>
       <use xlink:href="#DejaVuSans-30" x="95.410156"/>
      </g>
     </g>
    </g>
    <g id="xtick_4">
     <g id="line2d_4">
      <g>
       <use xlink:href="#m5e7e004e99" x="228.11224" y="307.584" style="fill: #d3d3d3; stroke: #d3d3d3; stroke-width: 0.8"/>
      </g>
     </g>
     <g id="text_4">
      <!-- 1.5 -->
      <g style="fill: #d3d3d3" transform="translate(220.160677 322.182437) scale(0.1 -0.1)">
       <use xlink:href="#DejaVuSans-31"/>
       <use xlink:href="#DejaVuSans-2e" x="63.623047"/>
       <use xlink:href="#DejaVuSans-35" x="95.410156"/>
      </g>
     </g>
    </g>
    <g id="xtick_5">
     <g id="line2d_5">
      <g>
       <use xlink:href="#m5e7e004e99" x="284.949653" y="307.584" style="fill: #d3d3d3; stroke: #d3d3d3; stroke-width: 0.8"/>
      </g>
     </g>
     <g id="text_5">
      <!-- 2.0 -->
      <g style="fill: #d3d3d3" transform="translate(276.998091 322.182437) scale(0.1 -0.1)">
       <defs>
        <path id="DejaVuSans-32" d="M 1228 531 
L 3431 531 
L 3431 0 
L 469 0 
L 469 531 
Q 828 903 1448 1529 
Q 2069 2156 2228 2338 
Q 2531 2678 2651 2914 
Q 2772 3150 2772 3378 
Q 2772 3750 2511 3984 
Q 2250 4219 1831 4219 
Q 1534 4219 1204 4116 
Q 875 4013 500 3803 
L 500 4441 
Q 881 4594 1212 4672 
Q 1544 4750 1819 4750 
Q 2544 4750 2975 4387 
Q 3406 4025 3406 3419 
Q 3406 3131 3298 2873 
Q 3191 2616 2906 2266 
Q 2828 2175 2409 1742 
Q 1991 1309 1228 531 
z
" transform="scale(0.015625)"/>
       </defs>
       <use xlink:href="#DejaVuSans-32"/>
       <use xlink:href="#DejaVuSans-2e" x="63.623047"/>
       <use xlink:href="#DejaVuSans-30" x="95.410156"/>
      </g>
     </g>
    </g>
    <g id="xtick_6">
     <g id="line2d_6">
      <g>
       <use xlink:href="#m5e7e004e99" x="341.787066" y="307.584" style="fill: #d3d3d3; stroke: #d3d3d3; stroke-width: 0.8"/>
      </g>
     </g>
     <g id="text_6">
      <!-- 2.5 -->
      <g style="fill: #d3d3d3" transform="translate(333.835504 322.182437) scale(0.1 -0.1)">
       <use xlink:href="#DejaVuSans-32"/>
       <use xlink:href="#DejaVuSans-2e" x="63.623047"/>
       <use xlink:href="#DejaVuSans-35" x="95.410156"/>
      </g>
     </g>
    </g>
    <g id="xtick_7">
     <g id="line2d_7">
      <g>
       <use xlink:href="#m5e7e004e99" x="398.62448" y="307.584" style="fill: #d3d3d3; stroke: #d3d3d3; stroke-width: 0.8"/>
      </g>
     </g>
     <g id="text_7">
      <!-- 3.0 -->
      <g style="fill: #d3d3d3" transform="translate(390.672917 322.182437) scale(0.1 -0.1)">
       <defs>
        <path id="DejaVuSans-33" d="M 2597 2516 
Q 3050 2419 3304 2112 
Q 3559 1806 3559 1356 
Q 3559 666 3084 287 
Q 2609 -91 1734 -91 
Q 1441 -91 1130 -33 
Q 819 25 488 141 
L 488 750 
Q 750 597 1062 519 
Q 1375 441 1716 441 
Q 2309 441 2620 675 
Q 2931 909 2931 1356 
Q 2931 1769 2642 2001 
Q 2353 2234 1838 2234 
L 1294 2234 
L 1294 2753 
L 1863 2753 
Q 2328 2753 2575 2939 
Q 2822 3125 2822 3475 
Q 2822 3834 2567 4026 
Q 2313 4219 1838 4219 
Q 1578 4219 1281 4162 
Q 984 4106 628 3988 
L 628 4550 
Q 988 4650 1302 4700 
Q 1616 4750 1894 4750 
Q 2613 4750 3031 4423 
Q 3450 4097 3450 3541 
Q 3450 3153 3228 2886 
Q 3006 2619 2597 2516 
z
" transform="scale(0.015625)"/>
       </defs>
       <use xlink:href="#DejaVuSans-33"/>
       <use xlink:href="#DejaVuSans-2e" x="63.623047"/>
       <use xlink:href="#DejaVuSans-30" x="95.410156"/>
      </g>
     </g>
    </g>
    <g id="text_8">
     <!-- X-as -->
     <g style="fill: #d3d3d3" transform="translate(225.512344 335.860562) scale(0.1 -0.1)">
      <defs>
       <path id="DejaVuSans-58" d="M 403 4666 
L 1081 4666 
L 2241 2931 
L 3406 4666 
L 4084 4666 
L 2584 2425 
L 4184 0 
L 3506 0 
L 2194 1984 
L 872 0 
L 191 0 
L 1856 2491 
L 403 4666 
z
" transform="scale(0.015625)"/>
       <path id="DejaVuSans-2d" d="M 313 2009 
L 1997 2009 
L 1997 1497 
L 313 1497 
L 313 2009 
z
" transform="scale(0.015625)"/>
       <path id="DejaVuSans-61" d="M 2194 1759 
Q 1497 1759 1228 1600 
Q 959 1441 959 1056 
Q 959 750 1161 570 
Q 1363 391 1709 391 
Q 2188 391 2477 730 
Q 2766 1069 2766 1631 
L 2766 1759 
L 2194 1759 
z
M 3341 1997 
L 3341 0 
L 2766 0 
L 2766 531 
Q 2569 213 2275 61 
Q 1981 -91 1556 -91 
Q 1019 -91 701 211 
Q 384 513 384 1019 
Q 384 1609 779 1909 
Q 1175 2209 1959 2209 
L 2766 2209 
L 2766 2266 
Q 2766 2663 2505 2880 
Q 2244 3097 1772 3097 
Q 1472 3097 1187 3025 
Q 903 2953 641 2809 
L 641 3341 
Q 956 3463 1253 3523 
Q 1550 3584 1831 3584 
Q 2591 3584 2966 3190 
Q 3341 2797 3341 1997 
z
" transform="scale(0.015625)"/>
       <path id="DejaVuSans-73" d="M 2834 3397 
L 2834 2853 
Q 2591 2978 2328 3040 
Q 2066 3103 1784 3103 
Q 1356 3103 1142 2972 
Q 928 2841 928 2578 
Q 928 2378 1081 2264 
Q 1234 2150 1697 2047 
L 1894 2003 
Q 2506 1872 2764 1633 
Q 3022 1394 3022 966 
Q 3022 478 2636 193 
Q 2250 -91 1575 -91 
Q 1294 -91 989 -36 
Q 684 19 347 128 
L 347 722 
Q 666 556 975 473 
Q 1284 391 1588 391 
Q 1994 391 2212 530 
Q 2431 669 2431 922 
Q 2431 1156 2273 1281 
Q 2116 1406 1581 1522 
L 1381 1569 
Q 847 1681 609 1914 
Q 372 2147 372 2553 
Q 372 3047 722 3315 
Q 1072 3584 1716 3584 
Q 2034 3584 2315 3537 
Q 2597 3491 2834 3397 
z
" transform="scale(0.015625)"/>
      </defs>
      <use xlink:href="#DejaVuSans-58"/>
      <use xlink:href="#DejaVuSans-2d" x="63.505859"/>
      <use xlink:href="#DejaVuSans-61" x="99.589844"/>
      <use xlink:href="#DejaVuSans-73" x="160.869141"/>
     </g>
    </g>
   </g>
   <g id="matplotlib.axis_2">
    <g id="ytick_1">
     <g id="line2d_8">
      <defs>
       <path id="m8fa927da50" d="M 0 0 
L -3.5 0 
" style="stroke: #d3d3d3; stroke-width: 0.8"/>
      </defs>
      <g>
       <use xlink:href="#m8fa927da50" x="57.6" y="307.584" style="fill: #d3d3d3; stroke: #d3d3d3; stroke-width: 0.8"/>
      </g>
     </g>
     <g id="text_9">
      <!-- −2.0 -->
      <g style="fill: #d3d3d3" transform="translate(26.317187 311.383219) scale(0.1 -0.1)">
       <defs>
        <path id="DejaVuSans-2212" d="M 678 2272 
L 4684 2272 
L 4684 1741 
L 678 1741 
L 678 2272 
z
" transform="scale(0.015625)"/>
       </defs>
       <use xlink:href="#DejaVuSans-2212"/>
       <use xlink:href="#DejaVuSans-32" x="83.789062"/>
       <use xlink:href="#DejaVuSans-2e" x="147.412109"/>
       <use xlink:href="#DejaVuSans-30" x="179.199219"/>
      </g>
     </g>
    </g>
    <g id="ytick_2">
     <g id="line2d_9">
      <g>
       <use xlink:href="#m8fa927da50" x="57.6" y="274.32" style="fill: #d3d3d3; stroke: #d3d3d3; stroke-width: 0.8"/>
      </g>
     </g>
     <g id="text_10">
      <!-- −1.5 -->
      <g style="fill: #d3d3d3" transform="translate(26.317187 278.119219) scale(0.1 -0.1)">
       <use xlink:href="#DejaVuSans-2212"/>
       <use xlink:href="#DejaVuSans-31" x="83.789062"/>
       <use xlink:href="#DejaVuSans-2e" x="147.412109"/>
       <use xlink:href="#DejaVuSans-35" x="179.199219"/>
      </g>
     </g>
    </g>
    <g id="ytick_3">
     <g id="line2d_10">
      <g>
       <use xlink:href="#m8fa927da50" x="57.6" y="241.056" style="fill: #d3d3d3; stroke: #d3d3d3; stroke-width: 0.8"/>
      </g>
     </g>
     <g id="text_11">
      <!-- −1.0 -->
      <g style="fill: #d3d3d3" transform="translate(26.317187 244.855219) scale(0.1 -0.1)">
       <use xlink:href="#DejaVuSans-2212"/>
       <use xlink:href="#DejaVuSans-31" x="83.789062"/>
       <use xlink:href="#DejaVuSans-2e" x="147.412109"/>
       <use xlink:href="#DejaVuSans-30" x="179.199219"/>
      </g>
     </g>
    </g>
    <g id="ytick_4">
     <g id="line2d_11">
      <g>
       <use xlink:href="#m8fa927da50" x="57.6" y="207.792" style="fill: #d3d3d3; stroke: #d3d3d3; stroke-width: 0.8"/>
      </g>
     </g>
     <g id="text_12">
      <!-- −0.5 -->
      <g style="fill: #d3d3d3" transform="translate(26.317187 211.591219) scale(0.1 -0.1)">
       <use xlink:href="#DejaVuSans-2212"/>
       <use xlink:href="#DejaVuSans-30" x="83.789062"/>
       <use xlink:href="#DejaVuSans-2e" x="147.412109"/>
       <use xlink:href="#DejaVuSans-35" x="179.199219"/>
      </g>
     </g>
    </g>
    <g id="ytick_5">
     <g id="line2d_12">
      <g>
       <use xlink:href="#m8fa927da50" x="57.6" y="174.528" style="fill: #d3d3d3; stroke: #d3d3d3; stroke-width: 0.8"/>
      </g>
     </g>
     <g id="text_13">
      <!-- 0.0 -->
      <g style="fill: #d3d3d3" transform="translate(34.696875 178.327219) scale(0.1 -0.1)">
       <use xlink:href="#DejaVuSans-30"/>
       <use xlink:href="#DejaVuSans-2e" x="63.623047"/>
       <use xlink:href="#DejaVuSans-30" x="95.410156"/>
      </g>
     </g>
    </g>
    <g id="ytick_6">
     <g id="line2d_13">
      <g>
       <use xlink:href="#m8fa927da50" x="57.6" y="141.264" style="fill: #d3d3d3; stroke: #d3d3d3; stroke-width: 0.8"/>
      </g>
     </g>
     <g id="text_14">
      <!-- 0.5 -->
      <g style="fill: #d3d3d3" transform="translate(34.696875 145.063219) scale(0.1 -0.1)">
       <use xlink:href="#DejaVuSans-30"/>
       <use xlink:href="#DejaVuSans-2e" x="63.623047"/>
       <use xlink:href="#DejaVuSans-35" x="95.410156"/>
      </g>
     </g>
    </g>
    <g id="ytick_7">
     <g id="line2d_14">
      <g>
       <use xlink:href="#m8fa927da50" x="57.6" y="108" style="fill: #d3d3d3; stroke: #d3d3d3; stroke-width: 0.8"/>
      </g>
     </g>
     <g id="text_15">
      <!-- 1.0 -->
      <g style="fill: #d3d3d3" transform="translate(34.696875 111.799219) scale(0.1 -0.1)">
       <use xlink:href="#DejaVuSans-31"/>
       <use xlink:href="#DejaVuSans-2e" x="63.623047"/>
       <use xlink:href="#DejaVuSans-30" x="95.410156"/>
      </g>
     </g>
    </g>
    <g id="ytick_8">
     <g id="line2d_15">
      <g>
       <use xlink:href="#m8fa927da50" x="57.6" y="74.736" style="fill: #d3d3d3; stroke: #d3d3d3; stroke-width: 0.8"/>
      </g>
     </g>
     <g id="text_16">
      <!-- 1.5 -->
      <g style="fill: #d3d3d3" transform="translate(34.696875 78.535219) scale(0.1 -0.1)">
       <use xlink:href="#DejaVuSans-31"/>
       <use xlink:href="#DejaVuSans-2e" x="63.623047"/>
       <use xlink:href="#DejaVuSans-35" x="95.410156"/>
      </g>
     </g>
    </g>
    <g id="ytick_9">
     <g id="line2d_16">
      <g>
       <use xlink:href="#m8fa927da50" x="57.6" y="41.472" style="fill: #d3d3d3; stroke: #d3d3d3; stroke-width: 0.8"/>
      </g>
     </g>
     <g id="text_17">
      <!-- 2.0 -->
      <g style="fill: #d3d3d3" transform="translate(34.696875 45.271219) scale(0.1 -0.1)">
       <use xlink:href="#DejaVuSans-32"/>
       <use xlink:href="#DejaVuSans-2e" x="63.623047"/>
       <use xlink:href="#DejaVuSans-30" x="95.410156"/>
      </g>
     </g>
    </g>
    <g id="text_18">
     <!-- Y-as -->
     <g style="fill: #d3d3d3" transform="translate(20.2375 184.460813) rotate(-90) scale(0.1 -0.1)">
      <defs>
       <path id="DejaVuSans-59" d="M -13 4666 
L 666 4666 
L 1959 2747 
L 3244 4666 
L 3922 4666 
L 2272 2222 
L 2272 0 
L 1638 0 
L 1638 2222 
L -13 4666 
z
" transform="scale(0.015625)"/>
      </defs>
      <use xlink:href="#DejaVuSans-59"/>
      <use xlink:href="#DejaVuSans-2d" x="49.208984"/>
      <use xlink:href="#DejaVuSans-61" x="85.292969"/>
      <use xlink:href="#DejaVuSans-73" x="146.572266"/>
     </g>
    </g>
   </g>
   <g id="line2d_17">
    <path d="M 57.6 108 
L 64.42049 108.119714 
L 71.240979 108.478427 
L 78.061469 109.074847 
L 84.881958 109.906827 
L 91.702448 110.971374 
L 98.522938 112.264656 
L 105.343427 113.782019 
L 112.163917 115.518002 
L 118.984406 117.466357 
L 125.804896 119.620072 
L 133.762134 122.381912 
L 141.719372 125.399164 
L 149.67661 128.657048 
L 157.633847 132.139609 
L 166.727833 136.372862 
L 175.82182 140.850179 
L 186.052554 146.143176 
L 197.420037 152.291832 
L 209.924268 159.309533 
L 226.975492 169.158628 
L 264.488184 190.935954 
L 278.129164 198.536151 
L 289.496646 204.610376 
L 299.727381 209.821858 
L 308.821367 214.215712 
L 317.915353 218.3557 
L 325.872591 221.749079 
L 333.829829 224.911169 
L 341.787066 227.826482 
L 349.744304 230.48074 
L 356.564794 232.538148 
L 363.385283 234.386782 
L 370.205773 236.019989 
L 377.026263 237.431891 
L 383.846752 238.617407 
L 390.667242 239.572271 
L 397.487731 240.293045 
L 404.308221 240.777136 
L 411.128711 241.022802 
L 414.538955 241.055916 
L 414.538955 241.055916 
" clip-path="url(#p7f03af4fe6)" style="fill: none; stroke: #00ced1; stroke-width: 1.5; stroke-linecap: square"/>
   </g>
   <g id="patch_3">
    <path d="M 57.6 307.584 
L 57.6 41.472 
" style="fill: none; stroke: #d3d3d3; stroke-width: 0.8; stroke-linejoin: miter; stroke-linecap: square"/>
   </g>
   <g id="patch_4">
    <path d="M 414.72 307.584 
L 414.72 41.472 
" style="fill: none; stroke: #d3d3d3; stroke-width: 0.8; stroke-linejoin: miter; stroke-linecap: square"/>
   </g>
   <g id="patch_5">
    <path d="M 57.6 307.584 
L 414.72 307.584 
" style="fill: none; stroke: #d3d3d3; stroke-width: 0.8; stroke-linejoin: miter; stroke-linecap: square"/>
   </g>
   <g id="patch_6">
    <path d="M 57.6 41.472 
L 414.72 41.472 
" style="fill: none; stroke: #d3d3d3; stroke-width: 0.8; stroke-linejoin: miter; stroke-linecap: square"/>
   </g>
   <g id="PolyCollection_1">
    <defs>
     <path id="m0b1385c7b7" d="M 117.847658 -171.072 
L 117.847658 -228.472829 
L 118.984406 -228.133643 
L 120.121155 -227.788751 
L 121.257903 -227.438188 
L 122.394651 -227.081988 
L 123.531399 -226.720187 
L 124.668148 -226.352821 
L 125.804896 -225.979928 
L 126.941644 -225.601543 
L 128.078392 -225.217706 
L 129.215141 -224.828454 
L 130.351889 -224.433827 
L 131.488637 -224.033863 
L 132.625386 -223.628603 
L 133.762134 -223.218088 
L 134.898882 -222.802358 
L 136.03563 -222.381455 
L 137.172379 -221.955421 
L 138.309127 -221.524299 
L 139.445875 -221.088132 
L 140.582623 -220.646963 
L 141.719372 -220.200836 
L 142.85612 -219.749797 
L 143.992868 -219.29389 
L 145.129616 -218.833161 
L 146.266365 -218.367656 
L 147.403113 -217.897421 
L 148.539861 -217.422504 
L 149.67661 -216.942952 
L 150.813358 -216.458812 
L 151.950106 -215.970135 
L 153.086854 -215.476967 
L 154.223603 -214.979359 
L 155.360351 -214.47736 
L 156.497099 -213.971021 
L 157.633847 -213.460391 
L 158.770596 -212.945523 
L 159.907344 -212.426468 
L 161.044092 -211.903277 
L 162.18084 -211.376003 
L 163.317589 -210.844699 
L 164.454337 -210.309418 
L 165.591085 -209.770213 
L 166.727833 -209.227138 
L 167.864582 -208.680247 
L 169.00133 -208.129596 
L 170.138078 -207.575239 
L 171.274827 -207.017232 
L 172.411575 -206.45563 
L 173.548323 -205.89049 
L 174.685071 -205.321868 
L 175.82182 -204.749821 
L 176.958568 -204.174407 
L 178.095316 -203.595682 
L 179.232064 -203.013705 
L 180.368813 -202.428533 
L 181.505561 -201.840226 
L 182.642309 -201.248843 
L 183.779057 -200.654441 
L 184.915806 -200.057082 
L 186.052554 -199.456824 
L 187.189302 -198.853727 
L 188.326051 -198.247852 
L 189.462799 -197.63926 
L 190.599547 -197.028011 
L 191.736295 -196.414167 
L 192.873044 -195.797788 
L 194.009792 -195.178937 
L 195.14654 -194.557675 
L 196.283288 -193.934064 
L 197.420037 -193.308168 
L 198.556785 -192.680047 
L 199.693533 -192.049766 
L 200.830281 -191.417387 
L 201.96703 -190.782974 
L 203.103778 -190.146589 
L 204.240526 -189.508298 
L 205.377275 -188.868162 
L 206.514023 -188.226247 
L 207.650771 -187.582616 
L 208.787519 -186.937335 
L 209.924268 -186.290467 
L 211.061016 -185.642077 
L 212.197764 -184.99223 
L 213.334512 -184.340991 
L 214.471261 -183.688425 
L 215.608009 -183.034598 
L 216.744757 -182.379574 
L 217.881505 -181.72342 
L 219.018254 -181.0662 
L 220.155002 -180.407981 
L 221.29175 -179.748828 
L 222.428499 -179.088808 
L 223.565247 -178.427986 
L 224.701995 -177.766429 
L 225.838743 -177.104202 
L 226.975492 -176.441372 
L 228.11224 -175.778005 
L 229.248988 -175.114167 
L 230.385736 -174.449925 
L 231.522485 -173.785345 
L 232.659233 -173.120494 
L 233.795981 -172.455438 
L 234.932729 -171.790244 
L 236.069478 -171.124978 
L 236.069478 -171.072 
L 236.069478 -171.072 
L 234.932729 -171.072 
L 233.795981 -171.072 
L 232.659233 -171.072 
L 231.522485 -171.072 
L 230.385736 -171.072 
L 229.248988 -171.072 
L 228.11224 -171.072 
L 226.975492 -171.072 
L 225.838743 -171.072 
L 224.701995 -171.072 
L 223.565247 -171.072 
L 222.428499 -171.072 
L 221.29175 -171.072 
L 220.155002 -171.072 
L 219.018254 -171.072 
L 217.881505 -171.072 
L 216.744757 -171.072 
L 215.608009 -171.072 
L 214.471261 -171.072 
L 213.334512 -171.072 
L 212.197764 -171.072 
L 211.061016 -171.072 
L 209.924268 -171.072 
L 208.787519 -171.072 
L 207.650771 -171.072 
L 206.514023 -171.072 
L 205.377275 -171.072 
L 204.240526 -171.072 
L 203.103778 -171.072 
L 201.96703 -171.072 
L 200.830281 -171.072 
L 199.693533 -171.072 
L 198.556785 -171.072 
L 197.420037 -171.072 
L 196.283288 -171.072 
L 195.14654 -171.072 
L 194.009792 -171.072 
L 192.873044 -171.072 
L 191.736295 -171.072 
L 190.599547 -171.072 
L 189.462799 -171.072 
L 188.326051 -171.072 
L 187.189302 -171.072 
L 186.052554 -171.072 
L 184.915806 -171.072 
L 183.779057 -171.072 
L 182.642309 -171.072 
L 181.505561 -171.072 
L 180.368813 -171.072 
L 179.232064 -171.072 
L 178.095316 -171.072 
L 176.958568 -171.072 
L 175.82182 -171.072 
L 174.685071 -171.072 
L 173.548323 -171.072 
L 172.411575 -171.072 
L 171.274827 -171.072 
L 170.138078 -171.072 
L 169.00133 -171.072 
L 167.864582 -171.072 
L 166.727833 -171.072 
L 165.591085 -171.072 
L 164.454337 -171.072 
L 163.317589 -171.072 
L 162.18084 -171.072 
L 161.044092 -171.072 
L 159.907344 -171.072 
L 158.770596 -171.072 
L 157.633847 -171.072 
L 156.497099 -171.072 
L 155.360351 -171.072 
L 154.223603 -171.072 
L 153.086854 -171.072 
L 151.950106 -171.072 
L 150.813358 -171.072 
L 149.67661 -171.072 
L 148.539861 -171.072 
L 147.403113 -171.072 
L 146.266365 -171.072 
L 145.129616 -171.072 
L 143.992868 -171.072 
L 142.85612 -171.072 
L 141.719372 -171.072 
L 140.582623 -171.072 
L 139.445875 -171.072 
L 138.309127 -171.072 
L 137.172379 -171.072 
L 136.03563 -171.072 
L 134.898882 -171.072 
L 133.762134 -171.072 
L 132.625386 -171.072 
L 131.488637 -171.072 
L 130.351889 -171.072 
L 129.215141 -171.072 
L 128.078392 -171.072 
L 126.941644 -171.072 
L 125.804896 -171.072 
L 124.668148 -171.072 
L 123.531399 -171.072 
L 122.394651 -171.072 
L 121.257903 -171.072 
L 120.121155 -171.072 
L 118.984406 -171.072 
L 117.847658 -171.072 
z
" style="stroke: #00ff7f; stroke-opacity: 0.7"/>
    </defs>
    <g clip-path="url(#p7f03af4fe6)">
     <use xlink:href="#m0b1385c7b7" x="0" y="345.6" style="fill: #00ff7f; fill-opacity: 0.7; stroke: #00ff7f; stroke-opacity: 0.7"/>
    </g>
   </g>
   <g id="PolyCollection_2">
    <defs>
     <path id="mebfbf589bd" d="M 237.206226 -171.072 
L 237.206226 -170.459707 
L 238.342974 -169.794497 
L 239.479722 -169.129414 
L 240.616471 -168.464526 
L 241.753219 -167.799899 
L 242.889967 -167.135599 
L 244.026716 -166.471692 
L 245.163464 -165.808246 
L 246.300212 -165.145325 
L 247.43696 -164.482998 
L 248.573709 -163.821329 
L 249.710457 -163.160386 
L 250.847205 -162.500233 
L 251.983953 -161.840938 
L 253.120702 -161.182566 
L 254.25745 -160.525183 
L 255.394198 -159.868855 
L 256.530946 -159.213646 
L 257.667695 -158.559624 
L 258.804443 -157.906853 
L 259.941191 -157.255398 
L 261.07794 -156.605325 
L 262.214688 -155.956699 
L 263.351436 -155.309584 
L 264.488184 -154.664046 
L 265.624933 -154.020148 
L 266.761681 -153.377955 
L 267.898429 -152.737532 
L 269.035177 -152.098942 
L 270.171926 -151.46225 
L 271.308674 -150.827518 
L 272.445422 -150.194811 
L 273.58217 -149.564192 
L 274.718919 -148.935723 
L 275.855667 -148.309468 
L 276.992415 -147.685489 
L 278.129164 -147.063849 
L 279.265912 -146.44461 
L 280.40266 -145.827833 
L 281.539408 -145.213581 
L 282.676157 -144.601914 
L 283.812905 -143.992895 
L 284.949653 -143.386583 
L 286.086401 -142.78304 
L 287.22315 -142.182326 
L 288.359898 -141.584501 
L 289.496646 -140.989624 
L 290.633394 -140.397756 
L 291.770143 -139.808955 
L 292.906891 -139.22328 
L 294.043639 -138.640791 
L 295.180387 -138.061544 
L 296.317136 -137.485598 
L 297.453884 -136.913011 
L 298.590632 -136.34384 
L 299.727381 -135.778142 
L 300.864129 -135.215973 
L 302.000877 -134.657389 
L 303.137625 -134.102447 
L 304.274374 -133.551202 
L 305.411122 -133.003709 
L 306.54787 -132.460023 
L 307.684618 -131.920198 
L 308.821367 -131.384288 
L 309.958115 -130.852347 
L 311.094863 -130.324427 
L 312.231611 -129.800583 
L 313.36836 -129.280865 
L 314.505108 -128.765327 
L 315.641856 -128.254019 
L 316.778605 -127.746993 
L 317.915353 -127.2443 
L 319.052101 -126.745989 
L 320.188849 -126.252111 
L 321.325598 -125.762714 
L 322.462346 -125.277849 
L 323.599094 -124.797563 
L 324.735842 -124.321904 
L 325.872591 -123.850921 
L 327.009339 -123.384659 
L 328.146087 -122.923166 
L 329.282835 -122.466488 
L 330.419584 -122.014671 
L 331.556332 -121.567759 
L 332.69308 -121.125798 
L 333.829829 -120.688831 
L 334.966577 -120.256902 
L 336.103325 -119.830055 
L 337.240073 -119.408332 
L 338.376822 -118.991776 
L 339.51357 -118.580427 
L 340.650318 -118.174327 
L 341.787066 -117.773518 
L 342.923815 -117.378038 
L 344.060563 -116.987927 
L 345.197311 -116.603225 
L 346.334059 -116.223969 
L 347.470808 -115.850198 
L 348.607556 -115.48195 
L 349.744304 -115.11926 
L 350.881053 -114.762166 
L 352.017801 -114.410702 
L 353.154549 -114.064905 
L 354.291297 -113.724808 
L 354.291297 -171.072 
L 354.291297 -171.072 
L 353.154549 -171.072 
L 352.017801 -171.072 
L 350.881053 -171.072 
L 349.744304 -171.072 
L 348.607556 -171.072 
L 347.470808 -171.072 
L 346.334059 -171.072 
L 345.197311 -171.072 
L 344.060563 -171.072 
L 342.923815 -171.072 
L 341.787066 -171.072 
L 340.650318 -171.072 
L 339.51357 -171.072 
L 338.376822 -171.072 
L 337.240073 -171.072 
L 336.103325 -171.072 
L 334.966577 -171.072 
L 333.829829 -171.072 
L 332.69308 -171.072 
L 331.556332 -171.072 
L 330.419584 -171.072 
L 329.282835 -171.072 
L 328.146087 -171.072 
L 327.009339 -171.072 
L 325.872591 -171.072 
L 324.735842 -171.072 
L 323.599094 -171.072 
L 322.462346 -171.072 
L 321.325598 -171.072 
L 320.188849 -171.072 
L 319.052101 -171.072 
L 317.915353 -171.072 
L 316.778605 -171.072 
L 315.641856 -171.072 
L 314.505108 -171.072 
L 313.36836 -171.072 
L 312.231611 -171.072 
L 311.094863 -171.072 
L 309.958115 -171.072 
L 308.821367 -171.072 
L 307.684618 -171.072 
L 306.54787 -171.072 
L 305.411122 -171.072 
L 304.274374 -171.072 
L 303.137625 -171.072 
L 302.000877 -171.072 
L 300.864129 -171.072 
L 299.727381 -171.072 
L 298.590632 -171.072 
L 297.453884 -171.072 
L 296.317136 -171.072 
L 295.180387 -171.072 
L 294.043639 -171.072 
L 292.906891 -171.072 
L 291.770143 -171.072 
L 290.633394 -171.072 
L 289.496646 -171.072 
L 288.359898 -171.072 
L 287.22315 -171.072 
L 286.086401 -171.072 
L 284.949653 -171.072 
L 283.812905 -171.072 
L 282.676157 -171.072 
L 281.539408 -171.072 
L 280.40266 -171.072 
L 279.265912 -171.072 
L 278.129164 -171.072 
L 276.992415 -171.072 
L 275.855667 -171.072 
L 274.718919 -171.072 
L 273.58217 -171.072 
L 272.445422 -171.072 
L 271.308674 -171.072 
L 270.171926 -171.072 
L 269.035177 -171.072 
L 267.898429 -171.072 
L 266.761681 -171.072 
L 265.624933 -171.072 
L 264.488184 -171.072 
L 263.351436 -171.072 
L 262.214688 -171.072 
L 261.07794 -171.072 
L 259.941191 -171.072 
L 258.804443 -171.072 
L 257.667695 -171.072 
L 256.530946 -171.072 
L 255.394198 -171.072 
L 254.25745 -171.072 
L 253.120702 -171.072 
L 251.983953 -171.072 
L 250.847205 -171.072 
L 249.710457 -171.072 
L 248.573709 -171.072 
L 247.43696 -171.072 
L 246.300212 -171.072 
L 245.163464 -171.072 
L 244.026716 -171.072 
L 242.889967 -171.072 
L 241.753219 -171.072 
L 240.616471 -171.072 
L 239.479722 -171.072 
L 238.342974 -171.072 
L 237.206226 -171.072 
z
" style="stroke: #00fa9a; stroke-opacity: 0.7"/>
    </defs>
    <g clip-path="url(#p7f03af4fe6)">
     <use xlink:href="#mebfbf589bd" x="0" y="345.6" style="fill: #00fa9a; fill-opacity: 0.7; stroke: #00fa9a; stroke-opacity: 0.7"/>
    </g>
   </g>
   <g id="text_19">
    <!-- f(x) = cos(x) (p onbekend) -->
    <g style="fill: #d3d3d3" transform="translate(156.804375 35.472) scale(0.12 -0.12)">
     <defs>
      <path id="DejaVuSans-66" d="M 2375 4863 
L 2375 4384 
L 1825 4384 
Q 1516 4384 1395 4259 
Q 1275 4134 1275 3809 
L 1275 3500 
L 2222 3500 
L 2222 3053 
L 1275 3053 
L 1275 0 
L 697 0 
L 697 3053 
L 147 3053 
L 147 3500 
L 697 3500 
L 697 3744 
Q 697 4328 969 4595 
Q 1241 4863 1831 4863 
L 2375 4863 
z
" transform="scale(0.015625)"/>
      <path id="DejaVuSans-28" d="M 1984 4856 
Q 1566 4138 1362 3434 
Q 1159 2731 1159 2009 
Q 1159 1288 1364 580 
Q 1569 -128 1984 -844 
L 1484 -844 
Q 1016 -109 783 600 
Q 550 1309 550 2009 
Q 550 2706 781 3412 
Q 1013 4119 1484 4856 
L 1984 4856 
z
" transform="scale(0.015625)"/>
      <path id="DejaVuSans-78" d="M 3513 3500 
L 2247 1797 
L 3578 0 
L 2900 0 
L 1881 1375 
L 863 0 
L 184 0 
L 1544 1831 
L 300 3500 
L 978 3500 
L 1906 2253 
L 2834 3500 
L 3513 3500 
z
" transform="scale(0.015625)"/>
      <path id="DejaVuSans-29" d="M 513 4856 
L 1013 4856 
Q 1481 4119 1714 3412 
Q 1947 2706 1947 2009 
Q 1947 1309 1714 600 
Q 1481 -109 1013 -844 
L 513 -844 
Q 928 -128 1133 580 
Q 1338 1288 1338 2009 
Q 1338 2731 1133 3434 
Q 928 4138 513 4856 
z
" transform="scale(0.015625)"/>
      <path id="DejaVuSans-20" transform="scale(0.015625)"/>
      <path id="DejaVuSans-3d" d="M 678 2906 
L 4684 2906 
L 4684 2381 
L 678 2381 
L 678 2906 
z
M 678 1631 
L 4684 1631 
L 4684 1100 
L 678 1100 
L 678 1631 
z
" transform="scale(0.015625)"/>
      <path id="DejaVuSans-63" d="M 3122 3366 
L 3122 2828 
Q 2878 2963 2633 3030 
Q 2388 3097 2138 3097 
Q 1578 3097 1268 2742 
Q 959 2388 959 1747 
Q 959 1106 1268 751 
Q 1578 397 2138 397 
Q 2388 397 2633 464 
Q 2878 531 3122 666 
L 3122 134 
Q 2881 22 2623 -34 
Q 2366 -91 2075 -91 
Q 1284 -91 818 406 
Q 353 903 353 1747 
Q 353 2603 823 3093 
Q 1294 3584 2113 3584 
Q 2378 3584 2631 3529 
Q 2884 3475 3122 3366 
z
" transform="scale(0.015625)"/>
      <path id="DejaVuSans-6f" d="M 1959 3097 
Q 1497 3097 1228 2736 
Q 959 2375 959 1747 
Q 959 1119 1226 758 
Q 1494 397 1959 397 
Q 2419 397 2687 759 
Q 2956 1122 2956 1747 
Q 2956 2369 2687 2733 
Q 2419 3097 1959 3097 
z
M 1959 3584 
Q 2709 3584 3137 3096 
Q 3566 2609 3566 1747 
Q 3566 888 3137 398 
Q 2709 -91 1959 -91 
Q 1206 -91 779 398 
Q 353 888 353 1747 
Q 353 2609 779 3096 
Q 1206 3584 1959 3584 
z
" transform="scale(0.015625)"/>
      <path id="DejaVuSans-70" d="M 1159 525 
L 1159 -1331 
L 581 -1331 
L 581 3500 
L 1159 3500 
L 1159 2969 
Q 1341 3281 1617 3432 
Q 1894 3584 2278 3584 
Q 2916 3584 3314 3078 
Q 3713 2572 3713 1747 
Q 3713 922 3314 415 
Q 2916 -91 2278 -91 
Q 1894 -91 1617 61 
Q 1341 213 1159 525 
z
M 3116 1747 
Q 3116 2381 2855 2742 
Q 2594 3103 2138 3103 
Q 1681 3103 1420 2742 
Q 1159 2381 1159 1747 
Q 1159 1113 1420 752 
Q 1681 391 2138 391 
Q 2594 391 2855 752 
Q 3116 1113 3116 1747 
z
" transform="scale(0.015625)"/>
      <path id="DejaVuSans-6e" d="M 3513 2113 
L 3513 0 
L 2938 0 
L 2938 2094 
Q 2938 2591 2744 2837 
Q 2550 3084 2163 3084 
Q 1697 3084 1428 2787 
Q 1159 2491 1159 1978 
L 1159 0 
L 581 0 
L 581 3500 
L 1159 3500 
L 1159 2956 
Q 1366 3272 1645 3428 
Q 1925 3584 2291 3584 
Q 2894 3584 3203 3211 
Q 3513 2838 3513 2113 
z
" transform="scale(0.015625)"/>
      <path id="DejaVuSans-62" d="M 3116 1747 
Q 3116 2381 2855 2742 
Q 2594 3103 2138 3103 
Q 1681 3103 1420 2742 
Q 1159 2381 1159 1747 
Q 1159 1113 1420 752 
Q 1681 391 2138 391 
Q 2594 391 2855 752 
Q 3116 1113 3116 1747 
z
M 1159 2969 
Q 1341 3281 1617 3432 
Q 1894 3584 2278 3584 
Q 2916 3584 3314 3078 
Q 3713 2572 3713 1747 
Q 3713 922 3314 415 
Q 2916 -91 2278 -91 
Q 1894 -91 1617 61 
Q 1341 213 1159 525 
L 1159 0 
L 581 0 
L 581 4863 
L 1159 4863 
L 1159 2969 
z
" transform="scale(0.015625)"/>
      <path id="DejaVuSans-65" d="M 3597 1894 
L 3597 1613 
L 953 1613 
Q 991 1019 1311 708 
Q 1631 397 2203 397 
Q 2534 397 2845 478 
Q 3156 559 3463 722 
L 3463 178 
Q 3153 47 2828 -22 
Q 2503 -91 2169 -91 
Q 1331 -91 842 396 
Q 353 884 353 1716 
Q 353 2575 817 3079 
Q 1281 3584 2069 3584 
Q 2775 3584 3186 3129 
Q 3597 2675 3597 1894 
z
M 3022 2063 
Q 3016 2534 2758 2815 
Q 2500 3097 2075 3097 
Q 1594 3097 1305 2825 
Q 1016 2553 972 2059 
L 3022 2063 
z
" transform="scale(0.015625)"/>
      <path id="DejaVuSans-6b" d="M 581 4863 
L 1159 4863 
L 1159 1991 
L 2875 3500 
L 3609 3500 
L 1753 1863 
L 3688 0 
L 2938 0 
L 1159 1709 
L 1159 0 
L 581 0 
L 581 4863 
z
" transform="scale(0.015625)"/>
      <path id="DejaVuSans-64" d="M 2906 2969 
L 2906 4863 
L 3481 4863 
L 3481 0 
L 2906 0 
L 2906 525 
Q 2725 213 2448 61 
Q 2172 -91 1784 -91 
Q 1150 -91 751 415 
Q 353 922 353 1747 
Q 353 2572 751 3078 
Q 1150 3584 1784 3584 
Q 2172 3584 2448 3432 
Q 2725 3281 2906 2969 
z
M 947 1747 
Q 947 1113 1208 752 
Q 1469 391 1925 391 
Q 2381 391 2643 752 
Q 2906 1113 2906 1747 
Q 2906 2381 2643 2742 
Q 2381 3103 1925 3103 
Q 1469 3103 1208 2742 
Q 947 2381 947 1747 
z
" transform="scale(0.015625)"/>
     </defs>
     <use xlink:href="#DejaVuSans-66"/>
     <use xlink:href="#DejaVuSans-28" x="35.205078"/>
     <use xlink:href="#DejaVuSans-78" x="74.21875"/>
     <use xlink:href="#DejaVuSans-29" x="133.398438"/>
     <use xlink:href="#DejaVuSans-20" x="172.412109"/>
     <use xlink:href="#DejaVuSans-3d" x="204.199219"/>
     <use xlink:href="#DejaVuSans-20" x="287.988281"/>
     <use xlink:href="#DejaVuSans-63" x="319.775391"/>
     <use xlink:href="#DejaVuSans-6f" x="374.755859"/>
     <use xlink:href="#DejaVuSans-73" x="435.9375"/>
     <use xlink:href="#DejaVuSans-28" x="488.037109"/>
     <use xlink:href="#DejaVuSans-78" x="527.050781"/>
     <use xlink:href="#DejaVuSans-29" x="586.230469"/>
     <use xlink:href="#DejaVuSans-20" x="625.244141"/>
     <use xlink:href="#DejaVuSans-28" x="657.03125"/>
     <use xlink:href="#DejaVuSans-70" x="696.044922"/>
     <use xlink:href="#DejaVuSans-20" x="759.521484"/>
     <use xlink:href="#DejaVuSans-6f" x="791.308594"/>
     <use xlink:href="#DejaVuSans-6e" x="852.490234"/>
     <use xlink:href="#DejaVuSans-62" x="915.869141"/>
     <use xlink:href="#DejaVuSans-65" x="979.345703"/>
     <use xlink:href="#DejaVuSans-6b" x="1040.869141"/>
     <use xlink:href="#DejaVuSans-65" x="1095.154297"/>
     <use xlink:href="#DejaVuSans-6e" x="1156.677734"/>
     <use xlink:href="#DejaVuSans-64" x="1220.056641"/>
     <use xlink:href="#DejaVuSans-29" x="1283.533203"/>
    </g>
   </g>
   <g id="text_20">
    <!-- $I$ -->
    <g style="fill: #ffffff" transform="translate(154.223603 157.896) scale(0.1728 -0.1728)">
     <defs>
      <path id="DejaVuSans-Oblique-49" d="M 1081 4666 
L 1716 4666 
L 806 0 
L 172 0 
L 1081 4666 
z
" transform="scale(0.015625)"/>
     </defs>
     <use xlink:href="#DejaVuSans-Oblique-49" transform="translate(0 0.09375)"/>
    </g>
   </g>
   <g id="text_21">
    <!-- $II$ -->
    <g style="fill: #ffffff" transform="translate(313.36836 201.1392) scale(0.1728 -0.1728)">
     <use xlink:href="#DejaVuSans-Oblique-49" transform="translate(0 0.09375)"/>
     <use xlink:href="#DejaVuSans-Oblique-49" transform="translate(29.492188 0.09375)"/>
    </g>
   </g>
   <g id="LineCollection_3">
    <path d="M 355.2 307.584 
L 355.2 41.472 
" clip-path="url(#p7f03af4fe6)" style="fill: none; stroke-dasharray: 5.55,2.4; stroke-dashoffset: 0; stroke: #b22222; stroke-width: 1.5"/>
   </g>
   <g id="legend_1">
    <g id="patch_7">
     <path d="M 314.02 78.848563 
L 407.72 78.848563 
Q 409.72 78.848563 409.72 76.848563 
L 409.72 48.472 
Q 409.72 46.472 407.72 46.472 
L 314.02 46.472 
Q 312.02 46.472 312.02 48.472 
L 312.02 76.848563 
Q 312.02 78.848563 314.02 78.848563 
z
" style="fill: #ffffff; opacity: 0.8; stroke: #cccccc; stroke-linejoin: miter"/>
    </g>
    <g id="line2d_18">
     <path d="M 316.02 54.570438 
L 326.02 54.570438 
L 336.02 54.570438 
" style="fill: none; stroke: #00ced1; stroke-width: 1.5; stroke-linecap: square"/>
    </g>
    <g id="text_22">
     <!-- $f(x) = \cos{\left(x \right)}$ -->
     <g transform="translate(344.02 58.070438) scale(0.1 -0.1)">
      <defs>
       <path id="DejaVuSans-Oblique-66" d="M 3059 4863 
L 2969 4384 
L 2419 4384 
Q 2106 4384 1964 4261 
Q 1822 4138 1753 3809 
L 1691 3500 
L 2638 3500 
L 2553 3053 
L 1606 3053 
L 1013 0 
L 434 0 
L 1031 3053 
L 481 3053 
L 563 3500 
L 1113 3500 
L 1159 3744 
Q 1278 4363 1576 4613 
Q 1875 4863 2516 4863 
L 3059 4863 
z
" transform="scale(0.015625)"/>
       <path id="DejaVuSans-Oblique-78" d="M 3841 3500 
L 2234 1784 
L 3219 0 
L 2559 0 
L 1819 1388 
L 531 0 
L -166 0 
L 1556 1844 
L 641 3500 
L 1300 3500 
L 1972 2234 
L 3144 3500 
L 3841 3500 
z
" transform="scale(0.015625)"/>
      </defs>
      <use xlink:href="#DejaVuSans-Oblique-66" transform="translate(0 0.015625)"/>
      <use xlink:href="#DejaVuSans-28" transform="translate(35.205078 0.015625)"/>
      <use xlink:href="#DejaVuSans-Oblique-78" transform="translate(74.21875 0.015625)"/>
      <use xlink:href="#DejaVuSans-29" transform="translate(133.398438 0.015625)"/>
      <use xlink:href="#DejaVuSans-3d" transform="translate(191.894531 0.015625)"/>
      <use xlink:href="#DejaVuSans-63" transform="translate(295.166016 0.015625)"/>
      <use xlink:href="#DejaVuSans-6f" transform="translate(350.146484 0.015625)"/>
      <use xlink:href="#DejaVuSans-73" transform="translate(411.328125 0.015625)"/>
      <use xlink:href="#DejaVuSans-28" transform="translate(479.663411 0.015625)"/>
      <use xlink:href="#DejaVuSans-Oblique-78" transform="translate(518.677083 0.015625)"/>
      <use xlink:href="#DejaVuSans-29" transform="translate(577.85677 0.015625)"/>
     </g>
    </g>
    <g id="line2d_19">
     <path d="M 316.02 69.248563 
L 336.02 69.248563 
" style="fill: none; stroke-dasharray: 5.55,2.4; stroke-dashoffset: 0; stroke: #b22222; stroke-width: 1.5"/>
    </g>
    <g id="text_23">
     <!-- $x=p$ -->
     <g transform="translate(344.02 72.748563) scale(0.1 -0.1)">
      <defs>
       <path id="DejaVuSans-Oblique-70" d="M 3175 2156 
Q 3175 2616 2975 2859 
Q 2775 3103 2400 3103 
Q 2144 3103 1911 2972 
Q 1678 2841 1497 2591 
Q 1319 2344 1212 1994 
Q 1106 1644 1106 1300 
Q 1106 863 1306 627 
Q 1506 391 1875 391 
Q 2147 391 2380 519 
Q 2613 647 2778 891 
Q 2956 1147 3065 1494 
Q 3175 1841 3175 2156 
z
M 1394 2969 
Q 1625 3272 1939 3428 
Q 2253 3584 2638 3584 
Q 3175 3584 3472 3232 
Q 3769 2881 3769 2247 
Q 3769 1728 3584 1258 
Q 3400 788 3053 416 
Q 2822 169 2531 39 
Q 2241 -91 1919 -91 
Q 1547 -91 1294 64 
Q 1041 219 916 525 
L 556 -1331 
L -19 -1331 
L 922 3500 
L 1497 3500 
L 1394 2969 
z
" transform="scale(0.015625)"/>
      </defs>
      <use xlink:href="#DejaVuSans-Oblique-78"/>
      <use xlink:href="#DejaVuSans-3d" transform="translate(78.662109 0)"/>
      <use xlink:href="#DejaVuSans-Oblique-70" transform="translate(181.933594 0)"/>
     </g>
    </g>
   </g>
  </g>
 </g>
 <defs>
  <clipPath id="p7f03af4fe6">
   <rect x="57.6" y="41.472" width="357.12" height="266.112"/>
  </clipPath>
 </defs>
</svg>
