<?xml version="1.0" encoding="utf-8" standalone="no"?>
<!DOCTYPE svg PUBLIC "-//W3C//DTD SVG 1.1//EN"
  "http://www.w3.org/Graphics/SVG/1.1/DTD/svg11.dtd">
<svg xmlns:xlink="http://www.w3.org/1999/xlink" width="460.8pt" height="345.6pt" viewBox="0 0 460.8 345.6" xmlns="http://www.w3.org/2000/svg" version="1.1">
 <metadata>
  <rdf:RDF xmlns:dc="http://purl.org/dc/elements/1.1/" xmlns:cc="http://creativecommons.org/ns#" xmlns:rdf="http://www.w3.org/1999/02/22-rdf-syntax-ns#">
   <cc:Work>
    <dc:type rdf:resource="http://purl.org/dc/dcmitype/StillImage"/>
    <dc:date>2024-08-06T23:23:57.007475</dc:date>
    <dc:format>image/svg+xml</dc:format>
    <dc:creator>
     <cc:Agent>
      <dc:title>Matplotlib v3.8.3, https://matplotlib.org/</dc:title>
     </cc:Agent>
    </dc:creator>
   </cc:Work>
  </rdf:RDF>
 </metadata>
 <defs>
  <style type="text/css">*{stroke-linejoin: round; stroke-linecap: butt}</style>
 </defs>
 <g id="figure_1">
  <g id="patch_1">
   <path d="M 0 345.6 
L 460.8 345.6 
L 460.8 0 
L 0 0 
L 0 345.6 
z
" style="fill: none"/>
  </g>
  <g id="axes_1">
   <g id="patch_2">
    <path d="M 57.6 307.584 
L 414.72 307.584 
L 414.72 41.472 
L 57.6 41.472 
z
" style="fill: #ff0000"/>
   </g>
   <g id="LineCollection_1">
    <path d="M 57.6 174.528 
L 414.72 174.528 
" clip-path="url(#p081f1dedb7)" style="fill: none; stroke: #d3d3d3; stroke-width: 1.5"/>
   </g>
   <g id="LineCollection_2">
    <path d="M 236.16 307.584 
L 236.16 41.472 
" clip-path="url(#p081f1dedb7)" style="fill: none; stroke: #d3d3d3; stroke-width: 1.5"/>
   </g>
   <g id="matplotlib.axis_1">
    <g id="xtick_1">
     <g id="line2d_1">
      <defs>
       <path id="m2afbd5d51b" d="M 0 0 
L 0 3.5 
" style="stroke: #d3d3d3; stroke-width: 0.8"/>
      </defs>
      <g>
       <use xlink:href="#m2afbd5d51b" x="57.6" y="307.584" style="fill: #d3d3d3; stroke: #d3d3d3; stroke-width: 0.8"/>
      </g>
     </g>
     <g id="text_1">
      <!-- −10.0 -->
      <g style="fill: #d3d3d3" transform="translate(42.277344 322.182437) scale(0.1 -0.1)">
       <defs>
        <path id="DejaVuSans-2212" d="M 678 2272 
L 4684 2272 
L 4684 1741 
L 678 1741 
L 678 2272 
z
" transform="scale(0.015625)"/>
        <path id="DejaVuSans-31" d="M 794 531 
L 1825 531 
L 1825 4091 
L 703 3866 
L 703 4441 
L 1819 4666 
L 2450 4666 
L 2450 531 
L 3481 531 
L 3481 0 
L 794 0 
L 794 531 
z
" transform="scale(0.015625)"/>
        <path id="DejaVuSans-30" d="M 2034 4250 
Q 1547 4250 1301 3770 
Q 1056 3291 1056 2328 
Q 1056 1369 1301 889 
Q 1547 409 2034 409 
Q 2525 409 2770 889 
Q 3016 1369 3016 2328 
Q 3016 3291 2770 3770 
Q 2525 4250 2034 4250 
z
M 2034 4750 
Q 2819 4750 3233 4129 
Q 3647 3509 3647 2328 
Q 3647 1150 3233 529 
Q 2819 -91 2034 -91 
Q 1250 -91 836 529 
Q 422 1150 422 2328 
Q 422 3509 836 4129 
Q 1250 4750 2034 4750 
z
" transform="scale(0.015625)"/>
        <path id="DejaVuSans-2e" d="M 684 794 
L 1344 794 
L 1344 0 
L 684 0 
L 684 794 
z
" transform="scale(0.015625)"/>
       </defs>
       <use xlink:href="#DejaVuSans-2212"/>
       <use xlink:href="#DejaVuSans-31" x="83.789062"/>
       <use xlink:href="#DejaVuSans-30" x="147.412109"/>
       <use xlink:href="#DejaVuSans-2e" x="211.035156"/>
       <use xlink:href="#DejaVuSans-30" x="242.822266"/>
      </g>
     </g>
    </g>
    <g id="xtick_2">
     <g id="line2d_2">
      <g>
       <use xlink:href="#m2afbd5d51b" x="102.24" y="307.584" style="fill: #d3d3d3; stroke: #d3d3d3; stroke-width: 0.8"/>
      </g>
     </g>
     <g id="text_2">
      <!-- −7.5 -->
      <g style="fill: #d3d3d3" transform="translate(90.098594 322.182437) scale(0.1 -0.1)">
       <defs>
        <path id="DejaVuSans-37" d="M 525 4666 
L 3525 4666 
L 3525 4397 
L 1831 0 
L 1172 0 
L 2766 4134 
L 525 4134 
L 525 4666 
z
" transform="scale(0.015625)"/>
        <path id="DejaVuSans-35" d="M 691 4666 
L 3169 4666 
L 3169 4134 
L 1269 4134 
L 1269 2991 
Q 1406 3038 1543 3061 
Q 1681 3084 1819 3084 
Q 2600 3084 3056 2656 
Q 3513 2228 3513 1497 
Q 3513 744 3044 326 
Q 2575 -91 1722 -91 
Q 1428 -91 1123 -41 
Q 819 9 494 109 
L 494 744 
Q 775 591 1075 516 
Q 1375 441 1709 441 
Q 2250 441 2565 725 
Q 2881 1009 2881 1497 
Q 2881 1984 2565 2268 
Q 2250 2553 1709 2553 
Q 1456 2553 1204 2497 
Q 953 2441 691 2322 
L 691 4666 
z
" transform="scale(0.015625)"/>
       </defs>
       <use xlink:href="#DejaVuSans-2212"/>
       <use xlink:href="#DejaVuSans-37" x="83.789062"/>
       <use xlink:href="#DejaVuSans-2e" x="147.412109"/>
       <use xlink:href="#DejaVuSans-35" x="179.199219"/>
      </g>
     </g>
    </g>
    <g id="xtick_3">
     <g id="line2d_3">
      <g>
       <use xlink:href="#m2afbd5d51b" x="146.88" y="307.584" style="fill: #d3d3d3; stroke: #d3d3d3; stroke-width: 0.8"/>
      </g>
     </g>
     <g id="text_3">
      <!-- −5.0 -->
      <g style="fill: #d3d3d3" transform="translate(134.738594 322.182437) scale(0.1 -0.1)">
       <use xlink:href="#DejaVuSans-2212"/>
       <use xlink:href="#DejaVuSans-35" x="83.789062"/>
       <use xlink:href="#DejaVuSans-2e" x="147.412109"/>
       <use xlink:href="#DejaVuSans-30" x="179.199219"/>
      </g>
     </g>
    </g>
    <g id="xtick_4">
     <g id="line2d_4">
      <g>
       <use xlink:href="#m2afbd5d51b" x="191.52" y="307.584" style="fill: #d3d3d3; stroke: #d3d3d3; stroke-width: 0.8"/>
      </g>
     </g>
     <g id="text_4">
      <!-- −2.5 -->
      <g style="fill: #d3d3d3" transform="translate(179.378594 322.182437) scale(0.1 -0.1)">
       <defs>
        <path id="DejaVuSans-32" d="M 1228 531 
L 3431 531 
L 3431 0 
L 469 0 
L 469 531 
Q 828 903 1448 1529 
Q 2069 2156 2228 2338 
Q 2531 2678 2651 2914 
Q 2772 3150 2772 3378 
Q 2772 3750 2511 3984 
Q 2250 4219 1831 4219 
Q 1534 4219 1204 4116 
Q 875 4013 500 3803 
L 500 4441 
Q 881 4594 1212 4672 
Q 1544 4750 1819 4750 
Q 2544 4750 2975 4387 
Q 3406 4025 3406 3419 
Q 3406 3131 3298 2873 
Q 3191 2616 2906 2266 
Q 2828 2175 2409 1742 
Q 1991 1309 1228 531 
z
" transform="scale(0.015625)"/>
       </defs>
       <use xlink:href="#DejaVuSans-2212"/>
       <use xlink:href="#DejaVuSans-32" x="83.789062"/>
       <use xlink:href="#DejaVuSans-2e" x="147.412109"/>
       <use xlink:href="#DejaVuSans-35" x="179.199219"/>
      </g>
     </g>
    </g>
    <g id="xtick_5">
     <g id="line2d_5">
      <g>
       <use xlink:href="#m2afbd5d51b" x="236.16" y="307.584" style="fill: #d3d3d3; stroke: #d3d3d3; stroke-width: 0.8"/>
      </g>
     </g>
     <g id="text_5">
      <!-- 0.0 -->
      <g style="fill: #d3d3d3" transform="translate(228.208438 322.182437) scale(0.1 -0.1)">
       <use xlink:href="#DejaVuSans-30"/>
       <use xlink:href="#DejaVuSans-2e" x="63.623047"/>
       <use xlink:href="#DejaVuSans-30" x="95.410156"/>
      </g>
     </g>
    </g>
    <g id="xtick_6">
     <g id="line2d_6">
      <g>
       <use xlink:href="#m2afbd5d51b" x="280.8" y="307.584" style="fill: #d3d3d3; stroke: #d3d3d3; stroke-width: 0.8"/>
      </g>
     </g>
     <g id="text_6">
      <!-- 2.5 -->
      <g style="fill: #d3d3d3" transform="translate(272.848437 322.182437) scale(0.1 -0.1)">
       <use xlink:href="#DejaVuSans-32"/>
       <use xlink:href="#DejaVuSans-2e" x="63.623047"/>
       <use xlink:href="#DejaVuSans-35" x="95.410156"/>
      </g>
     </g>
    </g>
    <g id="xtick_7">
     <g id="line2d_7">
      <g>
       <use xlink:href="#m2afbd5d51b" x="325.44" y="307.584" style="fill: #d3d3d3; stroke: #d3d3d3; stroke-width: 0.8"/>
      </g>
     </g>
     <g id="text_7">
      <!-- 5.0 -->
      <g style="fill: #d3d3d3" transform="translate(317.488437 322.182437) scale(0.1 -0.1)">
       <use xlink:href="#DejaVuSans-35"/>
       <use xlink:href="#DejaVuSans-2e" x="63.623047"/>
       <use xlink:href="#DejaVuSans-30" x="95.410156"/>
      </g>
     </g>
    </g>
    <g id="xtick_8">
     <g id="line2d_8">
      <g>
       <use xlink:href="#m2afbd5d51b" x="370.08" y="307.584" style="fill: #d3d3d3; stroke: #d3d3d3; stroke-width: 0.8"/>
      </g>
     </g>
     <g id="text_8">
      <!-- 7.5 -->
      <g style="fill: #d3d3d3" transform="translate(362.128438 322.182437) scale(0.1 -0.1)">
       <use xlink:href="#DejaVuSans-37"/>
       <use xlink:href="#DejaVuSans-2e" x="63.623047"/>
       <use xlink:href="#DejaVuSans-35" x="95.410156"/>
      </g>
     </g>
    </g>
    <g id="xtick_9">
     <g id="line2d_9">
      <g>
       <use xlink:href="#m2afbd5d51b" x="414.72" y="307.584" style="fill: #d3d3d3; stroke: #d3d3d3; stroke-width: 0.8"/>
      </g>
     </g>
     <g id="text_9">
      <!-- 10.0 -->
      <g style="fill: #d3d3d3" transform="translate(403.587188 322.182437) scale(0.1 -0.1)">
       <use xlink:href="#DejaVuSans-31"/>
       <use xlink:href="#DejaVuSans-30" x="63.623047"/>
       <use xlink:href="#DejaVuSans-2e" x="127.246094"/>
       <use xlink:href="#DejaVuSans-30" x="159.033203"/>
      </g>
     </g>
    </g>
    <g id="text_10">
     <!-- X-as -->
     <g style="fill: #d3d3d3" transform="translate(225.512344 335.860562) scale(0.1 -0.1)">
      <defs>
       <path id="DejaVuSans-58" d="M 403 4666 
L 1081 4666 
L 2241 2931 
L 3406 4666 
L 4084 4666 
L 2584 2425 
L 4184 0 
L 3506 0 
L 2194 1984 
L 872 0 
L 191 0 
L 1856 2491 
L 403 4666 
z
" transform="scale(0.015625)"/>
       <path id="DejaVuSans-2d" d="M 313 2009 
L 1997 2009 
L 1997 1497 
L 313 1497 
L 313 2009 
z
" transform="scale(0.015625)"/>
       <path id="DejaVuSans-61" d="M 2194 1759 
Q 1497 1759 1228 1600 
Q 959 1441 959 1056 
Q 959 750 1161 570 
Q 1363 391 1709 391 
Q 2188 391 2477 730 
Q 2766 1069 2766 1631 
L 2766 1759 
L 2194 1759 
z
M 3341 1997 
L 3341 0 
L 2766 0 
L 2766 531 
Q 2569 213 2275 61 
Q 1981 -91 1556 -91 
Q 1019 -91 701 211 
Q 384 513 384 1019 
Q 384 1609 779 1909 
Q 1175 2209 1959 2209 
L 2766 2209 
L 2766 2266 
Q 2766 2663 2505 2880 
Q 2244 3097 1772 3097 
Q 1472 3097 1187 3025 
Q 903 2953 641 2809 
L 641 3341 
Q 956 3463 1253 3523 
Q 1550 3584 1831 3584 
Q 2591 3584 2966 3190 
Q 3341 2797 3341 1997 
z
" transform="scale(0.015625)"/>
       <path id="DejaVuSans-73" d="M 2834 3397 
L 2834 2853 
Q 2591 2978 2328 3040 
Q 2066 3103 1784 3103 
Q 1356 3103 1142 2972 
Q 928 2841 928 2578 
Q 928 2378 1081 2264 
Q 1234 2150 1697 2047 
L 1894 2003 
Q 2506 1872 2764 1633 
Q 3022 1394 3022 966 
Q 3022 478 2636 193 
Q 2250 -91 1575 -91 
Q 1294 -91 989 -36 
Q 684 19 347 128 
L 347 722 
Q 666 556 975 473 
Q 1284 391 1588 391 
Q 1994 391 2212 530 
Q 2431 669 2431 922 
Q 2431 1156 2273 1281 
Q 2116 1406 1581 1522 
L 1381 1569 
Q 847 1681 609 1914 
Q 372 2147 372 2553 
Q 372 3047 722 3315 
Q 1072 3584 1716 3584 
Q 2034 3584 2315 3537 
Q 2597 3491 2834 3397 
z
" transform="scale(0.015625)"/>
      </defs>
      <use xlink:href="#DejaVuSans-58"/>
      <use xlink:href="#DejaVuSans-2d" x="63.505859"/>
      <use xlink:href="#DejaVuSans-61" x="99.589844"/>
      <use xlink:href="#DejaVuSans-73" x="160.869141"/>
     </g>
    </g>
   </g>
   <g id="matplotlib.axis_2">
    <g id="ytick_1">
     <g id="line2d_10">
      <defs>
       <path id="mb8090adeee" d="M 0 0 
L -3.5 0 
" style="stroke: #d3d3d3; stroke-width: 0.8"/>
      </defs>
      <g>
       <use xlink:href="#mb8090adeee" x="57.6" y="280.9728" style="fill: #d3d3d3; stroke: #d3d3d3; stroke-width: 0.8"/>
      </g>
     </g>
     <g id="text_11">
      <!-- −4 -->
      <g style="fill: #d3d3d3" transform="translate(35.857813 284.772019) scale(0.1 -0.1)">
       <defs>
        <path id="DejaVuSans-34" d="M 2419 4116 
L 825 1625 
L 2419 1625 
L 2419 4116 
z
M 2253 4666 
L 3047 4666 
L 3047 1625 
L 3713 1625 
L 3713 1100 
L 3047 1100 
L 3047 0 
L 2419 0 
L 2419 1100 
L 313 1100 
L 313 1709 
L 2253 4666 
z
" transform="scale(0.015625)"/>
       </defs>
       <use xlink:href="#DejaVuSans-2212"/>
       <use xlink:href="#DejaVuSans-34" x="83.789062"/>
      </g>
     </g>
    </g>
    <g id="ytick_2">
     <g id="line2d_11">
      <g>
       <use xlink:href="#mb8090adeee" x="57.6" y="227.7504" style="fill: #d3d3d3; stroke: #d3d3d3; stroke-width: 0.8"/>
      </g>
     </g>
     <g id="text_12">
      <!-- −2 -->
      <g style="fill: #d3d3d3" transform="translate(35.857813 231.549619) scale(0.1 -0.1)">
       <use xlink:href="#DejaVuSans-2212"/>
       <use xlink:href="#DejaVuSans-32" x="83.789062"/>
      </g>
     </g>
    </g>
    <g id="ytick_3">
     <g id="line2d_12">
      <g>
       <use xlink:href="#mb8090adeee" x="57.6" y="174.528" style="fill: #d3d3d3; stroke: #d3d3d3; stroke-width: 0.8"/>
      </g>
     </g>
     <g id="text_13">
      <!-- 0 -->
      <g style="fill: #d3d3d3" transform="translate(44.2375 178.327219) scale(0.1 -0.1)">
       <use xlink:href="#DejaVuSans-30"/>
      </g>
     </g>
    </g>
    <g id="ytick_4">
     <g id="line2d_13">
      <g>
       <use xlink:href="#mb8090adeee" x="57.6" y="121.3056" style="fill: #d3d3d3; stroke: #d3d3d3; stroke-width: 0.8"/>
      </g>
     </g>
     <g id="text_14">
      <!-- 2 -->
      <g style="fill: #d3d3d3" transform="translate(44.2375 125.104819) scale(0.1 -0.1)">
       <use xlink:href="#DejaVuSans-32"/>
      </g>
     </g>
    </g>
    <g id="ytick_5">
     <g id="line2d_14">
      <g>
       <use xlink:href="#mb8090adeee" x="57.6" y="68.0832" style="fill: #d3d3d3; stroke: #d3d3d3; stroke-width: 0.8"/>
      </g>
     </g>
     <g id="text_15">
      <!-- 4 -->
      <g style="fill: #d3d3d3" transform="translate(44.2375 71.882419) scale(0.1 -0.1)">
       <use xlink:href="#DejaVuSans-34"/>
      </g>
     </g>
    </g>
    <g id="text_16">
     <!-- Y-as -->
     <g style="fill: #d3d3d3" transform="translate(29.778125 184.460813) rotate(-90) scale(0.1 -0.1)">
      <defs>
       <path id="DejaVuSans-59" d="M -13 4666 
L 666 4666 
L 1959 2747 
L 3244 4666 
L 3922 4666 
L 2272 2222 
L 2272 0 
L 1638 0 
L 1638 2222 
L -13 4666 
z
" transform="scale(0.015625)"/>
      </defs>
      <use xlink:href="#DejaVuSans-59"/>
      <use xlink:href="#DejaVuSans-2d" x="49.208984"/>
      <use xlink:href="#DejaVuSans-61" x="85.292969"/>
      <use xlink:href="#DejaVuSans-73" x="146.572266"/>
     </g>
    </g>
   </g>
   <g id="line2d_15">
    <path d="M 57.6 179.85024 
L 81.52704 180.673774 
L 100.99008 181.5587 
L 116.88192 182.495425 
L 130.09536 183.488 
L 141.34464 184.551051 
L 150.80832 185.662393 
L 159.02208 186.848 
L 165.98592 188.070595 
L 172.05696 189.353181 
L 177.41376 190.705021 
L 182.23488 192.151311 
L 186.52032 193.672748 
L 190.27008 195.237105 
L 193.66272 196.890353 
L 196.69824 198.610534 
L 199.5552 200.490146 
L 202.05504 202.393131 
L 204.37632 204.428225 
L 206.51904 206.589687 
L 208.4832 208.865032 
L 210.44736 211.488 
L 212.23296 214.246209 
L 213.84 217.10592 
L 215.44704 220.409379 
L 217.05408 224.268561 
L 218.48256 228.288 
L 219.91104 233.014154 
L 221.16096 237.888 
L 222.41088 243.648 
L 223.6608 250.56 
L 224.73216 257.688 
L 225.80352 266.290759 
L 226.87488 276.878769 
L 227.76768 287.767149 
L 228.66048 301.248 
L 229.55328 318.372324 
L 230.26752 335.808 
L 230.63671 346.6 
M 236.33856 346.6 
L 236.33856 -1 
M 241.575458 -1 
L 242.4096 22.464 
L 243.3024 41.472 
L 244.1952 56.256 
L 245.26656 70.170353 
L 246.33792 81.155368 
L 247.40928 90.048 
L 248.6592 98.496 
L 249.90912 105.408 
L 251.15904 111.168 
L 252.58752 116.677565 
L 254.016 121.3056 
L 255.44448 125.248 
L 257.05152 129.038769 
L 258.65856 132.288 
L 260.44416 135.393882 
L 262.22976 138.074301 
L 264.19392 140.628382 
L 266.33664 143.035456 
L 268.65792 145.284923 
L 271.15776 147.373714 
L 273.83616 149.304114 
L 276.69312 151.082009 
L 279.72864 152.715541 
L 283.12128 154.291346 
L 286.87104 155.787718 
L 291.15648 157.248 
L 295.79904 158.59315 
L 301.15584 159.906462 
L 307.22688 161.155538 
L 314.01216 162.321028 
L 321.8688 163.44 
L 330.97536 164.504949 
L 341.5104 165.507254 
L 353.83104 166.451763 
L 368.47296 167.34549 
L 385.97184 168.184448 
L 407.22048 168.972426 
L 414.54144 169.200432 
L 414.54144 169.200432 
" clip-path="url(#p081f1dedb7)" style="fill: none; stroke: #00ced1; stroke-width: 1.5; stroke-linecap: square"/>
   </g>
   <g id="patch_3">
    <path d="M 57.6 307.584 
L 57.6 41.472 
" style="fill: none; stroke: #d3d3d3; stroke-width: 0.8; stroke-linejoin: miter; stroke-linecap: square"/>
   </g>
   <g id="patch_4">
    <path d="M 414.72 307.584 
L 414.72 41.472 
" style="fill: none; stroke: #d3d3d3; stroke-width: 0.8; stroke-linejoin: miter; stroke-linecap: square"/>
   </g>
   <g id="patch_5">
    <path d="M 57.6 307.584 
L 414.72 307.584 
" style="fill: none; stroke: #d3d3d3; stroke-width: 0.8; stroke-linejoin: miter; stroke-linecap: square"/>
   </g>
   <g id="patch_6">
    <path d="M 57.6 41.472 
L 414.72 41.472 
" style="fill: none; stroke: #d3d3d3; stroke-width: 0.8; stroke-linejoin: miter; stroke-linecap: square"/>
   </g>
   <g id="PolyCollection_1">
    <defs>
     <path id="m4dc18a8ba9" d="M 57.6 -171.072 
L 57.6 -165.74976 
L 57.77856 -165.744432 
L 57.95712 -165.739094 
L 58.13568 -165.733745 
L 58.31424 -165.728386 
L 58.4928 -165.723015 
L 58.67136 -165.717634 
L 58.84992 -165.712242 
L 59.02848 -165.706839 
L 59.20704 -165.701425 
L 59.3856 -165.696 
L 59.56416 -165.690564 
L 59.74272 -165.685117 
L 59.92128 -165.67966 
L 60.09984 -165.674191 
L 60.2784 -165.668711 
L 60.45696 -165.66322 
L 60.63552 -165.657717 
L 60.81408 -165.652204 
L 60.99264 -165.646679 
L 61.1712 -165.641143 
L 61.34976 -165.635596 
L 61.52832 -165.630037 
L 61.70688 -165.624467 
L 61.88544 -165.618885 
L 62.064 -165.613292 
L 62.24256 -165.607688 
L 62.42112 -165.602072 
L 62.59968 -165.596444 
L 62.77824 -165.590805 
L 62.9568 -165.585155 
L 63.13536 -165.579492 
L 63.31392 -165.573818 
L 63.49248 -165.568132 
L 63.67104 -165.562435 
L 63.8496 -165.556725 
L 64.02816 -165.551004 
L 64.20672 -165.545271 
L 64.38528 -165.539526 
L 64.56384 -165.533769 
L 64.7424 -165.528 
L 64.92096 -165.522219 
L 65.09952 -165.516426 
L 65.27808 -165.510621 
L 65.45664 -165.504803 
L 65.6352 -165.498974 
L 65.81376 -165.493132 
L 65.99232 -165.487278 
L 66.17088 -165.481412 
L 66.34944 -165.475533 
L 66.528 -165.469642 
L 66.70656 -165.463739 
L 66.88512 -165.457823 
L 67.06368 -165.451894 
L 67.24224 -165.445953 
L 67.4208 -165.44 
L 67.59936 -165.434034 
L 67.77792 -165.428055 
L 67.95648 -165.422064 
L 68.13504 -165.41606 
L 68.3136 -165.410043 
L 68.49216 -165.404013 
L 68.67072 -165.39797 
L 68.84928 -165.391915 
L 69.02784 -165.385846 
L 69.2064 -165.379765 
L 69.38496 -165.37367 
L 69.56352 -165.367563 
L 69.74208 -165.361442 
L 69.92064 -165.355308 
L 70.0992 -165.349161 
L 70.27776 -165.343001 
L 70.45632 -165.336828 
L 70.63488 -165.330641 
L 70.81344 -165.324441 
L 70.992 -165.318227 
L 71.17056 -165.312 
L 71.34912 -165.305759 
L 71.52768 -165.299505 
L 71.70624 -165.293238 
L 71.8848 -165.286957 
L 72.06336 -165.280662 
L 72.24192 -165.274353 
L 72.42048 -165.268031 
L 72.59904 -165.261694 
L 72.7776 -165.255344 
L 72.95616 -165.24898 
L 73.13472 -165.242602 
L 73.31328 -165.236211 
L 73.49184 -165.229805 
L 73.6704 -165.223385 
L 73.84896 -165.21695 
L 74.02752 -165.210502 
L 74.20608 -165.20404 
L 74.38464 -165.197563 
L 74.5632 -165.191072 
L 74.74176 -165.184566 
L 74.92032 -165.178047 
L 75.09888 -165.171512 
L 75.27744 -165.164963 
L 75.456 -165.1584 
L 75.63456 -165.151822 
L 75.81312 -165.145229 
L 75.99168 -165.138622 
L 76.17024 -165.132 
L 76.3488 -165.125363 
L 76.52736 -165.118711 
L 76.70592 -165.112045 
L 76.88448 -165.105363 
L 77.06304 -165.098667 
L 77.2416 -165.091955 
L 77.42016 -165.085228 
L 77.59872 -165.078486 
L 77.77728 -165.071729 
L 77.95584 -165.064957 
L 78.1344 -165.058169 
L 78.31296 -165.051367 
L 78.49152 -165.044548 
L 78.67008 -165.037714 
L 78.84864 -165.030865 
L 79.0272 -165.024 
L 79.20576 -165.017119 
L 79.38432 -165.010223 
L 79.56288 -165.003311 
L 79.74144 -164.996384 
L 79.92 -164.98944 
L 80.09856 -164.982481 
L 80.27712 -164.975505 
L 80.45568 -164.968514 
L 80.63424 -164.961506 
L 80.8128 -164.954483 
L 80.99136 -164.947443 
L 81.16992 -164.940387 
L 81.34848 -164.933315 
L 81.52704 -164.926226 
L 81.7056 -164.919121 
L 81.88416 -164.912 
L 82.06272 -164.904862 
L 82.24128 -164.897708 
L 82.41984 -164.890537 
L 82.5984 -164.883349 
L 82.77696 -164.876144 
L 82.95552 -164.868923 
L 83.13408 -164.861685 
L 83.31264 -164.85443 
L 83.4912 -164.847158 
L 83.66976 -164.839869 
L 83.84832 -164.832563 
L 84.02688 -164.825239 
L 84.20544 -164.817899 
L 84.384 -164.810541 
L 84.56256 -164.803166 
L 84.74112 -164.795774 
L 84.91968 -164.788364 
L 85.09824 -164.780936 
L 85.2768 -164.773491 
L 85.45536 -164.766028 
L 85.63392 -164.758548 
L 85.81248 -164.75105 
L 85.99104 -164.743534 
L 86.1696 -164.736 
L 86.34816 -164.728448 
L 86.52672 -164.720878 
L 86.70528 -164.71329 
L 86.88384 -164.705684 
L 87.0624 -164.69806 
L 87.24096 -164.690417 
L 87.41952 -164.682756 
L 87.59808 -164.675077 
L 87.77664 -164.667379 
L 87.9552 -164.659663 
L 88.13376 -164.651928 
L 88.31232 -164.644174 
L 88.49088 -164.636401 
L 88.66944 -164.62861 
L 88.848 -164.6208 
L 89.02656 -164.612971 
L 89.20512 -164.605123 
L 89.38368 -164.597255 
L 89.56224 -164.589369 
L 89.7408 -164.581463 
L 89.91936 -164.573538 
L 90.09792 -164.565594 
L 90.27648 -164.55763 
L 90.45504 -164.549647 
L 90.6336 -164.541644 
L 90.81216 -164.533622 
L 90.99072 -164.525579 
L 91.16928 -164.517517 
L 91.34784 -164.509435 
L 91.5264 -164.501333 
L 91.70496 -164.493211 
L 91.88352 -164.485069 
L 92.06208 -164.476907 
L 92.24064 -164.468725 
L 92.4192 -164.460522 
L 92.59776 -164.452299 
L 92.77632 -164.444055 
L 92.95488 -164.435791 
L 93.13344 -164.427506 
L 93.312 -164.4192 
L 93.49056 -164.410874 
L 93.66912 -164.402526 
L 93.84768 -164.394158 
L 94.02624 -164.385769 
L 94.2048 -164.377358 
L 94.38336 -164.368927 
L 94.56192 -164.360474 
L 94.74048 -164.352 
L 94.91904 -164.343504 
L 95.0976 -164.334987 
L 95.27616 -164.326449 
L 95.45472 -164.317888 
L 95.63328 -164.309306 
L 95.81184 -164.300702 
L 95.9904 -164.292076 
L 96.16896 -164.283429 
L 96.34752 -164.274759 
L 96.52608 -164.266066 
L 96.70464 -164.257352 
L 96.8832 -164.248615 
L 97.06176 -164.239856 
L 97.24032 -164.231075 
L 97.41888 -164.22227 
L 97.59744 -164.213443 
L 97.776 -164.204594 
L 97.95456 -164.195721 
L 98.13312 -164.186825 
L 98.31168 -164.177907 
L 98.49024 -164.168965 
L 98.6688 -164.16 
L 98.84736 -164.151012 
L 99.02592 -164.142 
L 99.20448 -164.132965 
L 99.38304 -164.123906 
L 99.5616 -164.114824 
L 99.74016 -164.105717 
L 99.91872 -164.096587 
L 100.09728 -164.087433 
L 100.27584 -164.078255 
L 100.4544 -164.069053 
L 100.63296 -164.059826 
L 100.81152 -164.050575 
L 100.99008 -164.0413 
L 101.16864 -164.032 
L 101.3472 -164.022675 
L 101.52576 -164.013326 
L 101.70432 -164.003952 
L 101.88288 -163.994553 
L 102.06144 -163.985129 
L 102.24 -163.97568 
L 102.41856 -163.966206 
L 102.59712 -163.956706 
L 102.77568 -163.947181 
L 102.95424 -163.93763 
L 103.1328 -163.928054 
L 103.31136 -163.918452 
L 103.48992 -163.908824 
L 103.66848 -163.89917 
L 103.84704 -163.88949 
L 104.0256 -163.879784 
L 104.20416 -163.870051 
L 104.38272 -163.860293 
L 104.56128 -163.850507 
L 104.73984 -163.840696 
L 104.9184 -163.830857 
L 105.09696 -163.820992 
L 105.27552 -163.8111 
L 105.45408 -163.80118 
L 105.63264 -163.791234 
L 105.8112 -163.78126 
L 105.98976 -163.771259 
L 106.16832 -163.761231 
L 106.34688 -163.751175 
L 106.52544 -163.741091 
L 106.704 -163.730979 
L 106.88256 -163.72084 
L 107.06112 -163.710672 
L 107.23968 -163.700476 
L 107.41824 -163.690252 
L 107.5968 -163.68 
L 107.77536 -163.669719 
L 107.95392 -163.659409 
L 108.13248 -163.649071 
L 108.31104 -163.638704 
L 108.4896 -163.628308 
L 108.66816 -163.617882 
L 108.84672 -163.607428 
L 109.02528 -163.596944 
L 109.20384 -163.58643 
L 109.3824 -163.575887 
L 109.56096 -163.565315 
L 109.73952 -163.554712 
L 109.91808 -163.544079 
L 110.09664 -163.533416 
L 110.2752 -163.522723 
L 110.45376 -163.512 
L 110.63232 -163.501246 
L 110.81088 -163.490462 
L 110.98944 -163.479646 
L 111.168 -163.4688 
L 111.34656 -163.457923 
L 111.52512 -163.447014 
L 111.70368 -163.436075 
L 111.88224 -163.425103 
L 112.0608 -163.414101 
L 112.23936 -163.403066 
L 112.41792 -163.392 
L 112.59648 -163.380902 
L 112.77504 -163.369771 
L 112.9536 -163.358609 
L 113.13216 -163.347414 
L 113.31072 -163.336186 
L 113.48928 -163.324926 
L 113.66784 -163.313633 
L 113.8464 -163.302307 
L 114.02496 -163.290947 
L 114.20352 -163.279555 
L 114.38208 -163.268129 
L 114.56064 -163.25667 
L 114.7392 -163.245176 
L 114.91776 -163.233649 
L 115.09632 -163.222088 
L 115.27488 -163.210493 
L 115.45344 -163.198864 
L 115.632 -163.1872 
L 115.81056 -163.175501 
L 115.98912 -163.163768 
L 116.16768 -163.152 
L 116.34624 -163.140197 
L 116.5248 -163.128358 
L 116.70336 -163.116484 
L 116.88192 -163.104575 
L 117.06048 -163.09263 
L 117.23904 -163.080649 
L 117.4176 -163.068632 
L 117.59616 -163.056578 
L 117.77472 -163.044489 
L 117.95328 -163.032363 
L 118.13184 -163.0202 
L 118.3104 -163.008 
L 118.48896 -162.995763 
L 118.66752 -162.983489 
L 118.84608 -162.971178 
L 119.02464 -162.958829 
L 119.2032 -162.946443 
L 119.38176 -162.934018 
L 119.56032 -162.921556 
L 119.73888 -162.909055 
L 119.91744 -162.896516 
L 120.096 -162.883938 
L 120.27456 -162.871322 
L 120.45312 -162.858667 
L 120.63168 -162.845972 
L 120.81024 -162.833238 
L 120.9888 -162.820465 
L 121.16736 -162.807652 
L 121.34592 -162.794799 
L 121.52448 -162.781907 
L 121.70304 -162.768973 
L 121.8816 -162.756 
L 122.06016 -162.742986 
L 122.23872 -162.729931 
L 122.41728 -162.716835 
L 122.59584 -162.703698 
L 122.7744 -162.69052 
L 122.95296 -162.6773 
L 123.13152 -162.664038 
L 123.31008 -162.650734 
L 123.48864 -162.637388 
L 123.6672 -162.624 
L 123.84576 -162.610569 
L 124.02432 -162.597096 
L 124.20288 -162.583579 
L 124.38144 -162.570019 
L 124.56 -162.556416 
L 124.73856 -162.542769 
L 124.91712 -162.529079 
L 125.09568 -162.515344 
L 125.27424 -162.501565 
L 125.4528 -162.487742 
L 125.63136 -162.473874 
L 125.80992 -162.459961 
L 125.98848 -162.446003 
L 126.16704 -162.432 
L 126.3456 -162.417951 
L 126.52416 -162.403857 
L 126.70272 -162.389716 
L 126.88128 -162.375529 
L 127.05984 -162.361296 
L 127.2384 -162.347016 
L 127.41696 -162.33269 
L 127.59552 -162.318316 
L 127.77408 -162.303895 
L 127.95264 -162.289426 
L 128.1312 -162.274909 
L 128.30976 -162.260344 
L 128.48832 -162.245731 
L 128.66688 -162.23107 
L 128.84544 -162.216359 
L 129.024 -162.2016 
L 129.20256 -162.186791 
L 129.38112 -162.171933 
L 129.55968 -162.157025 
L 129.73824 -162.142067 
L 129.9168 -162.127059 
L 130.09536 -162.112 
L 130.27392 -162.09689 
L 130.45248 -162.08173 
L 130.63104 -162.066518 
L 130.8096 -162.051254 
L 130.98816 -162.035939 
L 131.16672 -162.020571 
L 131.34528 -162.005152 
L 131.52384 -161.989679 
L 131.7024 -161.974154 
L 131.88096 -161.958575 
L 132.05952 -161.942943 
L 132.23808 -161.927258 
L 132.41664 -161.911518 
L 132.5952 -161.895724 
L 132.77376 -161.879876 
L 132.95232 -161.863972 
L 133.13088 -161.848014 
L 133.30944 -161.832 
L 133.488 -161.81593 
L 133.66656 -161.799805 
L 133.84512 -161.783623 
L 134.02368 -161.767385 
L 134.20224 -161.751089 
L 134.3808 -161.734737 
L 134.55936 -161.718327 
L 134.73792 -161.701859 
L 134.91648 -161.685333 
L 135.09504 -161.668749 
L 135.2736 -161.652106 
L 135.45216 -161.635404 
L 135.63072 -161.618643 
L 135.80928 -161.601822 
L 135.98784 -161.584941 
L 136.1664 -161.568 
L 136.34496 -161.550998 
L 136.52352 -161.533935 
L 136.70208 -161.516811 
L 136.88064 -161.499626 
L 137.0592 -161.482378 
L 137.23776 -161.465069 
L 137.41632 -161.447696 
L 137.59488 -161.430261 
L 137.77344 -161.412762 
L 137.952 -161.3952 
L 138.13056 -161.377574 
L 138.30912 -161.359883 
L 138.48768 -161.342128 
L 138.66624 -161.324308 
L 138.8448 -161.306422 
L 139.02336 -161.288471 
L 139.20192 -161.270453 
L 139.38048 -161.252369 
L 139.55904 -161.234218 
L 139.7376 -161.216 
L 139.91616 -161.197714 
L 140.09472 -161.179361 
L 140.27328 -161.160939 
L 140.45184 -161.142448 
L 140.6304 -161.123888 
L 140.80896 -161.105258 
L 140.98752 -161.086559 
L 141.16608 -161.067789 
L 141.34464 -161.048949 
L 141.5232 -161.030038 
L 141.70176 -161.011055 
L 141.88032 -160.992 
L 142.05888 -160.972873 
L 142.23744 -160.953673 
L 142.416 -160.9344 
L 142.59456 -160.915053 
L 142.77312 -160.895633 
L 142.95168 -160.876138 
L 143.13024 -160.856568 
L 143.3088 -160.836923 
L 143.48736 -160.817202 
L 143.66592 -160.797405 
L 143.84448 -160.777532 
L 144.02304 -160.757581 
L 144.2016 -160.737553 
L 144.38016 -160.717447 
L 144.55872 -160.697263 
L 144.73728 -160.677 
L 144.91584 -160.656658 
L 145.0944 -160.636235 
L 145.27296 -160.615733 
L 145.45152 -160.59515 
L 145.63008 -160.574485 
L 145.80864 -160.553739 
L 145.9872 -160.532911 
L 146.16576 -160.512 
L 146.34432 -160.491006 
L 146.52288 -160.469928 
L 146.70144 -160.448766 
L 146.88 -160.42752 
L 147.05856 -160.406188 
L 147.23712 -160.384771 
L 147.41568 -160.363268 
L 147.59424 -160.341677 
L 147.7728 -160.32 
L 147.95136 -160.298235 
L 148.12992 -160.276381 
L 148.30848 -160.254439 
L 148.48704 -160.232407 
L 148.6656 -160.210286 
L 148.84416 -160.188074 
L 149.02272 -160.16577 
L 149.20128 -160.143376 
L 149.37984 -160.120889 
L 149.5584 -160.098309 
L 149.73696 -160.075636 
L 149.91552 -160.05287 
L 150.09408 -160.030008 
L 150.27264 -160.007052 
L 150.4512 -159.984 
L 150.62976 -159.960852 
L 150.80832 -159.937607 
L 150.98688 -159.914264 
L 151.16544 -159.890824 
L 151.344 -159.867284 
L 151.52256 -159.843646 
L 151.70112 -159.819907 
L 151.87968 -159.796068 
L 152.05824 -159.772127 
L 152.2368 -159.748085 
L 152.41536 -159.72394 
L 152.59392 -159.699692 
L 152.77248 -159.67534 
L 152.95104 -159.650884 
L 153.1296 -159.626323 
L 153.30816 -159.601655 
L 153.48672 -159.576881 
L 153.66528 -159.552 
L 153.84384 -159.527011 
L 154.0224 -159.501913 
L 154.20096 -159.476706 
L 154.37952 -159.451389 
L 154.55808 -159.425961 
L 154.73664 -159.400421 
L 154.9152 -159.374769 
L 155.09376 -159.349004 
L 155.27232 -159.323126 
L 155.45088 -159.297133 
L 155.62944 -159.271024 
L 155.808 -159.2448 
L 155.98656 -159.218459 
L 156.16512 -159.192 
L 156.34368 -159.165423 
L 156.52224 -159.138726 
L 156.7008 -159.11191 
L 156.87936 -159.084973 
L 157.05792 -159.057914 
L 157.23648 -159.030733 
L 157.41504 -159.003429 
L 157.5936 -158.976 
L 157.77216 -158.948446 
L 157.95072 -158.920767 
L 158.12928 -158.892961 
L 158.30784 -158.865028 
L 158.4864 -158.836966 
L 158.66496 -158.808774 
L 158.84352 -158.780453 
L 159.02208 -158.752 
L 159.20064 -158.723415 
L 159.3792 -158.694698 
L 159.55776 -158.665846 
L 159.73632 -158.63686 
L 159.91488 -158.607738 
L 160.09344 -158.578479 
L 160.272 -158.549082 
L 160.45056 -158.519547 
L 160.62912 -158.489872 
L 160.80768 -158.460057 
L 160.98624 -158.4301 
L 161.1648 -158.4 
L 161.34336 -158.369757 
L 161.52192 -158.339368 
L 161.70048 -158.308835 
L 161.87904 -158.278154 
L 162.0576 -158.247325 
L 162.23616 -158.216348 
L 162.41472 -158.18522 
L 162.59328 -158.153942 
L 162.77184 -158.122511 
L 162.9504 -158.090927 
L 163.12896 -158.059188 
L 163.30752 -158.027294 
L 163.48608 -157.995243 
L 163.66464 -157.963034 
L 163.8432 -157.930667 
L 164.02176 -157.898139 
L 164.20032 -157.865449 
L 164.37888 -157.832597 
L 164.55744 -157.799581 
L 164.736 -157.7664 
L 164.91456 -157.733053 
L 165.09312 -157.699538 
L 165.27168 -157.665854 
L 165.45024 -157.632 
L 165.6288 -157.597975 
L 165.80736 -157.563777 
L 165.98592 -157.529405 
L 166.16448 -157.494857 
L 166.34304 -157.460133 
L 166.5216 -157.425231 
L 166.70016 -157.390149 
L 166.87872 -157.354887 
L 167.05728 -157.319442 
L 167.23584 -157.283813 
L 167.4144 -157.248 
L 167.59296 -157.212 
L 167.77152 -157.175812 
L 167.95008 -157.139435 
L 168.12864 -157.102866 
L 168.3072 -157.066105 
L 168.48576 -157.02915 
L 168.66432 -156.992 
L 168.84288 -156.954653 
L 169.02144 -156.917106 
L 169.2 -156.87936 
L 169.37856 -156.841412 
L 169.55712 -156.80326 
L 169.73568 -156.764903 
L 169.91424 -156.72634 
L 170.0928 -156.687568 
L 170.27136 -156.648585 
L 170.44992 -156.609391 
L 170.62848 -156.569984 
L 170.80704 -156.530361 
L 170.9856 -156.490521 
L 171.16416 -156.450462 
L 171.34272 -156.410182 
L 171.52128 -156.36968 
L 171.69984 -156.328953 
L 171.8784 -156.288 
L 172.05696 -156.246819 
L 172.23552 -156.205408 
L 172.41408 -156.163765 
L 172.59264 -156.121888 
L 172.7712 -156.079775 
L 172.94976 -156.037424 
L 173.12832 -155.994833 
L 173.30688 -155.952 
L 173.48544 -155.908923 
L 173.664 -155.8656 
L 173.84256 -155.822029 
L 174.02112 -155.778207 
L 174.19968 -155.734133 
L 174.37824 -155.689803 
L 174.5568 -155.645217 
L 174.73536 -155.600372 
L 174.91392 -155.555265 
L 175.09248 -155.509895 
L 175.27104 -155.464258 
L 175.4496 -155.418353 
L 175.62816 -155.372177 
L 175.80672 -155.325728 
L 175.98528 -155.279003 
L 176.16384 -155.232 
L 176.3424 -155.184716 
L 176.52096 -155.13715 
L 176.69952 -155.089297 
L 176.87808 -155.041157 
L 177.05664 -154.992725 
L 177.2352 -154.944 
L 177.41376 -154.894979 
L 177.59232 -154.845659 
L 177.77088 -154.796037 
L 177.94944 -154.74611 
L 178.128 -154.695877 
L 178.30656 -154.645333 
L 178.48512 -154.594477 
L 178.66368 -154.543304 
L 178.84224 -154.491813 
L 179.0208 -154.44 
L 179.19936 -154.387862 
L 179.37792 -154.335396 
L 179.55648 -154.282599 
L 179.73504 -154.229468 
L 179.9136 -154.176 
L 180.09216 -154.122191 
L 180.27072 -154.068038 
L 180.44928 -154.013538 
L 180.62784 -153.958688 
L 180.8064 -153.903484 
L 180.98496 -153.847922 
L 181.16352 -153.792 
L 181.34208 -153.735713 
L 181.52064 -153.679059 
L 181.6992 -153.622033 
L 181.87776 -153.564632 
L 182.05632 -153.506851 
L 182.23488 -153.448689 
L 182.41344 -153.39014 
L 182.592 -153.3312 
L 182.77056 -153.271866 
L 182.94912 -153.212134 
L 183.12768 -153.152 
L 183.30624 -153.091459 
L 183.4848 -153.030508 
L 183.66336 -152.969143 
L 183.84192 -152.907358 
L 184.02048 -152.845151 
L 184.19904 -152.782515 
L 184.3776 -152.719448 
L 184.55616 -152.655945 
L 184.73472 -152.592 
L 184.91328 -152.52761 
L 185.09184 -152.462769 
L 185.2704 -152.397474 
L 185.44896 -152.331718 
L 185.62752 -152.265498 
L 185.80608 -152.198809 
L 185.98464 -152.131644 
L 186.1632 -152.064 
L 186.34176 -151.995871 
L 186.52032 -151.927252 
L 186.69888 -151.858137 
L 186.87744 -151.788522 
L 187.056 -151.7184 
L 187.23456 -151.647766 
L 187.41312 -151.576615 
L 187.59168 -151.504941 
L 187.77024 -151.432738 
L 187.9488 -151.36 
L 188.12736 -151.286721 
L 188.30592 -151.212896 
L 188.48448 -151.138517 
L 188.66304 -151.063579 
L 188.8416 -150.988075 
L 189.02016 -150.912 
L 189.19872 -150.835346 
L 189.37728 -150.758107 
L 189.55584 -150.680276 
L 189.7344 -150.601846 
L 189.91296 -150.522811 
L 190.09152 -150.443163 
L 190.27008 -150.362895 
L 190.44864 -150.282 
L 190.6272 -150.200471 
L 190.80576 -150.118299 
L 190.98432 -150.035478 
L 191.16288 -149.952 
L 191.34144 -149.867857 
L 191.52 -149.78304 
L 191.69856 -149.697542 
L 191.87712 -149.611355 
L 192.05568 -149.52447 
L 192.23424 -149.436878 
L 192.4128 -149.348571 
L 192.59136 -149.259541 
L 192.76992 -149.169778 
L 192.94848 -149.079273 
L 193.12704 -148.988017 
L 193.3056 -148.896 
L 193.48416 -148.803213 
L 193.66272 -148.709647 
L 193.84128 -148.615291 
L 194.01984 -148.520136 
L 194.1984 -148.42417 
L 194.37696 -148.327385 
L 194.55552 -148.229768 
L 194.73408 -148.13131 
L 194.91264 -148.032 
L 195.0912 -147.931826 
L 195.26976 -147.830777 
L 195.44832 -147.728842 
L 195.62688 -147.626009 
L 195.80544 -147.522265 
L 195.984 -147.4176 
L 196.16256 -147.312 
L 196.34112 -147.205453 
L 196.51968 -147.097946 
L 196.69824 -146.989466 
L 196.8768 -146.88 
L 197.05536 -146.769534 
L 197.23392 -146.658055 
L 197.41248 -146.545548 
L 197.59104 -146.432 
L 197.7696 -146.317395 
L 197.94816 -146.20172 
L 198.12672 -146.084958 
L 198.30528 -145.967094 
L 198.48384 -145.848114 
L 198.6624 -145.728 
L 198.84096 -145.606737 
L 199.01952 -145.484308 
L 199.19808 -145.360696 
L 199.37664 -145.235883 
L 199.5552 -145.109854 
L 199.73376 -144.982588 
L 199.91232 -144.854069 
L 200.09088 -144.724277 
L 200.26944 -144.593194 
L 200.448 -144.4608 
L 200.62656 -144.327075 
L 200.80512 -144.192 
L 200.98368 -144.055553 
L 201.16224 -143.917714 
L 201.3408 -143.778462 
L 201.51936 -143.637773 
L 201.69792 -143.495627 
L 201.87648 -143.352 
L 202.05504 -143.206869 
L 202.2336 -143.060211 
L 202.41216 -142.912 
L 202.59072 -142.762213 
L 202.76928 -142.610824 
L 202.94784 -142.457806 
L 203.1264 -142.303135 
L 203.30496 -142.146783 
L 203.48352 -141.988721 
L 203.66208 -141.828923 
L 203.84064 -141.667359 
L 204.0192 -141.504 
L 204.19776 -141.338816 
L 204.37632 -141.171775 
L 204.55488 -141.002847 
L 204.73344 -140.832 
L 204.912 -140.6592 
L 205.09056 -140.484414 
L 205.26912 -140.307607 
L 205.44768 -140.128744 
L 205.62624 -139.947789 
L 205.8048 -139.764706 
L 205.98336 -139.579456 
L 206.16192 -139.392 
L 206.34048 -139.202299 
L 206.51904 -139.010313 
L 206.6976 -138.816 
L 206.87616 -138.619317 
L 207.05472 -138.420221 
L 207.23328 -138.218667 
L 207.41184 -138.014609 
L 207.5904 -137.808 
L 207.76896 -137.598792 
L 207.94752 -137.386937 
L 208.12608 -137.172382 
L 208.30464 -136.955077 
L 208.4832 -136.734968 
L 208.66176 -136.512 
L 208.84032 -136.286118 
L 209.01888 -136.057263 
L 209.19744 -135.825377 
L 209.376 -135.5904 
L 209.55456 -135.352268 
L 209.73312 -135.110919 
L 209.91168 -134.866286 
L 210.09024 -134.618301 
L 210.2688 -134.366897 
L 210.44736 -134.112 
L 210.62592 -133.853538 
L 210.80448 -133.591437 
L 210.98304 -133.325617 
L 211.1616 -133.056 
L 211.34016 -132.782504 
L 211.51872 -132.505043 
L 211.69728 -132.223533 
L 211.87584 -131.937882 
L 212.0544 -131.648 
L 212.23296 -131.353791 
L 212.41152 -131.055158 
L 212.59008 -130.752 
L 212.76864 -130.444214 
L 212.9472 -130.131692 
L 213.12576 -129.814326 
L 213.30432 -129.492 
L 213.48288 -129.164598 
L 213.66144 -128.832 
L 213.84 -128.49408 
L 214.01856 -128.15071 
L 214.19712 -127.801756 
L 214.37568 -127.447082 
L 214.55424 -127.086545 
L 214.7328 -126.72 
L 214.91136 -126.347294 
L 215.08992 -125.968271 
L 215.26848 -125.582769 
L 215.44704 -125.190621 
L 215.6256 -124.791652 
L 215.80416 -124.385684 
L 215.98272 -123.972531 
L 216.16128 -123.552 
L 216.33984 -123.123892 
L 216.5184 -122.688 
L 216.69696 -122.24411 
L 216.87552 -121.792 
L 217.05408 -121.331439 
L 217.23264 -120.862189 
L 217.4112 -120.384 
L 217.58976 -119.896615 
L 217.76832 -119.399767 
L 217.94688 -118.893176 
L 218.12544 -118.376554 
L 218.304 -117.8496 
L 218.304 -171.072 
L 218.304 -171.072 
L 218.12544 -171.072 
L 217.94688 -171.072 
L 217.76832 -171.072 
L 217.58976 -171.072 
L 217.4112 -171.072 
L 217.23264 -171.072 
L 217.05408 -171.072 
L 216.87552 -171.072 
L 216.69696 -171.072 
L 216.5184 -171.072 
L 216.33984 -171.072 
L 216.16128 -171.072 
L 215.98272 -171.072 
L 215.80416 -171.072 
L 215.6256 -171.072 
L 215.44704 -171.072 
L 215.26848 -171.072 
L 215.08992 -171.072 
L 214.91136 -171.072 
L 214.7328 -171.072 
L 214.55424 -171.072 
L 214.37568 -171.072 
L 214.19712 -171.072 
L 214.01856 -171.072 
L 213.84 -171.072 
L 213.66144 -171.072 
L 213.48288 -171.072 
L 213.30432 -171.072 
L 213.12576 -171.072 
L 212.9472 -171.072 
L 212.76864 -171.072 
L 212.59008 -171.072 
L 212.41152 -171.072 
L 212.23296 -171.072 
L 212.0544 -171.072 
L 211.87584 -171.072 
L 211.69728 -171.072 
L 211.51872 -171.072 
L 211.34016 -171.072 
L 211.1616 -171.072 
L 210.98304 -171.072 
L 210.80448 -171.072 
L 210.62592 -171.072 
L 210.44736 -171.072 
L 210.2688 -171.072 
L 210.09024 -171.072 
L 209.91168 -171.072 
L 209.73312 -171.072 
L 209.55456 -171.072 
L 209.376 -171.072 
L 209.19744 -171.072 
L 209.01888 -171.072 
L 208.84032 -171.072 
L 208.66176 -171.072 
L 208.4832 -171.072 
L 208.30464 -171.072 
L 208.12608 -171.072 
L 207.94752 -171.072 
L 207.76896 -171.072 
L 207.5904 -171.072 
L 207.41184 -171.072 
L 207.23328 -171.072 
L 207.05472 -171.072 
L 206.87616 -171.072 
L 206.6976 -171.072 
L 206.51904 -171.072 
L 206.34048 -171.072 
L 206.16192 -171.072 
L 205.98336 -171.072 
L 205.8048 -171.072 
L 205.62624 -171.072 
L 205.44768 -171.072 
L 205.26912 -171.072 
L 205.09056 -171.072 
L 204.912 -171.072 
L 204.73344 -171.072 
L 204.55488 -171.072 
L 204.37632 -171.072 
L 204.19776 -171.072 
L 204.0192 -171.072 
L 203.84064 -171.072 
L 203.66208 -171.072 
L 203.48352 -171.072 
L 203.30496 -171.072 
L 203.1264 -171.072 
L 202.94784 -171.072 
L 202.76928 -171.072 
L 202.59072 -171.072 
L 202.41216 -171.072 
L 202.2336 -171.072 
L 202.05504 -171.072 
L 201.87648 -171.072 
L 201.69792 -171.072 
L 201.51936 -171.072 
L 201.3408 -171.072 
L 201.16224 -171.072 
L 200.98368 -171.072 
L 200.80512 -171.072 
L 200.62656 -171.072 
L 200.448 -171.072 
L 200.26944 -171.072 
L 200.09088 -171.072 
L 199.91232 -171.072 
L 199.73376 -171.072 
L 199.5552 -171.072 
L 199.37664 -171.072 
L 199.19808 -171.072 
L 199.01952 -171.072 
L 198.84096 -171.072 
L 198.6624 -171.072 
L 198.48384 -171.072 
L 198.30528 -171.072 
L 198.12672 -171.072 
L 197.94816 -171.072 
L 197.7696 -171.072 
L 197.59104 -171.072 
L 197.41248 -171.072 
L 197.23392 -171.072 
L 197.05536 -171.072 
L 196.8768 -171.072 
L 196.69824 -171.072 
L 196.51968 -171.072 
L 196.34112 -171.072 
L 196.16256 -171.072 
L 195.984 -171.072 
L 195.80544 -171.072 
L 195.62688 -171.072 
L 195.44832 -171.072 
L 195.26976 -171.072 
L 195.0912 -171.072 
L 194.91264 -171.072 
L 194.73408 -171.072 
L 194.55552 -171.072 
L 194.37696 -171.072 
L 194.1984 -171.072 
L 194.01984 -171.072 
L 193.84128 -171.072 
L 193.66272 -171.072 
L 193.48416 -171.072 
L 193.3056 -171.072 
L 193.12704 -171.072 
L 192.94848 -171.072 
L 192.76992 -171.072 
L 192.59136 -171.072 
L 192.4128 -171.072 
L 192.23424 -171.072 
L 192.05568 -171.072 
L 191.87712 -171.072 
L 191.69856 -171.072 
L 191.52 -171.072 
L 191.34144 -171.072 
L 191.16288 -171.072 
L 190.98432 -171.072 
L 190.80576 -171.072 
L 190.6272 -171.072 
L 190.44864 -171.072 
L 190.27008 -171.072 
L 190.09152 -171.072 
L 189.91296 -171.072 
L 189.7344 -171.072 
L 189.55584 -171.072 
L 189.37728 -171.072 
L 189.19872 -171.072 
L 189.02016 -171.072 
L 188.8416 -171.072 
L 188.66304 -171.072 
L 188.48448 -171.072 
L 188.30592 -171.072 
L 188.12736 -171.072 
L 187.9488 -171.072 
L 187.77024 -171.072 
L 187.59168 -171.072 
L 187.41312 -171.072 
L 187.23456 -171.072 
L 187.056 -171.072 
L 186.87744 -171.072 
L 186.69888 -171.072 
L 186.52032 -171.072 
L 186.34176 -171.072 
L 186.1632 -171.072 
L 185.98464 -171.072 
L 185.80608 -171.072 
L 185.62752 -171.072 
L 185.44896 -171.072 
L 185.2704 -171.072 
L 185.09184 -171.072 
L 184.91328 -171.072 
L 184.73472 -171.072 
L 184.55616 -171.072 
L 184.3776 -171.072 
L 184.19904 -171.072 
L 184.02048 -171.072 
L 183.84192 -171.072 
L 183.66336 -171.072 
L 183.4848 -171.072 
L 183.30624 -171.072 
L 183.12768 -171.072 
L 182.94912 -171.072 
L 182.77056 -171.072 
L 182.592 -171.072 
L 182.41344 -171.072 
L 182.23488 -171.072 
L 182.05632 -171.072 
L 181.87776 -171.072 
L 181.6992 -171.072 
L 181.52064 -171.072 
L 181.34208 -171.072 
L 181.16352 -171.072 
L 180.98496 -171.072 
L 180.8064 -171.072 
L 180.62784 -171.072 
L 180.44928 -171.072 
L 180.27072 -171.072 
L 180.09216 -171.072 
L 179.9136 -171.072 
L 179.73504 -171.072 
L 179.55648 -171.072 
L 179.37792 -171.072 
L 179.19936 -171.072 
L 179.0208 -171.072 
L 178.84224 -171.072 
L 178.66368 -171.072 
L 178.48512 -171.072 
L 178.30656 -171.072 
L 178.128 -171.072 
L 177.94944 -171.072 
L 177.77088 -171.072 
L 177.59232 -171.072 
L 177.41376 -171.072 
L 177.2352 -171.072 
L 177.05664 -171.072 
L 176.87808 -171.072 
L 176.69952 -171.072 
L 176.52096 -171.072 
L 176.3424 -171.072 
L 176.16384 -171.072 
L 175.98528 -171.072 
L 175.80672 -171.072 
L 175.62816 -171.072 
L 175.4496 -171.072 
L 175.27104 -171.072 
L 175.09248 -171.072 
L 174.91392 -171.072 
L 174.73536 -171.072 
L 174.5568 -171.072 
L 174.37824 -171.072 
L 174.19968 -171.072 
L 174.02112 -171.072 
L 173.84256 -171.072 
L 173.664 -171.072 
L 173.48544 -171.072 
L 173.30688 -171.072 
L 173.12832 -171.072 
L 172.94976 -171.072 
L 172.7712 -171.072 
L 172.59264 -171.072 
L 172.41408 -171.072 
L 172.23552 -171.072 
L 172.05696 -171.072 
L 171.8784 -171.072 
L 171.69984 -171.072 
L 171.52128 -171.072 
L 171.34272 -171.072 
L 171.16416 -171.072 
L 170.9856 -171.072 
L 170.80704 -171.072 
L 170.62848 -171.072 
L 170.44992 -171.072 
L 170.27136 -171.072 
L 170.0928 -171.072 
L 169.91424 -171.072 
L 169.73568 -171.072 
L 169.55712 -171.072 
L 169.37856 -171.072 
L 169.2 -171.072 
L 169.02144 -171.072 
L 168.84288 -171.072 
L 168.66432 -171.072 
L 168.48576 -171.072 
L 168.3072 -171.072 
L 168.12864 -171.072 
L 167.95008 -171.072 
L 167.77152 -171.072 
L 167.59296 -171.072 
L 167.4144 -171.072 
L 167.23584 -171.072 
L 167.05728 -171.072 
L 166.87872 -171.072 
L 166.70016 -171.072 
L 166.5216 -171.072 
L 166.34304 -171.072 
L 166.16448 -171.072 
L 165.98592 -171.072 
L 165.80736 -171.072 
L 165.6288 -171.072 
L 165.45024 -171.072 
L 165.27168 -171.072 
L 165.09312 -171.072 
L 164.91456 -171.072 
L 164.736 -171.072 
L 164.55744 -171.072 
L 164.37888 -171.072 
L 164.20032 -171.072 
L 164.02176 -171.072 
L 163.8432 -171.072 
L 163.66464 -171.072 
L 163.48608 -171.072 
L 163.30752 -171.072 
L 163.12896 -171.072 
L 162.9504 -171.072 
L 162.77184 -171.072 
L 162.59328 -171.072 
L 162.41472 -171.072 
L 162.23616 -171.072 
L 162.0576 -171.072 
L 161.87904 -171.072 
L 161.70048 -171.072 
L 161.52192 -171.072 
L 161.34336 -171.072 
L 161.1648 -171.072 
L 160.98624 -171.072 
L 160.80768 -171.072 
L 160.62912 -171.072 
L 160.45056 -171.072 
L 160.272 -171.072 
L 160.09344 -171.072 
L 159.91488 -171.072 
L 159.73632 -171.072 
L 159.55776 -171.072 
L 159.3792 -171.072 
L 159.20064 -171.072 
L 159.02208 -171.072 
L 158.84352 -171.072 
L 158.66496 -171.072 
L 158.4864 -171.072 
L 158.30784 -171.072 
L 158.12928 -171.072 
L 157.95072 -171.072 
L 157.77216 -171.072 
L 157.5936 -171.072 
L 157.41504 -171.072 
L 157.23648 -171.072 
L 157.05792 -171.072 
L 156.87936 -171.072 
L 156.7008 -171.072 
L 156.52224 -171.072 
L 156.34368 -171.072 
L 156.16512 -171.072 
L 155.98656 -171.072 
L 155.808 -171.072 
L 155.62944 -171.072 
L 155.45088 -171.072 
L 155.27232 -171.072 
L 155.09376 -171.072 
L 154.9152 -171.072 
L 154.73664 -171.072 
L 154.55808 -171.072 
L 154.37952 -171.072 
L 154.20096 -171.072 
L 154.0224 -171.072 
L 153.84384 -171.072 
L 153.66528 -171.072 
L 153.48672 -171.072 
L 153.30816 -171.072 
L 153.1296 -171.072 
L 152.95104 -171.072 
L 152.77248 -171.072 
L 152.59392 -171.072 
L 152.41536 -171.072 
L 152.2368 -171.072 
L 152.05824 -171.072 
L 151.87968 -171.072 
L 151.70112 -171.072 
L 151.52256 -171.072 
L 151.344 -171.072 
L 151.16544 -171.072 
L 150.98688 -171.072 
L 150.80832 -171.072 
L 150.62976 -171.072 
L 150.4512 -171.072 
L 150.27264 -171.072 
L 150.09408 -171.072 
L 149.91552 -171.072 
L 149.73696 -171.072 
L 149.5584 -171.072 
L 149.37984 -171.072 
L 149.20128 -171.072 
L 149.02272 -171.072 
L 148.84416 -171.072 
L 148.6656 -171.072 
L 148.48704 -171.072 
L 148.30848 -171.072 
L 148.12992 -171.072 
L 147.95136 -171.072 
L 147.7728 -171.072 
L 147.59424 -171.072 
L 147.41568 -171.072 
L 147.23712 -171.072 
L 147.05856 -171.072 
L 146.88 -171.072 
L 146.70144 -171.072 
L 146.52288 -171.072 
L 146.34432 -171.072 
L 146.16576 -171.072 
L 145.9872 -171.072 
L 145.80864 -171.072 
L 145.63008 -171.072 
L 145.45152 -171.072 
L 145.27296 -171.072 
L 145.0944 -171.072 
L 144.91584 -171.072 
L 144.73728 -171.072 
L 144.55872 -171.072 
L 144.38016 -171.072 
L 144.2016 -171.072 
L 144.02304 -171.072 
L 143.84448 -171.072 
L 143.66592 -171.072 
L 143.48736 -171.072 
L 143.3088 -171.072 
L 143.13024 -171.072 
L 142.95168 -171.072 
L 142.77312 -171.072 
L 142.59456 -171.072 
L 142.416 -171.072 
L 142.23744 -171.072 
L 142.05888 -171.072 
L 141.88032 -171.072 
L 141.70176 -171.072 
L 141.5232 -171.072 
L 141.34464 -171.072 
L 141.16608 -171.072 
L 140.98752 -171.072 
L 140.80896 -171.072 
L 140.6304 -171.072 
L 140.45184 -171.072 
L 140.27328 -171.072 
L 140.09472 -171.072 
L 139.91616 -171.072 
L 139.7376 -171.072 
L 139.55904 -171.072 
L 139.38048 -171.072 
L 139.20192 -171.072 
L 139.02336 -171.072 
L 138.8448 -171.072 
L 138.66624 -171.072 
L 138.48768 -171.072 
L 138.30912 -171.072 
L 138.13056 -171.072 
L 137.952 -171.072 
L 137.77344 -171.072 
L 137.59488 -171.072 
L 137.41632 -171.072 
L 137.23776 -171.072 
L 137.0592 -171.072 
L 136.88064 -171.072 
L 136.70208 -171.072 
L 136.52352 -171.072 
L 136.34496 -171.072 
L 136.1664 -171.072 
L 135.98784 -171.072 
L 135.80928 -171.072 
L 135.63072 -171.072 
L 135.45216 -171.072 
L 135.2736 -171.072 
L 135.09504 -171.072 
L 134.91648 -171.072 
L 134.73792 -171.072 
L 134.55936 -171.072 
L 134.3808 -171.072 
L 134.20224 -171.072 
L 134.02368 -171.072 
L 133.84512 -171.072 
L 133.66656 -171.072 
L 133.488 -171.072 
L 133.30944 -171.072 
L 133.13088 -171.072 
L 132.95232 -171.072 
L 132.77376 -171.072 
L 132.5952 -171.072 
L 132.41664 -171.072 
L 132.23808 -171.072 
L 132.05952 -171.072 
L 131.88096 -171.072 
L 131.7024 -171.072 
L 131.52384 -171.072 
L 131.34528 -171.072 
L 131.16672 -171.072 
L 130.98816 -171.072 
L 130.8096 -171.072 
L 130.63104 -171.072 
L 130.45248 -171.072 
L 130.27392 -171.072 
L 130.09536 -171.072 
L 129.9168 -171.072 
L 129.73824 -171.072 
L 129.55968 -171.072 
L 129.38112 -171.072 
L 129.20256 -171.072 
L 129.024 -171.072 
L 128.84544 -171.072 
L 128.66688 -171.072 
L 128.48832 -171.072 
L 128.30976 -171.072 
L 128.1312 -171.072 
L 127.95264 -171.072 
L 127.77408 -171.072 
L 127.59552 -171.072 
L 127.41696 -171.072 
L 127.2384 -171.072 
L 127.05984 -171.072 
L 126.88128 -171.072 
L 126.70272 -171.072 
L 126.52416 -171.072 
L 126.3456 -171.072 
L 126.16704 -171.072 
L 125.98848 -171.072 
L 125.80992 -171.072 
L 125.63136 -171.072 
L 125.4528 -171.072 
L 125.27424 -171.072 
L 125.09568 -171.072 
L 124.91712 -171.072 
L 124.73856 -171.072 
L 124.56 -171.072 
L 124.38144 -171.072 
L 124.20288 -171.072 
L 124.02432 -171.072 
L 123.84576 -171.072 
L 123.6672 -171.072 
L 123.48864 -171.072 
L 123.31008 -171.072 
L 123.13152 -171.072 
L 122.95296 -171.072 
L 122.7744 -171.072 
L 122.59584 -171.072 
L 122.41728 -171.072 
L 122.23872 -171.072 
L 122.06016 -171.072 
L 121.8816 -171.072 
L 121.70304 -171.072 
L 121.52448 -171.072 
L 121.34592 -171.072 
L 121.16736 -171.072 
L 120.9888 -171.072 
L 120.81024 -171.072 
L 120.63168 -171.072 
L 120.45312 -171.072 
L 120.27456 -171.072 
L 120.096 -171.072 
L 119.91744 -171.072 
L 119.73888 -171.072 
L 119.56032 -171.072 
L 119.38176 -171.072 
L 119.2032 -171.072 
L 119.02464 -171.072 
L 118.84608 -171.072 
L 118.66752 -171.072 
L 118.48896 -171.072 
L 118.3104 -171.072 
L 118.13184 -171.072 
L 117.95328 -171.072 
L 117.77472 -171.072 
L 117.59616 -171.072 
L 117.4176 -171.072 
L 117.23904 -171.072 
L 117.06048 -171.072 
L 116.88192 -171.072 
L 116.70336 -171.072 
L 116.5248 -171.072 
L 116.34624 -171.072 
L 116.16768 -171.072 
L 115.98912 -171.072 
L 115.81056 -171.072 
L 115.632 -171.072 
L 115.45344 -171.072 
L 115.27488 -171.072 
L 115.09632 -171.072 
L 114.91776 -171.072 
L 114.7392 -171.072 
L 114.56064 -171.072 
L 114.38208 -171.072 
L 114.20352 -171.072 
L 114.02496 -171.072 
L 113.8464 -171.072 
L 113.66784 -171.072 
L 113.48928 -171.072 
L 113.31072 -171.072 
L 113.13216 -171.072 
L 112.9536 -171.072 
L 112.77504 -171.072 
L 112.59648 -171.072 
L 112.41792 -171.072 
L 112.23936 -171.072 
L 112.0608 -171.072 
L 111.88224 -171.072 
L 111.70368 -171.072 
L 111.52512 -171.072 
L 111.34656 -171.072 
L 111.168 -171.072 
L 110.98944 -171.072 
L 110.81088 -171.072 
L 110.63232 -171.072 
L 110.45376 -171.072 
L 110.2752 -171.072 
L 110.09664 -171.072 
L 109.91808 -171.072 
L 109.73952 -171.072 
L 109.56096 -171.072 
L 109.3824 -171.072 
L 109.20384 -171.072 
L 109.02528 -171.072 
L 108.84672 -171.072 
L 108.66816 -171.072 
L 108.4896 -171.072 
L 108.31104 -171.072 
L 108.13248 -171.072 
L 107.95392 -171.072 
L 107.77536 -171.072 
L 107.5968 -171.072 
L 107.41824 -171.072 
L 107.23968 -171.072 
L 107.06112 -171.072 
L 106.88256 -171.072 
L 106.704 -171.072 
L 106.52544 -171.072 
L 106.34688 -171.072 
L 106.16832 -171.072 
L 105.98976 -171.072 
L 105.8112 -171.072 
L 105.63264 -171.072 
L 105.45408 -171.072 
L 105.27552 -171.072 
L 105.09696 -171.072 
L 104.9184 -171.072 
L 104.73984 -171.072 
L 104.56128 -171.072 
L 104.38272 -171.072 
L 104.20416 -171.072 
L 104.0256 -171.072 
L 103.84704 -171.072 
L 103.66848 -171.072 
L 103.48992 -171.072 
L 103.31136 -171.072 
L 103.1328 -171.072 
L 102.95424 -171.072 
L 102.77568 -171.072 
L 102.59712 -171.072 
L 102.41856 -171.072 
L 102.24 -171.072 
L 102.06144 -171.072 
L 101.88288 -171.072 
L 101.70432 -171.072 
L 101.52576 -171.072 
L 101.3472 -171.072 
L 101.16864 -171.072 
L 100.99008 -171.072 
L 100.81152 -171.072 
L 100.63296 -171.072 
L 100.4544 -171.072 
L 100.27584 -171.072 
L 100.09728 -171.072 
L 99.91872 -171.072 
L 99.74016 -171.072 
L 99.5616 -171.072 
L 99.38304 -171.072 
L 99.20448 -171.072 
L 99.02592 -171.072 
L 98.84736 -171.072 
L 98.6688 -171.072 
L 98.49024 -171.072 
L 98.31168 -171.072 
L 98.13312 -171.072 
L 97.95456 -171.072 
L 97.776 -171.072 
L 97.59744 -171.072 
L 97.41888 -171.072 
L 97.24032 -171.072 
L 97.06176 -171.072 
L 96.8832 -171.072 
L 96.70464 -171.072 
L 96.52608 -171.072 
L 96.34752 -171.072 
L 96.16896 -171.072 
L 95.9904 -171.072 
L 95.81184 -171.072 
L 95.63328 -171.072 
L 95.45472 -171.072 
L 95.27616 -171.072 
L 95.0976 -171.072 
L 94.91904 -171.072 
L 94.74048 -171.072 
L 94.56192 -171.072 
L 94.38336 -171.072 
L 94.2048 -171.072 
L 94.02624 -171.072 
L 93.84768 -171.072 
L 93.66912 -171.072 
L 93.49056 -171.072 
L 93.312 -171.072 
L 93.13344 -171.072 
L 92.95488 -171.072 
L 92.77632 -171.072 
L 92.59776 -171.072 
L 92.4192 -171.072 
L 92.24064 -171.072 
L 92.06208 -171.072 
L 91.88352 -171.072 
L 91.70496 -171.072 
L 91.5264 -171.072 
L 91.34784 -171.072 
L 91.16928 -171.072 
L 90.99072 -171.072 
L 90.81216 -171.072 
L 90.6336 -171.072 
L 90.45504 -171.072 
L 90.27648 -171.072 
L 90.09792 -171.072 
L 89.91936 -171.072 
L 89.7408 -171.072 
L 89.56224 -171.072 
L 89.38368 -171.072 
L 89.20512 -171.072 
L 89.02656 -171.072 
L 88.848 -171.072 
L 88.66944 -171.072 
L 88.49088 -171.072 
L 88.31232 -171.072 
L 88.13376 -171.072 
L 87.9552 -171.072 
L 87.77664 -171.072 
L 87.59808 -171.072 
L 87.41952 -171.072 
L 87.24096 -171.072 
L 87.0624 -171.072 
L 86.88384 -171.072 
L 86.70528 -171.072 
L 86.52672 -171.072 
L 86.34816 -171.072 
L 86.1696 -171.072 
L 85.99104 -171.072 
L 85.81248 -171.072 
L 85.63392 -171.072 
L 85.45536 -171.072 
L 85.2768 -171.072 
L 85.09824 -171.072 
L 84.91968 -171.072 
L 84.74112 -171.072 
L 84.56256 -171.072 
L 84.384 -171.072 
L 84.20544 -171.072 
L 84.02688 -171.072 
L 83.84832 -171.072 
L 83.66976 -171.072 
L 83.4912 -171.072 
L 83.31264 -171.072 
L 83.13408 -171.072 
L 82.95552 -171.072 
L 82.77696 -171.072 
L 82.5984 -171.072 
L 82.41984 -171.072 
L 82.24128 -171.072 
L 82.06272 -171.072 
L 81.88416 -171.072 
L 81.7056 -171.072 
L 81.52704 -171.072 
L 81.34848 -171.072 
L 81.16992 -171.072 
L 80.99136 -171.072 
L 80.8128 -171.072 
L 80.63424 -171.072 
L 80.45568 -171.072 
L 80.27712 -171.072 
L 80.09856 -171.072 
L 79.92 -171.072 
L 79.74144 -171.072 
L 79.56288 -171.072 
L 79.38432 -171.072 
L 79.20576 -171.072 
L 79.0272 -171.072 
L 78.84864 -171.072 
L 78.67008 -171.072 
L 78.49152 -171.072 
L 78.31296 -171.072 
L 78.1344 -171.072 
L 77.95584 -171.072 
L 77.77728 -171.072 
L 77.59872 -171.072 
L 77.42016 -171.072 
L 77.2416 -171.072 
L 77.06304 -171.072 
L 76.88448 -171.072 
L 76.70592 -171.072 
L 76.52736 -171.072 
L 76.3488 -171.072 
L 76.17024 -171.072 
L 75.99168 -171.072 
L 75.81312 -171.072 
L 75.63456 -171.072 
L 75.456 -171.072 
L 75.27744 -171.072 
L 75.09888 -171.072 
L 74.92032 -171.072 
L 74.74176 -171.072 
L 74.5632 -171.072 
L 74.38464 -171.072 
L 74.20608 -171.072 
L 74.02752 -171.072 
L 73.84896 -171.072 
L 73.6704 -171.072 
L 73.49184 -171.072 
L 73.31328 -171.072 
L 73.13472 -171.072 
L 72.95616 -171.072 
L 72.7776 -171.072 
L 72.59904 -171.072 
L 72.42048 -171.072 
L 72.24192 -171.072 
L 72.06336 -171.072 
L 71.8848 -171.072 
L 71.70624 -171.072 
L 71.52768 -171.072 
L 71.34912 -171.072 
L 71.17056 -171.072 
L 70.992 -171.072 
L 70.81344 -171.072 
L 70.63488 -171.072 
L 70.45632 -171.072 
L 70.27776 -171.072 
L 70.0992 -171.072 
L 69.92064 -171.072 
L 69.74208 -171.072 
L 69.56352 -171.072 
L 69.38496 -171.072 
L 69.2064 -171.072 
L 69.02784 -171.072 
L 68.84928 -171.072 
L 68.67072 -171.072 
L 68.49216 -171.072 
L 68.3136 -171.072 
L 68.13504 -171.072 
L 67.95648 -171.072 
L 67.77792 -171.072 
L 67.59936 -171.072 
L 67.4208 -171.072 
L 67.24224 -171.072 
L 67.06368 -171.072 
L 66.88512 -171.072 
L 66.70656 -171.072 
L 66.528 -171.072 
L 66.34944 -171.072 
L 66.17088 -171.072 
L 65.99232 -171.072 
L 65.81376 -171.072 
L 65.6352 -171.072 
L 65.45664 -171.072 
L 65.27808 -171.072 
L 65.09952 -171.072 
L 64.92096 -171.072 
L 64.7424 -171.072 
L 64.56384 -171.072 
L 64.38528 -171.072 
L 64.20672 -171.072 
L 64.02816 -171.072 
L 63.8496 -171.072 
L 63.67104 -171.072 
L 63.49248 -171.072 
L 63.31392 -171.072 
L 63.13536 -171.072 
L 62.9568 -171.072 
L 62.77824 -171.072 
L 62.59968 -171.072 
L 62.42112 -171.072 
L 62.24256 -171.072 
L 62.064 -171.072 
L 61.88544 -171.072 
L 61.70688 -171.072 
L 61.52832 -171.072 
L 61.34976 -171.072 
L 61.1712 -171.072 
L 60.99264 -171.072 
L 60.81408 -171.072 
L 60.63552 -171.072 
L 60.45696 -171.072 
L 60.2784 -171.072 
L 60.09984 -171.072 
L 59.92128 -171.072 
L 59.74272 -171.072 
L 59.56416 -171.072 
L 59.3856 -171.072 
L 59.20704 -171.072 
L 59.02848 -171.072 
L 58.84992 -171.072 
L 58.67136 -171.072 
L 58.4928 -171.072 
L 58.31424 -171.072 
L 58.13568 -171.072 
L 57.95712 -171.072 
L 57.77856 -171.072 
L 57.6 -171.072 
z
" style="stroke: #00ff7f; stroke-opacity: 0.7"/>
    </defs>
    <g clip-path="url(#p081f1dedb7)">
     <use xlink:href="#m4dc18a8ba9" x="0" y="345.6" style="fill: #00ff7f; fill-opacity: 0.7; stroke: #00ff7f; stroke-opacity: 0.7"/>
    </g>
   </g>
   <g id="text_17">
    <!-- f(x) = 2 ÷ x -->
    <g style="fill: #d3d3d3" transform="translate(200.762812 35.472) scale(0.12 -0.12)">
     <defs>
      <path id="DejaVuSans-66" d="M 2375 4863 
L 2375 4384 
L 1825 4384 
Q 1516 4384 1395 4259 
Q 1275 4134 1275 3809 
L 1275 3500 
L 2222 3500 
L 2222 3053 
L 1275 3053 
L 1275 0 
L 697 0 
L 697 3053 
L 147 3053 
L 147 3500 
L 697 3500 
L 697 3744 
Q 697 4328 969 4595 
Q 1241 4863 1831 4863 
L 2375 4863 
z
" transform="scale(0.015625)"/>
      <path id="DejaVuSans-28" d="M 1984 4856 
Q 1566 4138 1362 3434 
Q 1159 2731 1159 2009 
Q 1159 1288 1364 580 
Q 1569 -128 1984 -844 
L 1484 -844 
Q 1016 -109 783 600 
Q 550 1309 550 2009 
Q 550 2706 781 3412 
Q 1013 4119 1484 4856 
L 1984 4856 
z
" transform="scale(0.015625)"/>
      <path id="DejaVuSans-78" d="M 3513 3500 
L 2247 1797 
L 3578 0 
L 2900 0 
L 1881 1375 
L 863 0 
L 184 0 
L 1544 1831 
L 300 3500 
L 978 3500 
L 1906 2253 
L 2834 3500 
L 3513 3500 
z
" transform="scale(0.015625)"/>
      <path id="DejaVuSans-29" d="M 513 4856 
L 1013 4856 
Q 1481 4119 1714 3412 
Q 1947 2706 1947 2009 
Q 1947 1309 1714 600 
Q 1481 -109 1013 -844 
L 513 -844 
Q 928 -128 1133 580 
Q 1338 1288 1338 2009 
Q 1338 2731 1133 3434 
Q 928 4138 513 4856 
z
" transform="scale(0.015625)"/>
      <path id="DejaVuSans-20" transform="scale(0.015625)"/>
      <path id="DejaVuSans-3d" d="M 678 2906 
L 4684 2906 
L 4684 2381 
L 678 2381 
L 678 2906 
z
M 678 1631 
L 4684 1631 
L 4684 1100 
L 678 1100 
L 678 1631 
z
" transform="scale(0.015625)"/>
      <path id="DejaVuSans-f7" d="M 2297 3547 
L 3066 3547 
L 3066 2778 
L 2297 2778 
L 2297 3547 
z
M 2297 1234 
L 3066 1234 
L 3066 469 
L 2297 469 
L 2297 1234 
z
M 678 2272 
L 4684 2272 
L 4684 1741 
L 678 1741 
L 678 2272 
z
" transform="scale(0.015625)"/>
     </defs>
     <use xlink:href="#DejaVuSans-66"/>
     <use xlink:href="#DejaVuSans-28" x="35.205078"/>
     <use xlink:href="#DejaVuSans-78" x="74.21875"/>
     <use xlink:href="#DejaVuSans-29" x="133.398438"/>
     <use xlink:href="#DejaVuSans-20" x="172.412109"/>
     <use xlink:href="#DejaVuSans-3d" x="204.199219"/>
     <use xlink:href="#DejaVuSans-20" x="287.988281"/>
     <use xlink:href="#DejaVuSans-32" x="319.775391"/>
     <use xlink:href="#DejaVuSans-20" x="383.398438"/>
     <use xlink:href="#DejaVuSans-f7" x="415.185547"/>
     <use xlink:href="#DejaVuSans-20" x="498.974609"/>
     <use xlink:href="#DejaVuSans-78" x="530.761719"/>
    </g>
   </g>
   <g id="text_18">
    <!-- $V$ -->
    <g style="fill: #ffffff" transform="translate(198.6624 195.81696) scale(0.1728 -0.1728)">
     <defs>
      <path id="DejaVuSans-Oblique-56" d="M 1319 0 
L 500 4666 
L 1119 4666 
L 1797 653 
L 4063 4666 
L 4750 4666 
L 2053 0 
L 1319 0 
z
" transform="scale(0.015625)"/>
     </defs>
     <use xlink:href="#DejaVuSans-Oblique-56" transform="translate(0 0.09375)"/>
    </g>
   </g>
   <g id="legend_1">
    <g id="patch_7">
     <path d="M 340.42 66.672 
L 407.72 66.672 
Q 409.72 66.672 409.72 64.672 
L 409.72 48.472 
Q 409.72 46.472 407.72 46.472 
L 340.42 46.472 
Q 338.42 46.472 338.42 48.472 
L 338.42 64.672 
Q 338.42 66.672 340.42 66.672 
z
" style="fill: #ffffff; opacity: 0.8; stroke: #cccccc; stroke-linejoin: miter"/>
    </g>
    <g id="line2d_16">
     <path d="M 342.42 56.572 
L 352.42 56.572 
L 362.42 56.572 
" style="fill: none; stroke: #00ced1; stroke-width: 1.5; stroke-linecap: square"/>
    </g>
    <g id="text_19">
     <!-- $f(x) = \frac{2}{x}$ -->
     <g transform="translate(370.42 60.072) scale(0.1 -0.1)">
      <defs>
       <path id="DejaVuSans-Oblique-66" d="M 3059 4863 
L 2969 4384 
L 2419 4384 
Q 2106 4384 1964 4261 
Q 1822 4138 1753 3809 
L 1691 3500 
L 2638 3500 
L 2553 3053 
L 1606 3053 
L 1013 0 
L 434 0 
L 1031 3053 
L 481 3053 
L 563 3500 
L 1113 3500 
L 1159 3744 
Q 1278 4363 1576 4613 
Q 1875 4863 2516 4863 
L 3059 4863 
z
" transform="scale(0.015625)"/>
       <path id="DejaVuSans-Oblique-78" d="M 3841 3500 
L 2234 1784 
L 3219 0 
L 2559 0 
L 1819 1388 
L 531 0 
L -166 0 
L 1556 1844 
L 641 3500 
L 1300 3500 
L 1972 2234 
L 3144 3500 
L 3841 3500 
z
" transform="scale(0.015625)"/>
      </defs>
      <use xlink:href="#DejaVuSans-Oblique-66" transform="translate(0 0.25)"/>
      <use xlink:href="#DejaVuSans-28" transform="translate(35.205078 0.25)"/>
      <use xlink:href="#DejaVuSans-Oblique-78" transform="translate(74.21875 0.25)"/>
      <use xlink:href="#DejaVuSans-29" transform="translate(133.398438 0.25)"/>
      <use xlink:href="#DejaVuSans-3d" transform="translate(191.894531 0.25)"/>
      <use xlink:href="#DejaVuSans-32" transform="translate(295.166016 44.046875) scale(0.7)"/>
      <use xlink:href="#DejaVuSans-Oblique-78" transform="translate(297.166016 -25.484375) scale(0.7)"/>
      <path d="M 295.166016 19.046875 
L 295.166016 25.296875 
L 339.702148 25.296875 
L 339.702148 19.046875 
L 295.166016 19.046875 
z
"/>
     </g>
    </g>
   </g>
  </g>
 </g>
 <defs>
  <clipPath id="p081f1dedb7">
   <rect x="57.6" y="41.472" width="357.12" height="266.112"/>
  </clipPath>
 </defs>
</svg>
