<?xml version="1.0" encoding="utf-8" standalone="no"?>
<!DOCTYPE svg PUBLIC "-//W3C//DTD SVG 1.1//EN"
  "http://www.w3.org/Graphics/SVG/1.1/DTD/svg11.dtd">
<svg xmlns:xlink="http://www.w3.org/1999/xlink" width="460.8pt" height="345.6pt" viewBox="0 0 460.8 345.6" xmlns="http://www.w3.org/2000/svg" version="1.1">
 <metadata>
  <rdf:RDF xmlns:dc="http://purl.org/dc/elements/1.1/" xmlns:cc="http://creativecommons.org/ns#" xmlns:rdf="http://www.w3.org/1999/02/22-rdf-syntax-ns#">
   <cc:Work>
    <dc:type rdf:resource="http://purl.org/dc/dcmitype/StillImage"/>
    <dc:date>2024-08-05T21:19:34.116859</dc:date>
    <dc:format>image/svg+xml</dc:format>
    <dc:creator>
     <cc:Agent>
      <dc:title>Matplotlib v3.8.3, https://matplotlib.org/</dc:title>
     </cc:Agent>
    </dc:creator>
   </cc:Work>
  </rdf:RDF>
 </metadata>
 <defs>
  <style type="text/css">*{stroke-linejoin: round; stroke-linecap: butt}</style>
 </defs>
 <g id="figure_1">
  <g id="patch_1">
   <path d="M 0 345.6 
L 460.8 345.6 
L 460.8 0 
L 0 0 
L 0 345.6 
z
" style="fill: none"/>
  </g>
  <g id="axes_1">
   <g id="patch_2">
    <path d="M 57.6 307.584 
L 414.72 307.584 
L 414.72 41.472 
L 57.6 41.472 
z
" style="fill: #ff0000"/>
   </g>
   <g id="LineCollection_1">
    <path d="M 57.6 254.3616 
L 414.72 254.3616 
" clip-path="url(#p1654994956)" style="fill: none; stroke: #d3d3d3; stroke-width: 1.5"/>
   </g>
   <g id="LineCollection_2">
    <path clip-path="url(#p1654994956)" style="fill: none; stroke: #d3d3d3; stroke-width: 1.5"/>
   </g>
   <g id="matplotlib.axis_1">
    <g id="xtick_1">
     <g id="line2d_1">
      <defs>
       <path id="mae33d7bb6d" d="M 0 0 
L 0 3.5 
" style="stroke: #d3d3d3; stroke-width: 0.8"/>
      </defs>
      <g>
       <use xlink:href="#mae33d7bb6d" x="57.6" y="307.584" style="fill: #d3d3d3; stroke: #d3d3d3; stroke-width: 0.8"/>
      </g>
     </g>
     <g id="text_1">
      <!-- 8 -->
      <g style="fill: #d3d3d3" transform="translate(54.41875 322.182437) scale(0.1 -0.1)">
       <defs>
        <path id="DejaVuSans-38" d="M 2034 2216 
Q 1584 2216 1326 1975 
Q 1069 1734 1069 1313 
Q 1069 891 1326 650 
Q 1584 409 2034 409 
Q 2484 409 2743 651 
Q 3003 894 3003 1313 
Q 3003 1734 2745 1975 
Q 2488 2216 2034 2216 
z
M 1403 2484 
Q 997 2584 770 2862 
Q 544 3141 544 3541 
Q 544 4100 942 4425 
Q 1341 4750 2034 4750 
Q 2731 4750 3128 4425 
Q 3525 4100 3525 3541 
Q 3525 3141 3298 2862 
Q 3072 2584 2669 2484 
Q 3125 2378 3379 2068 
Q 3634 1759 3634 1313 
Q 3634 634 3220 271 
Q 2806 -91 2034 -91 
Q 1263 -91 848 271 
Q 434 634 434 1313 
Q 434 1759 690 2068 
Q 947 2378 1403 2484 
z
M 1172 3481 
Q 1172 3119 1398 2916 
Q 1625 2713 2034 2713 
Q 2441 2713 2670 2916 
Q 2900 3119 2900 3481 
Q 2900 3844 2670 4047 
Q 2441 4250 2034 4250 
Q 1625 4250 1398 4047 
Q 1172 3844 1172 3481 
z
" transform="scale(0.015625)"/>
       </defs>
       <use xlink:href="#DejaVuSans-38"/>
      </g>
     </g>
    </g>
    <g id="xtick_2">
     <g id="line2d_2">
      <g>
       <use xlink:href="#mae33d7bb6d" x="117.12" y="307.584" style="fill: #d3d3d3; stroke: #d3d3d3; stroke-width: 0.8"/>
      </g>
     </g>
     <g id="text_2">
      <!-- 9 -->
      <g style="fill: #d3d3d3" transform="translate(113.93875 322.182437) scale(0.1 -0.1)">
       <defs>
        <path id="DejaVuSans-39" d="M 703 97 
L 703 672 
Q 941 559 1184 500 
Q 1428 441 1663 441 
Q 2288 441 2617 861 
Q 2947 1281 2994 2138 
Q 2813 1869 2534 1725 
Q 2256 1581 1919 1581 
Q 1219 1581 811 2004 
Q 403 2428 403 3163 
Q 403 3881 828 4315 
Q 1253 4750 1959 4750 
Q 2769 4750 3195 4129 
Q 3622 3509 3622 2328 
Q 3622 1225 3098 567 
Q 2575 -91 1691 -91 
Q 1453 -91 1209 -44 
Q 966 3 703 97 
z
M 1959 2075 
Q 2384 2075 2632 2365 
Q 2881 2656 2881 3163 
Q 2881 3666 2632 3958 
Q 2384 4250 1959 4250 
Q 1534 4250 1286 3958 
Q 1038 3666 1038 3163 
Q 1038 2656 1286 2365 
Q 1534 2075 1959 2075 
z
" transform="scale(0.015625)"/>
       </defs>
       <use xlink:href="#DejaVuSans-39"/>
      </g>
     </g>
    </g>
    <g id="xtick_3">
     <g id="line2d_3">
      <g>
       <use xlink:href="#mae33d7bb6d" x="176.64" y="307.584" style="fill: #d3d3d3; stroke: #d3d3d3; stroke-width: 0.8"/>
      </g>
     </g>
     <g id="text_3">
      <!-- 10 -->
      <g style="fill: #d3d3d3" transform="translate(170.2775 322.182437) scale(0.1 -0.1)">
       <defs>
        <path id="DejaVuSans-31" d="M 794 531 
L 1825 531 
L 1825 4091 
L 703 3866 
L 703 4441 
L 1819 4666 
L 2450 4666 
L 2450 531 
L 3481 531 
L 3481 0 
L 794 0 
L 794 531 
z
" transform="scale(0.015625)"/>
        <path id="DejaVuSans-30" d="M 2034 4250 
Q 1547 4250 1301 3770 
Q 1056 3291 1056 2328 
Q 1056 1369 1301 889 
Q 1547 409 2034 409 
Q 2525 409 2770 889 
Q 3016 1369 3016 2328 
Q 3016 3291 2770 3770 
Q 2525 4250 2034 4250 
z
M 2034 4750 
Q 2819 4750 3233 4129 
Q 3647 3509 3647 2328 
Q 3647 1150 3233 529 
Q 2819 -91 2034 -91 
Q 1250 -91 836 529 
Q 422 1150 422 2328 
Q 422 3509 836 4129 
Q 1250 4750 2034 4750 
z
" transform="scale(0.015625)"/>
       </defs>
       <use xlink:href="#DejaVuSans-31"/>
       <use xlink:href="#DejaVuSans-30" x="63.623047"/>
      </g>
     </g>
    </g>
    <g id="xtick_4">
     <g id="line2d_4">
      <g>
       <use xlink:href="#mae33d7bb6d" x="236.16" y="307.584" style="fill: #d3d3d3; stroke: #d3d3d3; stroke-width: 0.8"/>
      </g>
     </g>
     <g id="text_4">
      <!-- 11 -->
      <g style="fill: #d3d3d3" transform="translate(229.7975 322.182437) scale(0.1 -0.1)">
       <use xlink:href="#DejaVuSans-31"/>
       <use xlink:href="#DejaVuSans-31" x="63.623047"/>
      </g>
     </g>
    </g>
    <g id="xtick_5">
     <g id="line2d_5">
      <g>
       <use xlink:href="#mae33d7bb6d" x="295.68" y="307.584" style="fill: #d3d3d3; stroke: #d3d3d3; stroke-width: 0.8"/>
      </g>
     </g>
     <g id="text_5">
      <!-- 12 -->
      <g style="fill: #d3d3d3" transform="translate(289.3175 322.182437) scale(0.1 -0.1)">
       <defs>
        <path id="DejaVuSans-32" d="M 1228 531 
L 3431 531 
L 3431 0 
L 469 0 
L 469 531 
Q 828 903 1448 1529 
Q 2069 2156 2228 2338 
Q 2531 2678 2651 2914 
Q 2772 3150 2772 3378 
Q 2772 3750 2511 3984 
Q 2250 4219 1831 4219 
Q 1534 4219 1204 4116 
Q 875 4013 500 3803 
L 500 4441 
Q 881 4594 1212 4672 
Q 1544 4750 1819 4750 
Q 2544 4750 2975 4387 
Q 3406 4025 3406 3419 
Q 3406 3131 3298 2873 
Q 3191 2616 2906 2266 
Q 2828 2175 2409 1742 
Q 1991 1309 1228 531 
z
" transform="scale(0.015625)"/>
       </defs>
       <use xlink:href="#DejaVuSans-31"/>
       <use xlink:href="#DejaVuSans-32" x="63.623047"/>
      </g>
     </g>
    </g>
    <g id="xtick_6">
     <g id="line2d_6">
      <g>
       <use xlink:href="#mae33d7bb6d" x="355.2" y="307.584" style="fill: #d3d3d3; stroke: #d3d3d3; stroke-width: 0.8"/>
      </g>
     </g>
     <g id="text_6">
      <!-- 13 -->
      <g style="fill: #d3d3d3" transform="translate(348.8375 322.182437) scale(0.1 -0.1)">
       <defs>
        <path id="DejaVuSans-33" d="M 2597 2516 
Q 3050 2419 3304 2112 
Q 3559 1806 3559 1356 
Q 3559 666 3084 287 
Q 2609 -91 1734 -91 
Q 1441 -91 1130 -33 
Q 819 25 488 141 
L 488 750 
Q 750 597 1062 519 
Q 1375 441 1716 441 
Q 2309 441 2620 675 
Q 2931 909 2931 1356 
Q 2931 1769 2642 2001 
Q 2353 2234 1838 2234 
L 1294 2234 
L 1294 2753 
L 1863 2753 
Q 2328 2753 2575 2939 
Q 2822 3125 2822 3475 
Q 2822 3834 2567 4026 
Q 2313 4219 1838 4219 
Q 1578 4219 1281 4162 
Q 984 4106 628 3988 
L 628 4550 
Q 988 4650 1302 4700 
Q 1616 4750 1894 4750 
Q 2613 4750 3031 4423 
Q 3450 4097 3450 3541 
Q 3450 3153 3228 2886 
Q 3006 2619 2597 2516 
z
" transform="scale(0.015625)"/>
       </defs>
       <use xlink:href="#DejaVuSans-31"/>
       <use xlink:href="#DejaVuSans-33" x="63.623047"/>
      </g>
     </g>
    </g>
    <g id="xtick_7">
     <g id="line2d_7">
      <g>
       <use xlink:href="#mae33d7bb6d" x="414.72" y="307.584" style="fill: #d3d3d3; stroke: #d3d3d3; stroke-width: 0.8"/>
      </g>
     </g>
     <g id="text_7">
      <!-- 14 -->
      <g style="fill: #d3d3d3" transform="translate(408.3575 322.182437) scale(0.1 -0.1)">
       <defs>
        <path id="DejaVuSans-34" d="M 2419 4116 
L 825 1625 
L 2419 1625 
L 2419 4116 
z
M 2253 4666 
L 3047 4666 
L 3047 1625 
L 3713 1625 
L 3713 1100 
L 3047 1100 
L 3047 0 
L 2419 0 
L 2419 1100 
L 313 1100 
L 313 1709 
L 2253 4666 
z
" transform="scale(0.015625)"/>
       </defs>
       <use xlink:href="#DejaVuSans-31"/>
       <use xlink:href="#DejaVuSans-34" x="63.623047"/>
      </g>
     </g>
    </g>
    <g id="text_8">
     <!-- X-as -->
     <g style="fill: #d3d3d3" transform="translate(225.512344 335.860562) scale(0.1 -0.1)">
      <defs>
       <path id="DejaVuSans-58" d="M 403 4666 
L 1081 4666 
L 2241 2931 
L 3406 4666 
L 4084 4666 
L 2584 2425 
L 4184 0 
L 3506 0 
L 2194 1984 
L 872 0 
L 191 0 
L 1856 2491 
L 403 4666 
z
" transform="scale(0.015625)"/>
       <path id="DejaVuSans-2d" d="M 313 2009 
L 1997 2009 
L 1997 1497 
L 313 1497 
L 313 2009 
z
" transform="scale(0.015625)"/>
       <path id="DejaVuSans-61" d="M 2194 1759 
Q 1497 1759 1228 1600 
Q 959 1441 959 1056 
Q 959 750 1161 570 
Q 1363 391 1709 391 
Q 2188 391 2477 730 
Q 2766 1069 2766 1631 
L 2766 1759 
L 2194 1759 
z
M 3341 1997 
L 3341 0 
L 2766 0 
L 2766 531 
Q 2569 213 2275 61 
Q 1981 -91 1556 -91 
Q 1019 -91 701 211 
Q 384 513 384 1019 
Q 384 1609 779 1909 
Q 1175 2209 1959 2209 
L 2766 2209 
L 2766 2266 
Q 2766 2663 2505 2880 
Q 2244 3097 1772 3097 
Q 1472 3097 1187 3025 
Q 903 2953 641 2809 
L 641 3341 
Q 956 3463 1253 3523 
Q 1550 3584 1831 3584 
Q 2591 3584 2966 3190 
Q 3341 2797 3341 1997 
z
" transform="scale(0.015625)"/>
       <path id="DejaVuSans-73" d="M 2834 3397 
L 2834 2853 
Q 2591 2978 2328 3040 
Q 2066 3103 1784 3103 
Q 1356 3103 1142 2972 
Q 928 2841 928 2578 
Q 928 2378 1081 2264 
Q 1234 2150 1697 2047 
L 1894 2003 
Q 2506 1872 2764 1633 
Q 3022 1394 3022 966 
Q 3022 478 2636 193 
Q 2250 -91 1575 -91 
Q 1294 -91 989 -36 
Q 684 19 347 128 
L 347 722 
Q 666 556 975 473 
Q 1284 391 1588 391 
Q 1994 391 2212 530 
Q 2431 669 2431 922 
Q 2431 1156 2273 1281 
Q 2116 1406 1581 1522 
L 1381 1569 
Q 847 1681 609 1914 
Q 372 2147 372 2553 
Q 372 3047 722 3315 
Q 1072 3584 1716 3584 
Q 2034 3584 2315 3537 
Q 2597 3491 2834 3397 
z
" transform="scale(0.015625)"/>
      </defs>
      <use xlink:href="#DejaVuSans-58"/>
      <use xlink:href="#DejaVuSans-2d" x="63.505859"/>
      <use xlink:href="#DejaVuSans-61" x="99.589844"/>
      <use xlink:href="#DejaVuSans-73" x="160.869141"/>
     </g>
    </g>
   </g>
   <g id="matplotlib.axis_2">
    <g id="ytick_1">
     <g id="line2d_8">
      <defs>
       <path id="m5c6eec0ea3" d="M 0 0 
L -3.5 0 
" style="stroke: #d3d3d3; stroke-width: 0.8"/>
      </defs>
      <g>
       <use xlink:href="#m5c6eec0ea3" x="57.6" y="307.584" style="fill: #d3d3d3; stroke: #d3d3d3; stroke-width: 0.8"/>
      </g>
     </g>
     <g id="text_9">
      <!-- −2 -->
      <g style="fill: #d3d3d3" transform="translate(35.857813 311.383219) scale(0.1 -0.1)">
       <defs>
        <path id="DejaVuSans-2212" d="M 678 2272 
L 4684 2272 
L 4684 1741 
L 678 1741 
L 678 2272 
z
" transform="scale(0.015625)"/>
       </defs>
       <use xlink:href="#DejaVuSans-2212"/>
       <use xlink:href="#DejaVuSans-32" x="83.789062"/>
      </g>
     </g>
    </g>
    <g id="ytick_2">
     <g id="line2d_9">
      <g>
       <use xlink:href="#m5c6eec0ea3" x="57.6" y="254.3616" style="fill: #d3d3d3; stroke: #d3d3d3; stroke-width: 0.8"/>
      </g>
     </g>
     <g id="text_10">
      <!-- 0 -->
      <g style="fill: #d3d3d3" transform="translate(44.2375 258.160819) scale(0.1 -0.1)">
       <use xlink:href="#DejaVuSans-30"/>
      </g>
     </g>
    </g>
    <g id="ytick_3">
     <g id="line2d_10">
      <g>
       <use xlink:href="#m5c6eec0ea3" x="57.6" y="201.1392" style="fill: #d3d3d3; stroke: #d3d3d3; stroke-width: 0.8"/>
      </g>
     </g>
     <g id="text_11">
      <!-- 2 -->
      <g style="fill: #d3d3d3" transform="translate(44.2375 204.938419) scale(0.1 -0.1)">
       <use xlink:href="#DejaVuSans-32"/>
      </g>
     </g>
    </g>
    <g id="ytick_4">
     <g id="line2d_11">
      <g>
       <use xlink:href="#m5c6eec0ea3" x="57.6" y="147.9168" style="fill: #d3d3d3; stroke: #d3d3d3; stroke-width: 0.8"/>
      </g>
     </g>
     <g id="text_12">
      <!-- 4 -->
      <g style="fill: #d3d3d3" transform="translate(44.2375 151.716019) scale(0.1 -0.1)">
       <use xlink:href="#DejaVuSans-34"/>
      </g>
     </g>
    </g>
    <g id="ytick_5">
     <g id="line2d_12">
      <g>
       <use xlink:href="#m5c6eec0ea3" x="57.6" y="94.6944" style="fill: #d3d3d3; stroke: #d3d3d3; stroke-width: 0.8"/>
      </g>
     </g>
     <g id="text_13">
      <!-- 6 -->
      <g style="fill: #d3d3d3" transform="translate(44.2375 98.493619) scale(0.1 -0.1)">
       <defs>
        <path id="DejaVuSans-36" d="M 2113 2584 
Q 1688 2584 1439 2293 
Q 1191 2003 1191 1497 
Q 1191 994 1439 701 
Q 1688 409 2113 409 
Q 2538 409 2786 701 
Q 3034 994 3034 1497 
Q 3034 2003 2786 2293 
Q 2538 2584 2113 2584 
z
M 3366 4563 
L 3366 3988 
Q 3128 4100 2886 4159 
Q 2644 4219 2406 4219 
Q 1781 4219 1451 3797 
Q 1122 3375 1075 2522 
Q 1259 2794 1537 2939 
Q 1816 3084 2150 3084 
Q 2853 3084 3261 2657 
Q 3669 2231 3669 1497 
Q 3669 778 3244 343 
Q 2819 -91 2113 -91 
Q 1303 -91 875 529 
Q 447 1150 447 2328 
Q 447 3434 972 4092 
Q 1497 4750 2381 4750 
Q 2619 4750 2861 4703 
Q 3103 4656 3366 4563 
z
" transform="scale(0.015625)"/>
       </defs>
       <use xlink:href="#DejaVuSans-36"/>
      </g>
     </g>
    </g>
    <g id="ytick_6">
     <g id="line2d_13">
      <g>
       <use xlink:href="#m5c6eec0ea3" x="57.6" y="41.472" style="fill: #d3d3d3; stroke: #d3d3d3; stroke-width: 0.8"/>
      </g>
     </g>
     <g id="text_14">
      <!-- 8 -->
      <g style="fill: #d3d3d3" transform="translate(44.2375 45.271219) scale(0.1 -0.1)">
       <use xlink:href="#DejaVuSans-38"/>
      </g>
     </g>
    </g>
    <g id="text_15">
     <!-- Y-as -->
     <g style="fill: #d3d3d3" transform="translate(29.778125 184.460813) rotate(-90) scale(0.1 -0.1)">
      <defs>
       <path id="DejaVuSans-59" d="M -13 4666 
L 666 4666 
L 1959 2747 
L 3244 4666 
L 3922 4666 
L 2272 2222 
L 2272 0 
L 1638 0 
L 1638 2222 
L -13 4666 
z
" transform="scale(0.015625)"/>
      </defs>
      <use xlink:href="#DejaVuSans-59"/>
      <use xlink:href="#DejaVuSans-2d" x="49.208984"/>
      <use xlink:href="#DejaVuSans-61" x="85.292969"/>
      <use xlink:href="#DejaVuSans-73" x="146.572266"/>
     </g>
    </g>
   </g>
   <g id="line2d_14">
    <path d="M 57.6 191.922241 
L 71.2896 189.496416 
L 86.1696 186.636493 
L 103.4304 183.085411 
L 124.8576 178.436012 
L 187.9488 164.592869 
L 205.2096 161.130041 
L 220.0896 158.368005 
L 233.7792 156.048699 
L 246.8736 154.058278 
L 259.3728 152.388841 
L 271.2768 151.025375 
L 282.5856 149.947411 
L 293.8944 149.09112 
L 305.2032 148.464225 
L 315.9168 148.087075 
L 326.6304 147.923952 
L 337.344 147.976177 
L 348.0576 148.243326 
L 358.7712 148.723237 
L 370.08 149.456313 
L 381.3888 150.41549 
L 392.6976 151.592119 
L 404.6016 153.053904 
L 414.1248 154.378591 
L 414.1248 154.378591 
" clip-path="url(#p1654994956)" style="fill: none; stroke: #00ced1; stroke-width: 1.5; stroke-linecap: square"/>
   </g>
   <g id="patch_3">
    <path d="M 57.6 307.584 
L 57.6 41.472 
" style="fill: none; stroke: #d3d3d3; stroke-width: 0.8; stroke-linejoin: miter; stroke-linecap: square"/>
   </g>
   <g id="patch_4">
    <path d="M 414.72 307.584 
L 414.72 41.472 
" style="fill: none; stroke: #d3d3d3; stroke-width: 0.8; stroke-linejoin: miter; stroke-linecap: square"/>
   </g>
   <g id="patch_5">
    <path d="M 57.6 307.584 
L 414.72 307.584 
" style="fill: none; stroke: #d3d3d3; stroke-width: 0.8; stroke-linejoin: miter; stroke-linecap: square"/>
   </g>
   <g id="patch_6">
    <path d="M 57.6 41.472 
L 414.72 41.472 
" style="fill: none; stroke: #d3d3d3; stroke-width: 0.8; stroke-linejoin: miter; stroke-linecap: square"/>
   </g>
   <g id="PolyCollection_1">
    <defs>
     <path id="m3c4f63826b" d="M 117.7152 -91.2384 
L 117.7152 -165.592607 
L 118.3104 -165.722879 
L 118.9056 -165.853286 
L 119.5008 -165.983823 
L 120.096 -166.114487 
L 120.6912 -166.245275 
L 121.2864 -166.376184 
L 121.8816 -166.50721 
L 122.4768 -166.638351 
L 123.072 -166.769602 
L 123.6672 -166.900961 
L 124.2624 -167.032424 
L 124.8576 -167.163988 
L 125.4528 -167.295649 
L 126.048 -167.427405 
L 126.6432 -167.559253 
L 127.2384 -167.691188 
L 127.8336 -167.823207 
L 128.4288 -167.955308 
L 129.024 -168.087487 
L 129.6192 -168.21974 
L 130.2144 -168.352065 
L 130.8096 -168.484457 
L 131.4048 -168.616915 
L 132 -168.749433 
L 132.5952 -168.88201 
L 133.1904 -169.014641 
L 133.7856 -169.147324 
L 134.3808 -169.280055 
L 134.976 -169.412831 
L 135.5712 -169.545649 
L 136.1664 -169.678504 
L 136.7616 -169.811394 
L 137.3568 -169.944316 
L 137.952 -170.077266 
L 138.5472 -170.210241 
L 139.1424 -170.343237 
L 139.7376 -170.476252 
L 140.3328 -170.609282 
L 140.928 -170.742323 
L 141.5232 -170.875372 
L 142.1184 -171.008426 
L 142.7136 -171.141482 
L 143.3088 -171.274536 
L 143.904 -171.407585 
L 144.4992 -171.540626 
L 145.0944 -171.673655 
L 145.6896 -171.806669 
L 146.2848 -171.939665 
L 146.88 -172.072638 
L 147.4752 -172.205587 
L 148.0704 -172.338508 
L 148.6656 -172.471397 
L 149.2608 -172.60425 
L 149.856 -172.737066 
L 150.4512 -172.86984 
L 151.0464 -173.002569 
L 151.6416 -173.13525 
L 152.2368 -173.267879 
L 152.832 -173.400453 
L 153.4272 -173.532969 
L 154.0224 -173.665423 
L 154.6176 -173.797813 
L 155.2128 -173.930135 
L 155.808 -174.062385 
L 156.4032 -174.19456 
L 156.9984 -174.326657 
L 157.5936 -174.458673 
L 158.1888 -174.590604 
L 158.784 -174.722448 
L 159.3792 -174.8542 
L 159.9744 -174.985857 
L 160.5696 -175.117417 
L 161.1648 -175.248875 
L 161.76 -175.380229 
L 162.3552 -175.511475 
L 162.9504 -175.642611 
L 163.5456 -175.773632 
L 164.1408 -175.904535 
L 164.736 -176.035318 
L 165.3312 -176.165977 
L 165.9264 -176.296508 
L 166.5216 -176.426909 
L 167.1168 -176.557175 
L 167.712 -176.687305 
L 168.3072 -176.817294 
L 168.9024 -176.94714 
L 169.4976 -177.076839 
L 170.0928 -177.206387 
L 170.688 -177.335783 
L 171.2832 -177.465021 
L 171.8784 -177.5941 
L 172.4736 -177.723016 
L 173.0688 -177.851766 
L 173.664 -177.980346 
L 174.2592 -178.108753 
L 174.8544 -178.236984 
L 175.4496 -178.365037 
L 176.0448 -178.492907 
L 176.64 -178.620591 
L 177.2352 -178.748087 
L 177.8304 -178.875391 
L 178.4256 -179.002499 
L 179.0208 -179.12941 
L 179.616 -179.256119 
L 180.2112 -179.382623 
L 180.8064 -179.50892 
L 181.4016 -179.635006 
L 181.9968 -179.760878 
L 182.592 -179.886532 
L 183.1872 -180.011966 
L 183.7824 -180.137177 
L 184.3776 -180.262161 
L 184.9728 -180.386915 
L 185.568 -180.511436 
L 186.1632 -180.635722 
L 186.7584 -180.759768 
L 187.3536 -180.883572 
L 187.9488 -181.007131 
L 188.544 -181.130441 
L 189.1392 -181.2535 
L 189.7344 -181.376305 
L 190.3296 -181.498851 
L 190.9248 -181.621138 
L 191.52 -181.74316 
L 192.1152 -181.864916 
L 192.7104 -181.986401 
L 193.3056 -182.107614 
L 193.9008 -182.228552 
L 194.496 -182.34921 
L 195.0912 -182.469586 
L 195.6864 -182.589677 
L 196.2816 -182.70948 
L 196.8768 -182.828993 
L 197.472 -182.948211 
L 198.0672 -183.067133 
L 198.6624 -183.185755 
L 199.2576 -183.304073 
L 199.8528 -183.422087 
L 200.448 -183.539791 
L 201.0432 -183.657183 
L 201.6384 -183.774261 
L 202.2336 -183.891022 
L 202.8288 -184.007462 
L 203.424 -184.123578 
L 204.0192 -184.239369 
L 204.6144 -184.35483 
L 205.2096 -184.469959 
L 205.8048 -184.584753 
L 206.4 -184.699209 
L 206.9952 -184.813325 
L 207.5904 -184.927097 
L 208.1856 -185.040522 
L 208.7808 -185.153599 
L 209.376 -185.266323 
L 209.9712 -185.378693 
L 210.5664 -185.490705 
L 211.1616 -185.602356 
L 211.7568 -185.713644 
L 212.352 -185.824566 
L 212.9472 -185.93512 
L 213.5424 -186.045301 
L 214.1376 -186.155109 
L 214.7328 -186.264539 
L 215.328 -186.37359 
L 215.9232 -186.482258 
L 216.5184 -186.59054 
L 217.1136 -186.698435 
L 217.7088 -186.805939 
L 218.304 -186.91305 
L 218.8992 -187.019765 
L 219.4944 -187.126081 
L 220.0896 -187.231995 
L 220.6848 -187.337506 
L 221.28 -187.44261 
L 221.8752 -187.547305 
L 222.4704 -187.651588 
L 223.0656 -187.755456 
L 223.6608 -187.858907 
L 224.256 -187.961939 
L 224.8512 -188.064548 
L 225.4464 -188.166733 
L 226.0416 -188.26849 
L 226.6368 -188.369818 
L 227.232 -188.470712 
L 227.8272 -188.571172 
L 228.4224 -188.671195 
L 229.0176 -188.770777 
L 229.6128 -188.869917 
L 230.208 -188.968612 
L 230.8032 -189.06686 
L 231.3984 -189.164658 
L 231.9936 -189.262003 
L 232.5888 -189.358894 
L 233.184 -189.455327 
L 233.7792 -189.551301 
L 234.3744 -189.646813 
L 234.9696 -189.741861 
L 235.5648 -189.836441 
L 236.16 -189.930553 
L 236.7552 -190.024193 
L 237.3504 -190.11736 
L 237.9456 -190.21005 
L 238.5408 -190.302262 
L 239.136 -190.393993 
L 239.7312 -190.485241 
L 240.3264 -190.576004 
L 240.9216 -190.666279 
L 241.5168 -190.756064 
L 242.112 -190.845357 
L 242.7072 -190.934156 
L 243.3024 -191.022459 
L 243.8976 -191.110262 
L 244.4928 -191.197565 
L 245.088 -191.284364 
L 245.6832 -191.370658 
L 246.2784 -191.456445 
L 246.8736 -191.541722 
L 247.4688 -191.626487 
L 248.064 -191.710739 
L 248.6592 -191.794474 
L 249.2544 -191.877692 
L 249.8496 -191.960389 
L 250.4448 -192.042564 
L 251.04 -192.124215 
L 251.6352 -192.205339 
L 252.2304 -192.285935 
L 252.8256 -192.366001 
L 253.4208 -192.445535 
L 254.016 -192.524534 
L 254.6112 -192.602997 
L 255.2064 -192.680921 
L 255.8016 -192.758306 
L 256.3968 -192.835148 
L 256.992 -192.911446 
L 257.5872 -192.987198 
L 258.1824 -193.062402 
L 258.7776 -193.137057 
L 259.3728 -193.211159 
L 259.968 -193.284709 
L 260.5632 -193.357703 
L 261.1584 -193.43014 
L 261.7536 -193.502018 
L 262.3488 -193.573335 
L 262.944 -193.64409 
L 263.5392 -193.71428 
L 264.1344 -193.783904 
L 264.7296 -193.852961 
L 265.3248 -193.921448 
L 265.92 -193.989364 
L 266.5152 -194.056706 
L 267.1104 -194.123475 
L 267.7056 -194.189667 
L 268.3008 -194.255281 
L 268.896 -194.320315 
L 269.4912 -194.384768 
L 270.0864 -194.448639 
L 270.6816 -194.511925 
L 271.2768 -194.574625 
L 271.872 -194.636737 
L 272.4672 -194.69826 
L 273.0624 -194.759193 
L 273.6576 -194.819533 
L 274.2528 -194.87928 
L 274.848 -194.938432 
L 275.4432 -194.996987 
L 276.0384 -195.054943 
L 276.6336 -195.112301 
L 277.2288 -195.169057 
L 277.824 -195.225211 
L 278.4192 -195.280761 
L 279.0144 -195.335705 
L 279.6096 -195.390044 
L 280.2048 -195.443774 
L 280.8 -195.496895 
L 281.3952 -195.549405 
L 281.9904 -195.601303 
L 282.5856 -195.652589 
L 283.1808 -195.703259 
L 283.776 -195.753314 
L 284.3712 -195.802752 
L 284.9664 -195.851571 
L 285.5616 -195.899771 
L 286.1568 -195.947351 
L 286.752 -195.994308 
L 287.3472 -196.040643 
L 287.9424 -196.086353 
L 288.5376 -196.131438 
L 289.1328 -196.175896 
L 289.728 -196.219727 
L 290.3232 -196.262929 
L 290.9184 -196.305501 
L 291.5136 -196.347443 
L 292.1088 -196.388752 
L 292.704 -196.429429 
L 293.2992 -196.469472 
L 293.8944 -196.50888 
L 294.4896 -196.547651 
L 295.0848 -196.585786 
L 295.68 -196.623284 
L 296.2752 -196.660142 
L 296.8704 -196.696361 
L 297.4656 -196.731939 
L 298.0608 -196.766875 
L 298.656 -196.801169 
L 299.2512 -196.83482 
L 299.8464 -196.867827 
L 300.4416 -196.900189 
L 301.0368 -196.931905 
L 301.632 -196.962975 
L 302.2272 -196.993398 
L 302.8224 -197.023172 
L 303.4176 -197.052298 
L 304.0128 -197.080774 
L 304.608 -197.1086 
L 305.2032 -197.135775 
L 305.7984 -197.162299 
L 306.3936 -197.18817 
L 306.9888 -197.213388 
L 307.584 -197.237953 
L 308.1792 -197.261864 
L 308.7744 -197.28512 
L 309.3696 -197.30772 
L 309.9648 -197.329665 
L 310.56 -197.350953 
L 311.1552 -197.371584 
L 311.7504 -197.391558 
L 312.3456 -197.410874 
L 312.9408 -197.429531 
L 313.536 -197.44753 
L 314.1312 -197.464869 
L 314.7264 -197.481548 
L 315.3216 -197.497567 
L 315.9168 -197.512925 
L 316.512 -197.527622 
L 317.1072 -197.541658 
L 317.7024 -197.555032 
L 318.2976 -197.567744 
L 318.8928 -197.579794 
L 319.488 -197.591181 
L 320.0832 -197.601905 
L 320.6784 -197.611966 
L 321.2736 -197.621363 
L 321.8688 -197.630097 
L 322.464 -197.638166 
L 323.0592 -197.645572 
L 323.6544 -197.652313 
L 324.2496 -197.658389 
L 324.8448 -197.663801 
L 325.44 -197.668548 
L 326.0352 -197.672631 
L 326.6304 -197.676048 
L 327.2256 -197.6788 
L 327.8208 -197.680887 
L 328.416 -197.682309 
L 329.0112 -197.683065 
L 329.6064 -197.683156 
L 330.2016 -197.682582 
L 330.7968 -197.681343 
L 331.392 -197.679438 
L 331.9872 -197.676868 
L 332.5824 -197.673633 
L 333.1776 -197.669734 
L 333.7728 -197.665169 
L 334.368 -197.659939 
L 334.9632 -197.654045 
L 335.5584 -197.647486 
L 336.1536 -197.640262 
L 336.7488 -197.632375 
L 337.344 -197.623823 
L 337.9392 -197.614608 
L 338.5344 -197.604729 
L 339.1296 -197.594187 
L 339.7248 -197.582981 
L 340.32 -197.571113 
L 340.9152 -197.558583 
L 341.5104 -197.54539 
L 342.1056 -197.531536 
L 342.7008 -197.51702 
L 343.296 -197.501843 
L 343.8912 -197.486005 
L 344.4864 -197.469506 
L 345.0816 -197.452348 
L 345.6768 -197.434531 
L 346.272 -197.416054 
L 346.8672 -197.396919 
L 347.4624 -197.377125 
L 348.0576 -197.356674 
L 348.6528 -197.335566 
L 349.248 -197.313801 
L 349.8432 -197.29138 
L 350.4384 -197.268304 
L 351.0336 -197.244573 
L 351.6288 -197.220187 
L 352.224 -197.195148 
L 352.8192 -197.169456 
L 353.4144 -197.143111 
L 354.0096 -197.116114 
L 354.6048 -197.088467 
L 355.2 -197.060169 
L 355.2 -91.2384 
L 355.2 -91.2384 
L 354.6048 -91.2384 
L 354.0096 -91.2384 
L 353.4144 -91.2384 
L 352.8192 -91.2384 
L 352.224 -91.2384 
L 351.6288 -91.2384 
L 351.0336 -91.2384 
L 350.4384 -91.2384 
L 349.8432 -91.2384 
L 349.248 -91.2384 
L 348.6528 -91.2384 
L 348.0576 -91.2384 
L 347.4624 -91.2384 
L 346.8672 -91.2384 
L 346.272 -91.2384 
L 345.6768 -91.2384 
L 345.0816 -91.2384 
L 344.4864 -91.2384 
L 343.8912 -91.2384 
L 343.296 -91.2384 
L 342.7008 -91.2384 
L 342.1056 -91.2384 
L 341.5104 -91.2384 
L 340.9152 -91.2384 
L 340.32 -91.2384 
L 339.7248 -91.2384 
L 339.1296 -91.2384 
L 338.5344 -91.2384 
L 337.9392 -91.2384 
L 337.344 -91.2384 
L 336.7488 -91.2384 
L 336.1536 -91.2384 
L 335.5584 -91.2384 
L 334.9632 -91.2384 
L 334.368 -91.2384 
L 333.7728 -91.2384 
L 333.1776 -91.2384 
L 332.5824 -91.2384 
L 331.9872 -91.2384 
L 331.392 -91.2384 
L 330.7968 -91.2384 
L 330.2016 -91.2384 
L 329.6064 -91.2384 
L 329.0112 -91.2384 
L 328.416 -91.2384 
L 327.8208 -91.2384 
L 327.2256 -91.2384 
L 326.6304 -91.2384 
L 326.0352 -91.2384 
L 325.44 -91.2384 
L 324.8448 -91.2384 
L 324.2496 -91.2384 
L 323.6544 -91.2384 
L 323.0592 -91.2384 
L 322.464 -91.2384 
L 321.8688 -91.2384 
L 321.2736 -91.2384 
L 320.6784 -91.2384 
L 320.0832 -91.2384 
L 319.488 -91.2384 
L 318.8928 -91.2384 
L 318.2976 -91.2384 
L 317.7024 -91.2384 
L 317.1072 -91.2384 
L 316.512 -91.2384 
L 315.9168 -91.2384 
L 315.3216 -91.2384 
L 314.7264 -91.2384 
L 314.1312 -91.2384 
L 313.536 -91.2384 
L 312.9408 -91.2384 
L 312.3456 -91.2384 
L 311.7504 -91.2384 
L 311.1552 -91.2384 
L 310.56 -91.2384 
L 309.9648 -91.2384 
L 309.3696 -91.2384 
L 308.7744 -91.2384 
L 308.1792 -91.2384 
L 307.584 -91.2384 
L 306.9888 -91.2384 
L 306.3936 -91.2384 
L 305.7984 -91.2384 
L 305.2032 -91.2384 
L 304.608 -91.2384 
L 304.0128 -91.2384 
L 303.4176 -91.2384 
L 302.8224 -91.2384 
L 302.2272 -91.2384 
L 301.632 -91.2384 
L 301.0368 -91.2384 
L 300.4416 -91.2384 
L 299.8464 -91.2384 
L 299.2512 -91.2384 
L 298.656 -91.2384 
L 298.0608 -91.2384 
L 297.4656 -91.2384 
L 296.8704 -91.2384 
L 296.2752 -91.2384 
L 295.68 -91.2384 
L 295.0848 -91.2384 
L 294.4896 -91.2384 
L 293.8944 -91.2384 
L 293.2992 -91.2384 
L 292.704 -91.2384 
L 292.1088 -91.2384 
L 291.5136 -91.2384 
L 290.9184 -91.2384 
L 290.3232 -91.2384 
L 289.728 -91.2384 
L 289.1328 -91.2384 
L 288.5376 -91.2384 
L 287.9424 -91.2384 
L 287.3472 -91.2384 
L 286.752 -91.2384 
L 286.1568 -91.2384 
L 285.5616 -91.2384 
L 284.9664 -91.2384 
L 284.3712 -91.2384 
L 283.776 -91.2384 
L 283.1808 -91.2384 
L 282.5856 -91.2384 
L 281.9904 -91.2384 
L 281.3952 -91.2384 
L 280.8 -91.2384 
L 280.2048 -91.2384 
L 279.6096 -91.2384 
L 279.0144 -91.2384 
L 278.4192 -91.2384 
L 277.824 -91.2384 
L 277.2288 -91.2384 
L 276.6336 -91.2384 
L 276.0384 -91.2384 
L 275.4432 -91.2384 
L 274.848 -91.2384 
L 274.2528 -91.2384 
L 273.6576 -91.2384 
L 273.0624 -91.2384 
L 272.4672 -91.2384 
L 271.872 -91.2384 
L 271.2768 -91.2384 
L 270.6816 -91.2384 
L 270.0864 -91.2384 
L 269.4912 -91.2384 
L 268.896 -91.2384 
L 268.3008 -91.2384 
L 267.7056 -91.2384 
L 267.1104 -91.2384 
L 266.5152 -91.2384 
L 265.92 -91.2384 
L 265.3248 -91.2384 
L 264.7296 -91.2384 
L 264.1344 -91.2384 
L 263.5392 -91.2384 
L 262.944 -91.2384 
L 262.3488 -91.2384 
L 261.7536 -91.2384 
L 261.1584 -91.2384 
L 260.5632 -91.2384 
L 259.968 -91.2384 
L 259.3728 -91.2384 
L 258.7776 -91.2384 
L 258.1824 -91.2384 
L 257.5872 -91.2384 
L 256.992 -91.2384 
L 256.3968 -91.2384 
L 255.8016 -91.2384 
L 255.2064 -91.2384 
L 254.6112 -91.2384 
L 254.016 -91.2384 
L 253.4208 -91.2384 
L 252.8256 -91.2384 
L 252.2304 -91.2384 
L 251.6352 -91.2384 
L 251.04 -91.2384 
L 250.4448 -91.2384 
L 249.8496 -91.2384 
L 249.2544 -91.2384 
L 248.6592 -91.2384 
L 248.064 -91.2384 
L 247.4688 -91.2384 
L 246.8736 -91.2384 
L 246.2784 -91.2384 
L 245.6832 -91.2384 
L 245.088 -91.2384 
L 244.4928 -91.2384 
L 243.8976 -91.2384 
L 243.3024 -91.2384 
L 242.7072 -91.2384 
L 242.112 -91.2384 
L 241.5168 -91.2384 
L 240.9216 -91.2384 
L 240.3264 -91.2384 
L 239.7312 -91.2384 
L 239.136 -91.2384 
L 238.5408 -91.2384 
L 237.9456 -91.2384 
L 237.3504 -91.2384 
L 236.7552 -91.2384 
L 236.16 -91.2384 
L 235.5648 -91.2384 
L 234.9696 -91.2384 
L 234.3744 -91.2384 
L 233.7792 -91.2384 
L 233.184 -91.2384 
L 232.5888 -91.2384 
L 231.9936 -91.2384 
L 231.3984 -91.2384 
L 230.8032 -91.2384 
L 230.208 -91.2384 
L 229.6128 -91.2384 
L 229.0176 -91.2384 
L 228.4224 -91.2384 
L 227.8272 -91.2384 
L 227.232 -91.2384 
L 226.6368 -91.2384 
L 226.0416 -91.2384 
L 225.4464 -91.2384 
L 224.8512 -91.2384 
L 224.256 -91.2384 
L 223.6608 -91.2384 
L 223.0656 -91.2384 
L 222.4704 -91.2384 
L 221.8752 -91.2384 
L 221.28 -91.2384 
L 220.6848 -91.2384 
L 220.0896 -91.2384 
L 219.4944 -91.2384 
L 218.8992 -91.2384 
L 218.304 -91.2384 
L 217.7088 -91.2384 
L 217.1136 -91.2384 
L 216.5184 -91.2384 
L 215.9232 -91.2384 
L 215.328 -91.2384 
L 214.7328 -91.2384 
L 214.1376 -91.2384 
L 213.5424 -91.2384 
L 212.9472 -91.2384 
L 212.352 -91.2384 
L 211.7568 -91.2384 
L 211.1616 -91.2384 
L 210.5664 -91.2384 
L 209.9712 -91.2384 
L 209.376 -91.2384 
L 208.7808 -91.2384 
L 208.1856 -91.2384 
L 207.5904 -91.2384 
L 206.9952 -91.2384 
L 206.4 -91.2384 
L 205.8048 -91.2384 
L 205.2096 -91.2384 
L 204.6144 -91.2384 
L 204.0192 -91.2384 
L 203.424 -91.2384 
L 202.8288 -91.2384 
L 202.2336 -91.2384 
L 201.6384 -91.2384 
L 201.0432 -91.2384 
L 200.448 -91.2384 
L 199.8528 -91.2384 
L 199.2576 -91.2384 
L 198.6624 -91.2384 
L 198.0672 -91.2384 
L 197.472 -91.2384 
L 196.8768 -91.2384 
L 196.2816 -91.2384 
L 195.6864 -91.2384 
L 195.0912 -91.2384 
L 194.496 -91.2384 
L 193.9008 -91.2384 
L 193.3056 -91.2384 
L 192.7104 -91.2384 
L 192.1152 -91.2384 
L 191.52 -91.2384 
L 190.9248 -91.2384 
L 190.3296 -91.2384 
L 189.7344 -91.2384 
L 189.1392 -91.2384 
L 188.544 -91.2384 
L 187.9488 -91.2384 
L 187.3536 -91.2384 
L 186.7584 -91.2384 
L 186.1632 -91.2384 
L 185.568 -91.2384 
L 184.9728 -91.2384 
L 184.3776 -91.2384 
L 183.7824 -91.2384 
L 183.1872 -91.2384 
L 182.592 -91.2384 
L 181.9968 -91.2384 
L 181.4016 -91.2384 
L 180.8064 -91.2384 
L 180.2112 -91.2384 
L 179.616 -91.2384 
L 179.0208 -91.2384 
L 178.4256 -91.2384 
L 177.8304 -91.2384 
L 177.2352 -91.2384 
L 176.64 -91.2384 
L 176.0448 -91.2384 
L 175.4496 -91.2384 
L 174.8544 -91.2384 
L 174.2592 -91.2384 
L 173.664 -91.2384 
L 173.0688 -91.2384 
L 172.4736 -91.2384 
L 171.8784 -91.2384 
L 171.2832 -91.2384 
L 170.688 -91.2384 
L 170.0928 -91.2384 
L 169.4976 -91.2384 
L 168.9024 -91.2384 
L 168.3072 -91.2384 
L 167.712 -91.2384 
L 167.1168 -91.2384 
L 166.5216 -91.2384 
L 165.9264 -91.2384 
L 165.3312 -91.2384 
L 164.736 -91.2384 
L 164.1408 -91.2384 
L 163.5456 -91.2384 
L 162.9504 -91.2384 
L 162.3552 -91.2384 
L 161.76 -91.2384 
L 161.1648 -91.2384 
L 160.5696 -91.2384 
L 159.9744 -91.2384 
L 159.3792 -91.2384 
L 158.784 -91.2384 
L 158.1888 -91.2384 
L 157.5936 -91.2384 
L 156.9984 -91.2384 
L 156.4032 -91.2384 
L 155.808 -91.2384 
L 155.2128 -91.2384 
L 154.6176 -91.2384 
L 154.0224 -91.2384 
L 153.4272 -91.2384 
L 152.832 -91.2384 
L 152.2368 -91.2384 
L 151.6416 -91.2384 
L 151.0464 -91.2384 
L 150.4512 -91.2384 
L 149.856 -91.2384 
L 149.2608 -91.2384 
L 148.6656 -91.2384 
L 148.0704 -91.2384 
L 147.4752 -91.2384 
L 146.88 -91.2384 
L 146.2848 -91.2384 
L 145.6896 -91.2384 
L 145.0944 -91.2384 
L 144.4992 -91.2384 
L 143.904 -91.2384 
L 143.3088 -91.2384 
L 142.7136 -91.2384 
L 142.1184 -91.2384 
L 141.5232 -91.2384 
L 140.928 -91.2384 
L 140.3328 -91.2384 
L 139.7376 -91.2384 
L 139.1424 -91.2384 
L 138.5472 -91.2384 
L 137.952 -91.2384 
L 137.3568 -91.2384 
L 136.7616 -91.2384 
L 136.1664 -91.2384 
L 135.5712 -91.2384 
L 134.976 -91.2384 
L 134.3808 -91.2384 
L 133.7856 -91.2384 
L 133.1904 -91.2384 
L 132.5952 -91.2384 
L 132 -91.2384 
L 131.4048 -91.2384 
L 130.8096 -91.2384 
L 130.2144 -91.2384 
L 129.6192 -91.2384 
L 129.024 -91.2384 
L 128.4288 -91.2384 
L 127.8336 -91.2384 
L 127.2384 -91.2384 
L 126.6432 -91.2384 
L 126.048 -91.2384 
L 125.4528 -91.2384 
L 124.8576 -91.2384 
L 124.2624 -91.2384 
L 123.6672 -91.2384 
L 123.072 -91.2384 
L 122.4768 -91.2384 
L 121.8816 -91.2384 
L 121.2864 -91.2384 
L 120.6912 -91.2384 
L 120.096 -91.2384 
L 119.5008 -91.2384 
L 118.9056 -91.2384 
L 118.3104 -91.2384 
L 117.7152 -91.2384 
z
" style="stroke: #00ff7f; stroke-opacity: 0.7"/>
    </defs>
    <g clip-path="url(#p1654994956)">
     <use xlink:href="#m3c4f63826b" x="0" y="345.6" style="fill: #00ff7f; fill-opacity: 0.7; stroke: #00ff7f; stroke-opacity: 0.7"/>
    </g>
   </g>
   <g id="text_16">
    <!-- Oppervlakte onder onbekende functie (met 100 rechthoeken) -->
    <g style="fill: #d3d3d3" transform="translate(50.993437 35.472) scale(0.12 -0.12)">
     <defs>
      <path id="DejaVuSans-4f" d="M 2522 4238 
Q 1834 4238 1429 3725 
Q 1025 3213 1025 2328 
Q 1025 1447 1429 934 
Q 1834 422 2522 422 
Q 3209 422 3611 934 
Q 4013 1447 4013 2328 
Q 4013 3213 3611 3725 
Q 3209 4238 2522 4238 
z
M 2522 4750 
Q 3503 4750 4090 4092 
Q 4678 3434 4678 2328 
Q 4678 1225 4090 567 
Q 3503 -91 2522 -91 
Q 1538 -91 948 565 
Q 359 1222 359 2328 
Q 359 3434 948 4092 
Q 1538 4750 2522 4750 
z
" transform="scale(0.015625)"/>
      <path id="DejaVuSans-70" d="M 1159 525 
L 1159 -1331 
L 581 -1331 
L 581 3500 
L 1159 3500 
L 1159 2969 
Q 1341 3281 1617 3432 
Q 1894 3584 2278 3584 
Q 2916 3584 3314 3078 
Q 3713 2572 3713 1747 
Q 3713 922 3314 415 
Q 2916 -91 2278 -91 
Q 1894 -91 1617 61 
Q 1341 213 1159 525 
z
M 3116 1747 
Q 3116 2381 2855 2742 
Q 2594 3103 2138 3103 
Q 1681 3103 1420 2742 
Q 1159 2381 1159 1747 
Q 1159 1113 1420 752 
Q 1681 391 2138 391 
Q 2594 391 2855 752 
Q 3116 1113 3116 1747 
z
" transform="scale(0.015625)"/>
      <path id="DejaVuSans-65" d="M 3597 1894 
L 3597 1613 
L 953 1613 
Q 991 1019 1311 708 
Q 1631 397 2203 397 
Q 2534 397 2845 478 
Q 3156 559 3463 722 
L 3463 178 
Q 3153 47 2828 -22 
Q 2503 -91 2169 -91 
Q 1331 -91 842 396 
Q 353 884 353 1716 
Q 353 2575 817 3079 
Q 1281 3584 2069 3584 
Q 2775 3584 3186 3129 
Q 3597 2675 3597 1894 
z
M 3022 2063 
Q 3016 2534 2758 2815 
Q 2500 3097 2075 3097 
Q 1594 3097 1305 2825 
Q 1016 2553 972 2059 
L 3022 2063 
z
" transform="scale(0.015625)"/>
      <path id="DejaVuSans-72" d="M 2631 2963 
Q 2534 3019 2420 3045 
Q 2306 3072 2169 3072 
Q 1681 3072 1420 2755 
Q 1159 2438 1159 1844 
L 1159 0 
L 581 0 
L 581 3500 
L 1159 3500 
L 1159 2956 
Q 1341 3275 1631 3429 
Q 1922 3584 2338 3584 
Q 2397 3584 2469 3576 
Q 2541 3569 2628 3553 
L 2631 2963 
z
" transform="scale(0.015625)"/>
      <path id="DejaVuSans-76" d="M 191 3500 
L 800 3500 
L 1894 563 
L 2988 3500 
L 3597 3500 
L 2284 0 
L 1503 0 
L 191 3500 
z
" transform="scale(0.015625)"/>
      <path id="DejaVuSans-6c" d="M 603 4863 
L 1178 4863 
L 1178 0 
L 603 0 
L 603 4863 
z
" transform="scale(0.015625)"/>
      <path id="DejaVuSans-6b" d="M 581 4863 
L 1159 4863 
L 1159 1991 
L 2875 3500 
L 3609 3500 
L 1753 1863 
L 3688 0 
L 2938 0 
L 1159 1709 
L 1159 0 
L 581 0 
L 581 4863 
z
" transform="scale(0.015625)"/>
      <path id="DejaVuSans-74" d="M 1172 4494 
L 1172 3500 
L 2356 3500 
L 2356 3053 
L 1172 3053 
L 1172 1153 
Q 1172 725 1289 603 
Q 1406 481 1766 481 
L 2356 481 
L 2356 0 
L 1766 0 
Q 1100 0 847 248 
Q 594 497 594 1153 
L 594 3053 
L 172 3053 
L 172 3500 
L 594 3500 
L 594 4494 
L 1172 4494 
z
" transform="scale(0.015625)"/>
      <path id="DejaVuSans-20" transform="scale(0.015625)"/>
      <path id="DejaVuSans-6f" d="M 1959 3097 
Q 1497 3097 1228 2736 
Q 959 2375 959 1747 
Q 959 1119 1226 758 
Q 1494 397 1959 397 
Q 2419 397 2687 759 
Q 2956 1122 2956 1747 
Q 2956 2369 2687 2733 
Q 2419 3097 1959 3097 
z
M 1959 3584 
Q 2709 3584 3137 3096 
Q 3566 2609 3566 1747 
Q 3566 888 3137 398 
Q 2709 -91 1959 -91 
Q 1206 -91 779 398 
Q 353 888 353 1747 
Q 353 2609 779 3096 
Q 1206 3584 1959 3584 
z
" transform="scale(0.015625)"/>
      <path id="DejaVuSans-6e" d="M 3513 2113 
L 3513 0 
L 2938 0 
L 2938 2094 
Q 2938 2591 2744 2837 
Q 2550 3084 2163 3084 
Q 1697 3084 1428 2787 
Q 1159 2491 1159 1978 
L 1159 0 
L 581 0 
L 581 3500 
L 1159 3500 
L 1159 2956 
Q 1366 3272 1645 3428 
Q 1925 3584 2291 3584 
Q 2894 3584 3203 3211 
Q 3513 2838 3513 2113 
z
" transform="scale(0.015625)"/>
      <path id="DejaVuSans-64" d="M 2906 2969 
L 2906 4863 
L 3481 4863 
L 3481 0 
L 2906 0 
L 2906 525 
Q 2725 213 2448 61 
Q 2172 -91 1784 -91 
Q 1150 -91 751 415 
Q 353 922 353 1747 
Q 353 2572 751 3078 
Q 1150 3584 1784 3584 
Q 2172 3584 2448 3432 
Q 2725 3281 2906 2969 
z
M 947 1747 
Q 947 1113 1208 752 
Q 1469 391 1925 391 
Q 2381 391 2643 752 
Q 2906 1113 2906 1747 
Q 2906 2381 2643 2742 
Q 2381 3103 1925 3103 
Q 1469 3103 1208 2742 
Q 947 2381 947 1747 
z
" transform="scale(0.015625)"/>
      <path id="DejaVuSans-62" d="M 3116 1747 
Q 3116 2381 2855 2742 
Q 2594 3103 2138 3103 
Q 1681 3103 1420 2742 
Q 1159 2381 1159 1747 
Q 1159 1113 1420 752 
Q 1681 391 2138 391 
Q 2594 391 2855 752 
Q 3116 1113 3116 1747 
z
M 1159 2969 
Q 1341 3281 1617 3432 
Q 1894 3584 2278 3584 
Q 2916 3584 3314 3078 
Q 3713 2572 3713 1747 
Q 3713 922 3314 415 
Q 2916 -91 2278 -91 
Q 1894 -91 1617 61 
Q 1341 213 1159 525 
L 1159 0 
L 581 0 
L 581 4863 
L 1159 4863 
L 1159 2969 
z
" transform="scale(0.015625)"/>
      <path id="DejaVuSans-66" d="M 2375 4863 
L 2375 4384 
L 1825 4384 
Q 1516 4384 1395 4259 
Q 1275 4134 1275 3809 
L 1275 3500 
L 2222 3500 
L 2222 3053 
L 1275 3053 
L 1275 0 
L 697 0 
L 697 3053 
L 147 3053 
L 147 3500 
L 697 3500 
L 697 3744 
Q 697 4328 969 4595 
Q 1241 4863 1831 4863 
L 2375 4863 
z
" transform="scale(0.015625)"/>
      <path id="DejaVuSans-75" d="M 544 1381 
L 544 3500 
L 1119 3500 
L 1119 1403 
Q 1119 906 1312 657 
Q 1506 409 1894 409 
Q 2359 409 2629 706 
Q 2900 1003 2900 1516 
L 2900 3500 
L 3475 3500 
L 3475 0 
L 2900 0 
L 2900 538 
Q 2691 219 2414 64 
Q 2138 -91 1772 -91 
Q 1169 -91 856 284 
Q 544 659 544 1381 
z
M 1991 3584 
L 1991 3584 
z
" transform="scale(0.015625)"/>
      <path id="DejaVuSans-63" d="M 3122 3366 
L 3122 2828 
Q 2878 2963 2633 3030 
Q 2388 3097 2138 3097 
Q 1578 3097 1268 2742 
Q 959 2388 959 1747 
Q 959 1106 1268 751 
Q 1578 397 2138 397 
Q 2388 397 2633 464 
Q 2878 531 3122 666 
L 3122 134 
Q 2881 22 2623 -34 
Q 2366 -91 2075 -91 
Q 1284 -91 818 406 
Q 353 903 353 1747 
Q 353 2603 823 3093 
Q 1294 3584 2113 3584 
Q 2378 3584 2631 3529 
Q 2884 3475 3122 3366 
z
" transform="scale(0.015625)"/>
      <path id="DejaVuSans-69" d="M 603 3500 
L 1178 3500 
L 1178 0 
L 603 0 
L 603 3500 
z
M 603 4863 
L 1178 4863 
L 1178 4134 
L 603 4134 
L 603 4863 
z
" transform="scale(0.015625)"/>
      <path id="DejaVuSans-28" d="M 1984 4856 
Q 1566 4138 1362 3434 
Q 1159 2731 1159 2009 
Q 1159 1288 1364 580 
Q 1569 -128 1984 -844 
L 1484 -844 
Q 1016 -109 783 600 
Q 550 1309 550 2009 
Q 550 2706 781 3412 
Q 1013 4119 1484 4856 
L 1984 4856 
z
" transform="scale(0.015625)"/>
      <path id="DejaVuSans-6d" d="M 3328 2828 
Q 3544 3216 3844 3400 
Q 4144 3584 4550 3584 
Q 5097 3584 5394 3201 
Q 5691 2819 5691 2113 
L 5691 0 
L 5113 0 
L 5113 2094 
Q 5113 2597 4934 2840 
Q 4756 3084 4391 3084 
Q 3944 3084 3684 2787 
Q 3425 2491 3425 1978 
L 3425 0 
L 2847 0 
L 2847 2094 
Q 2847 2600 2669 2842 
Q 2491 3084 2119 3084 
Q 1678 3084 1418 2786 
Q 1159 2488 1159 1978 
L 1159 0 
L 581 0 
L 581 3500 
L 1159 3500 
L 1159 2956 
Q 1356 3278 1631 3431 
Q 1906 3584 2284 3584 
Q 2666 3584 2933 3390 
Q 3200 3197 3328 2828 
z
" transform="scale(0.015625)"/>
      <path id="DejaVuSans-68" d="M 3513 2113 
L 3513 0 
L 2938 0 
L 2938 2094 
Q 2938 2591 2744 2837 
Q 2550 3084 2163 3084 
Q 1697 3084 1428 2787 
Q 1159 2491 1159 1978 
L 1159 0 
L 581 0 
L 581 4863 
L 1159 4863 
L 1159 2956 
Q 1366 3272 1645 3428 
Q 1925 3584 2291 3584 
Q 2894 3584 3203 3211 
Q 3513 2838 3513 2113 
z
" transform="scale(0.015625)"/>
      <path id="DejaVuSans-29" d="M 513 4856 
L 1013 4856 
Q 1481 4119 1714 3412 
Q 1947 2706 1947 2009 
Q 1947 1309 1714 600 
Q 1481 -109 1013 -844 
L 513 -844 
Q 928 -128 1133 580 
Q 1338 1288 1338 2009 
Q 1338 2731 1133 3434 
Q 928 4138 513 4856 
z
" transform="scale(0.015625)"/>
     </defs>
     <use xlink:href="#DejaVuSans-4f"/>
     <use xlink:href="#DejaVuSans-70" x="78.710938"/>
     <use xlink:href="#DejaVuSans-70" x="142.1875"/>
     <use xlink:href="#DejaVuSans-65" x="205.664062"/>
     <use xlink:href="#DejaVuSans-72" x="267.1875"/>
     <use xlink:href="#DejaVuSans-76" x="308.300781"/>
     <use xlink:href="#DejaVuSans-6c" x="367.480469"/>
     <use xlink:href="#DejaVuSans-61" x="395.263672"/>
     <use xlink:href="#DejaVuSans-6b" x="456.542969"/>
     <use xlink:href="#DejaVuSans-74" x="514.453125"/>
     <use xlink:href="#DejaVuSans-65" x="553.662109"/>
     <use xlink:href="#DejaVuSans-20" x="615.185547"/>
     <use xlink:href="#DejaVuSans-6f" x="646.972656"/>
     <use xlink:href="#DejaVuSans-6e" x="708.154297"/>
     <use xlink:href="#DejaVuSans-64" x="771.533203"/>
     <use xlink:href="#DejaVuSans-65" x="835.009766"/>
     <use xlink:href="#DejaVuSans-72" x="896.533203"/>
     <use xlink:href="#DejaVuSans-20" x="937.646484"/>
     <use xlink:href="#DejaVuSans-6f" x="969.433594"/>
     <use xlink:href="#DejaVuSans-6e" x="1030.615234"/>
     <use xlink:href="#DejaVuSans-62" x="1093.994141"/>
     <use xlink:href="#DejaVuSans-65" x="1157.470703"/>
     <use xlink:href="#DejaVuSans-6b" x="1218.994141"/>
     <use xlink:href="#DejaVuSans-65" x="1273.279297"/>
     <use xlink:href="#DejaVuSans-6e" x="1334.802734"/>
     <use xlink:href="#DejaVuSans-64" x="1398.181641"/>
     <use xlink:href="#DejaVuSans-65" x="1461.658203"/>
     <use xlink:href="#DejaVuSans-20" x="1523.181641"/>
     <use xlink:href="#DejaVuSans-66" x="1554.96875"/>
     <use xlink:href="#DejaVuSans-75" x="1590.173828"/>
     <use xlink:href="#DejaVuSans-6e" x="1653.552734"/>
     <use xlink:href="#DejaVuSans-63" x="1716.931641"/>
     <use xlink:href="#DejaVuSans-74" x="1771.912109"/>
     <use xlink:href="#DejaVuSans-69" x="1811.121094"/>
     <use xlink:href="#DejaVuSans-65" x="1838.904297"/>
     <use xlink:href="#DejaVuSans-20" x="1900.427734"/>
     <use xlink:href="#DejaVuSans-28" x="1932.214844"/>
     <use xlink:href="#DejaVuSans-6d" x="1971.228516"/>
     <use xlink:href="#DejaVuSans-65" x="2068.640625"/>
     <use xlink:href="#DejaVuSans-74" x="2130.164062"/>
     <use xlink:href="#DejaVuSans-20" x="2169.373047"/>
     <use xlink:href="#DejaVuSans-31" x="2201.160156"/>
     <use xlink:href="#DejaVuSans-30" x="2264.783203"/>
     <use xlink:href="#DejaVuSans-30" x="2328.40625"/>
     <use xlink:href="#DejaVuSans-20" x="2392.029297"/>
     <use xlink:href="#DejaVuSans-72" x="2423.816406"/>
     <use xlink:href="#DejaVuSans-65" x="2462.679688"/>
     <use xlink:href="#DejaVuSans-63" x="2524.203125"/>
     <use xlink:href="#DejaVuSans-68" x="2579.183594"/>
     <use xlink:href="#DejaVuSans-74" x="2642.5625"/>
     <use xlink:href="#DejaVuSans-68" x="2681.771484"/>
     <use xlink:href="#DejaVuSans-6f" x="2745.150391"/>
     <use xlink:href="#DejaVuSans-65" x="2806.332031"/>
     <use xlink:href="#DejaVuSans-6b" x="2867.855469"/>
     <use xlink:href="#DejaVuSans-65" x="2922.140625"/>
     <use xlink:href="#DejaVuSans-6e" x="2983.664062"/>
     <use xlink:href="#DejaVuSans-29" x="3047.042969"/>
    </g>
   </g>
   <g id="patch_7">
    <path d="M 117.12 254.3616 
L 119.5008 254.3616 
L 119.5008 180.137529 
L 117.12 180.137529 
z
" clip-path="url(#p1654994956)" style="fill: #000080; opacity: 0.5; stroke: #0000ff; stroke-linejoin: miter"/>
   </g>
   <g id="patch_8">
    <path d="M 119.5008 254.3616 
L 121.8816 254.3616 
L 121.8816 179.616177 
L 119.5008 179.616177 
z
" clip-path="url(#p1654994956)" style="fill: #000080; opacity: 0.5; stroke: #0000ff; stroke-linejoin: miter"/>
   </g>
   <g id="patch_9">
    <path d="M 121.8816 254.3616 
L 124.2624 254.3616 
L 124.2624 179.09279 
L 121.8816 179.09279 
z
" clip-path="url(#p1654994956)" style="fill: #000080; opacity: 0.5; stroke: #0000ff; stroke-linejoin: miter"/>
   </g>
   <g id="patch_10">
    <path d="M 124.2624 254.3616 
L 126.6432 254.3616 
L 126.6432 178.567576 
L 124.2624 178.567576 
z
" clip-path="url(#p1654994956)" style="fill: #000080; opacity: 0.5; stroke: #0000ff; stroke-linejoin: miter"/>
   </g>
   <g id="patch_11">
    <path d="M 126.6432 254.3616 
L 129.024 254.3616 
L 129.024 178.040747 
L 126.6432 178.040747 
z
" clip-path="url(#p1654994956)" style="fill: #000080; opacity: 0.5; stroke: #0000ff; stroke-linejoin: miter"/>
   </g>
   <g id="patch_12">
    <path d="M 129.024 254.3616 
L 131.4048 254.3616 
L 131.4048 177.512513 
L 129.024 177.512513 
z
" clip-path="url(#p1654994956)" style="fill: #000080; opacity: 0.5; stroke: #0000ff; stroke-linejoin: miter"/>
   </g>
   <g id="patch_13">
    <path d="M 131.4048 254.3616 
L 133.7856 254.3616 
L 133.7856 176.983085 
L 131.4048 176.983085 
z
" clip-path="url(#p1654994956)" style="fill: #000080; opacity: 0.5; stroke: #0000ff; stroke-linejoin: miter"/>
   </g>
   <g id="patch_14">
    <path d="M 133.7856 254.3616 
L 136.1664 254.3616 
L 136.1664 176.452676 
L 133.7856 176.452676 
z
" clip-path="url(#p1654994956)" style="fill: #000080; opacity: 0.5; stroke: #0000ff; stroke-linejoin: miter"/>
   </g>
   <g id="patch_15">
    <path d="M 136.1664 254.3616 
L 138.5472 254.3616 
L 138.5472 175.921496 
L 136.1664 175.921496 
z
" clip-path="url(#p1654994956)" style="fill: #000080; opacity: 0.5; stroke: #0000ff; stroke-linejoin: miter"/>
   </g>
   <g id="patch_16">
    <path d="M 138.5472 254.3616 
L 140.928 254.3616 
L 140.928 175.389759 
L 138.5472 175.389759 
z
" clip-path="url(#p1654994956)" style="fill: #000080; opacity: 0.5; stroke: #0000ff; stroke-linejoin: miter"/>
   </g>
   <g id="patch_17">
    <path d="M 140.928 254.3616 
L 143.3088 254.3616 
L 143.3088 174.857677 
L 140.928 174.857677 
z
" clip-path="url(#p1654994956)" style="fill: #000080; opacity: 0.5; stroke: #0000ff; stroke-linejoin: miter"/>
   </g>
   <g id="patch_18">
    <path d="M 143.3088 254.3616 
L 145.6896 254.3616 
L 145.6896 174.325464 
L 143.3088 174.325464 
z
" clip-path="url(#p1654994956)" style="fill: #000080; opacity: 0.5; stroke: #0000ff; stroke-linejoin: miter"/>
   </g>
   <g id="patch_19">
    <path d="M 145.6896 254.3616 
L 148.0704 254.3616 
L 148.0704 173.793331 
L 145.6896 173.793331 
z
" clip-path="url(#p1654994956)" style="fill: #000080; opacity: 0.5; stroke: #0000ff; stroke-linejoin: miter"/>
   </g>
   <g id="patch_20">
    <path d="M 148.0704 254.3616 
L 150.4512 254.3616 
L 150.4512 173.261492 
L 148.0704 173.261492 
z
" clip-path="url(#p1654994956)" style="fill: #000080; opacity: 0.5; stroke: #0000ff; stroke-linejoin: miter"/>
   </g>
   <g id="patch_21">
    <path d="M 150.4512 254.3616 
L 152.832 254.3616 
L 152.832 172.73016 
L 150.4512 172.73016 
z
" clip-path="url(#p1654994956)" style="fill: #000080; opacity: 0.5; stroke: #0000ff; stroke-linejoin: miter"/>
   </g>
   <g id="patch_22">
    <path d="M 152.832 254.3616 
L 155.2128 254.3616 
L 155.2128 172.199547 
L 152.832 172.199547 
z
" clip-path="url(#p1654994956)" style="fill: #000080; opacity: 0.5; stroke: #0000ff; stroke-linejoin: miter"/>
   </g>
   <g id="patch_23">
    <path d="M 155.2128 254.3616 
L 157.5936 254.3616 
L 157.5936 171.669865 
L 155.2128 171.669865 
z
" clip-path="url(#p1654994956)" style="fill: #000080; opacity: 0.5; stroke: #0000ff; stroke-linejoin: miter"/>
   </g>
   <g id="patch_24">
    <path d="M 157.5936 254.3616 
L 159.9744 254.3616 
L 159.9744 171.141327 
L 157.5936 171.141327 
z
" clip-path="url(#p1654994956)" style="fill: #000080; opacity: 0.5; stroke: #0000ff; stroke-linejoin: miter"/>
   </g>
   <g id="patch_25">
    <path d="M 159.9744 254.3616 
L 162.3552 254.3616 
L 162.3552 170.614143 
L 159.9744 170.614143 
z
" clip-path="url(#p1654994956)" style="fill: #000080; opacity: 0.5; stroke: #0000ff; stroke-linejoin: miter"/>
   </g>
   <g id="patch_26">
    <path d="M 162.3552 254.3616 
L 164.736 254.3616 
L 164.736 170.088525 
L 162.3552 170.088525 
z
" clip-path="url(#p1654994956)" style="fill: #000080; opacity: 0.5; stroke: #0000ff; stroke-linejoin: miter"/>
   </g>
   <g id="patch_27">
    <path d="M 164.736 254.3616 
L 167.1168 254.3616 
L 167.1168 169.564682 
L 164.736 169.564682 
z
" clip-path="url(#p1654994956)" style="fill: #000080; opacity: 0.5; stroke: #0000ff; stroke-linejoin: miter"/>
   </g>
   <g id="patch_28">
    <path d="M 167.1168 254.3616 
L 169.4976 254.3616 
L 169.4976 169.042825 
L 167.1168 169.042825 
z
" clip-path="url(#p1654994956)" style="fill: #000080; opacity: 0.5; stroke: #0000ff; stroke-linejoin: miter"/>
   </g>
   <g id="patch_29">
    <path d="M 169.4976 254.3616 
L 171.8784 254.3616 
L 171.8784 168.523161 
L 169.4976 168.523161 
z
" clip-path="url(#p1654994956)" style="fill: #000080; opacity: 0.5; stroke: #0000ff; stroke-linejoin: miter"/>
   </g>
   <g id="patch_30">
    <path d="M 171.8784 254.3616 
L 174.2592 254.3616 
L 174.2592 168.0059 
L 171.8784 168.0059 
z
" clip-path="url(#p1654994956)" style="fill: #000080; opacity: 0.5; stroke: #0000ff; stroke-linejoin: miter"/>
   </g>
   <g id="patch_31">
    <path d="M 174.2592 254.3616 
L 176.64 254.3616 
L 176.64 167.491247 
L 174.2592 167.491247 
z
" clip-path="url(#p1654994956)" style="fill: #000080; opacity: 0.5; stroke: #0000ff; stroke-linejoin: miter"/>
   </g>
   <g id="patch_32">
    <path d="M 176.64 254.3616 
L 179.0208 254.3616 
L 179.0208 166.979409 
L 176.64 166.979409 
z
" clip-path="url(#p1654994956)" style="fill: #000080; opacity: 0.5; stroke: #0000ff; stroke-linejoin: miter"/>
   </g>
   <g id="patch_33">
    <path d="M 179.0208 254.3616 
L 181.4016 254.3616 
L 181.4016 166.47059 
L 179.0208 166.47059 
z
" clip-path="url(#p1654994956)" style="fill: #000080; opacity: 0.5; stroke: #0000ff; stroke-linejoin: miter"/>
   </g>
   <g id="patch_34">
    <path d="M 181.4016 254.3616 
L 183.7824 254.3616 
L 183.7824 165.964994 
L 181.4016 165.964994 
z
" clip-path="url(#p1654994956)" style="fill: #000080; opacity: 0.5; stroke: #0000ff; stroke-linejoin: miter"/>
   </g>
   <g id="patch_35">
    <path d="M 183.7824 254.3616 
L 186.1632 254.3616 
L 186.1632 165.462823 
L 183.7824 165.462823 
z
" clip-path="url(#p1654994956)" style="fill: #000080; opacity: 0.5; stroke: #0000ff; stroke-linejoin: miter"/>
   </g>
   <g id="patch_36">
    <path d="M 186.1632 254.3616 
L 188.544 254.3616 
L 188.544 164.964278 
L 186.1632 164.964278 
z
" clip-path="url(#p1654994956)" style="fill: #000080; opacity: 0.5; stroke: #0000ff; stroke-linejoin: miter"/>
   </g>
   <g id="patch_37">
    <path d="M 188.544 254.3616 
L 190.9248 254.3616 
L 190.9248 164.469559 
L 188.544 164.469559 
z
" clip-path="url(#p1654994956)" style="fill: #000080; opacity: 0.5; stroke: #0000ff; stroke-linejoin: miter"/>
   </g>
   <g id="patch_38">
    <path d="M 190.9248 254.3616 
L 193.3056 254.3616 
L 193.3056 163.978862 
L 190.9248 163.978862 
z
" clip-path="url(#p1654994956)" style="fill: #000080; opacity: 0.5; stroke: #0000ff; stroke-linejoin: miter"/>
   </g>
   <g id="patch_39">
    <path d="M 193.3056 254.3616 
L 195.6864 254.3616 
L 195.6864 163.492386 
L 193.3056 163.492386 
z
" clip-path="url(#p1654994956)" style="fill: #000080; opacity: 0.5; stroke: #0000ff; stroke-linejoin: miter"/>
   </g>
   <g id="patch_40">
    <path d="M 195.6864 254.3616 
L 198.0672 254.3616 
L 198.0672 163.010323 
L 195.6864 163.010323 
z
" clip-path="url(#p1654994956)" style="fill: #000080; opacity: 0.5; stroke: #0000ff; stroke-linejoin: miter"/>
   </g>
   <g id="patch_41">
    <path d="M 198.0672 254.3616 
L 200.448 254.3616 
L 200.448 162.532867 
L 198.0672 162.532867 
z
" clip-path="url(#p1654994956)" style="fill: #000080; opacity: 0.5; stroke: #0000ff; stroke-linejoin: miter"/>
   </g>
   <g id="patch_42">
    <path d="M 200.448 254.3616 
L 202.8288 254.3616 
L 202.8288 162.060209 
L 200.448 162.060209 
z
" clip-path="url(#p1654994956)" style="fill: #000080; opacity: 0.5; stroke: #0000ff; stroke-linejoin: miter"/>
   </g>
   <g id="patch_43">
    <path d="M 202.8288 254.3616 
L 205.2096 254.3616 
L 205.2096 161.592538 
L 202.8288 161.592538 
z
" clip-path="url(#p1654994956)" style="fill: #000080; opacity: 0.5; stroke: #0000ff; stroke-linejoin: miter"/>
   </g>
   <g id="patch_44">
    <path d="M 205.2096 254.3616 
L 207.5904 254.3616 
L 207.5904 161.130041 
L 205.2096 161.130041 
z
" clip-path="url(#p1654994956)" style="fill: #000080; opacity: 0.5; stroke: #0000ff; stroke-linejoin: miter"/>
   </g>
   <g id="patch_45">
    <path d="M 207.5904 254.3616 
L 209.9712 254.3616 
L 209.9712 160.672903 
L 207.5904 160.672903 
z
" clip-path="url(#p1654994956)" style="fill: #000080; opacity: 0.5; stroke: #0000ff; stroke-linejoin: miter"/>
   </g>
   <g id="patch_46">
    <path d="M 209.9712 254.3616 
L 212.352 254.3616 
L 212.352 160.221307 
L 209.9712 160.221307 
z
" clip-path="url(#p1654994956)" style="fill: #000080; opacity: 0.5; stroke: #0000ff; stroke-linejoin: miter"/>
   </g>
   <g id="patch_47">
    <path d="M 212.352 254.3616 
L 214.7328 254.3616 
L 214.7328 159.775434 
L 212.352 159.775434 
z
" clip-path="url(#p1654994956)" style="fill: #000080; opacity: 0.5; stroke: #0000ff; stroke-linejoin: miter"/>
   </g>
   <g id="patch_48">
    <path d="M 214.7328 254.3616 
L 217.1136 254.3616 
L 217.1136 159.335461 
L 214.7328 159.335461 
z
" clip-path="url(#p1654994956)" style="fill: #000080; opacity: 0.5; stroke: #0000ff; stroke-linejoin: miter"/>
   </g>
   <g id="patch_49">
    <path d="M 217.1136 254.3616 
L 219.4944 254.3616 
L 219.4944 158.901565 
L 217.1136 158.901565 
z
" clip-path="url(#p1654994956)" style="fill: #000080; opacity: 0.5; stroke: #0000ff; stroke-linejoin: miter"/>
   </g>
   <g id="patch_50">
    <path d="M 219.4944 254.3616 
L 221.8752 254.3616 
L 221.8752 158.473919 
L 219.4944 158.473919 
z
" clip-path="url(#p1654994956)" style="fill: #000080; opacity: 0.5; stroke: #0000ff; stroke-linejoin: miter"/>
   </g>
   <g id="patch_51">
    <path d="M 221.8752 254.3616 
L 224.256 254.3616 
L 224.256 158.052695 
L 221.8752 158.052695 
z
" clip-path="url(#p1654994956)" style="fill: #000080; opacity: 0.5; stroke: #0000ff; stroke-linejoin: miter"/>
   </g>
   <g id="patch_52">
    <path d="M 224.256 254.3616 
L 226.6368 254.3616 
L 226.6368 157.638061 
L 224.256 157.638061 
z
" clip-path="url(#p1654994956)" style="fill: #000080; opacity: 0.5; stroke: #0000ff; stroke-linejoin: miter"/>
   </g>
   <g id="patch_53">
    <path d="M 226.6368 254.3616 
L 229.0176 254.3616 
L 229.0176 157.230182 
L 226.6368 157.230182 
z
" clip-path="url(#p1654994956)" style="fill: #000080; opacity: 0.5; stroke: #0000ff; stroke-linejoin: miter"/>
   </g>
   <g id="patch_54">
    <path d="M 229.0176 254.3616 
L 231.3984 254.3616 
L 231.3984 156.829223 
L 229.0176 156.829223 
z
" clip-path="url(#p1654994956)" style="fill: #000080; opacity: 0.5; stroke: #0000ff; stroke-linejoin: miter"/>
   </g>
   <g id="patch_55">
    <path d="M 231.3984 254.3616 
L 233.7792 254.3616 
L 233.7792 156.435342 
L 231.3984 156.435342 
z
" clip-path="url(#p1654994956)" style="fill: #000080; opacity: 0.5; stroke: #0000ff; stroke-linejoin: miter"/>
   </g>
   <g id="patch_56">
    <path d="M 233.7792 254.3616 
L 236.16 254.3616 
L 236.16 156.048699 
L 233.7792 156.048699 
z
" clip-path="url(#p1654994956)" style="fill: #000080; opacity: 0.5; stroke: #0000ff; stroke-linejoin: miter"/>
   </g>
   <g id="patch_57">
    <path d="M 236.16 254.3616 
L 238.5408 254.3616 
L 238.5408 155.669447 
L 236.16 155.669447 
z
" clip-path="url(#p1654994956)" style="fill: #000080; opacity: 0.5; stroke: #0000ff; stroke-linejoin: miter"/>
   </g>
   <g id="patch_58">
    <path d="M 238.5408 254.3616 
L 240.9216 254.3616 
L 240.9216 155.297738 
L 238.5408 155.297738 
z
" clip-path="url(#p1654994956)" style="fill: #000080; opacity: 0.5; stroke: #0000ff; stroke-linejoin: miter"/>
   </g>
   <g id="patch_59">
    <path d="M 240.9216 254.3616 
L 243.3024 254.3616 
L 243.3024 154.933721 
L 240.9216 154.933721 
z
" clip-path="url(#p1654994956)" style="fill: #000080; opacity: 0.5; stroke: #0000ff; stroke-linejoin: miter"/>
   </g>
   <g id="patch_60">
    <path d="M 243.3024 254.3616 
L 245.6832 254.3616 
L 245.6832 154.577541 
L 243.3024 154.577541 
z
" clip-path="url(#p1654994956)" style="fill: #000080; opacity: 0.5; stroke: #0000ff; stroke-linejoin: miter"/>
   </g>
   <g id="patch_61">
    <path d="M 245.6832 254.3616 
L 248.064 254.3616 
L 248.064 154.229342 
L 245.6832 154.229342 
z
" clip-path="url(#p1654994956)" style="fill: #000080; opacity: 0.5; stroke: #0000ff; stroke-linejoin: miter"/>
   </g>
   <g id="patch_62">
    <path d="M 248.064 254.3616 
L 250.4448 254.3616 
L 250.4448 153.889261 
L 248.064 153.889261 
z
" clip-path="url(#p1654994956)" style="fill: #000080; opacity: 0.5; stroke: #0000ff; stroke-linejoin: miter"/>
   </g>
   <g id="patch_63">
    <path d="M 250.4448 254.3616 
L 252.8256 254.3616 
L 252.8256 153.557436 
L 250.4448 153.557436 
z
" clip-path="url(#p1654994956)" style="fill: #000080; opacity: 0.5; stroke: #0000ff; stroke-linejoin: miter"/>
   </g>
   <g id="patch_64">
    <path d="M 252.8256 254.3616 
L 255.2064 254.3616 
L 255.2064 153.233999 
L 252.8256 153.233999 
z
" clip-path="url(#p1654994956)" style="fill: #000080; opacity: 0.5; stroke: #0000ff; stroke-linejoin: miter"/>
   </g>
   <g id="patch_65">
    <path d="M 255.2064 254.3616 
L 257.5872 254.3616 
L 257.5872 152.919079 
L 255.2064 152.919079 
z
" clip-path="url(#p1654994956)" style="fill: #000080; opacity: 0.5; stroke: #0000ff; stroke-linejoin: miter"/>
   </g>
   <g id="patch_66">
    <path d="M 257.5872 254.3616 
L 259.968 254.3616 
L 259.968 152.612802 
L 257.5872 152.612802 
z
" clip-path="url(#p1654994956)" style="fill: #000080; opacity: 0.5; stroke: #0000ff; stroke-linejoin: miter"/>
   </g>
   <g id="patch_67">
    <path d="M 259.968 254.3616 
L 262.3488 254.3616 
L 262.3488 152.315291 
L 259.968 152.315291 
z
" clip-path="url(#p1654994956)" style="fill: #000080; opacity: 0.5; stroke: #0000ff; stroke-linejoin: miter"/>
   </g>
   <g id="patch_68">
    <path d="M 262.3488 254.3616 
L 264.7296 254.3616 
L 264.7296 152.026665 
L 262.3488 152.026665 
z
" clip-path="url(#p1654994956)" style="fill: #000080; opacity: 0.5; stroke: #0000ff; stroke-linejoin: miter"/>
   </g>
   <g id="patch_69">
    <path d="M 264.7296 254.3616 
L 267.1104 254.3616 
L 267.1104 151.747039 
L 264.7296 151.747039 
z
" clip-path="url(#p1654994956)" style="fill: #000080; opacity: 0.5; stroke: #0000ff; stroke-linejoin: miter"/>
   </g>
   <g id="patch_70">
    <path d="M 267.1104 254.3616 
L 269.4912 254.3616 
L 269.4912 151.476525 
L 267.1104 151.476525 
z
" clip-path="url(#p1654994956)" style="fill: #000080; opacity: 0.5; stroke: #0000ff; stroke-linejoin: miter"/>
   </g>
   <g id="patch_71">
    <path d="M 269.4912 254.3616 
L 271.872 254.3616 
L 271.872 151.215232 
L 269.4912 151.215232 
z
" clip-path="url(#p1654994956)" style="fill: #000080; opacity: 0.5; stroke: #0000ff; stroke-linejoin: miter"/>
   </g>
   <g id="patch_72">
    <path d="M 271.872 254.3616 
L 274.2528 254.3616 
L 274.2528 150.963263 
L 271.872 150.963263 
z
" clip-path="url(#p1654994956)" style="fill: #000080; opacity: 0.5; stroke: #0000ff; stroke-linejoin: miter"/>
   </g>
   <g id="patch_73">
    <path d="M 274.2528 254.3616 
L 276.6336 254.3616 
L 276.6336 150.72072 
L 274.2528 150.72072 
z
" clip-path="url(#p1654994956)" style="fill: #000080; opacity: 0.5; stroke: #0000ff; stroke-linejoin: miter"/>
   </g>
   <g id="patch_74">
    <path d="M 276.6336 254.3616 
L 279.0144 254.3616 
L 279.0144 150.487699 
L 276.6336 150.487699 
z
" clip-path="url(#p1654994956)" style="fill: #000080; opacity: 0.5; stroke: #0000ff; stroke-linejoin: miter"/>
   </g>
   <g id="patch_75">
    <path d="M 279.0144 254.3616 
L 281.3952 254.3616 
L 281.3952 150.264295 
L 279.0144 150.264295 
z
" clip-path="url(#p1654994956)" style="fill: #000080; opacity: 0.5; stroke: #0000ff; stroke-linejoin: miter"/>
   </g>
   <g id="patch_76">
    <path d="M 281.3952 254.3616 
L 283.776 254.3616 
L 283.776 150.050595 
L 281.3952 150.050595 
z
" clip-path="url(#p1654994956)" style="fill: #000080; opacity: 0.5; stroke: #0000ff; stroke-linejoin: miter"/>
   </g>
   <g id="patch_77">
    <path d="M 283.776 254.3616 
L 286.1568 254.3616 
L 286.1568 149.846686 
L 283.776 149.846686 
z
" clip-path="url(#p1654994956)" style="fill: #000080; opacity: 0.5; stroke: #0000ff; stroke-linejoin: miter"/>
   </g>
   <g id="patch_78">
    <path d="M 286.1568 254.3616 
L 288.5376 254.3616 
L 288.5376 149.652649 
L 286.1568 149.652649 
z
" clip-path="url(#p1654994956)" style="fill: #000080; opacity: 0.5; stroke: #0000ff; stroke-linejoin: miter"/>
   </g>
   <g id="patch_79">
    <path d="M 288.5376 254.3616 
L 290.9184 254.3616 
L 290.9184 149.468562 
L 288.5376 149.468562 
z
" clip-path="url(#p1654994956)" style="fill: #000080; opacity: 0.5; stroke: #0000ff; stroke-linejoin: miter"/>
   </g>
   <g id="patch_80">
    <path d="M 290.9184 254.3616 
L 293.2992 254.3616 
L 293.2992 149.294499 
L 290.9184 149.294499 
z
" clip-path="url(#p1654994956)" style="fill: #000080; opacity: 0.5; stroke: #0000ff; stroke-linejoin: miter"/>
   </g>
   <g id="patch_81">
    <path d="M 293.2992 254.3616 
L 295.68 254.3616 
L 295.68 149.130528 
L 293.2992 149.130528 
z
" clip-path="url(#p1654994956)" style="fill: #000080; opacity: 0.5; stroke: #0000ff; stroke-linejoin: miter"/>
   </g>
   <g id="patch_82">
    <path d="M 295.68 254.3616 
L 298.0608 254.3616 
L 298.0608 148.976716 
L 295.68 148.976716 
z
" clip-path="url(#p1654994956)" style="fill: #000080; opacity: 0.5; stroke: #0000ff; stroke-linejoin: miter"/>
   </g>
   <g id="patch_83">
    <path d="M 298.0608 254.3616 
L 300.4416 254.3616 
L 300.4416 148.833125 
L 298.0608 148.833125 
z
" clip-path="url(#p1654994956)" style="fill: #000080; opacity: 0.5; stroke: #0000ff; stroke-linejoin: miter"/>
   </g>
   <g id="patch_84">
    <path d="M 300.4416 254.3616 
L 302.8224 254.3616 
L 302.8224 148.699811 
L 300.4416 148.699811 
z
" clip-path="url(#p1654994956)" style="fill: #000080; opacity: 0.5; stroke: #0000ff; stroke-linejoin: miter"/>
   </g>
   <g id="patch_85">
    <path d="M 302.8224 254.3616 
L 305.2032 254.3616 
L 305.2032 148.576828 
L 302.8224 148.576828 
z
" clip-path="url(#p1654994956)" style="fill: #000080; opacity: 0.5; stroke: #0000ff; stroke-linejoin: miter"/>
   </g>
   <g id="patch_86">
    <path d="M 305.2032 254.3616 
L 307.584 254.3616 
L 307.584 148.464225 
L 305.2032 148.464225 
z
" clip-path="url(#p1654994956)" style="fill: #000080; opacity: 0.5; stroke: #0000ff; stroke-linejoin: miter"/>
   </g>
   <g id="patch_87">
    <path d="M 307.584 254.3616 
L 309.9648 254.3616 
L 309.9648 148.362047 
L 307.584 148.362047 
z
" clip-path="url(#p1654994956)" style="fill: #000080; opacity: 0.5; stroke: #0000ff; stroke-linejoin: miter"/>
   </g>
   <g id="patch_88">
    <path d="M 309.9648 254.3616 
L 312.3456 254.3616 
L 312.3456 148.270335 
L 309.9648 148.270335 
z
" clip-path="url(#p1654994956)" style="fill: #000080; opacity: 0.5; stroke: #0000ff; stroke-linejoin: miter"/>
   </g>
   <g id="patch_89">
    <path d="M 312.3456 254.3616 
L 314.7264 254.3616 
L 314.7264 148.189126 
L 312.3456 148.189126 
z
" clip-path="url(#p1654994956)" style="fill: #000080; opacity: 0.5; stroke: #0000ff; stroke-linejoin: miter"/>
   </g>
   <g id="patch_90">
    <path d="M 314.7264 254.3616 
L 317.1072 254.3616 
L 317.1072 148.118452 
L 314.7264 148.118452 
z
" clip-path="url(#p1654994956)" style="fill: #000080; opacity: 0.5; stroke: #0000ff; stroke-linejoin: miter"/>
   </g>
   <g id="patch_91">
    <path d="M 317.1072 254.3616 
L 319.488 254.3616 
L 319.488 148.058342 
L 317.1072 148.058342 
z
" clip-path="url(#p1654994956)" style="fill: #000080; opacity: 0.5; stroke: #0000ff; stroke-linejoin: miter"/>
   </g>
   <g id="patch_92">
    <path d="M 319.488 254.3616 
L 321.8688 254.3616 
L 321.8688 148.008819 
L 319.488 148.008819 
z
" clip-path="url(#p1654994956)" style="fill: #000080; opacity: 0.5; stroke: #0000ff; stroke-linejoin: miter"/>
   </g>
   <g id="patch_93">
    <path d="M 321.8688 254.3616 
L 324.2496 254.3616 
L 324.2496 147.969903 
L 321.8688 147.969903 
z
" clip-path="url(#p1654994956)" style="fill: #000080; opacity: 0.5; stroke: #0000ff; stroke-linejoin: miter"/>
   </g>
   <g id="patch_94">
    <path d="M 324.2496 254.3616 
L 326.6304 254.3616 
L 326.6304 147.941611 
L 324.2496 147.941611 
z
" clip-path="url(#p1654994956)" style="fill: #000080; opacity: 0.5; stroke: #0000ff; stroke-linejoin: miter"/>
   </g>
   <g id="patch_95">
    <path d="M 326.6304 254.3616 
L 329.0112 254.3616 
L 329.0112 147.923952 
L 326.6304 147.923952 
z
" clip-path="url(#p1654994956)" style="fill: #000080; opacity: 0.5; stroke: #0000ff; stroke-linejoin: miter"/>
   </g>
   <g id="patch_96">
    <path d="M 329.0112 254.3616 
L 331.392 254.3616 
L 331.392 147.916935 
L 329.0112 147.916935 
z
" clip-path="url(#p1654994956)" style="fill: #000080; opacity: 0.5; stroke: #0000ff; stroke-linejoin: miter"/>
   </g>
   <g id="patch_97">
    <path d="M 331.392 254.3616 
L 333.7728 254.3616 
L 333.7728 147.920562 
L 331.392 147.920562 
z
" clip-path="url(#p1654994956)" style="fill: #000080; opacity: 0.5; stroke: #0000ff; stroke-linejoin: miter"/>
   </g>
   <g id="patch_98">
    <path d="M 333.7728 254.3616 
L 336.1536 254.3616 
L 336.1536 147.934831 
L 333.7728 147.934831 
z
" clip-path="url(#p1654994956)" style="fill: #000080; opacity: 0.5; stroke: #0000ff; stroke-linejoin: miter"/>
   </g>
   <g id="patch_99">
    <path d="M 336.1536 254.3616 
L 338.5344 254.3616 
L 338.5344 147.959738 
L 336.1536 147.959738 
z
" clip-path="url(#p1654994956)" style="fill: #000080; opacity: 0.5; stroke: #0000ff; stroke-linejoin: miter"/>
   </g>
   <g id="patch_100">
    <path d="M 338.5344 254.3616 
L 340.9152 254.3616 
L 340.9152 147.995271 
L 338.5344 147.995271 
z
" clip-path="url(#p1654994956)" style="fill: #000080; opacity: 0.5; stroke: #0000ff; stroke-linejoin: miter"/>
   </g>
   <g id="patch_101">
    <path d="M 340.9152 254.3616 
L 343.296 254.3616 
L 343.296 148.041417 
L 340.9152 148.041417 
z
" clip-path="url(#p1654994956)" style="fill: #000080; opacity: 0.5; stroke: #0000ff; stroke-linejoin: miter"/>
   </g>
   <g id="patch_102">
    <path d="M 343.296 254.3616 
L 345.6768 254.3616 
L 345.6768 148.098157 
L 343.296 148.098157 
z
" clip-path="url(#p1654994956)" style="fill: #000080; opacity: 0.5; stroke: #0000ff; stroke-linejoin: miter"/>
   </g>
   <g id="patch_103">
    <path d="M 345.6768 254.3616 
L 348.0576 254.3616 
L 348.0576 148.165469 
L 345.6768 148.165469 
z
" clip-path="url(#p1654994956)" style="fill: #000080; opacity: 0.5; stroke: #0000ff; stroke-linejoin: miter"/>
   </g>
   <g id="patch_104">
    <path d="M 348.0576 254.3616 
L 350.4384 254.3616 
L 350.4384 148.243326 
L 348.0576 148.243326 
z
" clip-path="url(#p1654994956)" style="fill: #000080; opacity: 0.5; stroke: #0000ff; stroke-linejoin: miter"/>
   </g>
   <g id="patch_105">
    <path d="M 350.4384 254.3616 
L 352.8192 254.3616 
L 352.8192 148.331696 
L 350.4384 148.331696 
z
" clip-path="url(#p1654994956)" style="fill: #000080; opacity: 0.5; stroke: #0000ff; stroke-linejoin: miter"/>
   </g>
   <g id="patch_106">
    <path d="M 352.8192 254.3616 
L 355.2 254.3616 
L 355.2 148.430544 
L 352.8192 148.430544 
z
" clip-path="url(#p1654994956)" style="fill: #000080; opacity: 0.5; stroke: #0000ff; stroke-linejoin: miter"/>
   </g>
   <g id="legend_1">
    <g id="patch_107">
     <path d="M 358.42 64.150125 
L 407.72 64.150125 
Q 409.72 64.150125 409.72 62.150125 
L 409.72 48.472 
Q 409.72 46.472 407.72 46.472 
L 358.42 46.472 
Q 356.42 46.472 356.42 48.472 
L 356.42 62.150125 
Q 356.42 64.150125 358.42 64.150125 
z
" style="fill: #ffffff; opacity: 0.8; stroke: #cccccc; stroke-linejoin: miter"/>
    </g>
    <g id="line2d_15">
     <path d="M 360.42 54.570438 
L 370.42 54.570438 
L 380.42 54.570438 
" style="fill: none; stroke: #00ced1; stroke-width: 1.5; stroke-linecap: square"/>
    </g>
    <g id="text_17">
     <!-- $f(x)$ -->
     <g transform="translate(388.42 58.070438) scale(0.1 -0.1)">
      <defs>
       <path id="DejaVuSans-Oblique-66" d="M 3059 4863 
L 2969 4384 
L 2419 4384 
Q 2106 4384 1964 4261 
Q 1822 4138 1753 3809 
L 1691 3500 
L 2638 3500 
L 2553 3053 
L 1606 3053 
L 1013 0 
L 434 0 
L 1031 3053 
L 481 3053 
L 563 3500 
L 1113 3500 
L 1159 3744 
Q 1278 4363 1576 4613 
Q 1875 4863 2516 4863 
L 3059 4863 
z
" transform="scale(0.015625)"/>
       <path id="DejaVuSans-Oblique-78" d="M 3841 3500 
L 2234 1784 
L 3219 0 
L 2559 0 
L 1819 1388 
L 531 0 
L -166 0 
L 1556 1844 
L 641 3500 
L 1300 3500 
L 1972 2234 
L 3144 3500 
L 3841 3500 
z
" transform="scale(0.015625)"/>
      </defs>
      <use xlink:href="#DejaVuSans-Oblique-66" transform="translate(0 0.015625)"/>
      <use xlink:href="#DejaVuSans-28" transform="translate(35.205078 0.015625)"/>
      <use xlink:href="#DejaVuSans-Oblique-78" transform="translate(74.21875 0.015625)"/>
      <use xlink:href="#DejaVuSans-29" transform="translate(133.398438 0.015625)"/>
     </g>
    </g>
   </g>
  </g>
 </g>
 <defs>
  <clipPath id="p1654994956">
   <rect x="57.6" y="41.472" width="357.12" height="266.112"/>
  </clipPath>
 </defs>
</svg>
