<?xml version="1.0" encoding="utf-8" standalone="no"?>
<!DOCTYPE svg PUBLIC "-//W3C//DTD SVG 1.1//EN"
  "http://www.w3.org/Graphics/SVG/1.1/DTD/svg11.dtd">
<svg xmlns:xlink="http://www.w3.org/1999/xlink" width="460.8pt" height="345.6pt" viewBox="0 0 460.8 345.6" xmlns="http://www.w3.org/2000/svg" version="1.1">
 <metadata>
  <rdf:RDF xmlns:dc="http://purl.org/dc/elements/1.1/" xmlns:cc="http://creativecommons.org/ns#" xmlns:rdf="http://www.w3.org/1999/02/22-rdf-syntax-ns#">
   <cc:Work>
    <dc:type rdf:resource="http://purl.org/dc/dcmitype/StillImage"/>
    <dc:date>2024-08-09T22:54:09.314974</dc:date>
    <dc:format>image/svg+xml</dc:format>
    <dc:creator>
     <cc:Agent>
      <dc:title>Matplotlib v3.8.3, https://matplotlib.org/</dc:title>
     </cc:Agent>
    </dc:creator>
   </cc:Work>
  </rdf:RDF>
 </metadata>
 <defs>
  <style type="text/css">*{stroke-linejoin: round; stroke-linecap: butt}</style>
 </defs>
 <g id="figure_1">
  <g id="patch_1">
   <path d="M 0 345.6 
L 460.8 345.6 
L 460.8 0 
L 0 0 
L 0 345.6 
z
" style="fill: none"/>
  </g>
  <g id="axes_1">
   <g id="patch_2">
    <path d="M 57.6 307.584 
L 414.72 307.584 
L 414.72 41.472 
L 57.6 41.472 
z
" style="fill: #708090"/>
   </g>
   <g id="LineCollection_1">
    <path d="M 57.6 263.232 
L 414.72 263.232 
" clip-path="url(#peb3d2eba7c)" style="fill: none; stroke: #d3d3d3; stroke-width: 1.5"/>
   </g>
   <g id="LineCollection_2">
    <path d="M 129.024 307.584 
L 129.024 41.472 
" clip-path="url(#peb3d2eba7c)" style="fill: none; stroke: #d3d3d3; stroke-width: 1.5"/>
   </g>
   <g id="matplotlib.axis_1">
    <g id="text_1">
     <!-- X-as -->
     <g style="fill: #d3d3d3" transform="translate(225.512344 319.182437) scale(0.1 -0.1)">
      <defs>
       <path id="DejaVuSans-58" d="M 403 4666 
L 1081 4666 
L 2241 2931 
L 3406 4666 
L 4084 4666 
L 2584 2425 
L 4184 0 
L 3506 0 
L 2194 1984 
L 872 0 
L 191 0 
L 1856 2491 
L 403 4666 
z
" transform="scale(0.015625)"/>
       <path id="DejaVuSans-2d" d="M 313 2009 
L 1997 2009 
L 1997 1497 
L 313 1497 
L 313 2009 
z
" transform="scale(0.015625)"/>
       <path id="DejaVuSans-61" d="M 2194 1759 
Q 1497 1759 1228 1600 
Q 959 1441 959 1056 
Q 959 750 1161 570 
Q 1363 391 1709 391 
Q 2188 391 2477 730 
Q 2766 1069 2766 1631 
L 2766 1759 
L 2194 1759 
z
M 3341 1997 
L 3341 0 
L 2766 0 
L 2766 531 
Q 2569 213 2275 61 
Q 1981 -91 1556 -91 
Q 1019 -91 701 211 
Q 384 513 384 1019 
Q 384 1609 779 1909 
Q 1175 2209 1959 2209 
L 2766 2209 
L 2766 2266 
Q 2766 2663 2505 2880 
Q 2244 3097 1772 3097 
Q 1472 3097 1187 3025 
Q 903 2953 641 2809 
L 641 3341 
Q 956 3463 1253 3523 
Q 1550 3584 1831 3584 
Q 2591 3584 2966 3190 
Q 3341 2797 3341 1997 
z
" transform="scale(0.015625)"/>
       <path id="DejaVuSans-73" d="M 2834 3397 
L 2834 2853 
Q 2591 2978 2328 3040 
Q 2066 3103 1784 3103 
Q 1356 3103 1142 2972 
Q 928 2841 928 2578 
Q 928 2378 1081 2264 
Q 1234 2150 1697 2047 
L 1894 2003 
Q 2506 1872 2764 1633 
Q 3022 1394 3022 966 
Q 3022 478 2636 193 
Q 2250 -91 1575 -91 
Q 1294 -91 989 -36 
Q 684 19 347 128 
L 347 722 
Q 666 556 975 473 
Q 1284 391 1588 391 
Q 1994 391 2212 530 
Q 2431 669 2431 922 
Q 2431 1156 2273 1281 
Q 2116 1406 1581 1522 
L 1381 1569 
Q 847 1681 609 1914 
Q 372 2147 372 2553 
Q 372 3047 722 3315 
Q 1072 3584 1716 3584 
Q 2034 3584 2315 3537 
Q 2597 3491 2834 3397 
z
" transform="scale(0.015625)"/>
      </defs>
      <use xlink:href="#DejaVuSans-58"/>
      <use xlink:href="#DejaVuSans-2d" x="63.505859"/>
      <use xlink:href="#DejaVuSans-61" x="99.589844"/>
      <use xlink:href="#DejaVuSans-73" x="160.869141"/>
     </g>
    </g>
   </g>
   <g id="matplotlib.axis_2">
    <g id="text_2">
     <!-- Y-as -->
     <g style="fill: #d3d3d3" transform="translate(51.520313 184.460813) rotate(-90) scale(0.1 -0.1)">
      <defs>
       <path id="DejaVuSans-59" d="M -13 4666 
L 666 4666 
L 1959 2747 
L 3244 4666 
L 3922 4666 
L 2272 2222 
L 2272 0 
L 1638 0 
L 1638 2222 
L -13 4666 
z
" transform="scale(0.015625)"/>
      </defs>
      <use xlink:href="#DejaVuSans-59"/>
      <use xlink:href="#DejaVuSans-2d" x="49.208984"/>
      <use xlink:href="#DejaVuSans-61" x="85.292969"/>
      <use xlink:href="#DejaVuSans-73" x="146.572266"/>
     </g>
    </g>
   </g>
   <g id="line2d_1">
    <path d="M 59.32731 346.6 
L 65.45664 328.079059 
L 71.8848 309.35808 
L 78.31296 291.355603 
L 84.74112 274.071629 
L 90.45504 259.311283 
L 96.16896 245.118643 
L 101.88288 231.493709 
L 107.5968 218.43648 
L 113.31072 205.946957 
L 119.02464 194.025139 
L 124.73856 182.671027 
L 129.73824 173.201875 
L 134.73792 164.167373 
L 139.7376 155.56752 
L 144.73728 147.402317 
L 149.73696 139.671763 
L 154.73664 132.375859 
L 159.73632 125.514605 
L 164.02176 119.979475 
L 168.3072 114.76368 
L 172.59264 109.867219 
L 176.87808 105.290093 
L 181.16352 101.032301 
L 185.44896 97.093843 
L 189.7344 93.47472 
L 194.01984 90.174931 
L 198.30528 87.194477 
L 201.87648 84.954701 
L 205.44768 82.936685 
L 209.01888 81.140429 
L 212.59008 79.565933 
L 216.16128 78.213197 
L 219.73248 77.082221 
L 223.30368 76.173005 
L 226.87488 75.485549 
L 230.44608 75.019853 
L 234.01728 74.775917 
L 237.58848 74.753741 
L 241.15968 74.953325 
L 244.73088 75.374669 
L 248.30208 76.017773 
L 251.87328 76.882637 
L 255.44448 77.969261 
L 259.01568 79.277645 
L 262.58688 80.807789 
L 266.15808 82.559693 
L 269.72928 84.533357 
L 273.30048 86.728781 
L 276.87168 89.145965 
L 281.15712 92.339309 
L 285.44256 95.851987 
L 289.728 99.684 
L 294.01344 103.835347 
L 298.29888 108.306029 
L 302.58432 113.096045 
L 306.86976 118.205395 
L 311.1552 123.63408 
L 315.44064 129.382099 
L 320.44032 136.491725 
L 325.44 144.036 
L 330.43968 152.014925 
L 335.43936 160.428499 
L 340.43904 169.276723 
L 345.43872 178.559597 
L 350.4384 188.27712 
L 355.43808 198.429293 
L 361.152 210.564 
L 366.86592 223.266413 
L 372.57984 236.536531 
L 378.29376 250.374355 
L 384.00768 264.779885 
L 389.7216 279.75312 
L 395.43552 295.294061 
L 401.86368 313.456205 
L 408.29184 332.336851 
L 412.99269 346.6 
L 412.99269 346.6 
" clip-path="url(#peb3d2eba7c)" style="fill: none; stroke: #00ced1; stroke-width: 1.5; stroke-linecap: square"/>
   </g>
   <g id="line2d_2">
    <path d="M 66.453016 -1 
L 71.8848 13.08672 
L 77.59872 27.350323 
L 83.31264 41.046221 
L 89.02656 54.174413 
L 94.74048 66.734899 
L 100.4544 78.72768 
L 106.16832 90.152755 
L 111.168 99.684 
L 116.16768 108.780595 
L 121.16736 117.442541 
L 126.16704 125.669837 
L 131.16672 133.462483 
L 136.1664 140.82048 
L 141.16608 147.743827 
L 145.45152 153.332179 
L 149.73696 158.601197 
L 154.0224 163.55088 
L 158.30784 168.181229 
L 162.59328 172.492243 
L 166.87872 176.483923 
L 171.16416 180.156269 
L 175.4496 183.50928 
L 179.73504 186.542957 
L 184.02048 189.257299 
L 187.59168 191.275315 
L 191.16288 193.071571 
L 194.73408 194.646067 
L 198.30528 195.998803 
L 201.87648 197.129779 
L 205.44768 198.038995 
L 209.01888 198.726451 
L 212.59008 199.192147 
L 216.16128 199.436083 
L 219.73248 199.458259 
L 223.30368 199.258675 
L 226.87488 198.837331 
L 230.44608 198.194227 
L 234.01728 197.329363 
L 237.58848 196.242739 
L 241.15968 194.934355 
L 244.73088 193.404211 
L 248.30208 191.652307 
L 251.87328 189.678643 
L 255.44448 187.483219 
L 259.01568 185.066035 
L 263.30112 181.872691 
L 267.58656 178.360013 
L 271.872 174.528 
L 276.15744 170.376653 
L 280.44288 165.905971 
L 284.72832 161.115955 
L 289.01376 156.006605 
L 293.2992 150.57792 
L 297.58464 144.829901 
L 302.58432 137.720275 
L 307.584 130.176 
L 312.58368 122.197075 
L 317.58336 113.783501 
L 322.58304 104.935277 
L 327.58272 95.652403 
L 332.5824 85.93488 
L 337.58208 75.782707 
L 343.296 63.648 
L 349.00992 50.945587 
L 354.72384 37.675469 
L 360.43776 23.837645 
L 366.15168 9.432115 
L 370.154984 -1 
L 370.154984 -1 
" clip-path="url(#peb3d2eba7c)" style="fill: none; stroke: #dc143c; stroke-width: 1.5; stroke-linecap: square"/>
   </g>
   <g id="patch_3">
    <path d="M 57.6 307.584 
L 57.6 41.472 
" style="fill: none; stroke: #d3d3d3; stroke-width: 0.8; stroke-linejoin: miter; stroke-linecap: square"/>
   </g>
   <g id="patch_4">
    <path d="M 414.72 307.584 
L 414.72 41.472 
" style="fill: none; stroke: #d3d3d3; stroke-width: 0.8; stroke-linejoin: miter; stroke-linecap: square"/>
   </g>
   <g id="patch_5">
    <path d="M 57.6 307.584 
L 414.72 307.584 
" style="fill: none; stroke: #d3d3d3; stroke-width: 0.8; stroke-linejoin: miter; stroke-linecap: square"/>
   </g>
   <g id="patch_6">
    <path d="M 57.6 41.472 
L 414.72 41.472 
" style="fill: none; stroke: #d3d3d3; stroke-width: 0.8; stroke-linejoin: miter; stroke-linecap: square"/>
   </g>
   <g id="PolyCollection_1">
    <defs>
     <path id="m1609eeb3f6" d="M 143.3088 -195.02208 
L 143.3088 -195.90912 
L 144.02304 -197.057837 
L 144.73728 -198.197683 
L 145.45152 -199.328659 
L 146.16576 -200.450765 
L 146.88 -201.564 
L 147.59424 -202.668365 
L 148.30848 -203.763859 
L 149.02272 -204.850483 
L 149.73696 -205.928237 
L 150.4512 -206.99712 
L 151.16544 -208.057133 
L 151.87968 -209.108275 
L 152.59392 -210.150547 
L 153.30816 -211.183949 
L 154.0224 -212.20848 
L 154.73664 -213.224141 
L 155.45088 -214.230931 
L 156.16512 -215.228851 
L 156.87936 -216.217901 
L 157.5936 -217.19808 
L 158.30784 -218.169389 
L 159.02208 -219.131827 
L 159.73632 -220.085395 
L 160.45056 -221.030093 
L 161.1648 -221.96592 
L 161.87904 -222.892877 
L 162.59328 -223.810963 
L 163.30752 -224.720179 
L 164.02176 -225.620525 
L 164.736 -226.512 
L 165.45024 -227.394605 
L 166.16448 -228.268339 
L 166.87872 -229.133203 
L 167.59296 -229.989197 
L 168.3072 -230.83632 
L 169.02144 -231.674573 
L 169.73568 -232.503955 
L 170.44992 -233.324467 
L 171.16416 -234.136109 
L 171.8784 -234.93888 
L 172.59264 -235.732781 
L 173.30688 -236.517811 
L 174.02112 -237.293971 
L 174.73536 -238.061261 
L 175.4496 -238.81968 
L 176.16384 -239.569229 
L 176.87808 -240.309907 
L 177.59232 -241.041715 
L 178.30656 -241.764653 
L 179.0208 -242.47872 
L 179.73504 -243.183917 
L 180.44928 -243.880243 
L 181.16352 -244.567699 
L 181.87776 -245.246285 
L 182.592 -245.916 
L 183.30624 -246.576845 
L 184.02048 -247.228819 
L 184.73472 -247.871923 
L 185.44896 -248.506157 
L 186.1632 -249.13152 
L 186.87744 -249.748013 
L 187.59168 -250.355635 
L 188.30592 -250.954387 
L 189.02016 -251.544269 
L 189.7344 -252.12528 
L 190.44864 -252.697421 
L 191.16288 -253.260691 
L 191.87712 -253.815091 
L 192.59136 -254.360621 
L 193.3056 -254.89728 
L 194.01984 -255.425069 
L 194.73408 -255.943987 
L 195.44832 -256.454035 
L 196.16256 -256.955213 
L 196.8768 -257.44752 
L 197.59104 -257.930957 
L 198.30528 -258.405523 
L 199.01952 -258.871219 
L 199.73376 -259.328045 
L 200.448 -259.776 
L 201.16224 -260.215085 
L 201.87648 -260.645299 
L 202.59072 -261.066643 
L 203.30496 -261.479117 
L 204.0192 -261.88272 
L 204.73344 -262.277453 
L 205.44768 -262.663315 
L 206.16192 -263.040307 
L 206.87616 -263.408429 
L 207.5904 -263.76768 
L 208.30464 -264.118061 
L 209.01888 -264.459571 
L 209.73312 -264.792211 
L 210.44736 -265.115981 
L 211.1616 -265.43088 
L 211.87584 -265.736909 
L 212.59008 -266.034067 
L 213.30432 -266.322355 
L 214.01856 -266.601773 
L 214.7328 -266.87232 
L 215.44704 -267.133997 
L 216.16128 -267.386803 
L 216.87552 -267.630739 
L 217.58976 -267.865805 
L 218.304 -268.092 
L 219.01824 -268.309325 
L 219.73248 -268.517779 
L 220.44672 -268.717363 
L 221.16096 -268.908077 
L 221.8752 -269.08992 
L 222.58944 -269.262893 
L 223.30368 -269.426995 
L 224.01792 -269.582227 
L 224.73216 -269.728589 
L 225.4464 -269.86608 
L 226.16064 -269.994701 
L 226.87488 -270.114451 
L 227.58912 -270.225331 
L 228.30336 -270.327341 
L 229.0176 -270.42048 
L 229.73184 -270.504749 
L 230.44608 -270.580147 
L 231.16032 -270.646675 
L 231.87456 -270.704333 
L 232.5888 -270.75312 
L 233.30304 -270.793037 
L 234.01728 -270.824083 
L 234.73152 -270.846259 
L 235.44576 -270.859565 
L 236.16 -270.864 
L 236.87424 -270.859565 
L 237.58848 -270.846259 
L 238.30272 -270.824083 
L 239.01696 -270.793037 
L 239.7312 -270.75312 
L 240.44544 -270.704333 
L 241.15968 -270.646675 
L 241.87392 -270.580147 
L 242.58816 -270.504749 
L 243.3024 -270.42048 
L 244.01664 -270.327341 
L 244.73088 -270.225331 
L 245.44512 -270.114451 
L 246.15936 -269.994701 
L 246.8736 -269.86608 
L 247.58784 -269.728589 
L 248.30208 -269.582227 
L 249.01632 -269.426995 
L 249.73056 -269.262893 
L 250.4448 -269.08992 
L 251.15904 -268.908077 
L 251.87328 -268.717363 
L 252.58752 -268.517779 
L 253.30176 -268.309325 
L 254.016 -268.092 
L 254.73024 -267.865805 
L 255.44448 -267.630739 
L 256.15872 -267.386803 
L 256.87296 -267.133997 
L 257.5872 -266.87232 
L 258.30144 -266.601773 
L 259.01568 -266.322355 
L 259.72992 -266.034067 
L 260.44416 -265.736909 
L 261.1584 -265.43088 
L 261.87264 -265.115981 
L 262.58688 -264.792211 
L 263.30112 -264.459571 
L 264.01536 -264.118061 
L 264.7296 -263.76768 
L 265.44384 -263.408429 
L 266.15808 -263.040307 
L 266.87232 -262.663315 
L 267.58656 -262.277453 
L 268.3008 -261.88272 
L 269.01504 -261.479117 
L 269.72928 -261.066643 
L 270.44352 -260.645299 
L 271.15776 -260.215085 
L 271.872 -259.776 
L 272.58624 -259.328045 
L 273.30048 -258.871219 
L 274.01472 -258.405523 
L 274.72896 -257.930957 
L 275.4432 -257.44752 
L 276.15744 -256.955213 
L 276.87168 -256.454035 
L 277.58592 -255.943987 
L 278.30016 -255.425069 
L 279.0144 -254.89728 
L 279.72864 -254.360621 
L 280.44288 -253.815091 
L 281.15712 -253.260691 
L 281.87136 -252.697421 
L 282.5856 -252.12528 
L 283.29984 -251.544269 
L 284.01408 -250.954387 
L 284.72832 -250.355635 
L 285.44256 -249.748013 
L 286.1568 -249.13152 
L 286.87104 -248.506157 
L 287.58528 -247.871923 
L 288.29952 -247.228819 
L 289.01376 -246.576845 
L 289.728 -245.916 
L 290.44224 -245.246285 
L 291.15648 -244.567699 
L 291.87072 -243.880243 
L 292.58496 -243.183917 
L 293.2992 -242.47872 
L 294.01344 -241.764653 
L 294.72768 -241.041715 
L 295.44192 -240.309907 
L 296.15616 -239.569229 
L 296.8704 -238.81968 
L 297.58464 -238.061261 
L 298.29888 -237.293971 
L 299.01312 -236.517811 
L 299.72736 -235.732781 
L 300.4416 -234.93888 
L 301.15584 -234.136109 
L 301.87008 -233.324467 
L 302.58432 -232.503955 
L 303.29856 -231.674573 
L 304.0128 -230.83632 
L 304.72704 -229.989197 
L 305.44128 -229.133203 
L 306.15552 -228.268339 
L 306.86976 -227.394605 
L 307.584 -226.512 
L 308.29824 -225.620525 
L 309.01248 -224.720179 
L 309.72672 -223.810963 
L 310.44096 -222.892877 
L 311.1552 -221.96592 
L 311.1552 -221.07888 
L 311.1552 -221.07888 
L 310.44096 -219.930163 
L 309.72672 -218.790317 
L 309.01248 -217.659341 
L 308.29824 -216.537235 
L 307.584 -215.424 
L 306.86976 -214.319635 
L 306.15552 -213.224141 
L 305.44128 -212.137517 
L 304.72704 -211.059763 
L 304.0128 -209.99088 
L 303.29856 -208.930867 
L 302.58432 -207.879725 
L 301.87008 -206.837453 
L 301.15584 -205.804051 
L 300.4416 -204.77952 
L 299.72736 -203.763859 
L 299.01312 -202.757069 
L 298.29888 -201.759149 
L 297.58464 -200.770099 
L 296.8704 -199.78992 
L 296.15616 -198.818611 
L 295.44192 -197.856173 
L 294.72768 -196.902605 
L 294.01344 -195.957907 
L 293.2992 -195.02208 
L 292.58496 -194.095123 
L 291.87072 -193.177037 
L 291.15648 -192.267821 
L 290.44224 -191.367475 
L 289.728 -190.476 
L 289.01376 -189.593395 
L 288.29952 -188.719661 
L 287.58528 -187.854797 
L 286.87104 -186.998803 
L 286.1568 -186.15168 
L 285.44256 -185.313427 
L 284.72832 -184.484045 
L 284.01408 -183.663533 
L 283.29984 -182.851891 
L 282.5856 -182.04912 
L 281.87136 -181.255219 
L 281.15712 -180.470189 
L 280.44288 -179.694029 
L 279.72864 -178.926739 
L 279.0144 -178.16832 
L 278.30016 -177.418771 
L 277.58592 -176.678093 
L 276.87168 -175.946285 
L 276.15744 -175.223347 
L 275.4432 -174.50928 
L 274.72896 -173.804083 
L 274.01472 -173.107757 
L 273.30048 -172.420301 
L 272.58624 -171.741715 
L 271.872 -171.072 
L 271.15776 -170.411155 
L 270.44352 -169.759181 
L 269.72928 -169.116077 
L 269.01504 -168.481843 
L 268.3008 -167.85648 
L 267.58656 -167.239987 
L 266.87232 -166.632365 
L 266.15808 -166.033613 
L 265.44384 -165.443731 
L 264.7296 -164.86272 
L 264.01536 -164.290579 
L 263.30112 -163.727309 
L 262.58688 -163.172909 
L 261.87264 -162.627379 
L 261.1584 -162.09072 
L 260.44416 -161.562931 
L 259.72992 -161.044013 
L 259.01568 -160.533965 
L 258.30144 -160.032787 
L 257.5872 -159.54048 
L 256.87296 -159.057043 
L 256.15872 -158.582477 
L 255.44448 -158.116781 
L 254.73024 -157.659955 
L 254.016 -157.212 
L 253.30176 -156.772915 
L 252.58752 -156.342701 
L 251.87328 -155.921357 
L 251.15904 -155.508883 
L 250.4448 -155.10528 
L 249.73056 -154.710547 
L 249.01632 -154.324685 
L 248.30208 -153.947693 
L 247.58784 -153.579571 
L 246.8736 -153.22032 
L 246.15936 -152.869939 
L 245.44512 -152.528429 
L 244.73088 -152.195789 
L 244.01664 -151.872019 
L 243.3024 -151.55712 
L 242.58816 -151.251091 
L 241.87392 -150.953933 
L 241.15968 -150.665645 
L 240.44544 -150.386227 
L 239.7312 -150.11568 
L 239.01696 -149.854003 
L 238.30272 -149.601197 
L 237.58848 -149.357261 
L 236.87424 -149.122195 
L 236.16 -148.896 
L 235.44576 -148.678675 
L 234.73152 -148.470221 
L 234.01728 -148.270637 
L 233.30304 -148.079923 
L 232.5888 -147.89808 
L 231.87456 -147.725107 
L 231.16032 -147.561005 
L 230.44608 -147.405773 
L 229.73184 -147.259411 
L 229.0176 -147.12192 
L 228.30336 -146.993299 
L 227.58912 -146.873549 
L 226.87488 -146.762669 
L 226.16064 -146.660659 
L 225.4464 -146.56752 
L 224.73216 -146.483251 
L 224.01792 -146.407853 
L 223.30368 -146.341325 
L 222.58944 -146.283667 
L 221.8752 -146.23488 
L 221.16096 -146.194963 
L 220.44672 -146.163917 
L 219.73248 -146.141741 
L 219.01824 -146.128435 
L 218.304 -146.124 
L 217.58976 -146.128435 
L 216.87552 -146.141741 
L 216.16128 -146.163917 
L 215.44704 -146.194963 
L 214.7328 -146.23488 
L 214.01856 -146.283667 
L 213.30432 -146.341325 
L 212.59008 -146.407853 
L 211.87584 -146.483251 
L 211.1616 -146.56752 
L 210.44736 -146.660659 
L 209.73312 -146.762669 
L 209.01888 -146.873549 
L 208.30464 -146.993299 
L 207.5904 -147.12192 
L 206.87616 -147.259411 
L 206.16192 -147.405773 
L 205.44768 -147.561005 
L 204.73344 -147.725107 
L 204.0192 -147.89808 
L 203.30496 -148.079923 
L 202.59072 -148.270637 
L 201.87648 -148.470221 
L 201.16224 -148.678675 
L 200.448 -148.896 
L 199.73376 -149.122195 
L 199.01952 -149.357261 
L 198.30528 -149.601197 
L 197.59104 -149.854003 
L 196.8768 -150.11568 
L 196.16256 -150.386227 
L 195.44832 -150.665645 
L 194.73408 -150.953933 
L 194.01984 -151.251091 
L 193.3056 -151.55712 
L 192.59136 -151.872019 
L 191.87712 -152.195789 
L 191.16288 -152.528429 
L 190.44864 -152.869939 
L 189.7344 -153.22032 
L 189.02016 -153.579571 
L 188.30592 -153.947693 
L 187.59168 -154.324685 
L 186.87744 -154.710547 
L 186.1632 -155.10528 
L 185.44896 -155.508883 
L 184.73472 -155.921357 
L 184.02048 -156.342701 
L 183.30624 -156.772915 
L 182.592 -157.212 
L 181.87776 -157.659955 
L 181.16352 -158.116781 
L 180.44928 -158.582477 
L 179.73504 -159.057043 
L 179.0208 -159.54048 
L 178.30656 -160.032787 
L 177.59232 -160.533965 
L 176.87808 -161.044013 
L 176.16384 -161.562931 
L 175.4496 -162.09072 
L 174.73536 -162.627379 
L 174.02112 -163.172909 
L 173.30688 -163.727309 
L 172.59264 -164.290579 
L 171.8784 -164.86272 
L 171.16416 -165.443731 
L 170.44992 -166.033613 
L 169.73568 -166.632365 
L 169.02144 -167.239987 
L 168.3072 -167.85648 
L 167.59296 -168.481843 
L 166.87872 -169.116077 
L 166.16448 -169.759181 
L 165.45024 -170.411155 
L 164.736 -171.072 
L 164.02176 -171.741715 
L 163.30752 -172.420301 
L 162.59328 -173.107757 
L 161.87904 -173.804083 
L 161.1648 -174.50928 
L 160.45056 -175.223347 
L 159.73632 -175.946285 
L 159.02208 -176.678093 
L 158.30784 -177.418771 
L 157.5936 -178.16832 
L 156.87936 -178.926739 
L 156.16512 -179.694029 
L 155.45088 -180.470189 
L 154.73664 -181.255219 
L 154.0224 -182.04912 
L 153.30816 -182.851891 
L 152.59392 -183.663533 
L 151.87968 -184.484045 
L 151.16544 -185.313427 
L 150.4512 -186.15168 
L 149.73696 -186.998803 
L 149.02272 -187.854797 
L 148.30848 -188.719661 
L 147.59424 -189.593395 
L 146.88 -190.476 
L 146.16576 -191.367475 
L 145.45152 -192.267821 
L 144.73728 -193.177037 
L 144.02304 -194.095123 
L 143.3088 -195.02208 
z
" style="stroke: #9400d3; stroke-opacity: 0.7"/>
    </defs>
    <g clip-path="url(#peb3d2eba7c)">
     <use xlink:href="#m1609eeb3f6" x="0" y="345.6" style="fill: #9400d3; fill-opacity: 0.7; stroke: #9400d3; stroke-opacity: 0.7"/>
    </g>
   </g>
   <g id="text_3">
    <!-- $V$ -->
    <g style="fill: #ffffff" transform="translate(221.8752 139.0464) scale(0.1728 -0.1728)">
     <defs>
      <path id="DejaVuSans-Oblique-56" d="M 1319 0 
L 500 4666 
L 1119 4666 
L 1797 653 
L 4063 4666 
L 4750 4666 
L 2053 0 
L 1319 0 
z
" transform="scale(0.015625)"/>
     </defs>
     <use xlink:href="#DejaVuSans-Oblique-56" transform="translate(0 0.09375)"/>
    </g>
   </g>
   <g id="text_4">
    <!-- Oppervlakte tussen twee functies onder de x-as (verschoven) -->
    <g style="fill: #d3d3d3" transform="translate(50.706562 35.472) scale(0.12 -0.12)">
     <defs>
      <path id="DejaVuSans-4f" d="M 2522 4238 
Q 1834 4238 1429 3725 
Q 1025 3213 1025 2328 
Q 1025 1447 1429 934 
Q 1834 422 2522 422 
Q 3209 422 3611 934 
Q 4013 1447 4013 2328 
Q 4013 3213 3611 3725 
Q 3209 4238 2522 4238 
z
M 2522 4750 
Q 3503 4750 4090 4092 
Q 4678 3434 4678 2328 
Q 4678 1225 4090 567 
Q 3503 -91 2522 -91 
Q 1538 -91 948 565 
Q 359 1222 359 2328 
Q 359 3434 948 4092 
Q 1538 4750 2522 4750 
z
" transform="scale(0.015625)"/>
      <path id="DejaVuSans-70" d="M 1159 525 
L 1159 -1331 
L 581 -1331 
L 581 3500 
L 1159 3500 
L 1159 2969 
Q 1341 3281 1617 3432 
Q 1894 3584 2278 3584 
Q 2916 3584 3314 3078 
Q 3713 2572 3713 1747 
Q 3713 922 3314 415 
Q 2916 -91 2278 -91 
Q 1894 -91 1617 61 
Q 1341 213 1159 525 
z
M 3116 1747 
Q 3116 2381 2855 2742 
Q 2594 3103 2138 3103 
Q 1681 3103 1420 2742 
Q 1159 2381 1159 1747 
Q 1159 1113 1420 752 
Q 1681 391 2138 391 
Q 2594 391 2855 752 
Q 3116 1113 3116 1747 
z
" transform="scale(0.015625)"/>
      <path id="DejaVuSans-65" d="M 3597 1894 
L 3597 1613 
L 953 1613 
Q 991 1019 1311 708 
Q 1631 397 2203 397 
Q 2534 397 2845 478 
Q 3156 559 3463 722 
L 3463 178 
Q 3153 47 2828 -22 
Q 2503 -91 2169 -91 
Q 1331 -91 842 396 
Q 353 884 353 1716 
Q 353 2575 817 3079 
Q 1281 3584 2069 3584 
Q 2775 3584 3186 3129 
Q 3597 2675 3597 1894 
z
M 3022 2063 
Q 3016 2534 2758 2815 
Q 2500 3097 2075 3097 
Q 1594 3097 1305 2825 
Q 1016 2553 972 2059 
L 3022 2063 
z
" transform="scale(0.015625)"/>
      <path id="DejaVuSans-72" d="M 2631 2963 
Q 2534 3019 2420 3045 
Q 2306 3072 2169 3072 
Q 1681 3072 1420 2755 
Q 1159 2438 1159 1844 
L 1159 0 
L 581 0 
L 581 3500 
L 1159 3500 
L 1159 2956 
Q 1341 3275 1631 3429 
Q 1922 3584 2338 3584 
Q 2397 3584 2469 3576 
Q 2541 3569 2628 3553 
L 2631 2963 
z
" transform="scale(0.015625)"/>
      <path id="DejaVuSans-76" d="M 191 3500 
L 800 3500 
L 1894 563 
L 2988 3500 
L 3597 3500 
L 2284 0 
L 1503 0 
L 191 3500 
z
" transform="scale(0.015625)"/>
      <path id="DejaVuSans-6c" d="M 603 4863 
L 1178 4863 
L 1178 0 
L 603 0 
L 603 4863 
z
" transform="scale(0.015625)"/>
      <path id="DejaVuSans-6b" d="M 581 4863 
L 1159 4863 
L 1159 1991 
L 2875 3500 
L 3609 3500 
L 1753 1863 
L 3688 0 
L 2938 0 
L 1159 1709 
L 1159 0 
L 581 0 
L 581 4863 
z
" transform="scale(0.015625)"/>
      <path id="DejaVuSans-74" d="M 1172 4494 
L 1172 3500 
L 2356 3500 
L 2356 3053 
L 1172 3053 
L 1172 1153 
Q 1172 725 1289 603 
Q 1406 481 1766 481 
L 2356 481 
L 2356 0 
L 1766 0 
Q 1100 0 847 248 
Q 594 497 594 1153 
L 594 3053 
L 172 3053 
L 172 3500 
L 594 3500 
L 594 4494 
L 1172 4494 
z
" transform="scale(0.015625)"/>
      <path id="DejaVuSans-20" transform="scale(0.015625)"/>
      <path id="DejaVuSans-75" d="M 544 1381 
L 544 3500 
L 1119 3500 
L 1119 1403 
Q 1119 906 1312 657 
Q 1506 409 1894 409 
Q 2359 409 2629 706 
Q 2900 1003 2900 1516 
L 2900 3500 
L 3475 3500 
L 3475 0 
L 2900 0 
L 2900 538 
Q 2691 219 2414 64 
Q 2138 -91 1772 -91 
Q 1169 -91 856 284 
Q 544 659 544 1381 
z
M 1991 3584 
L 1991 3584 
z
" transform="scale(0.015625)"/>
      <path id="DejaVuSans-6e" d="M 3513 2113 
L 3513 0 
L 2938 0 
L 2938 2094 
Q 2938 2591 2744 2837 
Q 2550 3084 2163 3084 
Q 1697 3084 1428 2787 
Q 1159 2491 1159 1978 
L 1159 0 
L 581 0 
L 581 3500 
L 1159 3500 
L 1159 2956 
Q 1366 3272 1645 3428 
Q 1925 3584 2291 3584 
Q 2894 3584 3203 3211 
Q 3513 2838 3513 2113 
z
" transform="scale(0.015625)"/>
      <path id="DejaVuSans-77" d="M 269 3500 
L 844 3500 
L 1563 769 
L 2278 3500 
L 2956 3500 
L 3675 769 
L 4391 3500 
L 4966 3500 
L 4050 0 
L 3372 0 
L 2619 2869 
L 1863 0 
L 1184 0 
L 269 3500 
z
" transform="scale(0.015625)"/>
      <path id="DejaVuSans-66" d="M 2375 4863 
L 2375 4384 
L 1825 4384 
Q 1516 4384 1395 4259 
Q 1275 4134 1275 3809 
L 1275 3500 
L 2222 3500 
L 2222 3053 
L 1275 3053 
L 1275 0 
L 697 0 
L 697 3053 
L 147 3053 
L 147 3500 
L 697 3500 
L 697 3744 
Q 697 4328 969 4595 
Q 1241 4863 1831 4863 
L 2375 4863 
z
" transform="scale(0.015625)"/>
      <path id="DejaVuSans-63" d="M 3122 3366 
L 3122 2828 
Q 2878 2963 2633 3030 
Q 2388 3097 2138 3097 
Q 1578 3097 1268 2742 
Q 959 2388 959 1747 
Q 959 1106 1268 751 
Q 1578 397 2138 397 
Q 2388 397 2633 464 
Q 2878 531 3122 666 
L 3122 134 
Q 2881 22 2623 -34 
Q 2366 -91 2075 -91 
Q 1284 -91 818 406 
Q 353 903 353 1747 
Q 353 2603 823 3093 
Q 1294 3584 2113 3584 
Q 2378 3584 2631 3529 
Q 2884 3475 3122 3366 
z
" transform="scale(0.015625)"/>
      <path id="DejaVuSans-69" d="M 603 3500 
L 1178 3500 
L 1178 0 
L 603 0 
L 603 3500 
z
M 603 4863 
L 1178 4863 
L 1178 4134 
L 603 4134 
L 603 4863 
z
" transform="scale(0.015625)"/>
      <path id="DejaVuSans-6f" d="M 1959 3097 
Q 1497 3097 1228 2736 
Q 959 2375 959 1747 
Q 959 1119 1226 758 
Q 1494 397 1959 397 
Q 2419 397 2687 759 
Q 2956 1122 2956 1747 
Q 2956 2369 2687 2733 
Q 2419 3097 1959 3097 
z
M 1959 3584 
Q 2709 3584 3137 3096 
Q 3566 2609 3566 1747 
Q 3566 888 3137 398 
Q 2709 -91 1959 -91 
Q 1206 -91 779 398 
Q 353 888 353 1747 
Q 353 2609 779 3096 
Q 1206 3584 1959 3584 
z
" transform="scale(0.015625)"/>
      <path id="DejaVuSans-64" d="M 2906 2969 
L 2906 4863 
L 3481 4863 
L 3481 0 
L 2906 0 
L 2906 525 
Q 2725 213 2448 61 
Q 2172 -91 1784 -91 
Q 1150 -91 751 415 
Q 353 922 353 1747 
Q 353 2572 751 3078 
Q 1150 3584 1784 3584 
Q 2172 3584 2448 3432 
Q 2725 3281 2906 2969 
z
M 947 1747 
Q 947 1113 1208 752 
Q 1469 391 1925 391 
Q 2381 391 2643 752 
Q 2906 1113 2906 1747 
Q 2906 2381 2643 2742 
Q 2381 3103 1925 3103 
Q 1469 3103 1208 2742 
Q 947 2381 947 1747 
z
" transform="scale(0.015625)"/>
      <path id="DejaVuSans-78" d="M 3513 3500 
L 2247 1797 
L 3578 0 
L 2900 0 
L 1881 1375 
L 863 0 
L 184 0 
L 1544 1831 
L 300 3500 
L 978 3500 
L 1906 2253 
L 2834 3500 
L 3513 3500 
z
" transform="scale(0.015625)"/>
      <path id="DejaVuSans-28" d="M 1984 4856 
Q 1566 4138 1362 3434 
Q 1159 2731 1159 2009 
Q 1159 1288 1364 580 
Q 1569 -128 1984 -844 
L 1484 -844 
Q 1016 -109 783 600 
Q 550 1309 550 2009 
Q 550 2706 781 3412 
Q 1013 4119 1484 4856 
L 1984 4856 
z
" transform="scale(0.015625)"/>
      <path id="DejaVuSans-68" d="M 3513 2113 
L 3513 0 
L 2938 0 
L 2938 2094 
Q 2938 2591 2744 2837 
Q 2550 3084 2163 3084 
Q 1697 3084 1428 2787 
Q 1159 2491 1159 1978 
L 1159 0 
L 581 0 
L 581 4863 
L 1159 4863 
L 1159 2956 
Q 1366 3272 1645 3428 
Q 1925 3584 2291 3584 
Q 2894 3584 3203 3211 
Q 3513 2838 3513 2113 
z
" transform="scale(0.015625)"/>
      <path id="DejaVuSans-29" d="M 513 4856 
L 1013 4856 
Q 1481 4119 1714 3412 
Q 1947 2706 1947 2009 
Q 1947 1309 1714 600 
Q 1481 -109 1013 -844 
L 513 -844 
Q 928 -128 1133 580 
Q 1338 1288 1338 2009 
Q 1338 2731 1133 3434 
Q 928 4138 513 4856 
z
" transform="scale(0.015625)"/>
     </defs>
     <use xlink:href="#DejaVuSans-4f"/>
     <use xlink:href="#DejaVuSans-70" x="78.710938"/>
     <use xlink:href="#DejaVuSans-70" x="142.1875"/>
     <use xlink:href="#DejaVuSans-65" x="205.664062"/>
     <use xlink:href="#DejaVuSans-72" x="267.1875"/>
     <use xlink:href="#DejaVuSans-76" x="308.300781"/>
     <use xlink:href="#DejaVuSans-6c" x="367.480469"/>
     <use xlink:href="#DejaVuSans-61" x="395.263672"/>
     <use xlink:href="#DejaVuSans-6b" x="456.542969"/>
     <use xlink:href="#DejaVuSans-74" x="514.453125"/>
     <use xlink:href="#DejaVuSans-65" x="553.662109"/>
     <use xlink:href="#DejaVuSans-20" x="615.185547"/>
     <use xlink:href="#DejaVuSans-74" x="646.972656"/>
     <use xlink:href="#DejaVuSans-75" x="686.181641"/>
     <use xlink:href="#DejaVuSans-73" x="749.560547"/>
     <use xlink:href="#DejaVuSans-73" x="801.660156"/>
     <use xlink:href="#DejaVuSans-65" x="853.759766"/>
     <use xlink:href="#DejaVuSans-6e" x="915.283203"/>
     <use xlink:href="#DejaVuSans-20" x="978.662109"/>
     <use xlink:href="#DejaVuSans-74" x="1010.449219"/>
     <use xlink:href="#DejaVuSans-77" x="1049.658203"/>
     <use xlink:href="#DejaVuSans-65" x="1131.445312"/>
     <use xlink:href="#DejaVuSans-65" x="1192.96875"/>
     <use xlink:href="#DejaVuSans-20" x="1254.492188"/>
     <use xlink:href="#DejaVuSans-66" x="1286.279297"/>
     <use xlink:href="#DejaVuSans-75" x="1321.484375"/>
     <use xlink:href="#DejaVuSans-6e" x="1384.863281"/>
     <use xlink:href="#DejaVuSans-63" x="1448.242188"/>
     <use xlink:href="#DejaVuSans-74" x="1503.222656"/>
     <use xlink:href="#DejaVuSans-69" x="1542.431641"/>
     <use xlink:href="#DejaVuSans-65" x="1570.214844"/>
     <use xlink:href="#DejaVuSans-73" x="1631.738281"/>
     <use xlink:href="#DejaVuSans-20" x="1683.837891"/>
     <use xlink:href="#DejaVuSans-6f" x="1715.625"/>
     <use xlink:href="#DejaVuSans-6e" x="1776.806641"/>
     <use xlink:href="#DejaVuSans-64" x="1840.185547"/>
     <use xlink:href="#DejaVuSans-65" x="1903.662109"/>
     <use xlink:href="#DejaVuSans-72" x="1965.185547"/>
     <use xlink:href="#DejaVuSans-20" x="2006.298828"/>
     <use xlink:href="#DejaVuSans-64" x="2038.085938"/>
     <use xlink:href="#DejaVuSans-65" x="2101.5625"/>
     <use xlink:href="#DejaVuSans-20" x="2163.085938"/>
     <use xlink:href="#DejaVuSans-78" x="2194.873047"/>
     <use xlink:href="#DejaVuSans-2d" x="2254.052734"/>
     <use xlink:href="#DejaVuSans-61" x="2290.136719"/>
     <use xlink:href="#DejaVuSans-73" x="2351.416016"/>
     <use xlink:href="#DejaVuSans-20" x="2403.515625"/>
     <use xlink:href="#DejaVuSans-28" x="2435.302734"/>
     <use xlink:href="#DejaVuSans-76" x="2474.316406"/>
     <use xlink:href="#DejaVuSans-65" x="2533.496094"/>
     <use xlink:href="#DejaVuSans-72" x="2595.019531"/>
     <use xlink:href="#DejaVuSans-73" x="2636.132812"/>
     <use xlink:href="#DejaVuSans-63" x="2688.232422"/>
     <use xlink:href="#DejaVuSans-68" x="2743.212891"/>
     <use xlink:href="#DejaVuSans-6f" x="2806.591797"/>
     <use xlink:href="#DejaVuSans-76" x="2867.773438"/>
     <use xlink:href="#DejaVuSans-65" x="2926.953125"/>
     <use xlink:href="#DejaVuSans-6e" x="2988.476562"/>
     <use xlink:href="#DejaVuSans-29" x="3051.855469"/>
    </g>
   </g>
   <g id="PathCollection_1">
    <defs>
     <path id="mddc0304f4a" d="M 0 3 
C 0.795609 3 1.55874 2.683901 2.12132 2.12132 
C 2.683901 1.55874 3 0.795609 3 0 
C 3 -0.795609 2.683901 -1.55874 2.12132 -2.12132 
C 1.55874 -2.683901 0.795609 -3 0 -3 
C -0.795609 -3 -1.55874 -2.683901 -2.12132 -2.12132 
C -2.683901 -1.55874 -3 -0.795609 -3 0 
C -3 0.795609 -2.683901 1.55874 -2.12132 2.12132 
C -1.55874 2.683901 -0.795609 3 0 3 
z
" style="stroke: #7fffd4"/>
    </defs>
    <g clip-path="url(#peb3d2eba7c)">
     <use xlink:href="#mddc0304f4a" x="143.005416" y="150.181498" style="fill: #7fffd4; stroke: #7fffd4"/>
    </g>
   </g>
   <g id="PathCollection_2">
    <g clip-path="url(#peb3d2eba7c)">
     <use xlink:href="#mddc0304f4a" x="311.458584" y="124.030502" style="fill: #7fffd4; stroke: #7fffd4"/>
    </g>
   </g>
   <g id="legend_1">
    <g id="patch_7">
     <path d="M 337.82 78.850125 
L 407.72 78.850125 
Q 409.72 78.850125 409.72 76.850125 
L 409.72 48.472 
Q 409.72 46.472 407.72 46.472 
L 337.82 46.472 
Q 335.82 46.472 335.82 48.472 
L 335.82 76.850125 
Q 335.82 78.850125 337.82 78.850125 
z
" style="fill: #ffffff; opacity: 0.8; stroke: #cccccc; stroke-linejoin: miter"/>
    </g>
    <g id="line2d_3">
     <path d="M 339.82 54.570437 
L 349.82 54.570437 
L 359.82 54.570437 
" style="fill: none; stroke: #00ced1; stroke-width: 1.5; stroke-linecap: square"/>
    </g>
    <g id="text_5">
     <!-- $f(x) + c$ -->
     <g transform="translate(367.82 58.070437) scale(0.1 -0.1)">
      <defs>
       <path id="DejaVuSans-Oblique-66" d="M 3059 4863 
L 2969 4384 
L 2419 4384 
Q 2106 4384 1964 4261 
Q 1822 4138 1753 3809 
L 1691 3500 
L 2638 3500 
L 2553 3053 
L 1606 3053 
L 1013 0 
L 434 0 
L 1031 3053 
L 481 3053 
L 563 3500 
L 1113 3500 
L 1159 3744 
Q 1278 4363 1576 4613 
Q 1875 4863 2516 4863 
L 3059 4863 
z
" transform="scale(0.015625)"/>
       <path id="DejaVuSans-Oblique-78" d="M 3841 3500 
L 2234 1784 
L 3219 0 
L 2559 0 
L 1819 1388 
L 531 0 
L -166 0 
L 1556 1844 
L 641 3500 
L 1300 3500 
L 1972 2234 
L 3144 3500 
L 3841 3500 
z
" transform="scale(0.015625)"/>
       <path id="DejaVuSans-2b" d="M 2944 4013 
L 2944 2272 
L 4684 2272 
L 4684 1741 
L 2944 1741 
L 2944 0 
L 2419 0 
L 2419 1741 
L 678 1741 
L 678 2272 
L 2419 2272 
L 2419 4013 
L 2944 4013 
z
" transform="scale(0.015625)"/>
       <path id="DejaVuSans-Oblique-63" d="M 3431 3366 
L 3316 2797 
Q 3109 2947 2876 3022 
Q 2644 3097 2394 3097 
Q 2119 3097 1870 3000 
Q 1622 2903 1453 2725 
Q 1184 2453 1037 2087 
Q 891 1722 891 1331 
Q 891 859 1127 628 
Q 1363 397 1844 397 
Q 2081 397 2348 469 
Q 2616 541 2906 684 
L 2797 116 
Q 2547 13 2283 -39 
Q 2019 -91 1741 -91 
Q 1044 -91 669 257 
Q 294 606 294 1253 
Q 294 1797 489 2255 
Q 684 2713 1069 3078 
Q 1331 3328 1684 3456 
Q 2038 3584 2456 3584 
Q 2700 3584 2940 3529 
Q 3181 3475 3431 3366 
z
" transform="scale(0.015625)"/>
      </defs>
      <use xlink:href="#DejaVuSans-Oblique-66" transform="translate(0 0.015625)"/>
      <use xlink:href="#DejaVuSans-28" transform="translate(35.205078 0.015625)"/>
      <use xlink:href="#DejaVuSans-Oblique-78" transform="translate(74.21875 0.015625)"/>
      <use xlink:href="#DejaVuSans-29" transform="translate(133.398438 0.015625)"/>
      <use xlink:href="#DejaVuSans-2b" transform="translate(191.894531 0.015625)"/>
      <use xlink:href="#DejaVuSans-Oblique-63" transform="translate(295.166016 0.015625)"/>
     </g>
    </g>
    <g id="line2d_4">
     <path d="M 339.82 69.250125 
L 349.82 69.250125 
L 359.82 69.250125 
" style="fill: none; stroke: #dc143c; stroke-width: 1.5; stroke-linecap: square"/>
    </g>
    <g id="text_6">
     <!-- $g(x) + c$ -->
     <g transform="translate(367.82 72.750125) scale(0.1 -0.1)">
      <defs>
       <path id="DejaVuSans-Oblique-67" d="M 3816 3500 
L 3219 434 
Q 3047 -456 2561 -893 
Q 2075 -1331 1253 -1331 
Q 950 -1331 690 -1286 
Q 431 -1241 206 -1147 
L 313 -588 
Q 525 -725 762 -790 
Q 1000 -856 1269 -856 
Q 1816 -856 2167 -557 
Q 2519 -259 2631 300 
L 2681 563 
Q 2441 288 2122 144 
Q 1803 0 1434 0 
Q 903 0 598 351 
Q 294 703 294 1319 
Q 294 1803 478 2267 
Q 663 2731 997 3091 
Q 1219 3328 1514 3456 
Q 1809 3584 2131 3584 
Q 2484 3584 2746 3420 
Q 3009 3256 3138 2956 
L 3238 3500 
L 3816 3500 
z
M 2950 2216 
Q 2950 2641 2750 2872 
Q 2550 3103 2181 3103 
Q 1953 3103 1747 3012 
Q 1541 2922 1394 2759 
Q 1156 2491 1023 2127 
Q 891 1763 891 1375 
Q 891 944 1092 712 
Q 1294 481 1672 481 
Q 2219 481 2584 976 
Q 2950 1472 2950 2216 
z
" transform="scale(0.015625)"/>
      </defs>
      <use xlink:href="#DejaVuSans-Oblique-67" transform="translate(0 0.125)"/>
      <use xlink:href="#DejaVuSans-28" transform="translate(63.476562 0.125)"/>
      <use xlink:href="#DejaVuSans-Oblique-78" transform="translate(102.490234 0.125)"/>
      <use xlink:href="#DejaVuSans-29" transform="translate(161.669922 0.125)"/>
      <use xlink:href="#DejaVuSans-2b" transform="translate(220.166016 0.125)"/>
      <use xlink:href="#DejaVuSans-Oblique-63" transform="translate(323.4375 0.125)"/>
     </g>
    </g>
   </g>
  </g>
 </g>
 <defs>
  <clipPath id="peb3d2eba7c">
   <rect x="57.6" y="41.472" width="357.12" height="266.112"/>
  </clipPath>
 </defs>
</svg>
