<svg version="1.1" id="Layer_1" xmlns="http://www.w3.org/2000/svg" xmlns:xlink="http://www.w3.org/1999/xlink" x="0px" y="0px"
	 width="100%" viewBox="0 0 1080 1080" enable-background="new 0 0 1080 1080" xml:space="preserve">
<path fill="#000000" opacity="0.000000" stroke="none" 
	d="
M717.000000,1081.000000 
	C478.027527,1081.000000 239.555038,1081.000000 1.041282,1081.000000 
	C1.041282,721.069092 1.041282,361.138123 1.041282,1.103596 
	C360.889374,1.103596 720.778809,1.103596 1080.834106,1.103596 
	C1080.834106,360.999939 1080.834106,720.999939 1080.834106,1081.000000 
	C959.804382,1081.000000 838.652161,1081.000000 717.000000,1081.000000 
M569.500000,844.992798 
	C626.301880,844.992798 683.103699,844.992798 739.989868,844.992798 
	C740.169067,843.051086 740.315979,841.458984 740.467651,839.816162 
	C742.410522,839.536499 744.018555,839.304993 745.552368,839.084229 
	C745.552368,581.825500 745.552368,324.761963 745.552368,68.227150 
	C741.883911,67.062508 738.685608,66.047142 735.290955,64.969429 
	C550.213684,321.972626 365.056458,579.086792 180.711502,835.072998 
	C182.550873,838.770996 183.909973,841.503296 185.645660,844.992798 
	C312.593201,844.992798 440.546600,844.992798 569.500000,844.992798 
M843.280273,451.784454 
	C843.436401,445.495087 844.452576,439.082672 843.574280,432.941254 
	C841.587708,419.051605 831.970947,411.307922 819.376099,412.231323 
	C812.234802,412.754913 806.604675,416.070160 801.279297,422.835632 
	C801.279297,411.137177 801.279297,400.965973 801.279297,390.797882 
	C798.176147,390.797882 795.720276,390.797882 793.068115,390.797882 
	C793.068115,417.223480 793.068115,443.467621 793.068115,469.755341 
	C795.799622,469.755341 798.381226,469.755341 801.019226,469.755341 
	C801.182800,467.295074 801.329773,465.083466 801.504822,462.449860 
	C817.807312,478.734253 839.990845,470.134857 843.280273,451.784454 
M496.297577,900.819519 
	C497.293915,900.897339 498.312622,900.868469 499.282654,901.071777 
	C503.067078,901.865112 505.642334,903.892456 505.949341,908.025024 
	C506.246887,912.030823 503.962952,914.194885 500.472748,915.330261 
	C498.269867,916.046875 495.984467,916.505371 493.757385,917.153137 
	C488.832916,918.585693 483.691406,919.554810 479.061310,921.648315 
	C472.646820,924.548645 470.781372,930.469910 471.319855,937.084534 
	C471.880737,943.974243 475.068878,949.247314 482.109985,951.083374 
	C491.681427,953.579102 500.273285,952.224243 506.390015,943.261963 
	C510.420959,951.596008 514.846069,953.351013 522.660034,949.809570 
	C522.314026,948.005493 521.956360,946.140442 521.613586,944.353394 
	C515.022339,944.396851 514.519531,943.926941 514.490845,937.530518 
	C514.449768,928.366516 514.513245,919.201904 514.454285,910.038025 
	C514.414246,903.822205 512.437927,898.576965 506.548676,895.528870 
	C496.129272,890.136414 480.241943,893.960815 473.236053,903.593140 
	C474.655609,905.497375 476.091980,907.424194 477.769012,909.673889 
	C482.669006,903.724304 488.133667,900.309998 496.297577,900.819519 
M379.339935,440.000763 
	C384.992737,437.239014 388.834259,432.991241 390.562897,426.625000 
	C389.383759,425.923645 388.425781,425.299408 387.417969,424.770020 
	C386.455353,424.264374 385.440918,423.857513 384.502197,423.431244 
	C378.431488,433.148773 373.440582,435.730499 364.395721,434.058899 
	C357.574829,432.798309 352.489166,427.372253 351.397675,418.846588 
	C350.796814,414.153198 350.976440,409.141724 351.942657,404.511200 
	C353.972534,394.782898 360.570190,390.353424 370.430115,390.962341 
	C376.685181,391.348572 380.744263,394.914337 383.912933,400.267578 
	C386.191833,398.635956 388.166840,397.221893 390.181885,395.779144 
	C387.534760,389.495178 382.957489,385.891327 376.901581,384.249939 
	C359.875214,379.635162 345.648895,388.635712 342.439728,405.903534 
	C337.827484,430.721161 355.774872,447.777985 379.339935,440.000763 
z"/>
<path fill="#FBFBFB" opacity="1.000000" stroke="none" 
	d="
M569.000000,844.992798 
	C440.546600,844.992798 312.593201,844.992798 185.645660,844.992798 
	C183.909973,841.503296 182.550873,838.770996 180.711502,835.072998 
	C365.056458,579.086792 550.213684,321.972626 735.290955,64.969429 
	C738.685608,66.047142 741.883911,67.062508 745.552368,68.227150 
	C745.552368,324.761963 745.552368,581.825500 745.552368,839.084229 
	C744.018555,839.304993 742.410522,839.536499 740.467651,839.816162 
	C740.315979,841.458984 740.169067,843.051086 739.989868,844.992798 
	C683.103699,844.992798 626.301880,844.992798 569.000000,844.992798 
M734.856079,530.500061 
	C734.856079,382.421600 734.856079,234.343109 734.856079,86.264641 
	C734.522095,86.142525 734.188171,86.020416 733.854187,85.898308 
	C554.447388,335.027191 375.040649,584.156067 195.334518,833.700684 
	C344.200104,833.700684 492.114960,833.700684 640.513245,833.700684 
	C640.513245,824.532593 640.513245,815.632568 640.513245,806.631714 
	C644.268616,806.631714 647.538696,806.631714 651.227173,806.631714 
	C651.227173,815.766418 651.227173,824.697388 651.227173,833.739380 
	C679.244202,833.739380 706.839966,833.739380 734.856079,833.739380 
	C734.856079,732.837036 734.856079,632.168579 734.856079,530.500061 
z"/>
<path fill="#FBFBFB" opacity="1.000000" stroke="none" 
	d="
M843.185486,452.182770 
	C839.990845,470.134857 817.807312,478.734253 801.504822,462.449860 
	C801.329773,465.083466 801.182800,467.295074 801.019226,469.755341 
	C798.381226,469.755341 795.799622,469.755341 793.068115,469.755341 
	C793.068115,443.467621 793.068115,417.223480 793.068115,390.797882 
	C795.720276,390.797882 798.176147,390.797882 801.279297,390.797882 
	C801.279297,400.965973 801.279297,411.137177 801.279297,422.835632 
	C806.604675,416.070160 812.234802,412.754913 819.376099,412.231323 
	C831.970947,411.307922 841.587708,419.051605 843.574280,432.941254 
	C844.452576,439.082672 843.436401,445.495087 843.185486,452.182770 
M802.915833,430.737030 
	C800.570984,438.260468 800.488464,445.822632 803.136780,453.234894 
	C805.616638,460.175659 811.824585,463.831329 819.651917,463.449860 
	C827.340576,463.075195 832.333435,459.609314 833.993958,452.088898 
	C835.118530,446.996124 835.299133,441.560333 835.026855,436.323456 
	C834.552063,427.190887 829.710388,421.458374 822.291016,420.124573 
	C813.752441,418.589539 807.409668,421.850464 802.915833,430.737030 
z"/>
<path fill="#F6F6F6" opacity="1.000000" stroke="none" 
	d="
M495.859558,900.801697 
	C488.133667,900.309998 482.669006,903.724304 477.769012,909.673889 
	C476.091980,907.424194 474.655609,905.497375 473.236053,903.593140 
	C480.241943,893.960815 496.129272,890.136414 506.548676,895.528870 
	C512.437927,898.576965 514.414246,903.822205 514.454285,910.038025 
	C514.513245,919.201904 514.449768,928.366516 514.490845,937.530518 
	C514.519531,943.926941 515.022339,944.396851 521.613586,944.353394 
	C521.956360,946.140442 522.314026,948.005493 522.660034,949.809570 
	C514.846069,953.351013 510.420959,951.596008 506.390015,943.261963 
	C500.273285,952.224243 491.681427,953.579102 482.109985,951.083374 
	C475.068878,949.247314 471.880737,943.974243 471.319855,937.084534 
	C470.781372,930.469910 472.646820,924.548645 479.061310,921.648315 
	C483.691406,919.554810 488.832916,918.585693 493.757385,917.153137 
	C495.984467,916.505371 498.269867,916.046875 500.472748,915.330261 
	C503.962952,914.194885 506.246887,912.030823 505.949341,908.025024 
	C505.642334,903.892456 503.067078,901.865112 499.282654,901.071777 
	C498.312622,900.868469 497.293915,900.897339 495.859558,900.801697 
M503.868469,938.079895 
	C504.909546,932.516052 505.950653,926.952209 507.048981,921.082581 
	C499.339661,922.943481 492.860840,924.217651 486.570557,926.116272 
	C481.417358,927.671692 479.322021,931.723450 480.074554,937.005005 
	C480.765076,941.851746 484.025604,944.711060 489.281433,945.156982 
	C495.219727,945.660828 500.097565,943.880371 503.868469,938.079895 
z"/>
<path fill="#F6F6F6" opacity="1.000000" stroke="none" 
	d="
M378.973450,440.138428 
	C355.774872,447.777985 337.827484,430.721161 342.439728,405.903534 
	C345.648895,388.635712 359.875214,379.635162 376.901581,384.249939 
	C382.957489,385.891327 387.534760,389.495178 390.181885,395.779144 
	C388.166840,397.221893 386.191833,398.635956 383.912933,400.267578 
	C380.744263,394.914337 376.685181,391.348572 370.430115,390.962341 
	C360.570190,390.353424 353.972534,394.782898 351.942657,404.511200 
	C350.976440,409.141724 350.796814,414.153198 351.397675,418.846588 
	C352.489166,427.372253 357.574829,432.798309 364.395721,434.058899 
	C373.440582,435.730499 378.431488,433.148773 384.502197,423.431244 
	C385.440918,423.857513 386.455353,424.264374 387.417969,424.770020 
	C388.425781,425.299408 389.383759,425.923645 390.562897,426.625000 
	C388.834259,432.991241 384.992737,437.239014 378.973450,440.138428 
z"/>
<path fill="#000000" opacity="0.000000" stroke="none" 
	d="
M734.856079,531.000122 
	C734.856079,632.168579 734.856079,732.837036 734.856079,833.739380 
	C706.839966,833.739380 679.244202,833.739380 651.227173,833.739380 
	C651.227173,824.697388 651.227173,815.766418 651.227173,806.631714 
	C647.538696,806.631714 644.268616,806.631714 640.513245,806.631714 
	C640.513245,815.632568 640.513245,824.532593 640.513245,833.700684 
	C492.114960,833.700684 344.200104,833.700684 195.334518,833.700684 
	C375.040649,584.156067 554.447388,335.027191 733.854187,85.898308 
	C734.188171,86.020416 734.522095,86.142525 734.856079,86.264641 
	C734.856079,234.343109 734.856079,382.421600 734.856079,531.000122 
M678.713928,737.987976 
	C667.879578,737.987976 657.045166,737.987976 646.060852,737.987976 
	C645.953125,739.391602 645.830383,740.991089 645.698120,742.714172 
	C643.817566,742.867004 642.224915,742.996399 640.522095,743.134766 
	C640.522095,745.933777 640.522095,748.487427 640.522095,751.678955 
	C644.207153,751.392883 649.094910,752.383301 650.593384,750.571106 
	C652.757141,747.954407 654.731079,748.440857 656.933960,748.401611 
	C664.186096,748.272217 671.442078,748.352844 678.916626,748.352844 
	C678.916626,744.834167 678.916626,741.858643 678.713928,737.987976 
M651.300842,786.385620 
	C651.300842,778.474609 651.300842,770.563599 651.300842,762.767029 
	C647.294067,762.767029 643.898682,762.767029 640.599976,762.767029 
	C640.599976,773.808289 640.599976,784.475891 640.599976,795.111267 
	C644.336853,795.111267 647.708496,795.111267 651.300842,795.111267 
	C651.300842,792.281738 651.300842,789.811707 651.300842,786.385620 
M705.502930,737.288696 
	C700.405701,737.288696 695.308411,737.288696 690.157837,737.288696 
	C690.157837,741.248840 690.157837,744.650208 690.157837,748.123291 
	C701.166992,748.123291 711.909119,748.123291 722.635376,748.123291 
	C722.635376,744.481934 722.635376,741.079041 722.635376,737.288696 
	C717.062683,737.288696 711.781189,737.288696 705.502930,737.288696 
z"/>
<path fill="#030303" opacity="0.000000" stroke="none" 
	d="
M803.020813,430.357361 
	C807.409668,421.850464 813.752441,418.589539 822.291016,420.124573 
	C829.710388,421.458374 834.552063,427.190887 835.026855,436.323456 
	C835.299133,441.560333 835.118530,446.996124 833.993958,452.088898 
	C832.333435,459.609314 827.340576,463.075195 819.651917,463.449860 
	C811.824585,463.831329 805.616638,460.175659 803.136780,453.234894 
	C800.488464,445.822632 800.570984,438.260468 803.020813,430.357361 
z"/>
<path fill="#030303" opacity="0.000000" stroke="none" 
	d="
M503.664032,938.404358 
	C500.097565,943.880371 495.219727,945.660828 489.281433,945.156982 
	C484.025604,944.711060 480.765076,941.851746 480.074554,937.005005 
	C479.322021,931.723450 481.417358,927.671692 486.570557,926.116272 
	C492.860840,924.217651 499.339661,922.943481 507.048981,921.082581 
	C505.950653,926.952209 504.909546,932.516052 503.664032,938.404358 
z"/>
<path fill="#F6F6F6" opacity="1.000000" stroke="none" 
	d="
M678.815308,738.435547 
	C678.916626,741.858643 678.916626,744.834167 678.916626,748.352844 
	C671.442078,748.352844 664.186096,748.272217 656.933960,748.401611 
	C654.731079,748.440857 652.757141,747.954407 650.593384,750.571106 
	C649.094910,752.383301 644.207153,751.392883 640.522095,751.678955 
	C640.522095,748.487427 640.522095,745.933777 640.522095,743.134766 
	C642.224915,742.996399 643.817566,742.867004 645.698120,742.714172 
	C645.830383,740.991089 645.953125,739.391602 646.060852,737.987976 
	C657.045166,737.987976 667.879578,737.987976 678.815308,738.435547 
z"/>
<path fill="#F6F6F6" opacity="1.000000" stroke="none" 
	d="
M651.300842,786.863647 
	C651.300842,789.811707 651.300842,792.281738 651.300842,795.111267 
	C647.708496,795.111267 644.336853,795.111267 640.599976,795.111267 
	C640.599976,784.475891 640.599976,773.808289 640.599976,762.767029 
	C643.898682,762.767029 647.294067,762.767029 651.300842,762.767029 
	C651.300842,770.563599 651.300842,778.474609 651.300842,786.863647 
z"/>
<path fill="#F6F6F6" opacity="1.000000" stroke="none" 
	d="
M706.001343,737.288696 
	C711.781189,737.288696 717.062683,737.288696 722.635376,737.288696 
	C722.635376,741.079041 722.635376,744.481934 722.635376,748.123291 
	C711.909119,748.123291 701.166992,748.123291 690.157837,748.123291 
	C690.157837,744.650208 690.157837,741.248840 690.157837,737.288696 
	C695.308411,737.288696 700.405701,737.288696 706.001343,737.288696 
z"/>
</svg>