<svg version="1.1" id="Layer_1" xmlns="http://www.w3.org/2000/svg" xmlns:xlink="http://www.w3.org/1999/xlink" x="0px" y="0px"
	 width="100%" viewBox="0 0 1024 1024" enable-background="new 0 0 1024 1024" xml:space="preserve">
<path fill="#000000" opacity="1.000000" stroke="none" 
	d="
M380.999939,820.272705 
	C304.342468,820.266418 228.185013,820.264282 152.027557,820.228760 
	C150.078110,820.227844 147.234070,821.128540 146.377228,819.426636 
	C145.002533,816.696045 143.453461,814.073059 142.091782,811.357300 
	C141.477203,810.131531 143.168060,808.712158 144.036514,807.506592 
	C182.987991,753.432739 221.958984,699.372925 260.895813,645.288513 
	C313.167297,572.681885 365.392120,500.041748 417.675110,427.443512 
	C473.561401,349.841858 529.495911,272.275024 585.401672,194.687363 
	C612.185181,157.516373 638.944397,120.327866 665.745850,83.169777 
	C666.919128,81.543083 667.992371,78.567818 670.617493,80.373253 
	C673.406555,82.291534 678.647827,80.555801 678.516907,87.170845 
	C678.052368,110.658737 678.344910,134.161560 678.345093,157.658722 
	C678.346741,374.132599 678.347412,590.606506 678.347717,807.080383 
	C678.347778,816.343628 674.366943,820.258179 664.964783,820.258545 
	C570.476501,820.262695 475.988251,820.267639 380.999939,820.272705 
M664.679260,728.290527 
	C662.053101,725.346436 661.671631,719.005615 664.426147,718.099243 
	C667.637939,717.042358 667.411377,714.865967 667.444641,712.654785 
	C667.567383,704.500366 667.568054,696.343750 667.568542,688.187927 
	C667.573608,605.364868 667.568115,522.541870 667.568298,439.718811 
	C667.568481,352.719055 667.597473,265.719299 667.552917,178.719543 
	C667.543396,160.057983 667.179565,141.396606 667.169861,122.735046 
	C667.166321,115.847130 667.872864,108.954460 666.705872,101.013252 
	C496.692383,337.122894 327.255280,572.432068 157.670929,807.945740 
	C160.773193,809.562500 163.300568,808.963623 165.712753,808.964417 
	C295.879059,809.009094 426.045349,809.013977 556.211670,809.023376 
	C561.044983,809.023743 565.878357,809.040405 570.711609,809.026184 
	C577.747620,809.005493 577.751709,808.996521 577.764465,801.730896 
	C577.772095,797.397583 577.945312,793.054565 577.713379,788.733643 
	C577.476440,784.320251 580.099487,783.944702 583.444824,783.937683 
	C586.820923,783.930603 589.393494,784.434448 589.261353,788.752136 
	C589.103455,793.913635 589.356934,799.087585 589.205627,804.249512 
	C589.107178,807.607483 590.285339,809.060547 593.808167,809.046814 
	C616.641052,808.957581 639.474609,808.953430 662.307495,809.044861 
	C666.032654,809.059814 667.328064,807.450745 667.302612,803.938538 
	C667.133362,780.611511 666.751526,757.283752 667.489990,733.957092 
	C667.551514,732.013611 668.352661,729.420288 664.679260,728.290527 
z"/>
<path fill="#000000" opacity="1.000000" stroke="none" 
	d="
M778.955566,411.816345 
	C783.464172,414.835083 786.082458,418.778412 787.520264,423.564606 
	C790.125122,432.235626 790.441956,440.998230 787.610229,449.601929 
	C782.414490,465.388153 764.458496,470.452454 751.621887,459.941254 
	C750.869080,459.324799 750.135925,458.684204 749.378967,458.042328 
	C747.279175,459.676086 749.548645,462.963654 746.569946,464.078247 
	C742.666504,465.538910 739.711243,463.666534 739.701965,459.301636 
	C739.654907,437.138428 739.705933,414.974945 739.650330,392.811737 
	C739.642456,389.683563 740.310364,387.763428 744.043091,387.768951 
	C747.780701,387.774475 748.425415,389.676697 748.376343,392.818817 
	C748.257080,400.442352 748.337524,408.069031 748.337524,417.160706 
	C757.929443,407.831451 767.774414,406.014252 778.955566,411.816345 
M758.073486,455.716461 
	C769.115173,459.254517 777.263123,455.170898 779.299377,444.595245 
	C780.395508,438.902313 780.345642,433.045685 778.836365,427.313141 
	C777.507751,422.266602 774.633606,418.462463 769.440918,417.399231 
	C763.611450,416.205597 757.994873,416.450745 753.326782,421.313843 
	C746.695618,428.222076 745.968018,450.321228 758.073486,455.716461 
z"/>
<path fill="#000000" opacity="1.000000" stroke="none" 
	d="
M445.089478,948.694763 
	C444.976990,952.303772 445.528992,954.710205 449.562195,954.821899 
	C451.912018,954.887024 452.150726,957.094299 452.158173,958.978271 
	C452.166351,961.044373 450.730865,961.850037 448.948914,962.159180 
	C443.381836,963.124817 439.123444,961.300537 436.351227,955.401184 
	C431.492096,961.627991 425.310699,963.716309 418.075287,963.124939 
	C409.526978,962.426392 404.240723,957.613281 402.911224,949.192749 
	C401.714417,941.612671 405.345764,935.155518 412.708496,931.982910 
	C417.019806,930.125122 421.665436,929.498901 426.217896,928.514954 
	C433.121094,927.022949 436.216675,924.126709 435.528107,920.100586 
	C434.822906,915.977051 431.048248,914.080505 424.249908,914.303589 
	C420.227509,914.435486 416.848846,915.964966 413.851593,918.568787 
	C412.492859,919.749084 411.520203,921.445679 409.613464,921.914795 
	C403.913696,917.689026 403.774231,915.480713 409.298401,911.423950 
	C417.456879,905.432739 426.430115,904.434326 435.823364,907.937622 
	C440.953796,909.850952 443.682159,913.920593 444.424438,919.284119 
	C445.756012,928.905396 444.711700,938.587097 445.089478,948.694763 
M417.294098,938.624390 
	C412.569397,941.611328 411.056915,945.201172 412.754944,949.835815 
	C414.443909,954.445801 418.169128,955.798523 422.675446,955.598572 
	C432.429596,955.165710 438.340485,944.762817 434.688721,933.943909 
	C429.402435,936.434570 423.498993,936.503784 417.294098,938.624390 
z"/>
<path fill="#000000" opacity="1.000000" stroke="none" 
	d="
M330.837036,398.137451 
	C321.823395,386.345673 321.064087,373.833160 327.331604,361.245789 
	C335.796753,344.244934 359.827667,346.505035 367.097351,355.732025 
	C369.221252,358.427795 371.445679,361.102753 366.950714,363.852203 
	C364.702454,365.227386 363.182098,365.353546 361.524078,363.007812 
	C357.115326,356.770538 350.705963,356.065979 344.090790,357.853546 
	C337.109985,359.739868 334.310699,365.481354 333.408600,372.140259 
	C333.009705,375.084930 333.164581,378.133148 333.328857,381.120026 
	C333.744781,388.684631 338.131866,394.863617 344.061035,396.493774 
	C351.801819,398.622070 357.674438,396.454285 362.436584,389.217407 
	C363.956512,386.907684 365.235840,386.938171 367.314728,388.061127 
	C369.683197,389.340424 370.985748,390.808167 369.586639,393.625580 
	C366.382843,400.076996 361.170776,404.023376 354.179108,405.067871 
	C345.592773,406.350647 337.572296,404.814087 330.837036,398.137451 
z"/>
<path fill="#000000" opacity="1.000000" stroke="none" 
	d="
M402.154602,335.244629 
	C402.298889,340.783203 399.680725,344.457977 395.858185,347.485016 
	C392.345917,350.266327 388.824554,353.036255 385.331207,355.841064 
	C385.117950,356.012238 385.115204,356.445648 384.909821,357.080933 
	C388.891907,358.688141 393.034637,357.517090 397.046783,357.797241 
	C399.412903,357.962433 401.919586,357.710938 402.064484,361.132721 
	C402.221649,364.844391 399.591034,364.946075 397.002991,364.962769 
	C391.680267,364.997162 386.353333,364.828247 381.035065,364.981964 
	C376.425507,365.115173 375.211365,362.786926 375.879974,358.722626 
	C376.470581,355.132294 378.034088,352.104584 380.943542,349.848206 
	C383.966187,347.504089 387.023865,345.204712 390.026123,342.834991 
	C392.954376,340.523743 395.247498,337.798004 392.954895,333.930908 
	C391.467957,331.422729 386.252899,331.555298 383.038452,334.365753 
	C380.767120,336.351654 379.133881,337.271881 376.987946,334.413361 
	C375.629486,332.603821 375.667206,331.121002 377.318420,329.626892 
	C382.009674,325.382019 387.414001,324.276428 393.533600,325.656372 
	C398.565613,326.791077 401.208832,329.946686 402.154602,335.244629 
z"/>
<path fill="#000000" opacity="1.000000" stroke="none" 
	d="
M482.285645,894.807739 
	C481.526947,900.961304 477.059235,903.853027 473.146851,907.166382 
	C470.318817,909.561340 466.717590,911.143555 464.442963,915.120789 
	C469.271606,916.114197 473.561829,915.472412 477.794220,915.663025 
	C480.029266,915.763672 482.208679,915.653442 482.235992,918.903320 
	C482.262238,922.019531 480.351685,922.349915 477.963074,922.338379 
	C471.970490,922.309509 465.976501,922.252563 459.985443,922.350708 
	C456.639069,922.405457 455.492920,920.758972 455.847626,917.692261 
	C456.367340,913.198975 458.191589,909.413086 461.881531,906.629272 
	C464.802155,904.425720 467.736908,902.235352 470.566864,899.918762 
	C473.156311,897.799011 475.524475,894.897339 473.168793,891.821594 
	C470.671997,888.561707 466.887054,889.695740 463.654724,891.468445 
	C462.505920,892.098389 461.633820,893.393555 460.444794,893.751221 
	C458.735291,894.265381 457.853149,892.624207 456.906128,891.510925 
	C455.955292,890.392883 455.804901,889.274292 456.705750,887.900757 
	C459.314697,883.922913 467.255981,881.702271 473.663422,883.294617 
	C479.570831,884.762817 481.841248,887.679016 482.285645,894.807739 
z"/>
<path fill="#000000" opacity="1.000000" stroke="none" 
	d="
M799.691772,395.452820 
	C796.149719,392.615723 796.644470,390.384033 799.933411,388.179230 
	C805.333252,384.559387 811.048584,383.902466 817.035828,386.252258 
	C823.178772,388.663177 825.261047,396.261780 821.535400,402.222382 
	C819.179321,405.991821 815.467102,408.325653 812.140137,411.076996 
	C810.011902,412.837036 807.229675,413.906830 805.749451,416.966492 
	C810.102783,418.443085 814.398315,417.425720 818.587585,417.667297 
	C821.090210,417.811584 823.335144,417.895447 823.200806,421.334412 
	C823.072388,424.622803 820.722656,424.362579 818.567932,424.375122 
	C812.907349,424.408112 807.240967,424.229095 801.587402,424.429993 
	C797.292969,424.582581 796.440796,422.424530 797.022888,418.806458 
	C797.689209,414.664948 799.561584,411.301727 803.011780,408.820343 
	C805.984131,406.682587 808.963440,404.540466 811.789612,402.217712 
	C814.409302,400.064667 816.389587,397.030487 814.151184,393.986694 
	C811.811707,390.805481 808.241150,391.984558 805.067322,393.432495 
	C803.383179,394.200775 802.523499,396.855347 799.691772,395.452820 
z"/>
<path fill="#000000" opacity="1.000000" stroke="none" 
	d="
M609.992554,728.490845 
	C604.087891,728.499756 598.609253,728.495178 593.131104,728.546082 
	C591.000549,728.565857 589.301575,728.941772 589.144104,731.774658 
	C588.830444,737.416260 584.365295,734.892395 581.534241,735.256653 
	C578.318909,735.670471 577.862061,733.409668 577.748535,730.790588 
	C577.389832,722.511047 581.902161,717.696899 590.227295,717.678345 
	C596.703430,717.663879 603.180359,717.720825 609.655334,717.629822 
	C612.446899,717.590698 614.312195,718.495605 614.071228,721.539917 
	C613.852356,724.304382 615.827637,728.400024 609.992554,728.490845 
z"/>
<path fill="#000000" opacity="1.000000" stroke="none" 
	d="
M577.763062,764.961304 
	C577.765503,759.155212 577.877563,753.839050 577.738159,748.529419 
	C577.619080,743.993713 580.658325,744.078613 583.767761,744.002502 
	C586.970337,743.924011 589.312622,744.601196 589.249634,748.588684 
	C589.131714,756.058655 589.098083,763.533997 589.247986,771.002686 
	C589.341248,775.650513 586.301147,775.286194 583.216431,775.360657 
	C580.040771,775.437378 577.506897,775.036133 577.764099,770.932007 
	C577.878052,769.113159 577.770508,767.280396 577.763062,764.961304 
z"/>
<path fill="#000000" opacity="1.000000" stroke="none" 
	d="
M653.096069,718.705627 
	C653.536133,720.713989 653.801819,722.347778 653.897095,723.991516 
	C654.074280,727.047668 652.789001,728.514160 649.502075,728.458191 
	C641.863586,728.328247 634.220459,728.399780 626.580200,728.484192 
	C623.848022,728.514343 622.408508,727.373413 622.789795,724.637268 
	C623.135559,722.155518 621.182861,718.019104 625.569092,717.893738 
	C634.650146,717.634094 643.779297,716.827454 653.096069,718.705627 
z"/>
</svg>