<svg version="1.1" id="Layer_1" xmlns="http://www.w3.org/2000/svg" xmlns:xlink="http://www.w3.org/1999/xlink" x="0px" y="0px"
	 width="100%" viewBox="0 0 1080 1080" enable-background="new 0 0 1080 1080" xml:space="preserve">
<path fill="#000000" opacity="0.000000" stroke="none" 
	d="
M714.000000,1081.000000 
	C476.027405,1081.000000 238.554810,1081.000000 1.041109,1081.000000 
	C1.041109,721.068970 1.041109,361.137909 1.041109,1.103423 
	C360.889496,1.103423 720.779053,1.103423 1080.834229,1.103423 
	C1080.834229,360.999939 1080.834229,720.999939 1080.834229,1081.000000 
	C958.804138,1081.000000 836.652039,1081.000000 714.000000,1081.000000 
M633.499695,932.568420 
	C674.461182,932.568420 715.422668,932.568420 756.580383,932.568420 
	C756.762146,930.519165 756.902832,928.933228 757.054077,927.228271 
	C758.817444,927.061401 760.410217,926.910645 761.985229,926.761658 
	C761.985229,669.456116 761.985229,412.373566 761.985229,155.862930 
	C758.469971,154.682434 755.309631,153.621155 751.770325,152.432587 
	C566.831787,409.235229 381.644379,666.383423 197.263519,922.411682 
	C199.191559,926.407104 200.595505,929.316528 202.164734,932.568420 
	C345.201813,932.568420 488.850739,932.568420 633.499695,932.568420 
M832.031311,995.484924 
	C828.784973,993.479553 825.538696,991.474182 822.243103,989.438416 
	C831.241028,983.403015 834.044495,976.985413 831.516785,968.413208 
	C829.242737,960.701050 822.521545,956.240784 812.524719,956.017273 
	C806.204346,955.875916 799.878845,955.957153 793.555664,955.945129 
	C789.819275,955.938049 786.082886,955.943848 782.539673,955.943848 
	C782.539673,981.437317 782.539673,1006.139709 782.539673,1030.949585 
	C794.031860,1030.949585 805.185364,1031.229980 816.316956,1030.856567 
	C824.520691,1030.581665 831.881104,1027.750977 835.242981,1019.453674 
	C838.540100,1011.316162 838.541016,1003.226868 832.031311,995.484924 
M174.779358,1021.883545 
	C177.867188,1031.663574 177.867188,1031.663574 187.041031,1030.635864 
	C186.811783,1029.826660 186.630768,1029.036499 186.366150,1028.275391 
	C178.414093,1005.404724 170.267792,982.598877 162.629883,959.623901 
	C160.798019,954.113525 157.016464,956.435974 153.831024,955.974548 
	C150.639648,955.512329 148.559830,956.137207 147.275665,959.962708 
	C139.729736,982.442749 131.795502,1004.792297 124.009354,1027.191895 
	C123.611458,1028.336548 123.372711,1029.536499 123.020287,1030.859131 
	C126.243523,1030.859131 129.033936,1030.859131 132.061890,1030.859131 
	C133.834641,1025.623657 135.791489,1020.507751 137.266846,1015.256653 
	C138.269409,1011.688293 139.864685,1010.098145 143.831619,1010.400085 
	C149.124817,1010.802917 154.471756,1010.499634 159.795609,1010.499634 
	C170.992294,1010.499634 170.992294,1010.499573 174.779358,1021.883545 
M862.082947,118.511642 
	C850.273010,130.149796 830.100891,126.199379 824.098877,110.776573 
	C819.908936,100.010025 820.013916,88.869896 824.124756,78.078712 
	C827.613831,68.919685 834.737793,64.397652 844.541504,63.921150 
	C854.351196,63.444359 862.124939,66.703728 866.768188,76.176819 
	C869.237183,74.548798 871.251282,73.220726 874.368225,71.165443 
	C870.633301,67.235443 867.889893,63.077602 864.068726,60.547405 
	C847.198547,49.376747 822.680969,57.274124 814.980591,75.962448 
	C811.717407,83.882065 811.414795,92.145027 812.008240,100.515373 
	C813.519836,121.834457 829.397766,135.151123 850.584351,132.897095 
	C862.700378,131.608078 872.187134,123.063698 873.471680,112.154747 
	C871.454163,111.230171 869.398743,110.288216 867.336792,109.343277 
	C865.593872,112.492989 864.083496,115.222534 862.082947,118.511642 
z"/>
<path fill="#F8F8F8" opacity="1.000000" stroke="none" 
	d="
M632.999634,932.568420 
	C488.850739,932.568420 345.201813,932.568420 202.164734,932.568420 
	C200.595505,929.316528 199.191559,926.407104 197.263519,922.411682 
	C381.644379,666.383423 566.831787,409.235229 751.770325,152.432587 
	C755.309631,153.621155 758.469971,154.682434 761.985229,155.862930 
	C761.985229,412.373566 761.985229,669.456116 761.985229,926.761658 
	C760.410217,926.910645 758.817444,927.061401 757.054077,927.228271 
	C756.902832,928.933228 756.762146,930.519165 756.580383,932.568420 
	C715.422668,932.568420 674.461182,932.568420 632.999634,932.568420 
M751.143921,552.500061 
	C751.143921,426.191711 751.143921,299.883362 751.143921,172.251373 
	C594.323792,390.018097 438.429443,606.499207 282.105469,823.576904 
	C288.533264,822.975525 293.840302,821.870789 299.087280,822.105957 
	C312.992126,822.729187 325.244232,826.733948 331.774994,840.653687 
	C332.460388,842.114502 333.605957,843.461914 334.813446,844.558655 
	C343.112823,852.096802 348.364075,861.140991 349.256592,872.519714 
	C349.381042,874.106689 350.407227,875.605042 350.867737,877.187561 
	C351.647400,879.866638 352.769562,882.551392 352.940399,885.284180 
	C353.693604,897.335144 354.724854,909.448547 349.739685,921.233276 
	C452.286713,921.233276 554.363586,921.233276 656.924683,921.233276 
	C656.924683,912.067139 656.924683,903.162842 656.924683,894.291687 
	C660.819397,894.291687 664.221313,894.291687 668.052002,894.291687 
	C668.052002,903.509094 668.052002,912.434448 668.052002,921.240417 
	C695.921448,921.240417 723.347473,921.240417 751.143921,921.240417 
	C751.143921,798.482788 751.143921,675.991455 751.143921,552.500061 
M267.435852,843.930237 
	C249.030853,869.495850 230.625854,895.061462 211.763443,921.262451 
	C251.652542,921.262451 290.546204,921.262451 328.834991,921.262451 
	C330.582092,919.261353 331.741669,916.707825 333.567810,916.073547 
	C338.833771,914.244507 340.007965,910.155884 340.387726,905.560120 
	C341.116974,896.734802 339.268036,888.306885 337.569427,879.607727 
	C335.060760,866.760010 328.970001,856.300720 321.247467,846.529419 
	C315.471954,839.221680 308.209625,833.570862 297.965729,834.191833 
	C293.651428,834.453369 289.252228,834.403137 285.056854,835.282654 
	C278.773346,836.599915 271.448792,836.124451 267.435852,843.930237 
z"/>
<path fill="#F7F7F7" opacity="1.000000" stroke="none" 
	d="
M832.290039,995.739929 
	C838.541016,1003.226868 838.540100,1011.316162 835.242981,1019.453674 
	C831.881104,1027.750977 824.520691,1030.581665 816.316956,1030.856567 
	C805.185364,1031.229980 794.031860,1030.949585 782.539673,1030.949585 
	C782.539673,1006.139709 782.539673,981.437317 782.539673,955.943848 
	C786.082886,955.943848 789.819275,955.938049 793.555664,955.945129 
	C799.878845,955.957153 806.204346,955.875916 812.524719,956.017273 
	C822.521545,956.240784 829.242737,960.701050 831.516785,968.413208 
	C834.044495,976.985413 831.241028,983.403015 822.243103,989.438416 
	C825.538696,991.474182 828.784973,993.479553 832.290039,995.739929 
M827.979248,1006.034363 
	C826.949341,999.574707 822.906189,995.698669 816.687866,995.275513 
	C808.323730,994.706360 799.891846,995.134399 791.546997,995.134399 
	C791.546997,1004.818848 791.546997,1014.160339 791.546997,1023.595215 
	C792.751709,1023.651489 793.569092,1023.722351 794.386536,1023.722717 
	C800.366089,1023.725281 806.351624,1023.881958 812.323975,1023.670837 
	C824.147095,1023.252808 828.293823,1018.725586 827.979248,1006.034363 
M792.025330,963.381653 
	C791.611572,971.191833 791.197815,979.002075 790.756958,987.323181 
	C797.853394,987.323181 804.116394,987.448669 810.372314,987.292480 
	C818.875854,987.080200 823.165894,983.049438 823.276550,975.483826 
	C823.393616,967.484802 819.396545,963.593811 810.370972,963.291992 
	C804.568542,963.097961 798.754578,963.252014 792.025330,963.381653 
z"/>
<path fill="#F9F9F9" opacity="1.000000" stroke="none" 
	d="
M174.614624,1021.521484 
	C170.992294,1010.499573 170.992294,1010.499634 159.795609,1010.499634 
	C154.471756,1010.499634 149.124817,1010.802917 143.831619,1010.400085 
	C139.864685,1010.098145 138.269409,1011.688293 137.266846,1015.256653 
	C135.791489,1020.507751 133.834641,1025.623657 132.061890,1030.859131 
	C129.033936,1030.859131 126.243523,1030.859131 123.020287,1030.859131 
	C123.372711,1029.536499 123.611458,1028.336548 124.009354,1027.191895 
	C131.795502,1004.792297 139.729736,982.442749 147.275665,959.962708 
	C148.559830,956.137207 150.639648,955.512329 153.831024,955.974548 
	C157.016464,956.435974 160.798019,954.113525 162.629883,959.623901 
	C170.267792,982.598877 178.414093,1005.404724 186.366150,1028.275391 
	C186.630768,1029.036499 186.811783,1029.826660 187.041031,1030.635864 
	C177.867188,1031.663574 177.867188,1031.663574 174.614624,1021.521484 
M154.093765,965.853455 
	C149.952026,978.063049 145.810303,990.272583 141.555664,1002.815002 
	C150.657532,1002.815002 159.214325,1002.815002 168.248657,1002.815002 
	C164.036728,990.310242 159.928757,978.090942 155.767975,965.889709 
	C155.660782,965.575378 154.975723,965.458191 154.093765,965.853455 
z"/>
<path fill="#F8F8F8" opacity="1.000000" stroke="none" 
	d="
M862.328003,118.231857 
	C864.083496,115.222534 865.593872,112.492989 867.336792,109.343277 
	C869.398743,110.288216 871.454163,111.230171 873.471680,112.154747 
	C872.187134,123.063698 862.700378,131.608078 850.584351,132.897095 
	C829.397766,135.151123 813.519836,121.834457 812.008240,100.515373 
	C811.414795,92.145027 811.717407,83.882065 814.980591,75.962448 
	C822.680969,57.274124 847.198547,49.376747 864.068726,60.547405 
	C867.889893,63.077602 870.633301,67.235443 874.368225,71.165443 
	C871.251282,73.220726 869.237183,74.548798 866.768188,76.176819 
	C862.124939,66.703728 854.351196,63.444359 844.541504,63.921150 
	C834.737793,64.397652 827.613831,68.919685 824.124756,78.078712 
	C820.013916,88.869896 819.908936,100.010025 824.098877,110.776573 
	C830.100891,126.199379 850.273010,130.149796 862.328003,118.231857 
z"/>
<path fill="#000000" opacity="0.000000" stroke="none" 
	d="
M751.143921,553.000122 
	C751.143921,675.991455 751.143921,798.482788 751.143921,921.240417 
	C723.347473,921.240417 695.921448,921.240417 668.052002,921.240417 
	C668.052002,912.434448 668.052002,903.509094 668.052002,894.291687 
	C664.221313,894.291687 660.819397,894.291687 656.924683,894.291687 
	C656.924683,903.162842 656.924683,912.067139 656.924683,921.233276 
	C554.363586,921.233276 452.286713,921.233276 349.739685,921.233276 
	C354.724854,909.448547 353.693604,897.335144 352.940399,885.284180 
	C352.769562,882.551392 351.647400,879.866638 350.867737,877.187561 
	C350.407227,875.605042 349.381042,874.106689 349.256592,872.519714 
	C348.364075,861.140991 343.112823,852.096802 334.813446,844.558655 
	C333.605957,843.461914 332.460388,842.114502 331.774994,840.653687 
	C325.244232,826.733948 312.992126,822.729187 299.087280,822.105957 
	C293.840302,821.870789 288.533264,822.975525 282.105469,823.576904 
	C438.429443,606.499207 594.323792,390.018097 751.143921,172.251373 
	C751.143921,299.883362 751.143921,426.191711 751.143921,553.000122 
M400.983276,806.477783 
	C399.284424,800.945618 398.210510,795.114807 395.743103,789.949829 
	C391.851715,781.803955 384.571899,778.458984 375.677979,778.553650 
	C366.737976,778.648743 359.679810,782.301697 356.044281,790.594116 
	C353.876221,795.539368 352.304901,800.961487 351.653351,806.313782 
	C350.056091,819.434937 349.935516,832.578918 354.960480,845.190491 
	C357.599243,851.813293 361.752380,856.950195 368.926880,859.076050 
	C382.865753,863.206116 394.766907,856.588806 398.949249,842.018616 
	C402.209229,830.661438 402.620789,819.051086 400.983276,806.477783 
M691.409790,824.964661 
	C681.810364,824.964661 672.210876,824.964661 662.490723,824.964661 
	C662.260132,827.010254 662.081726,828.593201 661.903687,830.172485 
	C660.195740,830.337341 658.747131,830.477234 657.097900,830.636414 
	C657.097900,833.423950 657.097900,836.000854 657.097900,839.126404 
	C660.628540,838.949158 665.844666,840.051208 667.056213,838.331604 
	C669.312744,835.129028 671.673889,836.101624 674.055176,836.041626 
	C680.994019,835.866943 687.940125,835.979614 695.228394,835.979614 
	C695.228394,832.732666 695.444214,829.915527 695.098206,827.169189 
	C694.992981,826.334045 693.338257,825.694214 691.409790,824.964661 
M714.563171,824.964661 
	C711.824585,824.964661 709.085999,824.964661 706.447388,824.964661 
	C706.447388,829.010864 706.447388,832.275452 706.447388,835.753967 
	C717.394897,835.753967 728.107056,835.753967 739.026306,835.753967 
	C739.026306,832.170715 739.026306,828.779602 739.026306,824.964661 
	C731.085571,824.964661 723.317322,824.964661 714.563171,824.964661 
M667.891602,878.334045 
	C667.891602,868.929626 667.891602,859.525269 667.891602,850.352783 
	C663.756287,850.352783 660.348267,850.352783 657.223511,850.352783 
	C657.223511,861.437927 657.223511,872.166260 657.223511,883.012878 
	C659.893066,883.012878 662.234924,882.813538 664.528381,883.061707 
	C667.630676,883.397461 668.247131,881.865662 667.891602,878.334045 
z"/>
<path fill="#030303" opacity="0.000000" stroke="none" 
	d="
M267.659119,843.645813 
	C271.448792,836.124451 278.773346,836.599915 285.056854,835.282654 
	C289.252228,834.403137 293.651428,834.453369 297.965729,834.191833 
	C308.209625,833.570862 315.471954,839.221680 321.247467,846.529419 
	C328.970001,856.300720 335.060760,866.760010 337.569427,879.607727 
	C339.268036,888.306885 341.116974,896.734802 340.387726,905.560120 
	C340.007965,910.155884 338.833771,914.244507 333.567810,916.073547 
	C331.741669,916.707825 330.582092,919.261353 328.834991,921.262451 
	C290.546204,921.262451 251.652542,921.262451 211.763443,921.262451 
	C230.625854,895.061462 249.030853,869.495850 267.659119,843.645813 
z"/>
<path fill="#050505" opacity="0.000000" stroke="none" 
	d="
M828.008911,1006.459961 
	C828.293823,1018.725586 824.147095,1023.252808 812.323975,1023.670837 
	C806.351624,1023.881958 800.366089,1023.725281 794.386536,1023.722717 
	C793.569092,1023.722351 792.751709,1023.651489 791.546997,1023.595215 
	C791.546997,1014.160339 791.546997,1004.818848 791.546997,995.134399 
	C799.891846,995.134399 808.323730,994.706360 816.687866,995.275513 
	C822.906189,995.698669 826.949341,999.574707 828.008911,1006.459961 
z"/>
<path fill="#050505" opacity="0.000000" stroke="none" 
	d="
M792.485535,963.315918 
	C798.754578,963.252014 804.568542,963.097961 810.370972,963.291992 
	C819.396545,963.593811 823.393616,967.484802 823.276550,975.483826 
	C823.165894,983.049438 818.875854,987.080200 810.372314,987.292480 
	C804.116394,987.448669 797.853394,987.323181 790.756958,987.323181 
	C791.197815,979.002075 791.611572,971.191833 792.485535,963.315918 
z"/>
<path fill="#040404" opacity="0.000000" stroke="none" 
	d="
M154.326965,965.551270 
	C154.975723,965.458191 155.660782,965.575378 155.767975,965.889709 
	C159.928757,978.090942 164.036728,990.310242 168.248657,1002.815002 
	C159.214325,1002.815002 150.657532,1002.815002 141.555664,1002.815002 
	C145.810303,990.272583 149.952026,978.063049 154.326965,965.551270 
z"/>
<path fill="#F7F7F7" opacity="1.000000" stroke="none" 
	d="
M401.015503,806.919067 
	C402.620789,819.051086 402.209229,830.661438 398.949249,842.018616 
	C394.766907,856.588806 382.865753,863.206116 368.926880,859.076050 
	C361.752380,856.950195 357.599243,851.813293 354.960480,845.190491 
	C349.935516,832.578918 350.056091,819.434937 351.653351,806.313782 
	C352.304901,800.961487 353.876221,795.539368 356.044281,790.594116 
	C359.679810,782.301697 366.737976,778.648743 375.677979,778.553650 
	C384.571899,778.458984 391.851715,781.803955 395.743103,789.949829 
	C398.210510,795.114807 399.284424,800.945618 401.015503,806.919067 
M363.009735,842.172485 
	C364.950867,847.476135 367.972961,851.563660 374.135590,852.203857 
	C379.515717,852.762695 384.129822,851.391235 387.059753,846.582214 
	C391.619873,839.097412 392.187897,830.803223 392.152435,822.402527 
	C381.101501,822.402527 370.696777,822.402527 360.020782,822.402527 
	C360.383698,826.541504 360.583618,830.363098 361.098511,834.141785 
	C361.432587,836.593567 362.226349,838.982727 363.009735,842.172485 
M390.905792,801.912231 
	C390.321747,800.014343 389.841797,798.076721 389.135071,796.225647 
	C386.496185,789.313904 382.168488,786.060791 375.901917,786.159912 
	C369.860168,786.255554 365.259399,789.488281 363.238586,796.239502 
	C361.553772,801.868164 360.831573,807.785034 359.610321,813.940674 
	C370.974426,813.940674 381.472687,813.940674 392.381012,813.940674 
	C391.897766,809.955627 391.460907,806.353088 390.905792,801.912231 
z"/>
<path fill="#FBFBFB" opacity="1.000000" stroke="none" 
	d="
M691.901489,824.964783 
	C693.338257,825.694214 694.992981,826.334045 695.098206,827.169189 
	C695.444214,829.915527 695.228394,832.732666 695.228394,835.979614 
	C687.940125,835.979614 680.994019,835.866943 674.055176,836.041626 
	C671.673889,836.101624 669.312744,835.129028 667.056213,838.331604 
	C665.844666,840.051208 660.628540,838.949158 657.097900,839.126404 
	C657.097900,836.000854 657.097900,833.423950 657.097900,830.636414 
	C658.747131,830.477234 660.195740,830.337341 661.903687,830.172485 
	C662.081726,828.593201 662.260132,827.010254 662.490723,824.964661 
	C672.210876,824.964661 681.810364,824.964661 691.901489,824.964783 
z"/>
<path fill="#FBFBFB" opacity="1.000000" stroke="none" 
	d="
M715.056152,824.964661 
	C723.317322,824.964661 731.085571,824.964661 739.026306,824.964661 
	C739.026306,828.779602 739.026306,832.170715 739.026306,835.753967 
	C728.107056,835.753967 717.394897,835.753967 706.447388,835.753967 
	C706.447388,832.275452 706.447388,829.010864 706.447388,824.964661 
	C709.085999,824.964661 711.824585,824.964661 715.056152,824.964661 
z"/>
<path fill="#FBFBFB" opacity="1.000000" stroke="none" 
	d="
M667.891602,878.814209 
	C668.247131,881.865662 667.630676,883.397461 664.528381,883.061707 
	C662.234924,882.813538 659.893066,883.012878 657.223511,883.012878 
	C657.223511,872.166260 657.223511,861.437927 657.223511,850.352783 
	C660.348267,850.352783 663.756287,850.352783 667.891602,850.352783 
	C667.891602,859.525269 667.891602,868.929626 667.891602,878.814209 
z"/>
<path fill="#040404" opacity="0.000000" stroke="none" 
	d="
M362.911957,841.786194 
	C362.226349,838.982727 361.432587,836.593567 361.098511,834.141785 
	C360.583618,830.363098 360.383698,826.541504 360.020782,822.402527 
	C370.696777,822.402527 381.101501,822.402527 392.152435,822.402527 
	C392.187897,830.803223 391.619873,839.097412 387.059753,846.582214 
	C384.129822,851.391235 379.515717,852.762695 374.135590,852.203857 
	C367.972961,851.563660 364.950867,847.476135 362.911957,841.786194 
z"/>
<path fill="#040404" opacity="0.000000" stroke="none" 
	d="
M390.964935,802.331421 
	C391.460907,806.353088 391.897766,809.955627 392.381012,813.940674 
	C381.472687,813.940674 370.974426,813.940674 359.610321,813.940674 
	C360.831573,807.785034 361.553772,801.868164 363.238586,796.239502 
	C365.259399,789.488281 369.860168,786.255554 375.901917,786.159912 
	C382.168488,786.060791 386.496185,789.313904 389.135071,796.225647 
	C389.841797,798.076721 390.321747,800.014343 390.964935,802.331421 
z"/>
</svg>