<?xml version="1.0" encoding="utf-8" standalone="no"?>
<!DOCTYPE svg PUBLIC "-//W3C//DTD SVG 1.1//EN"
  "http://www.w3.org/Graphics/SVG/1.1/DTD/svg11.dtd">
<svg xmlns:xlink="http://www.w3.org/1999/xlink" width="460.8pt" height="345.6pt" viewBox="0 0 460.8 345.6" xmlns="http://www.w3.org/2000/svg" version="1.1">
 <metadata>
  <rdf:RDF xmlns:dc="http://purl.org/dc/elements/1.1/" xmlns:cc="http://creativecommons.org/ns#" xmlns:rdf="http://www.w3.org/1999/02/22-rdf-syntax-ns#">
   <cc:Work>
    <dc:type rdf:resource="http://purl.org/dc/dcmitype/StillImage"/>
    <dc:date>2025-03-15T22:04:51.037903</dc:date>
    <dc:format>image/svg+xml</dc:format>
    <dc:creator>
     <cc:Agent>
      <dc:title>Matplotlib v3.8.3, https://matplotlib.org/</dc:title>
     </cc:Agent>
    </dc:creator>
   </cc:Work>
  </rdf:RDF>
 </metadata>
 <defs>
  <style type="text/css">*{stroke-linejoin: round; stroke-linecap: butt}</style>
 </defs>
 <g id="figure_1">
  <g id="patch_1">
   <path d="M 0 345.6 
L 460.8 345.6 
L 460.8 0 
L 0 0 
L 0 345.6 
z
" style="fill: none"/>
  </g>
  <g id="axes_1">
   <g id="patch_2">
    <path d="M 57.6 307.584 
L 414.72 307.584 
L 414.72 41.472 
L 57.6 41.472 
L 57.6 307.584 
z
" style="fill: none"/>
   </g>
   <g id="LineCollection_1">
    <path d="M 57.6 94.6944 
L 414.72 94.6944 
" clip-path="url(#p2db6ed846b)" style="fill: none; stroke: #d3d3d3; stroke-width: 1.5"/>
   </g>
   <g id="LineCollection_2">
    <path d="M 108.617143 307.584 
L 108.617143 41.472 
" clip-path="url(#p2db6ed846b)" style="fill: none; stroke: #d3d3d3; stroke-width: 1.5"/>
   </g>
   <g id="matplotlib.axis_1">
    <g id="xtick_1">
     <g id="line2d_1">
      <defs>
       <path id="m47986c782f" d="M 0 0 
L 0 3.5 
" style="stroke: #d3d3d3; stroke-width: 0.8"/>
      </defs>
      <g>
       <use xlink:href="#m47986c782f" x="57.6" y="307.584" style="fill: #d3d3d3; stroke: #d3d3d3; stroke-width: 0.8"/>
      </g>
     </g>
     <g id="text_1">
      <!-- −1 -->
      <g style="fill: #d3d3d3" transform="translate(50.228906 322.182437) scale(0.1 -0.1)">
       <defs>
        <path id="DejaVuSans-2212" d="M 678 2272 
L 4684 2272 
L 4684 1741 
L 678 1741 
L 678 2272 
z
" transform="scale(0.015625)"/>
        <path id="DejaVuSans-31" d="M 794 531 
L 1825 531 
L 1825 4091 
L 703 3866 
L 703 4441 
L 1819 4666 
L 2450 4666 
L 2450 531 
L 3481 531 
L 3481 0 
L 794 0 
L 794 531 
z
" transform="scale(0.015625)"/>
       </defs>
       <use xlink:href="#DejaVuSans-2212"/>
       <use xlink:href="#DejaVuSans-31" x="83.789062"/>
      </g>
     </g>
    </g>
    <g id="xtick_2">
     <g id="line2d_2">
      <g>
       <use xlink:href="#m47986c782f" x="108.617143" y="307.584" style="fill: #d3d3d3; stroke: #d3d3d3; stroke-width: 0.8"/>
      </g>
     </g>
     <g id="text_2">
      <!-- 0 -->
      <g style="fill: #d3d3d3" transform="translate(105.435893 322.182437) scale(0.1 -0.1)">
       <defs>
        <path id="DejaVuSans-30" d="M 2034 4250 
Q 1547 4250 1301 3770 
Q 1056 3291 1056 2328 
Q 1056 1369 1301 889 
Q 1547 409 2034 409 
Q 2525 409 2770 889 
Q 3016 1369 3016 2328 
Q 3016 3291 2770 3770 
Q 2525 4250 2034 4250 
z
M 2034 4750 
Q 2819 4750 3233 4129 
Q 3647 3509 3647 2328 
Q 3647 1150 3233 529 
Q 2819 -91 2034 -91 
Q 1250 -91 836 529 
Q 422 1150 422 2328 
Q 422 3509 836 4129 
Q 1250 4750 2034 4750 
z
" transform="scale(0.015625)"/>
       </defs>
       <use xlink:href="#DejaVuSans-30"/>
      </g>
     </g>
    </g>
    <g id="xtick_3">
     <g id="line2d_3">
      <g>
       <use xlink:href="#m47986c782f" x="159.634286" y="307.584" style="fill: #d3d3d3; stroke: #d3d3d3; stroke-width: 0.8"/>
      </g>
     </g>
     <g id="text_3">
      <!-- 1 -->
      <g style="fill: #d3d3d3" transform="translate(156.453036 322.182437) scale(0.1 -0.1)">
       <use xlink:href="#DejaVuSans-31"/>
      </g>
     </g>
    </g>
    <g id="xtick_4">
     <g id="line2d_4">
      <g>
       <use xlink:href="#m47986c782f" x="210.651429" y="307.584" style="fill: #d3d3d3; stroke: #d3d3d3; stroke-width: 0.8"/>
      </g>
     </g>
     <g id="text_4">
      <!-- 2 -->
      <g style="fill: #d3d3d3" transform="translate(207.470179 322.182437) scale(0.1 -0.1)">
       <defs>
        <path id="DejaVuSans-32" d="M 1228 531 
L 3431 531 
L 3431 0 
L 469 0 
L 469 531 
Q 828 903 1448 1529 
Q 2069 2156 2228 2338 
Q 2531 2678 2651 2914 
Q 2772 3150 2772 3378 
Q 2772 3750 2511 3984 
Q 2250 4219 1831 4219 
Q 1534 4219 1204 4116 
Q 875 4013 500 3803 
L 500 4441 
Q 881 4594 1212 4672 
Q 1544 4750 1819 4750 
Q 2544 4750 2975 4387 
Q 3406 4025 3406 3419 
Q 3406 3131 3298 2873 
Q 3191 2616 2906 2266 
Q 2828 2175 2409 1742 
Q 1991 1309 1228 531 
z
" transform="scale(0.015625)"/>
       </defs>
       <use xlink:href="#DejaVuSans-32"/>
      </g>
     </g>
    </g>
    <g id="xtick_5">
     <g id="line2d_5">
      <g>
       <use xlink:href="#m47986c782f" x="261.668571" y="307.584" style="fill: #d3d3d3; stroke: #d3d3d3; stroke-width: 0.8"/>
      </g>
     </g>
     <g id="text_5">
      <!-- 3 -->
      <g style="fill: #d3d3d3" transform="translate(258.487321 322.182437) scale(0.1 -0.1)">
       <defs>
        <path id="DejaVuSans-33" d="M 2597 2516 
Q 3050 2419 3304 2112 
Q 3559 1806 3559 1356 
Q 3559 666 3084 287 
Q 2609 -91 1734 -91 
Q 1441 -91 1130 -33 
Q 819 25 488 141 
L 488 750 
Q 750 597 1062 519 
Q 1375 441 1716 441 
Q 2309 441 2620 675 
Q 2931 909 2931 1356 
Q 2931 1769 2642 2001 
Q 2353 2234 1838 2234 
L 1294 2234 
L 1294 2753 
L 1863 2753 
Q 2328 2753 2575 2939 
Q 2822 3125 2822 3475 
Q 2822 3834 2567 4026 
Q 2313 4219 1838 4219 
Q 1578 4219 1281 4162 
Q 984 4106 628 3988 
L 628 4550 
Q 988 4650 1302 4700 
Q 1616 4750 1894 4750 
Q 2613 4750 3031 4423 
Q 3450 4097 3450 3541 
Q 3450 3153 3228 2886 
Q 3006 2619 2597 2516 
z
" transform="scale(0.015625)"/>
       </defs>
       <use xlink:href="#DejaVuSans-33"/>
      </g>
     </g>
    </g>
    <g id="xtick_6">
     <g id="line2d_6">
      <g>
       <use xlink:href="#m47986c782f" x="312.685714" y="307.584" style="fill: #d3d3d3; stroke: #d3d3d3; stroke-width: 0.8"/>
      </g>
     </g>
     <g id="text_6">
      <!-- 4 -->
      <g style="fill: #d3d3d3" transform="translate(309.504464 322.182437) scale(0.1 -0.1)">
       <defs>
        <path id="DejaVuSans-34" d="M 2419 4116 
L 825 1625 
L 2419 1625 
L 2419 4116 
z
M 2253 4666 
L 3047 4666 
L 3047 1625 
L 3713 1625 
L 3713 1100 
L 3047 1100 
L 3047 0 
L 2419 0 
L 2419 1100 
L 313 1100 
L 313 1709 
L 2253 4666 
z
" transform="scale(0.015625)"/>
       </defs>
       <use xlink:href="#DejaVuSans-34"/>
      </g>
     </g>
    </g>
    <g id="xtick_7">
     <g id="line2d_7">
      <g>
       <use xlink:href="#m47986c782f" x="363.702857" y="307.584" style="fill: #d3d3d3; stroke: #d3d3d3; stroke-width: 0.8"/>
      </g>
     </g>
     <g id="text_7">
      <!-- 5 -->
      <g style="fill: #d3d3d3" transform="translate(360.521607 322.182437) scale(0.1 -0.1)">
       <defs>
        <path id="DejaVuSans-35" d="M 691 4666 
L 3169 4666 
L 3169 4134 
L 1269 4134 
L 1269 2991 
Q 1406 3038 1543 3061 
Q 1681 3084 1819 3084 
Q 2600 3084 3056 2656 
Q 3513 2228 3513 1497 
Q 3513 744 3044 326 
Q 2575 -91 1722 -91 
Q 1428 -91 1123 -41 
Q 819 9 494 109 
L 494 744 
Q 775 591 1075 516 
Q 1375 441 1709 441 
Q 2250 441 2565 725 
Q 2881 1009 2881 1497 
Q 2881 1984 2565 2268 
Q 2250 2553 1709 2553 
Q 1456 2553 1204 2497 
Q 953 2441 691 2322 
L 691 4666 
z
" transform="scale(0.015625)"/>
       </defs>
       <use xlink:href="#DejaVuSans-35"/>
      </g>
     </g>
    </g>
    <g id="xtick_8">
     <g id="line2d_8">
      <g>
       <use xlink:href="#m47986c782f" x="414.72" y="307.584" style="fill: #d3d3d3; stroke: #d3d3d3; stroke-width: 0.8"/>
      </g>
     </g>
     <g id="text_8">
      <!-- 6 -->
      <g style="fill: #d3d3d3" transform="translate(411.53875 322.182437) scale(0.1 -0.1)">
       <defs>
        <path id="DejaVuSans-36" d="M 2113 2584 
Q 1688 2584 1439 2293 
Q 1191 2003 1191 1497 
Q 1191 994 1439 701 
Q 1688 409 2113 409 
Q 2538 409 2786 701 
Q 3034 994 3034 1497 
Q 3034 2003 2786 2293 
Q 2538 2584 2113 2584 
z
M 3366 4563 
L 3366 3988 
Q 3128 4100 2886 4159 
Q 2644 4219 2406 4219 
Q 1781 4219 1451 3797 
Q 1122 3375 1075 2522 
Q 1259 2794 1537 2939 
Q 1816 3084 2150 3084 
Q 2853 3084 3261 2657 
Q 3669 2231 3669 1497 
Q 3669 778 3244 343 
Q 2819 -91 2113 -91 
Q 1303 -91 875 529 
Q 447 1150 447 2328 
Q 447 3434 972 4092 
Q 1497 4750 2381 4750 
Q 2619 4750 2861 4703 
Q 3103 4656 3366 4563 
z
" transform="scale(0.015625)"/>
       </defs>
       <use xlink:href="#DejaVuSans-36"/>
      </g>
     </g>
    </g>
    <g id="text_9">
     <!-- X-as -->
     <g style="fill: #d3d3d3" transform="translate(225.512344 335.860562) scale(0.1 -0.1)">
      <defs>
       <path id="DejaVuSans-58" d="M 403 4666 
L 1081 4666 
L 2241 2931 
L 3406 4666 
L 4084 4666 
L 2584 2425 
L 4184 0 
L 3506 0 
L 2194 1984 
L 872 0 
L 191 0 
L 1856 2491 
L 403 4666 
z
" transform="scale(0.015625)"/>
       <path id="DejaVuSans-2d" d="M 313 2009 
L 1997 2009 
L 1997 1497 
L 313 1497 
L 313 2009 
z
" transform="scale(0.015625)"/>
       <path id="DejaVuSans-61" d="M 2194 1759 
Q 1497 1759 1228 1600 
Q 959 1441 959 1056 
Q 959 750 1161 570 
Q 1363 391 1709 391 
Q 2188 391 2477 730 
Q 2766 1069 2766 1631 
L 2766 1759 
L 2194 1759 
z
M 3341 1997 
L 3341 0 
L 2766 0 
L 2766 531 
Q 2569 213 2275 61 
Q 1981 -91 1556 -91 
Q 1019 -91 701 211 
Q 384 513 384 1019 
Q 384 1609 779 1909 
Q 1175 2209 1959 2209 
L 2766 2209 
L 2766 2266 
Q 2766 2663 2505 2880 
Q 2244 3097 1772 3097 
Q 1472 3097 1187 3025 
Q 903 2953 641 2809 
L 641 3341 
Q 956 3463 1253 3523 
Q 1550 3584 1831 3584 
Q 2591 3584 2966 3190 
Q 3341 2797 3341 1997 
z
" transform="scale(0.015625)"/>
       <path id="DejaVuSans-73" d="M 2834 3397 
L 2834 2853 
Q 2591 2978 2328 3040 
Q 2066 3103 1784 3103 
Q 1356 3103 1142 2972 
Q 928 2841 928 2578 
Q 928 2378 1081 2264 
Q 1234 2150 1697 2047 
L 1894 2003 
Q 2506 1872 2764 1633 
Q 3022 1394 3022 966 
Q 3022 478 2636 193 
Q 2250 -91 1575 -91 
Q 1294 -91 989 -36 
Q 684 19 347 128 
L 347 722 
Q 666 556 975 473 
Q 1284 391 1588 391 
Q 1994 391 2212 530 
Q 2431 669 2431 922 
Q 2431 1156 2273 1281 
Q 2116 1406 1581 1522 
L 1381 1569 
Q 847 1681 609 1914 
Q 372 2147 372 2553 
Q 372 3047 722 3315 
Q 1072 3584 1716 3584 
Q 2034 3584 2315 3537 
Q 2597 3491 2834 3397 
z
" transform="scale(0.015625)"/>
      </defs>
      <use xlink:href="#DejaVuSans-58"/>
      <use xlink:href="#DejaVuSans-2d" x="63.505859"/>
      <use xlink:href="#DejaVuSans-61" x="99.589844"/>
      <use xlink:href="#DejaVuSans-73" x="160.869141"/>
     </g>
    </g>
   </g>
   <g id="matplotlib.axis_2">
    <g id="ytick_1">
     <g id="line2d_9">
      <defs>
       <path id="m1cda86f438" d="M 0 0 
L -3.5 0 
" style="stroke: #d3d3d3; stroke-width: 0.8"/>
      </defs>
      <g>
       <use xlink:href="#m1cda86f438" x="57.6" y="307.584" style="fill: #d3d3d3; stroke: #d3d3d3; stroke-width: 0.8"/>
      </g>
     </g>
     <g id="text_10">
      <!-- −4 -->
      <g style="fill: #d3d3d3" transform="translate(35.857813 311.383219) scale(0.1 -0.1)">
       <use xlink:href="#DejaVuSans-2212"/>
       <use xlink:href="#DejaVuSans-34" x="83.789062"/>
      </g>
     </g>
    </g>
    <g id="ytick_2">
     <g id="line2d_10">
      <g>
       <use xlink:href="#m1cda86f438" x="57.6" y="254.3616" style="fill: #d3d3d3; stroke: #d3d3d3; stroke-width: 0.8"/>
      </g>
     </g>
     <g id="text_11">
      <!-- −3 -->
      <g style="fill: #d3d3d3" transform="translate(35.857813 258.160819) scale(0.1 -0.1)">
       <use xlink:href="#DejaVuSans-2212"/>
       <use xlink:href="#DejaVuSans-33" x="83.789062"/>
      </g>
     </g>
    </g>
    <g id="ytick_3">
     <g id="line2d_11">
      <g>
       <use xlink:href="#m1cda86f438" x="57.6" y="201.1392" style="fill: #d3d3d3; stroke: #d3d3d3; stroke-width: 0.8"/>
      </g>
     </g>
     <g id="text_12">
      <!-- −2 -->
      <g style="fill: #d3d3d3" transform="translate(35.857813 204.938419) scale(0.1 -0.1)">
       <use xlink:href="#DejaVuSans-2212"/>
       <use xlink:href="#DejaVuSans-32" x="83.789062"/>
      </g>
     </g>
    </g>
    <g id="ytick_4">
     <g id="line2d_12">
      <g>
       <use xlink:href="#m1cda86f438" x="57.6" y="147.9168" style="fill: #d3d3d3; stroke: #d3d3d3; stroke-width: 0.8"/>
      </g>
     </g>
     <g id="text_13">
      <!-- −1 -->
      <g style="fill: #d3d3d3" transform="translate(35.857813 151.716019) scale(0.1 -0.1)">
       <use xlink:href="#DejaVuSans-2212"/>
       <use xlink:href="#DejaVuSans-31" x="83.789062"/>
      </g>
     </g>
    </g>
    <g id="ytick_5">
     <g id="line2d_13">
      <g>
       <use xlink:href="#m1cda86f438" x="57.6" y="94.6944" style="fill: #d3d3d3; stroke: #d3d3d3; stroke-width: 0.8"/>
      </g>
     </g>
     <g id="text_14">
      <!-- 0 -->
      <g style="fill: #d3d3d3" transform="translate(44.2375 98.493619) scale(0.1 -0.1)">
       <use xlink:href="#DejaVuSans-30"/>
      </g>
     </g>
    </g>
    <g id="ytick_6">
     <g id="line2d_14">
      <g>
       <use xlink:href="#m1cda86f438" x="57.6" y="41.472" style="fill: #d3d3d3; stroke: #d3d3d3; stroke-width: 0.8"/>
      </g>
     </g>
     <g id="text_15">
      <!-- 1 -->
      <g style="fill: #d3d3d3" transform="translate(44.2375 45.271219) scale(0.1 -0.1)">
       <use xlink:href="#DejaVuSans-31"/>
      </g>
     </g>
    </g>
    <g id="text_16">
     <!-- Y-as -->
     <g style="fill: #d3d3d3" transform="translate(29.778125 184.460813) rotate(-90) scale(0.1 -0.1)">
      <defs>
       <path id="DejaVuSans-59" d="M -13 4666 
L 666 4666 
L 1959 2747 
L 3244 4666 
L 3922 4666 
L 2272 2222 
L 2272 0 
L 1638 0 
L 1638 2222 
L -13 4666 
z
" transform="scale(0.015625)"/>
      </defs>
      <use xlink:href="#DejaVuSans-59"/>
      <use xlink:href="#DejaVuSans-2d" x="49.208984"/>
      <use xlink:href="#DejaVuSans-61" x="85.292969"/>
      <use xlink:href="#DejaVuSans-73" x="146.572266"/>
     </g>
    </g>
   </g>
   <g id="line2d_15">
    <path d="M 57.6 229.895385 
L 62.701714 234.222774 
L 67.293257 237.835961 
L 71.8848 241.152105 
L 75.966171 243.828661 
L 80.047543 246.23215 
L 83.618743 248.099072 
L 87.189943 249.735985 
L 90.761143 251.13487 
L 94.332343 252.288877 
L 97.903543 253.192353 
L 101.474743 253.840872 
L 105.045943 254.231258 
L 108.106971 254.358939 
L 111.168 254.295086 
L 114.229029 254.039929 
L 117.800229 253.501723 
L 121.371429 252.707044 
L 124.942629 251.659787 
L 128.513829 250.36508 
L 132.085029 248.829264 
L 135.656229 247.059863 
L 139.227429 245.065542 
L 143.3088 242.523486 
L 147.390171 239.716712 
L 151.981714 236.265087 
L 156.573257 232.529134 
L 161.674971 228.081457 
L 167.286857 222.879882 
L 173.919086 216.398872 
L 182.081829 208.080663 
L 205.549714 183.932953 
L 212.181943 177.549201 
L 217.793829 172.454378 
L 222.895543 168.122066 
L 227.487086 164.503879 
L 232.078629 161.182238 
L 236.16 158.500414 
L 240.241371 156.091333 
L 243.812571 154.21928 
L 247.383771 152.577041 
L 250.954971 151.172659 
L 254.526171 150.013013 
L 258.097371 149.103784 
L 261.668571 148.449423 
L 265.239771 148.053138 
L 268.3008 147.920376 
L 271.361829 147.979145 
L 274.422857 148.229233 
L 277.994057 148.761568 
L 281.565257 149.55045 
L 285.136457 150.592013 
L 288.707657 151.881156 
L 292.278857 153.411565 
L 295.850057 155.175744 
L 299.421257 157.165052 
L 303.502629 159.701667 
L 307.584 162.503341 
L 312.175543 165.949675 
L 316.767086 169.680853 
L 321.8688 174.123876 
L 327.480686 179.321175 
L 334.112914 185.798342 
L 342.275657 194.113705 
L 366.253714 218.768264 
L 372.885943 225.129466 
L 378.497829 230.199912 
L 383.599543 234.506112 
L 388.191086 238.097802 
L 392.782629 241.390329 
L 396.864 244.044268 
L 400.945371 246.42376 
L 404.516571 248.268674 
L 408.087771 249.882748 
L 411.658971 251.258075 
L 414.209829 252.090503 
L 414.209829 252.090503 
" clip-path="url(#p2db6ed846b)" style="fill: none; stroke: #00ced1; stroke-width: 1.5; stroke-linecap: square"/>
   </g>
   <g id="line2d_16">
    <path d="M 57.6 172.383015 
L 62.701714 168.055626 
L 67.293257 164.442439 
L 71.8848 161.126295 
L 75.966171 158.449739 
L 80.047543 156.04625 
L 83.618743 154.179328 
L 87.189943 152.542415 
L 90.761143 151.14353 
L 94.332343 149.989523 
L 97.903543 149.086047 
L 101.474743 148.437528 
L 105.045943 148.047142 
L 108.106971 147.919461 
L 111.168 147.983314 
L 114.229029 148.238471 
L 117.800229 148.776677 
L 121.371429 149.571356 
L 124.942629 150.618613 
L 128.513829 151.91332 
L 132.085029 153.449136 
L 135.656229 155.218537 
L 139.227429 157.212858 
L 143.3088 159.754914 
L 147.390171 162.561688 
L 151.981714 166.013313 
L 156.573257 169.749266 
L 161.674971 174.196943 
L 167.286857 179.398518 
L 173.919086 185.879528 
L 182.081829 194.197737 
L 205.549714 218.345447 
L 212.181943 224.729199 
L 217.793829 229.824022 
L 222.895543 234.156334 
L 227.487086 237.774521 
L 232.078629 241.096162 
L 236.16 243.777986 
L 240.241371 246.187067 
L 243.812571 248.05912 
L 247.383771 249.701359 
L 250.954971 251.105741 
L 254.526171 252.265387 
L 258.097371 253.174616 
L 261.668571 253.828977 
L 265.239771 254.225262 
L 268.3008 254.358024 
L 271.361829 254.299255 
L 274.422857 254.049167 
L 277.994057 253.516832 
L 281.565257 252.72795 
L 285.136457 251.686387 
L 288.707657 250.397244 
L 292.278857 248.866835 
L 295.850057 247.102656 
L 299.421257 245.113348 
L 303.502629 242.576733 
L 307.584 239.775059 
L 312.175543 236.328725 
L 316.767086 232.597547 
L 321.8688 228.154524 
L 327.480686 222.957225 
L 334.112914 216.480058 
L 342.275657 208.164695 
L 366.253714 183.510136 
L 372.885943 177.148934 
L 378.497829 172.078488 
L 383.599543 167.772288 
L 388.191086 164.180598 
L 392.782629 160.888071 
L 396.864 158.234132 
L 400.945371 155.85464 
L 404.516571 154.009726 
L 408.087771 152.395652 
L 411.658971 151.020325 
L 414.209829 150.187897 
L 414.209829 150.187897 
" clip-path="url(#p2db6ed846b)" style="fill: none; stroke: #dc143c; stroke-width: 1.5; stroke-linecap: square"/>
   </g>
   <g id="patch_3">
    <path d="M 57.6 307.584 
L 57.6 41.472 
" style="fill: none; stroke: #d3d3d3; stroke-width: 0.8; stroke-linejoin: miter; stroke-linecap: square"/>
   </g>
   <g id="patch_4">
    <path d="M 414.72 307.584 
L 414.72 41.472 
" style="fill: none; stroke: #d3d3d3; stroke-width: 0.8; stroke-linejoin: miter; stroke-linecap: square"/>
   </g>
   <g id="patch_5">
    <path d="M 57.6 307.584 
L 414.72 307.584 
" style="fill: none; stroke: #d3d3d3; stroke-width: 0.8; stroke-linejoin: miter; stroke-linecap: square"/>
   </g>
   <g id="patch_6">
    <path d="M 57.6 41.472 
L 414.72 41.472 
" style="fill: none; stroke: #d3d3d3; stroke-width: 0.8; stroke-linejoin: miter; stroke-linecap: square"/>
   </g>
   <g id="PolyCollection_1">
    <defs>
     <path id="m610aa28ffd" d="M 189.224229 -143.970965 
L 189.224229 -144.950635 
L 189.7344 -145.482803 
L 190.244571 -146.014869 
L 190.754743 -146.546779 
L 191.264914 -147.078481 
L 191.775086 -147.609921 
L 192.285257 -148.141046 
L 192.795429 -148.671804 
L 193.3056 -149.20214 
L 193.815771 -149.732002 
L 194.325943 -150.261337 
L 194.836114 -150.790091 
L 195.346286 -151.318213 
L 195.856457 -151.845649 
L 196.366629 -152.372347 
L 196.8768 -152.898254 
L 197.386971 -153.423316 
L 197.897143 -153.947483 
L 198.407314 -154.470701 
L 198.917486 -154.992918 
L 199.427657 -155.514081 
L 199.937829 -156.03414 
L 200.448 -156.553041 
L 200.958171 -157.070733 
L 201.468343 -157.587163 
L 201.978514 -158.102282 
L 202.488686 -158.616036 
L 202.998857 -159.128374 
L 203.509029 -159.639246 
L 204.0192 -160.1486 
L 204.529371 -160.656385 
L 205.039543 -161.162551 
L 205.549714 -161.667047 
L 206.059886 -162.169822 
L 206.570057 -162.670826 
L 207.080229 -163.170009 
L 207.5904 -163.667321 
L 208.100571 -164.162712 
L 208.610743 -164.656134 
L 209.120914 -165.147535 
L 209.631086 -165.636869 
L 210.141257 -166.124084 
L 210.651429 -166.609133 
L 211.1616 -167.091968 
L 211.671771 -167.572539 
L 212.181943 -168.050799 
L 212.692114 -168.526701 
L 213.202286 -169.000195 
L 213.712457 -169.471236 
L 214.222629 -169.939776 
L 214.7328 -170.405767 
L 215.242971 -170.869165 
L 215.753143 -171.329921 
L 216.263314 -171.787991 
L 216.773486 -172.243328 
L 217.283657 -172.695887 
L 217.793829 -173.145622 
L 218.304 -173.592489 
L 218.814171 -174.036442 
L 219.324343 -174.477438 
L 219.834514 -174.915433 
L 220.344686 -175.350382 
L 220.854857 -175.782242 
L 221.365029 -176.21097 
L 221.8752 -176.636523 
L 222.385371 -177.058858 
L 222.895543 -177.477934 
L 223.405714 -177.893708 
L 223.915886 -178.306139 
L 224.426057 -178.715185 
L 224.936229 -179.120805 
L 225.4464 -179.52296 
L 225.956571 -179.921609 
L 226.466743 -180.316711 
L 226.976914 -180.708228 
L 227.487086 -181.096121 
L 227.997257 -181.48035 
L 228.507429 -181.860876 
L 229.0176 -182.237663 
L 229.527771 -182.610673 
L 230.037943 -182.979867 
L 230.548114 -183.345209 
L 231.058286 -183.706663 
L 231.568457 -184.064193 
L 232.078629 -184.417762 
L 232.5888 -184.767335 
L 233.098971 -185.112878 
L 233.609143 -185.454356 
L 234.119314 -185.791734 
L 234.629486 -186.12498 
L 235.139657 -186.454058 
L 235.649829 -186.778938 
L 236.16 -187.099586 
L 236.670171 -187.41597 
L 237.180343 -187.728058 
L 237.690514 -188.03582 
L 238.200686 -188.339225 
L 238.710857 -188.638241 
L 239.221029 -188.93284 
L 239.7312 -189.222992 
L 240.241371 -189.508667 
L 240.751543 -189.789838 
L 241.261714 -190.066476 
L 241.771886 -190.338553 
L 242.282057 -190.606043 
L 242.792229 -190.868918 
L 243.3024 -191.127152 
L 243.812571 -191.38072 
L 244.322743 -191.629596 
L 244.832914 -191.873755 
L 245.343086 -192.113173 
L 245.853257 -192.347825 
L 246.363429 -192.577689 
L 246.8736 -192.802741 
L 247.383771 -193.022959 
L 247.893943 -193.238321 
L 248.404114 -193.448806 
L 248.914286 -193.654391 
L 249.424457 -193.855057 
L 249.934629 -194.050784 
L 250.4448 -194.241551 
L 250.954971 -194.427341 
L 251.465143 -194.608134 
L 251.975314 -194.783913 
L 252.485486 -194.954659 
L 252.995657 -195.120356 
L 253.505829 -195.280987 
L 254.016 -195.436535 
L 254.526171 -195.586987 
L 255.036343 -195.732326 
L 255.546514 -195.872537 
L 256.056686 -196.007608 
L 256.566857 -196.137524 
L 257.077029 -196.262272 
L 257.5872 -196.38184 
L 258.097371 -196.496216 
L 258.607543 -196.605389 
L 259.117714 -196.709347 
L 259.627886 -196.808081 
L 260.138057 -196.901579 
L 260.648229 -196.989834 
L 261.1584 -197.072836 
L 261.668571 -197.150577 
L 262.178743 -197.223048 
L 262.688914 -197.290244 
L 263.199086 -197.352157 
L 263.709257 -197.40878 
L 264.219429 -197.460109 
L 264.7296 -197.506138 
L 265.239771 -197.546862 
L 265.749943 -197.582278 
L 266.260114 -197.612382 
L 266.770286 -197.637171 
L 267.280457 -197.656642 
L 267.790629 -197.670793 
L 268.3008 -197.679624 
L 268.810971 -197.683132 
L 269.321143 -197.681319 
L 269.831314 -197.674184 
L 270.341486 -197.661727 
L 270.851657 -197.64395 
L 271.361829 -197.620855 
L 271.872 -197.592444 
L 272.382171 -197.55872 
L 272.892343 -197.519686 
L 273.402514 -197.475346 
L 273.912686 -197.425705 
L 274.422857 -197.370767 
L 274.933029 -197.310539 
L 275.4432 -197.245025 
L 275.953371 -197.174233 
L 276.463543 -197.09817 
L 276.973714 -197.016843 
L 277.483886 -196.930261 
L 277.994057 -196.838432 
L 278.504229 -196.741365 
L 279.0144 -196.639069 
L 279.524571 -196.531557 
L 280.034743 -196.418837 
L 280.544914 -196.300921 
L 281.055086 -196.177821 
L 281.565257 -196.04955 
L 282.075429 -195.91612 
L 282.5856 -195.777545 
L 283.095771 -195.633837 
L 283.605943 -195.485013 
L 284.116114 -195.331086 
L 284.626286 -195.172072 
L 285.136457 -195.007987 
L 285.646629 -194.838848 
L 286.1568 -194.66467 
L 286.666971 -194.485473 
L 287.177143 -194.301272 
L 287.687314 -194.112088 
L 288.197486 -193.917939 
L 288.707657 -193.718844 
L 289.217829 -193.514823 
L 289.728 -193.305897 
L 290.238171 -193.092087 
L 290.748343 -192.873413 
L 291.258514 -192.649899 
L 291.768686 -192.421565 
L 292.278857 -192.188435 
L 292.789029 -191.950533 
L 293.2992 -191.707881 
L 293.809371 -191.460505 
L 294.319543 -191.208429 
L 294.829714 -190.951679 
L 295.339886 -190.690279 
L 295.850057 -190.424256 
L 296.360229 -190.153637 
L 296.8704 -189.878449 
L 297.380571 -189.598719 
L 297.890743 -189.314475 
L 298.400914 -189.025746 
L 298.911086 -188.732561 
L 299.421257 -188.434948 
L 299.931429 -188.132938 
L 300.4416 -187.826561 
L 300.951771 -187.515847 
L 301.461943 -187.200828 
L 301.972114 -186.881535 
L 302.482286 -186.558 
L 302.992457 -186.230255 
L 303.502629 -185.898333 
L 304.0128 -185.562268 
L 304.522971 -185.222092 
L 305.033143 -184.87784 
L 305.543314 -184.529547 
L 306.053486 -184.177247 
L 306.563657 -183.820975 
L 307.073829 -183.460767 
L 307.584 -183.096659 
L 308.094171 -182.728688 
L 308.604343 -182.35689 
L 309.114514 -181.981302 
L 309.624686 -181.601963 
L 310.134857 -181.218909 
L 310.645029 -180.832179 
L 311.1552 -180.441813 
L 311.665371 -180.047848 
L 312.175543 -179.650325 
L 312.685714 -179.249282 
L 313.195886 -178.844761 
L 313.706057 -178.436802 
L 314.216229 -178.025444 
L 314.7264 -177.610731 
L 315.236571 -177.192702 
L 315.746743 -176.771401 
L 316.256914 -176.346868 
L 316.767086 -175.919147 
L 317.277257 -175.48828 
L 317.787429 -175.05431 
L 318.2976 -174.617281 
L 318.807771 -174.177236 
L 319.317943 -173.73422 
L 319.828114 -173.288276 
L 320.338286 -172.83945 
L 320.848457 -172.387785 
L 321.358629 -171.933329 
L 321.8688 -171.476124 
L 322.378971 -171.016219 
L 322.889143 -170.553658 
L 323.399314 -170.088487 
L 323.909486 -169.620754 
L 324.419657 -169.150505 
L 324.929829 -168.677787 
L 325.44 -168.202647 
L 325.950171 -167.725133 
L 326.460343 -167.245292 
L 326.970514 -166.763174 
L 327.480686 -166.278825 
L 327.990857 -165.792294 
L 328.501029 -165.30363 
L 329.0112 -164.812882 
L 329.521371 -164.320098 
L 330.031543 -163.825329 
L 330.541714 -163.328623 
L 331.051886 -162.830031 
L 331.562057 -162.329601 
L 332.072229 -161.827385 
L 332.5824 -161.323432 
L 333.092571 -160.817793 
L 333.602743 -160.310518 
L 334.112914 -159.801658 
L 334.623086 -159.291264 
L 335.133257 -158.779387 
L 335.643429 -158.266079 
L 336.1536 -157.751389 
L 336.663771 -157.235371 
L 337.173943 -156.718075 
L 337.684114 -156.199554 
L 338.194286 -155.679858 
L 338.704457 -155.159041 
L 339.214629 -154.637154 
L 339.7248 -154.114249 
L 340.234971 -153.590379 
L 340.745143 -153.065596 
L 341.255314 -152.539953 
L 341.765486 -152.013501 
L 342.275657 -151.486295 
L 342.785829 -150.958386 
L 343.296 -150.429827 
L 343.806171 -149.900671 
L 344.316343 -149.370971 
L 344.826514 -148.84078 
L 345.336686 -148.310151 
L 345.846857 -147.779138 
L 346.357029 -147.247792 
L 346.8672 -146.716168 
L 347.377371 -146.184318 
L 347.887543 -145.652296 
L 348.397714 -145.120154 
L 348.907886 -144.587947 
L 348.907886 -144.333653 
L 348.907886 -144.333653 
L 348.397714 -143.801446 
L 347.887543 -143.269304 
L 347.377371 -142.737282 
L 346.8672 -142.205432 
L 346.357029 -141.673808 
L 345.846857 -141.142462 
L 345.336686 -140.611449 
L 344.826514 -140.08082 
L 344.316343 -139.550629 
L 343.806171 -139.020929 
L 343.296 -138.491773 
L 342.785829 -137.963214 
L 342.275657 -137.435305 
L 341.765486 -136.908099 
L 341.255314 -136.381647 
L 340.745143 -135.856004 
L 340.234971 -135.331221 
L 339.7248 -134.807351 
L 339.214629 -134.284446 
L 338.704457 -133.762559 
L 338.194286 -133.241742 
L 337.684114 -132.722046 
L 337.173943 -132.203525 
L 336.663771 -131.686229 
L 336.1536 -131.170211 
L 335.643429 -130.655521 
L 335.133257 -130.142213 
L 334.623086 -129.630336 
L 334.112914 -129.119942 
L 333.602743 -128.611082 
L 333.092571 -128.103807 
L 332.5824 -127.598168 
L 332.072229 -127.094215 
L 331.562057 -126.591999 
L 331.051886 -126.091569 
L 330.541714 -125.592977 
L 330.031543 -125.096271 
L 329.521371 -124.601502 
L 329.0112 -124.108718 
L 328.501029 -123.61797 
L 327.990857 -123.129306 
L 327.480686 -122.642775 
L 326.970514 -122.158426 
L 326.460343 -121.676308 
L 325.950171 -121.196467 
L 325.44 -120.718953 
L 324.929829 -120.243813 
L 324.419657 -119.771095 
L 323.909486 -119.300846 
L 323.399314 -118.833113 
L 322.889143 -118.367942 
L 322.378971 -117.905381 
L 321.8688 -117.445476 
L 321.358629 -116.988271 
L 320.848457 -116.533815 
L 320.338286 -116.08215 
L 319.828114 -115.633324 
L 319.317943 -115.18738 
L 318.807771 -114.744364 
L 318.2976 -114.304319 
L 317.787429 -113.86729 
L 317.277257 -113.43332 
L 316.767086 -113.002453 
L 316.256914 -112.574732 
L 315.746743 -112.150199 
L 315.236571 -111.728898 
L 314.7264 -111.310869 
L 314.216229 -110.896156 
L 313.706057 -110.484798 
L 313.195886 -110.076839 
L 312.685714 -109.672318 
L 312.175543 -109.271275 
L 311.665371 -108.873752 
L 311.1552 -108.479787 
L 310.645029 -108.089421 
L 310.134857 -107.702691 
L 309.624686 -107.319637 
L 309.114514 -106.940298 
L 308.604343 -106.56471 
L 308.094171 -106.192912 
L 307.584 -105.824941 
L 307.073829 -105.460833 
L 306.563657 -105.100625 
L 306.053486 -104.744353 
L 305.543314 -104.392053 
L 305.033143 -104.04376 
L 304.522971 -103.699508 
L 304.0128 -103.359332 
L 303.502629 -103.023267 
L 302.992457 -102.691345 
L 302.482286 -102.3636 
L 301.972114 -102.040065 
L 301.461943 -101.720772 
L 300.951771 -101.405753 
L 300.4416 -101.095039 
L 299.931429 -100.788662 
L 299.421257 -100.486652 
L 298.911086 -100.189039 
L 298.400914 -99.895854 
L 297.890743 -99.607125 
L 297.380571 -99.322881 
L 296.8704 -99.043151 
L 296.360229 -98.767963 
L 295.850057 -98.497344 
L 295.339886 -98.231321 
L 294.829714 -97.969921 
L 294.319543 -97.713171 
L 293.809371 -97.461095 
L 293.2992 -97.213719 
L 292.789029 -96.971067 
L 292.278857 -96.733165 
L 291.768686 -96.500035 
L 291.258514 -96.271701 
L 290.748343 -96.048187 
L 290.238171 -95.829513 
L 289.728 -95.615703 
L 289.217829 -95.406777 
L 288.707657 -95.202756 
L 288.197486 -95.003661 
L 287.687314 -94.809512 
L 287.177143 -94.620328 
L 286.666971 -94.436127 
L 286.1568 -94.25693 
L 285.646629 -94.082752 
L 285.136457 -93.913613 
L 284.626286 -93.749528 
L 284.116114 -93.590514 
L 283.605943 -93.436587 
L 283.095771 -93.287763 
L 282.5856 -93.144055 
L 282.075429 -93.00548 
L 281.565257 -92.87205 
L 281.055086 -92.743779 
L 280.544914 -92.620679 
L 280.034743 -92.502763 
L 279.524571 -92.390043 
L 279.0144 -92.282531 
L 278.504229 -92.180235 
L 277.994057 -92.083168 
L 277.483886 -91.991339 
L 276.973714 -91.904757 
L 276.463543 -91.82343 
L 275.953371 -91.747367 
L 275.4432 -91.676575 
L 274.933029 -91.611061 
L 274.422857 -91.550833 
L 273.912686 -91.495895 
L 273.402514 -91.446254 
L 272.892343 -91.401914 
L 272.382171 -91.36288 
L 271.872 -91.329156 
L 271.361829 -91.300745 
L 270.851657 -91.27765 
L 270.341486 -91.259873 
L 269.831314 -91.247416 
L 269.321143 -91.240281 
L 268.810971 -91.238468 
L 268.3008 -91.241976 
L 267.790629 -91.250807 
L 267.280457 -91.264958 
L 266.770286 -91.284429 
L 266.260114 -91.309218 
L 265.749943 -91.339322 
L 265.239771 -91.374738 
L 264.7296 -91.415462 
L 264.219429 -91.461491 
L 263.709257 -91.51282 
L 263.199086 -91.569443 
L 262.688914 -91.631356 
L 262.178743 -91.698552 
L 261.668571 -91.771023 
L 261.1584 -91.848764 
L 260.648229 -91.931766 
L 260.138057 -92.020021 
L 259.627886 -92.113519 
L 259.117714 -92.212253 
L 258.607543 -92.316211 
L 258.097371 -92.425384 
L 257.5872 -92.53976 
L 257.077029 -92.659328 
L 256.566857 -92.784076 
L 256.056686 -92.913992 
L 255.546514 -93.049063 
L 255.036343 -93.189274 
L 254.526171 -93.334613 
L 254.016 -93.485065 
L 253.505829 -93.640613 
L 252.995657 -93.801244 
L 252.485486 -93.966941 
L 251.975314 -94.137687 
L 251.465143 -94.313466 
L 250.954971 -94.494259 
L 250.4448 -94.680049 
L 249.934629 -94.870816 
L 249.424457 -95.066543 
L 248.914286 -95.267209 
L 248.404114 -95.472794 
L 247.893943 -95.683279 
L 247.383771 -95.898641 
L 246.8736 -96.118859 
L 246.363429 -96.343911 
L 245.853257 -96.573775 
L 245.343086 -96.808427 
L 244.832914 -97.047845 
L 244.322743 -97.292004 
L 243.812571 -97.54088 
L 243.3024 -97.794448 
L 242.792229 -98.052682 
L 242.282057 -98.315557 
L 241.771886 -98.583047 
L 241.261714 -98.855124 
L 240.751543 -99.131762 
L 240.241371 -99.412933 
L 239.7312 -99.698608 
L 239.221029 -99.98876 
L 238.710857 -100.283359 
L 238.200686 -100.582375 
L 237.690514 -100.88578 
L 237.180343 -101.193542 
L 236.670171 -101.50563 
L 236.16 -101.822014 
L 235.649829 -102.142662 
L 235.139657 -102.467542 
L 234.629486 -102.79662 
L 234.119314 -103.129866 
L 233.609143 -103.467244 
L 233.098971 -103.808722 
L 232.5888 -104.154265 
L 232.078629 -104.503838 
L 231.568457 -104.857407 
L 231.058286 -105.214937 
L 230.548114 -105.576391 
L 230.037943 -105.941733 
L 229.527771 -106.310927 
L 229.0176 -106.683937 
L 228.507429 -107.060724 
L 227.997257 -107.44125 
L 227.487086 -107.825479 
L 226.976914 -108.213372 
L 226.466743 -108.604889 
L 225.956571 -108.999991 
L 225.4464 -109.39864 
L 224.936229 -109.800795 
L 224.426057 -110.206415 
L 223.915886 -110.615461 
L 223.405714 -111.027892 
L 222.895543 -111.443666 
L 222.385371 -111.862742 
L 221.8752 -112.285077 
L 221.365029 -112.71063 
L 220.854857 -113.139358 
L 220.344686 -113.571218 
L 219.834514 -114.006167 
L 219.324343 -114.444162 
L 218.814171 -114.885158 
L 218.304 -115.329111 
L 217.793829 -115.775978 
L 217.283657 -116.225713 
L 216.773486 -116.678272 
L 216.263314 -117.133609 
L 215.753143 -117.591679 
L 215.242971 -118.052435 
L 214.7328 -118.515833 
L 214.222629 -118.981824 
L 213.712457 -119.450364 
L 213.202286 -119.921405 
L 212.692114 -120.394899 
L 212.181943 -120.870801 
L 211.671771 -121.349061 
L 211.1616 -121.829632 
L 210.651429 -122.312467 
L 210.141257 -122.797516 
L 209.631086 -123.284731 
L 209.120914 -123.774065 
L 208.610743 -124.265466 
L 208.100571 -124.758888 
L 207.5904 -125.254279 
L 207.080229 -125.751591 
L 206.570057 -126.250774 
L 206.059886 -126.751778 
L 205.549714 -127.254553 
L 205.039543 -127.759049 
L 204.529371 -128.265215 
L 204.0192 -128.773 
L 203.509029 -129.282354 
L 202.998857 -129.793226 
L 202.488686 -130.305564 
L 201.978514 -130.819318 
L 201.468343 -131.334437 
L 200.958171 -131.850867 
L 200.448 -132.368559 
L 199.937829 -132.88746 
L 199.427657 -133.407519 
L 198.917486 -133.928682 
L 198.407314 -134.450899 
L 197.897143 -134.974117 
L 197.386971 -135.498284 
L 196.8768 -136.023346 
L 196.366629 -136.549253 
L 195.856457 -137.075951 
L 195.346286 -137.603387 
L 194.836114 -138.131509 
L 194.325943 -138.660263 
L 193.815771 -139.189598 
L 193.3056 -139.71946 
L 192.795429 -140.249796 
L 192.285257 -140.780554 
L 191.775086 -141.311679 
L 191.264914 -141.843119 
L 190.754743 -142.374821 
L 190.244571 -142.906731 
L 189.7344 -143.438797 
L 189.224229 -143.970965 
z
" style="stroke: #9400d3; stroke-opacity: 0.7"/>
    </defs>
    <g clip-path="url(#p2db6ed846b)">
     <use xlink:href="#m610aa28ffd" x="0" y="345.6" style="fill: #9400d3; fill-opacity: 0.7; stroke: #9400d3; stroke-opacity: 0.7"/>
    </g>
   </g>
   <g id="text_17">
    <!-- $V$ -->
    <g style="fill: #ffffff" transform="translate(266.770286 201.1392) scale(0.1728 -0.1728)">
     <defs>
      <path id="DejaVuSans-Oblique-56" d="M 1319 0 
L 500 4666 
L 1119 4666 
L 1797 653 
L 4063 4666 
L 4750 4666 
L 2053 0 
L 1319 0 
z
" transform="scale(0.015625)"/>
     </defs>
     <use xlink:href="#DejaVuSans-Oblique-56" transform="translate(0 0.09375)"/>
    </g>
   </g>
   <g id="text_18">
    <!-- f(x) = -cos(x) - 2; g(x) = cos(x) - 2 -->
    <g style="fill: #d3d3d3" transform="translate(133.746562 35.472) scale(0.12 -0.12)">
     <defs>
      <path id="DejaVuSans-66" d="M 2375 4863 
L 2375 4384 
L 1825 4384 
Q 1516 4384 1395 4259 
Q 1275 4134 1275 3809 
L 1275 3500 
L 2222 3500 
L 2222 3053 
L 1275 3053 
L 1275 0 
L 697 0 
L 697 3053 
L 147 3053 
L 147 3500 
L 697 3500 
L 697 3744 
Q 697 4328 969 4595 
Q 1241 4863 1831 4863 
L 2375 4863 
z
" transform="scale(0.015625)"/>
      <path id="DejaVuSans-28" d="M 1984 4856 
Q 1566 4138 1362 3434 
Q 1159 2731 1159 2009 
Q 1159 1288 1364 580 
Q 1569 -128 1984 -844 
L 1484 -844 
Q 1016 -109 783 600 
Q 550 1309 550 2009 
Q 550 2706 781 3412 
Q 1013 4119 1484 4856 
L 1984 4856 
z
" transform="scale(0.015625)"/>
      <path id="DejaVuSans-78" d="M 3513 3500 
L 2247 1797 
L 3578 0 
L 2900 0 
L 1881 1375 
L 863 0 
L 184 0 
L 1544 1831 
L 300 3500 
L 978 3500 
L 1906 2253 
L 2834 3500 
L 3513 3500 
z
" transform="scale(0.015625)"/>
      <path id="DejaVuSans-29" d="M 513 4856 
L 1013 4856 
Q 1481 4119 1714 3412 
Q 1947 2706 1947 2009 
Q 1947 1309 1714 600 
Q 1481 -109 1013 -844 
L 513 -844 
Q 928 -128 1133 580 
Q 1338 1288 1338 2009 
Q 1338 2731 1133 3434 
Q 928 4138 513 4856 
z
" transform="scale(0.015625)"/>
      <path id="DejaVuSans-20" transform="scale(0.015625)"/>
      <path id="DejaVuSans-3d" d="M 678 2906 
L 4684 2906 
L 4684 2381 
L 678 2381 
L 678 2906 
z
M 678 1631 
L 4684 1631 
L 4684 1100 
L 678 1100 
L 678 1631 
z
" transform="scale(0.015625)"/>
      <path id="DejaVuSans-63" d="M 3122 3366 
L 3122 2828 
Q 2878 2963 2633 3030 
Q 2388 3097 2138 3097 
Q 1578 3097 1268 2742 
Q 959 2388 959 1747 
Q 959 1106 1268 751 
Q 1578 397 2138 397 
Q 2388 397 2633 464 
Q 2878 531 3122 666 
L 3122 134 
Q 2881 22 2623 -34 
Q 2366 -91 2075 -91 
Q 1284 -91 818 406 
Q 353 903 353 1747 
Q 353 2603 823 3093 
Q 1294 3584 2113 3584 
Q 2378 3584 2631 3529 
Q 2884 3475 3122 3366 
z
" transform="scale(0.015625)"/>
      <path id="DejaVuSans-6f" d="M 1959 3097 
Q 1497 3097 1228 2736 
Q 959 2375 959 1747 
Q 959 1119 1226 758 
Q 1494 397 1959 397 
Q 2419 397 2687 759 
Q 2956 1122 2956 1747 
Q 2956 2369 2687 2733 
Q 2419 3097 1959 3097 
z
M 1959 3584 
Q 2709 3584 3137 3096 
Q 3566 2609 3566 1747 
Q 3566 888 3137 398 
Q 2709 -91 1959 -91 
Q 1206 -91 779 398 
Q 353 888 353 1747 
Q 353 2609 779 3096 
Q 1206 3584 1959 3584 
z
" transform="scale(0.015625)"/>
      <path id="DejaVuSans-3b" d="M 750 3309 
L 1409 3309 
L 1409 2516 
L 750 2516 
L 750 3309 
z
M 750 794 
L 1409 794 
L 1409 256 
L 897 -744 
L 494 -744 
L 750 256 
L 750 794 
z
" transform="scale(0.015625)"/>
      <path id="DejaVuSans-67" d="M 2906 1791 
Q 2906 2416 2648 2759 
Q 2391 3103 1925 3103 
Q 1463 3103 1205 2759 
Q 947 2416 947 1791 
Q 947 1169 1205 825 
Q 1463 481 1925 481 
Q 2391 481 2648 825 
Q 2906 1169 2906 1791 
z
M 3481 434 
Q 3481 -459 3084 -895 
Q 2688 -1331 1869 -1331 
Q 1566 -1331 1297 -1286 
Q 1028 -1241 775 -1147 
L 775 -588 
Q 1028 -725 1275 -790 
Q 1522 -856 1778 -856 
Q 2344 -856 2625 -561 
Q 2906 -266 2906 331 
L 2906 616 
Q 2728 306 2450 153 
Q 2172 0 1784 0 
Q 1141 0 747 490 
Q 353 981 353 1791 
Q 353 2603 747 3093 
Q 1141 3584 1784 3584 
Q 2172 3584 2450 3431 
Q 2728 3278 2906 2969 
L 2906 3500 
L 3481 3500 
L 3481 434 
z
" transform="scale(0.015625)"/>
     </defs>
     <use xlink:href="#DejaVuSans-66"/>
     <use xlink:href="#DejaVuSans-28" x="35.205078"/>
     <use xlink:href="#DejaVuSans-78" x="74.21875"/>
     <use xlink:href="#DejaVuSans-29" x="133.398438"/>
     <use xlink:href="#DejaVuSans-20" x="172.412109"/>
     <use xlink:href="#DejaVuSans-3d" x="204.199219"/>
     <use xlink:href="#DejaVuSans-20" x="287.988281"/>
     <use xlink:href="#DejaVuSans-2d" x="319.775391"/>
     <use xlink:href="#DejaVuSans-63" x="355.859375"/>
     <use xlink:href="#DejaVuSans-6f" x="410.839844"/>
     <use xlink:href="#DejaVuSans-73" x="472.021484"/>
     <use xlink:href="#DejaVuSans-28" x="524.121094"/>
     <use xlink:href="#DejaVuSans-78" x="563.134766"/>
     <use xlink:href="#DejaVuSans-29" x="622.314453"/>
     <use xlink:href="#DejaVuSans-20" x="661.328125"/>
     <use xlink:href="#DejaVuSans-2d" x="693.115234"/>
     <use xlink:href="#DejaVuSans-20" x="729.199219"/>
     <use xlink:href="#DejaVuSans-32" x="760.986328"/>
     <use xlink:href="#DejaVuSans-3b" x="824.609375"/>
     <use xlink:href="#DejaVuSans-20" x="858.300781"/>
     <use xlink:href="#DejaVuSans-67" x="890.087891"/>
     <use xlink:href="#DejaVuSans-28" x="953.564453"/>
     <use xlink:href="#DejaVuSans-78" x="992.578125"/>
     <use xlink:href="#DejaVuSans-29" x="1051.757812"/>
     <use xlink:href="#DejaVuSans-20" x="1090.771484"/>
     <use xlink:href="#DejaVuSans-3d" x="1122.558594"/>
     <use xlink:href="#DejaVuSans-20" x="1206.347656"/>
     <use xlink:href="#DejaVuSans-63" x="1238.134766"/>
     <use xlink:href="#DejaVuSans-6f" x="1293.115234"/>
     <use xlink:href="#DejaVuSans-73" x="1354.296875"/>
     <use xlink:href="#DejaVuSans-28" x="1406.396484"/>
     <use xlink:href="#DejaVuSans-78" x="1445.410156"/>
     <use xlink:href="#DejaVuSans-29" x="1504.589844"/>
     <use xlink:href="#DejaVuSans-20" x="1543.603516"/>
     <use xlink:href="#DejaVuSans-2d" x="1575.390625"/>
     <use xlink:href="#DejaVuSans-20" x="1611.474609"/>
     <use xlink:href="#DejaVuSans-32" x="1643.261719"/>
    </g>
   </g>
   <g id="legend_1">
    <g id="patch_7">
     <path d="M 283.02 78.850125 
L 407.72 78.850125 
Q 409.72 78.850125 409.72 76.850125 
L 409.72 48.472 
Q 409.72 46.472 407.72 46.472 
L 283.02 46.472 
Q 281.02 46.472 281.02 48.472 
L 281.02 76.850125 
Q 281.02 78.850125 283.02 78.850125 
z
" style="fill: #ffffff; opacity: 0.8; stroke: #cccccc; stroke-linejoin: miter"/>
    </g>
    <g id="line2d_17">
     <path d="M 285.02 54.570437 
L 295.02 54.570437 
L 305.02 54.570437 
" style="fill: none; stroke: #00ced1; stroke-width: 1.5; stroke-linecap: square"/>
    </g>
    <g id="text_19">
     <!-- $f(x) = - \cos{\left(x \right)} - 2$ -->
     <g transform="translate(313.02 58.070437) scale(0.1 -0.1)">
      <defs>
       <path id="DejaVuSans-Oblique-66" d="M 3059 4863 
L 2969 4384 
L 2419 4384 
Q 2106 4384 1964 4261 
Q 1822 4138 1753 3809 
L 1691 3500 
L 2638 3500 
L 2553 3053 
L 1606 3053 
L 1013 0 
L 434 0 
L 1031 3053 
L 481 3053 
L 563 3500 
L 1113 3500 
L 1159 3744 
Q 1278 4363 1576 4613 
Q 1875 4863 2516 4863 
L 3059 4863 
z
" transform="scale(0.015625)"/>
       <path id="DejaVuSans-Oblique-78" d="M 3841 3500 
L 2234 1784 
L 3219 0 
L 2559 0 
L 1819 1388 
L 531 0 
L -166 0 
L 1556 1844 
L 641 3500 
L 1300 3500 
L 1972 2234 
L 3144 3500 
L 3841 3500 
z
" transform="scale(0.015625)"/>
      </defs>
      <use xlink:href="#DejaVuSans-Oblique-66" transform="translate(0 0.015625)"/>
      <use xlink:href="#DejaVuSans-28" transform="translate(35.205078 0.015625)"/>
      <use xlink:href="#DejaVuSans-Oblique-78" transform="translate(74.21875 0.015625)"/>
      <use xlink:href="#DejaVuSans-29" transform="translate(133.398438 0.015625)"/>
      <use xlink:href="#DejaVuSans-3d" transform="translate(191.894531 0.015625)"/>
      <use xlink:href="#DejaVuSans-2212" transform="translate(314.648438 0.015625)"/>
      <use xlink:href="#DejaVuSans-63" transform="translate(417.919922 0.015625)"/>
      <use xlink:href="#DejaVuSans-6f" transform="translate(472.900391 0.015625)"/>
      <use xlink:href="#DejaVuSans-73" transform="translate(534.082031 0.015625)"/>
      <use xlink:href="#DejaVuSans-28" transform="translate(602.417317 0.015625)"/>
      <use xlink:href="#DejaVuSans-Oblique-78" transform="translate(641.430989 0.015625)"/>
      <use xlink:href="#DejaVuSans-29" transform="translate(700.610676 0.015625)"/>
      <use xlink:href="#DejaVuSans-2212" transform="translate(759.10677 0.015625)"/>
      <use xlink:href="#DejaVuSans-32" transform="translate(862.378254 0.015625)"/>
     </g>
    </g>
    <g id="line2d_18">
     <path d="M 285.02 69.250125 
L 295.02 69.250125 
L 305.02 69.250125 
" style="fill: none; stroke: #dc143c; stroke-width: 1.5; stroke-linecap: square"/>
    </g>
    <g id="text_20">
     <!-- $g(x) = \cos{\left(x \right)} - 2$ -->
     <g transform="translate(313.02 72.750125) scale(0.1 -0.1)">
      <defs>
       <path id="DejaVuSans-Oblique-67" d="M 3816 3500 
L 3219 434 
Q 3047 -456 2561 -893 
Q 2075 -1331 1253 -1331 
Q 950 -1331 690 -1286 
Q 431 -1241 206 -1147 
L 313 -588 
Q 525 -725 762 -790 
Q 1000 -856 1269 -856 
Q 1816 -856 2167 -557 
Q 2519 -259 2631 300 
L 2681 563 
Q 2441 288 2122 144 
Q 1803 0 1434 0 
Q 903 0 598 351 
Q 294 703 294 1319 
Q 294 1803 478 2267 
Q 663 2731 997 3091 
Q 1219 3328 1514 3456 
Q 1809 3584 2131 3584 
Q 2484 3584 2746 3420 
Q 3009 3256 3138 2956 
L 3238 3500 
L 3816 3500 
z
M 2950 2216 
Q 2950 2641 2750 2872 
Q 2550 3103 2181 3103 
Q 1953 3103 1747 3012 
Q 1541 2922 1394 2759 
Q 1156 2491 1023 2127 
Q 891 1763 891 1375 
Q 891 944 1092 712 
Q 1294 481 1672 481 
Q 2219 481 2584 976 
Q 2950 1472 2950 2216 
z
" transform="scale(0.015625)"/>
      </defs>
      <use xlink:href="#DejaVuSans-Oblique-67" transform="translate(0 0.125)"/>
      <use xlink:href="#DejaVuSans-28" transform="translate(63.476562 0.125)"/>
      <use xlink:href="#DejaVuSans-Oblique-78" transform="translate(102.490234 0.125)"/>
      <use xlink:href="#DejaVuSans-29" transform="translate(161.669922 0.125)"/>
      <use xlink:href="#DejaVuSans-3d" transform="translate(220.166016 0.125)"/>
      <use xlink:href="#DejaVuSans-63" transform="translate(323.4375 0.125)"/>
      <use xlink:href="#DejaVuSans-6f" transform="translate(378.417969 0.125)"/>
      <use xlink:href="#DejaVuSans-73" transform="translate(439.599609 0.125)"/>
      <use xlink:href="#DejaVuSans-28" transform="translate(507.934895 0.125)"/>
      <use xlink:href="#DejaVuSans-Oblique-78" transform="translate(546.948567 0.125)"/>
      <use xlink:href="#DejaVuSans-29" transform="translate(606.128254 0.125)"/>
      <use xlink:href="#DejaVuSans-2212" transform="translate(664.624348 0.125)"/>
      <use xlink:href="#DejaVuSans-32" transform="translate(767.895833 0.125)"/>
     </g>
    </g>
   </g>
  </g>
 </g>
 <defs>
  <clipPath id="p2db6ed846b">
   <rect x="57.6" y="41.472" width="357.12" height="266.112"/>
  </clipPath>
 </defs>
</svg>
