<?xml version="1.0" encoding="utf-8" standalone="no"?>
<!DOCTYPE svg PUBLIC "-//W3C//DTD SVG 1.1//EN"
  "http://www.w3.org/Graphics/SVG/1.1/DTD/svg11.dtd">
<svg xmlns:xlink="http://www.w3.org/1999/xlink" width="460.8pt" height="345.6pt" viewBox="0 0 460.8 345.6" xmlns="http://www.w3.org/2000/svg" version="1.1">
 <metadata>
  <rdf:RDF xmlns:dc="http://purl.org/dc/elements/1.1/" xmlns:cc="http://creativecommons.org/ns#" xmlns:rdf="http://www.w3.org/1999/02/22-rdf-syntax-ns#">
   <cc:Work>
    <dc:type rdf:resource="http://purl.org/dc/dcmitype/StillImage"/>
    <dc:date>2024-08-07T21:37:05.385459</dc:date>
    <dc:format>image/svg+xml</dc:format>
    <dc:creator>
     <cc:Agent>
      <dc:title>Matplotlib v3.8.3, https://matplotlib.org/</dc:title>
     </cc:Agent>
    </dc:creator>
   </cc:Work>
  </rdf:RDF>
 </metadata>
 <defs>
  <style type="text/css">*{stroke-linejoin: round; stroke-linecap: butt}</style>
 </defs>
 <g id="figure_1">
  <g id="patch_1">
   <path d="M 0 345.6 
L 460.8 345.6 
L 460.8 0 
L 0 0 
L 0 345.6 
z
" style="fill: none"/>
  </g>
  <g id="axes_1">
   <g id="patch_2">
    <path d="M 57.6 307.584 
L 414.72 307.584 
L 414.72 41.472 
L 57.6 41.472 
z
" style="fill: none"/>
   </g>
   <g id="LineCollection_1">
    <path d="M 57.6 254.3616 
L 414.72 254.3616 
" clip-path="url(#p304f5b831d)" style="fill: none; stroke: #d3d3d3; stroke-width: 1.5"/>
   </g>
   <g id="LineCollection_2">
    <path d="M 236.16 307.584 
L 236.16 41.472 
" clip-path="url(#p304f5b831d)" style="fill: none; stroke: #d3d3d3; stroke-width: 1.5"/>
   </g>
   <g id="matplotlib.axis_1">
    <g id="xtick_1">
     <g id="line2d_1">
      <defs>
       <path id="m5bdf447c88" d="M 0 0 
L 0 3.5 
" style="stroke: #d3d3d3; stroke-width: 0.8"/>
      </defs>
      <g>
       <use xlink:href="#m5bdf447c88" x="57.6" y="307.584" style="fill: #d3d3d3; stroke: #d3d3d3; stroke-width: 0.8"/>
      </g>
     </g>
     <g id="text_1">
      <!-- −4 -->
      <g style="fill: #d3d3d3" transform="translate(50.228906 322.182437) scale(0.1 -0.1)">
       <defs>
        <path id="DejaVuSans-2212" d="M 678 2272 
L 4684 2272 
L 4684 1741 
L 678 1741 
L 678 2272 
z
" transform="scale(0.015625)"/>
        <path id="DejaVuSans-34" d="M 2419 4116 
L 825 1625 
L 2419 1625 
L 2419 4116 
z
M 2253 4666 
L 3047 4666 
L 3047 1625 
L 3713 1625 
L 3713 1100 
L 3047 1100 
L 3047 0 
L 2419 0 
L 2419 1100 
L 313 1100 
L 313 1709 
L 2253 4666 
z
" transform="scale(0.015625)"/>
       </defs>
       <use xlink:href="#DejaVuSans-2212"/>
       <use xlink:href="#DejaVuSans-34" x="83.789062"/>
      </g>
     </g>
    </g>
    <g id="xtick_2">
     <g id="line2d_2">
      <g>
       <use xlink:href="#m5bdf447c88" x="102.24" y="307.584" style="fill: #d3d3d3; stroke: #d3d3d3; stroke-width: 0.8"/>
      </g>
     </g>
     <g id="text_2">
      <!-- −3 -->
      <g style="fill: #d3d3d3" transform="translate(94.868906 322.182437) scale(0.1 -0.1)">
       <defs>
        <path id="DejaVuSans-33" d="M 2597 2516 
Q 3050 2419 3304 2112 
Q 3559 1806 3559 1356 
Q 3559 666 3084 287 
Q 2609 -91 1734 -91 
Q 1441 -91 1130 -33 
Q 819 25 488 141 
L 488 750 
Q 750 597 1062 519 
Q 1375 441 1716 441 
Q 2309 441 2620 675 
Q 2931 909 2931 1356 
Q 2931 1769 2642 2001 
Q 2353 2234 1838 2234 
L 1294 2234 
L 1294 2753 
L 1863 2753 
Q 2328 2753 2575 2939 
Q 2822 3125 2822 3475 
Q 2822 3834 2567 4026 
Q 2313 4219 1838 4219 
Q 1578 4219 1281 4162 
Q 984 4106 628 3988 
L 628 4550 
Q 988 4650 1302 4700 
Q 1616 4750 1894 4750 
Q 2613 4750 3031 4423 
Q 3450 4097 3450 3541 
Q 3450 3153 3228 2886 
Q 3006 2619 2597 2516 
z
" transform="scale(0.015625)"/>
       </defs>
       <use xlink:href="#DejaVuSans-2212"/>
       <use xlink:href="#DejaVuSans-33" x="83.789062"/>
      </g>
     </g>
    </g>
    <g id="xtick_3">
     <g id="line2d_3">
      <g>
       <use xlink:href="#m5bdf447c88" x="146.88" y="307.584" style="fill: #d3d3d3; stroke: #d3d3d3; stroke-width: 0.8"/>
      </g>
     </g>
     <g id="text_3">
      <!-- −2 -->
      <g style="fill: #d3d3d3" transform="translate(139.508906 322.182437) scale(0.1 -0.1)">
       <defs>
        <path id="DejaVuSans-32" d="M 1228 531 
L 3431 531 
L 3431 0 
L 469 0 
L 469 531 
Q 828 903 1448 1529 
Q 2069 2156 2228 2338 
Q 2531 2678 2651 2914 
Q 2772 3150 2772 3378 
Q 2772 3750 2511 3984 
Q 2250 4219 1831 4219 
Q 1534 4219 1204 4116 
Q 875 4013 500 3803 
L 500 4441 
Q 881 4594 1212 4672 
Q 1544 4750 1819 4750 
Q 2544 4750 2975 4387 
Q 3406 4025 3406 3419 
Q 3406 3131 3298 2873 
Q 3191 2616 2906 2266 
Q 2828 2175 2409 1742 
Q 1991 1309 1228 531 
z
" transform="scale(0.015625)"/>
       </defs>
       <use xlink:href="#DejaVuSans-2212"/>
       <use xlink:href="#DejaVuSans-32" x="83.789062"/>
      </g>
     </g>
    </g>
    <g id="xtick_4">
     <g id="line2d_4">
      <g>
       <use xlink:href="#m5bdf447c88" x="191.52" y="307.584" style="fill: #d3d3d3; stroke: #d3d3d3; stroke-width: 0.8"/>
      </g>
     </g>
     <g id="text_4">
      <!-- −1 -->
      <g style="fill: #d3d3d3" transform="translate(184.148906 322.182437) scale(0.1 -0.1)">
       <defs>
        <path id="DejaVuSans-31" d="M 794 531 
L 1825 531 
L 1825 4091 
L 703 3866 
L 703 4441 
L 1819 4666 
L 2450 4666 
L 2450 531 
L 3481 531 
L 3481 0 
L 794 0 
L 794 531 
z
" transform="scale(0.015625)"/>
       </defs>
       <use xlink:href="#DejaVuSans-2212"/>
       <use xlink:href="#DejaVuSans-31" x="83.789062"/>
      </g>
     </g>
    </g>
    <g id="xtick_5">
     <g id="line2d_5">
      <g>
       <use xlink:href="#m5bdf447c88" x="236.16" y="307.584" style="fill: #d3d3d3; stroke: #d3d3d3; stroke-width: 0.8"/>
      </g>
     </g>
     <g id="text_5">
      <!-- 0 -->
      <g style="fill: #d3d3d3" transform="translate(232.97875 322.182437) scale(0.1 -0.1)">
       <defs>
        <path id="DejaVuSans-30" d="M 2034 4250 
Q 1547 4250 1301 3770 
Q 1056 3291 1056 2328 
Q 1056 1369 1301 889 
Q 1547 409 2034 409 
Q 2525 409 2770 889 
Q 3016 1369 3016 2328 
Q 3016 3291 2770 3770 
Q 2525 4250 2034 4250 
z
M 2034 4750 
Q 2819 4750 3233 4129 
Q 3647 3509 3647 2328 
Q 3647 1150 3233 529 
Q 2819 -91 2034 -91 
Q 1250 -91 836 529 
Q 422 1150 422 2328 
Q 422 3509 836 4129 
Q 1250 4750 2034 4750 
z
" transform="scale(0.015625)"/>
       </defs>
       <use xlink:href="#DejaVuSans-30"/>
      </g>
     </g>
    </g>
    <g id="xtick_6">
     <g id="line2d_6">
      <g>
       <use xlink:href="#m5bdf447c88" x="280.8" y="307.584" style="fill: #d3d3d3; stroke: #d3d3d3; stroke-width: 0.8"/>
      </g>
     </g>
     <g id="text_6">
      <!-- 1 -->
      <g style="fill: #d3d3d3" transform="translate(277.61875 322.182437) scale(0.1 -0.1)">
       <use xlink:href="#DejaVuSans-31"/>
      </g>
     </g>
    </g>
    <g id="xtick_7">
     <g id="line2d_7">
      <g>
       <use xlink:href="#m5bdf447c88" x="325.44" y="307.584" style="fill: #d3d3d3; stroke: #d3d3d3; stroke-width: 0.8"/>
      </g>
     </g>
     <g id="text_7">
      <!-- 2 -->
      <g style="fill: #d3d3d3" transform="translate(322.25875 322.182437) scale(0.1 -0.1)">
       <use xlink:href="#DejaVuSans-32"/>
      </g>
     </g>
    </g>
    <g id="xtick_8">
     <g id="line2d_8">
      <g>
       <use xlink:href="#m5bdf447c88" x="370.08" y="307.584" style="fill: #d3d3d3; stroke: #d3d3d3; stroke-width: 0.8"/>
      </g>
     </g>
     <g id="text_8">
      <!-- 3 -->
      <g style="fill: #d3d3d3" transform="translate(366.89875 322.182437) scale(0.1 -0.1)">
       <use xlink:href="#DejaVuSans-33"/>
      </g>
     </g>
    </g>
    <g id="xtick_9">
     <g id="line2d_9">
      <g>
       <use xlink:href="#m5bdf447c88" x="414.72" y="307.584" style="fill: #d3d3d3; stroke: #d3d3d3; stroke-width: 0.8"/>
      </g>
     </g>
     <g id="text_9">
      <!-- 4 -->
      <g style="fill: #d3d3d3" transform="translate(411.53875 322.182437) scale(0.1 -0.1)">
       <use xlink:href="#DejaVuSans-34"/>
      </g>
     </g>
    </g>
    <g id="text_10">
     <!-- X-as -->
     <g style="fill: #d3d3d3" transform="translate(225.512344 335.860562) scale(0.1 -0.1)">
      <defs>
       <path id="DejaVuSans-58" d="M 403 4666 
L 1081 4666 
L 2241 2931 
L 3406 4666 
L 4084 4666 
L 2584 2425 
L 4184 0 
L 3506 0 
L 2194 1984 
L 872 0 
L 191 0 
L 1856 2491 
L 403 4666 
z
" transform="scale(0.015625)"/>
       <path id="DejaVuSans-2d" d="M 313 2009 
L 1997 2009 
L 1997 1497 
L 313 1497 
L 313 2009 
z
" transform="scale(0.015625)"/>
       <path id="DejaVuSans-61" d="M 2194 1759 
Q 1497 1759 1228 1600 
Q 959 1441 959 1056 
Q 959 750 1161 570 
Q 1363 391 1709 391 
Q 2188 391 2477 730 
Q 2766 1069 2766 1631 
L 2766 1759 
L 2194 1759 
z
M 3341 1997 
L 3341 0 
L 2766 0 
L 2766 531 
Q 2569 213 2275 61 
Q 1981 -91 1556 -91 
Q 1019 -91 701 211 
Q 384 513 384 1019 
Q 384 1609 779 1909 
Q 1175 2209 1959 2209 
L 2766 2209 
L 2766 2266 
Q 2766 2663 2505 2880 
Q 2244 3097 1772 3097 
Q 1472 3097 1187 3025 
Q 903 2953 641 2809 
L 641 3341 
Q 956 3463 1253 3523 
Q 1550 3584 1831 3584 
Q 2591 3584 2966 3190 
Q 3341 2797 3341 1997 
z
" transform="scale(0.015625)"/>
       <path id="DejaVuSans-73" d="M 2834 3397 
L 2834 2853 
Q 2591 2978 2328 3040 
Q 2066 3103 1784 3103 
Q 1356 3103 1142 2972 
Q 928 2841 928 2578 
Q 928 2378 1081 2264 
Q 1234 2150 1697 2047 
L 1894 2003 
Q 2506 1872 2764 1633 
Q 3022 1394 3022 966 
Q 3022 478 2636 193 
Q 2250 -91 1575 -91 
Q 1294 -91 989 -36 
Q 684 19 347 128 
L 347 722 
Q 666 556 975 473 
Q 1284 391 1588 391 
Q 1994 391 2212 530 
Q 2431 669 2431 922 
Q 2431 1156 2273 1281 
Q 2116 1406 1581 1522 
L 1381 1569 
Q 847 1681 609 1914 
Q 372 2147 372 2553 
Q 372 3047 722 3315 
Q 1072 3584 1716 3584 
Q 2034 3584 2315 3537 
Q 2597 3491 2834 3397 
z
" transform="scale(0.015625)"/>
      </defs>
      <use xlink:href="#DejaVuSans-58"/>
      <use xlink:href="#DejaVuSans-2d" x="63.505859"/>
      <use xlink:href="#DejaVuSans-61" x="99.589844"/>
      <use xlink:href="#DejaVuSans-73" x="160.869141"/>
     </g>
    </g>
   </g>
   <g id="matplotlib.axis_2">
    <g id="ytick_1">
     <g id="line2d_10">
      <defs>
       <path id="mb9d1a5221e" d="M 0 0 
L -3.5 0 
" style="stroke: #d3d3d3; stroke-width: 0.8"/>
      </defs>
      <g>
       <use xlink:href="#mb9d1a5221e" x="57.6" y="307.584" style="fill: #d3d3d3; stroke: #d3d3d3; stroke-width: 0.8"/>
      </g>
     </g>
     <g id="text_11">
      <!-- −2 -->
      <g style="fill: #d3d3d3" transform="translate(35.857813 311.383219) scale(0.1 -0.1)">
       <use xlink:href="#DejaVuSans-2212"/>
       <use xlink:href="#DejaVuSans-32" x="83.789062"/>
      </g>
     </g>
    </g>
    <g id="ytick_2">
     <g id="line2d_11">
      <g>
       <use xlink:href="#mb9d1a5221e" x="57.6" y="254.3616" style="fill: #d3d3d3; stroke: #d3d3d3; stroke-width: 0.8"/>
      </g>
     </g>
     <g id="text_12">
      <!-- 0 -->
      <g style="fill: #d3d3d3" transform="translate(44.2375 258.160819) scale(0.1 -0.1)">
       <use xlink:href="#DejaVuSans-30"/>
      </g>
     </g>
    </g>
    <g id="ytick_3">
     <g id="line2d_12">
      <g>
       <use xlink:href="#mb9d1a5221e" x="57.6" y="201.1392" style="fill: #d3d3d3; stroke: #d3d3d3; stroke-width: 0.8"/>
      </g>
     </g>
     <g id="text_13">
      <!-- 2 -->
      <g style="fill: #d3d3d3" transform="translate(44.2375 204.938419) scale(0.1 -0.1)">
       <use xlink:href="#DejaVuSans-32"/>
      </g>
     </g>
    </g>
    <g id="ytick_4">
     <g id="line2d_13">
      <g>
       <use xlink:href="#mb9d1a5221e" x="57.6" y="147.9168" style="fill: #d3d3d3; stroke: #d3d3d3; stroke-width: 0.8"/>
      </g>
     </g>
     <g id="text_14">
      <!-- 4 -->
      <g style="fill: #d3d3d3" transform="translate(44.2375 151.716019) scale(0.1 -0.1)">
       <use xlink:href="#DejaVuSans-34"/>
      </g>
     </g>
    </g>
    <g id="ytick_5">
     <g id="line2d_14">
      <g>
       <use xlink:href="#mb9d1a5221e" x="57.6" y="94.6944" style="fill: #d3d3d3; stroke: #d3d3d3; stroke-width: 0.8"/>
      </g>
     </g>
     <g id="text_15">
      <!-- 6 -->
      <g style="fill: #d3d3d3" transform="translate(44.2375 98.493619) scale(0.1 -0.1)">
       <defs>
        <path id="DejaVuSans-36" d="M 2113 2584 
Q 1688 2584 1439 2293 
Q 1191 2003 1191 1497 
Q 1191 994 1439 701 
Q 1688 409 2113 409 
Q 2538 409 2786 701 
Q 3034 994 3034 1497 
Q 3034 2003 2786 2293 
Q 2538 2584 2113 2584 
z
M 3366 4563 
L 3366 3988 
Q 3128 4100 2886 4159 
Q 2644 4219 2406 4219 
Q 1781 4219 1451 3797 
Q 1122 3375 1075 2522 
Q 1259 2794 1537 2939 
Q 1816 3084 2150 3084 
Q 2853 3084 3261 2657 
Q 3669 2231 3669 1497 
Q 3669 778 3244 343 
Q 2819 -91 2113 -91 
Q 1303 -91 875 529 
Q 447 1150 447 2328 
Q 447 3434 972 4092 
Q 1497 4750 2381 4750 
Q 2619 4750 2861 4703 
Q 3103 4656 3366 4563 
z
" transform="scale(0.015625)"/>
       </defs>
       <use xlink:href="#DejaVuSans-36"/>
      </g>
     </g>
    </g>
    <g id="ytick_6">
     <g id="line2d_15">
      <g>
       <use xlink:href="#mb9d1a5221e" x="57.6" y="41.472" style="fill: #d3d3d3; stroke: #d3d3d3; stroke-width: 0.8"/>
      </g>
     </g>
     <g id="text_16">
      <!-- 8 -->
      <g style="fill: #d3d3d3" transform="translate(44.2375 45.271219) scale(0.1 -0.1)">
       <defs>
        <path id="DejaVuSans-38" d="M 2034 2216 
Q 1584 2216 1326 1975 
Q 1069 1734 1069 1313 
Q 1069 891 1326 650 
Q 1584 409 2034 409 
Q 2484 409 2743 651 
Q 3003 894 3003 1313 
Q 3003 1734 2745 1975 
Q 2488 2216 2034 2216 
z
M 1403 2484 
Q 997 2584 770 2862 
Q 544 3141 544 3541 
Q 544 4100 942 4425 
Q 1341 4750 2034 4750 
Q 2731 4750 3128 4425 
Q 3525 4100 3525 3541 
Q 3525 3141 3298 2862 
Q 3072 2584 2669 2484 
Q 3125 2378 3379 2068 
Q 3634 1759 3634 1313 
Q 3634 634 3220 271 
Q 2806 -91 2034 -91 
Q 1263 -91 848 271 
Q 434 634 434 1313 
Q 434 1759 690 2068 
Q 947 2378 1403 2484 
z
M 1172 3481 
Q 1172 3119 1398 2916 
Q 1625 2713 2034 2713 
Q 2441 2713 2670 2916 
Q 2900 3119 2900 3481 
Q 2900 3844 2670 4047 
Q 2441 4250 2034 4250 
Q 1625 4250 1398 4047 
Q 1172 3844 1172 3481 
z
" transform="scale(0.015625)"/>
       </defs>
       <use xlink:href="#DejaVuSans-38"/>
      </g>
     </g>
    </g>
    <g id="text_17">
     <!-- Y-as -->
     <g style="fill: #d3d3d3" transform="translate(29.778125 184.460813) rotate(-90) scale(0.1 -0.1)">
      <defs>
       <path id="DejaVuSans-59" d="M -13 4666 
L 666 4666 
L 1959 2747 
L 3244 4666 
L 3922 4666 
L 2272 2222 
L 2272 0 
L 1638 0 
L 1638 2222 
L -13 4666 
z
" transform="scale(0.015625)"/>
      </defs>
      <use xlink:href="#DejaVuSans-59"/>
      <use xlink:href="#DejaVuSans-2d" x="49.208984"/>
      <use xlink:href="#DejaVuSans-61" x="85.292969"/>
      <use xlink:href="#DejaVuSans-73" x="146.572266"/>
     </g>
    </g>
   </g>
   <g id="line2d_16">
    <path d="M 98.815788 346.6 
L 104.472 326.278368 
L 109.8288 307.82084 
L 115.1856 290.129714 
L 120.5424 273.204991 
L 125.8992 257.04667 
L 130.8096 242.90814 
L 135.72 229.4136 
L 140.6304 216.563052 
L 145.5408 204.356494 
L 150.0048 193.818459 
L 154.4688 183.812648 
L 158.9328 174.33906 
L 163.3968 165.397697 
L 167.8608 156.988558 
L 171.8784 149.875384 
L 175.896 143.193312 
L 179.9136 136.942341 
L 183.9312 131.122472 
L 187.5024 126.311167 
L 191.0736 121.840485 
L 194.6448 117.710427 
L 198.216 113.920992 
L 201.7872 110.47218 
L 205.3584 107.363992 
L 208.4832 104.923745 
L 211.608 102.744288 
L 214.7328 100.82562 
L 217.8576 99.167743 
L 220.9824 97.770655 
L 224.1072 96.634356 
L 227.232 95.758848 
L 230.3568 95.144129 
L 233.4816 94.7902 
L 236.16 94.6944 
L 238.8384 94.7902 
L 241.5168 95.077601 
L 244.6416 95.655064 
L 247.7664 96.493317 
L 250.8912 97.59236 
L 254.016 98.952192 
L 257.1408 100.572814 
L 260.2656 102.454226 
L 263.3904 104.596428 
L 266.5152 106.999419 
L 269.64 109.6632 
L 273.2112 113.026856 
L 276.7824 116.731135 
L 280.3536 120.776037 
L 283.9248 125.161563 
L 287.496 129.887712 
L 291.0672 134.954484 
L 295.0848 141.061755 
L 299.1024 147.600127 
L 303.12 154.5696 
L 307.1376 161.970175 
L 311.1552 169.801851 
L 315.6192 179.009326 
L 320.0832 188.749025 
L 324.5472 199.020948 
L 329.0112 209.825096 
L 333.9216 222.324376 
L 338.832 235.467648 
L 343.7424 249.254911 
L 348.6528 263.686164 
L 354.0096 280.16382 
L 359.3664 297.407877 
L 364.7232 315.418337 
L 370.08 334.1952 
L 373.504212 346.6 
L 373.504212 346.6 
" clip-path="url(#p304f5b831d)" style="fill: none; stroke: #00ced1; stroke-width: 1.5; stroke-linecap: square"/>
   </g>
   <g id="line2d_17">
    <path d="M 57.6 254.3616 
L 414.2736 41.738112 
L 414.2736 41.738112 
" clip-path="url(#p304f5b831d)" style="fill: none; stroke: #dc143c; stroke-width: 1.5; stroke-linecap: square"/>
   </g>
   <g id="patch_3">
    <path d="M 57.6 307.584 
L 57.6 41.472 
" style="fill: none; stroke: #d3d3d3; stroke-width: 0.8; stroke-linejoin: miter; stroke-linecap: square"/>
   </g>
   <g id="patch_4">
    <path d="M 414.72 307.584 
L 414.72 41.472 
" style="fill: none; stroke: #d3d3d3; stroke-width: 0.8; stroke-linejoin: miter; stroke-linecap: square"/>
   </g>
   <g id="patch_5">
    <path d="M 57.6 307.584 
L 414.72 307.584 
" style="fill: none; stroke: #d3d3d3; stroke-width: 0.8; stroke-linejoin: miter; stroke-linecap: square"/>
   </g>
   <g id="patch_6">
    <path d="M 57.6 41.472 
L 414.72 41.472 
" style="fill: none; stroke: #d3d3d3; stroke-width: 0.8; stroke-linejoin: miter; stroke-linecap: square"/>
   </g>
   <g id="PolyCollection_1">
    <defs>
     <path id="m4d27a8c6a8" d="M 147.3264 -91.2384 
L 147.3264 -145.522587 
L 147.7728 -146.579052 
L 148.2192 -147.630194 
L 148.6656 -148.676014 
L 149.112 -149.716512 
L 149.5584 -150.751688 
L 150.0048 -151.781541 
L 150.4512 -152.806072 
L 150.8976 -153.825281 
L 151.344 -154.839168 
L 151.7904 -155.847732 
L 152.2368 -156.850975 
L 152.6832 -157.848895 
L 153.1296 -158.841492 
L 153.576 -159.828768 
L 154.0224 -160.810721 
L 154.4688 -161.787352 
L 154.9152 -162.758661 
L 155.3616 -163.724648 
L 155.808 -164.685312 
L 156.2544 -165.640654 
L 156.7008 -166.590674 
L 157.1472 -167.535372 
L 157.5936 -168.474747 
L 158.04 -169.4088 
L 158.4864 -170.337531 
L 158.9328 -171.26094 
L 159.3792 -172.179026 
L 159.8256 -173.09179 
L 160.272 -173.999232 
L 160.7184 -174.901352 
L 161.1648 -175.798149 
L 161.6112 -176.689624 
L 162.0576 -177.575777 
L 162.504 -178.456608 
L 162.9504 -179.332116 
L 163.3968 -180.202303 
L 163.8432 -181.067167 
L 164.2896 -181.926708 
L 164.736 -182.780928 
L 165.1824 -183.629825 
L 165.6288 -184.4734 
L 166.0752 -185.311653 
L 166.5216 -186.144584 
L 166.968 -186.972192 
L 167.4144 -187.794478 
L 167.8608 -188.611442 
L 168.3072 -189.423084 
L 168.7536 -190.229403 
L 169.2 -191.0304 
L 169.6464 -191.826075 
L 170.0928 -192.616428 
L 170.5392 -193.401458 
L 170.9856 -194.181166 
L 171.432 -194.955552 
L 171.8784 -195.724616 
L 172.3248 -196.488357 
L 172.7712 -197.246776 
L 173.2176 -197.999873 
L 173.664 -198.747648 
L 174.1104 -199.4901 
L 174.5568 -200.227231 
L 175.0032 -200.959039 
L 175.4496 -201.685524 
L 175.896 -202.406688 
L 176.3424 -203.122529 
L 176.7888 -203.833048 
L 177.2352 -204.538245 
L 177.6816 -205.23812 
L 178.128 -205.932672 
L 178.5744 -206.621902 
L 179.0208 -207.30581 
L 179.4672 -207.984396 
L 179.9136 -208.657659 
L 180.36 -209.3256 
L 180.8064 -209.988219 
L 181.2528 -210.645516 
L 181.6992 -211.29749 
L 182.1456 -211.944142 
L 182.592 -212.585472 
L 183.0384 -213.22148 
L 183.4848 -213.852165 
L 183.9312 -214.477528 
L 184.3776 -215.097569 
L 184.824 -215.712288 
L 185.2704 -216.321684 
L 185.7168 -216.925759 
L 186.1632 -217.524511 
L 186.6096 -218.11794 
L 187.056 -218.706048 
L 187.5024 -219.288833 
L 187.9488 -219.866296 
L 188.3952 -220.438437 
L 188.8416 -221.005256 
L 189.288 -221.566752 
L 189.7344 -222.122926 
L 190.1808 -222.673778 
L 190.6272 -223.219308 
L 191.0736 -223.759515 
L 191.52 -224.2944 
L 191.9664 -224.823963 
L 192.4128 -225.348204 
L 192.8592 -225.867122 
L 193.3056 -226.380718 
L 193.752 -226.888992 
L 194.1984 -227.391944 
L 194.6448 -227.889573 
L 195.0912 -228.38188 
L 195.5376 -228.868865 
L 195.984 -229.350528 
L 196.4304 -229.826868 
L 196.8768 -230.297887 
L 197.3232 -230.763583 
L 197.7696 -231.223956 
L 198.216 -231.679008 
L 198.6624 -232.128737 
L 199.1088 -232.573144 
L 199.5552 -233.012229 
L 200.0016 -233.445992 
L 200.448 -233.874432 
L 200.8944 -234.29755 
L 201.3408 -234.715346 
L 201.7872 -235.12782 
L 202.2336 -235.534971 
L 202.68 -235.9368 
L 203.1264 -236.333307 
L 203.5728 -236.724492 
L 204.0192 -237.110354 
L 204.4656 -237.490894 
L 204.912 -237.866112 
L 205.3584 -238.236008 
L 205.8048 -238.600581 
L 206.2512 -238.959832 
L 206.6976 -239.313761 
L 207.144 -239.662368 
L 207.5904 -240.005652 
L 208.0368 -240.343615 
L 208.4832 -240.676255 
L 208.9296 -241.003572 
L 209.376 -241.325568 
L 209.8224 -241.642241 
L 210.2688 -241.953592 
L 210.7152 -242.259621 
L 211.1616 -242.560328 
L 211.608 -242.855712 
L 212.0544 -243.145774 
L 212.5008 -243.430514 
L 212.9472 -243.709932 
L 213.3936 -243.984027 
L 213.84 -244.2528 
L 214.2864 -244.516251 
L 214.7328 -244.77438 
L 215.1792 -245.027186 
L 215.6256 -245.27467 
L 216.072 -245.516832 
L 216.5184 -245.753672 
L 216.9648 -245.985189 
L 217.4112 -246.211384 
L 217.8576 -246.432257 
L 218.304 -246.647808 
L 218.7504 -246.858036 
L 219.1968 -247.062943 
L 219.6432 -247.262527 
L 220.0896 -247.456788 
L 220.536 -247.645728 
L 220.9824 -247.829345 
L 221.4288 -248.00764 
L 221.8752 -248.180613 
L 222.3216 -248.348264 
L 222.768 -248.510592 
L 223.2144 -248.667598 
L 223.6608 -248.819282 
L 224.1072 -248.965644 
L 224.5536 -249.106683 
L 225 -249.2424 
L 225.4464 -249.372795 
L 225.8928 -249.497868 
L 226.3392 -249.617618 
L 226.7856 -249.732046 
L 227.232 -249.841152 
L 227.6784 -249.944936 
L 228.1248 -250.043397 
L 228.5712 -250.136536 
L 229.0176 -250.224353 
L 229.464 -250.306848 
L 229.9104 -250.38402 
L 230.3568 -250.455871 
L 230.8032 -250.522399 
L 231.2496 -250.583604 
L 231.696 -250.639488 
L 232.1424 -250.690049 
L 232.5888 -250.735288 
L 233.0352 -250.775205 
L 233.4816 -250.8098 
L 233.928 -250.839072 
L 234.3744 -250.863022 
L 234.8208 -250.88165 
L 235.2672 -250.894956 
L 235.7136 -250.902939 
L 236.16 -250.9056 
L 236.6064 -250.902939 
L 237.0528 -250.894956 
L 237.4992 -250.88165 
L 237.9456 -250.863022 
L 238.392 -250.839072 
L 238.8384 -250.8098 
L 239.2848 -250.775205 
L 239.7312 -250.735288 
L 240.1776 -250.690049 
L 240.624 -250.639488 
L 241.0704 -250.583604 
L 241.5168 -250.522399 
L 241.9632 -250.455871 
L 242.4096 -250.38402 
L 242.856 -250.306848 
L 243.3024 -250.224353 
L 243.7488 -250.136536 
L 244.1952 -250.043397 
L 244.6416 -249.944936 
L 245.088 -249.841152 
L 245.5344 -249.732046 
L 245.9808 -249.617618 
L 246.4272 -249.497868 
L 246.8736 -249.372795 
L 247.32 -249.2424 
L 247.7664 -249.106683 
L 248.2128 -248.965644 
L 248.6592 -248.819282 
L 249.1056 -248.667598 
L 249.552 -248.510592 
L 249.9984 -248.348264 
L 250.4448 -248.180613 
L 250.8912 -248.00764 
L 251.3376 -247.829345 
L 251.784 -247.645728 
L 252.2304 -247.456788 
L 252.6768 -247.262527 
L 253.1232 -247.062943 
L 253.5696 -246.858036 
L 254.016 -246.647808 
L 254.4624 -246.432257 
L 254.9088 -246.211384 
L 255.3552 -245.985189 
L 255.8016 -245.753672 
L 256.248 -245.516832 
L 256.6944 -245.27467 
L 257.1408 -245.027186 
L 257.5872 -244.77438 
L 258.0336 -244.516251 
L 258.48 -244.2528 
L 258.9264 -243.984027 
L 259.3728 -243.709932 
L 259.8192 -243.430514 
L 260.2656 -243.145774 
L 260.712 -242.855712 
L 261.1584 -242.560328 
L 261.6048 -242.259621 
L 262.0512 -241.953592 
L 262.4976 -241.642241 
L 262.944 -241.325568 
L 263.3904 -241.003572 
L 263.8368 -240.676255 
L 264.2832 -240.343615 
L 264.7296 -240.005652 
L 265.176 -239.662368 
L 265.6224 -239.313761 
L 266.0688 -238.959832 
L 266.5152 -238.600581 
L 266.9616 -238.236008 
L 267.408 -237.866112 
L 267.8544 -237.490894 
L 268.3008 -237.110354 
L 268.7472 -236.724492 
L 269.1936 -236.333307 
L 269.64 -235.9368 
L 270.0864 -235.534971 
L 270.5328 -235.12782 
L 270.9792 -234.715346 
L 271.4256 -234.29755 
L 271.872 -233.874432 
L 272.3184 -233.445992 
L 272.7648 -233.012229 
L 273.2112 -232.573144 
L 273.6576 -232.128737 
L 274.104 -231.679008 
L 274.5504 -231.223956 
L 274.9968 -230.763583 
L 275.4432 -230.297887 
L 275.8896 -229.826868 
L 276.336 -229.350528 
L 276.7824 -228.868865 
L 277.2288 -228.38188 
L 277.6752 -227.889573 
L 278.1216 -227.391944 
L 278.568 -226.888992 
L 279.0144 -226.380718 
L 279.4608 -225.867122 
L 279.9072 -225.348204 
L 280.3536 -224.823963 
L 280.8 -224.2944 
L 280.8 -91.2384 
L 280.8 -91.2384 
L 280.3536 -91.2384 
L 279.9072 -91.2384 
L 279.4608 -91.2384 
L 279.0144 -91.2384 
L 278.568 -91.2384 
L 278.1216 -91.2384 
L 277.6752 -91.2384 
L 277.2288 -91.2384 
L 276.7824 -91.2384 
L 276.336 -91.2384 
L 275.8896 -91.2384 
L 275.4432 -91.2384 
L 274.9968 -91.2384 
L 274.5504 -91.2384 
L 274.104 -91.2384 
L 273.6576 -91.2384 
L 273.2112 -91.2384 
L 272.7648 -91.2384 
L 272.3184 -91.2384 
L 271.872 -91.2384 
L 271.4256 -91.2384 
L 270.9792 -91.2384 
L 270.5328 -91.2384 
L 270.0864 -91.2384 
L 269.64 -91.2384 
L 269.1936 -91.2384 
L 268.7472 -91.2384 
L 268.3008 -91.2384 
L 267.8544 -91.2384 
L 267.408 -91.2384 
L 266.9616 -91.2384 
L 266.5152 -91.2384 
L 266.0688 -91.2384 
L 265.6224 -91.2384 
L 265.176 -91.2384 
L 264.7296 -91.2384 
L 264.2832 -91.2384 
L 263.8368 -91.2384 
L 263.3904 -91.2384 
L 262.944 -91.2384 
L 262.4976 -91.2384 
L 262.0512 -91.2384 
L 261.6048 -91.2384 
L 261.1584 -91.2384 
L 260.712 -91.2384 
L 260.2656 -91.2384 
L 259.8192 -91.2384 
L 259.3728 -91.2384 
L 258.9264 -91.2384 
L 258.48 -91.2384 
L 258.0336 -91.2384 
L 257.5872 -91.2384 
L 257.1408 -91.2384 
L 256.6944 -91.2384 
L 256.248 -91.2384 
L 255.8016 -91.2384 
L 255.3552 -91.2384 
L 254.9088 -91.2384 
L 254.4624 -91.2384 
L 254.016 -91.2384 
L 253.5696 -91.2384 
L 253.1232 -91.2384 
L 252.6768 -91.2384 
L 252.2304 -91.2384 
L 251.784 -91.2384 
L 251.3376 -91.2384 
L 250.8912 -91.2384 
L 250.4448 -91.2384 
L 249.9984 -91.2384 
L 249.552 -91.2384 
L 249.1056 -91.2384 
L 248.6592 -91.2384 
L 248.2128 -91.2384 
L 247.7664 -91.2384 
L 247.32 -91.2384 
L 246.8736 -91.2384 
L 246.4272 -91.2384 
L 245.9808 -91.2384 
L 245.5344 -91.2384 
L 245.088 -91.2384 
L 244.6416 -91.2384 
L 244.1952 -91.2384 
L 243.7488 -91.2384 
L 243.3024 -91.2384 
L 242.856 -91.2384 
L 242.4096 -91.2384 
L 241.9632 -91.2384 
L 241.5168 -91.2384 
L 241.0704 -91.2384 
L 240.624 -91.2384 
L 240.1776 -91.2384 
L 239.7312 -91.2384 
L 239.2848 -91.2384 
L 238.8384 -91.2384 
L 238.392 -91.2384 
L 237.9456 -91.2384 
L 237.4992 -91.2384 
L 237.0528 -91.2384 
L 236.6064 -91.2384 
L 236.16 -91.2384 
L 235.7136 -91.2384 
L 235.2672 -91.2384 
L 234.8208 -91.2384 
L 234.3744 -91.2384 
L 233.928 -91.2384 
L 233.4816 -91.2384 
L 233.0352 -91.2384 
L 232.5888 -91.2384 
L 232.1424 -91.2384 
L 231.696 -91.2384 
L 231.2496 -91.2384 
L 230.8032 -91.2384 
L 230.3568 -91.2384 
L 229.9104 -91.2384 
L 229.464 -91.2384 
L 229.0176 -91.2384 
L 228.5712 -91.2384 
L 228.1248 -91.2384 
L 227.6784 -91.2384 
L 227.232 -91.2384 
L 226.7856 -91.2384 
L 226.3392 -91.2384 
L 225.8928 -91.2384 
L 225.4464 -91.2384 
L 225 -91.2384 
L 224.5536 -91.2384 
L 224.1072 -91.2384 
L 223.6608 -91.2384 
L 223.2144 -91.2384 
L 222.768 -91.2384 
L 222.3216 -91.2384 
L 221.8752 -91.2384 
L 221.4288 -91.2384 
L 220.9824 -91.2384 
L 220.536 -91.2384 
L 220.0896 -91.2384 
L 219.6432 -91.2384 
L 219.1968 -91.2384 
L 218.7504 -91.2384 
L 218.304 -91.2384 
L 217.8576 -91.2384 
L 217.4112 -91.2384 
L 216.9648 -91.2384 
L 216.5184 -91.2384 
L 216.072 -91.2384 
L 215.6256 -91.2384 
L 215.1792 -91.2384 
L 214.7328 -91.2384 
L 214.2864 -91.2384 
L 213.84 -91.2384 
L 213.3936 -91.2384 
L 212.9472 -91.2384 
L 212.5008 -91.2384 
L 212.0544 -91.2384 
L 211.608 -91.2384 
L 211.1616 -91.2384 
L 210.7152 -91.2384 
L 210.2688 -91.2384 
L 209.8224 -91.2384 
L 209.376 -91.2384 
L 208.9296 -91.2384 
L 208.4832 -91.2384 
L 208.0368 -91.2384 
L 207.5904 -91.2384 
L 207.144 -91.2384 
L 206.6976 -91.2384 
L 206.2512 -91.2384 
L 205.8048 -91.2384 
L 205.3584 -91.2384 
L 204.912 -91.2384 
L 204.4656 -91.2384 
L 204.0192 -91.2384 
L 203.5728 -91.2384 
L 203.1264 -91.2384 
L 202.68 -91.2384 
L 202.2336 -91.2384 
L 201.7872 -91.2384 
L 201.3408 -91.2384 
L 200.8944 -91.2384 
L 200.448 -91.2384 
L 200.0016 -91.2384 
L 199.5552 -91.2384 
L 199.1088 -91.2384 
L 198.6624 -91.2384 
L 198.216 -91.2384 
L 197.7696 -91.2384 
L 197.3232 -91.2384 
L 196.8768 -91.2384 
L 196.4304 -91.2384 
L 195.984 -91.2384 
L 195.5376 -91.2384 
L 195.0912 -91.2384 
L 194.6448 -91.2384 
L 194.1984 -91.2384 
L 193.752 -91.2384 
L 193.3056 -91.2384 
L 192.8592 -91.2384 
L 192.4128 -91.2384 
L 191.9664 -91.2384 
L 191.52 -91.2384 
L 191.0736 -91.2384 
L 190.6272 -91.2384 
L 190.1808 -91.2384 
L 189.7344 -91.2384 
L 189.288 -91.2384 
L 188.8416 -91.2384 
L 188.3952 -91.2384 
L 187.9488 -91.2384 
L 187.5024 -91.2384 
L 187.056 -91.2384 
L 186.6096 -91.2384 
L 186.1632 -91.2384 
L 185.7168 -91.2384 
L 185.2704 -91.2384 
L 184.824 -91.2384 
L 184.3776 -91.2384 
L 183.9312 -91.2384 
L 183.4848 -91.2384 
L 183.0384 -91.2384 
L 182.592 -91.2384 
L 182.1456 -91.2384 
L 181.6992 -91.2384 
L 181.2528 -91.2384 
L 180.8064 -91.2384 
L 180.36 -91.2384 
L 179.9136 -91.2384 
L 179.4672 -91.2384 
L 179.0208 -91.2384 
L 178.5744 -91.2384 
L 178.128 -91.2384 
L 177.6816 -91.2384 
L 177.2352 -91.2384 
L 176.7888 -91.2384 
L 176.3424 -91.2384 
L 175.896 -91.2384 
L 175.4496 -91.2384 
L 175.0032 -91.2384 
L 174.5568 -91.2384 
L 174.1104 -91.2384 
L 173.664 -91.2384 
L 173.2176 -91.2384 
L 172.7712 -91.2384 
L 172.3248 -91.2384 
L 171.8784 -91.2384 
L 171.432 -91.2384 
L 170.9856 -91.2384 
L 170.5392 -91.2384 
L 170.0928 -91.2384 
L 169.6464 -91.2384 
L 169.2 -91.2384 
L 168.7536 -91.2384 
L 168.3072 -91.2384 
L 167.8608 -91.2384 
L 167.4144 -91.2384 
L 166.968 -91.2384 
L 166.5216 -91.2384 
L 166.0752 -91.2384 
L 165.6288 -91.2384 
L 165.1824 -91.2384 
L 164.736 -91.2384 
L 164.2896 -91.2384 
L 163.8432 -91.2384 
L 163.3968 -91.2384 
L 162.9504 -91.2384 
L 162.504 -91.2384 
L 162.0576 -91.2384 
L 161.6112 -91.2384 
L 161.1648 -91.2384 
L 160.7184 -91.2384 
L 160.272 -91.2384 
L 159.8256 -91.2384 
L 159.3792 -91.2384 
L 158.9328 -91.2384 
L 158.4864 -91.2384 
L 158.04 -91.2384 
L 157.5936 -91.2384 
L 157.1472 -91.2384 
L 156.7008 -91.2384 
L 156.2544 -91.2384 
L 155.808 -91.2384 
L 155.3616 -91.2384 
L 154.9152 -91.2384 
L 154.4688 -91.2384 
L 154.0224 -91.2384 
L 153.576 -91.2384 
L 153.1296 -91.2384 
L 152.6832 -91.2384 
L 152.2368 -91.2384 
L 151.7904 -91.2384 
L 151.344 -91.2384 
L 150.8976 -91.2384 
L 150.4512 -91.2384 
L 150.0048 -91.2384 
L 149.5584 -91.2384 
L 149.112 -91.2384 
L 148.6656 -91.2384 
L 148.2192 -91.2384 
L 147.7728 -91.2384 
L 147.3264 -91.2384 
z
" style="stroke: #00ff7f; stroke-opacity: 0.7"/>
    </defs>
    <g clip-path="url(#p304f5b831d)">
     <use xlink:href="#m4d27a8c6a8" x="0" y="345.6" style="fill: #00ff7f; fill-opacity: 0.7; stroke: #00ff7f; stroke-opacity: 0.7"/>
    </g>
   </g>
   <g id="text_18">
    <!-- $I$ -->
    <g style="fill: #ffffff" transform="translate(213.84 174.528) scale(0.1728 -0.1728)">
     <defs>
      <path id="DejaVuSans-Oblique-49" d="M 1081 4666 
L 1716 4666 
L 806 0 
L 172 0 
L 1081 4666 
z
" transform="scale(0.015625)"/>
     </defs>
     <use xlink:href="#DejaVuSans-Oblique-49" transform="translate(0 0.09375)"/>
    </g>
   </g>
   <g id="text_19">
    <!-- f(x) = 6 - x²; g(x) = x + 4 (Opp I) -->
    <g style="fill: #d3d3d3" transform="translate(137.59125 35.472) scale(0.12 -0.12)">
     <defs>
      <path id="DejaVuSans-66" d="M 2375 4863 
L 2375 4384 
L 1825 4384 
Q 1516 4384 1395 4259 
Q 1275 4134 1275 3809 
L 1275 3500 
L 2222 3500 
L 2222 3053 
L 1275 3053 
L 1275 0 
L 697 0 
L 697 3053 
L 147 3053 
L 147 3500 
L 697 3500 
L 697 3744 
Q 697 4328 969 4595 
Q 1241 4863 1831 4863 
L 2375 4863 
z
" transform="scale(0.015625)"/>
      <path id="DejaVuSans-28" d="M 1984 4856 
Q 1566 4138 1362 3434 
Q 1159 2731 1159 2009 
Q 1159 1288 1364 580 
Q 1569 -128 1984 -844 
L 1484 -844 
Q 1016 -109 783 600 
Q 550 1309 550 2009 
Q 550 2706 781 3412 
Q 1013 4119 1484 4856 
L 1984 4856 
z
" transform="scale(0.015625)"/>
      <path id="DejaVuSans-78" d="M 3513 3500 
L 2247 1797 
L 3578 0 
L 2900 0 
L 1881 1375 
L 863 0 
L 184 0 
L 1544 1831 
L 300 3500 
L 978 3500 
L 1906 2253 
L 2834 3500 
L 3513 3500 
z
" transform="scale(0.015625)"/>
      <path id="DejaVuSans-29" d="M 513 4856 
L 1013 4856 
Q 1481 4119 1714 3412 
Q 1947 2706 1947 2009 
Q 1947 1309 1714 600 
Q 1481 -109 1013 -844 
L 513 -844 
Q 928 -128 1133 580 
Q 1338 1288 1338 2009 
Q 1338 2731 1133 3434 
Q 928 4138 513 4856 
z
" transform="scale(0.015625)"/>
      <path id="DejaVuSans-20" transform="scale(0.015625)"/>
      <path id="DejaVuSans-3d" d="M 678 2906 
L 4684 2906 
L 4684 2381 
L 678 2381 
L 678 2906 
z
M 678 1631 
L 4684 1631 
L 4684 1100 
L 678 1100 
L 678 1631 
z
" transform="scale(0.015625)"/>
      <path id="DejaVuSans-b2" d="M 838 2444 
L 2163 2444 
L 2163 2088 
L 294 2088 
L 294 2431 
Q 400 2528 597 2703 
Q 1672 3656 1672 3950 
Q 1672 4156 1509 4282 
Q 1347 4409 1081 4409 
Q 919 4409 728 4354 
Q 538 4300 313 4191 
L 313 4575 
Q 553 4663 761 4706 
Q 969 4750 1147 4750 
Q 1600 4750 1872 4544 
Q 2144 4338 2144 4000 
Q 2144 3566 1109 2678 
Q 934 2528 838 2444 
z
" transform="scale(0.015625)"/>
      <path id="DejaVuSans-3b" d="M 750 3309 
L 1409 3309 
L 1409 2516 
L 750 2516 
L 750 3309 
z
M 750 794 
L 1409 794 
L 1409 256 
L 897 -744 
L 494 -744 
L 750 256 
L 750 794 
z
" transform="scale(0.015625)"/>
      <path id="DejaVuSans-67" d="M 2906 1791 
Q 2906 2416 2648 2759 
Q 2391 3103 1925 3103 
Q 1463 3103 1205 2759 
Q 947 2416 947 1791 
Q 947 1169 1205 825 
Q 1463 481 1925 481 
Q 2391 481 2648 825 
Q 2906 1169 2906 1791 
z
M 3481 434 
Q 3481 -459 3084 -895 
Q 2688 -1331 1869 -1331 
Q 1566 -1331 1297 -1286 
Q 1028 -1241 775 -1147 
L 775 -588 
Q 1028 -725 1275 -790 
Q 1522 -856 1778 -856 
Q 2344 -856 2625 -561 
Q 2906 -266 2906 331 
L 2906 616 
Q 2728 306 2450 153 
Q 2172 0 1784 0 
Q 1141 0 747 490 
Q 353 981 353 1791 
Q 353 2603 747 3093 
Q 1141 3584 1784 3584 
Q 2172 3584 2450 3431 
Q 2728 3278 2906 2969 
L 2906 3500 
L 3481 3500 
L 3481 434 
z
" transform="scale(0.015625)"/>
      <path id="DejaVuSans-2b" d="M 2944 4013 
L 2944 2272 
L 4684 2272 
L 4684 1741 
L 2944 1741 
L 2944 0 
L 2419 0 
L 2419 1741 
L 678 1741 
L 678 2272 
L 2419 2272 
L 2419 4013 
L 2944 4013 
z
" transform="scale(0.015625)"/>
      <path id="DejaVuSans-4f" d="M 2522 4238 
Q 1834 4238 1429 3725 
Q 1025 3213 1025 2328 
Q 1025 1447 1429 934 
Q 1834 422 2522 422 
Q 3209 422 3611 934 
Q 4013 1447 4013 2328 
Q 4013 3213 3611 3725 
Q 3209 4238 2522 4238 
z
M 2522 4750 
Q 3503 4750 4090 4092 
Q 4678 3434 4678 2328 
Q 4678 1225 4090 567 
Q 3503 -91 2522 -91 
Q 1538 -91 948 565 
Q 359 1222 359 2328 
Q 359 3434 948 4092 
Q 1538 4750 2522 4750 
z
" transform="scale(0.015625)"/>
      <path id="DejaVuSans-70" d="M 1159 525 
L 1159 -1331 
L 581 -1331 
L 581 3500 
L 1159 3500 
L 1159 2969 
Q 1341 3281 1617 3432 
Q 1894 3584 2278 3584 
Q 2916 3584 3314 3078 
Q 3713 2572 3713 1747 
Q 3713 922 3314 415 
Q 2916 -91 2278 -91 
Q 1894 -91 1617 61 
Q 1341 213 1159 525 
z
M 3116 1747 
Q 3116 2381 2855 2742 
Q 2594 3103 2138 3103 
Q 1681 3103 1420 2742 
Q 1159 2381 1159 1747 
Q 1159 1113 1420 752 
Q 1681 391 2138 391 
Q 2594 391 2855 752 
Q 3116 1113 3116 1747 
z
" transform="scale(0.015625)"/>
      <path id="DejaVuSans-49" d="M 628 4666 
L 1259 4666 
L 1259 0 
L 628 0 
L 628 4666 
z
" transform="scale(0.015625)"/>
     </defs>
     <use xlink:href="#DejaVuSans-66"/>
     <use xlink:href="#DejaVuSans-28" x="35.205078"/>
     <use xlink:href="#DejaVuSans-78" x="74.21875"/>
     <use xlink:href="#DejaVuSans-29" x="133.398438"/>
     <use xlink:href="#DejaVuSans-20" x="172.412109"/>
     <use xlink:href="#DejaVuSans-3d" x="204.199219"/>
     <use xlink:href="#DejaVuSans-20" x="287.988281"/>
     <use xlink:href="#DejaVuSans-36" x="319.775391"/>
     <use xlink:href="#DejaVuSans-20" x="383.398438"/>
     <use xlink:href="#DejaVuSans-2d" x="415.185547"/>
     <use xlink:href="#DejaVuSans-20" x="451.269531"/>
     <use xlink:href="#DejaVuSans-78" x="483.056641"/>
     <use xlink:href="#DejaVuSans-b2" x="542.236328"/>
     <use xlink:href="#DejaVuSans-3b" x="582.324219"/>
     <use xlink:href="#DejaVuSans-20" x="616.015625"/>
     <use xlink:href="#DejaVuSans-67" x="647.802734"/>
     <use xlink:href="#DejaVuSans-28" x="711.279297"/>
     <use xlink:href="#DejaVuSans-78" x="750.292969"/>
     <use xlink:href="#DejaVuSans-29" x="809.472656"/>
     <use xlink:href="#DejaVuSans-20" x="848.486328"/>
     <use xlink:href="#DejaVuSans-3d" x="880.273438"/>
     <use xlink:href="#DejaVuSans-20" x="964.0625"/>
     <use xlink:href="#DejaVuSans-78" x="995.849609"/>
     <use xlink:href="#DejaVuSans-20" x="1055.029297"/>
     <use xlink:href="#DejaVuSans-2b" x="1086.816406"/>
     <use xlink:href="#DejaVuSans-20" x="1170.605469"/>
     <use xlink:href="#DejaVuSans-34" x="1202.392578"/>
     <use xlink:href="#DejaVuSans-20" x="1266.015625"/>
     <use xlink:href="#DejaVuSans-28" x="1297.802734"/>
     <use xlink:href="#DejaVuSans-4f" x="1336.816406"/>
     <use xlink:href="#DejaVuSans-70" x="1415.527344"/>
     <use xlink:href="#DejaVuSans-70" x="1479.003906"/>
     <use xlink:href="#DejaVuSans-20" x="1542.480469"/>
     <use xlink:href="#DejaVuSans-49" x="1574.267578"/>
     <use xlink:href="#DejaVuSans-29" x="1603.759766"/>
    </g>
   </g>
   <g id="PathCollection_1">
    <defs>
     <path id="mbb03950b30" d="M 0 3 
C 0.795609 3 1.55874 2.683901 2.12132 2.12132 
C 2.683901 1.55874 3 0.795609 3 0 
C 3 -0.795609 2.683901 -1.55874 2.12132 -2.12132 
C 1.55874 -2.683901 0.795609 -3 0 -3 
C -0.795609 -3 -1.55874 -2.683901 -2.12132 -2.12132 
C -2.683901 -1.55874 -3 -0.795609 -3 0 
C -3 0.795609 -2.683901 1.55874 -2.12132 2.12132 
C -1.55874 2.683901 -0.795609 3 0 3 
z
" style="stroke: #7fffd4"/>
    </defs>
    <g clip-path="url(#p304f5b831d)">
     <use xlink:href="#mbb03950b30" x="146.88" y="201.1392" style="fill: #7fffd4; stroke: #7fffd4"/>
    </g>
   </g>
   <g id="PathCollection_2">
    <g clip-path="url(#p304f5b831d)">
     <use xlink:href="#mbb03950b30" x="280.8" y="121.3056" style="fill: #7fffd4; stroke: #7fffd4"/>
    </g>
   </g>
   <g id="legend_1">
    <g id="patch_7">
     <path d="M 316.42 79.672 
L 407.72 79.672 
Q 409.72 79.672 409.72 77.672 
L 409.72 48.472 
Q 409.72 46.472 407.72 46.472 
L 316.42 46.472 
Q 314.42 46.472 314.42 48.472 
L 314.42 77.672 
Q 314.42 79.672 316.42 79.672 
z
" style="fill: #ffffff; opacity: 0.8; stroke: #cccccc; stroke-linejoin: miter"/>
    </g>
    <g id="line2d_18">
     <path d="M 318.42 55.392312 
L 328.42 55.392312 
L 338.42 55.392312 
" style="fill: none; stroke: #00ced1; stroke-width: 1.5; stroke-linecap: square"/>
    </g>
    <g id="text_20">
     <!-- $f(x) = 6 - x^{2}$ -->
     <g transform="translate(346.42 58.892312) scale(0.1 -0.1)">
      <defs>
       <path id="DejaVuSans-Oblique-66" d="M 3059 4863 
L 2969 4384 
L 2419 4384 
Q 2106 4384 1964 4261 
Q 1822 4138 1753 3809 
L 1691 3500 
L 2638 3500 
L 2553 3053 
L 1606 3053 
L 1013 0 
L 434 0 
L 1031 3053 
L 481 3053 
L 563 3500 
L 1113 3500 
L 1159 3744 
Q 1278 4363 1576 4613 
Q 1875 4863 2516 4863 
L 3059 4863 
z
" transform="scale(0.015625)"/>
       <path id="DejaVuSans-Oblique-78" d="M 3841 3500 
L 2234 1784 
L 3219 0 
L 2559 0 
L 1819 1388 
L 531 0 
L -166 0 
L 1556 1844 
L 641 3500 
L 1300 3500 
L 1972 2234 
L 3144 3500 
L 3841 3500 
z
" transform="scale(0.015625)"/>
      </defs>
      <use xlink:href="#DejaVuSans-Oblique-66" transform="translate(0 0.765625)"/>
      <use xlink:href="#DejaVuSans-28" transform="translate(35.205078 0.765625)"/>
      <use xlink:href="#DejaVuSans-Oblique-78" transform="translate(74.21875 0.765625)"/>
      <use xlink:href="#DejaVuSans-29" transform="translate(133.398438 0.765625)"/>
      <use xlink:href="#DejaVuSans-3d" transform="translate(191.894531 0.765625)"/>
      <use xlink:href="#DejaVuSans-36" transform="translate(295.166016 0.765625)"/>
      <use xlink:href="#DejaVuSans-2212" transform="translate(378.271484 0.765625)"/>
      <use xlink:href="#DejaVuSans-Oblique-78" transform="translate(481.542969 0.765625)"/>
      <use xlink:href="#DejaVuSans-32" transform="translate(545.188802 39.046875) scale(0.7)"/>
     </g>
    </g>
    <g id="line2d_19">
     <path d="M 318.42 70.072 
L 328.42 70.072 
L 338.42 70.072 
" style="fill: none; stroke: #dc143c; stroke-width: 1.5; stroke-linecap: square"/>
    </g>
    <g id="text_21">
     <!-- $g(x) = x + 4$ -->
     <g transform="translate(346.42 73.572) scale(0.1 -0.1)">
      <defs>
       <path id="DejaVuSans-Oblique-67" d="M 3816 3500 
L 3219 434 
Q 3047 -456 2561 -893 
Q 2075 -1331 1253 -1331 
Q 950 -1331 690 -1286 
Q 431 -1241 206 -1147 
L 313 -588 
Q 525 -725 762 -790 
Q 1000 -856 1269 -856 
Q 1816 -856 2167 -557 
Q 2519 -259 2631 300 
L 2681 563 
Q 2441 288 2122 144 
Q 1803 0 1434 0 
Q 903 0 598 351 
Q 294 703 294 1319 
Q 294 1803 478 2267 
Q 663 2731 997 3091 
Q 1219 3328 1514 3456 
Q 1809 3584 2131 3584 
Q 2484 3584 2746 3420 
Q 3009 3256 3138 2956 
L 3238 3500 
L 3816 3500 
z
M 2950 2216 
Q 2950 2641 2750 2872 
Q 2550 3103 2181 3103 
Q 1953 3103 1747 3012 
Q 1541 2922 1394 2759 
Q 1156 2491 1023 2127 
Q 891 1763 891 1375 
Q 891 944 1092 712 
Q 1294 481 1672 481 
Q 2219 481 2584 976 
Q 2950 1472 2950 2216 
z
" transform="scale(0.015625)"/>
      </defs>
      <use xlink:href="#DejaVuSans-Oblique-67" transform="translate(0 0.125)"/>
      <use xlink:href="#DejaVuSans-28" transform="translate(63.476562 0.125)"/>
      <use xlink:href="#DejaVuSans-Oblique-78" transform="translate(102.490234 0.125)"/>
      <use xlink:href="#DejaVuSans-29" transform="translate(161.669922 0.125)"/>
      <use xlink:href="#DejaVuSans-3d" transform="translate(220.166016 0.125)"/>
      <use xlink:href="#DejaVuSans-Oblique-78" transform="translate(323.4375 0.125)"/>
      <use xlink:href="#DejaVuSans-2b" transform="translate(402.099609 0.125)"/>
      <use xlink:href="#DejaVuSans-34" transform="translate(505.371094 0.125)"/>
     </g>
    </g>
   </g>
  </g>
 </g>
 <defs>
  <clipPath id="p304f5b831d">
   <rect x="57.6" y="41.472" width="357.12" height="266.112"/>
  </clipPath>
 </defs>
</svg>
