<?xml version="1.0" encoding="utf-8" standalone="no"?>
<!DOCTYPE svg PUBLIC "-//W3C//DTD SVG 1.1//EN"
  "http://www.w3.org/Graphics/SVG/1.1/DTD/svg11.dtd">
<svg xmlns:xlink="http://www.w3.org/1999/xlink" width="460.8pt" height="345.6pt" viewBox="0 0 460.8 345.6" xmlns="http://www.w3.org/2000/svg" version="1.1">
 <metadata>
  <rdf:RDF xmlns:dc="http://purl.org/dc/elements/1.1/" xmlns:cc="http://creativecommons.org/ns#" xmlns:rdf="http://www.w3.org/1999/02/22-rdf-syntax-ns#">
   <cc:Work>
    <dc:type rdf:resource="http://purl.org/dc/dcmitype/StillImage"/>
    <dc:date>2024-08-05T21:35:06.824754</dc:date>
    <dc:format>image/svg+xml</dc:format>
    <dc:creator>
     <cc:Agent>
      <dc:title>Matplotlib v3.8.3, https://matplotlib.org/</dc:title>
     </cc:Agent>
    </dc:creator>
   </cc:Work>
  </rdf:RDF>
 </metadata>
 <defs>
  <style type="text/css">*{stroke-linejoin: round; stroke-linecap: butt}</style>
 </defs>
 <g id="figure_1">
  <g id="patch_1">
   <path d="M 0 345.6 
L 460.8 345.6 
L 460.8 0 
L 0 0 
L 0 345.6 
z
" style="fill: none"/>
  </g>
  <g id="axes_1">
   <g id="patch_2">
    <path d="M 57.6 307.584 
L 414.72 307.584 
L 414.72 41.472 
L 57.6 41.472 
z
" style="fill: none"/>
   </g>
   <g id="LineCollection_1">
    <path d="M 57.6 241.056 
L 414.72 241.056 
" clip-path="url(#p10952f9700)" style="fill: none; stroke: #d3d3d3; stroke-width: 1.5"/>
   </g>
   <g id="LineCollection_2">
    <path d="M 176.64 307.584 
L 176.64 41.472 
" clip-path="url(#p10952f9700)" style="fill: none; stroke: #d3d3d3; stroke-width: 1.5"/>
   </g>
   <g id="matplotlib.axis_1">
    <g id="text_1">
     <!-- X-as -->
     <g style="fill: #d3d3d3" transform="translate(225.512344 319.182437) scale(0.1 -0.1)">
      <defs>
       <path id="DejaVuSans-58" d="M 403 4666 
L 1081 4666 
L 2241 2931 
L 3406 4666 
L 4084 4666 
L 2584 2425 
L 4184 0 
L 3506 0 
L 2194 1984 
L 872 0 
L 191 0 
L 1856 2491 
L 403 4666 
z
" transform="scale(0.015625)"/>
       <path id="DejaVuSans-2d" d="M 313 2009 
L 1997 2009 
L 1997 1497 
L 313 1497 
L 313 2009 
z
" transform="scale(0.015625)"/>
       <path id="DejaVuSans-61" d="M 2194 1759 
Q 1497 1759 1228 1600 
Q 959 1441 959 1056 
Q 959 750 1161 570 
Q 1363 391 1709 391 
Q 2188 391 2477 730 
Q 2766 1069 2766 1631 
L 2766 1759 
L 2194 1759 
z
M 3341 1997 
L 3341 0 
L 2766 0 
L 2766 531 
Q 2569 213 2275 61 
Q 1981 -91 1556 -91 
Q 1019 -91 701 211 
Q 384 513 384 1019 
Q 384 1609 779 1909 
Q 1175 2209 1959 2209 
L 2766 2209 
L 2766 2266 
Q 2766 2663 2505 2880 
Q 2244 3097 1772 3097 
Q 1472 3097 1187 3025 
Q 903 2953 641 2809 
L 641 3341 
Q 956 3463 1253 3523 
Q 1550 3584 1831 3584 
Q 2591 3584 2966 3190 
Q 3341 2797 3341 1997 
z
" transform="scale(0.015625)"/>
       <path id="DejaVuSans-73" d="M 2834 3397 
L 2834 2853 
Q 2591 2978 2328 3040 
Q 2066 3103 1784 3103 
Q 1356 3103 1142 2972 
Q 928 2841 928 2578 
Q 928 2378 1081 2264 
Q 1234 2150 1697 2047 
L 1894 2003 
Q 2506 1872 2764 1633 
Q 3022 1394 3022 966 
Q 3022 478 2636 193 
Q 2250 -91 1575 -91 
Q 1294 -91 989 -36 
Q 684 19 347 128 
L 347 722 
Q 666 556 975 473 
Q 1284 391 1588 391 
Q 1994 391 2212 530 
Q 2431 669 2431 922 
Q 2431 1156 2273 1281 
Q 2116 1406 1581 1522 
L 1381 1569 
Q 847 1681 609 1914 
Q 372 2147 372 2553 
Q 372 3047 722 3315 
Q 1072 3584 1716 3584 
Q 2034 3584 2315 3537 
Q 2597 3491 2834 3397 
z
" transform="scale(0.015625)"/>
      </defs>
      <use xlink:href="#DejaVuSans-58"/>
      <use xlink:href="#DejaVuSans-2d" x="63.505859"/>
      <use xlink:href="#DejaVuSans-61" x="99.589844"/>
      <use xlink:href="#DejaVuSans-73" x="160.869141"/>
     </g>
    </g>
   </g>
   <g id="matplotlib.axis_2">
    <g id="text_2">
     <!-- Y-as -->
     <g style="fill: #d3d3d3" transform="translate(51.520313 184.460813) rotate(-90) scale(0.1 -0.1)">
      <defs>
       <path id="DejaVuSans-59" d="M -13 4666 
L 666 4666 
L 1959 2747 
L 3244 4666 
L 3922 4666 
L 2272 2222 
L 2272 0 
L 1638 0 
L 1638 2222 
L -13 4666 
z
" transform="scale(0.015625)"/>
      </defs>
      <use xlink:href="#DejaVuSans-59"/>
      <use xlink:href="#DejaVuSans-2d" x="49.208984"/>
      <use xlink:href="#DejaVuSans-61" x="85.292969"/>
      <use xlink:href="#DejaVuSans-73" x="146.572266"/>
     </g>
    </g>
   </g>
   <g id="line2d_1">
    <path d="M 76.751871 346.6 
L 82.5984 329.41849 
L 88.5504 312.586906 
L 94.5024 296.420602 
L 100.4544 280.919578 
L 106.4064 266.083834 
L 111.7632 253.300478 
L 117.12 241.056 
L 122.4768 229.350398 
L 127.8336 218.183674 
L 133.1904 207.555826 
L 138.5472 197.466854 
L 143.3088 188.95127 
L 148.0704 180.861466 
L 152.832 173.19744 
L 157.5936 165.959194 
L 162.3552 159.146726 
L 167.1168 152.760038 
L 171.2832 147.520958 
L 175.4496 142.607866 
L 179.616 138.02076 
L 183.7824 133.759642 
L 187.9488 129.82451 
L 192.1152 126.215366 
L 196.2816 122.93221 
L 199.8528 120.377534 
L 203.424 118.06236 
L 206.9952 115.986686 
L 210.5664 114.150514 
L 214.1376 112.553842 
L 217.7088 111.19667 
L 221.28 110.079 
L 224.8512 109.20083 
L 228.4224 108.562162 
L 231.9936 108.162994 
L 235.5648 108.003326 
L 239.136 108.08316 
L 242.7072 108.402494 
L 246.2784 108.96133 
L 249.8496 109.759666 
L 253.4208 110.797502 
L 256.992 112.07484 
L 260.5632 113.591678 
L 264.1344 115.348018 
L 267.7056 117.343858 
L 271.2768 119.579198 
L 274.848 122.05404 
L 278.4192 124.768382 
L 282.5856 128.237818 
L 286.752 132.03324 
L 290.9184 136.15465 
L 295.0848 140.602046 
L 299.2512 145.37543 
L 303.4176 150.474802 
L 307.584 155.90016 
L 312.3456 162.499738 
L 317.1072 169.525094 
L 321.8688 176.97623 
L 326.6304 184.853146 
L 331.392 193.15584 
L 336.1536 201.884314 
L 340.9152 211.038566 
L 346.272 221.84604 
L 351.6288 233.19239 
L 356.9856 245.077618 
L 362.3424 257.501722 
L 367.6992 270.464702 
L 373.056 283.96656 
L 379.008 299.60064 
L 384.96 315.9 
L 390.912 332.86464 
L 395.568129 346.6 
L 395.568129 346.6 
" clip-path="url(#p10952f9700)" style="fill: none; stroke: #00ced1; stroke-width: 1.5; stroke-linecap: square"/>
   </g>
   <g id="patch_3">
    <path d="M 57.6 307.584 
L 57.6 41.472 
" style="fill: none; stroke: #d3d3d3; stroke-width: 0.8; stroke-linejoin: miter; stroke-linecap: square"/>
   </g>
   <g id="patch_4">
    <path d="M 414.72 307.584 
L 414.72 41.472 
" style="fill: none; stroke: #d3d3d3; stroke-width: 0.8; stroke-linejoin: miter; stroke-linecap: square"/>
   </g>
   <g id="patch_5">
    <path d="M 57.6 307.584 
L 414.72 307.584 
" style="fill: none; stroke: #d3d3d3; stroke-width: 0.8; stroke-linejoin: miter; stroke-linecap: square"/>
   </g>
   <g id="patch_6">
    <path d="M 57.6 41.472 
L 414.72 41.472 
" style="fill: none; stroke: #d3d3d3; stroke-width: 0.8; stroke-linejoin: miter; stroke-linecap: square"/>
   </g>
   <g id="PolyCollection_1">
    <defs>
     <path id="mee11bdc651" d="M 176.64 -104.544 
L 176.64 -204.336 
L 177.2352 -204.997954 
L 177.8304 -205.653254 
L 178.4256 -206.301902 
L 179.0208 -206.943898 
L 179.616 -207.57924 
L 180.2112 -208.20793 
L 180.8064 -208.829966 
L 181.4016 -209.44535 
L 181.9968 -210.054082 
L 182.592 -210.65616 
L 183.1872 -211.251586 
L 183.7824 -211.840358 
L 184.3776 -212.422478 
L 184.9728 -212.997946 
L 185.568 -213.56676 
L 186.1632 -214.128922 
L 186.7584 -214.68443 
L 187.3536 -215.233286 
L 187.9488 -215.77549 
L 188.544 -216.31104 
L 189.1392 -216.839938 
L 189.7344 -217.362182 
L 190.3296 -217.877774 
L 190.9248 -218.386714 
L 191.52 -218.889 
L 192.1152 -219.384634 
L 192.7104 -219.873614 
L 193.3056 -220.355942 
L 193.9008 -220.831618 
L 194.496 -221.30064 
L 195.0912 -221.76301 
L 195.6864 -222.218726 
L 196.2816 -222.66779 
L 196.8768 -223.110202 
L 197.472 -223.54596 
L 198.0672 -223.975066 
L 198.6624 -224.397518 
L 199.2576 -224.813318 
L 199.8528 -225.222466 
L 200.448 -225.62496 
L 201.0432 -226.020802 
L 201.6384 -226.40999 
L 202.2336 -226.792526 
L 202.8288 -227.16841 
L 203.424 -227.53764 
L 204.0192 -227.900218 
L 204.6144 -228.256142 
L 205.2096 -228.605414 
L 205.8048 -228.948034 
L 206.4 -229.284 
L 206.9952 -229.613314 
L 207.5904 -229.935974 
L 208.1856 -230.251982 
L 208.7808 -230.561338 
L 209.376 -230.86404 
L 209.9712 -231.16009 
L 210.5664 -231.449486 
L 211.1616 -231.73223 
L 211.7568 -232.008322 
L 212.352 -232.27776 
L 212.9472 -232.540546 
L 213.5424 -232.796678 
L 214.1376 -233.046158 
L 214.7328 -233.288986 
L 215.328 -233.52516 
L 215.9232 -233.754682 
L 216.5184 -233.97755 
L 217.1136 -234.193766 
L 217.7088 -234.40333 
L 218.304 -234.60624 
L 218.8992 -234.802498 
L 219.4944 -234.992102 
L 220.0896 -235.175054 
L 220.6848 -235.351354 
L 221.28 -235.521 
L 221.8752 -235.683994 
L 222.4704 -235.840334 
L 223.0656 -235.990022 
L 223.6608 -236.133058 
L 224.256 -236.26944 
L 224.8512 -236.39917 
L 225.4464 -236.522246 
L 226.0416 -236.63867 
L 226.6368 -236.748442 
L 227.232 -236.85156 
L 227.8272 -236.948026 
L 228.4224 -237.037838 
L 229.0176 -237.120998 
L 229.6128 -237.197506 
L 230.208 -237.26736 
L 230.8032 -237.330562 
L 231.3984 -237.38711 
L 231.9936 -237.437006 
L 232.5888 -237.48025 
L 233.184 -237.51684 
L 233.7792 -237.546778 
L 234.3744 -237.570062 
L 234.9696 -237.586694 
L 235.5648 -237.596674 
L 236.16 -237.6 
L 236.7552 -237.596674 
L 237.3504 -237.586694 
L 237.9456 -237.570062 
L 238.5408 -237.546778 
L 239.136 -237.51684 
L 239.7312 -237.48025 
L 240.3264 -237.437006 
L 240.9216 -237.38711 
L 241.5168 -237.330562 
L 242.112 -237.26736 
L 242.7072 -237.197506 
L 243.3024 -237.120998 
L 243.8976 -237.037838 
L 244.4928 -236.948026 
L 245.088 -236.85156 
L 245.6832 -236.748442 
L 246.2784 -236.63867 
L 246.8736 -236.522246 
L 247.4688 -236.39917 
L 248.064 -236.26944 
L 248.6592 -236.133058 
L 249.2544 -235.990022 
L 249.8496 -235.840334 
L 250.4448 -235.683994 
L 251.04 -235.521 
L 251.6352 -235.351354 
L 252.2304 -235.175054 
L 252.8256 -234.992102 
L 253.4208 -234.802498 
L 254.016 -234.60624 
L 254.6112 -234.40333 
L 255.2064 -234.193766 
L 255.8016 -233.97755 
L 256.3968 -233.754682 
L 256.992 -233.52516 
L 257.5872 -233.288986 
L 258.1824 -233.046158 
L 258.7776 -232.796678 
L 259.3728 -232.540546 
L 259.968 -232.27776 
L 260.5632 -232.008322 
L 261.1584 -231.73223 
L 261.7536 -231.449486 
L 262.3488 -231.16009 
L 262.944 -230.86404 
L 263.5392 -230.561338 
L 264.1344 -230.251982 
L 264.7296 -229.935974 
L 265.3248 -229.613314 
L 265.92 -229.284 
L 266.5152 -228.948034 
L 267.1104 -228.605414 
L 267.7056 -228.256142 
L 268.3008 -227.900218 
L 268.896 -227.53764 
L 269.4912 -227.16841 
L 270.0864 -226.792526 
L 270.6816 -226.40999 
L 271.2768 -226.020802 
L 271.872 -225.62496 
L 272.4672 -225.222466 
L 273.0624 -224.813318 
L 273.6576 -224.397518 
L 274.2528 -223.975066 
L 274.848 -223.54596 
L 275.4432 -223.110202 
L 276.0384 -222.66779 
L 276.6336 -222.218726 
L 277.2288 -221.76301 
L 277.824 -221.30064 
L 278.4192 -220.831618 
L 279.0144 -220.355942 
L 279.6096 -219.873614 
L 280.2048 -219.384634 
L 280.8 -218.889 
L 281.3952 -218.386714 
L 281.9904 -217.877774 
L 282.5856 -217.362182 
L 283.1808 -216.839938 
L 283.776 -216.31104 
L 284.3712 -215.77549 
L 284.9664 -215.233286 
L 285.5616 -214.68443 
L 286.1568 -214.128922 
L 286.752 -213.56676 
L 287.3472 -212.997946 
L 287.9424 -212.422478 
L 288.5376 -211.840358 
L 289.1328 -211.251586 
L 289.728 -210.65616 
L 290.3232 -210.054082 
L 290.9184 -209.44535 
L 291.5136 -208.829966 
L 292.1088 -208.20793 
L 292.704 -207.57924 
L 293.2992 -206.943898 
L 293.8944 -206.301902 
L 294.4896 -205.653254 
L 295.0848 -204.997954 
L 295.68 -204.336 
L 296.2752 -203.667394 
L 296.8704 -202.992134 
L 297.4656 -202.310222 
L 298.0608 -201.621658 
L 298.656 -200.92644 
L 299.2512 -200.22457 
L 299.8464 -199.516046 
L 300.4416 -198.80087 
L 301.0368 -198.079042 
L 301.632 -197.35056 
L 302.2272 -196.615426 
L 302.8224 -195.873638 
L 303.4176 -195.125198 
L 304.0128 -194.370106 
L 304.608 -193.60836 
L 305.2032 -192.839962 
L 305.7984 -192.06491 
L 306.3936 -191.283206 
L 306.9888 -190.49485 
L 307.584 -189.69984 
L 308.1792 -188.898178 
L 308.7744 -188.089862 
L 309.3696 -187.274894 
L 309.9648 -186.453274 
L 310.56 -185.625 
L 311.1552 -184.790074 
L 311.7504 -183.948494 
L 312.3456 -183.100262 
L 312.9408 -182.245378 
L 313.536 -181.38384 
L 314.1312 -180.51565 
L 314.7264 -179.640806 
L 315.3216 -178.75931 
L 315.9168 -177.871162 
L 316.512 -176.97636 
L 317.1072 -176.074906 
L 317.7024 -175.166798 
L 318.2976 -174.252038 
L 318.8928 -173.330626 
L 319.488 -172.40256 
L 320.0832 -171.467842 
L 320.6784 -170.52647 
L 321.2736 -169.578446 
L 321.8688 -168.62377 
L 322.464 -167.66244 
L 323.0592 -166.694458 
L 323.6544 -165.719822 
L 324.2496 -164.738534 
L 324.8448 -163.750594 
L 325.44 -162.756 
L 326.0352 -161.754754 
L 326.6304 -160.746854 
L 327.2256 -159.732302 
L 327.8208 -158.711098 
L 328.416 -157.68324 
L 329.0112 -156.64873 
L 329.6064 -155.607566 
L 330.2016 -154.55975 
L 330.7968 -153.505282 
L 331.392 -152.44416 
L 331.9872 -151.376386 
L 332.5824 -150.301958 
L 333.1776 -149.220878 
L 333.7728 -148.133146 
L 334.368 -147.03876 
L 334.9632 -145.937722 
L 335.5584 -144.83003 
L 336.1536 -143.715686 
L 336.7488 -142.59469 
L 337.344 -141.46704 
L 337.9392 -140.332738 
L 338.5344 -139.191782 
L 339.1296 -138.044174 
L 339.7248 -136.889914 
L 340.32 -135.729 
L 340.9152 -134.561434 
L 341.5104 -133.387214 
L 342.1056 -132.206342 
L 342.7008 -131.018818 
L 343.296 -129.82464 
L 343.8912 -128.62381 
L 344.4864 -127.416326 
L 345.0816 -126.20219 
L 345.6768 -124.981402 
L 346.272 -123.75396 
L 346.8672 -122.519866 
L 347.4624 -121.279118 
L 348.0576 -120.031718 
L 348.6528 -118.777666 
L 349.248 -117.51696 
L 349.8432 -116.249602 
L 350.4384 -114.97559 
L 351.0336 -113.694926 
L 351.6288 -112.40761 
L 352.224 -111.11364 
L 352.8192 -109.813018 
L 353.4144 -108.505742 
L 354.0096 -107.191814 
L 354.6048 -105.871234 
L 354.6048 -104.544 
L 354.6048 -104.544 
L 354.0096 -104.544 
L 353.4144 -104.544 
L 352.8192 -104.544 
L 352.224 -104.544 
L 351.6288 -104.544 
L 351.0336 -104.544 
L 350.4384 -104.544 
L 349.8432 -104.544 
L 349.248 -104.544 
L 348.6528 -104.544 
L 348.0576 -104.544 
L 347.4624 -104.544 
L 346.8672 -104.544 
L 346.272 -104.544 
L 345.6768 -104.544 
L 345.0816 -104.544 
L 344.4864 -104.544 
L 343.8912 -104.544 
L 343.296 -104.544 
L 342.7008 -104.544 
L 342.1056 -104.544 
L 341.5104 -104.544 
L 340.9152 -104.544 
L 340.32 -104.544 
L 339.7248 -104.544 
L 339.1296 -104.544 
L 338.5344 -104.544 
L 337.9392 -104.544 
L 337.344 -104.544 
L 336.7488 -104.544 
L 336.1536 -104.544 
L 335.5584 -104.544 
L 334.9632 -104.544 
L 334.368 -104.544 
L 333.7728 -104.544 
L 333.1776 -104.544 
L 332.5824 -104.544 
L 331.9872 -104.544 
L 331.392 -104.544 
L 330.7968 -104.544 
L 330.2016 -104.544 
L 329.6064 -104.544 
L 329.0112 -104.544 
L 328.416 -104.544 
L 327.8208 -104.544 
L 327.2256 -104.544 
L 326.6304 -104.544 
L 326.0352 -104.544 
L 325.44 -104.544 
L 324.8448 -104.544 
L 324.2496 -104.544 
L 323.6544 -104.544 
L 323.0592 -104.544 
L 322.464 -104.544 
L 321.8688 -104.544 
L 321.2736 -104.544 
L 320.6784 -104.544 
L 320.0832 -104.544 
L 319.488 -104.544 
L 318.8928 -104.544 
L 318.2976 -104.544 
L 317.7024 -104.544 
L 317.1072 -104.544 
L 316.512 -104.544 
L 315.9168 -104.544 
L 315.3216 -104.544 
L 314.7264 -104.544 
L 314.1312 -104.544 
L 313.536 -104.544 
L 312.9408 -104.544 
L 312.3456 -104.544 
L 311.7504 -104.544 
L 311.1552 -104.544 
L 310.56 -104.544 
L 309.9648 -104.544 
L 309.3696 -104.544 
L 308.7744 -104.544 
L 308.1792 -104.544 
L 307.584 -104.544 
L 306.9888 -104.544 
L 306.3936 -104.544 
L 305.7984 -104.544 
L 305.2032 -104.544 
L 304.608 -104.544 
L 304.0128 -104.544 
L 303.4176 -104.544 
L 302.8224 -104.544 
L 302.2272 -104.544 
L 301.632 -104.544 
L 301.0368 -104.544 
L 300.4416 -104.544 
L 299.8464 -104.544 
L 299.2512 -104.544 
L 298.656 -104.544 
L 298.0608 -104.544 
L 297.4656 -104.544 
L 296.8704 -104.544 
L 296.2752 -104.544 
L 295.68 -104.544 
L 295.0848 -104.544 
L 294.4896 -104.544 
L 293.8944 -104.544 
L 293.2992 -104.544 
L 292.704 -104.544 
L 292.1088 -104.544 
L 291.5136 -104.544 
L 290.9184 -104.544 
L 290.3232 -104.544 
L 289.728 -104.544 
L 289.1328 -104.544 
L 288.5376 -104.544 
L 287.9424 -104.544 
L 287.3472 -104.544 
L 286.752 -104.544 
L 286.1568 -104.544 
L 285.5616 -104.544 
L 284.9664 -104.544 
L 284.3712 -104.544 
L 283.776 -104.544 
L 283.1808 -104.544 
L 282.5856 -104.544 
L 281.9904 -104.544 
L 281.3952 -104.544 
L 280.8 -104.544 
L 280.2048 -104.544 
L 279.6096 -104.544 
L 279.0144 -104.544 
L 278.4192 -104.544 
L 277.824 -104.544 
L 277.2288 -104.544 
L 276.6336 -104.544 
L 276.0384 -104.544 
L 275.4432 -104.544 
L 274.848 -104.544 
L 274.2528 -104.544 
L 273.6576 -104.544 
L 273.0624 -104.544 
L 272.4672 -104.544 
L 271.872 -104.544 
L 271.2768 -104.544 
L 270.6816 -104.544 
L 270.0864 -104.544 
L 269.4912 -104.544 
L 268.896 -104.544 
L 268.3008 -104.544 
L 267.7056 -104.544 
L 267.1104 -104.544 
L 266.5152 -104.544 
L 265.92 -104.544 
L 265.3248 -104.544 
L 264.7296 -104.544 
L 264.1344 -104.544 
L 263.5392 -104.544 
L 262.944 -104.544 
L 262.3488 -104.544 
L 261.7536 -104.544 
L 261.1584 -104.544 
L 260.5632 -104.544 
L 259.968 -104.544 
L 259.3728 -104.544 
L 258.7776 -104.544 
L 258.1824 -104.544 
L 257.5872 -104.544 
L 256.992 -104.544 
L 256.3968 -104.544 
L 255.8016 -104.544 
L 255.2064 -104.544 
L 254.6112 -104.544 
L 254.016 -104.544 
L 253.4208 -104.544 
L 252.8256 -104.544 
L 252.2304 -104.544 
L 251.6352 -104.544 
L 251.04 -104.544 
L 250.4448 -104.544 
L 249.8496 -104.544 
L 249.2544 -104.544 
L 248.6592 -104.544 
L 248.064 -104.544 
L 247.4688 -104.544 
L 246.8736 -104.544 
L 246.2784 -104.544 
L 245.6832 -104.544 
L 245.088 -104.544 
L 244.4928 -104.544 
L 243.8976 -104.544 
L 243.3024 -104.544 
L 242.7072 -104.544 
L 242.112 -104.544 
L 241.5168 -104.544 
L 240.9216 -104.544 
L 240.3264 -104.544 
L 239.7312 -104.544 
L 239.136 -104.544 
L 238.5408 -104.544 
L 237.9456 -104.544 
L 237.3504 -104.544 
L 236.7552 -104.544 
L 236.16 -104.544 
L 235.5648 -104.544 
L 234.9696 -104.544 
L 234.3744 -104.544 
L 233.7792 -104.544 
L 233.184 -104.544 
L 232.5888 -104.544 
L 231.9936 -104.544 
L 231.3984 -104.544 
L 230.8032 -104.544 
L 230.208 -104.544 
L 229.6128 -104.544 
L 229.0176 -104.544 
L 228.4224 -104.544 
L 227.8272 -104.544 
L 227.232 -104.544 
L 226.6368 -104.544 
L 226.0416 -104.544 
L 225.4464 -104.544 
L 224.8512 -104.544 
L 224.256 -104.544 
L 223.6608 -104.544 
L 223.0656 -104.544 
L 222.4704 -104.544 
L 221.8752 -104.544 
L 221.28 -104.544 
L 220.6848 -104.544 
L 220.0896 -104.544 
L 219.4944 -104.544 
L 218.8992 -104.544 
L 218.304 -104.544 
L 217.7088 -104.544 
L 217.1136 -104.544 
L 216.5184 -104.544 
L 215.9232 -104.544 
L 215.328 -104.544 
L 214.7328 -104.544 
L 214.1376 -104.544 
L 213.5424 -104.544 
L 212.9472 -104.544 
L 212.352 -104.544 
L 211.7568 -104.544 
L 211.1616 -104.544 
L 210.5664 -104.544 
L 209.9712 -104.544 
L 209.376 -104.544 
L 208.7808 -104.544 
L 208.1856 -104.544 
L 207.5904 -104.544 
L 206.9952 -104.544 
L 206.4 -104.544 
L 205.8048 -104.544 
L 205.2096 -104.544 
L 204.6144 -104.544 
L 204.0192 -104.544 
L 203.424 -104.544 
L 202.8288 -104.544 
L 202.2336 -104.544 
L 201.6384 -104.544 
L 201.0432 -104.544 
L 200.448 -104.544 
L 199.8528 -104.544 
L 199.2576 -104.544 
L 198.6624 -104.544 
L 198.0672 -104.544 
L 197.472 -104.544 
L 196.8768 -104.544 
L 196.2816 -104.544 
L 195.6864 -104.544 
L 195.0912 -104.544 
L 194.496 -104.544 
L 193.9008 -104.544 
L 193.3056 -104.544 
L 192.7104 -104.544 
L 192.1152 -104.544 
L 191.52 -104.544 
L 190.9248 -104.544 
L 190.3296 -104.544 
L 189.7344 -104.544 
L 189.1392 -104.544 
L 188.544 -104.544 
L 187.9488 -104.544 
L 187.3536 -104.544 
L 186.7584 -104.544 
L 186.1632 -104.544 
L 185.568 -104.544 
L 184.9728 -104.544 
L 184.3776 -104.544 
L 183.7824 -104.544 
L 183.1872 -104.544 
L 182.592 -104.544 
L 181.9968 -104.544 
L 181.4016 -104.544 
L 180.8064 -104.544 
L 180.2112 -104.544 
L 179.616 -104.544 
L 179.0208 -104.544 
L 178.4256 -104.544 
L 177.8304 -104.544 
L 177.2352 -104.544 
L 176.64 -104.544 
z
" style="stroke: #00ff7f; stroke-opacity: 0.7"/>
    </defs>
    <g clip-path="url(#p10952f9700)">
     <use xlink:href="#mee11bdc651" x="0" y="345.6" style="fill: #00ff7f; fill-opacity: 0.7; stroke: #00ff7f; stroke-opacity: 0.7"/>
    </g>
   </g>
   <g id="text_3">
    <!-- f(x) = -x² + 2x + 3 -->
    <g style="fill: #d3d3d3" transform="translate(179.982188 35.472) scale(0.12 -0.12)">
     <defs>
      <path id="DejaVuSans-66" d="M 2375 4863 
L 2375 4384 
L 1825 4384 
Q 1516 4384 1395 4259 
Q 1275 4134 1275 3809 
L 1275 3500 
L 2222 3500 
L 2222 3053 
L 1275 3053 
L 1275 0 
L 697 0 
L 697 3053 
L 147 3053 
L 147 3500 
L 697 3500 
L 697 3744 
Q 697 4328 969 4595 
Q 1241 4863 1831 4863 
L 2375 4863 
z
" transform="scale(0.015625)"/>
      <path id="DejaVuSans-28" d="M 1984 4856 
Q 1566 4138 1362 3434 
Q 1159 2731 1159 2009 
Q 1159 1288 1364 580 
Q 1569 -128 1984 -844 
L 1484 -844 
Q 1016 -109 783 600 
Q 550 1309 550 2009 
Q 550 2706 781 3412 
Q 1013 4119 1484 4856 
L 1984 4856 
z
" transform="scale(0.015625)"/>
      <path id="DejaVuSans-78" d="M 3513 3500 
L 2247 1797 
L 3578 0 
L 2900 0 
L 1881 1375 
L 863 0 
L 184 0 
L 1544 1831 
L 300 3500 
L 978 3500 
L 1906 2253 
L 2834 3500 
L 3513 3500 
z
" transform="scale(0.015625)"/>
      <path id="DejaVuSans-29" d="M 513 4856 
L 1013 4856 
Q 1481 4119 1714 3412 
Q 1947 2706 1947 2009 
Q 1947 1309 1714 600 
Q 1481 -109 1013 -844 
L 513 -844 
Q 928 -128 1133 580 
Q 1338 1288 1338 2009 
Q 1338 2731 1133 3434 
Q 928 4138 513 4856 
z
" transform="scale(0.015625)"/>
      <path id="DejaVuSans-20" transform="scale(0.015625)"/>
      <path id="DejaVuSans-3d" d="M 678 2906 
L 4684 2906 
L 4684 2381 
L 678 2381 
L 678 2906 
z
M 678 1631 
L 4684 1631 
L 4684 1100 
L 678 1100 
L 678 1631 
z
" transform="scale(0.015625)"/>
      <path id="DejaVuSans-b2" d="M 838 2444 
L 2163 2444 
L 2163 2088 
L 294 2088 
L 294 2431 
Q 400 2528 597 2703 
Q 1672 3656 1672 3950 
Q 1672 4156 1509 4282 
Q 1347 4409 1081 4409 
Q 919 4409 728 4354 
Q 538 4300 313 4191 
L 313 4575 
Q 553 4663 761 4706 
Q 969 4750 1147 4750 
Q 1600 4750 1872 4544 
Q 2144 4338 2144 4000 
Q 2144 3566 1109 2678 
Q 934 2528 838 2444 
z
" transform="scale(0.015625)"/>
      <path id="DejaVuSans-2b" d="M 2944 4013 
L 2944 2272 
L 4684 2272 
L 4684 1741 
L 2944 1741 
L 2944 0 
L 2419 0 
L 2419 1741 
L 678 1741 
L 678 2272 
L 2419 2272 
L 2419 4013 
L 2944 4013 
z
" transform="scale(0.015625)"/>
      <path id="DejaVuSans-32" d="M 1228 531 
L 3431 531 
L 3431 0 
L 469 0 
L 469 531 
Q 828 903 1448 1529 
Q 2069 2156 2228 2338 
Q 2531 2678 2651 2914 
Q 2772 3150 2772 3378 
Q 2772 3750 2511 3984 
Q 2250 4219 1831 4219 
Q 1534 4219 1204 4116 
Q 875 4013 500 3803 
L 500 4441 
Q 881 4594 1212 4672 
Q 1544 4750 1819 4750 
Q 2544 4750 2975 4387 
Q 3406 4025 3406 3419 
Q 3406 3131 3298 2873 
Q 3191 2616 2906 2266 
Q 2828 2175 2409 1742 
Q 1991 1309 1228 531 
z
" transform="scale(0.015625)"/>
      <path id="DejaVuSans-33" d="M 2597 2516 
Q 3050 2419 3304 2112 
Q 3559 1806 3559 1356 
Q 3559 666 3084 287 
Q 2609 -91 1734 -91 
Q 1441 -91 1130 -33 
Q 819 25 488 141 
L 488 750 
Q 750 597 1062 519 
Q 1375 441 1716 441 
Q 2309 441 2620 675 
Q 2931 909 2931 1356 
Q 2931 1769 2642 2001 
Q 2353 2234 1838 2234 
L 1294 2234 
L 1294 2753 
L 1863 2753 
Q 2328 2753 2575 2939 
Q 2822 3125 2822 3475 
Q 2822 3834 2567 4026 
Q 2313 4219 1838 4219 
Q 1578 4219 1281 4162 
Q 984 4106 628 3988 
L 628 4550 
Q 988 4650 1302 4700 
Q 1616 4750 1894 4750 
Q 2613 4750 3031 4423 
Q 3450 4097 3450 3541 
Q 3450 3153 3228 2886 
Q 3006 2619 2597 2516 
z
" transform="scale(0.015625)"/>
     </defs>
     <use xlink:href="#DejaVuSans-66"/>
     <use xlink:href="#DejaVuSans-28" x="35.205078"/>
     <use xlink:href="#DejaVuSans-78" x="74.21875"/>
     <use xlink:href="#DejaVuSans-29" x="133.398438"/>
     <use xlink:href="#DejaVuSans-20" x="172.412109"/>
     <use xlink:href="#DejaVuSans-3d" x="204.199219"/>
     <use xlink:href="#DejaVuSans-20" x="287.988281"/>
     <use xlink:href="#DejaVuSans-2d" x="319.775391"/>
     <use xlink:href="#DejaVuSans-78" x="355.859375"/>
     <use xlink:href="#DejaVuSans-b2" x="415.039062"/>
     <use xlink:href="#DejaVuSans-20" x="455.126953"/>
     <use xlink:href="#DejaVuSans-2b" x="486.914062"/>
     <use xlink:href="#DejaVuSans-20" x="570.703125"/>
     <use xlink:href="#DejaVuSans-32" x="602.490234"/>
     <use xlink:href="#DejaVuSans-78" x="666.113281"/>
     <use xlink:href="#DejaVuSans-20" x="725.292969"/>
     <use xlink:href="#DejaVuSans-2b" x="757.080078"/>
     <use xlink:href="#DejaVuSans-20" x="840.869141"/>
     <use xlink:href="#DejaVuSans-33" x="872.65625"/>
    </g>
   </g>
   <g id="text_4">
    <!-- $V$ -->
    <g style="fill: #ffffff" transform="translate(236.16 191.16) scale(0.1728 -0.1728)">
     <defs>
      <path id="DejaVuSans-Oblique-56" d="M 1319 0 
L 500 4666 
L 1119 4666 
L 1797 653 
L 4063 4666 
L 4750 4666 
L 2053 0 
L 1319 0 
z
" transform="scale(0.015625)"/>
     </defs>
     <use xlink:href="#DejaVuSans-Oblique-56" transform="translate(0 0.09375)"/>
    </g>
   </g>
   <g id="PathCollection_1">
    <defs>
     <path id="mcc0db9c2ef" d="M 0 3 
C 0.795609 3 1.55874 2.683901 2.12132 2.12132 
C 2.683901 1.55874 3 0.795609 3 0 
C 3 -0.795609 2.683901 -1.55874 2.12132 -2.12132 
C 1.55874 -2.683901 0.795609 -3 0 -3 
C -0.795609 -3 -1.55874 -2.683901 -2.12132 -2.12132 
C -2.683901 -1.55874 -3 -0.795609 -3 0 
C -3 0.795609 -2.683901 1.55874 -2.12132 2.12132 
C -1.55874 2.683901 -0.795609 3 0 3 
z
" style="stroke: #7fffd4"/>
    </defs>
    <g clip-path="url(#p10952f9700)">
     <use xlink:href="#mcc0db9c2ef" x="117.12" y="241.056" style="fill: #7fffd4; stroke: #7fffd4"/>
    </g>
   </g>
   <g id="PathCollection_2">
    <g clip-path="url(#p10952f9700)">
     <use xlink:href="#mcc0db9c2ef" x="355.2" y="241.056" style="fill: #7fffd4; stroke: #7fffd4"/>
    </g>
   </g>
   <g id="legend_1">
    <g id="patch_7">
     <path d="M 279.62 64.972 
L 407.72 64.972 
Q 409.72 64.972 409.72 62.972 
L 409.72 48.472 
Q 409.72 46.472 407.72 46.472 
L 279.62 46.472 
Q 277.62 46.472 277.62 48.472 
L 277.62 62.972 
Q 277.62 64.972 279.62 64.972 
z
" style="fill: #ffffff; opacity: 0.8; stroke: #cccccc; stroke-linejoin: miter"/>
    </g>
    <g id="line2d_2">
     <path d="M 281.62 55.392313 
L 291.62 55.392313 
L 301.62 55.392313 
" style="fill: none; stroke: #00ced1; stroke-width: 1.5; stroke-linecap: square"/>
    </g>
    <g id="text_5">
     <!-- $f(x) = - x^{2} + 2 x + 3$ -->
     <g transform="translate(309.62 58.892313) scale(0.1 -0.1)">
      <defs>
       <path id="DejaVuSans-Oblique-66" d="M 3059 4863 
L 2969 4384 
L 2419 4384 
Q 2106 4384 1964 4261 
Q 1822 4138 1753 3809 
L 1691 3500 
L 2638 3500 
L 2553 3053 
L 1606 3053 
L 1013 0 
L 434 0 
L 1031 3053 
L 481 3053 
L 563 3500 
L 1113 3500 
L 1159 3744 
Q 1278 4363 1576 4613 
Q 1875 4863 2516 4863 
L 3059 4863 
z
" transform="scale(0.015625)"/>
       <path id="DejaVuSans-Oblique-78" d="M 3841 3500 
L 2234 1784 
L 3219 0 
L 2559 0 
L 1819 1388 
L 531 0 
L -166 0 
L 1556 1844 
L 641 3500 
L 1300 3500 
L 1972 2234 
L 3144 3500 
L 3841 3500 
z
" transform="scale(0.015625)"/>
       <path id="DejaVuSans-2212" d="M 678 2272 
L 4684 2272 
L 4684 1741 
L 678 1741 
L 678 2272 
z
" transform="scale(0.015625)"/>
      </defs>
      <use xlink:href="#DejaVuSans-Oblique-66" transform="translate(0 0.765625)"/>
      <use xlink:href="#DejaVuSans-28" transform="translate(35.205078 0.765625)"/>
      <use xlink:href="#DejaVuSans-Oblique-78" transform="translate(74.21875 0.765625)"/>
      <use xlink:href="#DejaVuSans-29" transform="translate(133.398438 0.765625)"/>
      <use xlink:href="#DejaVuSans-3d" transform="translate(191.894531 0.765625)"/>
      <use xlink:href="#DejaVuSans-2212" transform="translate(314.648438 0.765625)"/>
      <use xlink:href="#DejaVuSans-Oblique-78" transform="translate(417.919922 0.765625)"/>
      <use xlink:href="#DejaVuSans-32" transform="translate(481.565755 39.046875) scale(0.7)"/>
      <use xlink:href="#DejaVuSans-2b" transform="translate(548.318685 0.765625)"/>
      <use xlink:href="#DejaVuSans-32" transform="translate(651.590169 0.765625)"/>
      <use xlink:href="#DejaVuSans-Oblique-78" transform="translate(715.213216 0.765625)"/>
      <use xlink:href="#DejaVuSans-2b" transform="translate(793.875326 0.765625)"/>
      <use xlink:href="#DejaVuSans-33" transform="translate(897.14681 0.765625)"/>
     </g>
    </g>
   </g>
  </g>
 </g>
 <defs>
  <clipPath id="p10952f9700">
   <rect x="57.6" y="41.472" width="357.12" height="266.112"/>
  </clipPath>
 </defs>
</svg>
