<?xml version="1.0" encoding="utf-8" standalone="no"?>
<!DOCTYPE svg PUBLIC "-//W3C//DTD SVG 1.1//EN"
  "http://www.w3.org/Graphics/SVG/1.1/DTD/svg11.dtd">
<svg xmlns:xlink="http://www.w3.org/1999/xlink" width="460.8pt" height="345.6pt" viewBox="0 0 460.8 345.6" xmlns="http://www.w3.org/2000/svg" version="1.1">
 <metadata>
  <rdf:RDF xmlns:dc="http://purl.org/dc/elements/1.1/" xmlns:cc="http://creativecommons.org/ns#" xmlns:rdf="http://www.w3.org/1999/02/22-rdf-syntax-ns#">
   <cc:Work>
    <dc:type rdf:resource="http://purl.org/dc/dcmitype/StillImage"/>
    <dc:date>2024-08-09T13:50:43.310861</dc:date>
    <dc:format>image/svg+xml</dc:format>
    <dc:creator>
     <cc:Agent>
      <dc:title>Matplotlib v3.8.3, https://matplotlib.org/</dc:title>
     </cc:Agent>
    </dc:creator>
   </cc:Work>
  </rdf:RDF>
 </metadata>
 <defs>
  <style type="text/css">*{stroke-linejoin: round; stroke-linecap: butt}</style>
 </defs>
 <g id="figure_1">
  <g id="patch_1">
   <path d="M 0 345.6 
L 460.8 345.6 
L 460.8 0 
L 0 0 
L 0 345.6 
z
" style="fill: none"/>
  </g>
  <g id="axes_1">
   <g id="patch_2">
    <path d="M 57.6 307.584 
L 414.72 307.584 
L 414.72 41.472 
L 57.6 41.472 
z
" style="fill: none"/>
   </g>
   <g id="LineCollection_1">
    <path d="M 57.6 174.528 
L 414.72 174.528 
" clip-path="url(#p87e33aa5b9)" style="fill: none; stroke: #d3d3d3; stroke-width: 1.5"/>
   </g>
   <g id="LineCollection_2">
    <path d="M 97.28 307.584 
L 97.28 41.472 
" clip-path="url(#p87e33aa5b9)" style="fill: none; stroke: #d3d3d3; stroke-width: 1.5"/>
   </g>
   <g id="matplotlib.axis_1">
    <g id="text_1">
     <!-- X-as -->
     <g style="fill: #d3d3d3" transform="translate(225.512344 319.182437) scale(0.1 -0.1)">
      <defs>
       <path id="DejaVuSans-58" d="M 403 4666 
L 1081 4666 
L 2241 2931 
L 3406 4666 
L 4084 4666 
L 2584 2425 
L 4184 0 
L 3506 0 
L 2194 1984 
L 872 0 
L 191 0 
L 1856 2491 
L 403 4666 
z
" transform="scale(0.015625)"/>
       <path id="DejaVuSans-2d" d="M 313 2009 
L 1997 2009 
L 1997 1497 
L 313 1497 
L 313 2009 
z
" transform="scale(0.015625)"/>
       <path id="DejaVuSans-61" d="M 2194 1759 
Q 1497 1759 1228 1600 
Q 959 1441 959 1056 
Q 959 750 1161 570 
Q 1363 391 1709 391 
Q 2188 391 2477 730 
Q 2766 1069 2766 1631 
L 2766 1759 
L 2194 1759 
z
M 3341 1997 
L 3341 0 
L 2766 0 
L 2766 531 
Q 2569 213 2275 61 
Q 1981 -91 1556 -91 
Q 1019 -91 701 211 
Q 384 513 384 1019 
Q 384 1609 779 1909 
Q 1175 2209 1959 2209 
L 2766 2209 
L 2766 2266 
Q 2766 2663 2505 2880 
Q 2244 3097 1772 3097 
Q 1472 3097 1187 3025 
Q 903 2953 641 2809 
L 641 3341 
Q 956 3463 1253 3523 
Q 1550 3584 1831 3584 
Q 2591 3584 2966 3190 
Q 3341 2797 3341 1997 
z
" transform="scale(0.015625)"/>
       <path id="DejaVuSans-73" d="M 2834 3397 
L 2834 2853 
Q 2591 2978 2328 3040 
Q 2066 3103 1784 3103 
Q 1356 3103 1142 2972 
Q 928 2841 928 2578 
Q 928 2378 1081 2264 
Q 1234 2150 1697 2047 
L 1894 2003 
Q 2506 1872 2764 1633 
Q 3022 1394 3022 966 
Q 3022 478 2636 193 
Q 2250 -91 1575 -91 
Q 1294 -91 989 -36 
Q 684 19 347 128 
L 347 722 
Q 666 556 975 473 
Q 1284 391 1588 391 
Q 1994 391 2212 530 
Q 2431 669 2431 922 
Q 2431 1156 2273 1281 
Q 2116 1406 1581 1522 
L 1381 1569 
Q 847 1681 609 1914 
Q 372 2147 372 2553 
Q 372 3047 722 3315 
Q 1072 3584 1716 3584 
Q 2034 3584 2315 3537 
Q 2597 3491 2834 3397 
z
" transform="scale(0.015625)"/>
      </defs>
      <use xlink:href="#DejaVuSans-58"/>
      <use xlink:href="#DejaVuSans-2d" x="63.505859"/>
      <use xlink:href="#DejaVuSans-61" x="99.589844"/>
      <use xlink:href="#DejaVuSans-73" x="160.869141"/>
     </g>
    </g>
   </g>
   <g id="matplotlib.axis_2">
    <g id="text_2">
     <!-- Y-as -->
     <g style="fill: #d3d3d3" transform="translate(51.520313 184.460813) rotate(-90) scale(0.1 -0.1)">
      <defs>
       <path id="DejaVuSans-59" d="M -13 4666 
L 666 4666 
L 1959 2747 
L 3244 4666 
L 3922 4666 
L 2272 2222 
L 2272 0 
L 1638 0 
L 1638 2222 
L -13 4666 
z
" transform="scale(0.015625)"/>
      </defs>
      <use xlink:href="#DejaVuSans-59"/>
      <use xlink:href="#DejaVuSans-2d" x="49.208984"/>
      <use xlink:href="#DejaVuSans-61" x="85.292969"/>
      <use xlink:href="#DejaVuSans-73" x="146.572266"/>
     </g>
    </g>
   </g>
   <g id="line2d_1">
    <path d="M 81.926128 -1 
L 86.1696 11.528679 
L 90.9312 24.858096 
L 95.6928 37.44027 
L 100.4544 49.296757 
L 104.4224 58.63837 
L 108.3904 67.503475 
L 112.3584 75.904548 
L 116.3264 83.854062 
L 120.2944 91.364491 
L 124.2624 98.448309 
L 128.2304 105.11799 
L 132.1984 111.386009 
L 136.1664 117.264839 
L 140.1344 122.766954 
L 144.1024 127.904828 
L 148.0704 132.690936 
L 152.0384 137.13775 
L 156.0064 141.257746 
L 159.9744 145.063397 
L 163.9424 148.567178 
L 167.9104 151.781561 
L 171.8784 154.719022 
L 175.8464 157.392034 
L 179.8144 159.813071 
L 183.7824 161.994607 
L 187.7504 163.949117 
L 191.7184 165.689073 
L 196.48 167.511375 
L 201.2416 169.064238 
L 206.0032 170.369218 
L 210.7648 171.44787 
L 215.5264 172.321749 
L 221.0816 173.11122 
L 226.6368 173.685539 
L 232.9856 174.122362 
L 240.128 174.394944 
L 249.6512 174.519484 
L 273.4592 174.705098 
L 280.6016 175.023484 
L 286.9504 175.514594 
L 292.5056 176.146892 
L 298.0608 177.004122 
L 302.8224 177.943864 
L 307.584 179.095563 
L 312.3456 180.480776 
L 317.1072 182.121057 
L 321.8688 184.037961 
L 325.8368 185.862242 
L 329.8048 187.906066 
L 333.7728 190.181905 
L 337.7408 192.702235 
L 341.7088 195.47953 
L 345.6768 198.526263 
L 349.6448 201.854908 
L 353.6128 205.47794 
L 357.5808 209.407832 
L 361.5488 213.657059 
L 365.5168 218.238094 
L 369.4848 223.163411 
L 373.4528 228.445485 
L 377.4208 234.096789 
L 381.3888 240.129797 
L 385.3568 246.556984 
L 389.3248 253.390823 
L 393.2928 260.643789 
L 397.2608 268.328355 
L 401.2288 276.456996 
L 405.1968 285.042185 
L 409.1648 294.096396 
L 413.1328 303.632104 
L 413.9264 305.598123 
L 413.9264 305.598123 
" clip-path="url(#p87e33aa5b9)" style="fill: none; stroke: #00ced1; stroke-width: 1.5; stroke-linecap: square"/>
   </g>
   <g id="patch_3">
    <path d="M 57.6 307.584 
L 57.6 41.472 
" style="fill: none; stroke: #d3d3d3; stroke-width: 0.8; stroke-linejoin: miter; stroke-linecap: square"/>
   </g>
   <g id="patch_4">
    <path d="M 414.72 307.584 
L 414.72 41.472 
" style="fill: none; stroke: #d3d3d3; stroke-width: 0.8; stroke-linejoin: miter; stroke-linecap: square"/>
   </g>
   <g id="patch_5">
    <path d="M 57.6 307.584 
L 414.72 307.584 
" style="fill: none; stroke: #d3d3d3; stroke-width: 0.8; stroke-linejoin: miter; stroke-linecap: square"/>
   </g>
   <g id="patch_6">
    <path d="M 57.6 41.472 
L 414.72 41.472 
" style="fill: none; stroke: #d3d3d3; stroke-width: 0.8; stroke-linejoin: miter; stroke-linecap: square"/>
   </g>
   <g id="text_3">
    <!-- $a$ -->
    <g style="fill: #d3d3d3" transform="translate(130.2144 191.16) scale(0.144 -0.144)">
     <defs>
      <path id="DejaVuSans-Oblique-61" d="M 3438 1997 
L 3047 0 
L 2472 0 
L 2578 531 
Q 2325 219 2001 64 
Q 1678 -91 1281 -91 
Q 834 -91 548 182 
Q 263 456 263 884 
Q 263 1497 752 1853 
Q 1241 2209 2100 2209 
L 2900 2209 
L 2931 2363 
Q 2938 2388 2941 2417 
Q 2944 2447 2944 2509 
Q 2944 2788 2717 2942 
Q 2491 3097 2081 3097 
Q 1800 3097 1504 3025 
Q 1209 2953 897 2809 
L 997 3341 
Q 1322 3463 1633 3523 
Q 1944 3584 2234 3584 
Q 2853 3584 3176 3315 
Q 3500 3047 3500 2534 
Q 3500 2431 3484 2292 
Q 3469 2153 3438 1997 
z
M 2816 1759 
L 2241 1759 
Q 1534 1759 1195 1570 
Q 856 1381 856 984 
Q 856 709 1029 553 
Q 1203 397 1509 397 
Q 1978 397 2328 733 
Q 2678 1069 2791 1631 
L 2816 1759 
z
" transform="scale(0.015625)"/>
     </defs>
     <use xlink:href="#DejaVuSans-Oblique-61"/>
    </g>
   </g>
   <g id="text_4">
    <!-- $b$ -->
    <g style="fill: #d3d3d3" transform="translate(371.072 166.212) scale(0.144 -0.144)">
     <defs>
      <path id="DejaVuSans-Oblique-62" d="M 3169 2138 
Q 3169 2591 2961 2847 
Q 2753 3103 2388 3103 
Q 2122 3103 1889 2973 
Q 1656 2844 1484 2597 
Q 1303 2338 1198 1995 
Q 1094 1653 1094 1313 
Q 1094 881 1298 636 
Q 1503 391 1863 391 
Q 2134 391 2365 517 
Q 2597 644 2772 891 
Q 2950 1147 3059 1487 
Q 3169 1828 3169 2138 
z
M 1381 2969 
Q 1594 3256 1914 3420 
Q 2234 3584 2584 3584 
Q 3122 3584 3439 3221 
Q 3756 2859 3756 2241 
Q 3756 1734 3570 1259 
Q 3384 784 3041 416 
Q 2816 172 2522 40 
Q 2228 -91 1906 -91 
Q 1566 -91 1316 65 
Q 1066 222 909 531 
L 806 0 
L 231 0 
L 1178 4863 
L 1753 4863 
L 1381 2969 
z
" transform="scale(0.015625)"/>
     </defs>
     <use xlink:href="#DejaVuSans-Oblique-62" transform="translate(0 0.015625)"/>
    </g>
   </g>
   <g id="text_5">
    <!-- $c$ -->
    <g style="fill: #d3d3d3" transform="translate(251.2384 166.212) scale(0.144 -0.144)">
     <defs>
      <path id="DejaVuSans-Oblique-63" d="M 3431 3366 
L 3316 2797 
Q 3109 2947 2876 3022 
Q 2644 3097 2394 3097 
Q 2119 3097 1870 3000 
Q 1622 2903 1453 2725 
Q 1184 2453 1037 2087 
Q 891 1722 891 1331 
Q 891 859 1127 628 
Q 1363 397 1844 397 
Q 2081 397 2348 469 
Q 2616 541 2906 684 
L 2797 116 
Q 2547 13 2283 -39 
Q 2019 -91 1741 -91 
Q 1044 -91 669 257 
Q 294 606 294 1253 
Q 294 1797 489 2255 
Q 684 2713 1069 3078 
Q 1331 3328 1684 3456 
Q 2038 3584 2456 3584 
Q 2700 3584 2940 3529 
Q 3181 3475 3431 3366 
z
" transform="scale(0.015625)"/>
     </defs>
     <use xlink:href="#DejaVuSans-Oblique-63"/>
    </g>
   </g>
   <g id="PolyCollection_1">
    <defs>
     <path id="m105dc5d42b" d="M 136.96 -171.072 
L 136.96 -227.205 
L 137.7536 -226.089808 
L 138.5472 -224.989485 
L 139.3408 -223.903931 
L 140.1344 -222.833046 
L 140.928 -221.776731 
L 141.7216 -220.734886 
L 142.5152 -219.707411 
L 143.3088 -218.694206 
L 144.1024 -217.695172 
L 144.896 -216.710208 
L 145.6896 -215.739215 
L 146.4832 -214.782094 
L 147.2768 -213.838743 
L 148.0704 -212.909064 
L 148.864 -211.992957 
L 149.6576 -211.090322 
L 150.4512 -210.201059 
L 151.2448 -209.325068 
L 152.0384 -208.46225 
L 152.832 -207.612504 
L 153.6256 -206.775731 
L 154.4192 -205.951832 
L 155.2128 -205.140706 
L 156.0064 -204.342254 
L 156.8 -203.556375 
L 157.5936 -202.78297 
L 158.3872 -202.02194 
L 159.1808 -201.273184 
L 159.9744 -200.536603 
L 160.768 -199.812096 
L 161.5616 -199.099564 
L 162.3552 -198.398908 
L 163.1488 -197.710027 
L 163.9424 -197.032822 
L 164.736 -196.367193 
L 165.5296 -195.71304 
L 166.3232 -195.070263 
L 167.1168 -194.438762 
L 167.9104 -193.818439 
L 168.704 -193.209192 
L 169.4976 -192.610922 
L 170.2912 -192.02353 
L 171.0848 -191.446915 
L 171.8784 -190.880978 
L 172.672 -190.325619 
L 173.4656 -189.780738 
L 174.2592 -189.246235 
L 175.0528 -188.722011 
L 175.8464 -188.207966 
L 176.64 -187.704 
L 177.4336 -187.210013 
L 178.2272 -186.725905 
L 179.0208 -186.251577 
L 179.8144 -185.786929 
L 180.608 -185.331861 
L 181.4016 -184.886273 
L 182.1952 -184.450066 
L 182.9888 -184.023139 
L 183.7824 -183.605393 
L 184.576 -183.196728 
L 185.3696 -182.797044 
L 186.1632 -182.406242 
L 186.9568 -182.024222 
L 187.7504 -181.650883 
L 188.544 -181.286127 
L 189.3376 -180.929853 
L 190.1312 -180.581961 
L 190.9248 -180.242353 
L 191.7184 -179.910927 
L 192.512 -179.587584 
L 193.3056 -179.272225 
L 194.0992 -178.964749 
L 194.8928 -178.665057 
L 195.6864 -178.373049 
L 196.48 -178.088625 
L 197.2736 -177.811686 
L 198.0672 -177.542131 
L 198.8608 -177.279861 
L 199.6544 -177.024776 
L 200.448 -176.776776 
L 201.2416 -176.535762 
L 202.0352 -176.301633 
L 202.8288 -176.07429 
L 203.6224 -175.853633 
L 204.416 -175.639563 
L 205.2096 -175.431979 
L 206.0032 -175.230782 
L 206.7968 -175.035871 
L 207.5904 -174.847148 
L 208.384 -174.664512 
L 209.1776 -174.487864 
L 209.9712 -174.317103 
L 210.7648 -174.15213 
L 211.5584 -173.992845 
L 212.352 -173.839149 
L 213.1456 -173.690941 
L 213.9392 -173.548122 
L 214.7328 -173.410592 
L 215.5264 -173.278251 
L 216.32 -173.151 
L 217.1136 -173.028738 
L 217.9072 -172.911366 
L 218.7008 -172.798784 
L 219.4944 -172.690892 
L 220.288 -172.587591 
L 221.0816 -172.48878 
L 221.8752 -172.39436 
L 222.6688 -172.304232 
L 223.4624 -172.218294 
L 224.256 -172.136448 
L 225.0496 -172.058594 
L 225.8432 -171.984631 
L 226.6368 -171.914461 
L 227.4304 -171.847983 
L 228.224 -171.785097 
L 229.0176 -171.725704 
L 229.8112 -171.669704 
L 230.6048 -171.616997 
L 231.3984 -171.567484 
L 232.192 -171.521064 
L 232.9856 -171.477638 
L 233.7792 -171.437106 
L 234.5728 -171.399368 
L 235.3664 -171.364324 
L 236.16 -171.331875 
L 236.9536 -171.301921 
L 237.7472 -171.274362 
L 238.5408 -171.249098 
L 239.3344 -171.226029 
L 240.128 -171.205056 
L 240.9216 -171.186079 
L 241.7152 -171.168998 
L 242.5088 -171.153713 
L 243.3024 -171.140125 
L 244.096 -171.128133 
L 244.8896 -171.117638 
L 245.6832 -171.108541 
L 246.4768 -171.10074 
L 247.2704 -171.094137 
L 248.064 -171.088632 
L 248.8576 -171.084125 
L 249.6512 -171.080516 
L 250.4448 -171.077705 
L 251.2384 -171.075593 
L 252.032 -171.074079 
L 252.8256 -171.073064 
L 253.6192 -171.072449 
L 254.4128 -171.072133 
L 255.2064 -171.072017 
L 256 -171.072 
L 256.7936 -171.071983 
L 257.5872 -171.071867 
L 258.3808 -171.071551 
L 259.1744 -171.070936 
L 259.968 -171.069921 
L 260.7616 -171.068407 
L 261.5552 -171.066295 
L 262.3488 -171.063484 
L 263.1424 -171.059875 
L 263.936 -171.055368 
L 264.7296 -171.049863 
L 265.5232 -171.04326 
L 266.3168 -171.035459 
L 267.1104 -171.026362 
L 267.904 -171.015867 
L 268.6976 -171.003875 
L 269.4912 -170.990287 
L 270.2848 -170.975002 
L 271.0784 -170.957921 
L 271.872 -170.938944 
L 272.6656 -170.917971 
L 273.4592 -170.894902 
L 274.2528 -170.869638 
L 275.0464 -170.842079 
L 275.84 -170.812125 
L 276.6336 -170.779676 
L 277.4272 -170.744632 
L 278.2208 -170.706894 
L 279.0144 -170.666362 
L 279.808 -170.622936 
L 280.6016 -170.576516 
L 281.3952 -170.527003 
L 282.1888 -170.474296 
L 282.9824 -170.418296 
L 283.776 -170.358903 
L 284.5696 -170.296017 
L 285.3632 -170.229539 
L 286.1568 -170.159369 
L 286.9504 -170.085406 
L 287.744 -170.007552 
L 288.5376 -169.925706 
L 289.3312 -169.839768 
L 290.1248 -169.74964 
L 290.9184 -169.65522 
L 291.712 -169.556409 
L 292.5056 -169.453108 
L 293.2992 -169.345216 
L 294.0928 -169.232634 
L 294.8864 -169.115262 
L 295.68 -168.993 
L 296.4736 -168.865749 
L 297.2672 -168.733408 
L 298.0608 -168.595878 
L 298.8544 -168.453059 
L 299.648 -168.304851 
L 300.4416 -168.151155 
L 301.2352 -167.99187 
L 302.0288 -167.826897 
L 302.8224 -167.656136 
L 303.616 -167.479488 
L 304.4096 -167.296852 
L 305.2032 -167.108129 
L 305.9968 -166.913218 
L 306.7904 -166.712021 
L 307.584 -166.504437 
L 308.3776 -166.290367 
L 309.1712 -166.06971 
L 309.9648 -165.842367 
L 310.7584 -165.608238 
L 311.552 -165.367224 
L 312.3456 -165.119224 
L 313.1392 -164.864139 
L 313.9328 -164.601869 
L 314.7264 -164.332314 
L 315.52 -164.055375 
L 316.3136 -163.770951 
L 317.1072 -163.478943 
L 317.9008 -163.179251 
L 318.6944 -162.871775 
L 319.488 -162.556416 
L 320.2816 -162.233073 
L 321.0752 -161.901647 
L 321.8688 -161.562039 
L 322.6624 -161.214147 
L 323.456 -160.857873 
L 324.2496 -160.493117 
L 325.0432 -160.119778 
L 325.8368 -159.737758 
L 326.6304 -159.346956 
L 327.424 -158.947272 
L 328.2176 -158.538607 
L 329.0112 -158.120861 
L 329.8048 -157.693934 
L 330.5984 -157.257727 
L 331.392 -156.812139 
L 332.1856 -156.357071 
L 332.9792 -155.892423 
L 333.7728 -155.418095 
L 334.5664 -154.933987 
L 335.36 -154.44 
L 336.1536 -153.936034 
L 336.9472 -153.421989 
L 337.7408 -152.897765 
L 338.5344 -152.363262 
L 339.328 -151.818381 
L 340.1216 -151.263022 
L 340.9152 -150.697085 
L 341.7088 -150.12047 
L 342.5024 -149.533078 
L 343.296 -148.934808 
L 344.0896 -148.325561 
L 344.8832 -147.705238 
L 345.6768 -147.073737 
L 346.4704 -146.43096 
L 347.264 -145.776807 
L 348.0576 -145.111178 
L 348.8512 -144.433973 
L 349.6448 -143.745092 
L 350.4384 -143.044436 
L 351.232 -142.331904 
L 352.0256 -141.607397 
L 352.8192 -140.870816 
L 353.6128 -140.12206 
L 354.4064 -139.36103 
L 355.2 -138.587625 
L 355.9936 -137.801746 
L 356.7872 -137.003294 
L 357.5808 -136.192168 
L 358.3744 -135.368269 
L 359.168 -134.531496 
L 359.9616 -133.68175 
L 360.7552 -132.818932 
L 361.5488 -131.942941 
L 362.3424 -131.053678 
L 363.136 -130.151043 
L 363.9296 -129.234936 
L 364.7232 -128.305257 
L 365.5168 -127.361906 
L 366.3104 -126.404785 
L 367.104 -125.433792 
L 367.8976 -124.448828 
L 368.6912 -123.449794 
L 369.4848 -122.436589 
L 370.2784 -121.409114 
L 371.072 -120.367269 
L 371.8656 -119.310954 
L 372.6592 -118.240069 
L 373.4528 -117.154515 
L 374.2464 -116.054192 
L 374.2464 -171.072 
L 374.2464 -171.072 
L 373.4528 -171.072 
L 372.6592 -171.072 
L 371.8656 -171.072 
L 371.072 -171.072 
L 370.2784 -171.072 
L 369.4848 -171.072 
L 368.6912 -171.072 
L 367.8976 -171.072 
L 367.104 -171.072 
L 366.3104 -171.072 
L 365.5168 -171.072 
L 364.7232 -171.072 
L 363.9296 -171.072 
L 363.136 -171.072 
L 362.3424 -171.072 
L 361.5488 -171.072 
L 360.7552 -171.072 
L 359.9616 -171.072 
L 359.168 -171.072 
L 358.3744 -171.072 
L 357.5808 -171.072 
L 356.7872 -171.072 
L 355.9936 -171.072 
L 355.2 -171.072 
L 354.4064 -171.072 
L 353.6128 -171.072 
L 352.8192 -171.072 
L 352.0256 -171.072 
L 351.232 -171.072 
L 350.4384 -171.072 
L 349.6448 -171.072 
L 348.8512 -171.072 
L 348.0576 -171.072 
L 347.264 -171.072 
L 346.4704 -171.072 
L 345.6768 -171.072 
L 344.8832 -171.072 
L 344.0896 -171.072 
L 343.296 -171.072 
L 342.5024 -171.072 
L 341.7088 -171.072 
L 340.9152 -171.072 
L 340.1216 -171.072 
L 339.328 -171.072 
L 338.5344 -171.072 
L 337.7408 -171.072 
L 336.9472 -171.072 
L 336.1536 -171.072 
L 335.36 -171.072 
L 334.5664 -171.072 
L 333.7728 -171.072 
L 332.9792 -171.072 
L 332.1856 -171.072 
L 331.392 -171.072 
L 330.5984 -171.072 
L 329.8048 -171.072 
L 329.0112 -171.072 
L 328.2176 -171.072 
L 327.424 -171.072 
L 326.6304 -171.072 
L 325.8368 -171.072 
L 325.0432 -171.072 
L 324.2496 -171.072 
L 323.456 -171.072 
L 322.6624 -171.072 
L 321.8688 -171.072 
L 321.0752 -171.072 
L 320.2816 -171.072 
L 319.488 -171.072 
L 318.6944 -171.072 
L 317.9008 -171.072 
L 317.1072 -171.072 
L 316.3136 -171.072 
L 315.52 -171.072 
L 314.7264 -171.072 
L 313.9328 -171.072 
L 313.1392 -171.072 
L 312.3456 -171.072 
L 311.552 -171.072 
L 310.7584 -171.072 
L 309.9648 -171.072 
L 309.1712 -171.072 
L 308.3776 -171.072 
L 307.584 -171.072 
L 306.7904 -171.072 
L 305.9968 -171.072 
L 305.2032 -171.072 
L 304.4096 -171.072 
L 303.616 -171.072 
L 302.8224 -171.072 
L 302.0288 -171.072 
L 301.2352 -171.072 
L 300.4416 -171.072 
L 299.648 -171.072 
L 298.8544 -171.072 
L 298.0608 -171.072 
L 297.2672 -171.072 
L 296.4736 -171.072 
L 295.68 -171.072 
L 294.8864 -171.072 
L 294.0928 -171.072 
L 293.2992 -171.072 
L 292.5056 -171.072 
L 291.712 -171.072 
L 290.9184 -171.072 
L 290.1248 -171.072 
L 289.3312 -171.072 
L 288.5376 -171.072 
L 287.744 -171.072 
L 286.9504 -171.072 
L 286.1568 -171.072 
L 285.3632 -171.072 
L 284.5696 -171.072 
L 283.776 -171.072 
L 282.9824 -171.072 
L 282.1888 -171.072 
L 281.3952 -171.072 
L 280.6016 -171.072 
L 279.808 -171.072 
L 279.0144 -171.072 
L 278.2208 -171.072 
L 277.4272 -171.072 
L 276.6336 -171.072 
L 275.84 -171.072 
L 275.0464 -171.072 
L 274.2528 -171.072 
L 273.4592 -171.072 
L 272.6656 -171.072 
L 271.872 -171.072 
L 271.0784 -171.072 
L 270.2848 -171.072 
L 269.4912 -171.072 
L 268.6976 -171.072 
L 267.904 -171.072 
L 267.1104 -171.072 
L 266.3168 -171.072 
L 265.5232 -171.072 
L 264.7296 -171.072 
L 263.936 -171.072 
L 263.1424 -171.072 
L 262.3488 -171.072 
L 261.5552 -171.072 
L 260.7616 -171.072 
L 259.968 -171.072 
L 259.1744 -171.072 
L 258.3808 -171.072 
L 257.5872 -171.072 
L 256.7936 -171.072 
L 256 -171.072 
L 255.2064 -171.072 
L 254.4128 -171.072 
L 253.6192 -171.072 
L 252.8256 -171.072 
L 252.032 -171.072 
L 251.2384 -171.072 
L 250.4448 -171.072 
L 249.6512 -171.072 
L 248.8576 -171.072 
L 248.064 -171.072 
L 247.2704 -171.072 
L 246.4768 -171.072 
L 245.6832 -171.072 
L 244.8896 -171.072 
L 244.096 -171.072 
L 243.3024 -171.072 
L 242.5088 -171.072 
L 241.7152 -171.072 
L 240.9216 -171.072 
L 240.128 -171.072 
L 239.3344 -171.072 
L 238.5408 -171.072 
L 237.7472 -171.072 
L 236.9536 -171.072 
L 236.16 -171.072 
L 235.3664 -171.072 
L 234.5728 -171.072 
L 233.7792 -171.072 
L 232.9856 -171.072 
L 232.192 -171.072 
L 231.3984 -171.072 
L 230.6048 -171.072 
L 229.8112 -171.072 
L 229.0176 -171.072 
L 228.224 -171.072 
L 227.4304 -171.072 
L 226.6368 -171.072 
L 225.8432 -171.072 
L 225.0496 -171.072 
L 224.256 -171.072 
L 223.4624 -171.072 
L 222.6688 -171.072 
L 221.8752 -171.072 
L 221.0816 -171.072 
L 220.288 -171.072 
L 219.4944 -171.072 
L 218.7008 -171.072 
L 217.9072 -171.072 
L 217.1136 -171.072 
L 216.32 -171.072 
L 215.5264 -171.072 
L 214.7328 -171.072 
L 213.9392 -171.072 
L 213.1456 -171.072 
L 212.352 -171.072 
L 211.5584 -171.072 
L 210.7648 -171.072 
L 209.9712 -171.072 
L 209.1776 -171.072 
L 208.384 -171.072 
L 207.5904 -171.072 
L 206.7968 -171.072 
L 206.0032 -171.072 
L 205.2096 -171.072 
L 204.416 -171.072 
L 203.6224 -171.072 
L 202.8288 -171.072 
L 202.0352 -171.072 
L 201.2416 -171.072 
L 200.448 -171.072 
L 199.6544 -171.072 
L 198.8608 -171.072 
L 198.0672 -171.072 
L 197.2736 -171.072 
L 196.48 -171.072 
L 195.6864 -171.072 
L 194.8928 -171.072 
L 194.0992 -171.072 
L 193.3056 -171.072 
L 192.512 -171.072 
L 191.7184 -171.072 
L 190.9248 -171.072 
L 190.1312 -171.072 
L 189.3376 -171.072 
L 188.544 -171.072 
L 187.7504 -171.072 
L 186.9568 -171.072 
L 186.1632 -171.072 
L 185.3696 -171.072 
L 184.576 -171.072 
L 183.7824 -171.072 
L 182.9888 -171.072 
L 182.1952 -171.072 
L 181.4016 -171.072 
L 180.608 -171.072 
L 179.8144 -171.072 
L 179.0208 -171.072 
L 178.2272 -171.072 
L 177.4336 -171.072 
L 176.64 -171.072 
L 175.8464 -171.072 
L 175.0528 -171.072 
L 174.2592 -171.072 
L 173.4656 -171.072 
L 172.672 -171.072 
L 171.8784 -171.072 
L 171.0848 -171.072 
L 170.2912 -171.072 
L 169.4976 -171.072 
L 168.704 -171.072 
L 167.9104 -171.072 
L 167.1168 -171.072 
L 166.3232 -171.072 
L 165.5296 -171.072 
L 164.736 -171.072 
L 163.9424 -171.072 
L 163.1488 -171.072 
L 162.3552 -171.072 
L 161.5616 -171.072 
L 160.768 -171.072 
L 159.9744 -171.072 
L 159.1808 -171.072 
L 158.3872 -171.072 
L 157.5936 -171.072 
L 156.8 -171.072 
L 156.0064 -171.072 
L 155.2128 -171.072 
L 154.4192 -171.072 
L 153.6256 -171.072 
L 152.832 -171.072 
L 152.0384 -171.072 
L 151.2448 -171.072 
L 150.4512 -171.072 
L 149.6576 -171.072 
L 148.864 -171.072 
L 148.0704 -171.072 
L 147.2768 -171.072 
L 146.4832 -171.072 
L 145.6896 -171.072 
L 144.896 -171.072 
L 144.1024 -171.072 
L 143.3088 -171.072 
L 142.5152 -171.072 
L 141.7216 -171.072 
L 140.928 -171.072 
L 140.1344 -171.072 
L 139.3408 -171.072 
L 138.5472 -171.072 
L 137.7536 -171.072 
L 136.96 -171.072 
z
" style="stroke: #00ff7f; stroke-opacity: 0.7"/>
    </defs>
    <g clip-path="url(#p87e33aa5b9)">
     <use xlink:href="#m105dc5d42b" x="0" y="345.6" style="fill: #00ff7f; fill-opacity: 0.7; stroke: #00ff7f; stroke-opacity: 0.7"/>
    </g>
   </g>
   <g id="text_6">
    <!-- Functie met deel boven en deel onder de x-as -->
    <g style="fill: #d3d3d3" transform="translate(98.080312 35.472) scale(0.12 -0.12)">
     <defs>
      <path id="DejaVuSans-46" d="M 628 4666 
L 3309 4666 
L 3309 4134 
L 1259 4134 
L 1259 2759 
L 3109 2759 
L 3109 2228 
L 1259 2228 
L 1259 0 
L 628 0 
L 628 4666 
z
" transform="scale(0.015625)"/>
      <path id="DejaVuSans-75" d="M 544 1381 
L 544 3500 
L 1119 3500 
L 1119 1403 
Q 1119 906 1312 657 
Q 1506 409 1894 409 
Q 2359 409 2629 706 
Q 2900 1003 2900 1516 
L 2900 3500 
L 3475 3500 
L 3475 0 
L 2900 0 
L 2900 538 
Q 2691 219 2414 64 
Q 2138 -91 1772 -91 
Q 1169 -91 856 284 
Q 544 659 544 1381 
z
M 1991 3584 
L 1991 3584 
z
" transform="scale(0.015625)"/>
      <path id="DejaVuSans-6e" d="M 3513 2113 
L 3513 0 
L 2938 0 
L 2938 2094 
Q 2938 2591 2744 2837 
Q 2550 3084 2163 3084 
Q 1697 3084 1428 2787 
Q 1159 2491 1159 1978 
L 1159 0 
L 581 0 
L 581 3500 
L 1159 3500 
L 1159 2956 
Q 1366 3272 1645 3428 
Q 1925 3584 2291 3584 
Q 2894 3584 3203 3211 
Q 3513 2838 3513 2113 
z
" transform="scale(0.015625)"/>
      <path id="DejaVuSans-63" d="M 3122 3366 
L 3122 2828 
Q 2878 2963 2633 3030 
Q 2388 3097 2138 3097 
Q 1578 3097 1268 2742 
Q 959 2388 959 1747 
Q 959 1106 1268 751 
Q 1578 397 2138 397 
Q 2388 397 2633 464 
Q 2878 531 3122 666 
L 3122 134 
Q 2881 22 2623 -34 
Q 2366 -91 2075 -91 
Q 1284 -91 818 406 
Q 353 903 353 1747 
Q 353 2603 823 3093 
Q 1294 3584 2113 3584 
Q 2378 3584 2631 3529 
Q 2884 3475 3122 3366 
z
" transform="scale(0.015625)"/>
      <path id="DejaVuSans-74" d="M 1172 4494 
L 1172 3500 
L 2356 3500 
L 2356 3053 
L 1172 3053 
L 1172 1153 
Q 1172 725 1289 603 
Q 1406 481 1766 481 
L 2356 481 
L 2356 0 
L 1766 0 
Q 1100 0 847 248 
Q 594 497 594 1153 
L 594 3053 
L 172 3053 
L 172 3500 
L 594 3500 
L 594 4494 
L 1172 4494 
z
" transform="scale(0.015625)"/>
      <path id="DejaVuSans-69" d="M 603 3500 
L 1178 3500 
L 1178 0 
L 603 0 
L 603 3500 
z
M 603 4863 
L 1178 4863 
L 1178 4134 
L 603 4134 
L 603 4863 
z
" transform="scale(0.015625)"/>
      <path id="DejaVuSans-65" d="M 3597 1894 
L 3597 1613 
L 953 1613 
Q 991 1019 1311 708 
Q 1631 397 2203 397 
Q 2534 397 2845 478 
Q 3156 559 3463 722 
L 3463 178 
Q 3153 47 2828 -22 
Q 2503 -91 2169 -91 
Q 1331 -91 842 396 
Q 353 884 353 1716 
Q 353 2575 817 3079 
Q 1281 3584 2069 3584 
Q 2775 3584 3186 3129 
Q 3597 2675 3597 1894 
z
M 3022 2063 
Q 3016 2534 2758 2815 
Q 2500 3097 2075 3097 
Q 1594 3097 1305 2825 
Q 1016 2553 972 2059 
L 3022 2063 
z
" transform="scale(0.015625)"/>
      <path id="DejaVuSans-20" transform="scale(0.015625)"/>
      <path id="DejaVuSans-6d" d="M 3328 2828 
Q 3544 3216 3844 3400 
Q 4144 3584 4550 3584 
Q 5097 3584 5394 3201 
Q 5691 2819 5691 2113 
L 5691 0 
L 5113 0 
L 5113 2094 
Q 5113 2597 4934 2840 
Q 4756 3084 4391 3084 
Q 3944 3084 3684 2787 
Q 3425 2491 3425 1978 
L 3425 0 
L 2847 0 
L 2847 2094 
Q 2847 2600 2669 2842 
Q 2491 3084 2119 3084 
Q 1678 3084 1418 2786 
Q 1159 2488 1159 1978 
L 1159 0 
L 581 0 
L 581 3500 
L 1159 3500 
L 1159 2956 
Q 1356 3278 1631 3431 
Q 1906 3584 2284 3584 
Q 2666 3584 2933 3390 
Q 3200 3197 3328 2828 
z
" transform="scale(0.015625)"/>
      <path id="DejaVuSans-64" d="M 2906 2969 
L 2906 4863 
L 3481 4863 
L 3481 0 
L 2906 0 
L 2906 525 
Q 2725 213 2448 61 
Q 2172 -91 1784 -91 
Q 1150 -91 751 415 
Q 353 922 353 1747 
Q 353 2572 751 3078 
Q 1150 3584 1784 3584 
Q 2172 3584 2448 3432 
Q 2725 3281 2906 2969 
z
M 947 1747 
Q 947 1113 1208 752 
Q 1469 391 1925 391 
Q 2381 391 2643 752 
Q 2906 1113 2906 1747 
Q 2906 2381 2643 2742 
Q 2381 3103 1925 3103 
Q 1469 3103 1208 2742 
Q 947 2381 947 1747 
z
" transform="scale(0.015625)"/>
      <path id="DejaVuSans-6c" d="M 603 4863 
L 1178 4863 
L 1178 0 
L 603 0 
L 603 4863 
z
" transform="scale(0.015625)"/>
      <path id="DejaVuSans-62" d="M 3116 1747 
Q 3116 2381 2855 2742 
Q 2594 3103 2138 3103 
Q 1681 3103 1420 2742 
Q 1159 2381 1159 1747 
Q 1159 1113 1420 752 
Q 1681 391 2138 391 
Q 2594 391 2855 752 
Q 3116 1113 3116 1747 
z
M 1159 2969 
Q 1341 3281 1617 3432 
Q 1894 3584 2278 3584 
Q 2916 3584 3314 3078 
Q 3713 2572 3713 1747 
Q 3713 922 3314 415 
Q 2916 -91 2278 -91 
Q 1894 -91 1617 61 
Q 1341 213 1159 525 
L 1159 0 
L 581 0 
L 581 4863 
L 1159 4863 
L 1159 2969 
z
" transform="scale(0.015625)"/>
      <path id="DejaVuSans-6f" d="M 1959 3097 
Q 1497 3097 1228 2736 
Q 959 2375 959 1747 
Q 959 1119 1226 758 
Q 1494 397 1959 397 
Q 2419 397 2687 759 
Q 2956 1122 2956 1747 
Q 2956 2369 2687 2733 
Q 2419 3097 1959 3097 
z
M 1959 3584 
Q 2709 3584 3137 3096 
Q 3566 2609 3566 1747 
Q 3566 888 3137 398 
Q 2709 -91 1959 -91 
Q 1206 -91 779 398 
Q 353 888 353 1747 
Q 353 2609 779 3096 
Q 1206 3584 1959 3584 
z
" transform="scale(0.015625)"/>
      <path id="DejaVuSans-76" d="M 191 3500 
L 800 3500 
L 1894 563 
L 2988 3500 
L 3597 3500 
L 2284 0 
L 1503 0 
L 191 3500 
z
" transform="scale(0.015625)"/>
      <path id="DejaVuSans-72" d="M 2631 2963 
Q 2534 3019 2420 3045 
Q 2306 3072 2169 3072 
Q 1681 3072 1420 2755 
Q 1159 2438 1159 1844 
L 1159 0 
L 581 0 
L 581 3500 
L 1159 3500 
L 1159 2956 
Q 1341 3275 1631 3429 
Q 1922 3584 2338 3584 
Q 2397 3584 2469 3576 
Q 2541 3569 2628 3553 
L 2631 2963 
z
" transform="scale(0.015625)"/>
      <path id="DejaVuSans-78" d="M 3513 3500 
L 2247 1797 
L 3578 0 
L 2900 0 
L 1881 1375 
L 863 0 
L 184 0 
L 1544 1831 
L 300 3500 
L 978 3500 
L 1906 2253 
L 2834 3500 
L 3513 3500 
z
" transform="scale(0.015625)"/>
     </defs>
     <use xlink:href="#DejaVuSans-46"/>
     <use xlink:href="#DejaVuSans-75" x="52.019531"/>
     <use xlink:href="#DejaVuSans-6e" x="115.398438"/>
     <use xlink:href="#DejaVuSans-63" x="178.777344"/>
     <use xlink:href="#DejaVuSans-74" x="233.757812"/>
     <use xlink:href="#DejaVuSans-69" x="272.966797"/>
     <use xlink:href="#DejaVuSans-65" x="300.75"/>
     <use xlink:href="#DejaVuSans-20" x="362.273438"/>
     <use xlink:href="#DejaVuSans-6d" x="394.060547"/>
     <use xlink:href="#DejaVuSans-65" x="491.472656"/>
     <use xlink:href="#DejaVuSans-74" x="552.996094"/>
     <use xlink:href="#DejaVuSans-20" x="592.205078"/>
     <use xlink:href="#DejaVuSans-64" x="623.992188"/>
     <use xlink:href="#DejaVuSans-65" x="687.46875"/>
     <use xlink:href="#DejaVuSans-65" x="748.992188"/>
     <use xlink:href="#DejaVuSans-6c" x="810.515625"/>
     <use xlink:href="#DejaVuSans-20" x="838.298828"/>
     <use xlink:href="#DejaVuSans-62" x="870.085938"/>
     <use xlink:href="#DejaVuSans-6f" x="933.5625"/>
     <use xlink:href="#DejaVuSans-76" x="994.744141"/>
     <use xlink:href="#DejaVuSans-65" x="1053.923828"/>
     <use xlink:href="#DejaVuSans-6e" x="1115.447266"/>
     <use xlink:href="#DejaVuSans-20" x="1178.826172"/>
     <use xlink:href="#DejaVuSans-65" x="1210.613281"/>
     <use xlink:href="#DejaVuSans-6e" x="1272.136719"/>
     <use xlink:href="#DejaVuSans-20" x="1335.515625"/>
     <use xlink:href="#DejaVuSans-64" x="1367.302734"/>
     <use xlink:href="#DejaVuSans-65" x="1430.779297"/>
     <use xlink:href="#DejaVuSans-65" x="1492.302734"/>
     <use xlink:href="#DejaVuSans-6c" x="1553.826172"/>
     <use xlink:href="#DejaVuSans-20" x="1581.609375"/>
     <use xlink:href="#DejaVuSans-6f" x="1613.396484"/>
     <use xlink:href="#DejaVuSans-6e" x="1674.578125"/>
     <use xlink:href="#DejaVuSans-64" x="1737.957031"/>
     <use xlink:href="#DejaVuSans-65" x="1801.433594"/>
     <use xlink:href="#DejaVuSans-72" x="1862.957031"/>
     <use xlink:href="#DejaVuSans-20" x="1904.070312"/>
     <use xlink:href="#DejaVuSans-64" x="1935.857422"/>
     <use xlink:href="#DejaVuSans-65" x="1999.333984"/>
     <use xlink:href="#DejaVuSans-20" x="2060.857422"/>
     <use xlink:href="#DejaVuSans-78" x="2092.644531"/>
     <use xlink:href="#DejaVuSans-2d" x="2151.824219"/>
     <use xlink:href="#DejaVuSans-61" x="2187.908203"/>
     <use xlink:href="#DejaVuSans-73" x="2249.1875"/>
    </g>
   </g>
   <g id="LineCollection_3">
    <path d="M 136.1664 180.3492 
L 136.1664 168.7068 
" clip-path="url(#p87e33aa5b9)" style="fill: none; stroke: #d3d3d3; stroke-width: 1.5"/>
   </g>
   <g id="LineCollection_4">
    <path d="M 375.8336 180.3492 
L 375.8336 168.7068 
" clip-path="url(#p87e33aa5b9)" style="fill: none; stroke: #d3d3d3; stroke-width: 1.5"/>
   </g>
   <g id="LineCollection_5">
    <path d="M 256 180.3492 
L 256 168.7068 
" clip-path="url(#p87e33aa5b9)" style="fill: none; stroke: #d3d3d3; stroke-width: 1.5"/>
   </g>
   <g id="legend_1">
    <g id="patch_7">
     <path d="M 358.42 64.150125 
L 407.72 64.150125 
Q 409.72 64.150125 409.72 62.150125 
L 409.72 48.472 
Q 409.72 46.472 407.72 46.472 
L 358.42 46.472 
Q 356.42 46.472 356.42 48.472 
L 356.42 62.150125 
Q 356.42 64.150125 358.42 64.150125 
z
" style="fill: #ffffff; opacity: 0.8; stroke: #cccccc; stroke-linejoin: miter"/>
    </g>
    <g id="line2d_2">
     <path d="M 360.42 54.570438 
L 370.42 54.570438 
L 380.42 54.570438 
" style="fill: none; stroke: #00ced1; stroke-width: 1.5; stroke-linecap: square"/>
    </g>
    <g id="text_7">
     <!-- $f(x)$ -->
     <g transform="translate(388.42 58.070438) scale(0.1 -0.1)">
      <defs>
       <path id="DejaVuSans-Oblique-66" d="M 3059 4863 
L 2969 4384 
L 2419 4384 
Q 2106 4384 1964 4261 
Q 1822 4138 1753 3809 
L 1691 3500 
L 2638 3500 
L 2553 3053 
L 1606 3053 
L 1013 0 
L 434 0 
L 1031 3053 
L 481 3053 
L 563 3500 
L 1113 3500 
L 1159 3744 
Q 1278 4363 1576 4613 
Q 1875 4863 2516 4863 
L 3059 4863 
z
" transform="scale(0.015625)"/>
       <path id="DejaVuSans-28" d="M 1984 4856 
Q 1566 4138 1362 3434 
Q 1159 2731 1159 2009 
Q 1159 1288 1364 580 
Q 1569 -128 1984 -844 
L 1484 -844 
Q 1016 -109 783 600 
Q 550 1309 550 2009 
Q 550 2706 781 3412 
Q 1013 4119 1484 4856 
L 1984 4856 
z
" transform="scale(0.015625)"/>
       <path id="DejaVuSans-Oblique-78" d="M 3841 3500 
L 2234 1784 
L 3219 0 
L 2559 0 
L 1819 1388 
L 531 0 
L -166 0 
L 1556 1844 
L 641 3500 
L 1300 3500 
L 1972 2234 
L 3144 3500 
L 3841 3500 
z
" transform="scale(0.015625)"/>
       <path id="DejaVuSans-29" d="M 513 4856 
L 1013 4856 
Q 1481 4119 1714 3412 
Q 1947 2706 1947 2009 
Q 1947 1309 1714 600 
Q 1481 -109 1013 -844 
L 513 -844 
Q 928 -128 1133 580 
Q 1338 1288 1338 2009 
Q 1338 2731 1133 3434 
Q 928 4138 513 4856 
z
" transform="scale(0.015625)"/>
      </defs>
      <use xlink:href="#DejaVuSans-Oblique-66" transform="translate(0 0.015625)"/>
      <use xlink:href="#DejaVuSans-28" transform="translate(35.205078 0.015625)"/>
      <use xlink:href="#DejaVuSans-Oblique-78" transform="translate(74.21875 0.015625)"/>
      <use xlink:href="#DejaVuSans-29" transform="translate(133.398438 0.015625)"/>
     </g>
    </g>
   </g>
  </g>
 </g>
 <defs>
  <clipPath id="p87e33aa5b9">
   <rect x="57.6" y="41.472" width="357.12" height="266.112"/>
  </clipPath>
 </defs>
</svg>
