<?xml version="1.0" encoding="utf-8" standalone="no"?>
<!DOCTYPE svg PUBLIC "-//W3C//DTD SVG 1.1//EN"
  "http://www.w3.org/Graphics/SVG/1.1/DTD/svg11.dtd">
<svg xmlns:xlink="http://www.w3.org/1999/xlink" width="460.8pt" height="345.6pt" viewBox="0 0 460.8 345.6" xmlns="http://www.w3.org/2000/svg" version="1.1">
 <metadata>
  <rdf:RDF xmlns:dc="http://purl.org/dc/elements/1.1/" xmlns:cc="http://creativecommons.org/ns#" xmlns:rdf="http://www.w3.org/1999/02/22-rdf-syntax-ns#">
   <cc:Work>
    <dc:type rdf:resource="http://purl.org/dc/dcmitype/StillImage"/>
    <dc:date>2025-03-13T00:49:17.735501</dc:date>
    <dc:format>image/svg+xml</dc:format>
    <dc:creator>
     <cc:Agent>
      <dc:title>Matplotlib v3.8.3, https://matplotlib.org/</dc:title>
     </cc:Agent>
    </dc:creator>
   </cc:Work>
  </rdf:RDF>
 </metadata>
 <defs>
  <style type="text/css">*{stroke-linejoin: round; stroke-linecap: butt}</style>
 </defs>
 <g id="figure_1">
  <g id="patch_1">
   <path d="M 0 345.6 
L 460.8 345.6 
L 460.8 0 
L 0 0 
L 0 345.6 
z
" style="fill: none"/>
  </g>
  <g id="axes_1">
   <g id="patch_2">
    <path d="M 57.6 307.584 
L 414.72 307.584 
L 414.72 41.472 
L 57.6 41.472 
L 57.6 307.584 
z
" style="fill: none"/>
   </g>
   <g id="LineCollection_1">
    <path d="M 57.6 231.552 
L 414.72 231.552 
" clip-path="url(#p89d686c407)" style="fill: none; stroke: #d3d3d3; stroke-width: 1.5"/>
   </g>
   <g id="LineCollection_2">
    <path d="M 236.16 307.584 
L 236.16 41.472 
" clip-path="url(#p89d686c407)" style="fill: none; stroke: #d3d3d3; stroke-width: 1.5"/>
   </g>
   <g id="matplotlib.axis_1">
    <g id="xtick_1">
     <g id="line2d_1">
      <defs>
       <path id="m2ca8a445c8" d="M 0 0 
L 0 3.5 
" style="stroke: #d3d3d3; stroke-width: 0.8"/>
      </defs>
      <g>
       <use xlink:href="#m2ca8a445c8" x="57.6" y="307.584" style="fill: #d3d3d3; stroke: #d3d3d3; stroke-width: 0.8"/>
      </g>
     </g>
     <g id="text_1">
      <!-- −2.0 -->
      <g style="fill: #d3d3d3" transform="translate(45.458594 322.182437) scale(0.1 -0.1)">
       <defs>
        <path id="DejaVuSans-2212" d="M 678 2272 
L 4684 2272 
L 4684 1741 
L 678 1741 
L 678 2272 
z
" transform="scale(0.015625)"/>
        <path id="DejaVuSans-32" d="M 1228 531 
L 3431 531 
L 3431 0 
L 469 0 
L 469 531 
Q 828 903 1448 1529 
Q 2069 2156 2228 2338 
Q 2531 2678 2651 2914 
Q 2772 3150 2772 3378 
Q 2772 3750 2511 3984 
Q 2250 4219 1831 4219 
Q 1534 4219 1204 4116 
Q 875 4013 500 3803 
L 500 4441 
Q 881 4594 1212 4672 
Q 1544 4750 1819 4750 
Q 2544 4750 2975 4387 
Q 3406 4025 3406 3419 
Q 3406 3131 3298 2873 
Q 3191 2616 2906 2266 
Q 2828 2175 2409 1742 
Q 1991 1309 1228 531 
z
" transform="scale(0.015625)"/>
        <path id="DejaVuSans-2e" d="M 684 794 
L 1344 794 
L 1344 0 
L 684 0 
L 684 794 
z
" transform="scale(0.015625)"/>
        <path id="DejaVuSans-30" d="M 2034 4250 
Q 1547 4250 1301 3770 
Q 1056 3291 1056 2328 
Q 1056 1369 1301 889 
Q 1547 409 2034 409 
Q 2525 409 2770 889 
Q 3016 1369 3016 2328 
Q 3016 3291 2770 3770 
Q 2525 4250 2034 4250 
z
M 2034 4750 
Q 2819 4750 3233 4129 
Q 3647 3509 3647 2328 
Q 3647 1150 3233 529 
Q 2819 -91 2034 -91 
Q 1250 -91 836 529 
Q 422 1150 422 2328 
Q 422 3509 836 4129 
Q 1250 4750 2034 4750 
z
" transform="scale(0.015625)"/>
       </defs>
       <use xlink:href="#DejaVuSans-2212"/>
       <use xlink:href="#DejaVuSans-32" x="83.789062"/>
       <use xlink:href="#DejaVuSans-2e" x="147.412109"/>
       <use xlink:href="#DejaVuSans-30" x="179.199219"/>
      </g>
     </g>
    </g>
    <g id="xtick_2">
     <g id="line2d_2">
      <g>
       <use xlink:href="#m2ca8a445c8" x="102.24" y="307.584" style="fill: #d3d3d3; stroke: #d3d3d3; stroke-width: 0.8"/>
      </g>
     </g>
     <g id="text_2">
      <!-- −1.5 -->
      <g style="fill: #d3d3d3" transform="translate(90.098594 322.182437) scale(0.1 -0.1)">
       <defs>
        <path id="DejaVuSans-31" d="M 794 531 
L 1825 531 
L 1825 4091 
L 703 3866 
L 703 4441 
L 1819 4666 
L 2450 4666 
L 2450 531 
L 3481 531 
L 3481 0 
L 794 0 
L 794 531 
z
" transform="scale(0.015625)"/>
        <path id="DejaVuSans-35" d="M 691 4666 
L 3169 4666 
L 3169 4134 
L 1269 4134 
L 1269 2991 
Q 1406 3038 1543 3061 
Q 1681 3084 1819 3084 
Q 2600 3084 3056 2656 
Q 3513 2228 3513 1497 
Q 3513 744 3044 326 
Q 2575 -91 1722 -91 
Q 1428 -91 1123 -41 
Q 819 9 494 109 
L 494 744 
Q 775 591 1075 516 
Q 1375 441 1709 441 
Q 2250 441 2565 725 
Q 2881 1009 2881 1497 
Q 2881 1984 2565 2268 
Q 2250 2553 1709 2553 
Q 1456 2553 1204 2497 
Q 953 2441 691 2322 
L 691 4666 
z
" transform="scale(0.015625)"/>
       </defs>
       <use xlink:href="#DejaVuSans-2212"/>
       <use xlink:href="#DejaVuSans-31" x="83.789062"/>
       <use xlink:href="#DejaVuSans-2e" x="147.412109"/>
       <use xlink:href="#DejaVuSans-35" x="179.199219"/>
      </g>
     </g>
    </g>
    <g id="xtick_3">
     <g id="line2d_3">
      <g>
       <use xlink:href="#m2ca8a445c8" x="146.88" y="307.584" style="fill: #d3d3d3; stroke: #d3d3d3; stroke-width: 0.8"/>
      </g>
     </g>
     <g id="text_3">
      <!-- −1.0 -->
      <g style="fill: #d3d3d3" transform="translate(134.738594 322.182437) scale(0.1 -0.1)">
       <use xlink:href="#DejaVuSans-2212"/>
       <use xlink:href="#DejaVuSans-31" x="83.789062"/>
       <use xlink:href="#DejaVuSans-2e" x="147.412109"/>
       <use xlink:href="#DejaVuSans-30" x="179.199219"/>
      </g>
     </g>
    </g>
    <g id="xtick_4">
     <g id="line2d_4">
      <g>
       <use xlink:href="#m2ca8a445c8" x="191.52" y="307.584" style="fill: #d3d3d3; stroke: #d3d3d3; stroke-width: 0.8"/>
      </g>
     </g>
     <g id="text_4">
      <!-- −0.5 -->
      <g style="fill: #d3d3d3" transform="translate(179.378594 322.182437) scale(0.1 -0.1)">
       <use xlink:href="#DejaVuSans-2212"/>
       <use xlink:href="#DejaVuSans-30" x="83.789062"/>
       <use xlink:href="#DejaVuSans-2e" x="147.412109"/>
       <use xlink:href="#DejaVuSans-35" x="179.199219"/>
      </g>
     </g>
    </g>
    <g id="xtick_5">
     <g id="line2d_5">
      <g>
       <use xlink:href="#m2ca8a445c8" x="236.16" y="307.584" style="fill: #d3d3d3; stroke: #d3d3d3; stroke-width: 0.8"/>
      </g>
     </g>
     <g id="text_5">
      <!-- 0.0 -->
      <g style="fill: #d3d3d3" transform="translate(228.208438 322.182437) scale(0.1 -0.1)">
       <use xlink:href="#DejaVuSans-30"/>
       <use xlink:href="#DejaVuSans-2e" x="63.623047"/>
       <use xlink:href="#DejaVuSans-30" x="95.410156"/>
      </g>
     </g>
    </g>
    <g id="xtick_6">
     <g id="line2d_6">
      <g>
       <use xlink:href="#m2ca8a445c8" x="280.8" y="307.584" style="fill: #d3d3d3; stroke: #d3d3d3; stroke-width: 0.8"/>
      </g>
     </g>
     <g id="text_6">
      <!-- 0.5 -->
      <g style="fill: #d3d3d3" transform="translate(272.848437 322.182437) scale(0.1 -0.1)">
       <use xlink:href="#DejaVuSans-30"/>
       <use xlink:href="#DejaVuSans-2e" x="63.623047"/>
       <use xlink:href="#DejaVuSans-35" x="95.410156"/>
      </g>
     </g>
    </g>
    <g id="xtick_7">
     <g id="line2d_7">
      <g>
       <use xlink:href="#m2ca8a445c8" x="325.44" y="307.584" style="fill: #d3d3d3; stroke: #d3d3d3; stroke-width: 0.8"/>
      </g>
     </g>
     <g id="text_7">
      <!-- 1.0 -->
      <g style="fill: #d3d3d3" transform="translate(317.488437 322.182437) scale(0.1 -0.1)">
       <use xlink:href="#DejaVuSans-31"/>
       <use xlink:href="#DejaVuSans-2e" x="63.623047"/>
       <use xlink:href="#DejaVuSans-30" x="95.410156"/>
      </g>
     </g>
    </g>
    <g id="xtick_8">
     <g id="line2d_8">
      <g>
       <use xlink:href="#m2ca8a445c8" x="370.08" y="307.584" style="fill: #d3d3d3; stroke: #d3d3d3; stroke-width: 0.8"/>
      </g>
     </g>
     <g id="text_8">
      <!-- 1.5 -->
      <g style="fill: #d3d3d3" transform="translate(362.128438 322.182437) scale(0.1 -0.1)">
       <use xlink:href="#DejaVuSans-31"/>
       <use xlink:href="#DejaVuSans-2e" x="63.623047"/>
       <use xlink:href="#DejaVuSans-35" x="95.410156"/>
      </g>
     </g>
    </g>
    <g id="xtick_9">
     <g id="line2d_9">
      <g>
       <use xlink:href="#m2ca8a445c8" x="414.72" y="307.584" style="fill: #d3d3d3; stroke: #d3d3d3; stroke-width: 0.8"/>
      </g>
     </g>
     <g id="text_9">
      <!-- 2.0 -->
      <g style="fill: #d3d3d3" transform="translate(406.768438 322.182437) scale(0.1 -0.1)">
       <use xlink:href="#DejaVuSans-32"/>
       <use xlink:href="#DejaVuSans-2e" x="63.623047"/>
       <use xlink:href="#DejaVuSans-30" x="95.410156"/>
      </g>
     </g>
    </g>
    <g id="text_10">
     <!-- X-as -->
     <g style="fill: #d3d3d3" transform="translate(225.512344 335.860562) scale(0.1 -0.1)">
      <defs>
       <path id="DejaVuSans-58" d="M 403 4666 
L 1081 4666 
L 2241 2931 
L 3406 4666 
L 4084 4666 
L 2584 2425 
L 4184 0 
L 3506 0 
L 2194 1984 
L 872 0 
L 191 0 
L 1856 2491 
L 403 4666 
z
" transform="scale(0.015625)"/>
       <path id="DejaVuSans-2d" d="M 313 2009 
L 1997 2009 
L 1997 1497 
L 313 1497 
L 313 2009 
z
" transform="scale(0.015625)"/>
       <path id="DejaVuSans-61" d="M 2194 1759 
Q 1497 1759 1228 1600 
Q 959 1441 959 1056 
Q 959 750 1161 570 
Q 1363 391 1709 391 
Q 2188 391 2477 730 
Q 2766 1069 2766 1631 
L 2766 1759 
L 2194 1759 
z
M 3341 1997 
L 3341 0 
L 2766 0 
L 2766 531 
Q 2569 213 2275 61 
Q 1981 -91 1556 -91 
Q 1019 -91 701 211 
Q 384 513 384 1019 
Q 384 1609 779 1909 
Q 1175 2209 1959 2209 
L 2766 2209 
L 2766 2266 
Q 2766 2663 2505 2880 
Q 2244 3097 1772 3097 
Q 1472 3097 1187 3025 
Q 903 2953 641 2809 
L 641 3341 
Q 956 3463 1253 3523 
Q 1550 3584 1831 3584 
Q 2591 3584 2966 3190 
Q 3341 2797 3341 1997 
z
" transform="scale(0.015625)"/>
       <path id="DejaVuSans-73" d="M 2834 3397 
L 2834 2853 
Q 2591 2978 2328 3040 
Q 2066 3103 1784 3103 
Q 1356 3103 1142 2972 
Q 928 2841 928 2578 
Q 928 2378 1081 2264 
Q 1234 2150 1697 2047 
L 1894 2003 
Q 2506 1872 2764 1633 
Q 3022 1394 3022 966 
Q 3022 478 2636 193 
Q 2250 -91 1575 -91 
Q 1294 -91 989 -36 
Q 684 19 347 128 
L 347 722 
Q 666 556 975 473 
Q 1284 391 1588 391 
Q 1994 391 2212 530 
Q 2431 669 2431 922 
Q 2431 1156 2273 1281 
Q 2116 1406 1581 1522 
L 1381 1569 
Q 847 1681 609 1914 
Q 372 2147 372 2553 
Q 372 3047 722 3315 
Q 1072 3584 1716 3584 
Q 2034 3584 2315 3537 
Q 2597 3491 2834 3397 
z
" transform="scale(0.015625)"/>
      </defs>
      <use xlink:href="#DejaVuSans-58"/>
      <use xlink:href="#DejaVuSans-2d" x="63.505859"/>
      <use xlink:href="#DejaVuSans-61" x="99.589844"/>
      <use xlink:href="#DejaVuSans-73" x="160.869141"/>
     </g>
    </g>
   </g>
   <g id="matplotlib.axis_2">
    <g id="ytick_1">
     <g id="line2d_10">
      <defs>
       <path id="md65f527c13" d="M 0 0 
L -3.5 0 
" style="stroke: #d3d3d3; stroke-width: 0.8"/>
      </defs>
      <g>
       <use xlink:href="#md65f527c13" x="57.6" y="307.584" style="fill: #d3d3d3; stroke: #d3d3d3; stroke-width: 0.8"/>
      </g>
     </g>
     <g id="text_11">
      <!-- −2 -->
      <g style="fill: #d3d3d3" transform="translate(35.857813 311.383219) scale(0.1 -0.1)">
       <use xlink:href="#DejaVuSans-2212"/>
       <use xlink:href="#DejaVuSans-32" x="83.789062"/>
      </g>
     </g>
    </g>
    <g id="ytick_2">
     <g id="line2d_11">
      <g>
       <use xlink:href="#md65f527c13" x="57.6" y="269.568" style="fill: #d3d3d3; stroke: #d3d3d3; stroke-width: 0.8"/>
      </g>
     </g>
     <g id="text_12">
      <!-- −1 -->
      <g style="fill: #d3d3d3" transform="translate(35.857813 273.367219) scale(0.1 -0.1)">
       <use xlink:href="#DejaVuSans-2212"/>
       <use xlink:href="#DejaVuSans-31" x="83.789062"/>
      </g>
     </g>
    </g>
    <g id="ytick_3">
     <g id="line2d_12">
      <g>
       <use xlink:href="#md65f527c13" x="57.6" y="231.552" style="fill: #d3d3d3; stroke: #d3d3d3; stroke-width: 0.8"/>
      </g>
     </g>
     <g id="text_13">
      <!-- 0 -->
      <g style="fill: #d3d3d3" transform="translate(44.2375 235.351219) scale(0.1 -0.1)">
       <use xlink:href="#DejaVuSans-30"/>
      </g>
     </g>
    </g>
    <g id="ytick_4">
     <g id="line2d_13">
      <g>
       <use xlink:href="#md65f527c13" x="57.6" y="193.536" style="fill: #d3d3d3; stroke: #d3d3d3; stroke-width: 0.8"/>
      </g>
     </g>
     <g id="text_14">
      <!-- 1 -->
      <g style="fill: #d3d3d3" transform="translate(44.2375 197.335219) scale(0.1 -0.1)">
       <use xlink:href="#DejaVuSans-31"/>
      </g>
     </g>
    </g>
    <g id="ytick_5">
     <g id="line2d_14">
      <g>
       <use xlink:href="#md65f527c13" x="57.6" y="155.52" style="fill: #d3d3d3; stroke: #d3d3d3; stroke-width: 0.8"/>
      </g>
     </g>
     <g id="text_15">
      <!-- 2 -->
      <g style="fill: #d3d3d3" transform="translate(44.2375 159.319219) scale(0.1 -0.1)">
       <use xlink:href="#DejaVuSans-32"/>
      </g>
     </g>
    </g>
    <g id="ytick_6">
     <g id="line2d_15">
      <g>
       <use xlink:href="#md65f527c13" x="57.6" y="117.504" style="fill: #d3d3d3; stroke: #d3d3d3; stroke-width: 0.8"/>
      </g>
     </g>
     <g id="text_16">
      <!-- 3 -->
      <g style="fill: #d3d3d3" transform="translate(44.2375 121.303219) scale(0.1 -0.1)">
       <defs>
        <path id="DejaVuSans-33" d="M 2597 2516 
Q 3050 2419 3304 2112 
Q 3559 1806 3559 1356 
Q 3559 666 3084 287 
Q 2609 -91 1734 -91 
Q 1441 -91 1130 -33 
Q 819 25 488 141 
L 488 750 
Q 750 597 1062 519 
Q 1375 441 1716 441 
Q 2309 441 2620 675 
Q 2931 909 2931 1356 
Q 2931 1769 2642 2001 
Q 2353 2234 1838 2234 
L 1294 2234 
L 1294 2753 
L 1863 2753 
Q 2328 2753 2575 2939 
Q 2822 3125 2822 3475 
Q 2822 3834 2567 4026 
Q 2313 4219 1838 4219 
Q 1578 4219 1281 4162 
Q 984 4106 628 3988 
L 628 4550 
Q 988 4650 1302 4700 
Q 1616 4750 1894 4750 
Q 2613 4750 3031 4423 
Q 3450 4097 3450 3541 
Q 3450 3153 3228 2886 
Q 3006 2619 2597 2516 
z
" transform="scale(0.015625)"/>
       </defs>
       <use xlink:href="#DejaVuSans-33"/>
      </g>
     </g>
    </g>
    <g id="ytick_7">
     <g id="line2d_16">
      <g>
       <use xlink:href="#md65f527c13" x="57.6" y="79.488" style="fill: #d3d3d3; stroke: #d3d3d3; stroke-width: 0.8"/>
      </g>
     </g>
     <g id="text_17">
      <!-- 4 -->
      <g style="fill: #d3d3d3" transform="translate(44.2375 83.287219) scale(0.1 -0.1)">
       <defs>
        <path id="DejaVuSans-34" d="M 2419 4116 
L 825 1625 
L 2419 1625 
L 2419 4116 
z
M 2253 4666 
L 3047 4666 
L 3047 1625 
L 3713 1625 
L 3713 1100 
L 3047 1100 
L 3047 0 
L 2419 0 
L 2419 1100 
L 313 1100 
L 313 1709 
L 2253 4666 
z
" transform="scale(0.015625)"/>
       </defs>
       <use xlink:href="#DejaVuSans-34"/>
      </g>
     </g>
    </g>
    <g id="ytick_8">
     <g id="line2d_17">
      <g>
       <use xlink:href="#md65f527c13" x="57.6" y="41.472" style="fill: #d3d3d3; stroke: #d3d3d3; stroke-width: 0.8"/>
      </g>
     </g>
     <g id="text_18">
      <!-- 5 -->
      <g style="fill: #d3d3d3" transform="translate(44.2375 45.271219) scale(0.1 -0.1)">
       <use xlink:href="#DejaVuSans-35"/>
      </g>
     </g>
    </g>
    <g id="text_19">
     <!-- Y-as -->
     <g style="fill: #d3d3d3" transform="translate(29.778125 184.460813) rotate(-90) scale(0.1 -0.1)">
      <defs>
       <path id="DejaVuSans-59" d="M -13 4666 
L 666 4666 
L 1959 2747 
L 3244 4666 
L 3922 4666 
L 2272 2222 
L 2272 0 
L 1638 0 
L 1638 2222 
L -13 4666 
z
" transform="scale(0.015625)"/>
      </defs>
      <use xlink:href="#DejaVuSans-59"/>
      <use xlink:href="#DejaVuSans-2d" x="49.208984"/>
      <use xlink:href="#DejaVuSans-61" x="85.292969"/>
      <use xlink:href="#DejaVuSans-73" x="146.572266"/>
     </g>
    </g>
   </g>
   <g id="line2d_18">
    <path d="M 57.6 269.568 
L 64.7424 257.646182 
L 70.992 247.61376 
L 77.2416 237.953894 
L 83.4912 228.666586 
L 89.7408 219.751834 
L 95.9904 211.209638 
L 102.24 203.04 
L 108.4896 195.242918 
L 114.7392 187.818394 
L 120.9888 180.766426 
L 127.2384 174.087014 
L 133.488 167.78016 
L 138.8448 162.67081 
L 144.2016 157.835174 
L 149.5584 153.273254 
L 154.9152 148.98505 
L 160.272 144.97056 
L 165.6288 141.229786 
L 170.9856 137.762726 
L 176.3424 134.569382 
L 181.6992 131.649754 
L 187.056 129.00384 
L 192.4128 126.631642 
L 197.7696 124.533158 
L 203.1264 122.70839 
L 208.4832 121.157338 
L 213.84 119.88 
L 218.304 119.02464 
L 222.768 118.35936 
L 227.232 117.88416 
L 231.696 117.59904 
L 236.16 117.504 
L 240.624 117.59904 
L 245.088 117.88416 
L 249.552 118.35936 
L 254.016 119.02464 
L 258.48 119.88 
L 262.944 120.92544 
L 268.3008 122.430874 
L 273.6576 124.210022 
L 279.0144 126.262886 
L 284.3712 128.589466 
L 289.728 131.18976 
L 295.0848 134.06377 
L 300.4416 137.211494 
L 305.7984 140.632934 
L 311.1552 144.32809 
L 316.512 148.29696 
L 321.8688 152.539546 
L 327.2256 157.055846 
L 332.5824 161.845862 
L 337.9392 166.909594 
L 343.296 172.24704 
L 348.6528 177.858202 
L 354.9024 184.750502 
L 361.152 192.01536 
L 367.4016 199.652774 
L 373.6512 207.662746 
L 379.9008 216.045274 
L 386.1504 224.800358 
L 392.4 233.928 
L 398.6496 243.428198 
L 404.8992 253.300954 
L 411.1488 263.546266 
L 413.8272 268.051162 
L 413.8272 268.051162 
" clip-path="url(#p89d686c407)" style="fill: none; stroke: #00ced1; stroke-width: 1.5; stroke-linecap: square"/>
   </g>
   <g id="line2d_19">
    <path d="M 57.6 41.472 
L 64.7424 53.393818 
L 70.992 63.42624 
L 77.2416 73.086106 
L 83.4912 82.373414 
L 89.7408 91.288166 
L 95.9904 99.830362 
L 102.24 108 
L 108.4896 115.797082 
L 114.7392 123.221606 
L 120.9888 130.273574 
L 127.2384 136.952986 
L 133.488 143.25984 
L 138.8448 148.36919 
L 144.2016 153.204826 
L 149.5584 157.766746 
L 154.9152 162.05495 
L 160.272 166.06944 
L 165.6288 169.810214 
L 170.9856 173.277274 
L 176.3424 176.470618 
L 181.6992 179.390246 
L 187.056 182.03616 
L 192.4128 184.408358 
L 197.7696 186.506842 
L 203.1264 188.33161 
L 208.4832 189.882662 
L 213.84 191.16 
L 218.304 192.01536 
L 222.768 192.68064 
L 227.232 193.15584 
L 231.696 193.44096 
L 236.16 193.536 
L 240.624 193.44096 
L 245.088 193.15584 
L 249.552 192.68064 
L 254.016 192.01536 
L 258.48 191.16 
L 262.944 190.11456 
L 268.3008 188.609126 
L 273.6576 186.829978 
L 279.0144 184.777114 
L 284.3712 182.450534 
L 289.728 179.85024 
L 295.0848 176.97623 
L 300.4416 173.828506 
L 305.7984 170.407066 
L 311.1552 166.71191 
L 316.512 162.74304 
L 321.8688 158.500454 
L 327.2256 153.984154 
L 332.5824 149.194138 
L 337.9392 144.130406 
L 343.296 138.79296 
L 348.6528 133.181798 
L 354.9024 126.289498 
L 361.152 119.02464 
L 367.4016 111.387226 
L 373.6512 103.377254 
L 379.9008 94.994726 
L 386.1504 86.239642 
L 392.4 77.112 
L 398.6496 67.611802 
L 404.8992 57.739046 
L 411.1488 47.493734 
L 413.8272 42.988838 
L 413.8272 42.988838 
" clip-path="url(#p89d686c407)" style="fill: none; stroke: #dc143c; stroke-width: 1.5; stroke-linecap: square"/>
   </g>
   <g id="patch_3">
    <path d="M 57.6 307.584 
L 57.6 41.472 
" style="fill: none; stroke: #d3d3d3; stroke-width: 0.8; stroke-linejoin: miter; stroke-linecap: square"/>
   </g>
   <g id="patch_4">
    <path d="M 414.72 307.584 
L 414.72 41.472 
" style="fill: none; stroke: #d3d3d3; stroke-width: 0.8; stroke-linejoin: miter; stroke-linecap: square"/>
   </g>
   <g id="patch_5">
    <path d="M 57.6 307.584 
L 414.72 307.584 
" style="fill: none; stroke: #d3d3d3; stroke-width: 0.8; stroke-linejoin: miter; stroke-linecap: square"/>
   </g>
   <g id="patch_6">
    <path d="M 57.6 41.472 
L 414.72 41.472 
" style="fill: none; stroke: #d3d3d3; stroke-width: 0.8; stroke-linejoin: miter; stroke-linecap: square"/>
   </g>
   <g id="PolyCollection_1">
    <defs>
     <path id="m84bc8222a6" d="M 146.88 -190.08 
L 146.88 -190.08 
L 147.7728 -190.836518 
L 148.6656 -191.585434 
L 149.5584 -192.326746 
L 150.4512 -193.060454 
L 151.344 -193.78656 
L 152.2368 -194.505062 
L 153.1296 -195.215962 
L 154.0224 -195.919258 
L 154.9152 -196.61495 
L 155.808 -197.30304 
L 156.7008 -197.983526 
L 157.5936 -198.65641 
L 158.4864 -199.32169 
L 159.3792 -199.979366 
L 160.272 -200.62944 
L 161.1648 -201.27191 
L 162.0576 -201.906778 
L 162.9504 -202.534042 
L 163.8432 -203.153702 
L 164.736 -203.76576 
L 165.6288 -204.370214 
L 166.5216 -204.967066 
L 167.4144 -205.556314 
L 168.3072 -206.137958 
L 169.2 -206.712 
L 170.0928 -207.278438 
L 170.9856 -207.837274 
L 171.8784 -208.388506 
L 172.7712 -208.932134 
L 173.664 -209.46816 
L 174.5568 -209.996582 
L 175.4496 -210.517402 
L 176.3424 -211.030618 
L 177.2352 -211.53623 
L 178.128 -212.03424 
L 179.0208 -212.524646 
L 179.9136 -213.00745 
L 180.8064 -213.48265 
L 181.6992 -213.950246 
L 182.592 -214.41024 
L 183.4848 -214.86263 
L 184.3776 -215.307418 
L 185.2704 -215.744602 
L 186.1632 -216.174182 
L 187.056 -216.59616 
L 187.9488 -217.010534 
L 188.8416 -217.417306 
L 189.7344 -217.816474 
L 190.6272 -218.208038 
L 191.52 -218.592 
L 192.4128 -218.968358 
L 193.3056 -219.337114 
L 194.1984 -219.698266 
L 195.0912 -220.051814 
L 195.984 -220.39776 
L 196.8768 -220.736102 
L 197.7696 -221.066842 
L 198.6624 -221.389978 
L 199.5552 -221.70551 
L 200.448 -222.01344 
L 201.3408 -222.313766 
L 202.2336 -222.60649 
L 203.1264 -222.89161 
L 204.0192 -223.169126 
L 204.912 -223.43904 
L 205.8048 -223.70135 
L 206.6976 -223.956058 
L 207.5904 -224.203162 
L 208.4832 -224.442662 
L 209.376 -224.67456 
L 210.2688 -224.898854 
L 211.1616 -225.115546 
L 212.0544 -225.324634 
L 212.9472 -225.526118 
L 213.84 -225.72 
L 214.7328 -225.906278 
L 215.6256 -226.084954 
L 216.5184 -226.256026 
L 217.4112 -226.419494 
L 218.304 -226.57536 
L 219.1968 -226.723622 
L 220.0896 -226.864282 
L 220.9824 -226.997338 
L 221.8752 -227.12279 
L 222.768 -227.24064 
L 223.6608 -227.350886 
L 224.5536 -227.45353 
L 225.4464 -227.54857 
L 226.3392 -227.636006 
L 227.232 -227.71584 
L 228.1248 -227.78807 
L 229.0176 -227.852698 
L 229.9104 -227.909722 
L 230.8032 -227.959142 
L 231.696 -228.00096 
L 232.5888 -228.035174 
L 233.4816 -228.061786 
L 234.3744 -228.080794 
L 235.2672 -228.092198 
L 236.16 -228.096 
L 237.0528 -228.092198 
L 237.9456 -228.080794 
L 238.8384 -228.061786 
L 239.7312 -228.035174 
L 240.624 -228.00096 
L 241.5168 -227.959142 
L 242.4096 -227.909722 
L 243.3024 -227.852698 
L 244.1952 -227.78807 
L 245.088 -227.71584 
L 245.9808 -227.636006 
L 246.8736 -227.54857 
L 247.7664 -227.45353 
L 248.6592 -227.350886 
L 249.552 -227.24064 
L 250.4448 -227.12279 
L 251.3376 -226.997338 
L 252.2304 -226.864282 
L 253.1232 -226.723622 
L 254.016 -226.57536 
L 254.9088 -226.419494 
L 255.8016 -226.256026 
L 256.6944 -226.084954 
L 257.5872 -225.906278 
L 258.48 -225.72 
L 259.3728 -225.526118 
L 260.2656 -225.324634 
L 261.1584 -225.115546 
L 262.0512 -224.898854 
L 262.944 -224.67456 
L 263.8368 -224.442662 
L 264.7296 -224.203162 
L 265.6224 -223.956058 
L 266.5152 -223.70135 
L 267.408 -223.43904 
L 268.3008 -223.169126 
L 269.1936 -222.89161 
L 270.0864 -222.60649 
L 270.9792 -222.313766 
L 271.872 -222.01344 
L 272.7648 -221.70551 
L 273.6576 -221.389978 
L 274.5504 -221.066842 
L 275.4432 -220.736102 
L 276.336 -220.39776 
L 277.2288 -220.051814 
L 278.1216 -219.698266 
L 279.0144 -219.337114 
L 279.9072 -218.968358 
L 280.8 -218.592 
L 281.6928 -218.208038 
L 282.5856 -217.816474 
L 283.4784 -217.417306 
L 284.3712 -217.010534 
L 285.264 -216.59616 
L 286.1568 -216.174182 
L 287.0496 -215.744602 
L 287.9424 -215.307418 
L 288.8352 -214.86263 
L 289.728 -214.41024 
L 290.6208 -213.950246 
L 291.5136 -213.48265 
L 292.4064 -213.00745 
L 293.2992 -212.524646 
L 294.192 -212.03424 
L 295.0848 -211.53623 
L 295.9776 -211.030618 
L 296.8704 -210.517402 
L 297.7632 -209.996582 
L 298.656 -209.46816 
L 299.5488 -208.932134 
L 300.4416 -208.388506 
L 301.3344 -207.837274 
L 302.2272 -207.278438 
L 303.12 -206.712 
L 304.0128 -206.137958 
L 304.9056 -205.556314 
L 305.7984 -204.967066 
L 306.6912 -204.370214 
L 307.584 -203.76576 
L 308.4768 -203.153702 
L 309.3696 -202.534042 
L 310.2624 -201.906778 
L 311.1552 -201.27191 
L 312.048 -200.62944 
L 312.9408 -199.979366 
L 313.8336 -199.32169 
L 314.7264 -198.65641 
L 315.6192 -197.983526 
L 316.512 -197.30304 
L 317.4048 -196.61495 
L 318.2976 -195.919258 
L 319.1904 -195.215962 
L 320.0832 -194.505062 
L 320.976 -193.78656 
L 321.8688 -193.060454 
L 322.7616 -192.326746 
L 323.6544 -191.585434 
L 324.5472 -190.836518 
L 324.5472 -189.323482 
L 324.5472 -189.323482 
L 323.6544 -188.574566 
L 322.7616 -187.833254 
L 321.8688 -187.099546 
L 320.976 -186.37344 
L 320.0832 -185.654938 
L 319.1904 -184.944038 
L 318.2976 -184.240742 
L 317.4048 -183.54505 
L 316.512 -182.85696 
L 315.6192 -182.176474 
L 314.7264 -181.50359 
L 313.8336 -180.83831 
L 312.9408 -180.180634 
L 312.048 -179.53056 
L 311.1552 -178.88809 
L 310.2624 -178.253222 
L 309.3696 -177.625958 
L 308.4768 -177.006298 
L 307.584 -176.39424 
L 306.6912 -175.789786 
L 305.7984 -175.192934 
L 304.9056 -174.603686 
L 304.0128 -174.022042 
L 303.12 -173.448 
L 302.2272 -172.881562 
L 301.3344 -172.322726 
L 300.4416 -171.771494 
L 299.5488 -171.227866 
L 298.656 -170.69184 
L 297.7632 -170.163418 
L 296.8704 -169.642598 
L 295.9776 -169.129382 
L 295.0848 -168.62377 
L 294.192 -168.12576 
L 293.2992 -167.635354 
L 292.4064 -167.15255 
L 291.5136 -166.67735 
L 290.6208 -166.209754 
L 289.728 -165.74976 
L 288.8352 -165.29737 
L 287.9424 -164.852582 
L 287.0496 -164.415398 
L 286.1568 -163.985818 
L 285.264 -163.56384 
L 284.3712 -163.149466 
L 283.4784 -162.742694 
L 282.5856 -162.343526 
L 281.6928 -161.951962 
L 280.8 -161.568 
L 279.9072 -161.191642 
L 279.0144 -160.822886 
L 278.1216 -160.461734 
L 277.2288 -160.108186 
L 276.336 -159.76224 
L 275.4432 -159.423898 
L 274.5504 -159.093158 
L 273.6576 -158.770022 
L 272.7648 -158.45449 
L 271.872 -158.14656 
L 270.9792 -157.846234 
L 270.0864 -157.55351 
L 269.1936 -157.26839 
L 268.3008 -156.990874 
L 267.408 -156.72096 
L 266.5152 -156.45865 
L 265.6224 -156.203942 
L 264.7296 -155.956838 
L 263.8368 -155.717338 
L 262.944 -155.48544 
L 262.0512 -155.261146 
L 261.1584 -155.044454 
L 260.2656 -154.835366 
L 259.3728 -154.633882 
L 258.48 -154.44 
L 257.5872 -154.253722 
L 256.6944 -154.075046 
L 255.8016 -153.903974 
L 254.9088 -153.740506 
L 254.016 -153.58464 
L 253.1232 -153.436378 
L 252.2304 -153.295718 
L 251.3376 -153.162662 
L 250.4448 -153.03721 
L 249.552 -152.91936 
L 248.6592 -152.809114 
L 247.7664 -152.70647 
L 246.8736 -152.61143 
L 245.9808 -152.523994 
L 245.088 -152.44416 
L 244.1952 -152.37193 
L 243.3024 -152.307302 
L 242.4096 -152.250278 
L 241.5168 -152.200858 
L 240.624 -152.15904 
L 239.7312 -152.124826 
L 238.8384 -152.098214 
L 237.9456 -152.079206 
L 237.0528 -152.067802 
L 236.16 -152.064 
L 235.2672 -152.067802 
L 234.3744 -152.079206 
L 233.4816 -152.098214 
L 232.5888 -152.124826 
L 231.696 -152.15904 
L 230.8032 -152.200858 
L 229.9104 -152.250278 
L 229.0176 -152.307302 
L 228.1248 -152.37193 
L 227.232 -152.44416 
L 226.3392 -152.523994 
L 225.4464 -152.61143 
L 224.5536 -152.70647 
L 223.6608 -152.809114 
L 222.768 -152.91936 
L 221.8752 -153.03721 
L 220.9824 -153.162662 
L 220.0896 -153.295718 
L 219.1968 -153.436378 
L 218.304 -153.58464 
L 217.4112 -153.740506 
L 216.5184 -153.903974 
L 215.6256 -154.075046 
L 214.7328 -154.253722 
L 213.84 -154.44 
L 212.9472 -154.633882 
L 212.0544 -154.835366 
L 211.1616 -155.044454 
L 210.2688 -155.261146 
L 209.376 -155.48544 
L 208.4832 -155.717338 
L 207.5904 -155.956838 
L 206.6976 -156.203942 
L 205.8048 -156.45865 
L 204.912 -156.72096 
L 204.0192 -156.990874 
L 203.1264 -157.26839 
L 202.2336 -157.55351 
L 201.3408 -157.846234 
L 200.448 -158.14656 
L 199.5552 -158.45449 
L 198.6624 -158.770022 
L 197.7696 -159.093158 
L 196.8768 -159.423898 
L 195.984 -159.76224 
L 195.0912 -160.108186 
L 194.1984 -160.461734 
L 193.3056 -160.822886 
L 192.4128 -161.191642 
L 191.52 -161.568 
L 190.6272 -161.951962 
L 189.7344 -162.343526 
L 188.8416 -162.742694 
L 187.9488 -163.149466 
L 187.056 -163.56384 
L 186.1632 -163.985818 
L 185.2704 -164.415398 
L 184.3776 -164.852582 
L 183.4848 -165.29737 
L 182.592 -165.74976 
L 181.6992 -166.209754 
L 180.8064 -166.67735 
L 179.9136 -167.15255 
L 179.0208 -167.635354 
L 178.128 -168.12576 
L 177.2352 -168.62377 
L 176.3424 -169.129382 
L 175.4496 -169.642598 
L 174.5568 -170.163418 
L 173.664 -170.69184 
L 172.7712 -171.227866 
L 171.8784 -171.771494 
L 170.9856 -172.322726 
L 170.0928 -172.881562 
L 169.2 -173.448 
L 168.3072 -174.022042 
L 167.4144 -174.603686 
L 166.5216 -175.192934 
L 165.6288 -175.789786 
L 164.736 -176.39424 
L 163.8432 -177.006298 
L 162.9504 -177.625958 
L 162.0576 -178.253222 
L 161.1648 -178.88809 
L 160.272 -179.53056 
L 159.3792 -180.180634 
L 158.4864 -180.83831 
L 157.5936 -181.50359 
L 156.7008 -182.176474 
L 155.808 -182.85696 
L 154.9152 -183.54505 
L 154.0224 -184.240742 
L 153.1296 -184.944038 
L 152.2368 -185.654938 
L 151.344 -186.37344 
L 150.4512 -187.099546 
L 149.5584 -187.833254 
L 148.6656 -188.574566 
L 147.7728 -189.323482 
L 146.88 -190.08 
z
" style="stroke: #9400d3; stroke-opacity: 0.7"/>
    </defs>
    <g clip-path="url(#p89d686c407)">
     <use xlink:href="#m84bc8222a6" x="0" y="345.6" style="fill: #9400d3; fill-opacity: 0.7; stroke: #9400d3; stroke-opacity: 0.7"/>
    </g>
   </g>
   <g id="text_20">
    <!-- $V$ -->
    <g style="fill: #ffffff" transform="translate(258.48 163.1232) scale(0.1728 -0.1728)">
     <defs>
      <path id="DejaVuSans-Oblique-56" d="M 1319 0 
L 500 4666 
L 1119 4666 
L 1797 653 
L 4063 4666 
L 4750 4666 
L 2053 0 
L 1319 0 
z
" transform="scale(0.015625)"/>
     </defs>
     <use xlink:href="#DejaVuSans-Oblique-56" transform="translate(0 0.09375)"/>
    </g>
   </g>
   <g id="text_21">
    <!-- Opp tussen twee functies wentelen om x-as (2D) -->
    <g style="fill: #d3d3d3" transform="translate(89.314687 35.472) scale(0.12 -0.12)">
     <defs>
      <path id="DejaVuSans-4f" d="M 2522 4238 
Q 1834 4238 1429 3725 
Q 1025 3213 1025 2328 
Q 1025 1447 1429 934 
Q 1834 422 2522 422 
Q 3209 422 3611 934 
Q 4013 1447 4013 2328 
Q 4013 3213 3611 3725 
Q 3209 4238 2522 4238 
z
M 2522 4750 
Q 3503 4750 4090 4092 
Q 4678 3434 4678 2328 
Q 4678 1225 4090 567 
Q 3503 -91 2522 -91 
Q 1538 -91 948 565 
Q 359 1222 359 2328 
Q 359 3434 948 4092 
Q 1538 4750 2522 4750 
z
" transform="scale(0.015625)"/>
      <path id="DejaVuSans-70" d="M 1159 525 
L 1159 -1331 
L 581 -1331 
L 581 3500 
L 1159 3500 
L 1159 2969 
Q 1341 3281 1617 3432 
Q 1894 3584 2278 3584 
Q 2916 3584 3314 3078 
Q 3713 2572 3713 1747 
Q 3713 922 3314 415 
Q 2916 -91 2278 -91 
Q 1894 -91 1617 61 
Q 1341 213 1159 525 
z
M 3116 1747 
Q 3116 2381 2855 2742 
Q 2594 3103 2138 3103 
Q 1681 3103 1420 2742 
Q 1159 2381 1159 1747 
Q 1159 1113 1420 752 
Q 1681 391 2138 391 
Q 2594 391 2855 752 
Q 3116 1113 3116 1747 
z
" transform="scale(0.015625)"/>
      <path id="DejaVuSans-20" transform="scale(0.015625)"/>
      <path id="DejaVuSans-74" d="M 1172 4494 
L 1172 3500 
L 2356 3500 
L 2356 3053 
L 1172 3053 
L 1172 1153 
Q 1172 725 1289 603 
Q 1406 481 1766 481 
L 2356 481 
L 2356 0 
L 1766 0 
Q 1100 0 847 248 
Q 594 497 594 1153 
L 594 3053 
L 172 3053 
L 172 3500 
L 594 3500 
L 594 4494 
L 1172 4494 
z
" transform="scale(0.015625)"/>
      <path id="DejaVuSans-75" d="M 544 1381 
L 544 3500 
L 1119 3500 
L 1119 1403 
Q 1119 906 1312 657 
Q 1506 409 1894 409 
Q 2359 409 2629 706 
Q 2900 1003 2900 1516 
L 2900 3500 
L 3475 3500 
L 3475 0 
L 2900 0 
L 2900 538 
Q 2691 219 2414 64 
Q 2138 -91 1772 -91 
Q 1169 -91 856 284 
Q 544 659 544 1381 
z
M 1991 3584 
L 1991 3584 
z
" transform="scale(0.015625)"/>
      <path id="DejaVuSans-65" d="M 3597 1894 
L 3597 1613 
L 953 1613 
Q 991 1019 1311 708 
Q 1631 397 2203 397 
Q 2534 397 2845 478 
Q 3156 559 3463 722 
L 3463 178 
Q 3153 47 2828 -22 
Q 2503 -91 2169 -91 
Q 1331 -91 842 396 
Q 353 884 353 1716 
Q 353 2575 817 3079 
Q 1281 3584 2069 3584 
Q 2775 3584 3186 3129 
Q 3597 2675 3597 1894 
z
M 3022 2063 
Q 3016 2534 2758 2815 
Q 2500 3097 2075 3097 
Q 1594 3097 1305 2825 
Q 1016 2553 972 2059 
L 3022 2063 
z
" transform="scale(0.015625)"/>
      <path id="DejaVuSans-6e" d="M 3513 2113 
L 3513 0 
L 2938 0 
L 2938 2094 
Q 2938 2591 2744 2837 
Q 2550 3084 2163 3084 
Q 1697 3084 1428 2787 
Q 1159 2491 1159 1978 
L 1159 0 
L 581 0 
L 581 3500 
L 1159 3500 
L 1159 2956 
Q 1366 3272 1645 3428 
Q 1925 3584 2291 3584 
Q 2894 3584 3203 3211 
Q 3513 2838 3513 2113 
z
" transform="scale(0.015625)"/>
      <path id="DejaVuSans-77" d="M 269 3500 
L 844 3500 
L 1563 769 
L 2278 3500 
L 2956 3500 
L 3675 769 
L 4391 3500 
L 4966 3500 
L 4050 0 
L 3372 0 
L 2619 2869 
L 1863 0 
L 1184 0 
L 269 3500 
z
" transform="scale(0.015625)"/>
      <path id="DejaVuSans-66" d="M 2375 4863 
L 2375 4384 
L 1825 4384 
Q 1516 4384 1395 4259 
Q 1275 4134 1275 3809 
L 1275 3500 
L 2222 3500 
L 2222 3053 
L 1275 3053 
L 1275 0 
L 697 0 
L 697 3053 
L 147 3053 
L 147 3500 
L 697 3500 
L 697 3744 
Q 697 4328 969 4595 
Q 1241 4863 1831 4863 
L 2375 4863 
z
" transform="scale(0.015625)"/>
      <path id="DejaVuSans-63" d="M 3122 3366 
L 3122 2828 
Q 2878 2963 2633 3030 
Q 2388 3097 2138 3097 
Q 1578 3097 1268 2742 
Q 959 2388 959 1747 
Q 959 1106 1268 751 
Q 1578 397 2138 397 
Q 2388 397 2633 464 
Q 2878 531 3122 666 
L 3122 134 
Q 2881 22 2623 -34 
Q 2366 -91 2075 -91 
Q 1284 -91 818 406 
Q 353 903 353 1747 
Q 353 2603 823 3093 
Q 1294 3584 2113 3584 
Q 2378 3584 2631 3529 
Q 2884 3475 3122 3366 
z
" transform="scale(0.015625)"/>
      <path id="DejaVuSans-69" d="M 603 3500 
L 1178 3500 
L 1178 0 
L 603 0 
L 603 3500 
z
M 603 4863 
L 1178 4863 
L 1178 4134 
L 603 4134 
L 603 4863 
z
" transform="scale(0.015625)"/>
      <path id="DejaVuSans-6c" d="M 603 4863 
L 1178 4863 
L 1178 0 
L 603 0 
L 603 4863 
z
" transform="scale(0.015625)"/>
      <path id="DejaVuSans-6f" d="M 1959 3097 
Q 1497 3097 1228 2736 
Q 959 2375 959 1747 
Q 959 1119 1226 758 
Q 1494 397 1959 397 
Q 2419 397 2687 759 
Q 2956 1122 2956 1747 
Q 2956 2369 2687 2733 
Q 2419 3097 1959 3097 
z
M 1959 3584 
Q 2709 3584 3137 3096 
Q 3566 2609 3566 1747 
Q 3566 888 3137 398 
Q 2709 -91 1959 -91 
Q 1206 -91 779 398 
Q 353 888 353 1747 
Q 353 2609 779 3096 
Q 1206 3584 1959 3584 
z
" transform="scale(0.015625)"/>
      <path id="DejaVuSans-6d" d="M 3328 2828 
Q 3544 3216 3844 3400 
Q 4144 3584 4550 3584 
Q 5097 3584 5394 3201 
Q 5691 2819 5691 2113 
L 5691 0 
L 5113 0 
L 5113 2094 
Q 5113 2597 4934 2840 
Q 4756 3084 4391 3084 
Q 3944 3084 3684 2787 
Q 3425 2491 3425 1978 
L 3425 0 
L 2847 0 
L 2847 2094 
Q 2847 2600 2669 2842 
Q 2491 3084 2119 3084 
Q 1678 3084 1418 2786 
Q 1159 2488 1159 1978 
L 1159 0 
L 581 0 
L 581 3500 
L 1159 3500 
L 1159 2956 
Q 1356 3278 1631 3431 
Q 1906 3584 2284 3584 
Q 2666 3584 2933 3390 
Q 3200 3197 3328 2828 
z
" transform="scale(0.015625)"/>
      <path id="DejaVuSans-78" d="M 3513 3500 
L 2247 1797 
L 3578 0 
L 2900 0 
L 1881 1375 
L 863 0 
L 184 0 
L 1544 1831 
L 300 3500 
L 978 3500 
L 1906 2253 
L 2834 3500 
L 3513 3500 
z
" transform="scale(0.015625)"/>
      <path id="DejaVuSans-28" d="M 1984 4856 
Q 1566 4138 1362 3434 
Q 1159 2731 1159 2009 
Q 1159 1288 1364 580 
Q 1569 -128 1984 -844 
L 1484 -844 
Q 1016 -109 783 600 
Q 550 1309 550 2009 
Q 550 2706 781 3412 
Q 1013 4119 1484 4856 
L 1984 4856 
z
" transform="scale(0.015625)"/>
      <path id="DejaVuSans-44" d="M 1259 4147 
L 1259 519 
L 2022 519 
Q 2988 519 3436 956 
Q 3884 1394 3884 2338 
Q 3884 3275 3436 3711 
Q 2988 4147 2022 4147 
L 1259 4147 
z
M 628 4666 
L 1925 4666 
Q 3281 4666 3915 4102 
Q 4550 3538 4550 2338 
Q 4550 1131 3912 565 
Q 3275 0 1925 0 
L 628 0 
L 628 4666 
z
" transform="scale(0.015625)"/>
      <path id="DejaVuSans-29" d="M 513 4856 
L 1013 4856 
Q 1481 4119 1714 3412 
Q 1947 2706 1947 2009 
Q 1947 1309 1714 600 
Q 1481 -109 1013 -844 
L 513 -844 
Q 928 -128 1133 580 
Q 1338 1288 1338 2009 
Q 1338 2731 1133 3434 
Q 928 4138 513 4856 
z
" transform="scale(0.015625)"/>
     </defs>
     <use xlink:href="#DejaVuSans-4f"/>
     <use xlink:href="#DejaVuSans-70" x="78.710938"/>
     <use xlink:href="#DejaVuSans-70" x="142.1875"/>
     <use xlink:href="#DejaVuSans-20" x="205.664062"/>
     <use xlink:href="#DejaVuSans-74" x="237.451172"/>
     <use xlink:href="#DejaVuSans-75" x="276.660156"/>
     <use xlink:href="#DejaVuSans-73" x="340.039062"/>
     <use xlink:href="#DejaVuSans-73" x="392.138672"/>
     <use xlink:href="#DejaVuSans-65" x="444.238281"/>
     <use xlink:href="#DejaVuSans-6e" x="505.761719"/>
     <use xlink:href="#DejaVuSans-20" x="569.140625"/>
     <use xlink:href="#DejaVuSans-74" x="600.927734"/>
     <use xlink:href="#DejaVuSans-77" x="640.136719"/>
     <use xlink:href="#DejaVuSans-65" x="721.923828"/>
     <use xlink:href="#DejaVuSans-65" x="783.447266"/>
     <use xlink:href="#DejaVuSans-20" x="844.970703"/>
     <use xlink:href="#DejaVuSans-66" x="876.757812"/>
     <use xlink:href="#DejaVuSans-75" x="911.962891"/>
     <use xlink:href="#DejaVuSans-6e" x="975.341797"/>
     <use xlink:href="#DejaVuSans-63" x="1038.720703"/>
     <use xlink:href="#DejaVuSans-74" x="1093.701172"/>
     <use xlink:href="#DejaVuSans-69" x="1132.910156"/>
     <use xlink:href="#DejaVuSans-65" x="1160.693359"/>
     <use xlink:href="#DejaVuSans-73" x="1222.216797"/>
     <use xlink:href="#DejaVuSans-20" x="1274.316406"/>
     <use xlink:href="#DejaVuSans-77" x="1306.103516"/>
     <use xlink:href="#DejaVuSans-65" x="1387.890625"/>
     <use xlink:href="#DejaVuSans-6e" x="1449.414062"/>
     <use xlink:href="#DejaVuSans-74" x="1512.792969"/>
     <use xlink:href="#DejaVuSans-65" x="1552.001953"/>
     <use xlink:href="#DejaVuSans-6c" x="1613.525391"/>
     <use xlink:href="#DejaVuSans-65" x="1641.308594"/>
     <use xlink:href="#DejaVuSans-6e" x="1702.832031"/>
     <use xlink:href="#DejaVuSans-20" x="1766.210938"/>
     <use xlink:href="#DejaVuSans-6f" x="1797.998047"/>
     <use xlink:href="#DejaVuSans-6d" x="1859.179688"/>
     <use xlink:href="#DejaVuSans-20" x="1956.591797"/>
     <use xlink:href="#DejaVuSans-78" x="1988.378906"/>
     <use xlink:href="#DejaVuSans-2d" x="2047.558594"/>
     <use xlink:href="#DejaVuSans-61" x="2083.642578"/>
     <use xlink:href="#DejaVuSans-73" x="2144.921875"/>
     <use xlink:href="#DejaVuSans-20" x="2197.021484"/>
     <use xlink:href="#DejaVuSans-28" x="2228.808594"/>
     <use xlink:href="#DejaVuSans-32" x="2267.822266"/>
     <use xlink:href="#DejaVuSans-44" x="2331.445312"/>
     <use xlink:href="#DejaVuSans-29" x="2408.447266"/>
    </g>
   </g>
   <g id="PathCollection_1">
    <defs>
     <path id="m351010a990" d="M 0 3 
C 0.795609 3 1.55874 2.683901 2.12132 2.12132 
C 2.683901 1.55874 3 0.795609 3 0 
C 3 -0.795609 2.683901 -1.55874 2.12132 -2.12132 
C 1.55874 -2.683901 0.795609 -3 0 -3 
C -0.795609 -3 -1.55874 -2.683901 -2.12132 -2.12132 
C -2.683901 -1.55874 -3 -0.795609 -3 0 
C -3 0.795609 -2.683901 1.55874 -2.12132 2.12132 
C -1.55874 2.683901 -0.795609 3 0 3 
z
" style="stroke: #7fffd4"/>
    </defs>
    <g clip-path="url(#p89d686c407)">
     <use xlink:href="#m351010a990" x="146.88" y="155.52" style="fill: #7fffd4; stroke: #7fffd4"/>
     <use xlink:href="#m351010a990" x="325.44" y="155.52" style="fill: #7fffd4; stroke: #7fffd4"/>
    </g>
   </g>
   <g id="legend_1">
    <g id="patch_7">
     <path d="M 313.62 81.172 
L 407.72 81.172 
Q 409.72 81.172 409.72 79.172 
L 409.72 48.472 
Q 409.72 46.472 407.72 46.472 
L 313.62 46.472 
Q 311.62 46.472 311.62 48.472 
L 311.62 79.172 
Q 311.62 81.172 313.62 81.172 
z
" style="fill: #ffffff; opacity: 0.8; stroke: #cccccc; stroke-linejoin: miter"/>
    </g>
    <g id="line2d_20">
     <path d="M 315.62 55.392312 
L 325.62 55.392312 
L 335.62 55.392312 
" style="fill: none; stroke: #00ced1; stroke-width: 1.5; stroke-linecap: square"/>
    </g>
    <g id="text_22">
     <!-- $f(x) = 3 - x^{2}$ -->
     <g transform="translate(343.62 58.892312) scale(0.1 -0.1)">
      <defs>
       <path id="DejaVuSans-Oblique-66" d="M 3059 4863 
L 2969 4384 
L 2419 4384 
Q 2106 4384 1964 4261 
Q 1822 4138 1753 3809 
L 1691 3500 
L 2638 3500 
L 2553 3053 
L 1606 3053 
L 1013 0 
L 434 0 
L 1031 3053 
L 481 3053 
L 563 3500 
L 1113 3500 
L 1159 3744 
Q 1278 4363 1576 4613 
Q 1875 4863 2516 4863 
L 3059 4863 
z
" transform="scale(0.015625)"/>
       <path id="DejaVuSans-Oblique-78" d="M 3841 3500 
L 2234 1784 
L 3219 0 
L 2559 0 
L 1819 1388 
L 531 0 
L -166 0 
L 1556 1844 
L 641 3500 
L 1300 3500 
L 1972 2234 
L 3144 3500 
L 3841 3500 
z
" transform="scale(0.015625)"/>
       <path id="DejaVuSans-3d" d="M 678 2906 
L 4684 2906 
L 4684 2381 
L 678 2381 
L 678 2906 
z
M 678 1631 
L 4684 1631 
L 4684 1100 
L 678 1100 
L 678 1631 
z
" transform="scale(0.015625)"/>
      </defs>
      <use xlink:href="#DejaVuSans-Oblique-66" transform="translate(0 0.765625)"/>
      <use xlink:href="#DejaVuSans-28" transform="translate(35.205078 0.765625)"/>
      <use xlink:href="#DejaVuSans-Oblique-78" transform="translate(74.21875 0.765625)"/>
      <use xlink:href="#DejaVuSans-29" transform="translate(133.398438 0.765625)"/>
      <use xlink:href="#DejaVuSans-3d" transform="translate(191.894531 0.765625)"/>
      <use xlink:href="#DejaVuSans-33" transform="translate(295.166016 0.765625)"/>
      <use xlink:href="#DejaVuSans-2212" transform="translate(378.271484 0.765625)"/>
      <use xlink:href="#DejaVuSans-Oblique-78" transform="translate(481.542969 0.765625)"/>
      <use xlink:href="#DejaVuSans-32" transform="translate(545.188802 39.046875) scale(0.7)"/>
     </g>
    </g>
    <g id="line2d_21">
     <path d="M 315.62 71.572 
L 325.62 71.572 
L 335.62 71.572 
" style="fill: none; stroke: #dc143c; stroke-width: 1.5; stroke-linecap: square"/>
    </g>
    <g id="text_23">
     <!-- $g(x) = x^{2} + 1$ -->
     <g transform="translate(343.62 75.072) scale(0.1 -0.1)">
      <defs>
       <path id="DejaVuSans-Oblique-67" d="M 3816 3500 
L 3219 434 
Q 3047 -456 2561 -893 
Q 2075 -1331 1253 -1331 
Q 950 -1331 690 -1286 
Q 431 -1241 206 -1147 
L 313 -588 
Q 525 -725 762 -790 
Q 1000 -856 1269 -856 
Q 1816 -856 2167 -557 
Q 2519 -259 2631 300 
L 2681 563 
Q 2441 288 2122 144 
Q 1803 0 1434 0 
Q 903 0 598 351 
Q 294 703 294 1319 
Q 294 1803 478 2267 
Q 663 2731 997 3091 
Q 1219 3328 1514 3456 
Q 1809 3584 2131 3584 
Q 2484 3584 2746 3420 
Q 3009 3256 3138 2956 
L 3238 3500 
L 3816 3500 
z
M 2950 2216 
Q 2950 2641 2750 2872 
Q 2550 3103 2181 3103 
Q 1953 3103 1747 3012 
Q 1541 2922 1394 2759 
Q 1156 2491 1023 2127 
Q 891 1763 891 1375 
Q 891 944 1092 712 
Q 1294 481 1672 481 
Q 2219 481 2584 976 
Q 2950 1472 2950 2216 
z
" transform="scale(0.015625)"/>
       <path id="DejaVuSans-2b" d="M 2944 4013 
L 2944 2272 
L 4684 2272 
L 4684 1741 
L 2944 1741 
L 2944 0 
L 2419 0 
L 2419 1741 
L 678 1741 
L 678 2272 
L 2419 2272 
L 2419 4013 
L 2944 4013 
z
" transform="scale(0.015625)"/>
      </defs>
      <use xlink:href="#DejaVuSans-Oblique-67" transform="translate(0 0.765625)"/>
      <use xlink:href="#DejaVuSans-28" transform="translate(63.476562 0.765625)"/>
      <use xlink:href="#DejaVuSans-Oblique-78" transform="translate(102.490234 0.765625)"/>
      <use xlink:href="#DejaVuSans-29" transform="translate(161.669922 0.765625)"/>
      <use xlink:href="#DejaVuSans-3d" transform="translate(220.166016 0.765625)"/>
      <use xlink:href="#DejaVuSans-Oblique-78" transform="translate(323.4375 0.765625)"/>
      <use xlink:href="#DejaVuSans-32" transform="translate(387.083333 39.046875) scale(0.7)"/>
      <use xlink:href="#DejaVuSans-2b" transform="translate(453.836263 0.765625)"/>
      <use xlink:href="#DejaVuSans-31" transform="translate(557.107747 0.765625)"/>
     </g>
    </g>
   </g>
  </g>
 </g>
 <defs>
  <clipPath id="p89d686c407">
   <rect x="57.6" y="41.472" width="357.12" height="266.112"/>
  </clipPath>
 </defs>
</svg>
