<svg version="1.1" id="Layer_1" xmlns="http://www.w3.org/2000/svg" xmlns:xlink="http://www.w3.org/1999/xlink" x="0px" y="0px"
	 width="100%" viewBox="0 0 1080 1080" enable-background="new 0 0 1080 1080" xml:space="preserve">
<path fill="#000000" opacity="0.000000" stroke="none" 
	d="
M721.000000,1081.000000 
	C480.694336,1081.000000 240.888687,1081.000000 1.041513,1081.000000 
	C1.041513,721.069214 1.041513,361.138428 1.041513,1.103826 
	C360.889221,1.103826 720.778442,1.103826 1080.833862,1.103826 
	C1080.833862,360.999939 1080.833862,720.999939 1080.833862,1081.000000 
	C961.137939,1081.000000 841.318970,1081.000000 721.000000,1081.000000 
M777.706665,716.896423 
	C742.824768,699.191162 707.942871,681.485840 672.727356,663.611206 
	C684.725830,651.085938 696.351929,638.932861 707.996094,626.797241 
	C749.528442,583.512268 791.067688,540.233826 832.601685,496.950378 
	C835.630432,493.794037 835.620605,493.784607 832.285950,491.367737 
	C831.148987,492.547546 829.992981,493.741943 828.842407,494.941589 
	C776.822449,549.178345 724.767822,603.382080 672.869812,657.735291 
	C669.727722,661.026123 667.584351,661.199219 663.699524,659.148865 
	C647.693298,650.701050 631.463074,642.678345 615.345581,634.439941 
	C612.843628,633.161011 610.701965,632.078064 610.542480,636.539734 
	C628.805542,645.822571 647.107727,655.125244 665.995300,664.725525 
	C649.661621,681.738037 633.622620,698.443665 617.832275,714.890259 
	C616.131348,713.190125 615.011719,712.071045 613.892151,710.951965 
	C613.237427,712.514526 612.272583,714.020996 611.978149,715.648743 
	C609.990234,726.638977 610.771545,725.112183 620.227173,723.574219 
	C621.877136,723.305969 623.325500,721.797485 624.867004,720.861816 
	C623.397278,720.016846 621.927551,719.171936 620.310486,718.242249 
	C636.641235,701.212036 653.107788,684.040283 669.794556,666.638855 
	C705.829834,684.933960 741.724487,703.157715 777.198242,721.167725 
	C775.977112,722.969055 775.023926,724.375122 774.070801,725.781189 
	C775.716431,725.989685 777.434631,726.612671 778.995789,726.339050 
	C788.725586,724.633728 788.713562,724.567383 784.149292,715.746338 
	C783.920410,715.303955 783.814941,714.725037 783.465637,714.431824 
	C782.562927,713.674072 781.555786,713.040771 780.590332,712.357788 
	C780.153503,713.481140 779.716675,714.604431 778.824097,716.319885 
	C778.692993,716.531616 778.561829,716.743286 777.706665,716.896423 
M522.244934,765.373413 
	C521.502014,764.508179 520.759033,763.642944 520.680054,763.550964 
	C523.752197,759.181519 526.563782,755.182617 529.977600,750.327209 
	C525.942383,749.353577 523.614868,748.792053 521.409851,748.260010 
	C519.841980,751.927490 518.469666,755.137451 517.099121,758.343323 
	C505.043701,753.046509 493.422638,755.027893 487.691193,762.973267 
	C484.407318,767.525696 482.853302,772.884888 484.680786,778.098450 
	C486.328644,782.799622 489.564362,786.944092 491.669983,790.589905 
	C489.700104,793.011658 485.975891,795.602051 485.556641,798.647461 
	C485.110199,801.890320 487.791748,805.563660 489.130646,809.110229 
	C481.174652,812.543030 478.695190,815.533752 479.113983,821.773254 
	C479.572876,828.610046 484.641235,833.892700 492.649048,835.836182 
	C493.941589,836.149841 495.255676,836.437256 496.576324,836.562317 
	C505.594604,837.416138 514.585876,837.770569 522.850220,833.107361 
	C529.407654,829.407166 532.330200,822.754700 530.924255,815.280273 
	C529.824158,809.431824 525.665894,805.796143 518.019287,804.746460 
	C513.422180,804.115356 508.724823,804.231995 504.076263,803.950500 
	C501.924347,803.820190 499.767395,803.632996 497.637695,803.307983 
	C494.678955,802.856628 492.842621,800.812378 493.735840,798.104980 
	C494.309265,796.366882 496.538971,794.534302 498.384186,794.014282 
	C500.850128,793.319275 503.671387,793.996521 506.325623,793.839905 
	C521.765686,792.928833 529.993225,778.879578 522.244934,765.373413 
M618.075500,262.776337 
	C612.735718,276.519623 618.107544,289.287506 631.344482,292.591095 
	C636.860840,293.967865 642.970947,294.201477 648.631592,293.502106 
	C659.714722,292.132812 666.297791,285.615265 667.792725,276.095428 
	C669.395752,265.887695 665.415771,258.830566 654.935425,253.245865 
	C654.574951,253.053787 654.333191,252.638962 653.887207,252.172089 
	C655.197754,251.129150 656.376892,250.240158 657.502197,249.287567 
	C668.426392,240.040268 665.780701,223.356018 652.150940,218.851562 
	C646.882812,217.110535 640.653198,217.101105 635.056274,217.819290 
	C627.377136,218.804626 622.008545,223.679001 620.319763,231.511765 
	C618.603027,239.474197 621.335022,245.927963 628.085876,250.580338 
	C628.851074,251.107666 629.731628,251.467529 629.718079,251.460342 
	C625.562500,255.391525 622.005981,258.756073 618.075500,262.776337 
M625.826233,792.454346 
	C625.766052,782.621399 620.542114,776.381897 611.196167,772.638977 
	C612.820801,771.308167 613.935730,770.385986 615.060120,769.475464 
	C620.414917,765.139282 622.795898,759.563049 621.686829,752.734863 
	C620.513916,745.513672 616.318909,740.223083 609.334595,738.562256 
	C604.008972,737.295898 598.137268,737.110229 592.696167,737.841003 
	C585.234131,738.843262 579.919189,743.524231 578.187683,751.098633 
	C576.396973,758.931580 578.664917,765.553955 585.470520,770.305298 
	C586.256287,770.853882 586.925476,771.569519 587.906738,772.435364 
	C586.658325,773.143982 585.699890,773.696411 584.733887,774.235046 
	C576.171143,779.008911 572.755737,785.705078 574.036743,795.864014 
	C575.162048,804.787842 580.566345,810.614441 588.984009,812.540283 
	C594.830750,813.877869 601.269348,814.161377 607.199463,813.277710 
	C619.021179,811.516235 624.247070,805.300964 625.826233,792.454346 
M510.774780,416.055054 
	C513.505371,432.634064 516.227966,449.214417 518.968323,465.791809 
	C524.340027,498.288055 529.740479,530.779602 535.069519,563.282776 
	C535.582214,566.409607 536.985474,566.672913 539.605469,565.240479 
	C523.292725,467.078186 506.997131,369.018799 490.893311,272.113831 
	C493.229248,271.426086 494.925537,270.926697 496.621826,270.427277 
	C493.591522,267.459534 490.585846,264.464966 487.463959,261.596924 
	C487.293274,261.440094 485.858276,262.170868 485.514771,262.774628 
	C483.956726,265.513245 482.481873,268.311493 481.207092,271.190186 
	C480.899139,271.885590 481.467590,272.969055 481.632996,273.874084 
	C482.627258,273.637543 483.692474,273.547455 484.590729,273.112579 
	C485.181427,272.826599 485.531342,272.043274 486.518372,270.834534 
	C494.636810,319.504547 502.618347,367.353821 510.774780,416.055054 
M825.850464,779.745422 
	C822.320557,777.196289 818.790649,774.647095 815.146057,772.015137 
	C816.507812,771.066284 818.197571,770.040100 819.717224,768.804749 
	C827.646790,762.358521 828.589905,750.307617 821.779358,743.089661 
	C811.797363,732.510376 788.750854,735.633667 781.696533,748.743774 
	C783.296509,750.456421 784.951294,752.227722 786.619080,754.013000 
	C794.261658,745.983398 796.546875,744.765015 803.670715,744.767334 
	C812.373779,744.770203 816.894287,748.466797 817.282043,755.897949 
	C817.705872,764.018372 812.962158,769.337097 804.510803,769.969238 
	C801.413452,770.200867 798.284241,770.006531 795.031677,770.006531 
	C795.031677,772.793701 795.031677,775.060974 795.031677,777.682556 
	C797.408203,777.682556 799.539795,777.637268 801.668640,777.694763 
	C803.998291,777.757690 806.350891,777.737366 808.648926,778.065430 
	C815.406982,779.030396 819.468201,783.054749 820.168213,789.246460 
	C821.056885,797.106262 818.336548,802.429993 812.243469,804.755005 
	C801.139893,808.991943 791.248901,804.705444 786.739197,793.730896 
	C786.569763,793.318542 786.099365,793.029846 785.482910,792.383301 
	C783.201477,793.394165 780.889648,794.418518 778.554871,795.453003 
	C780.678162,804.574463 785.659363,810.700867 794.122498,812.655701 
	C799.665771,813.936096 805.793396,814.314941 811.391541,813.420959 
	C827.659607,810.823059 834.601746,794.796814 825.850464,779.745422 
M427.018524,265.548065 
	C425.571838,266.670898 424.154449,267.834015 422.673615,268.909851 
	C414.429535,274.899200 411.581085,282.979797 413.172272,293.009796 
	C421.156464,293.009796 428.982544,293.009796 436.808594,293.009796 
	C444.558105,293.009796 452.307617,293.009796 459.880951,293.009796 
	C459.880951,290.222137 459.880951,288.109863 459.880951,285.542542 
	C447.219940,285.542542 434.802582,285.542542 422.385223,285.542542 
	C422.023285,285.132904 421.661316,284.723297 421.299377,284.313660 
	C423.515717,281.213379 425.267303,277.588043 428.048645,275.126068 
	C433.267334,270.506622 439.331421,266.844849 444.572876,262.247742 
	C449.152649,258.231018 453.813812,253.958694 457.137115,248.937607 
	C462.430847,240.939438 460.691345,229.300125 454.639160,222.995728 
	C445.732574,213.717926 419.966125,213.952423 413.098206,228.995605 
	C414.856140,231.592133 416.305878,233.733444 417.910583,236.103699 
	C419.192261,234.386536 419.946075,233.301697 420.775146,232.277786 
	C427.210388,224.330109 441.369629,222.263199 447.615875,228.346222 
	C453.509644,234.085983 451.786285,245.272079 443.861359,252.712738 
	C443.618469,252.940765 443.386810,253.185043 443.122101,253.384903 
	C437.943085,257.294861 432.759949,261.199341 427.018524,265.548065 
M449.709198,813.477844 
	C459.872101,811.241455 465.900970,804.841370 468.359314,794.890137 
	C470.238403,787.283752 470.138397,779.644470 467.741852,772.221130 
	C464.927002,763.502197 459.039368,757.773926 449.847046,755.980652 
	C439.961395,754.052063 430.828094,755.463196 423.752258,763.285034 
	C416.018951,771.833618 414.549011,789.809448 420.324707,801.151978 
	C425.337158,810.995667 434.547485,815.045105 449.709198,813.477844 
M322.050262,632.312988 
	C300.764648,584.937073 279.479065,537.561157 258.214233,490.231476 
	C252.580231,491.456146 255.615280,494.434448 256.559998,496.540680 
	C285.576691,561.231995 314.663666,625.891724 343.728149,690.561584 
	C347.234802,698.364136 350.675995,706.196045 353.843689,713.330139 
	C351.844757,713.939758 350.294281,714.412598 348.743805,714.885437 
	C351.489685,716.994385 354.130707,719.268738 357.043091,721.114990 
	C357.959839,721.696106 359.607330,721.158386 360.912964,721.046814 
	C361.066254,721.033752 361.223541,720.484131 361.293121,720.164551 
	C361.964783,717.079407 362.726440,714.006531 363.193787,710.889893 
	C363.299225,710.186951 362.360962,709.327515 361.903198,708.540222 
	C361.136780,708.987122 360.176025,709.277466 359.656006,709.922913 
	C359.080719,710.636841 358.908875,711.675842 358.365387,713.079102 
	C346.172821,686.006897 334.241913,659.515808 322.050262,632.312988 
M282.877899,408.416779 
	C323.004700,359.387848 363.131470,310.358917 403.393677,261.164520 
	C404.385803,263.073853 405.158875,264.561584 406.033478,266.244751 
	C408.399139,263.678009 409.986328,254.638702 408.541840,252.947830 
	C408.012238,252.327850 406.757690,251.865524 405.962769,252.015396 
	C402.867859,252.598846 399.791199,253.350052 396.787415,254.292740 
	C396.093475,254.510513 395.225708,255.810822 395.330811,256.470764 
	C395.432770,257.111115 396.616211,257.757324 397.448242,258.050476 
	C398.199768,258.315308 399.118225,258.106415 400.507568,258.106415 
	C399.690094,259.196442 399.322876,259.725739 398.916168,260.222748 
	C377.209106,286.749725 355.503510,313.277893 333.787201,339.797333 
	C312.596527,365.674896 291.388306,391.538116 270.210297,417.426025 
	C268.640442,419.345001 265.819153,421.505768 270.717316,423.201508 
	C274.607788,418.459015 278.508942,413.703522 282.877899,408.416779 
M682.665283,272.824066 
	C673.811340,269.888092 673.811340,269.888092 673.790527,279.281097 
	C673.790161,279.447601 673.741638,279.633087 673.797852,279.777740 
	C674.444214,281.439789 675.106445,283.095642 675.764526,284.753174 
	C676.772949,283.365021 677.781433,281.976868 678.880920,280.463409 
	C713.625244,327.923645 748.549561,375.629822 783.406738,423.244293 
	C788.268127,421.566437 785.604309,419.501892 784.249756,417.646881 
	C751.003601,372.116150 717.740906,326.597504 684.495789,281.066010 
	C683.774231,280.077850 683.223206,278.965271 682.827942,278.304321 
	C684.550232,277.433960 685.927734,276.737823 687.305298,276.041687 
	C686.009644,275.023499 684.713928,274.005341 682.665283,272.824066 
M555.372498,736.800903 
	C538.066711,759.791321 538.661072,798.023987 555.066956,820.340271 
	C557.466736,823.604614 559.821777,824.908630 563.668945,823.161499 
	C547.089722,793.348755 547.136719,763.813293 563.758240,734.054688 
	C560.510193,733.433350 557.603210,732.646484 555.372498,736.800903 
M653.102966,754.389160 
	C650.068359,748.514404 647.059021,742.626404 643.989868,736.769775 
	C642.110413,733.183289 639.271057,732.860474 635.758362,734.302917 
	C652.505859,764.171753 652.252686,793.840698 635.704834,823.360229 
	C640.142822,824.869385 642.382507,823.141541 644.481995,820.013855 
	C658.047485,799.804932 659.577515,778.018616 653.102966,754.389160 
M398.019928,778.500000 
	C398.019928,763.620483 398.019928,748.740906 398.019928,734.039917 
	C394.813721,734.039917 392.272064,734.039917 389.781616,734.039917 
	C389.714569,734.786438 389.659027,735.117126 389.658875,735.447815 
	C389.652008,752.407715 389.625946,769.367676 389.660309,786.327515 
	C389.672089,792.143555 389.436737,797.999878 390.022919,803.765869 
	C390.939423,812.780701 401.000916,817.129883 408.862030,812.138855 
	C408.511200,810.235229 408.154266,808.298401 407.801910,806.386353 
	C398.417786,806.342346 398.025848,805.940796 398.020508,796.459961 
	C398.017334,790.806641 398.019928,785.153320 398.019928,778.500000 
M477.547302,251.326294 
	C479.516144,251.558792 481.483826,251.978333 483.454041,251.990433 
	C490.795776,252.035568 495.432465,249.254105 496.963318,244.065369 
	C498.768524,237.946945 497.030212,233.959854 490.490967,229.445877 
	C491.502441,228.551468 492.572235,227.765320 493.448883,226.803192 
	C497.690002,222.148361 496.354065,214.876816 490.771515,211.991089 
	C483.999573,208.490570 475.103699,210.505112 470.139343,216.801895 
	C471.427917,218.222183 472.739655,219.668015 474.338013,221.429779 
	C477.503845,217.126511 481.495789,215.205948 486.125244,217.500565 
	C487.449707,218.157059 488.444092,221.198517 488.212280,222.965637 
	C487.394135,229.201477 481.683105,226.268219 478.240143,227.642395 
	C478.240143,229.465881 478.240143,231.176849 478.240143,232.843933 
	C482.957977,233.399673 488.747406,231.641251 489.769379,238.176773 
	C490.095154,240.260330 488.311310,243.728882 486.450378,244.883377 
	C482.360840,247.420425 479.029388,245.543839 473.976044,239.061920 
	C472.264954,239.887711 470.519043,240.730301 468.713287,241.601807 
	C469.556519,246.589417 472.364685,249.513641 477.547302,251.326294 
M262.672516,479.308014 
	C260.263611,484.674438 261.670288,489.613281 267.075165,490.690369 
	C272.265839,491.724823 277.937775,491.587585 283.186676,490.705841 
	C287.643341,489.957214 290.075928,486.105194 289.652771,481.344788 
	C289.194397,476.188263 285.429077,474.563263 280.928253,474.194977 
	C277.948669,473.951141 274.906982,474.216461 271.978302,473.735260 
	C270.941162,473.564789 270.156158,471.859711 269.256042,470.855194 
	C270.235107,470.126740 271.137177,469.231567 272.221405,468.730621 
	C272.901031,468.416565 273.855621,468.729218 274.684967,468.702606 
	C285.156982,468.366547 289.407654,460.623138 284.182434,452.011841 
	C285.677094,449.708191 287.103119,447.510284 288.714325,445.027008 
	C284.549438,444.042450 284.549438,444.042450 281.812378,448.765442 
	C273.810577,446.612518 268.558136,447.739716 265.660797,452.231750 
	C262.783234,456.692993 263.636292,461.491638 268.260620,466.856415 
	C263.678223,470.429749 263.505157,471.730133 266.971497,476.537323 
	C265.714600,477.286926 264.457703,478.036530 262.672516,479.308014 
M357.141449,764.174316 
	C358.943481,762.293701 360.628815,760.281128 362.572815,758.560913 
	C366.177826,755.370789 370.305695,752.693359 373.537720,749.178772 
	C378.092773,744.225708 377.108765,736.446533 372.105408,732.828674 
	C366.782654,728.979858 353.195007,729.185547 349.239624,737.930115 
	C350.467072,739.273254 351.786102,740.716675 353.041809,742.090759 
	C354.949982,740.436157 356.194427,739.042236 357.717987,738.099182 
	C361.240265,735.918945 366.670380,736.417114 368.179291,739.079590 
	C370.374054,742.952393 368.194885,745.795471 365.402069,748.157410 
	C362.484344,750.624939 359.399200,752.905945 356.291046,755.134338 
	C350.864624,759.024719 348.874817,764.250610 349.858368,770.958008 
	C358.518524,770.958008 367.125977,770.958008 375.761658,770.958008 
	C375.761658,768.997314 375.761658,767.121582 375.761658,764.940308 
	C369.436035,764.940308 363.457642,764.940308 357.141449,764.174316 
M932.052490,468.662933 
	C941.988586,466.495270 944.851013,460.166718 939.966797,451.962799 
	C941.476013,449.721649 942.891296,447.620087 944.390991,445.393158 
	C940.401428,443.809326 940.401428,443.809326 937.632385,448.786346 
	C929.362183,446.542511 923.974243,447.780029 921.156067,452.570770 
	C918.583679,456.943420 919.659546,462.009735 924.166382,466.747223 
	C919.332886,470.539124 919.177124,471.593658 921.789856,475.381744 
	C919.984985,478.627014 917.535339,481.160278 917.307007,483.880005 
	C916.963379,487.973877 920.185181,490.891327 924.107117,491.122620 
	C929.435486,491.436859 934.968994,491.301331 940.148071,490.154999 
	C944.257507,489.245331 945.743774,485.305969 945.320190,481.023010 
	C944.874878,476.519897 941.735291,474.844574 937.857300,474.347961 
	C934.738770,473.948547 931.514099,474.313812 928.420471,473.816956 
	C927.175232,473.616974 926.154053,472.022217 925.030884,471.062195 
	C926.094666,470.255829 927.064819,469.233856 928.254456,468.716949 
	C929.084229,468.356415 930.214844,468.687958 932.052490,468.662933 
M100.331573,478.345459 
	C107.316780,480.869049 113.622795,480.155762 118.842667,473.932678 
	C118.995377,475.889313 119.107368,477.324188 119.225578,478.838776 
	C120.778618,478.838776 122.053963,478.838776 123.427414,478.838776 
	C123.427414,471.581268 123.427414,464.515381 123.427414,457.112366 
	C118.633163,457.112366 114.149338,456.931519 109.700760,457.247345 
	C108.667717,457.320679 107.754829,459.086700 106.786659,460.073883 
	C107.127075,460.476349 107.467491,460.878845 107.807907,461.281311 
	C111.399399,461.281311 114.990898,461.281311 118.531548,461.281311 
	C119.255608,469.139099 117.664085,472.691284 112.835548,474.420685 
	C104.871346,477.273254 97.341377,473.343079 95.827980,464.997162 
	C95.103394,461.001282 95.284767,456.731903 95.729752,452.660004 
	C96.326797,447.196686 99.460938,443.342468 105.061211,442.354767 
	C110.551224,441.386536 115.753906,441.934814 119.133240,447.318451 
	C119.283546,447.557922 119.678192,447.643982 120.254509,447.967255 
	C121.158325,447.322510 122.173058,446.598633 123.083862,445.948883 
	C120.802040,436.234863 102.777557,435.314972 95.494415,442.199585 
	C87.287033,449.957916 87.452393,473.337402 100.331573,478.345459 
M714.059143,465.409027 
	C714.018127,460.624207 714.627625,455.722504 713.793640,451.080139 
	C712.293213,442.728394 705.701294,437.842957 696.975464,437.578308 
	C688.031433,437.307098 681.208984,442.031219 679.123779,450.438232 
	C678.294983,453.779419 678.017578,457.359955 678.125366,460.811676 
	C678.457275,471.447784 684.266235,478.162750 693.912598,479.537048 
	C703.374268,480.885040 710.336243,476.253326 714.059143,465.409027 
M249.432983,446.377075 
	C249.355957,448.053040 249.278915,449.729034 249.179230,451.897980 
	C242.990204,447.158173 237.033722,446.278320 232.411911,449.412689 
	C225.814240,453.886932 225.460251,460.757904 226.330948,467.712585 
	C227.170517,474.418579 230.594269,478.592194 236.212936,479.207275 
	C239.294220,479.544556 242.587723,478.377502 245.717117,477.609833 
	C246.841843,477.333954 247.766129,476.240936 247.596115,476.361450 
	C250.139053,477.697235 251.826920,478.583862 253.969269,479.709198 
	C253.969269,464.409851 253.969269,450.308472 253.969269,435.870544 
	C252.394165,435.969696 251.001526,436.057343 249.433014,436.156097 
	C249.433014,439.490051 249.433014,442.463196 249.432983,446.377075 
M481.722046,634.570190 
	C484.215118,635.013123 485.379028,634.264771 485.221405,631.444885 
	C484.997803,627.443604 485.164673,623.420471 485.164673,618.868591 
	C498.290253,626.594604 508.618805,620.875000 508.715515,606.867065 
	C508.732544,604.401367 508.394714,601.846191 507.712708,599.478638 
	C505.437805,591.581055 496.929108,588.156860 489.679443,592.076965 
	C488.548920,592.688232 487.491577,593.434937 487.442444,593.465759 
	C484.840118,592.353760 483.016785,591.574646 481.025055,590.723572 
	C481.025055,605.969482 481.025055,620.074158 481.722046,634.570190 
M724.014526,471.499786 
	C724.014526,478.104431 724.014526,484.709076 724.014526,491.743134 
	C725.992798,491.520294 727.363342,491.365936 728.833130,491.200378 
	C728.833130,488.244934 728.833191,485.753052 728.833191,483.261169 
	C728.833191,480.856628 728.833130,478.452087 728.833130,475.683258 
	C737.177734,481.286255 744.827637,480.746765 749.186523,474.691101 
	C754.004822,467.997223 753.058960,454.811066 747.245728,450.247253 
	C745.749573,449.072601 743.608704,447.827637 741.897339,447.993164 
	C737.546326,448.414001 733.270691,449.614655 729.387085,450.416046 
	C728.284668,449.681885 726.663513,448.602295 724.014526,446.838196 
	C724.014526,455.894745 724.014526,463.197327 724.014526,471.499786 
M440.993988,602.303345 
	C441.594177,599.904724 441.182068,598.588379 438.183563,598.724121 
	C433.278473,598.946167 428.356018,598.784119 423.509186,598.784119 
	C423.509186,593.847656 423.509186,589.750366 423.509186,585.153137 
	C429.389374,585.153137 435.008026,585.050720 440.620514,585.193054 
	C443.788391,585.273438 444.348053,584.007629 443.336090,581.436890 
	C434.938080,581.436890 426.720459,581.436890 418.492188,581.436890 
	C418.492188,595.083862 418.492188,608.346008 418.492188,621.745483 
	C427.139313,621.745483 435.541321,621.745483 443.943359,621.745483 
	C444.183746,621.284973 444.424133,620.824463 444.664490,620.363953 
	C443.458862,619.570496 442.279724,618.143494 441.043030,618.091675 
	C435.236145,617.848633 429.413452,617.983643 423.415680,617.983643 
	C423.415680,612.889893 423.415680,608.113220 423.415680,602.861084 
	C429.141418,602.861084 434.783020,602.861084 440.993988,602.303345 
M602.245483,618.239624 
	C594.216736,618.088623 591.476196,615.384216 592.006897,607.654541 
	C598.885193,607.654541 605.803406,607.654541 612.648071,607.654541 
	C613.726807,598.244690 611.043518,592.774414 604.794617,591.087891 
	C597.608093,589.148376 590.743164,591.948792 587.986328,598.198547 
	C585.445618,603.958618 585.536011,609.871094 588.133057,615.584595 
	C590.573181,620.952942 595.378906,622.729492 600.821533,622.684509 
	C606.038574,622.641418 610.578674,621.009399 612.629395,615.316406 
	C611.527954,614.721130 610.531250,614.182495 610.264160,614.038147 
	C607.518372,615.606567 605.302734,616.872192 602.245483,618.239624 
M295.957367,472.334930 
	C298.688812,478.119537 303.719971,479.875854 309.558624,479.645477 
	C314.454926,479.452301 318.678101,477.729065 320.584900,472.415192 
	C319.573608,471.811066 318.602783,471.231110 317.455444,470.545715 
	C314.338745,475.611267 309.683502,476.315033 304.768219,474.604187 
	C300.655670,473.172729 299.492798,469.461914 299.533722,464.700439 
	C306.714935,464.700439 313.765533,464.700439 320.733459,464.700439 
	C321.608917,453.454163 318.012787,448.216095 309.535980,447.693420 
	C300.435425,447.132294 294.553040,452.806061 294.318298,462.813812 
	C294.249756,465.734589 295.200073,468.679291 295.957367,472.334930 
M369.956665,476.168243 
	C371.733704,479.949982 374.746155,479.364990 378.207153,478.732513 
	C377.894958,477.433350 377.739349,475.745972 377.446350,475.721802 
	C372.732513,475.332428 373.940186,471.848846 373.877075,469.089111 
	C373.808624,466.094849 373.841766,463.097595 373.866058,460.101929 
	C373.903137,455.528107 374.078613,450.698181 368.849060,448.686218 
	C363.606995,446.669464 358.421265,447.217926 353.701538,450.597870 
	C350.865936,452.628571 351.153046,454.342255 353.745087,455.327026 
	C357.291779,453.781128 360.750061,452.374847 364.302429,452.072052 
	C365.756317,451.948151 367.413574,454.210083 368.978302,455.386627 
	C367.736908,456.894257 366.786865,459.068512 365.191284,459.765808 
	C362.193695,461.075867 358.726196,461.269226 355.631714,462.409180 
	C351.545044,463.914703 349.788483,467.229553 350.241180,471.515930 
	C350.689423,475.760254 352.950409,478.418549 357.311981,479.401917 
	C362.244995,480.514160 365.988617,478.478882 369.956665,476.168243 
M779.842773,451.328125 
	C779.064758,452.402832 778.142944,453.401855 777.531494,454.564178 
	C772.547363,464.037567 776.465027,476.456451 785.192261,479.000519 
	C792.234070,481.053253 798.986755,478.659180 802.148132,472.989136 
	C805.839905,466.367706 804.653748,455.666199 799.717590,451.060394 
	C794.844299,446.513245 786.941650,446.419861 779.842773,451.328125 
M183.982681,462.629517 
	C183.109665,452.410583 178.126221,447.382080 169.127869,447.640381 
	C160.706726,447.882172 155.705856,453.298279 155.238007,462.683594 
	C154.755966,472.353790 159.655258,478.745178 168.236618,479.640961 
	C177.670746,480.625824 183.568542,474.591888 183.982681,462.629517 
M538.907166,593.516541 
	C532.606750,589.707458 525.354004,589.430603 520.775208,593.332703 
	C514.717834,598.494934 514.409607,605.380798 516.065430,612.506409 
	C517.444946,618.443054 521.785645,621.931702 528.117249,622.649475 
	C534.557190,623.379578 540.553528,620.259583 542.581482,614.490295 
	C545.132446,607.233093 544.968872,600.154175 538.907166,593.516541 
M573.392212,608.529419 
	C573.392212,612.955811 573.392212,617.382202 573.392212,621.787598 
	C575.300720,621.787598 576.549255,621.787598 578.047485,621.787598 
	C578.047485,614.754517 578.189636,607.949402 578.011597,601.152649 
	C577.787842,592.607788 571.188538,588.238953 563.236145,591.286621 
	C561.587463,591.918518 560.143555,593.084900 559.250000,593.619324 
	C557.065857,592.523560 555.278687,591.626953 552.971375,590.469360 
	C552.971375,601.713867 552.971375,611.677185 552.971375,621.717163 
	C554.487549,621.717163 555.876404,621.717163 557.885437,621.717163 
	C557.885437,615.104431 557.535950,608.768433 557.991394,602.490784 
	C558.385803,597.054810 562.244568,594.456055 567.683411,594.823792 
	C573.121216,595.191467 573.284363,599.078918 573.383301,603.058533 
	C573.420532,604.556091 573.391174,606.055298 573.392212,608.529419 
M646.105347,621.644348 
	C646.113098,614.170959 646.382507,606.685547 646.041443,599.228088 
	C645.792297,593.781555 642.811157,590.716492 637.459595,590.888123 
	C633.516663,591.014465 629.624878,592.739319 626.179016,593.630615 
	C625.070129,592.805237 623.563477,591.683716 621.253418,589.964172 
	C621.253418,601.598633 621.253418,611.686035 621.253418,622.089539 
	C622.893738,621.939331 624.268188,621.813477 625.825562,621.670837 
	C625.825562,620.476257 625.818237,619.661377 625.826721,618.846619 
	C625.882141,613.523926 625.671021,608.180664 626.073364,602.884155 
	C626.486572,597.444641 630.169250,594.560730 635.506165,594.805481 
	C640.034302,595.013062 641.663330,597.081726 641.747986,603.109558 
	C641.834351,609.259583 641.767090,615.411743 641.767090,621.783142 
	C643.060120,621.860840 644.186035,621.928589 646.105347,621.644348 
M885.025513,449.964691 
	C885.025513,459.572815 885.025513,469.180939 885.025513,479.121674 
	C886.898438,478.942596 888.274048,478.811096 889.825562,478.662750 
	C889.825562,477.466400 889.818237,476.651031 889.826721,475.835815 
	C889.882324,470.514191 889.670959,465.171967 890.074463,459.876678 
	C890.488647,454.440460 894.174011,451.559021 899.510925,451.805847 
	C904.036194,452.015137 905.663635,454.083832 905.748108,460.112000 
	C905.834290,466.260834 905.767090,472.411865 905.767090,478.771759 
	C907.347656,478.771759 908.747314,478.771759 910.246399,478.771759 
	C910.246399,471.543457 910.486389,464.555908 910.183533,457.591980 
	C909.833618,449.544769 903.640015,445.503967 895.911133,448.169830 
	C893.818115,448.891754 892.053833,450.566528 890.167053,451.785614 
	C888.896851,447.653412 888.896851,447.653412 885.025513,449.964691 
M200.410233,453.882538 
	C203.686249,453.431366 207.305664,451.964661 210.108658,452.912415 
	C211.772308,453.474915 212.789215,457.799194 212.974487,460.508820 
	C213.389999,466.585876 213.104645,472.710876 213.104645,479.146301 
	C215.055908,478.948059 216.432480,478.808167 217.904816,478.658600 
	C217.904816,471.782562 217.986053,465.308929 217.877045,458.838501 
	C217.801025,454.326691 216.870636,449.868927 211.949249,448.355042 
	C206.967651,446.822662 202.027969,447.122192 198.379700,451.759003 
	C198.112839,452.098175 197.663483,452.293762 197.228638,452.606720 
	C197.025406,451.031281 196.844772,449.630920 196.647583,448.102325 
	C195.174988,448.178131 194.048584,448.236115 192.755569,448.302673 
	C192.755569,458.553986 192.755569,468.628876 192.755569,479.044037 
	C194.362091,478.923340 195.725189,478.820923 197.164413,478.712769 
	C197.164413,474.141998 196.819077,469.950806 197.264862,465.845490 
	C197.682053,462.003601 198.937683,458.252747 200.410233,453.882538 
M826.539246,466.939026 
	C829.513733,471.558807 828.252869,475.125732 823.133911,475.037720 
	C819.483154,474.974915 815.860840,473.256104 810.869202,471.910583 
	C808.680420,473.111053 809.548828,475.272095 812.617126,477.147644 
	C817.618774,480.204956 822.961365,480.722412 828.306458,478.218292 
	C833.773376,475.657166 835.036621,467.624695 830.339844,464.099121 
	C828.075500,462.399475 824.900513,461.898041 822.119507,460.905487 
	C818.966187,459.780029 814.639343,459.720795 815.541565,454.621094 
	C816.045837,451.770569 821.675415,450.602112 825.624451,452.309631 
	C826.228271,452.570770 826.739502,453.230469 827.335083,453.289886 
	C828.791992,453.435303 830.273193,453.337341 831.744690,453.337341 
	C828.223022,447.173798 823.292358,447.205780 818.283813,447.916321 
	C814.365784,448.472168 811.395813,450.399719 810.859070,454.732758 
	C810.281433,459.396606 812.505615,462.412048 816.773071,463.899017 
	C819.739258,464.932526 822.818359,465.642303 826.539246,466.939026 
M839.653320,476.003876 
	C843.932251,479.612915 848.827515,480.354645 854.163879,479.178162 
	C858.840393,478.147156 861.545715,475.258392 861.618042,470.505615 
	C861.687134,465.970520 859.204834,463.071655 854.751099,461.916138 
	C852.019836,461.207520 849.139526,460.754517 846.663208,459.513885 
	C845.373962,458.867950 844.015564,456.678436 844.157715,455.342407 
	C844.292847,454.071259 846.288086,452.105957 847.557678,452.032257 
	C850.238037,451.876648 852.967468,452.849335 855.698669,453.175934 
	C857.179626,453.353027 858.705688,453.153778 861.425232,453.100494 
	C856.417114,447.071381 851.448792,447.192352 846.425842,447.967590 
	C842.423340,448.585266 839.626709,450.901794 839.218567,455.096100 
	C838.791931,459.480164 841.105225,462.419678 845.150085,463.841064 
	C847.807312,464.774811 850.805969,464.934113 853.248535,466.211273 
	C854.837891,467.042297 856.725525,469.340698 856.606323,470.831970 
	C856.485596,472.342102 853.999329,474.906281 852.653687,474.841431 
	C848.674561,474.649719 844.747070,473.387421 839.695068,472.307892 
	C839.675537,472.421295 839.409119,473.966705 839.653320,476.003876 
M539.696777,269.886719 
	C552.286743,269.886719 564.876709,269.886719 577.583618,269.886719 
	C577.583618,267.252502 577.583618,265.074951 577.583618,262.865784 
	C562.839050,262.865784 548.438110,262.865784 533.932251,262.865784 
	C533.932251,265.303528 533.932251,267.518372 533.932251,269.886719 
	C535.779053,269.886719 537.270386,269.886719 539.696777,269.886719 
M561.497437,241.086594 
	C552.283813,241.086594 543.070251,241.086594 533.874634,241.086594 
	C533.874634,243.847321 533.874634,245.919647 533.874634,247.977631 
	C548.678467,247.977631 563.185425,247.977631 577.636963,247.977631 
	C577.636963,245.581863 577.636963,243.501953 577.636963,241.086594 
	C572.402893,241.086594 567.449158,241.086594 561.497437,241.086594 
M705.577332,789.884338 
	C717.680359,789.884338 729.783325,789.884338 741.823975,789.884338 
	C741.823975,787.156189 741.823975,785.049194 741.823975,782.855469 
	C727.124756,782.855469 712.672729,782.855469 698.053833,782.855469 
	C698.053833,785.175964 698.053833,787.292236 698.053833,789.884338 
	C700.348877,789.884338 702.474426,789.884338 705.577332,789.884338 
M699.087463,768.243347 
	C713.314148,768.243347 727.540833,768.243347 741.881531,768.243347 
	C741.881531,765.743958 741.881531,763.640686 741.881531,761.344360 
	C727.185242,761.344360 712.673035,761.344360 697.791199,761.344360 
	C697.952209,763.726135 698.094910,765.836243 699.087463,768.243347 
M465.975098,608.353027 
	C466.113495,606.563965 465.745789,604.522278 466.488342,603.034851 
	C468.454346,599.096802 470.900757,595.398560 473.466858,591.082031 
	C464.511353,590.552551 465.682343,599.664612 460.961151,602.428772 
	C456.251740,599.636169 457.339325,590.490479 448.336792,591.209900 
	C450.958496,595.539490 453.038696,599.311401 455.459747,602.850220 
	C456.978516,605.070068 457.126221,606.799744 455.584686,609.107422 
	C452.921783,613.093811 450.613342,617.317017 447.835480,621.979248 
	C457.334747,622.525757 455.748657,612.706848 461.152740,609.426697 
	C462.668732,611.973328 464.316895,614.618408 465.839691,617.333740 
	C467.462921,620.228149 468.758453,623.543823 473.541687,621.473206 
	C471.116852,617.297974 468.712463,613.157959 465.975098,608.353027 
M662.749756,586.838135 
	C662.835876,582.361023 660.281982,584.281372 658.112915,584.764893 
	C658.004211,586.921997 657.905762,588.875427 657.807739,590.820923 
	C655.971558,591.006470 654.393860,591.165894 652.922974,591.314514 
	C651.458435,596.813538 655.999146,594.172180 657.966797,595.534668 
	C657.966797,601.297302 657.905823,607.273865 657.982117,613.248657 
	C658.078857,620.824768 663.126221,624.363770 670.339966,622.160645 
	C673.468872,621.205017 674.103943,619.772705 671.901062,617.286926 
	C668.474243,617.901306 663.847107,620.481750 663.101868,614.827942 
	C662.250732,608.369873 662.904846,601.713257 662.904846,594.815918 
	C666.405640,594.815918 669.344543,594.815918 672.314514,594.815918 
	C673.430664,590.070251 670.157654,591.314148 667.969604,591.017334 
	C665.782959,590.720642 662.088440,592.640320 662.749756,586.838135 
M342.558472,479.190186 
	C345.822693,478.505157 346.799255,477.023834 344.360199,474.286835 
	C338.130981,476.062653 335.529480,475.376312 335.284882,471.313782 
	C334.900696,464.932281 335.182861,458.510651 335.182861,451.877625 
	C338.724030,451.877625 341.681244,451.877625 344.875854,451.877625 
	C344.875854,450.688049 345.015411,448.945160 344.855225,448.917145 
	C341.713379,448.368042 338.536652,448.018372 335.233429,447.611481 
	C335.122559,445.439789 335.015289,443.338043 334.907806,441.231598 
	C330.539154,441.590820 330.539154,441.590820 330.044037,447.573700 
	C325.245789,448.349030 325.245789,448.349030 325.589661,451.740173 
	C327.152283,451.968689 328.714935,452.197235 330.323212,452.432434 
	C330.323212,458.418121 330.212708,464.068756 330.349823,469.713409 
	C330.541565,477.608154 333.703644,480.204468 342.558472,479.190186 
M760.852051,473.491241 
	C762.413696,479.142120 764.738403,480.419891 771.441650,478.741730 
	C770.762268,477.498810 770.136230,475.445953 769.571350,475.462646 
	C764.773376,475.604645 765.312683,472.293823 765.307312,469.326050 
	C765.287170,458.241882 765.299194,447.157623 765.299194,435.855560 
	C763.544739,435.933441 762.283936,435.989380 760.797546,436.055328 
	C760.797546,448.443512 760.797546,460.547974 760.852051,473.491241 
M384.083344,453.502014 
	C384.086121,459.667236 383.950317,465.836456 384.129578,471.996552 
	C384.318634,478.491913 388.377747,480.969971 395.155060,478.303650 
	C394.271790,477.179321 393.476105,475.338562 392.735870,475.360596 
	C388.397827,475.489746 388.952881,472.553345 388.949371,469.909088 
	C388.934937,459.078278 388.943420,448.247498 388.921295,437.416718 
	C388.920410,436.978577 388.696014,436.540894 388.504364,435.843048 
	C386.977783,435.944641 385.566864,436.038544 384.083374,436.137299 
	C384.083374,441.842438 384.083374,447.172882 384.083344,453.502014 
M138.156174,465.556610 
	C138.378342,454.112976 140.797119,451.447937 150.175964,452.850647 
	C150.489792,451.576904 150.813080,450.264709 151.158447,448.862946 
	C145.826965,447.034241 141.670654,447.899445 139.320663,451.177551 
	C137.569839,449.874664 136.107056,448.786102 133.694214,446.990570 
	C133.694214,458.764771 133.694214,468.690491 133.694214,478.736053 
	C135.233749,478.736053 136.628845,478.736053 138.155396,478.736053 
	C138.155396,474.483063 138.155396,470.506165 138.156174,465.556610 
M869.876404,472.414886 
	C869.876404,474.532562 869.876404,476.650238 869.876404,478.785492 
	C871.598572,478.785492 872.850098,478.785492 874.192505,478.785492 
	C874.192505,468.505493 874.192505,458.443970 874.192505,448.351929 
	C872.687744,448.351929 871.446716,448.351929 869.876404,448.351929 
	C869.876404,456.208649 869.876404,463.821289 869.876404,472.414886 
M869.097168,440.226562 
	C870.775146,440.680084 872.441345,441.289520 874.143860,441.418243 
	C874.398132,441.437408 875.341064,439.027496 875.019531,438.053680 
	C874.713989,437.128387 872.721436,435.809540 872.253601,436.070007 
	C870.941650,436.800385 870.033875,438.256775 869.097168,440.226562 
z"/>
<path fill="#EFEFEF" opacity="1.000000" stroke="none" 
	d="
M779.279846,715.727783 
	C779.716675,714.604431 780.153503,713.481140 780.590332,712.357788 
	C781.555786,713.040771 782.562927,713.674072 783.465637,714.431824 
	C783.814941,714.725037 783.920410,715.303955 784.149292,715.746338 
	C788.713562,724.567383 788.725586,724.633728 778.995789,726.339050 
	C777.434631,726.612671 775.716431,725.989685 774.070801,725.781189 
	C775.023926,724.375122 775.977112,722.969055 777.198242,721.167725 
	C741.724487,703.157715 705.829834,684.933960 669.794556,666.638855 
	C653.107788,684.040283 636.641235,701.212036 620.310486,718.242249 
	C621.927551,719.171936 623.397278,720.016846 624.867004,720.861816 
	C623.325500,721.797485 621.877136,723.305969 620.227173,723.574219 
	C610.771545,725.112183 609.990234,726.638977 611.978149,715.648743 
	C612.272583,714.020996 613.237427,712.514526 613.892090,710.951965 
	C615.011719,712.071045 616.131348,713.190125 617.832275,714.890259 
	C633.622620,698.443665 649.661621,681.738037 665.995300,664.725525 
	C647.107727,655.125244 628.805542,645.822571 610.542480,636.539734 
	C610.701965,632.078064 612.843628,633.161011 615.345581,634.439941 
	C631.463074,642.678345 647.693298,650.701050 663.699524,659.148865 
	C667.584351,661.199219 669.727722,661.026123 672.869812,657.735291 
	C724.767822,603.382080 776.822449,549.178345 828.842407,494.941589 
	C829.992981,493.741943 831.148987,492.547546 832.285950,491.367737 
	C835.620605,493.784607 835.630432,493.794037 832.601685,496.950378 
	C791.067688,540.233826 749.528442,583.512268 707.996094,626.797241 
	C696.351929,638.932861 684.725830,651.085938 672.727356,663.611206 
	C707.942871,681.485840 742.824768,699.191162 778.252991,717.153015 
	C779.178284,717.471497 779.557312,717.533447 779.936279,717.595337 
	C779.717468,716.972839 779.498657,716.350281 779.279846,715.727783 
M616.116638,715.489685 
	C616.340637,715.575195 616.564697,715.660706 616.788818,715.746216 
	C616.719666,715.505920 616.650574,715.265625 616.116638,715.489685 
z"/>
<path fill="#F6F6F6" opacity="1.000000" stroke="none" 
	d="
M522.482239,765.648804 
	C529.993225,778.879578 521.765686,792.928833 506.325623,793.839905 
	C503.671387,793.996521 500.850128,793.319275 498.384186,794.014282 
	C496.538971,794.534302 494.309265,796.366882 493.735840,798.104980 
	C492.842621,800.812378 494.678955,802.856628 497.637695,803.307983 
	C499.767395,803.632996 501.924347,803.820190 504.076263,803.950500 
	C508.724823,804.231995 513.422180,804.115356 518.019287,804.746460 
	C525.665894,805.796143 529.824158,809.431824 530.924255,815.280273 
	C532.330200,822.754700 529.407654,829.407166 522.850220,833.107361 
	C514.585876,837.770569 505.594604,837.416138 496.576324,836.562317 
	C495.255676,836.437256 493.941589,836.149841 492.649048,835.836182 
	C484.641235,833.892700 479.572876,828.610046 479.113983,821.773254 
	C478.695190,815.533752 481.174652,812.543030 489.130646,809.110229 
	C487.791748,805.563660 485.110199,801.890320 485.556641,798.647461 
	C485.975891,795.602051 489.700104,793.011658 491.669983,790.589905 
	C489.564362,786.944092 486.328644,782.799622 484.680786,778.098450 
	C482.853302,772.884888 484.407318,767.525696 487.691193,762.973267 
	C493.422638,755.027893 505.043701,753.046509 517.099121,758.343323 
	C518.469666,755.137451 519.841980,751.927490 521.409851,748.260010 
	C523.614868,748.792053 525.942383,749.353577 529.977600,750.327209 
	C526.563782,755.182617 523.752197,759.181519 520.680054,763.550964 
	C520.759033,763.642944 521.502014,764.508179 522.482239,765.648804 
M521.596313,823.525146 
	C523.161133,817.489990 522.255005,813.814392 518.053589,813.341492 
	C510.164062,812.453369 502.144409,812.121216 494.224243,812.502136 
	C492.076630,812.605347 489.247864,815.733276 488.239349,818.112122 
	C486.888275,821.298767 488.252228,824.616455 491.338043,826.829895 
	C498.450409,831.931702 515.053772,830.471924 521.596313,823.525146 
M493.174805,779.622864 
	C496.725616,785.910767 503.714996,788.286499 510.617157,785.551575 
	C515.951111,783.438049 518.462830,777.571472 516.887939,770.905090 
	C515.502197,765.039368 510.442719,762.107971 502.857086,762.775757 
	C494.807648,763.484253 491.571228,768.738220 493.174805,779.622864 
z"/>
<path fill="#F7F7F7" opacity="1.000000" stroke="none" 
	d="
M618.262451,262.448486 
	C622.005981,258.756073 625.562500,255.391525 629.718079,251.460342 
	C629.731628,251.467529 628.851074,251.107666 628.085876,250.580338 
	C621.335022,245.927963 618.603027,239.474197 620.319763,231.511765 
	C622.008545,223.679001 627.377136,218.804626 635.056274,217.819290 
	C640.653198,217.101105 646.882812,217.110535 652.150940,218.851562 
	C665.780701,223.356018 668.426392,240.040268 657.502197,249.287567 
	C656.376892,250.240158 655.197754,251.129150 653.887207,252.172089 
	C654.333191,252.638962 654.574951,253.053787 654.935425,253.245865 
	C665.415771,258.830566 669.395752,265.887695 667.792725,276.095428 
	C666.297791,285.615265 659.714722,292.132812 648.631592,293.502106 
	C642.970947,294.201477 636.860840,293.967865 631.344482,292.591095 
	C618.107544,289.287506 612.735718,276.519623 618.262451,262.448486 
M625.243164,271.587738 
	C625.344360,272.575775 625.371826,273.577972 625.558655,274.549561 
	C626.821045,281.114624 630.848328,284.899780 637.623962,285.940002 
	C646.564148,287.312561 653.981506,284.660461 656.986572,279.016876 
	C659.939209,273.471802 659.010803,265.253967 654.634705,261.460175 
	C648.787720,256.391205 641.816040,256.365540 634.870911,258.270020 
	C628.751160,259.948151 625.749329,264.522705 625.243164,271.587738 
M654.707825,241.584702 
	C654.928162,240.110779 655.307251,238.640594 655.342285,237.162292 
	C655.524963,229.451645 650.194275,224.261459 642.124084,224.194824 
	C633.894958,224.126877 628.664978,229.035187 628.644043,236.845840 
	C628.627808,242.883408 631.802673,247.328033 637.192322,248.812927 
	C644.529175,250.834305 650.476562,248.571091 654.707825,241.584702 
z"/>
<path fill="#F7F7F7" opacity="1.000000" stroke="none" 
	d="
M625.809082,792.886108 
	C624.247070,805.300964 619.021179,811.516235 607.199463,813.277710 
	C601.269348,814.161377 594.830750,813.877869 588.984009,812.540283 
	C580.566345,810.614441 575.162048,804.787842 574.036743,795.864014 
	C572.755737,785.705078 576.171143,779.008911 584.733887,774.235046 
	C585.699890,773.696411 586.658325,773.143982 587.906738,772.435364 
	C586.925476,771.569519 586.256287,770.853882 585.470520,770.305298 
	C578.664917,765.553955 576.396973,758.931580 578.187683,751.098633 
	C579.919189,743.524231 585.234131,738.843262 592.696167,737.841003 
	C598.137268,737.110229 604.008972,737.295898 609.334595,738.562256 
	C616.318909,740.223083 620.513916,745.513672 621.686829,752.734863 
	C622.795898,759.563049 620.414917,765.139282 615.060120,769.475464 
	C613.935730,770.385986 612.820801,771.308167 611.196167,772.638977 
	C620.542114,776.381897 625.766052,782.621399 625.809082,792.886108 
M612.540833,801.991272 
	C616.959045,797.146240 617.251343,791.518066 615.185547,785.726196 
	C613.139709,779.990417 608.192749,778.010254 602.653198,777.464294 
	C600.053223,777.208008 597.334778,777.391479 594.753723,777.848511 
	C587.153687,779.194092 583.085876,784.085999 583.010559,791.585693 
	C582.935730,799.042603 587.005554,804.398682 594.403687,805.694153 
	C600.538330,806.768494 606.692383,806.712158 612.540833,801.991272 
M586.919434,752.706543 
	C586.707642,753.849854 586.367432,754.986206 586.304810,756.137573 
	C585.877991,763.983704 590.891418,769.071899 599.193420,769.284912 
	C607.840027,769.506775 613.210815,764.646057 613.126465,756.674927 
	C613.061462,750.531189 609.747559,746.307373 603.801208,744.789185 
	C596.329346,742.881470 590.813782,745.242737 586.919434,752.706543 
z"/>
<path fill="#EFEFEF" opacity="1.000000" stroke="none" 
	d="
M510.687317,415.629059 
	C502.618347,367.353821 494.636810,319.504547 486.518372,270.834534 
	C485.531342,272.043274 485.181427,272.826599 484.590729,273.112579 
	C483.692474,273.547455 482.627258,273.637543 481.632996,273.874084 
	C481.467590,272.969055 480.899139,271.885590 481.207092,271.190186 
	C482.481873,268.311493 483.956726,265.513245 485.514771,262.774628 
	C485.858276,262.170868 487.293274,261.440094 487.463959,261.596924 
	C490.585846,264.464966 493.591522,267.459534 496.621826,270.427277 
	C494.925537,270.926697 493.229248,271.426086 490.893311,272.113831 
	C506.997131,369.018799 523.292725,467.078186 539.605469,565.240479 
	C536.985474,566.672913 535.582214,566.409607 535.069519,563.282776 
	C529.740479,530.779602 524.340027,498.288055 518.968323,465.791809 
	C516.227966,449.214417 513.505371,432.634064 510.687317,415.629059 
z"/>
<path fill="#F6F6F6" opacity="1.000000" stroke="none" 
	d="
M826.039673,780.061279 
	C834.601746,794.796814 827.659607,810.823059 811.391541,813.420959 
	C805.793396,814.314941 799.665771,813.936096 794.122498,812.655701 
	C785.659363,810.700867 780.678162,804.574463 778.554871,795.453003 
	C780.889648,794.418518 783.201477,793.394165 785.482910,792.383301 
	C786.099365,793.029846 786.569763,793.318542 786.739197,793.730896 
	C791.248901,804.705444 801.139893,808.991943 812.243469,804.755005 
	C818.336548,802.429993 821.056885,797.106262 820.168213,789.246460 
	C819.468201,783.054749 815.406982,779.030396 808.648926,778.065430 
	C806.350891,777.737366 803.998291,777.757690 801.668640,777.694763 
	C799.539795,777.637268 797.408203,777.682556 795.031677,777.682556 
	C795.031677,775.060974 795.031677,772.793701 795.031677,770.006531 
	C798.284241,770.006531 801.413452,770.200867 804.510803,769.969238 
	C812.962158,769.337097 817.705872,764.018372 817.282043,755.897949 
	C816.894287,748.466797 812.373779,744.770203 803.670715,744.767334 
	C796.546875,744.765015 794.261658,745.983398 786.619080,754.013000 
	C784.951294,752.227722 783.296509,750.456421 781.696533,748.743774 
	C788.750854,735.633667 811.797363,732.510376 821.779358,743.089661 
	C828.589905,750.307617 827.646790,762.358521 819.717224,768.804749 
	C818.197571,770.040100 816.507812,771.066284 815.146057,772.015137 
	C818.790649,774.647095 822.320557,777.196289 826.039673,780.061279 
z"/>
<path fill="#FAFAFA" opacity="1.000000" stroke="none" 
	d="
M427.298096,265.326508 
	C432.759949,261.199341 437.943085,257.294861 443.122101,253.384903 
	C443.386810,253.185043 443.618469,252.940765 443.861359,252.712738 
	C451.786285,245.272079 453.509644,234.085983 447.615875,228.346222 
	C441.369629,222.263199 427.210388,224.330109 420.775146,232.277786 
	C419.946075,233.301697 419.192261,234.386536 417.910583,236.103699 
	C416.305878,233.733444 414.856140,231.592133 413.098206,228.995605 
	C419.966125,213.952423 445.732574,213.717926 454.639160,222.995728 
	C460.691345,229.300125 462.430847,240.939438 457.137115,248.937607 
	C453.813812,253.958694 449.152649,258.231018 444.572876,262.247742 
	C439.331421,266.844849 433.267334,270.506622 428.048645,275.126068 
	C425.267303,277.588043 423.515717,281.213379 421.299377,284.313660 
	C421.661316,284.723297 422.023285,285.132904 422.385223,285.542542 
	C434.802582,285.542542 447.219940,285.542542 459.880951,285.542542 
	C459.880951,288.109863 459.880951,290.222137 459.880951,293.009796 
	C452.307617,293.009796 444.558105,293.009796 436.808594,293.009796 
	C428.982544,293.009796 421.156464,293.009796 413.172272,293.009796 
	C411.581085,282.979797 414.429535,274.899200 422.673615,268.909851 
	C424.154449,267.834015 425.571838,266.670898 427.298096,265.326508 
z"/>
<path fill="#F6F6F6" opacity="1.000000" stroke="none" 
	d="
M449.289062,813.589783 
	C434.547485,815.045105 425.337158,810.995667 420.324707,801.151978 
	C414.549011,789.809448 416.018951,771.833618 423.752258,763.285034 
	C430.828094,755.463196 439.961395,754.052063 449.847046,755.980652 
	C459.039368,757.773926 464.927002,763.502197 467.741852,772.221130 
	C470.138397,779.644470 470.238403,787.283752 468.359314,794.890137 
	C465.900970,804.841370 459.872101,811.241455 449.289062,813.589783 
M439.932800,806.185974 
	C450.910126,807.133057 457.606079,803.630432 459.247131,794.310242 
	C460.394653,787.793030 460.179321,780.713623 458.962128,774.185669 
	C457.509552,766.395569 451.462372,762.866821 442.975586,762.925781 
	C434.753143,762.982910 428.583038,766.919373 427.251068,774.647583 
	C426.174927,780.891418 426.274414,787.524963 427.027130,793.845764 
	C427.820404,800.507080 432.231537,804.777649 439.932800,806.185974 
z"/>
<path fill="#EFEFEF" opacity="1.000000" stroke="none" 
	d="
M322.180664,632.668823 
	C334.241913,659.515808 346.172821,686.006897 358.365387,713.079102 
	C358.908875,711.675842 359.080719,710.636841 359.656006,709.922913 
	C360.176025,709.277466 361.136780,708.987122 361.903198,708.540161 
	C362.360962,709.327515 363.299225,710.186951 363.193787,710.889893 
	C362.726440,714.006531 361.964783,717.079407 361.293121,720.164551 
	C361.223541,720.484131 361.066254,721.033752 360.912964,721.046814 
	C359.607330,721.158386 357.959839,721.696106 357.043091,721.114990 
	C354.130707,719.268738 351.489685,716.994385 348.743805,714.885437 
	C350.294281,714.412598 351.844757,713.939758 353.843689,713.330139 
	C350.675995,706.196045 347.234802,698.364136 343.728149,690.561584 
	C314.663666,625.891724 285.576691,561.231995 256.559998,496.540680 
	C255.615280,494.434448 252.580231,491.456146 258.214233,490.231476 
	C279.479065,537.561157 300.764648,584.937073 322.180664,632.668823 
z"/>
<path fill="#EFEFEF" opacity="1.000000" stroke="none" 
	d="
M282.644012,408.682404 
	C278.508942,413.703522 274.607788,418.459015 270.717316,423.201508 
	C265.819153,421.505768 268.640442,419.345001 270.210297,417.426025 
	C291.388306,391.538116 312.596527,365.674896 333.787201,339.797333 
	C355.503510,313.277893 377.209106,286.749725 398.916168,260.222748 
	C399.322876,259.725739 399.690094,259.196442 400.507568,258.106415 
	C399.118225,258.106415 398.199768,258.315308 397.448242,258.050476 
	C396.616211,257.757324 395.432770,257.111115 395.330811,256.470764 
	C395.225708,255.810822 396.093475,254.510513 396.787415,254.292740 
	C399.791199,253.350052 402.867859,252.598846 405.962769,252.015396 
	C406.757690,251.865524 408.012238,252.327850 408.541840,252.947830 
	C409.986328,254.638702 408.399139,263.678009 406.033478,266.244751 
	C405.158875,264.561584 404.385803,263.073853 403.393677,261.164520 
	C363.131470,310.358917 323.004700,359.387848 282.644012,408.682404 
z"/>
<path fill="#EFEFEF" opacity="1.000000" stroke="none" 
	d="
M683.041748,272.905609 
	C684.713928,274.005341 686.009644,275.023499 687.305298,276.041687 
	C685.927734,276.737823 684.550232,277.433960 682.827942,278.304321 
	C683.223206,278.965271 683.774231,280.077850 684.495789,281.066010 
	C717.740906,326.597504 751.003601,372.116150 784.249756,417.646881 
	C785.604309,419.501892 788.268127,421.566437 783.406738,423.244293 
	C748.549561,375.629822 713.625244,327.923645 678.880920,280.463409 
	C677.781433,281.976868 676.772949,283.365021 675.764526,284.753174 
	C675.106445,283.095642 674.444214,281.439789 673.797852,279.777740 
	C673.741638,279.633087 673.790161,279.447601 673.790527,279.281097 
	C673.811340,269.888092 673.811340,269.888092 683.041748,272.905609 
z"/>
<path fill="#F6F6F6" opacity="1.000000" stroke="none" 
	d="
M555.596924,736.512817 
	C557.603210,732.646484 560.510193,733.433350 563.758240,734.054688 
	C547.136719,763.813293 547.089722,793.348755 563.668945,823.161499 
	C559.821777,824.908630 557.466736,823.604614 555.066956,820.340271 
	C538.661072,798.023987 538.066711,759.791321 555.596924,736.512817 
z"/>
<path fill="#F6F6F6" opacity="1.000000" stroke="none" 
	d="
M653.231689,754.764099 
	C659.577515,778.018616 658.047485,799.804932 644.481995,820.013855 
	C642.382507,823.141541 640.142822,824.869385 635.704834,823.360229 
	C652.252686,793.840698 652.505859,764.171753 635.758362,734.302917 
	C639.271057,732.860474 642.110413,733.183289 643.989868,736.769775 
	C647.059021,742.626404 650.068359,748.514404 653.231689,754.764099 
z"/>
<path fill="#FDFDFD" opacity="1.000000" stroke="none" 
	d="
M398.019928,779.000000 
	C398.019928,785.153320 398.017334,790.806641 398.020508,796.459961 
	C398.025848,805.940796 398.417786,806.342346 407.801910,806.386353 
	C408.154266,808.298401 408.511200,810.235229 408.862030,812.138855 
	C401.000916,817.129883 390.939423,812.780701 390.022919,803.765869 
	C389.436737,797.999878 389.672089,792.143555 389.660309,786.327515 
	C389.625946,769.367676 389.652008,752.407715 389.658875,735.447815 
	C389.659027,735.117126 389.714569,734.786438 389.781616,734.039917 
	C392.272064,734.039917 394.813721,734.039917 398.019928,734.039917 
	C398.019928,748.740906 398.019928,763.620483 398.019928,779.000000 
z"/>
<path fill="#F3F3F3" opacity="1.000000" stroke="none" 
	d="
M477.159698,251.201111 
	C472.364685,249.513641 469.556519,246.589417 468.713287,241.601807 
	C470.519043,240.730301 472.264954,239.887711 473.976044,239.061920 
	C479.029388,245.543839 482.360840,247.420425 486.450378,244.883377 
	C488.311310,243.728882 490.095154,240.260330 489.769379,238.176773 
	C488.747406,231.641251 482.957977,233.399673 478.240143,232.843933 
	C478.240143,231.176849 478.240143,229.465881 478.240143,227.642395 
	C481.683105,226.268219 487.394135,229.201477 488.212280,222.965637 
	C488.444092,221.198517 487.449707,218.157059 486.125244,217.500565 
	C481.495789,215.205948 477.503845,217.126511 474.338013,221.429779 
	C472.739655,219.668015 471.427917,218.222183 470.139343,216.801895 
	C475.103699,210.505112 483.999573,208.490570 490.771515,211.991089 
	C496.354065,214.876816 497.690002,222.148361 493.448883,226.803192 
	C492.572235,227.765320 491.502441,228.551468 490.490967,229.445877 
	C497.030212,233.959854 498.768524,237.946945 496.963318,244.065369 
	C495.432465,249.254105 490.795776,252.035568 483.454041,251.990433 
	C481.483826,251.978333 479.516144,251.558792 477.159698,251.201111 
z"/>
<path fill="#EFEFEF" opacity="1.000000" stroke="none" 
	d="
M262.936646,479.047058 
	C264.457703,478.036530 265.714600,477.286926 266.971802,476.537842 
	C263.505157,471.730133 263.678223,470.429749 268.260620,466.856415 
	C263.636292,461.491638 262.783234,456.692993 265.660797,452.231750 
	C268.558136,447.739716 273.810577,446.612518 281.812378,448.765442 
	C284.549438,444.042450 284.549438,444.042450 288.714325,445.027008 
	C287.103119,447.510284 285.677094,449.708191 284.182434,452.011841 
	C289.407654,460.623138 285.156982,468.366547 274.684967,468.702606 
	C273.855621,468.729218 272.901031,468.416565 272.221405,468.730621 
	C271.137177,469.231567 270.235107,470.126740 269.256042,470.855225 
	C270.156158,471.859711 270.941162,473.564789 271.978302,473.735260 
	C274.906982,474.216461 277.948669,473.951141 280.928253,474.194977 
	C285.429077,474.563263 289.194397,476.188263 289.652771,481.344788 
	C290.075928,486.105194 287.643341,489.957214 283.186676,490.705841 
	C277.937775,491.587585 272.265839,491.724823 267.075165,490.690369 
	C261.670288,489.613281 260.263611,484.674438 262.936646,479.047058 
M282.691528,486.442749 
	C285.816193,482.444305 285.518829,479.683960 281.653687,479.072784 
	C278.080109,478.507721 274.352173,478.218994 270.784729,478.623810 
	C269.119751,478.812744 266.377716,480.986084 266.430756,482.155334 
	C266.510803,483.920227 268.430939,486.855957 269.886292,487.062897 
	C273.837891,487.624817 277.956299,487.013977 282.691528,486.442749 
M269.087860,460.982330 
	C270.934174,464.657776 274.237030,465.318146 277.523712,464.044067 
	C279.333527,463.342499 281.490448,461.120239 281.709961,459.361328 
	C281.967865,457.294800 280.894714,454.032257 279.302795,453.030945 
	C277.404877,451.837189 274.112030,451.776764 271.841248,452.513306 
	C268.397461,453.630249 268.507629,457.039581 269.087860,460.982330 
z"/>
<path fill="#F7F7F7" opacity="1.000000" stroke="none" 
	d="
M357.310364,764.557312 
	C363.457642,764.940308 369.436035,764.940308 375.761658,764.940308 
	C375.761658,767.121582 375.761658,768.997314 375.761658,770.958008 
	C367.125977,770.958008 358.518524,770.958008 349.858368,770.958008 
	C348.874817,764.250610 350.864624,759.024719 356.291046,755.134338 
	C359.399200,752.905945 362.484344,750.624939 365.402069,748.157410 
	C368.194885,745.795471 370.374054,742.952393 368.179291,739.079590 
	C366.670380,736.417114 361.240265,735.918945 357.717987,738.099182 
	C356.194427,739.042236 354.949982,740.436157 353.041809,742.090759 
	C351.786102,740.716675 350.467072,739.273254 349.239624,737.930115 
	C353.195007,729.185547 366.782654,728.979858 372.105408,732.828674 
	C377.108765,736.446533 378.092773,744.225708 373.537720,749.178772 
	C370.305695,752.693359 366.177826,755.370789 362.572815,758.560913 
	C360.628815,760.281128 358.943481,762.293701 357.310364,764.557312 
z"/>
<path fill="#EFEFEF" opacity="1.000000" stroke="none" 
	d="
M931.631775,468.686646 
	C930.214844,468.687958 929.084229,468.356415 928.254456,468.716949 
	C927.064819,469.233856 926.094666,470.255829 925.030884,471.062195 
	C926.154053,472.022217 927.175232,473.616974 928.420471,473.816956 
	C931.514099,474.313812 934.738770,473.948547 937.857300,474.347961 
	C941.735291,474.844574 944.874878,476.519897 945.320190,481.023010 
	C945.743774,485.305969 944.257507,489.245331 940.148071,490.154999 
	C934.968994,491.301331 929.435486,491.436859 924.107117,491.122620 
	C920.185181,490.891327 916.963379,487.973877 917.307007,483.880005 
	C917.535339,481.160278 919.984985,478.627014 921.789856,475.381744 
	C919.177124,471.593658 919.332886,470.539124 924.166382,466.747223 
	C919.659546,462.009735 918.583679,456.943420 921.156067,452.570770 
	C923.974243,447.780029 929.362183,446.542511 937.632385,448.786346 
	C940.401428,443.809326 940.401428,443.809326 944.390991,445.393158 
	C942.891296,447.620087 941.476013,449.721649 939.966797,451.962799 
	C944.851013,460.166718 941.988586,466.495270 931.631775,468.686646 
M930.576538,488.051331 
	C933.138550,487.560089 935.899658,487.489380 938.182678,486.408722 
	C939.412842,485.826416 940.319702,483.545135 940.416870,481.971436 
	C940.473816,481.049072 938.739807,479.285278 937.659729,479.154633 
	C933.745361,478.681213 929.733765,478.398285 925.829895,478.776306 
	C924.430359,478.911865 922.315735,481.042633 922.192078,482.412933 
	C922.060974,483.866577 923.611328,485.885529 924.981018,486.934784 
	C926.151978,487.831787 928.106567,487.705780 930.576538,488.051331 
M936.968750,454.579559 
	C932.545593,450.315826 926.163452,450.657196 925.044128,455.518646 
	C924.511719,457.831055 925.158081,461.749908 926.739502,462.873505 
	C928.681763,464.253418 932.509460,464.355286 934.888550,463.411865 
	C938.189758,462.102875 938.468262,458.639130 936.968750,454.579559 
z"/>
<path fill="#F0F0F0" opacity="1.000000" stroke="none" 
	d="
M99.975006,478.200012 
	C87.452393,473.337402 87.287033,449.957916 95.494415,442.199585 
	C102.777557,435.314972 120.802040,436.234863 123.083862,445.948883 
	C122.173058,446.598633 121.158325,447.322510 120.254509,447.967255 
	C119.678192,447.643982 119.283546,447.557922 119.133240,447.318451 
	C115.753906,441.934814 110.551224,441.386536 105.061211,442.354767 
	C99.460938,443.342468 96.326797,447.196686 95.729752,452.660004 
	C95.284767,456.731903 95.103394,461.001282 95.827980,464.997162 
	C97.341377,473.343079 104.871346,477.273254 112.835548,474.420685 
	C117.664085,472.691284 119.255608,469.139099 118.531548,461.281311 
	C114.990898,461.281311 111.399399,461.281311 107.807907,461.281311 
	C107.467491,460.878845 107.127075,460.476349 106.786659,460.073883 
	C107.754829,459.086700 108.667717,457.320679 109.700760,457.247345 
	C114.149338,456.931519 118.633163,457.112366 123.427414,457.112366 
	C123.427414,464.515381 123.427414,471.581268 123.427414,478.838776 
	C122.053963,478.838776 120.778618,478.838776 119.225578,478.838776 
	C119.107368,477.324188 118.995377,475.889313 118.842667,473.932678 
	C113.622795,480.155762 107.316780,480.869049 99.975006,478.200012 
z"/>
<path fill="#F1F1F1" opacity="1.000000" stroke="none" 
	d="
M713.994507,465.814514 
	C710.336243,476.253326 703.374268,480.885040 693.912598,479.537048 
	C684.266235,478.162750 678.457275,471.447784 678.125366,460.811676 
	C678.017578,457.359955 678.294983,453.779419 679.123779,450.438232 
	C681.208984,442.031219 688.031433,437.307098 696.975464,437.578308 
	C705.701294,437.842957 712.293213,442.728394 713.793640,451.080139 
	C714.627625,455.722504 714.018127,460.624207 713.994507,465.814514 
M690.913879,443.051544 
	C684.095459,447.070068 681.834595,453.991486 683.890076,464.553680 
	C685.283813,471.715179 689.613831,475.219879 696.821777,475.020386 
	C703.647888,474.831512 708.051636,471.044891 708.973022,464.192444 
	C709.369263,461.245453 709.438965,458.198181 709.202698,455.232635 
	C708.370361,444.786346 702.049622,440.393799 690.913879,443.051544 
z"/>
<path fill="#EFEFEF" opacity="1.000000" stroke="none" 
	d="
M249.432999,445.906708 
	C249.433014,442.463196 249.433014,439.490051 249.433014,436.156097 
	C251.001526,436.057343 252.394165,435.969696 253.969269,435.870544 
	C253.969269,450.308472 253.969269,464.409851 253.969269,479.709198 
	C251.826920,478.583862 250.139053,477.697235 247.596115,476.361450 
	C247.766129,476.240936 246.841843,477.333954 245.717117,477.609833 
	C242.587723,478.377502 239.294220,479.544556 236.212936,479.207275 
	C230.594269,478.592194 227.170517,474.418579 226.330948,467.712585 
	C225.460251,460.757904 225.814240,453.886932 232.411911,449.412689 
	C237.033722,446.278320 242.990204,447.158173 249.179230,451.897980 
	C249.278915,449.729034 249.355957,448.053040 249.432999,445.906708 
M249.370895,464.378662 
	C249.276154,462.890686 249.292480,461.385651 249.066483,459.917877 
	C248.297394,454.922699 245.194580,452.069336 240.489502,451.910583 
	C235.528030,451.743195 232.304443,454.064880 231.464264,459.223663 
	C230.970108,462.258057 231.026886,465.548187 231.639725,468.559723 
	C232.681244,473.677917 235.887482,475.684540 241.063507,475.258179 
	C246.136673,474.840302 248.445572,472.039276 249.370895,464.378662 
z"/>
<path fill="#F3F3F3" opacity="1.000000" stroke="none" 
	d="
M481.373535,634.374512 
	C481.025055,620.074158 481.025055,605.969482 481.025055,590.723572 
	C483.016785,591.574646 484.840118,592.353760 487.442444,593.465759 
	C487.491577,593.434937 488.548920,592.688232 489.679443,592.076965 
	C496.929108,588.156860 505.437805,591.581055 507.712708,599.478638 
	C508.394714,601.846191 508.732544,604.401367 508.715515,606.867065 
	C508.618805,620.875000 498.290253,626.594604 485.164673,618.868591 
	C485.164673,623.420471 484.997803,627.443604 485.221405,631.444885 
	C485.379028,634.264771 484.215118,635.013123 481.373535,634.374512 
M485.164154,606.511597 
	C485.358765,607.991821 485.428497,609.501648 485.770508,610.947021 
	C486.996490,616.127686 489.935150,618.448364 494.883484,618.326843 
	C499.838501,618.205078 502.726105,615.556763 503.219299,610.789551 
	C503.554932,607.545654 503.511749,604.139465 502.890839,600.951355 
	C502.150330,597.149170 499.390381,595.101868 495.375641,594.882446 
	C489.139679,594.541626 486.438873,597.366455 485.164154,606.511597 
z"/>
<path fill="#EFEFEF" opacity="1.000000" stroke="none" 
	d="
M724.014526,470.999817 
	C724.014526,463.197327 724.014526,455.894745 724.014526,446.838196 
	C726.663513,448.602295 728.284668,449.681885 729.387085,450.416046 
	C733.270691,449.614655 737.546326,448.414001 741.897339,447.993164 
	C743.608704,447.827637 745.749573,449.072601 747.245728,450.247253 
	C753.058960,454.811066 754.004822,467.997223 749.186523,474.691101 
	C744.827637,480.746765 737.177734,481.286255 728.833130,475.683258 
	C728.833130,478.452087 728.833191,480.856628 728.833191,483.261169 
	C728.833191,485.753052 728.833130,488.244934 728.833130,491.200378 
	C727.363342,491.365936 725.992798,491.520294 724.014526,491.743134 
	C724.014526,484.709076 724.014526,478.104431 724.014526,470.999817 
M729.131287,459.246948 
	C729.154419,462.227051 728.770203,465.280670 729.291687,468.170837 
	C730.178528,473.085449 733.683105,475.516968 738.585266,475.300446 
	C743.247375,475.094513 746.131775,472.529327 746.885925,467.623627 
	C747.186340,465.669647 747.163452,463.640778 747.069824,461.656250 
	C746.807007,456.085144 744.400452,452.794708 740.177856,452.013702 
	C734.974243,451.051270 731.959717,452.840088 729.131287,459.246948 
z"/>
<path fill="#F1F1F1" opacity="1.000000" stroke="none" 
	d="
M440.709290,602.582214 
	C434.783020,602.861084 429.141418,602.861084 423.415680,602.861084 
	C423.415680,608.113220 423.415680,612.889893 423.415680,617.983643 
	C429.413452,617.983643 435.236145,617.848633 441.043030,618.091675 
	C442.279724,618.143494 443.458862,619.570496 444.664490,620.363953 
	C444.424133,620.824463 444.183746,621.284973 443.943359,621.745483 
	C435.541321,621.745483 427.139313,621.745483 418.492188,621.745483 
	C418.492188,608.346008 418.492188,595.083862 418.492188,581.436890 
	C426.720459,581.436890 434.938080,581.436890 443.336090,581.436890 
	C444.348053,584.007629 443.788391,585.273438 440.620514,585.193054 
	C435.008026,585.050720 429.389374,585.153137 423.509186,585.153137 
	C423.509186,589.750366 423.509186,593.847656 423.509186,598.784119 
	C428.356018,598.784119 433.278473,598.946167 438.183563,598.724121 
	C441.182068,598.588379 441.594177,599.904724 440.709290,602.582214 
z"/>
<path fill="#EDEDED" opacity="1.000000" stroke="none" 
	d="
M602.666260,618.188721 
	C605.302734,616.872192 607.518372,615.606567 610.264160,614.038147 
	C610.531250,614.182495 611.527954,614.721130 612.629395,615.316406 
	C610.578674,621.009399 606.038574,622.641418 600.821533,622.684509 
	C595.378906,622.729492 590.573181,620.952942 588.133057,615.584595 
	C585.536011,609.871094 585.445618,603.958618 587.986328,598.198547 
	C590.743164,591.948792 597.608093,589.148376 604.794617,591.087891 
	C611.043518,592.774414 613.726807,598.244690 612.648071,607.654541 
	C605.803406,607.654541 598.885193,607.654541 592.006897,607.654541 
	C591.476196,615.384216 594.216736,618.088623 602.666260,618.188721 
M593.220520,597.945740 
	C592.636841,599.752014 592.053223,601.558289 591.415649,603.531494 
	C597.366089,603.531494 602.703369,603.531494 609.926331,603.531494 
	C607.552795,600.079529 606.422546,596.794617 604.163025,595.534485 
	C600.781189,593.648499 596.777344,594.095032 593.220520,597.945740 
z"/>
<path fill="#EDEDED" opacity="1.000000" stroke="none" 
	d="
M295.820374,471.973969 
	C295.200073,468.679291 294.249756,465.734589 294.318298,462.813812 
	C294.553040,452.806061 300.435425,447.132294 309.535980,447.693420 
	C318.012787,448.216095 321.608917,453.454163 320.733459,464.700439 
	C313.765533,464.700439 306.714935,464.700439 299.533722,464.700439 
	C299.492798,469.461914 300.655670,473.172729 304.768219,474.604187 
	C309.683502,476.315033 314.338745,475.611267 317.455444,470.545715 
	C318.602783,471.231110 319.573608,471.811066 320.584900,472.415192 
	C318.678101,477.729065 314.454926,479.452301 309.558624,479.645477 
	C303.719971,479.875854 298.688812,478.119537 295.820374,471.973969 
M304.635681,460.876556 
	C308.404205,460.876556 312.172699,460.876556 315.931396,460.876556 
	C316.047821,454.432281 313.924591,451.839081 308.702393,451.694641 
	C303.053894,451.538422 300.339264,454.229095 299.904938,460.673615 
	C301.166992,460.741272 302.428192,460.808899 304.635681,460.876556 
z"/>
<path fill="#EFEFEF" opacity="1.000000" stroke="none" 
	d="
M369.738281,475.835327 
	C365.988617,478.478882 362.244995,480.514160 357.311981,479.401917 
	C352.950409,478.418549 350.689423,475.760254 350.241180,471.515930 
	C349.788483,467.229553 351.545044,463.914703 355.631714,462.409180 
	C358.726196,461.269226 362.193695,461.075867 365.191284,459.765808 
	C366.786865,459.068512 367.736908,456.894257 368.978302,455.386627 
	C367.413574,454.210083 365.756317,451.948151 364.302429,452.072052 
	C360.750061,452.374847 357.291779,453.781128 353.745087,455.327026 
	C351.153046,454.342255 350.865936,452.628571 353.701538,450.597870 
	C358.421265,447.217926 363.606995,446.669464 368.849060,448.686218 
	C374.078613,450.698181 373.903137,455.528107 373.866058,460.101929 
	C373.841766,463.097595 373.808624,466.094849 373.877075,469.089111 
	C373.940186,471.848846 372.732513,475.332428 377.446350,475.721802 
	C377.739349,475.745972 377.894958,477.433350 378.207153,478.732513 
	C374.746155,479.364990 371.733704,479.949982 369.738281,475.835327 
M355.463898,468.187225 
	C356.042816,470.416077 356.000488,473.933105 357.342316,474.580231 
	C359.504608,475.623199 363.051636,475.663788 365.171082,474.539398 
	C369.642670,472.167206 369.412415,467.525269 368.834869,462.383789 
	C364.300751,464.173492 360.082855,465.838379 355.463898,468.187225 
z"/>
<path fill="#F1F1F1" opacity="1.000000" stroke="none" 
	d="
M780.114624,451.080017 
	C786.941650,446.419861 794.844299,446.513245 799.717590,451.060394 
	C804.653748,455.666199 805.839905,466.367706 802.148132,472.989136 
	C798.986755,478.659180 792.234070,481.053253 785.192261,479.000519 
	C776.465027,476.456451 772.547363,464.037567 777.531494,454.564178 
	C778.142944,453.401855 779.064758,452.402832 780.114624,451.080017 
M799.211670,464.376190 
	C798.978394,455.989502 796.819397,452.544861 791.416443,451.939178 
	C783.931885,451.100159 780.070984,455.719482 780.602173,464.877838 
	C781.006042,471.841797 783.796326,475.121613 789.480286,475.313232 
	C795.580444,475.518921 798.389526,472.602417 799.211670,464.376190 
z"/>
<path fill="#EFEFEF" opacity="1.000000" stroke="none" 
	d="
M183.989685,463.073303 
	C183.568542,474.591888 177.670746,480.625824 168.236618,479.640961 
	C159.655258,478.745178 154.755966,472.353790 155.238007,462.683594 
	C155.705856,453.298279 160.706726,447.882172 169.127869,447.640381 
	C178.126221,447.382080 183.109665,452.410583 183.989685,463.073303 
M163.399094,473.220673 
	C171.478302,478.083771 178.557907,474.526062 178.931885,465.262726 
	C179.036484,462.671875 178.712540,459.955475 177.999115,457.464508 
	C176.845703,453.437256 173.703766,451.901215 169.636353,451.882416 
	C165.530975,451.863434 162.439865,453.548889 161.209717,457.470581 
	C159.577042,462.675446 159.447418,467.897614 163.399094,473.220673 
z"/>
<path fill="#EFEFEF" opacity="1.000000" stroke="none" 
	d="
M539.184082,593.763794 
	C544.968872,600.154175 545.132446,607.233093 542.581482,614.490295 
	C540.553528,620.259583 534.557190,623.379578 528.117249,622.649475 
	C521.785645,621.931702 517.444946,618.443054 516.065430,612.506409 
	C514.409607,605.380798 514.717834,598.494934 520.775208,593.332703 
	C525.354004,589.430603 532.606750,589.707458 539.184082,593.763794 
M538.234131,612.323547 
	C538.322144,608.732300 539.054443,605.010071 538.356934,601.578491 
	C537.107544,595.431885 530.612000,592.902954 525.064026,595.852661 
	C521.145508,597.936035 519.340637,603.620972 520.508789,610.034363 
	C521.241211,614.055969 522.849243,617.371216 527.345154,618.086182 
	C531.954102,618.819153 535.968811,618.010986 538.234131,612.323547 
z"/>
<path fill="#F1F1F1" opacity="1.000000" stroke="none" 
	d="
M573.392212,608.041565 
	C573.391174,606.055298 573.420532,604.556091 573.383301,603.058533 
	C573.284363,599.078918 573.121216,595.191467 567.683411,594.823792 
	C562.244568,594.456055 558.385803,597.054810 557.991394,602.490784 
	C557.535950,608.768433 557.885437,615.104431 557.885437,621.717163 
	C555.876404,621.717163 554.487549,621.717163 552.971375,621.717163 
	C552.971375,611.677185 552.971375,601.713867 552.971375,590.469360 
	C555.278687,591.626953 557.065857,592.523560 559.250000,593.619324 
	C560.143555,593.084900 561.587463,591.918518 563.236145,591.286621 
	C571.188538,588.238953 577.787842,592.607788 578.011597,601.152649 
	C578.189636,607.949402 578.047485,614.754517 578.047485,621.787598 
	C576.549255,621.787598 575.300720,621.787598 573.392212,621.787598 
	C573.392212,617.382202 573.392212,612.955811 573.392212,608.041565 
z"/>
<path fill="#F1F1F1" opacity="1.000000" stroke="none" 
	d="
M645.708618,621.820312 
	C644.186035,621.928589 643.060120,621.860840 641.767090,621.783142 
	C641.767090,615.411743 641.834351,609.259583 641.747986,603.109558 
	C641.663330,597.081726 640.034302,595.013062 635.506165,594.805481 
	C630.169250,594.560730 626.486572,597.444641 626.073364,602.884155 
	C625.671021,608.180664 625.882141,613.523926 625.826721,618.846619 
	C625.818237,619.661377 625.825562,620.476257 625.825562,621.670837 
	C624.268188,621.813477 622.893738,621.939331 621.253418,622.089539 
	C621.253418,611.686035 621.253418,601.598633 621.253418,589.964172 
	C623.563477,591.683716 625.070129,592.805237 626.179016,593.630615 
	C629.624878,592.739319 633.516663,591.014465 637.459595,590.888123 
	C642.811157,590.716492 645.792297,593.781555 646.041443,599.228088 
	C646.382507,606.685547 646.113098,614.170959 645.708618,621.820312 
z"/>
<path fill="#F1F1F1" opacity="1.000000" stroke="none" 
	d="
M885.059204,449.518463 
	C888.896851,447.653412 888.896851,447.653412 890.167053,451.785614 
	C892.053833,450.566528 893.818115,448.891754 895.911133,448.169830 
	C903.640015,445.503967 909.833618,449.544769 910.183533,457.591980 
	C910.486389,464.555908 910.246399,471.543457 910.246399,478.771759 
	C908.747314,478.771759 907.347656,478.771759 905.767090,478.771759 
	C905.767090,472.411865 905.834290,466.260834 905.748108,460.112000 
	C905.663635,454.083832 904.036194,452.015137 899.510925,451.805847 
	C894.174011,451.559021 890.488647,454.440460 890.074463,459.876678 
	C889.670959,465.171967 889.882324,470.514191 889.826721,475.835815 
	C889.818237,476.651031 889.825562,477.466400 889.825562,478.662750 
	C888.274048,478.811096 886.898438,478.942596 885.025513,479.121674 
	C885.025513,469.180939 885.025513,459.572815 885.059204,449.518463 
z"/>
<path fill="#F3F3F3" opacity="1.000000" stroke="none" 
	d="
M200.117279,454.172180 
	C198.937683,458.252747 197.682053,462.003601 197.264862,465.845490 
	C196.819077,469.950806 197.164413,474.141998 197.164413,478.712769 
	C195.725189,478.820923 194.362091,478.923340 192.755569,479.044037 
	C192.755569,468.628876 192.755569,458.553986 192.755569,448.302673 
	C194.048584,448.236115 195.174988,448.178131 196.647583,448.102325 
	C196.844772,449.630920 197.025406,451.031281 197.228638,452.606720 
	C197.663483,452.293762 198.112839,452.098175 198.379700,451.759003 
	C202.027969,447.122192 206.967651,446.822662 211.949249,448.355042 
	C216.870636,449.868927 217.801025,454.326691 217.877045,458.838501 
	C217.986053,465.308929 217.904816,471.782562 217.904816,478.658600 
	C216.432480,478.808167 215.055908,478.948059 213.104645,479.146301 
	C213.104645,472.710876 213.389999,466.585876 212.974487,460.508820 
	C212.789215,457.799194 211.772308,453.474915 210.108658,452.912415 
	C207.305664,451.964661 203.686249,453.431366 200.117279,454.172180 
z"/>
<path fill="#EDEDED" opacity="1.000000" stroke="none" 
	d="
M826.193115,466.717896 
	C822.818359,465.642303 819.739258,464.932526 816.773071,463.899017 
	C812.505615,462.412048 810.281433,459.396606 810.859070,454.732758 
	C811.395813,450.399719 814.365784,448.472168 818.283813,447.916321 
	C823.292358,447.205780 828.223022,447.173798 831.744690,453.337341 
	C830.273193,453.337341 828.791992,453.435303 827.335083,453.289886 
	C826.739502,453.230469 826.228271,452.570770 825.624451,452.309631 
	C821.675415,450.602112 816.045837,451.770569 815.541565,454.621094 
	C814.639343,459.720795 818.966187,459.780029 822.119507,460.905487 
	C824.900513,461.898041 828.075500,462.399475 830.339844,464.099121 
	C835.036621,467.624695 833.773376,475.657166 828.306458,478.218292 
	C822.961365,480.722412 817.618774,480.204956 812.617126,477.147644 
	C809.548828,475.272095 808.680420,473.111053 810.869202,471.910583 
	C815.860840,473.256104 819.483154,474.974915 823.133911,475.037720 
	C828.252869,475.125732 829.513733,471.558807 826.193115,466.717896 
z"/>
<path fill="#EDEDED" opacity="1.000000" stroke="none" 
	d="
M839.398071,475.757996 
	C839.409119,473.966705 839.675537,472.421295 839.695068,472.307892 
	C844.747070,473.387421 848.674561,474.649719 852.653687,474.841431 
	C853.999329,474.906281 856.485596,472.342102 856.606323,470.831970 
	C856.725525,469.340698 854.837891,467.042297 853.248535,466.211273 
	C850.805969,464.934113 847.807312,464.774811 845.150085,463.841064 
	C841.105225,462.419678 838.791931,459.480164 839.218567,455.096100 
	C839.626709,450.901794 842.423340,448.585266 846.425842,447.967590 
	C851.448792,447.192352 856.417114,447.071381 861.425232,453.100494 
	C858.705688,453.153778 857.179626,453.353027 855.698669,453.175934 
	C852.967468,452.849335 850.238037,451.876648 847.557678,452.032257 
	C846.288086,452.105957 844.292847,454.071259 844.157715,455.342407 
	C844.015564,456.678436 845.373962,458.867950 846.663208,459.513885 
	C849.139526,460.754517 852.019836,461.207520 854.751099,461.916138 
	C859.204834,463.071655 861.687134,465.970520 861.618042,470.505615 
	C861.545715,475.258392 858.840393,478.147156 854.163879,479.178162 
	C848.827515,480.354645 843.932251,479.612915 839.398071,475.757996 
z"/>
<path fill="#F6F6F6" opacity="1.000000" stroke="none" 
	d="
M539.229248,269.886719 
	C537.270386,269.886719 535.779053,269.886719 533.932251,269.886719 
	C533.932251,267.518372 533.932251,265.303528 533.932251,262.865784 
	C548.438110,262.865784 562.839050,262.865784 577.583618,262.865784 
	C577.583618,265.074951 577.583618,267.252502 577.583618,269.886719 
	C564.876709,269.886719 552.286743,269.886719 539.229248,269.886719 
z"/>
<path fill="#F7F7F7" opacity="1.000000" stroke="none" 
	d="
M561.996399,241.086594 
	C567.449158,241.086594 572.402893,241.086594 577.636963,241.086594 
	C577.636963,243.501953 577.636963,245.581863 577.636963,247.977631 
	C563.185425,247.977631 548.678467,247.977631 533.874634,247.977631 
	C533.874634,245.919647 533.874634,243.847321 533.874634,241.086594 
	C543.070251,241.086594 552.283813,241.086594 561.996399,241.086594 
z"/>
<path fill="#F7F7F7" opacity="1.000000" stroke="none" 
	d="
M705.088623,789.884338 
	C702.474426,789.884338 700.348877,789.884338 698.053833,789.884338 
	C698.053833,787.292236 698.053833,785.175964 698.053833,782.855469 
	C712.672729,782.855469 727.124756,782.855469 741.823975,782.855469 
	C741.823975,785.049194 741.823975,787.156189 741.823975,789.884338 
	C729.783325,789.884338 717.680359,789.884338 705.088623,789.884338 
z"/>
<path fill="#FAFAFA" opacity="1.000000" stroke="none" 
	d="
M698.662476,768.094849 
	C698.094910,765.836243 697.952209,763.726135 697.791199,761.344360 
	C712.673035,761.344360 727.185242,761.344360 741.881531,761.344360 
	C741.881531,763.640686 741.881531,765.743958 741.881531,768.243347 
	C727.540833,768.243347 713.314148,768.243347 698.662476,768.094849 
z"/>
<path fill="#F0F0F0" opacity="1.000000" stroke="none" 
	d="
M466.141602,608.685486 
	C468.712463,613.157959 471.116852,617.297974 473.541687,621.473206 
	C468.758453,623.543823 467.462921,620.228149 465.839691,617.333740 
	C464.316895,614.618408 462.668732,611.973328 461.152740,609.426697 
	C455.748657,612.706848 457.334747,622.525757 447.835480,621.979248 
	C450.613342,617.317017 452.921783,613.093811 455.584686,609.107422 
	C457.126221,606.799744 456.978516,605.070068 455.459747,602.850220 
	C453.038696,599.311401 450.958496,595.539490 448.336792,591.209900 
	C457.339325,590.490479 456.251740,599.636169 460.961151,602.428772 
	C465.682343,599.664612 464.511353,590.552551 473.466858,591.082031 
	C470.900757,595.398560 468.454346,599.096802 466.488342,603.034851 
	C465.745789,604.522278 466.113495,606.563965 466.141602,608.685486 
z"/>
<path fill="#EDEDED" opacity="1.000000" stroke="none" 
	d="
M662.750061,587.291626 
	C662.088440,592.640320 665.782959,590.720642 667.969604,591.017334 
	C670.157654,591.314148 673.430664,590.070251 672.314514,594.815918 
	C669.344543,594.815918 666.405640,594.815918 662.904846,594.815918 
	C662.904846,601.713257 662.250732,608.369873 663.101868,614.827942 
	C663.847107,620.481750 668.474243,617.901306 671.901062,617.286926 
	C674.103943,619.772705 673.468872,621.205017 670.339966,622.160645 
	C663.126221,624.363770 658.078857,620.824768 657.982117,613.248657 
	C657.905823,607.273865 657.966797,601.297302 657.966797,595.534668 
	C655.999146,594.172180 651.458435,596.813538 652.922974,591.314514 
	C654.393860,591.165894 655.971558,591.006470 657.807739,590.820923 
	C657.905762,588.875427 658.004211,586.921997 658.112915,584.764893 
	C660.281982,584.281372 662.835876,582.361023 662.750061,587.291626 
z"/>
<path fill="#EAEAEA" opacity="1.000000" stroke="none" 
	d="
M342.177673,479.286926 
	C333.703644,480.204468 330.541565,477.608154 330.349823,469.713409 
	C330.212708,464.068756 330.323212,458.418121 330.323212,452.432434 
	C328.714935,452.197235 327.152283,451.968689 325.590210,451.735352 
	C325.245789,448.349030 325.245789,448.349030 330.044037,447.573700 
	C330.539154,441.590820 330.539154,441.590820 334.907806,441.231598 
	C335.015289,443.338043 335.122559,445.439789 335.233429,447.611481 
	C338.536652,448.018372 341.713379,448.368042 344.855225,448.917145 
	C345.015411,448.945160 344.875854,450.688049 344.875854,451.877625 
	C341.681244,451.877625 338.724030,451.877625 335.182861,451.877625 
	C335.182861,458.510651 334.900696,464.932281 335.284882,471.313782 
	C335.529480,475.376312 338.130981,476.062653 344.360199,474.286835 
	C346.799255,477.023834 345.822693,478.505157 342.177673,479.286926 
z"/>
<path fill="#FAFAFA" opacity="1.000000" stroke="none" 
	d="
M760.824829,473.071838 
	C760.797546,460.547974 760.797546,448.443512 760.797546,436.055328 
	C762.283936,435.989380 763.544739,435.933441 765.299194,435.855560 
	C765.299194,447.157623 765.287170,458.241882 765.307312,469.326050 
	C765.312683,472.293823 764.773376,475.604645 769.571350,475.462646 
	C770.136230,475.445953 770.762268,477.498810 771.441650,478.741730 
	C764.738403,480.419891 762.413696,479.142120 760.824829,473.071838 
z"/>
<path fill="#EAEAEA" opacity="1.000000" stroke="none" 
	d="
M384.083374,453.002686 
	C384.083374,447.172882 384.083374,441.842438 384.083374,436.137299 
	C385.566864,436.038544 386.977783,435.944641 388.504364,435.843048 
	C388.696014,436.540894 388.920410,436.978577 388.921295,437.416718 
	C388.943420,448.247498 388.934937,459.078278 388.949371,469.909088 
	C388.952881,472.553345 388.397827,475.489746 392.735870,475.360596 
	C393.476105,475.338562 394.271790,477.179321 395.155060,478.303650 
	C388.377747,480.969971 384.318634,478.491913 384.129578,471.996552 
	C383.950317,465.836456 384.086121,459.667236 384.083374,453.002686 
z"/>
<path fill="#F7F7F7" opacity="1.000000" stroke="none" 
	d="
M138.155792,466.042908 
	C138.155396,470.506165 138.155396,474.483063 138.155396,478.736053 
	C136.628845,478.736053 135.233749,478.736053 133.694214,478.736053 
	C133.694214,468.690491 133.694214,458.764771 133.694214,446.990570 
	C136.107056,448.786102 137.569839,449.874664 139.320663,451.177551 
	C141.670654,447.899445 145.826965,447.034241 151.158447,448.862946 
	C150.813080,450.264709 150.489792,451.576904 150.175964,452.850647 
	C140.797119,451.447937 138.378342,454.112976 138.155792,466.042908 
z"/>
<path fill="#FDFDFD" opacity="1.000000" stroke="none" 
	d="
M869.876404,471.924438 
	C869.876404,463.821289 869.876404,456.208649 869.876404,448.351929 
	C871.446716,448.351929 872.687744,448.351929 874.192505,448.351929 
	C874.192505,458.443970 874.192505,468.505493 874.192505,478.785492 
	C872.850098,478.785492 871.598572,478.785492 869.876404,478.785492 
	C869.876404,476.650238 869.876404,474.532562 869.876404,471.924438 
z"/>
<path fill="#F6F6F6" opacity="1.000000" stroke="none" 
	d="
M869.031860,439.826660 
	C870.033875,438.256775 870.941650,436.800385 872.253601,436.070007 
	C872.721436,435.809540 874.713989,437.128387 875.019531,438.053680 
	C875.341064,439.027496 874.398132,441.437408 874.143860,441.418243 
	C872.441345,441.289520 870.775146,440.680084 869.031860,439.826660 
z"/>
<path fill="#000000" opacity="0.000000" stroke="none" 
	d="
M779.052002,716.023804 
	C779.498657,716.350281 779.717468,716.972839 779.936279,717.595337 
	C779.557312,717.533447 779.178284,717.471497 778.614990,717.182312 
	C778.561829,716.743286 778.692993,716.531616 779.052002,716.023804 
z"/>
<path fill="#000000" opacity="0.000000" stroke="none" 
	d="
M616.349060,715.257507 
	C616.650574,715.265625 616.719666,715.505920 616.788818,715.746216 
	C616.564697,715.660706 616.340637,715.575195 616.349060,715.257507 
z"/>
<path fill="#050505" opacity="0.000000" stroke="none" 
	d="
M521.361206,823.854492 
	C515.053772,830.471924 498.450409,831.931702 491.338043,826.829895 
	C488.252228,824.616455 486.888275,821.298767 488.239349,818.112122 
	C489.247864,815.733276 492.076630,812.605347 494.224243,812.502136 
	C502.144409,812.121216 510.164062,812.453369 518.053589,813.341492 
	C522.255005,813.814392 523.161133,817.489990 521.361206,823.854492 
z"/>
<path fill="#040404" opacity="0.000000" stroke="none" 
	d="
M493.083374,779.206848 
	C491.571228,768.738220 494.807648,763.484253 502.857086,762.775757 
	C510.442719,762.107971 515.502197,765.039368 516.887939,770.905090 
	C518.462830,777.571472 515.951111,783.438049 510.617157,785.551575 
	C503.714996,788.286499 496.725616,785.910767 493.083374,779.206848 
z"/>
<path fill="#040404" opacity="0.000000" stroke="none" 
	d="
M625.256958,271.186401 
	C625.749329,264.522705 628.751160,259.948151 634.870911,258.270020 
	C641.816040,256.365540 648.787720,256.391205 654.634705,261.460175 
	C659.010803,265.253967 659.939209,273.471802 656.986572,279.016876 
	C653.981506,284.660461 646.564148,287.312561 637.623962,285.940002 
	C630.848328,284.899780 626.821045,281.114624 625.558655,274.549561 
	C625.371826,273.577972 625.344360,272.575775 625.256958,271.186401 
z"/>
<path fill="#040404" opacity="0.000000" stroke="none" 
	d="
M654.508972,241.941833 
	C650.476562,248.571091 644.529175,250.834305 637.192322,248.812927 
	C631.802673,247.328033 628.627808,242.883408 628.644043,236.845840 
	C628.664978,229.035187 633.894958,224.126877 642.124084,224.194824 
	C650.194275,224.261459 655.524963,229.451645 655.342285,237.162292 
	C655.307251,238.640594 654.928162,240.110779 654.508972,241.941833 
z"/>
<path fill="#040404" opacity="0.000000" stroke="none" 
	d="
M612.256958,802.246094 
	C606.692383,806.712158 600.538330,806.768494 594.403687,805.694153 
	C587.005554,804.398682 582.935730,799.042603 583.010559,791.585693 
	C583.085876,784.085999 587.153687,779.194092 594.753723,777.848511 
	C597.334778,777.391479 600.053223,777.208008 602.653198,777.464294 
	C608.192749,778.010254 613.139709,779.990417 615.185547,785.726196 
	C617.251343,791.518066 616.959045,797.146240 612.256958,802.246094 
z"/>
<path fill="#050505" opacity="0.000000" stroke="none" 
	d="
M587.001648,752.326294 
	C590.813782,745.242737 596.329346,742.881470 603.801208,744.789185 
	C609.747559,746.307373 613.061462,750.531189 613.126465,756.674927 
	C613.210815,764.646057 607.840027,769.506775 599.193420,769.284912 
	C590.891418,769.071899 585.877991,763.983704 586.304810,756.137573 
	C586.367432,754.986206 586.707642,753.849854 587.001648,752.326294 
z"/>
<path fill="#030303" opacity="0.000000" stroke="none" 
	d="
M439.501892,806.134277 
	C432.231537,804.777649 427.820404,800.507080 427.027130,793.845764 
	C426.274414,787.524963 426.174927,780.891418 427.251068,774.647583 
	C428.583038,766.919373 434.753143,762.982910 442.975586,762.925781 
	C451.462372,762.866821 457.509552,766.395569 458.962128,774.185669 
	C460.179321,780.713623 460.394653,787.793030 459.247131,794.310242 
	C457.606079,803.630432 450.910126,807.133057 439.501892,806.134277 
z"/>
<path fill="#0A0A0A" opacity="0.000000" stroke="none" 
	d="
M282.350037,486.655396 
	C277.956299,487.013977 273.837891,487.624817 269.886292,487.062897 
	C268.430939,486.855957 266.510803,483.920227 266.430756,482.155334 
	C266.377716,480.986084 269.119751,478.812744 270.784729,478.623810 
	C274.352173,478.218994 278.080109,478.507721 281.653687,479.072784 
	C285.518829,479.683960 285.816193,482.444305 282.350037,486.655396 
z"/>
<path fill="#0A0A0A" opacity="0.000000" stroke="none" 
	d="
M268.995544,460.560852 
	C268.507629,457.039581 268.397461,453.630249 271.841248,452.513306 
	C274.112030,451.776764 277.404877,451.837189 279.302795,453.030945 
	C280.894714,454.032257 281.967865,457.294800 281.709961,459.361328 
	C281.490448,461.120239 279.333527,463.342499 277.523712,464.044067 
	C274.237030,465.318146 270.934174,464.657776 268.995544,460.560852 
z"/>
<path fill="#0A0A0A" opacity="0.000000" stroke="none" 
	d="
M930.145569,488.041809 
	C928.106567,487.705780 926.151978,487.831787 924.981018,486.934784 
	C923.611328,485.885529 922.060974,483.866577 922.192078,482.412933 
	C922.315735,481.042633 924.430359,478.911865 925.829895,478.776306 
	C929.733765,478.398285 933.745361,478.681213 937.659729,479.154633 
	C938.739807,479.285278 940.473816,481.049072 940.416870,481.971436 
	C940.319702,483.545135 939.412842,485.826416 938.182678,486.408722 
	C935.899658,487.489380 933.138550,487.560089 930.145569,488.041809 
z"/>
<path fill="#0A0A0A" opacity="0.000000" stroke="none" 
	d="
M937.110352,454.955627 
	C938.468262,458.639130 938.189758,462.102875 934.888550,463.411865 
	C932.509460,464.355286 928.681763,464.253418 926.739502,462.873505 
	C925.158081,461.749908 924.511719,457.831055 925.044128,455.518646 
	C926.163452,450.657196 932.545593,450.315826 937.110352,454.955627 
z"/>
<path fill="#040404" opacity="0.000000" stroke="none" 
	d="
M691.296387,442.953247 
	C702.049622,440.393799 708.370361,444.786346 709.202698,455.232635 
	C709.438965,458.198181 709.369263,461.245453 708.973022,464.192444 
	C708.051636,471.044891 703.647888,474.831512 696.821777,475.020386 
	C689.613831,475.219879 685.283813,471.715179 683.890076,464.553680 
	C681.834595,453.991486 684.095459,447.070068 691.296387,442.953247 
z"/>
<path fill="#040404" opacity="0.000000" stroke="none" 
	d="
M249.338562,464.818665 
	C248.445572,472.039276 246.136673,474.840302 241.063507,475.258179 
	C235.887482,475.684540 232.681244,473.677917 231.639725,468.559723 
	C231.026886,465.548187 230.970108,462.258057 231.464264,459.223663 
	C232.304443,454.064880 235.528030,451.743195 240.489502,451.910583 
	C245.194580,452.069336 248.297394,454.922699 249.066483,459.917877 
	C249.292480,461.385651 249.276154,462.890686 249.338562,464.818665 
z"/>
<path fill="#050505" opacity="0.000000" stroke="none" 
	d="
M485.175110,606.102112 
	C486.438873,597.366455 489.139679,594.541626 495.375641,594.882446 
	C499.390381,595.101868 502.150330,597.149170 502.890839,600.951355 
	C503.511749,604.139465 503.554932,607.545654 503.219299,610.789551 
	C502.726105,615.556763 499.838501,618.205078 494.883484,618.326843 
	C489.935150,618.448364 486.996490,616.127686 485.770508,610.947021 
	C485.428497,609.501648 485.358765,607.991821 485.175110,606.102112 
z"/>
<path fill="#040404" opacity="0.000000" stroke="none" 
	d="
M729.243408,458.841339 
	C731.959717,452.840088 734.974243,451.051270 740.177856,452.013702 
	C744.400452,452.794708 746.807007,456.085144 747.069824,461.656250 
	C747.163452,463.640778 747.186340,465.669647 746.885925,467.623627 
	C746.131775,472.529327 743.247375,475.094513 738.585266,475.300446 
	C733.683105,475.516968 730.178528,473.085449 729.291687,468.170837 
	C728.770203,465.280670 729.154419,462.227051 729.243408,458.841339 
z"/>
<path fill="#0A0A0A" opacity="0.000000" stroke="none" 
	d="
M593.484924,597.629150 
	C596.777344,594.095032 600.781189,593.648499 604.163025,595.534485 
	C606.422546,596.794617 607.552795,600.079529 609.926331,603.531494 
	C602.703369,603.531494 597.366089,603.531494 591.415649,603.531494 
	C592.053223,601.558289 592.636841,599.752014 593.484924,597.629150 
z"/>
<path fill="#0A0A0A" opacity="0.000000" stroke="none" 
	d="
M304.162537,460.876556 
	C302.428192,460.808899 301.166992,460.741272 299.904938,460.673615 
	C300.339264,454.229095 303.053894,451.538422 308.702393,451.694641 
	C313.924591,451.839081 316.047821,454.432281 315.931396,460.876556 
	C312.172699,460.876556 308.404205,460.876556 304.162537,460.876556 
z"/>
<path fill="#0A0A0A" opacity="0.000000" stroke="none" 
	d="
M355.664429,467.845245 
	C360.082855,465.838379 364.300751,464.173492 368.834869,462.383789 
	C369.412415,467.525269 369.642670,472.167206 365.171082,474.539398 
	C363.051636,475.663788 359.504608,475.623199 357.342316,474.580231 
	C356.000488,473.933105 356.042816,470.416077 355.664429,467.845245 
z"/>
<path fill="#040404" opacity="0.000000" stroke="none" 
	d="
M799.191040,464.814392 
	C798.389526,472.602417 795.580444,475.518921 789.480286,475.313232 
	C783.796326,475.121613 781.006042,471.841797 780.602173,464.877838 
	C780.070984,455.719482 783.931885,451.100159 791.416443,451.939178 
	C796.819397,452.544861 798.978394,455.989502 799.191040,464.814392 
z"/>
<path fill="#040404" opacity="0.000000" stroke="none" 
	d="
M163.113312,472.937073 
	C159.447418,467.897614 159.577042,462.675446 161.209717,457.470581 
	C162.439865,453.548889 165.530975,451.863434 169.636353,451.882416 
	C173.703766,451.901215 176.845703,453.437256 177.999115,457.464508 
	C178.712540,459.955475 179.036484,462.671875 178.931885,465.262726 
	C178.557907,474.526062 171.478302,478.083771 163.113312,472.937073 
z"/>
<path fill="#050505" opacity="0.000000" stroke="none" 
	d="
M538.120117,612.715881 
	C535.968811,618.010986 531.954102,618.819153 527.345154,618.086182 
	C522.849243,617.371216 521.241211,614.055969 520.508789,610.034363 
	C519.340637,603.620972 521.145508,597.936035 525.064026,595.852661 
	C530.612000,592.902954 537.107544,595.431885 538.356934,601.578491 
	C539.054443,605.010071 538.322144,608.732300 538.120117,612.715881 
z"/>
</svg>