<svg version="1.1" id="Layer_1" xmlns="http://www.w3.org/2000/svg" xmlns:xlink="http://www.w3.org/1999/xlink" x="0px" y="0px"
	 width="100%" viewBox="0 0 1080 1080" enable-background="new 0 0 1080 1080" xml:space="preserve">
<path fill="#000000" opacity="0.000000" stroke="none" 
	d="
M707.000000,1081.000000 
	C471.360474,1081.000000 236.220947,1081.000000 1.040705,1081.000000 
	C1.040705,721.068665 1.040705,361.137360 1.040705,1.103019 
	C360.889740,1.103019 720.779541,1.103019 1080.834717,1.103019 
	C1080.834717,360.999939 1080.834717,720.999939 1080.834717,1081.000000 
	C956.470215,1081.000000 831.985107,1081.000000 707.000000,1081.000000 
M403.499573,864.403198 
	C505.463501,864.403198 607.427429,864.403198 709.545044,864.403198 
	C709.781677,862.430847 709.969299,860.867432 710.154663,859.322449 
	C711.883118,859.165283 713.333313,859.033447 714.818542,858.898438 
	C714.818542,601.587769 714.818542,344.482788 714.818542,87.893799 
	C711.468018,86.800972 708.445984,85.815285 704.974304,84.682953 
	C520.083862,341.426422 334.860199,598.632507 150.417709,854.753845 
	C152.265396,858.614929 153.588333,861.379456 155.035339,864.403198 
	C237.183029,864.403198 319.841278,864.403198 403.499573,864.403198 
M780.559814,460.499634 
	C780.559814,470.263916 780.559814,480.028198 780.559814,489.698853 
	C783.732849,489.698853 786.312378,489.698853 788.877563,489.698853 
	C788.987549,487.182404 789.083923,484.977173 789.216858,481.935669 
	C790.533691,483.180908 791.111755,483.705963 791.666138,484.254944 
	C804.042175,496.511353 824.450317,492.374481 829.628784,475.821228 
	C831.829529,468.786377 831.854004,460.714294 831.244019,453.246185 
	C830.468750,443.754364 825.707275,435.974365 815.808716,433.253418 
	C805.822327,430.508331 797.024658,432.755310 790.408386,441.308502 
	C790.210632,441.564148 789.591003,441.493591 788.897278,441.627289 
	C788.897278,431.292145 788.897278,421.176666 788.897278,410.885132 
	C786.087402,410.885132 783.517273,410.885132 780.559814,410.885132 
	C780.559814,427.270416 780.559814,443.385010 780.559814,460.499634 
M439.895905,1015.965759 
	C448.176544,1016.723083 455.453522,1014.983521 460.255341,1007.217712 
	C464.558746,1015.574219 468.677521,1017.219177 476.659027,1013.878052 
	C476.322296,1012.078430 475.972107,1010.206909 475.633423,1008.396851 
	C469.054565,1008.378906 468.519989,1007.891357 468.489807,1001.625122 
	C468.445709,992.461182 468.507355,983.296692 468.454834,974.132812 
	C468.419250,967.927795 466.510803,962.660095 460.628052,959.578186 
	C450.269562,954.151428 434.435120,957.892273 427.229187,967.574768 
	C428.630707,969.464478 430.056030,971.386292 431.862061,973.821411 
	C437.004608,966.864807 443.392029,964.081360 451.333679,964.845154 
	C455.700531,965.265137 459.215332,966.685364 459.895477,971.563416 
	C460.609375,976.683167 457.137970,978.755981 453.054047,979.875732 
	C448.090729,981.236633 442.937469,981.933655 438.017944,983.419495 
	C428.979828,986.149475 424.863403,991.763672 425.220673,1000.123352 
	C425.594360,1008.867249 429.599487,1013.443176 439.895905,1015.965759 
M384.942413,385.384552 
	C386.643097,384.146973 388.343781,382.909363 391.167664,380.854431 
	C387.090546,377.398438 384.051819,373.623657 380.109955,371.689117 
	C363.156372,363.368805 343.997009,374.273376 342.085785,393.040771 
	C341.733917,396.496246 341.740601,400.032196 342.004578,403.498840 
	C343.262421,420.015930 356.806946,430.516693 373.185059,427.810608 
	C382.013824,426.351868 388.671692,420.242340 389.902130,412.334198 
	C388.119171,411.346863 386.289825,410.333801 384.325104,409.245758 
	C383.765930,410.056183 383.356354,410.555786 383.047607,411.111420 
	C378.839752,418.684021 373.927643,421.260010 365.462799,420.226501 
	C357.896973,419.302765 353.231995,414.682068 351.920044,407.581512 
	C350.915741,402.145996 350.797424,396.313873 351.572723,390.840546 
	C352.576813,383.751892 356.907928,378.549957 364.332489,377.261871 
	C371.678986,375.987335 378.263855,377.469147 382.469452,384.536346 
	C382.814026,385.115387 383.706970,385.368134 384.942413,385.384552 
M867.888184,420.119568 
	C867.778320,413.465973 865.387390,409.720093 860.251831,408.155701 
	C852.620117,405.830933 845.110718,408.241974 840.741150,414.607391 
	C842.009705,415.978088 843.321228,417.395111 844.714233,418.900238 
	C846.207764,417.564026 847.323730,416.340790 848.650879,415.422821 
	C851.890137,413.182251 857.419250,413.316101 859.326660,415.545288 
	C861.492920,418.076935 860.449524,422.235992 856.592041,425.444397 
	C853.528442,427.992554 850.265930,430.301575 847.092163,432.717285 
	C841.974365,436.612671 840.268494,441.737915 841.344727,447.958160 
	C850.212891,447.958160 858.823914,447.958160 867.528564,447.958160 
	C867.528564,445.984619 867.528564,444.230896 867.528564,441.815247 
	C861.147705,441.815247 854.994019,441.815247 848.840332,441.815247 
	C848.618713,441.301880 848.397034,440.788513 848.175415,440.275116 
	C851.485107,437.695740 855.088623,435.409454 858.028931,432.461670 
	C861.573730,428.907990 864.555603,424.792694 867.888184,420.119568 
M490.089386,955.632263 
	C483.803162,959.714233 480.103088,965.019165 481.602936,972.953125 
	C490.497864,972.953125 499.084106,972.953125 507.733032,972.953125 
	C507.733032,970.970215 507.733032,969.212769 507.733032,966.864502 
	C501.369476,966.864502 495.214264,966.864502 489.059021,966.864502 
	C490.302094,964.113770 492.009369,962.435791 493.828979,960.890015 
	C497.617706,957.671631 501.848816,954.878052 505.200043,951.262878 
	C510.254089,945.810425 508.842407,937.364197 502.730713,934.155945 
	C496.300049,930.780334 484.868683,932.036255 480.978241,939.582825 
	C482.242249,940.956360 483.561615,942.390137 484.856873,943.797668 
	C486.823639,942.284363 488.394592,940.104492 490.170258,939.922607 
	C493.326874,939.599182 497.684906,939.338745 499.590851,941.128296 
	C502.666382,944.015991 500.117096,947.570068 497.344757,950.012207 
	C495.232574,951.872864 492.884064,953.465271 490.089386,955.632263 
M399.037140,385.169159 
	C407.004669,385.169159 414.972168,385.169159 423.046509,385.169159 
	C423.046509,382.942566 423.046509,381.066528 423.046509,378.713196 
	C416.651398,378.713196 410.606323,378.713196 402.976532,378.713196 
	C405.704193,376.173035 407.268799,374.585052 408.969269,373.159088 
	C412.787994,369.956726 417.002289,367.153412 420.451630,363.601227 
	C424.992950,358.924469 424.694427,352.023865 420.577087,347.822876 
	C415.511841,342.654724 400.258789,343.005096 396.518707,352.039429 
	C397.711853,353.259155 399.045746,354.622772 399.656006,355.246643 
	C403.437714,353.522034 406.242310,351.570007 409.276917,351.098511 
	C411.262177,350.790070 414.882385,352.144348 415.429474,353.621094 
	C416.158112,355.588104 414.974426,358.570953 413.917297,360.785767 
	C413.194000,362.301178 411.326630,363.302551 409.898102,364.442719 
	C406.909393,366.828156 403.676758,368.944885 400.901550,371.552216 
	C396.734741,375.466919 395.810425,380.905151 399.037140,385.169159 
z"/>
<path fill="#F8F8F8" opacity="1.000000" stroke="none" 
	d="
M402.999573,864.403198 
	C319.841278,864.403198 237.183029,864.403198 155.035339,864.403198 
	C153.588333,861.379456 152.265396,858.614929 150.417709,854.753845 
	C334.860199,598.632507 520.083862,341.426422 704.974304,84.682953 
	C708.445984,85.815285 711.468018,86.800972 714.818542,87.893799 
	C714.818542,344.482788 714.818542,601.587769 714.818542,858.898438 
	C713.333313,859.033447 711.883118,859.165283 710.154663,859.322449 
	C709.969299,860.867432 709.781677,862.430847 709.545044,864.403198 
	C607.427429,864.403198 505.463501,864.403198 402.999573,864.403198 
M700.059448,767.720764 
	C699.774658,764.366333 699.489868,761.011902 699.204895,757.654968 
	C701.416199,757.310486 702.825012,757.091003 704.013916,756.905762 
	C704.013916,539.431702 704.013916,322.321716 704.013916,104.173775 
	C523.798584,354.425323 344.231445,603.776733 164.262314,853.686401 
	C313.310944,853.686401 461.503021,853.686401 610.011902,853.686401 
	C610.011902,844.993896 610.011902,836.548157 610.011902,828.076416 
	C613.722839,828.076416 617.101501,828.076416 620.904419,828.076416 
	C620.904419,836.876465 620.904419,845.285522 620.904419,853.693848 
	C648.941467,853.693848 676.545288,853.693848 704.466675,853.693848 
	C704.466675,825.806946 704.499023,798.164062 704.318909,770.522522 
	C704.313171,769.645508 702.121704,768.782715 700.059448,767.720764 
z"/>
<path fill="#F9F9F9" opacity="1.000000" stroke="none" 
	d="
M780.559814,459.999634 
	C780.559814,443.385010 780.559814,427.270416 780.559814,410.885132 
	C783.517273,410.885132 786.087402,410.885132 788.897278,410.885132 
	C788.897278,421.176666 788.897278,431.292145 788.897278,441.627289 
	C789.591003,441.493591 790.210632,441.564148 790.408386,441.308502 
	C797.024658,432.755310 805.822327,430.508331 815.808716,433.253418 
	C825.707275,435.974365 830.468750,443.754364 831.244019,453.246185 
	C831.854004,460.714294 831.829529,468.786377 829.628784,475.821228 
	C824.450317,492.374481 804.042175,496.511353 791.666138,484.254944 
	C791.111755,483.705963 790.533691,483.180908 789.216858,481.935669 
	C789.083923,484.977173 788.987549,487.182404 788.877563,489.698853 
	C786.312378,489.698853 783.732849,489.698853 780.559814,489.698853 
	C780.559814,480.028198 780.559814,470.263916 780.559814,459.999634 
M789.013611,463.303864 
	C789.500793,466.248901 789.663635,469.294250 790.537537,472.119690 
	C792.917542,479.814728 799.028625,483.802765 807.302673,483.442169 
	C815.362305,483.090912 820.604187,479.306458 821.958923,471.155792 
	C822.947754,465.206329 823.043213,458.852325 822.114441,452.900604 
	C820.742737,444.110168 815.003967,439.937531 806.474182,439.917206 
	C797.967468,439.896912 791.867981,444.625214 790.039185,453.000244 
	C789.370300,456.063385 789.332153,459.264252 789.013611,463.303864 
z"/>
<path fill="#F6F6F6" opacity="1.000000" stroke="none" 
	d="
M439.460358,1015.930237 
	C429.599487,1013.443176 425.594360,1008.867249 425.220673,1000.123352 
	C424.863403,991.763672 428.979828,986.149475 438.017944,983.419495 
	C442.937469,981.933655 448.090729,981.236633 453.054047,979.875732 
	C457.137970,978.755981 460.609375,976.683167 459.895477,971.563416 
	C459.215332,966.685364 455.700531,965.265137 451.333679,964.845154 
	C443.392029,964.081360 437.004608,966.864807 431.862061,973.821411 
	C430.056030,971.386292 428.630707,969.464478 427.229187,967.574768 
	C434.435120,957.892273 450.269562,954.151428 460.628052,959.578186 
	C466.510803,962.660095 468.419250,967.927795 468.454834,974.132812 
	C468.507355,983.296692 468.445709,992.461182 468.489807,1001.625122 
	C468.519989,1007.891357 469.054565,1008.378906 475.633423,1008.396851 
	C475.972107,1010.206909 476.322296,1012.078430 476.659027,1013.878052 
	C468.677521,1017.219177 464.558746,1015.574219 460.255341,1007.217712 
	C455.453522,1014.983521 448.176544,1016.723083 439.460358,1015.930237 
M447.988861,1009.045288 
	C458.046143,1006.163147 461.496002,999.171204 459.786469,985.372375 
	C453.415009,986.913513 446.988129,988.315308 440.654633,990.056824 
	C436.829620,991.108521 433.809265,993.838196 434.229248,997.880493 
	C434.573792,1001.196838 435.912842,1005.141968 438.222198,1007.293701 
	C440.117493,1009.059509 444.088745,1008.597046 447.988861,1009.045288 
z"/>
<path fill="#F6F6F6" opacity="1.000000" stroke="none" 
	d="
M384.643768,385.578522 
	C383.706970,385.368134 382.814026,385.115387 382.469452,384.536346 
	C378.263855,377.469147 371.678986,375.987335 364.332489,377.261871 
	C356.907928,378.549957 352.576813,383.751892 351.572723,390.840546 
	C350.797424,396.313873 350.915741,402.145996 351.920044,407.581512 
	C353.231995,414.682068 357.896973,419.302765 365.462799,420.226501 
	C373.927643,421.260010 378.839752,418.684021 383.047607,411.111420 
	C383.356354,410.555786 383.765930,410.056183 384.325104,409.245758 
	C386.289825,410.333801 388.119171,411.346863 389.902130,412.334198 
	C388.671692,420.242340 382.013824,426.351868 373.185059,427.810608 
	C356.806946,430.516693 343.262421,420.015930 342.004578,403.498840 
	C341.740601,400.032196 341.733917,396.496246 342.085785,393.040771 
	C343.997009,374.273376 363.156372,363.368805 380.109955,371.689117 
	C384.051819,373.623657 387.090546,377.398438 391.167664,380.854431 
	C388.343781,382.909363 386.643097,384.146973 384.643768,385.578522 
z"/>
<path fill="#F4F4F4" opacity="1.000000" stroke="none" 
	d="
M867.834717,420.520050 
	C864.555603,424.792694 861.573730,428.907990 858.028931,432.461670 
	C855.088623,435.409454 851.485107,437.695740 848.175415,440.275116 
	C848.397034,440.788513 848.618713,441.301880 848.840332,441.815247 
	C854.994019,441.815247 861.147705,441.815247 867.528564,441.815247 
	C867.528564,444.230896 867.528564,445.984619 867.528564,447.958160 
	C858.823914,447.958160 850.212891,447.958160 841.344727,447.958160 
	C840.268494,441.737915 841.974365,436.612671 847.092163,432.717285 
	C850.265930,430.301575 853.528442,427.992554 856.592041,425.444397 
	C860.449524,422.235992 861.492920,418.076935 859.326660,415.545288 
	C857.419250,413.316101 851.890137,413.182251 848.650879,415.422821 
	C847.323730,416.340790 846.207764,417.564026 844.714233,418.900238 
	C843.321228,417.395111 842.009705,415.978088 840.741150,414.607391 
	C845.110718,408.241974 852.620117,405.830933 860.251831,408.155701 
	C865.387390,409.720093 867.778320,413.465973 867.834717,420.520050 
z"/>
<path fill="#F6F6F6" opacity="1.000000" stroke="none" 
	d="
M490.365051,955.404663 
	C492.884064,953.465271 495.232574,951.872864 497.344757,950.012207 
	C500.117096,947.570068 502.666382,944.015991 499.590851,941.128296 
	C497.684906,939.338745 493.326874,939.599182 490.170258,939.922607 
	C488.394592,940.104492 486.823639,942.284363 484.856873,943.797668 
	C483.561615,942.390137 482.242249,940.956360 480.978241,939.582825 
	C484.868683,932.036255 496.300049,930.780334 502.730713,934.155945 
	C508.842407,937.364197 510.254089,945.810425 505.200043,951.262878 
	C501.848816,954.878052 497.617706,957.671631 493.828979,960.890015 
	C492.009369,962.435791 490.302094,964.113770 489.059021,966.864502 
	C495.214264,966.864502 501.369476,966.864502 507.733032,966.864502 
	C507.733032,969.212769 507.733032,970.970215 507.733032,972.953125 
	C499.084106,972.953125 490.497864,972.953125 481.602936,972.953125 
	C480.103088,965.019165 483.803162,959.714233 490.365051,955.404663 
z"/>
<path fill="#F6F6F6" opacity="1.000000" stroke="none" 
	d="
M398.589050,385.155731 
	C395.810425,380.905151 396.734741,375.466919 400.901550,371.552216 
	C403.676758,368.944885 406.909393,366.828156 409.898102,364.442719 
	C411.326630,363.302551 413.194000,362.301178 413.917297,360.785767 
	C414.974426,358.570953 416.158112,355.588104 415.429474,353.621094 
	C414.882385,352.144348 411.262177,350.790070 409.276917,351.098511 
	C406.242310,351.570007 403.437714,353.522034 399.656006,355.246643 
	C399.045746,354.622772 397.711853,353.259155 396.518707,352.039429 
	C400.258789,343.005096 415.511841,342.654724 420.577087,347.822876 
	C424.694427,352.023865 424.992950,358.924469 420.451630,363.601227 
	C417.002289,367.153412 412.787994,369.956726 408.969269,373.159088 
	C407.268799,374.585052 405.704193,376.173035 402.976532,378.713196 
	C410.606323,378.713196 416.651398,378.713196 423.046509,378.713196 
	C423.046509,381.066528 423.046509,382.942566 423.046509,385.169159 
	C414.972168,385.169159 407.004669,385.169159 398.589050,385.155731 
z"/>
<path fill="#000000" opacity="0.000000" stroke="none" 
	d="
M700.504333,767.817017 
	C702.121704,768.782715 704.313171,769.645508 704.318909,770.522522 
	C704.499023,798.164062 704.466675,825.806946 704.466675,853.693848 
	C676.545288,853.693848 648.941467,853.693848 620.904419,853.693848 
	C620.904419,845.285522 620.904419,836.876465 620.904419,828.076416 
	C617.101501,828.076416 613.722839,828.076416 610.011902,828.076416 
	C610.011902,836.548157 610.011902,844.993896 610.011902,853.686401 
	C461.503021,853.686401 313.310944,853.686401 164.262314,853.686401 
	C344.231445,603.776733 523.798584,354.425323 704.013916,104.173775 
	C704.013916,322.321716 704.013916,539.431702 704.013916,756.905762 
	C702.825012,757.091003 701.416199,757.310486 699.204895,757.654968 
	C699.489868,761.011902 699.774658,764.366333 700.504333,767.817017 
M626.561035,767.940430 
	C633.294189,767.940430 640.027405,767.940430 646.620483,767.940430 
	C646.620483,764.015930 646.620483,760.781860 646.620483,757.501709 
	C636.085205,757.501709 625.879700,757.501709 615.570557,757.501709 
	C615.280090,759.319458 615.030396,760.881958 614.792542,762.370300 
	C613.090454,762.591858 611.648865,762.779541 610.319946,762.952515 
	C610.319946,767.089539 610.319946,770.989319 610.319946,774.747681 
	C613.873840,774.747681 617.111145,774.747681 620.750000,774.747681 
	C620.750000,772.387817 620.750000,770.311462 620.750000,767.940430 
	C622.637573,767.940430 624.107300,767.940430 626.561035,767.940430 
M677.478882,767.947449 
	C681.235901,767.947449 684.992981,767.947449 688.705566,767.947449 
	C688.705566,764.082397 688.705566,760.840881 688.705566,757.473755 
	C678.209717,757.473755 667.997314,757.473755 657.659546,757.473755 
	C657.659546,761.085388 657.659546,764.426270 657.659546,767.947449 
	C664.205811,767.947449 670.346252,767.947449 677.478882,767.947449 
M615.427124,817.088318 
	C617.037659,817.088318 618.648193,817.088318 620.347290,817.088318 
	C620.347290,806.365967 620.347290,796.162842 620.347290,785.843140 
	C616.760498,785.843140 613.500244,785.843140 610.284546,785.843140 
	C610.284546,796.354919 610.284546,806.601807 610.284546,817.088257 
	C611.867920,817.088257 613.176270,817.088257 615.427124,817.088318 
z"/>
<path fill="#030303" opacity="0.000000" stroke="none" 
	d="
M789.009949,462.853088 
	C789.332153,459.264252 789.370300,456.063385 790.039185,453.000244 
	C791.867981,444.625214 797.967468,439.896912 806.474182,439.917206 
	C815.003967,439.937531 820.742737,444.110168 822.114441,452.900604 
	C823.043213,458.852325 822.947754,465.206329 821.958923,471.155792 
	C820.604187,479.306458 815.362305,483.090912 807.302673,483.442169 
	C799.028625,483.802765 792.917542,479.814728 790.537537,472.119690 
	C789.663635,469.294250 789.500793,466.248901 789.009949,462.853088 
z"/>
<path fill="#030303" opacity="0.000000" stroke="none" 
	d="
M447.564331,1009.083740 
	C444.088745,1008.597046 440.117493,1009.059509 438.222198,1007.293701 
	C435.912842,1005.141968 434.573792,1001.196838 434.229248,997.880493 
	C433.809265,993.838196 436.829620,991.108521 440.654633,990.056824 
	C446.988129,988.315308 453.415009,986.913513 459.786469,985.372375 
	C461.496002,999.171204 458.046143,1006.163147 447.564331,1009.083740 
z"/>
<path fill="#F4F4F4" opacity="1.000000" stroke="none" 
	d="
M626.069031,767.940430 
	C624.107300,767.940430 622.637573,767.940430 620.750000,767.940430 
	C620.750000,770.311462 620.750000,772.387817 620.750000,774.747681 
	C617.111145,774.747681 613.873840,774.747681 610.319946,774.747681 
	C610.319946,770.989319 610.319946,767.089539 610.319946,762.952515 
	C611.648865,762.779541 613.090454,762.591858 614.792542,762.370300 
	C615.030396,760.881958 615.280090,759.319458 615.570557,757.501709 
	C625.879700,757.501709 636.085205,757.501709 646.620483,757.501709 
	C646.620483,760.781860 646.620483,764.015930 646.620483,767.940430 
	C640.027405,767.940430 633.294189,767.940430 626.069031,767.940430 
z"/>
<path fill="#F1F1F1" opacity="1.000000" stroke="none" 
	d="
M676.982788,767.947449 
	C670.346252,767.947449 664.205811,767.947449 657.659546,767.947449 
	C657.659546,764.426270 657.659546,761.085388 657.659546,757.473755 
	C667.997314,757.473755 678.209717,757.473755 688.705566,757.473755 
	C688.705566,760.840881 688.705566,764.082397 688.705566,767.947449 
	C684.992981,767.947449 681.235901,767.947449 676.982788,767.947449 
z"/>
<path fill="#F4F4F4" opacity="1.000000" stroke="none" 
	d="
M614.955872,817.088257 
	C613.176270,817.088257 611.867920,817.088257 610.284546,817.088257 
	C610.284546,806.601807 610.284546,796.354919 610.284546,785.843140 
	C613.500244,785.843140 616.760498,785.843140 620.347290,785.843140 
	C620.347290,796.162842 620.347290,806.365967 620.347290,817.088318 
	C618.648193,817.088318 617.037659,817.088318 614.955872,817.088257 
z"/>
</svg>