<svg version="1.1" id="Layer_1" xmlns="http://www.w3.org/2000/svg" xmlns:xlink="http://www.w3.org/1999/xlink" x="0px" y="0px"
	 width="100%" viewBox="0 0 997 732" enable-background="new 0 0 997 732" xml:space="preserve">
<path fill="#000000" opacity="0.000000" stroke="none" 
	d="
M708.000000,733.000000 
	C472.000061,733.000000 236.500137,733.000000 1.000158,733.000000 
	C1.000105,489.000153 1.000105,245.000290 1.000053,1.000322 
	C333.333099,1.000214 665.666199,1.000214 997.999451,1.000107 
	C997.999634,244.999695 997.999634,488.999390 997.999817,732.999512 
	C901.500000,733.000000 805.000000,733.000000 708.000000,733.000000 
M554.499939,638.114624 
	C673.116943,638.114624 791.733887,638.114624 910.527527,638.114624 
	C910.738403,636.090210 910.901855,634.521301 911.067322,632.933350 
	C912.820801,632.808289 914.259521,632.705688 915.902588,632.588501 
	C915.902588,452.213593 915.902588,272.132294 915.902588,93.179436 
	C912.514587,91.145737 909.781128,89.504929 906.688721,87.648674 
	C627.726318,267.462585 348.213165,447.631470 69.154976,627.507141 
	C70.256744,631.425659 71.167305,634.664124 72.137482,638.114624 
	C232.521347,638.114624 393.010620,638.114624 554.499939,638.114624 
M963.809753,675.573242 
	C970.011536,671.322510 971.523376,665.275940 969.696533,658.445190 
	C967.959595,651.950745 963.032776,648.266541 956.574646,647.948608 
	C946.522461,647.453735 936.427917,647.817749 926.346924,647.817749 
	C926.346924,669.822266 926.346924,691.844910 926.346924,713.966125 
	C936.487793,713.966125 946.300598,714.159729 956.102112,713.910889 
	C965.662537,713.668274 971.974121,708.901855 974.080444,700.966187 
	C976.849670,690.533142 973.494385,683.233154 963.759705,678.547546 
	C962.455872,677.919983 960.324219,677.548828 963.809753,675.573242 
M475.864685,231.711823 
	C475.582703,230.504852 475.702850,228.739456 474.944794,228.193558 
	C472.474243,226.414429 464.860840,228.483047 463.104706,231.136673 
	C453.659607,245.408661 444.102478,259.609222 434.885071,274.026886 
	C432.995667,276.982239 432.390137,280.758423 430.848419,285.133606 
	C443.912567,285.133606 455.457855,285.133606 467.288452,285.133606 
	C467.288452,291.308136 467.288452,296.921600 467.288452,302.664795 
	C470.285248,302.664795 472.971191,302.664795 475.962585,302.664795 
	C475.962585,296.718384 475.962585,291.117096 475.962585,285.052490 
	C480.333923,285.052490 484.413208,285.052490 488.616394,285.052490 
	C488.616394,282.511078 488.616394,280.449310 488.616394,277.943726 
	C484.316833,277.943726 480.233917,277.943726 475.864746,277.943726 
	C475.864746,262.555786 475.864746,247.613327 475.864685,231.711823 
M53.976620,672.354980 
	C51.252750,664.509460 48.268982,656.741028 45.911785,648.786865 
	C44.684494,644.645447 41.912682,645.278625 38.991585,645.186646 
	C35.930500,645.090271 33.326344,644.877380 32.162010,648.927124 
	C30.191532,655.780518 27.551662,662.441040 25.208736,669.188049 
	C20.312256,683.288635 15.425910,697.392700 10.423525,711.817932 
	C13.495822,711.817932 16.095592,711.817932 18.698242,711.817932 
	C20.369841,706.946472 22.143343,702.279297 23.542048,697.502258 
	C24.305887,694.893616 25.354496,693.690857 28.322771,693.789734 
	C35.479404,694.028198 42.652111,693.981384 49.812473,693.807739 
	C52.466961,693.743408 53.567169,694.640808 54.301643,697.193054 
	C55.749226,702.223389 57.658043,707.121033 59.301285,711.857910 
	C62.331474,711.857910 64.808128,711.857910 67.746986,711.857910 
	C63.157234,698.755188 58.667294,685.937378 53.976620,672.354980 
M931.354309,78.177849 
	C948.600525,91.267838 972.043518,85.167969 975.539185,66.448059 
	C973.711548,65.566132 971.837524,64.661804 970.081116,63.814217 
	C969.527649,64.470299 969.248352,64.685600 969.120972,64.969124 
	C964.660095,74.901497 958.824768,78.634552 949.049866,77.790550 
	C939.441284,76.960922 932.885132,71.458008 930.419373,61.733559 
	C928.373901,53.666492 928.414612,45.529259 931.066711,37.583080 
	C934.018372,28.739040 940.401917,24.118137 949.708862,23.638016 
	C958.390686,23.190142 965.418579,25.894506 969.448730,34.538582 
	C971.683105,33.032234 973.430176,31.854412 976.073730,30.072157 
	C973.177124,26.815290 971.003052,23.350391 967.936462,21.103397 
	C956.026062,12.376013 935.919617,15.950974 927.097290,27.779053 
	C918.082031,39.865768 917.835022,66.526207 931.354309,78.177849 
z"/>
<path fill="#FAFAFA" opacity="1.000000" stroke="none" 
	d="
M553.999878,638.114624 
	C393.010620,638.114624 232.521347,638.114624 72.137482,638.114624 
	C71.167305,634.664124 70.256744,631.425659 69.154976,627.507141 
	C348.213165,447.631470 627.726318,267.462585 906.688721,87.648674 
	C909.781128,89.504929 912.514587,91.145737 915.902588,93.179436 
	C915.902588,272.132294 915.902588,452.213593 915.902588,632.588501 
	C914.259521,632.705688 912.820801,632.808289 911.067322,632.933350 
	C910.901855,634.521301 910.738403,636.090210 910.527527,638.114624 
	C791.733887,638.114624 673.116943,638.114624 553.999878,638.114624 
M604.277588,295.751617 
	C470.979462,381.648499 337.681335,467.545380 203.560974,553.972107 
	C218.461639,559.003601 229.669647,567.397278 238.114090,579.520508 
	C248.390030,594.273193 247.788849,612.425781 236.382919,626.177307 
	C236.282745,626.298035 236.550735,626.724243 236.592682,626.848022 
	C432.254272,626.848022 627.852600,626.848022 823.872681,626.848022 
	C823.872681,617.204346 823.872681,607.791382 823.872681,598.250122 
	C827.700378,598.250122 831.102295,598.250122 834.921143,598.250122 
	C834.921143,607.900391 834.921143,617.313660 834.921143,626.752136 
	C858.550720,626.752136 881.757629,626.752136 904.710815,626.752136 
	C904.710815,451.757050 904.710815,277.100952 904.710815,102.055176 
	C804.451538,166.668701 704.650879,230.986649 604.277588,295.751617 
M212.674332,570.568115 
	C210.364090,569.694214 207.634674,569.335999 205.815628,567.857727 
	C197.614426,561.192688 189.181549,563.670654 181.825043,568.212769 
	C159.490707,582.002808 137.610626,596.528442 115.548950,610.760376 
	C107.529312,615.933838 99.496506,621.086853 90.157959,627.092834 
	C93.433769,627.092834 95.178749,627.092834 96.923737,627.092834 
	C134.385818,627.092834 171.847977,627.055359 209.309891,627.136475 
	C214.439148,627.147583 219.556549,627.810974 221.880295,621.592285 
	C222.198898,620.739685 223.146378,620.028320 223.952225,619.465881 
	C232.648560,613.396545 233.173492,604.753723 231.648697,595.416016 
	C229.793457,584.054749 221.703140,577.400757 212.674332,570.568115 
z"/>
<path fill="#F5F5F5" opacity="1.000000" stroke="none" 
	d="
M963.477417,675.769165 
	C960.324219,677.548828 962.455872,677.919983 963.759705,678.547546 
	C973.494385,683.233154 976.849670,690.533142 974.080444,700.966187 
	C971.974121,708.901855 965.662537,713.668274 956.102112,713.910889 
	C946.300598,714.159729 936.487793,713.966125 926.346924,713.966125 
	C926.346924,691.844910 926.346924,669.822266 926.346924,647.817749 
	C936.427917,647.817749 946.522461,647.453735 956.574646,647.948608 
	C963.032776,648.266541 967.959595,651.950745 969.696533,658.445190 
	C971.523376,665.275940 970.011536,671.322510 963.477417,675.769165 
M954.203369,707.289551 
	C963.211060,706.393677 967.205627,702.163940 966.802673,693.948669 
	C966.419067,686.129150 961.981140,682.137695 953.239868,681.978638 
	C946.957458,681.864258 940.671265,681.956360 934.192871,681.956360 
	C934.192871,690.570374 934.192871,698.812195 934.192871,707.357849 
	C940.694641,707.357849 946.981873,707.357849 954.203369,707.289551 
M936.655273,653.945679 
	C935.763611,654.561157 934.116211,655.154053 934.097046,655.795654 
	C933.904663,662.220581 933.980164,668.653442 933.980164,675.136658 
	C940.433594,675.136658 946.258911,675.299011 952.071228,675.094116 
	C958.809021,674.856628 962.501099,670.832336 962.419189,664.266357 
	C962.338867,657.831726 958.878357,654.275208 952.114014,654.016113 
	C947.292847,653.831421 942.459717,653.957764 936.655273,653.945679 
z"/>
<path fill="#F6F6F6" opacity="1.000000" stroke="none" 
	d="
M475.864716,232.191345 
	C475.864746,247.613327 475.864746,262.555786 475.864746,277.943726 
	C480.233917,277.943726 484.316833,277.943726 488.616394,277.943726 
	C488.616394,280.449310 488.616394,282.511078 488.616394,285.052490 
	C484.413208,285.052490 480.333923,285.052490 475.962585,285.052490 
	C475.962585,291.117096 475.962585,296.718384 475.962585,302.664795 
	C472.971191,302.664795 470.285248,302.664795 467.288452,302.664795 
	C467.288452,296.921600 467.288452,291.308136 467.288452,285.133606 
	C455.457855,285.133606 443.912567,285.133606 430.848419,285.133606 
	C432.390137,280.758423 432.995667,276.982239 434.885071,274.026886 
	C444.102478,259.609222 453.659607,245.408661 463.104706,231.136673 
	C464.860840,228.483047 472.474243,226.414429 474.944794,228.193558 
	C475.702850,228.739456 475.582703,230.504852 475.864716,232.191345 
M457.480774,277.987549 
	C460.597076,277.987549 463.713348,277.987549 466.775940,277.987549 
	C466.775940,265.151550 466.775940,252.748260 466.775940,239.125580 
	C458.238983,252.511581 450.382477,264.830688 441.991669,277.987549 
	C447.633881,277.987549 452.064087,277.987549 457.480774,277.987549 
z"/>
<path fill="#F5F5F5" opacity="1.000000" stroke="none" 
	d="
M54.076988,672.737305 
	C58.667294,685.937378 63.157234,698.755188 67.746986,711.857910 
	C64.808128,711.857910 62.331474,711.857910 59.301285,711.857910 
	C57.658043,707.121033 55.749226,702.223389 54.301643,697.193054 
	C53.567169,694.640808 52.466961,693.743408 49.812473,693.807739 
	C42.652111,693.981384 35.479404,694.028198 28.322771,693.789734 
	C25.354496,693.690857 24.305887,694.893616 23.542048,697.502258 
	C22.143343,702.279297 20.369841,706.946472 18.698242,711.817932 
	C16.095592,711.817932 13.495822,711.817932 10.423525,711.817932 
	C15.425910,697.392700 20.312256,683.288635 25.208736,669.188049 
	C27.551662,662.441040 30.191532,655.780518 32.162010,648.927124 
	C33.326344,644.877380 35.930500,645.090271 38.991585,645.186646 
	C41.912682,645.278625 44.684494,644.645447 45.911785,648.786865 
	C48.268982,656.741028 51.252750,664.509460 54.076988,672.737305 
M47.338470,687.076111 
	C48.287624,687.013245 49.236778,686.950439 50.764973,686.849243 
	C46.944088,675.568665 43.241119,664.636230 39.538147,653.703796 
	C39.144707,653.739380 38.751263,653.774902 38.357822,653.810486 
	C34.663956,664.758972 30.970091,675.707458 27.134359,687.076416 
	C34.112762,687.076416 40.240551,687.076416 47.338470,687.076111 
z"/>
<path fill="#F6F6F6" opacity="1.000000" stroke="none" 
	d="
M931.089355,77.937180 
	C917.835022,66.526207 918.082031,39.865768 927.097290,27.779053 
	C935.919617,15.950974 956.026062,12.376013 967.936462,21.103397 
	C971.003052,23.350391 973.177124,26.815290 976.073730,30.072157 
	C973.430176,31.854412 971.683105,33.032234 969.448730,34.538582 
	C965.418579,25.894506 958.390686,23.190142 949.708862,23.638016 
	C940.401917,24.118137 934.018372,28.739040 931.066711,37.583080 
	C928.414612,45.529259 928.373901,53.666492 930.419373,61.733559 
	C932.885132,71.458008 939.441284,76.960922 949.049866,77.790550 
	C958.824768,78.634552 964.660095,74.901497 969.120972,64.969124 
	C969.248352,64.685600 969.527649,64.470299 970.081116,63.814217 
	C971.837524,64.661804 973.711548,65.566132 975.539185,66.448059 
	C972.043518,85.167969 948.600525,91.267838 931.089355,77.937180 
z"/>
<path fill="#000000" opacity="0.000000" stroke="none" 
	d="
M604.563965,295.528107 
	C704.650879,230.986649 804.451538,166.668701 904.710815,102.055176 
	C904.710815,277.100952 904.710815,451.757050 904.710815,626.752136 
	C881.757629,626.752136 858.550720,626.752136 834.921143,626.752136 
	C834.921143,617.313660 834.921143,607.900391 834.921143,598.250122 
	C831.102295,598.250122 827.700378,598.250122 823.872681,598.250122 
	C823.872681,607.791382 823.872681,617.204346 823.872681,626.848022 
	C627.852600,626.848022 432.254272,626.848022 236.592682,626.848022 
	C236.550735,626.724243 236.282745,626.298035 236.382919,626.177307 
	C247.788849,612.425781 248.390030,594.273193 238.114090,579.520508 
	C229.669647,567.397278 218.461639,559.003601 203.560974,553.972107 
	C337.681335,467.545380 470.979462,381.648499 604.563965,295.528107 
M291.366028,540.087219 
	C279.326691,531.200745 265.046783,535.424377 260.671936,549.629395 
	C256.613037,562.808472 256.598694,576.244873 261.016815,589.402161 
	C264.147491,598.725342 270.294220,603.027832 279.154572,602.937012 
	C288.257782,602.843689 294.493073,598.310974 297.389252,588.816101 
	C301.266663,576.104065 301.294861,563.189636 297.429535,550.477600 
	C296.354980,546.943604 293.779785,543.865845 291.366028,540.087219 
M447.443939,597.996033 
	C457.580322,587.907410 460.321350,566.732666 453.440674,552.218872 
	C449.299408,543.483521 442.266968,539.180542 432.807800,539.205688 
	C423.088043,539.231506 415.866699,543.824768 412.106262,552.871643 
	C407.668030,563.548950 407.573944,574.680115 410.816589,585.612793 
	C415.777710,602.339233 432.159149,607.994324 447.443939,597.996033 
M358.171021,548.539551 
	C359.499725,550.153809 360.828430,551.768066 362.195404,553.428772 
	C369.101715,546.010437 375.796875,543.931885 382.302643,546.827454 
	C386.885040,548.866882 388.100220,552.721191 387.411713,557.127563 
	C385.697968,568.095459 376.507599,566.136841 369.220337,567.011475 
	C369.220337,569.082214 369.220337,570.835632 369.220337,572.557983 
	C385.916046,574.047668 389.082825,575.591675 389.957672,582.560974 
	C390.770599,589.037109 388.017151,593.737793 382.378784,595.499634 
	C373.183990,598.372803 367.170197,595.427734 361.360870,584.919189 
	C359.517334,585.757385 357.641174,586.610413 355.745422,587.472290 
	C355.978180,588.679871 356.028931,589.526917 356.305908,590.291992 
	C359.917328,600.266296 370.221558,604.980225 382.812225,602.447998 
	C394.346130,600.128296 400.129974,590.617188 396.964386,579.333069 
	C395.341217,573.547119 390.771606,570.834229 385.419708,568.575806 
	C387.330475,567.160034 388.885559,566.185913 390.233154,564.979858 
	C397.951996,558.072021 396.137146,545.621582 386.805542,541.190247 
	C377.138428,536.599609 365.184052,539.447876 358.171021,548.539551 
M830.480103,587.032104 
	C831.899963,586.936035 833.319885,586.839966 835.152466,586.715942 
	C835.152466,581.098328 835.152466,575.867615 835.152466,570.170288 
	C842.642090,570.170288 849.685730,570.170288 856.643677,570.170288 
	C856.643677,566.410278 856.643677,563.148438 856.643677,559.672791 
	C845.670227,559.672791 834.954102,559.672791 823.963013,559.672791 
	C823.963013,568.838867 823.963013,577.769104 823.963013,587.032166 
	C825.933655,587.032166 827.741455,587.032166 830.480103,587.032104 
M484.047485,569.623962 
	C484.533783,569.513245 485.021851,569.409790 485.506104,569.290894 
	C494.145416,567.170288 498.415009,560.438232 496.966339,551.223938 
	C495.767639,543.599487 488.768646,538.450623 480.591461,539.177673 
	C472.135376,539.929565 466.793579,545.877625 466.816162,554.516663 
	C466.841064,564.048279 472.614532,569.396912 484.047485,569.623962 
M898.075012,570.567688 
	C899.026550,569.617126 900.629211,568.769836 900.799561,567.695435 
	C901.203918,565.144714 900.929565,562.486328 900.929565,559.635254 
	C889.691345,559.635254 878.955017,559.635254 868.049561,559.635254 
	C868.049561,563.312744 868.049561,566.741882 868.049561,570.569397 
	C877.897461,570.569397 887.521790,570.569397 898.075012,570.567688 
M331.490234,565.154480 
	C336.471863,565.154480 341.453522,565.154480 346.533447,565.154480 
	C346.533447,563.059631 346.533447,561.312683 346.533447,559.390015 
	C334.326630,559.390015 322.402679,559.390015 310.303162,559.390015 
	C310.303162,561.391846 310.303162,563.146301 310.303162,565.154480 
	C317.180695,565.154480 323.837097,565.154480 331.490234,565.154480 
M320.529175,576.982117 
	C317.090057,576.982117 313.650940,576.982117 310.296265,576.982117 
	C310.296265,579.225769 310.296265,580.839294 310.296265,582.581665 
	C322.536072,582.581665 334.568878,582.581665 346.586365,582.581665 
	C346.586365,580.621887 346.586365,579.018433 346.586365,576.982117 
	C338.093628,576.982117 329.808044,576.982117 320.529175,576.982117 
z"/>
<path fill="#010101" opacity="0.000000" stroke="none" 
	d="
M212.986877,570.768677 
	C221.703140,577.400757 229.793457,584.054749 231.648697,595.416016 
	C233.173492,604.753723 232.648560,613.396545 223.952225,619.465881 
	C223.146378,620.028320 222.198898,620.739685 221.880295,621.592285 
	C219.556549,627.810974 214.439148,627.147583 209.309891,627.136475 
	C171.847977,627.055359 134.385818,627.092834 96.923737,627.092834 
	C95.178749,627.092834 93.433769,627.092834 90.157959,627.092834 
	C99.496506,621.086853 107.529312,615.933838 115.548950,610.760376 
	C137.610626,596.528442 159.490707,582.002808 181.825043,568.212769 
	C189.181549,563.670654 197.614426,561.192688 205.815628,567.857727 
	C207.634674,569.335999 210.364090,569.694214 212.986877,570.768677 
z"/>
<path fill="#020202" opacity="0.000000" stroke="none" 
	d="
M953.736267,707.323730 
	C946.981873,707.357849 940.694641,707.357849 934.192871,707.357849 
	C934.192871,698.812195 934.192871,690.570374 934.192871,681.956360 
	C940.671265,681.956360 946.957458,681.864258 953.239868,681.978638 
	C961.981140,682.137695 966.419067,686.129150 966.802673,693.948669 
	C967.205627,702.163940 963.211060,706.393677 953.736267,707.323730 
z"/>
<path fill="#010101" opacity="0.000000" stroke="none" 
	d="
M937.143616,653.945496 
	C942.459717,653.957764 947.292847,653.831421 952.114014,654.016113 
	C958.878357,654.275208 962.338867,657.831726 962.419189,664.266357 
	C962.501099,670.832336 958.809021,674.856628 952.071228,675.094116 
	C946.258911,675.299011 940.433594,675.136658 933.980164,675.136658 
	C933.980164,668.653442 933.904663,662.220581 934.097046,655.795654 
	C934.116211,655.154053 935.763611,654.561157 937.143616,653.945496 
z"/>
<path fill="#020202" opacity="0.000000" stroke="none" 
	d="
M456.987549,277.987549 
	C452.064087,277.987549 447.633881,277.987549 441.991669,277.987549 
	C450.382477,264.830688 458.238983,252.511581 466.775940,239.125580 
	C466.775940,252.748260 466.775940,265.151550 466.775940,277.987549 
	C463.713348,277.987549 460.597076,277.987549 456.987549,277.987549 
z"/>
<path fill="#060606" opacity="0.000000" stroke="none" 
	d="
M46.853401,687.076294 
	C40.240551,687.076416 34.112762,687.076416 27.134359,687.076416 
	C30.970091,675.707458 34.663956,664.758972 38.357822,653.810486 
	C38.751263,653.774902 39.144707,653.739380 39.538147,653.703796 
	C43.241119,664.636230 46.944088,675.568665 50.764973,686.849243 
	C49.236778,686.950439 48.287624,687.013245 46.853401,687.076294 
z"/>
<path fill="#F4F4F4" opacity="1.000000" stroke="none" 
	d="
M291.629547,540.333008 
	C293.779785,543.865845 296.354980,546.943604 297.429535,550.477600 
	C301.294861,563.189636 301.266663,576.104065 297.389252,588.816101 
	C294.493073,598.310974 288.257782,602.843689 279.154572,602.937012 
	C270.294220,603.027832 264.147491,598.725342 261.016815,589.402161 
	C256.598694,576.244873 256.613037,562.808472 260.671936,549.629395 
	C265.046783,535.424377 279.326691,531.200745 291.629547,540.333008 
M269.586395,571.731812 
	C267.982849,571.931213 265.418213,570.895569 265.955261,574.096863 
	C266.857117,579.472656 267.577942,584.927979 269.109650,590.133606 
	C270.343872,594.328186 273.962036,596.316711 278.363373,596.494690 
	C282.956268,596.680420 286.532196,594.789612 288.576965,590.673218 
	C291.503754,584.781433 292.394196,578.489380 291.927002,571.731689 
	C284.526855,571.731689 277.546326,571.731689 269.586395,571.731812 
M289.311646,565.115173 
	C290.219177,564.375061 292.006653,563.455811 291.898102,562.922546 
	C290.820404,557.628906 290.289642,551.968628 287.928589,547.250488 
	C284.227692,539.854858 273.736847,540.152832 269.663513,547.379028 
	C266.622101,552.774536 265.781219,558.729614 266.099487,565.115479 
	C273.792969,565.115479 281.068939,565.115479 289.311646,565.115173 
z"/>
<path fill="#F5F5F5" opacity="1.000000" stroke="none" 
	d="
M447.154602,598.215820 
	C432.159149,607.994324 415.777710,602.339233 410.816589,585.612793 
	C407.573944,574.680115 407.668030,563.548950 412.106262,552.871643 
	C415.866699,543.824768 423.088043,539.231506 432.807800,539.205688 
	C442.266968,539.180542 449.299408,543.483521 453.440674,552.218872 
	C460.321350,566.732666 457.580322,587.907410 447.154602,598.215820 
M422.889313,592.741394 
	C433.858032,600.010193 445.952545,595.624817 447.873260,582.818176 
	C449.083710,574.747437 448.736847,566.229431 447.683075,558.094116 
	C446.674042,550.304260 440.775787,546.186279 433.360016,546.028198 
	C425.517120,545.861084 419.451141,549.677002 418.325195,557.731140 
	C417.147156,566.158081 417.557678,574.884644 418.084076,583.430359 
	C418.269135,586.434021 420.854218,589.289917 422.889313,592.741394 
z"/>
<path fill="#F4F4F4" opacity="1.000000" stroke="none" 
	d="
M358.346558,548.234314 
	C365.184052,539.447876 377.138428,536.599609 386.805542,541.190247 
	C396.137146,545.621582 397.951996,558.072021 390.233154,564.979858 
	C388.885559,566.185913 387.330475,567.160034 385.419708,568.575806 
	C390.771606,570.834229 395.341217,573.547119 396.964386,579.333069 
	C400.129974,590.617188 394.346130,600.128296 382.812225,602.447998 
	C370.221558,604.980225 359.917328,600.266296 356.305908,590.291992 
	C356.028931,589.526917 355.978180,588.679871 355.745422,587.472290 
	C357.641174,586.610413 359.517334,585.757385 361.360870,584.919189 
	C367.170197,595.427734 373.183990,598.372803 382.378784,595.499634 
	C388.017151,593.737793 390.770599,589.037109 389.957672,582.560974 
	C389.082825,575.591675 385.916046,574.047668 369.220337,572.557983 
	C369.220337,570.835632 369.220337,569.082214 369.220337,567.011475 
	C376.507599,566.136841 385.697968,568.095459 387.411713,557.127563 
	C388.100220,552.721191 386.885040,548.866882 382.302643,546.827454 
	C375.796875,543.931885 369.101715,546.010437 362.195404,553.428772 
	C360.828430,551.768066 359.499725,550.153809 358.346558,548.234314 
z"/>
<path fill="#F5F5F5" opacity="1.000000" stroke="none" 
	d="
M830.014709,587.032104 
	C827.741455,587.032166 825.933655,587.032166 823.963013,587.032166 
	C823.963013,577.769104 823.963013,568.838867 823.963013,559.672791 
	C834.954102,559.672791 845.670227,559.672791 856.643677,559.672791 
	C856.643677,563.148438 856.643677,566.410278 856.643677,570.170288 
	C849.685730,570.170288 842.642090,570.170288 835.152466,570.170288 
	C835.152466,575.867615 835.152466,581.098328 835.152466,586.715942 
	C833.319885,586.839966 831.899963,586.936035 830.014709,587.032104 
z"/>
<path fill="#F3F3F3" opacity="1.000000" stroke="none" 
	d="
M483.637085,569.671753 
	C472.614532,569.396912 466.841064,564.048279 466.816162,554.516663 
	C466.793579,545.877625 472.135376,539.929565 480.591461,539.177673 
	C488.768646,538.450623 495.767639,543.599487 496.966339,551.223938 
	C498.415009,560.438232 494.145416,567.170288 485.506104,569.290894 
	C485.021851,569.409790 484.533783,569.513245 483.637085,569.671753 
M488.732025,561.175232 
	C492.630737,553.616455 490.464630,546.081665 484.000214,545.023560 
	C479.927643,544.356934 476.332062,545.252747 474.277191,549.273193 
	C472.150177,553.434753 473.052155,559.719543 476.328857,562.146118 
	C480.274689,565.068237 484.335083,564.861267 488.732025,561.175232 
z"/>
<path fill="#E9E9E9" opacity="1.000000" stroke="none" 
	d="
M897.610596,570.568542 
	C887.521790,570.569397 877.897461,570.569397 868.049561,570.569397 
	C868.049561,566.741882 868.049561,563.312744 868.049561,559.635254 
	C878.955017,559.635254 889.691345,559.635254 900.929565,559.635254 
	C900.929565,562.486328 901.203918,565.144714 900.799561,567.695435 
	C900.629211,568.769836 899.026550,569.617126 897.610596,570.568542 
z"/>
<path fill="#F0F0F0" opacity="1.000000" stroke="none" 
	d="
M330.991882,565.154480 
	C323.837097,565.154480 317.180695,565.154480 310.303162,565.154480 
	C310.303162,563.146301 310.303162,561.391846 310.303162,559.390015 
	C322.402679,559.390015 334.326630,559.390015 346.533447,559.390015 
	C346.533447,561.312683 346.533447,563.059631 346.533447,565.154480 
	C341.453522,565.154480 336.471863,565.154480 330.991882,565.154480 
z"/>
<path fill="#F6F6F6" opacity="1.000000" stroke="none" 
	d="
M321.025818,576.982117 
	C329.808044,576.982117 338.093628,576.982117 346.586365,576.982117 
	C346.586365,579.018433 346.586365,580.621887 346.586365,582.581665 
	C334.568878,582.581665 322.536072,582.581665 310.296265,582.581665 
	C310.296265,580.839294 310.296265,579.225769 310.296265,576.982117 
	C313.650940,576.982117 317.090057,576.982117 321.025818,576.982117 
z"/>
<path fill="#030303" opacity="0.000000" stroke="none" 
	d="
M270.076111,571.731750 
	C277.546326,571.731689 284.526855,571.731689 291.927002,571.731689 
	C292.394196,578.489380 291.503754,584.781433 288.576965,590.673218 
	C286.532196,594.789612 282.956268,596.680420 278.363373,596.494690 
	C273.962036,596.316711 270.343872,594.328186 269.109650,590.133606 
	C267.577942,584.927979 266.857117,579.472656 265.955261,574.096863 
	C265.418213,570.895569 267.982849,571.931213 270.076111,571.731750 
z"/>
<path fill="#030303" opacity="0.000000" stroke="none" 
	d="
M288.828308,565.115356 
	C281.068939,565.115479 273.792969,565.115479 266.099487,565.115479 
	C265.781219,558.729614 266.622101,552.774536 269.663513,547.379028 
	C273.736847,540.152832 284.227692,539.854858 287.928589,547.250488 
	C290.289642,551.968628 290.820404,557.628906 291.898102,562.922546 
	C292.006653,563.455811 290.219177,564.375061 288.828308,565.115356 
z"/>
<path fill="#020202" opacity="0.000000" stroke="none" 
	d="
M422.616333,592.477295 
	C420.854218,589.289917 418.269135,586.434021 418.084076,583.430359 
	C417.557678,574.884644 417.147156,566.158081 418.325195,557.731140 
	C419.451141,549.677002 425.517120,545.861084 433.360016,546.028198 
	C440.775787,546.186279 446.674042,550.304260 447.683075,558.094116 
	C448.736847,566.229431 449.083710,574.747437 447.873260,582.818176 
	C445.952545,595.624817 433.858032,600.010193 422.616333,592.477295 
z"/>
<path fill="#070707" opacity="0.000000" stroke="none" 
	d="
M488.460938,561.462646 
	C484.335083,564.861267 480.274689,565.068237 476.328857,562.146118 
	C473.052155,559.719543 472.150177,553.434753 474.277191,549.273193 
	C476.332062,545.252747 479.927643,544.356934 484.000214,545.023560 
	C490.464630,546.081665 492.630737,553.616455 488.460938,561.462646 
z"/>
</svg>