<?xml version="1.0" encoding="utf-8" standalone="no"?>
<!DOCTYPE svg PUBLIC "-//W3C//DTD SVG 1.1//EN"
  "http://www.w3.org/Graphics/SVG/1.1/DTD/svg11.dtd">
<svg xmlns:xlink="http://www.w3.org/1999/xlink" width="460.8pt" height="345.6pt" viewBox="0 0 460.8 345.6" xmlns="http://www.w3.org/2000/svg" version="1.1">
 <metadata>
  <rdf:RDF xmlns:dc="http://purl.org/dc/elements/1.1/" xmlns:cc="http://creativecommons.org/ns#" xmlns:rdf="http://www.w3.org/1999/02/22-rdf-syntax-ns#">
   <cc:Work>
    <dc:type rdf:resource="http://purl.org/dc/dcmitype/StillImage"/>
    <dc:date>2024-05-08T22:18:52.603512</dc:date>
    <dc:format>image/svg+xml</dc:format>
    <dc:creator>
     <cc:Agent>
      <dc:title>Matplotlib v3.8.4, https://matplotlib.org/</dc:title>
     </cc:Agent>
    </dc:creator>
   </cc:Work>
  </rdf:RDF>
 </metadata>
 <defs>
  <style type="text/css">*{stroke-linejoin: round; stroke-linecap: butt}</style>
 </defs>
 <g id="figure_1">
  <g id="patch_1">
   <path d="M 0 345.6 
L 460.8 345.6 
L 460.8 0 
L 0 0 
z
" style="fill: none"/>
  </g>
  <g id="axes_1">
   <g id="patch_2">
    <path d="M 57.6 307.584 
L 414.72 307.584 
L 414.72 41.472 
L 57.6 41.472 
z
" style="fill: none"/>
   </g>
   <g id="line2d_1">
    <path d="M 57.6 280.9728 
L 58.54729 280.839772 
L 59.49458 280.441019 
L 60.441871 279.77754 
L 61.389161 278.850991 
L 62.525909 277.395188 
L 63.662657 275.569174 
L 64.988864 272.97976 
L 66.31507 269.908129 
L 67.830734 265.826629 
L 69.535857 260.538327 
L 71.430437 253.84794 
L 73.514476 245.575947 
L 75.787972 235.57622 
L 78.440385 222.810948 
L 81.471714 207.08062 
L 85.639791 184.179523 
L 93.975944 138.107949 
L 97.196731 121.71127 
L 99.849144 109.331884 
L 102.12264 99.727847 
L 104.206679 91.866131 
L 106.101259 85.58392 
L 107.806382 80.688159 
L 109.322046 76.972957 
L 110.648252 74.233331 
L 111.974459 71.984949 
L 113.111207 70.457167 
L 114.247955 69.303928 
L 115.195245 68.63204 
L 116.142536 68.224836 
L 117.089826 68.083335 
L 118.037116 68.20789 
L 118.984406 68.59819 
L 119.931697 69.25326 
L 120.878987 70.171461 
L 122.015735 71.61736 
L 123.152483 73.433626 
L 124.47869 76.011912 
L 125.804896 79.07273 
L 127.32056 83.142325 
L 129.025683 88.417905 
L 130.920263 95.095106 
L 133.004302 103.353904 
L 135.277798 113.34098 
L 137.930211 126.094027 
L 140.961539 141.814014 
L 145.129616 164.707658 
L 153.46577 210.788707 
L 156.686557 227.197474 
L 159.33897 239.590024 
L 161.612466 249.207442 
L 163.696505 257.082955 
L 165.591085 263.378835 
L 167.296208 268.287698 
L 168.811872 272.015095 
L 170.138078 274.765751 
L 171.464285 277.025442 
L 172.601033 278.563097 
L 173.737781 279.726337 
L 174.685071 280.406633 
L 175.632362 280.822287 
L 176.579652 280.97226 
L 177.526942 280.856178 
L 178.474232 280.474331 
L 179.421522 279.827674 
L 180.368813 278.917822 
L 181.505561 277.481832 
L 182.642309 275.675318 
L 183.968516 273.108167 
L 185.294722 270.05817 
L 186.810386 266.000488 
L 188.515509 260.737645 
L 190.410089 254.073646 
L 192.494128 245.828064 
L 194.767624 235.853665 
L 197.420037 223.112875 
L 200.451365 207.403269 
L 204.619442 184.517136 
L 213.145054 137.427192 
L 216.365841 121.082709 
L 219.018254 108.759997 
L 221.29175 99.213493 
L 223.375789 91.411037 
L 225.270369 85.187492 
L 226.975492 80.347936 
L 228.491156 76.685019 
L 229.817362 73.992666 
L 231.143569 71.792734 
L 232.280317 70.307241 
L 233.417065 69.196829 
L 234.364355 68.560932 
L 235.311646 68.189897 
L 236.258936 68.084651 
L 237.206226 68.245459 
L 238.153516 68.671918 
L 239.100806 69.362962 
L 240.048097 70.316863 
L 241.184845 71.805114 
L 242.321593 73.663057 
L 243.647799 76.288913 
L 244.974006 79.395943 
L 246.48967 83.516402 
L 248.194793 88.846326 
L 250.089373 95.579825 
L 252.173411 103.894936 
L 254.446908 113.935965 
L 257.099321 126.741093 
L 260.130649 142.50505 
L 264.488184 166.491166 
L 272.445422 210.469744 
L 275.666209 226.902564 
L 278.318622 239.321344 
L 280.592118 248.965453 
L 282.676157 256.868499 
L 284.570737 263.19167 
L 286.275859 268.126701 
L 287.791524 271.878459 
L 289.11773 274.651153 
L 290.443936 276.933444 
L 291.580685 278.490833 
L 292.717433 279.674068 
L 293.664723 280.371172 
L 294.612013 280.803723 
L 295.559304 280.97064 
L 296.506594 280.871506 
L 297.453884 280.506569 
L 298.401174 279.87674 
L 299.348464 278.983594 
L 300.485213 277.567431 
L 301.621961 275.780436 
L 302.948167 273.235573 
L 304.274374 270.207241 
L 305.790038 266.173419 
L 307.49516 260.936089 
L 309.389741 254.298544 
L 311.473779 246.079458 
L 313.747276 236.130487 
L 316.399688 223.414309 
L 319.431017 207.725585 
L 323.599094 184.854648 
L 332.124706 137.745177 
L 335.345493 121.376202 
L 337.997905 109.026928 
L 340.271402 99.453477 
L 342.355441 91.623277 
L 344.250021 85.372274 
L 345.955143 80.506419 
L 347.470808 76.819042 
L 348.797014 74.104577 
L 350.12322 71.881985 
L 351.259969 70.376717 
L 352.396717 69.246281 
L 353.344007 68.593556 
L 354.291297 68.205613 
L 355.238588 68.083421 
L 356.185878 68.227284 
L 357.133168 68.636844 
L 358.080458 69.311077 
L 359.027748 70.248297 
L 360.164497 71.71676 
L 361.301245 73.555233 
L 362.627451 76.158869 
L 363.953658 79.244317 
L 365.469322 83.341025 
L 367.174444 88.645578 
L 369.069025 95.352801 
L 371.153063 103.641639 
L 373.42656 113.657507 
L 376.078972 126.438365 
L 379.110301 142.18186 
L 383.278378 165.092403 
L 391.614532 211.15169 
L 394.835319 227.532848 
L 397.487731 239.895357 
L 399.761228 249.482245 
L 401.845266 257.326287 
L 403.739847 263.590996 
L 405.444969 268.469982 
L 406.960634 272.169575 
L 408.28684 274.895086 
L 409.613046 277.128999 
L 410.749794 278.644149 
L 411.886543 279.784593 
L 412.833833 280.445728 
L 413.781123 280.842124 
L 414.538955 280.96794 
L 414.538955 280.96794 
" clip-path="url(#pce9ef7f9bb)" style="fill: none; stroke: #00ced1; stroke-width: 1.5; stroke-linecap: square"/>
   </g>
   <g id="LineCollection_1">
    <path d="M 57.6 174.528 
L 414.72 174.528 
" clip-path="url(#pce9ef7f9bb)" style="fill: none; stroke: #d3d3d3; stroke-width: 1.5"/>
   </g>
   <g id="LineCollection_2">
    <path d="M 236.16 307.584 
L 236.16 41.472 
" clip-path="url(#pce9ef7f9bb)" style="fill: none; stroke: #d3d3d3; stroke-width: 1.5"/>
   </g>
   <g id="matplotlib.axis_1">
    <g id="text_1">
     <!-- X-as -->
     <g style="fill: #d3d3d3" transform="translate(225.512344 319.182437) scale(0.1 -0.1)">
      <defs>
       <path id="DejaVuSans-58" d="M 403 4666 
L 1081 4666 
L 2241 2931 
L 3406 4666 
L 4084 4666 
L 2584 2425 
L 4184 0 
L 3506 0 
L 2194 1984 
L 872 0 
L 191 0 
L 1856 2491 
L 403 4666 
z
" transform="scale(0.015625)"/>
       <path id="DejaVuSans-2d" d="M 313 2009 
L 1997 2009 
L 1997 1497 
L 313 1497 
L 313 2009 
z
" transform="scale(0.015625)"/>
       <path id="DejaVuSans-61" d="M 2194 1759 
Q 1497 1759 1228 1600 
Q 959 1441 959 1056 
Q 959 750 1161 570 
Q 1363 391 1709 391 
Q 2188 391 2477 730 
Q 2766 1069 2766 1631 
L 2766 1759 
L 2194 1759 
z
M 3341 1997 
L 3341 0 
L 2766 0 
L 2766 531 
Q 2569 213 2275 61 
Q 1981 -91 1556 -91 
Q 1019 -91 701 211 
Q 384 513 384 1019 
Q 384 1609 779 1909 
Q 1175 2209 1959 2209 
L 2766 2209 
L 2766 2266 
Q 2766 2663 2505 2880 
Q 2244 3097 1772 3097 
Q 1472 3097 1187 3025 
Q 903 2953 641 2809 
L 641 3341 
Q 956 3463 1253 3523 
Q 1550 3584 1831 3584 
Q 2591 3584 2966 3190 
Q 3341 2797 3341 1997 
z
" transform="scale(0.015625)"/>
       <path id="DejaVuSans-73" d="M 2834 3397 
L 2834 2853 
Q 2591 2978 2328 3040 
Q 2066 3103 1784 3103 
Q 1356 3103 1142 2972 
Q 928 2841 928 2578 
Q 928 2378 1081 2264 
Q 1234 2150 1697 2047 
L 1894 2003 
Q 2506 1872 2764 1633 
Q 3022 1394 3022 966 
Q 3022 478 2636 193 
Q 2250 -91 1575 -91 
Q 1294 -91 989 -36 
Q 684 19 347 128 
L 347 722 
Q 666 556 975 473 
Q 1284 391 1588 391 
Q 1994 391 2212 530 
Q 2431 669 2431 922 
Q 2431 1156 2273 1281 
Q 2116 1406 1581 1522 
L 1381 1569 
Q 847 1681 609 1914 
Q 372 2147 372 2553 
Q 372 3047 722 3315 
Q 1072 3584 1716 3584 
Q 2034 3584 2315 3537 
Q 2597 3491 2834 3397 
z
" transform="scale(0.015625)"/>
      </defs>
      <use xlink:href="#DejaVuSans-58"/>
      <use xlink:href="#DejaVuSans-2d" x="63.505859"/>
      <use xlink:href="#DejaVuSans-61" x="99.589844"/>
      <use xlink:href="#DejaVuSans-73" x="160.869141"/>
     </g>
    </g>
   </g>
   <g id="matplotlib.axis_2">
    <g id="text_2">
     <!-- Y-as -->
     <g style="fill: #d3d3d3" transform="translate(51.520313 184.460813) rotate(-90) scale(0.1 -0.1)">
      <defs>
       <path id="DejaVuSans-59" d="M -13 4666 
L 666 4666 
L 1959 2747 
L 3244 4666 
L 3922 4666 
L 2272 2222 
L 2272 0 
L 1638 0 
L 1638 2222 
L -13 4666 
z
" transform="scale(0.015625)"/>
      </defs>
      <use xlink:href="#DejaVuSans-59"/>
      <use xlink:href="#DejaVuSans-2d" x="49.208984"/>
      <use xlink:href="#DejaVuSans-61" x="85.292969"/>
      <use xlink:href="#DejaVuSans-73" x="146.572266"/>
     </g>
    </g>
   </g>
   <g id="PathCollection_1">
    <defs>
     <path id="m6e29e5476a" d="M 0 3 
C 0.795609 3 1.55874 2.683901 2.12132 2.12132 
C 2.683901 1.55874 3 0.795609 3 0 
C 3 -0.795609 2.683901 -1.55874 2.12132 -2.12132 
C 1.55874 -2.683901 0.795609 -3 0 -3 
C -0.795609 -3 -1.55874 -2.683901 -2.12132 -2.12132 
C -2.683901 -1.55874 -3 -0.795609 -3 0 
C -3 0.795609 -2.683901 1.55874 -2.12132 2.12132 
C -1.55874 2.683901 -0.795609 3 0 3 
z
" style="stroke: #7fffd4"/>
    </defs>
    <g clip-path="url(#pce9ef7f9bb)">
     <use xlink:href="#m6e29e5476a" x="87.36" y="174.528" style="fill: #7fffd4; stroke: #7fffd4"/>
    </g>
   </g>
   <g id="PathCollection_2">
    <g clip-path="url(#pce9ef7f9bb)">
     <use xlink:href="#m6e29e5476a" x="146.88" y="174.528" style="fill: #7fffd4; stroke: #7fffd4"/>
    </g>
   </g>
   <g id="PathCollection_3">
    <g clip-path="url(#pce9ef7f9bb)">
     <use xlink:href="#m6e29e5476a" x="206.4" y="174.528" style="fill: #7fffd4; stroke: #7fffd4"/>
    </g>
   </g>
   <g id="PathCollection_4">
    <g clip-path="url(#pce9ef7f9bb)">
     <use xlink:href="#m6e29e5476a" x="265.92" y="174.528" style="fill: #7fffd4; stroke: #7fffd4"/>
    </g>
   </g>
   <g id="PathCollection_5">
    <g clip-path="url(#pce9ef7f9bb)">
     <use xlink:href="#m6e29e5476a" x="325.44" y="174.528" style="fill: #7fffd4; stroke: #7fffd4"/>
    </g>
   </g>
   <g id="PathCollection_6">
    <g clip-path="url(#pce9ef7f9bb)">
     <use xlink:href="#m6e29e5476a" x="384.96" y="174.528" style="fill: #7fffd4; stroke: #7fffd4"/>
    </g>
   </g>
   <g id="patch_3">
    <path d="M 57.6 307.584 
L 57.6 41.472 
" style="fill: none; stroke: #d3d3d3; stroke-width: 0.8; stroke-linejoin: miter; stroke-linecap: square"/>
   </g>
   <g id="patch_4">
    <path d="M 414.72 307.584 
L 414.72 41.472 
" style="fill: none; stroke: #d3d3d3; stroke-width: 0.8; stroke-linejoin: miter; stroke-linecap: square"/>
   </g>
   <g id="patch_5">
    <path d="M 57.6 307.584 
L 414.72 307.584 
" style="fill: none; stroke: #d3d3d3; stroke-width: 0.8; stroke-linejoin: miter; stroke-linecap: square"/>
   </g>
   <g id="patch_6">
    <path d="M 57.6 41.472 
L 414.72 41.472 
" style="fill: none; stroke: #d3d3d3; stroke-width: 0.8; stroke-linejoin: miter; stroke-linecap: square"/>
   </g>
   <g id="text_3">
    <!-- $- \frac{5 \pi}{2}$ -->
    <g style="fill: #7fffd4" transform="translate(93.043741 191.16) scale(0.144 -0.144)">
     <defs>
      <path id="DejaVuSans-2212" d="M 678 2272 
L 4684 2272 
L 4684 1741 
L 678 1741 
L 678 2272 
z
" transform="scale(0.015625)"/>
      <path id="DejaVuSans-35" d="M 691 4666 
L 3169 4666 
L 3169 4134 
L 1269 4134 
L 1269 2991 
Q 1406 3038 1543 3061 
Q 1681 3084 1819 3084 
Q 2600 3084 3056 2656 
Q 3513 2228 3513 1497 
Q 3513 744 3044 326 
Q 2575 -91 1722 -91 
Q 1428 -91 1123 -41 
Q 819 9 494 109 
L 494 744 
Q 775 591 1075 516 
Q 1375 441 1709 441 
Q 2250 441 2565 725 
Q 2881 1009 2881 1497 
Q 2881 1984 2565 2268 
Q 2250 2553 1709 2553 
Q 1456 2553 1204 2497 
Q 953 2441 691 2322 
L 691 4666 
z
" transform="scale(0.015625)"/>
      <path id="DejaVuSans-Oblique-3c0" d="M 584 3500 
L 3938 3500 
L 3825 2925 
L 3384 2925 
L 2966 775 
Q 2922 550 2981 450 
Q 3038 353 3209 353 
Q 3256 353 3325 363 
Q 3397 369 3419 372 
L 3338 -44 
Q 3222 -84 3103 -103 
Q 2981 -122 2866 -122 
Q 2491 -122 2388 81 
Q 2284 288 2391 838 
L 2797 2925 
L 1506 2925 
L 938 0 
L 350 0 
L 919 2925 
L 472 2925 
L 584 3500 
z
" transform="scale(0.015625)"/>
      <path id="DejaVuSans-32" d="M 1228 531 
L 3431 531 
L 3431 0 
L 469 0 
L 469 531 
Q 828 903 1448 1529 
Q 2069 2156 2228 2338 
Q 2531 2678 2651 2914 
Q 2772 3150 2772 3378 
Q 2772 3750 2511 3984 
Q 2250 4219 1831 4219 
Q 1534 4219 1204 4116 
Q 875 4013 500 3803 
L 500 4441 
Q 881 4594 1212 4672 
Q 1544 4750 1819 4750 
Q 2544 4750 2975 4387 
Q 3406 4025 3406 3419 
Q 3406 3131 3298 2873 
Q 3191 2616 2906 2266 
Q 2828 2175 2409 1742 
Q 1991 1309 1228 531 
z
" transform="scale(0.015625)"/>
     </defs>
     <use xlink:href="#DejaVuSans-2212" transform="translate(0 0.834375)"/>
     <use xlink:href="#DejaVuSans-35" transform="translate(83.789062 45.965625) scale(0.7)"/>
     <use xlink:href="#DejaVuSans-Oblique-3c0" transform="translate(128.325195 45.965625) scale(0.7)"/>
     <use xlink:href="#DejaVuSans-32" transform="translate(104.789062 -38.571875) scale(0.7)"/>
     <path d="M 83.789062 19.63125 
L 83.789062 25.88125 
L 170.46875 25.88125 
L 170.46875 19.63125 
L 83.789062 19.63125 
z
"/>
    </g>
   </g>
   <g id="text_4">
    <!-- $- \frac{3 \pi}{2}$ -->
    <g style="fill: #7fffd4" transform="translate(152.563741 191.16) scale(0.144 -0.144)">
     <defs>
      <path id="DejaVuSans-33" d="M 2597 2516 
Q 3050 2419 3304 2112 
Q 3559 1806 3559 1356 
Q 3559 666 3084 287 
Q 2609 -91 1734 -91 
Q 1441 -91 1130 -33 
Q 819 25 488 141 
L 488 750 
Q 750 597 1062 519 
Q 1375 441 1716 441 
Q 2309 441 2620 675 
Q 2931 909 2931 1356 
Q 2931 1769 2642 2001 
Q 2353 2234 1838 2234 
L 1294 2234 
L 1294 2753 
L 1863 2753 
Q 2328 2753 2575 2939 
Q 2822 3125 2822 3475 
Q 2822 3834 2567 4026 
Q 2313 4219 1838 4219 
Q 1578 4219 1281 4162 
Q 984 4106 628 3988 
L 628 4550 
Q 988 4650 1302 4700 
Q 1616 4750 1894 4750 
Q 2613 4750 3031 4423 
Q 3450 4097 3450 3541 
Q 3450 3153 3228 2886 
Q 3006 2619 2597 2516 
z
" transform="scale(0.015625)"/>
     </defs>
     <use xlink:href="#DejaVuSans-2212" transform="translate(0 0.915625)"/>
     <use xlink:href="#DejaVuSans-33" transform="translate(83.789062 46.046875) scale(0.7)"/>
     <use xlink:href="#DejaVuSans-Oblique-3c0" transform="translate(128.325195 46.046875) scale(0.7)"/>
     <use xlink:href="#DejaVuSans-32" transform="translate(104.789062 -38.490625) scale(0.7)"/>
     <path d="M 83.789062 19.7125 
L 83.789062 25.9625 
L 170.46875 25.9625 
L 170.46875 19.7125 
L 83.789062 19.7125 
z
"/>
    </g>
   </g>
   <g id="text_5">
    <!-- $- \frac{\pi}{2}$ -->
    <g style="fill: #7fffd4" transform="translate(212.083741 191.16) scale(0.144 -0.144)">
     <use xlink:href="#DejaVuSans-2212" transform="translate(0 0.5875)"/>
     <use xlink:href="#DejaVuSans-Oblique-3c0" transform="translate(84.789062 45.71875) scale(0.7)"/>
     <use xlink:href="#DejaVuSans-32" transform="translate(83.789062 -38.81875) scale(0.7)"/>
     <path d="M 83.789062 19.384375 
L 83.789062 25.634375 
L 128.325195 25.634375 
L 128.325195 19.384375 
L 83.789062 19.384375 
z
"/>
    </g>
   </g>
   <g id="text_6">
    <!-- $\frac{\pi}{2}$ -->
    <g style="fill: #7fffd4" transform="translate(271.603741 191.16) scale(0.144 -0.144)">
     <use xlink:href="#DejaVuSans-Oblique-3c0" transform="translate(1 45.71875) scale(0.7)"/>
     <use xlink:href="#DejaVuSans-32" transform="translate(0 -38.81875) scale(0.7)"/>
     <path d="M 0 19.384375 
L 0 25.634375 
L 44.536133 25.634375 
L 44.536133 19.384375 
L 0 19.384375 
z
"/>
    </g>
   </g>
   <g id="text_7">
    <!-- $\frac{3 \pi}{2}$ -->
    <g style="fill: #7fffd4" transform="translate(331.123741 191.16) scale(0.144 -0.144)">
     <use xlink:href="#DejaVuSans-33" transform="translate(0 46.046875) scale(0.7)"/>
     <use xlink:href="#DejaVuSans-Oblique-3c0" transform="translate(44.536133 46.046875) scale(0.7)"/>
     <use xlink:href="#DejaVuSans-32" transform="translate(21 -38.490625) scale(0.7)"/>
     <path d="M 0 19.7125 
L 0 25.9625 
L 86.679688 25.9625 
L 86.679688 19.7125 
L 0 19.7125 
z
"/>
    </g>
   </g>
   <g id="text_8">
    <!-- $\frac{5 \pi}{2}$ -->
    <g style="fill: #7fffd4" transform="translate(390.643741 191.16) scale(0.144 -0.144)">
     <use xlink:href="#DejaVuSans-35" transform="translate(0 45.965625) scale(0.7)"/>
     <use xlink:href="#DejaVuSans-Oblique-3c0" transform="translate(44.536133 45.965625) scale(0.7)"/>
     <use xlink:href="#DejaVuSans-32" transform="translate(21 -38.571875) scale(0.7)"/>
     <path d="M 0 19.63125 
L 0 25.88125 
L 86.679688 25.88125 
L 86.679688 19.63125 
L 0 19.63125 
z
"/>
    </g>
   </g>
   <g id="text_9">
    <!-- Cosinus -->
    <g style="fill: #d3d3d3" transform="translate(212.775937 35.472) scale(0.12 -0.12)">
     <defs>
      <path id="DejaVuSans-43" d="M 4122 4306 
L 4122 3641 
Q 3803 3938 3442 4084 
Q 3081 4231 2675 4231 
Q 1875 4231 1450 3742 
Q 1025 3253 1025 2328 
Q 1025 1406 1450 917 
Q 1875 428 2675 428 
Q 3081 428 3442 575 
Q 3803 722 4122 1019 
L 4122 359 
Q 3791 134 3420 21 
Q 3050 -91 2638 -91 
Q 1578 -91 968 557 
Q 359 1206 359 2328 
Q 359 3453 968 4101 
Q 1578 4750 2638 4750 
Q 3056 4750 3426 4639 
Q 3797 4528 4122 4306 
z
" transform="scale(0.015625)"/>
      <path id="DejaVuSans-6f" d="M 1959 3097 
Q 1497 3097 1228 2736 
Q 959 2375 959 1747 
Q 959 1119 1226 758 
Q 1494 397 1959 397 
Q 2419 397 2687 759 
Q 2956 1122 2956 1747 
Q 2956 2369 2687 2733 
Q 2419 3097 1959 3097 
z
M 1959 3584 
Q 2709 3584 3137 3096 
Q 3566 2609 3566 1747 
Q 3566 888 3137 398 
Q 2709 -91 1959 -91 
Q 1206 -91 779 398 
Q 353 888 353 1747 
Q 353 2609 779 3096 
Q 1206 3584 1959 3584 
z
" transform="scale(0.015625)"/>
      <path id="DejaVuSans-69" d="M 603 3500 
L 1178 3500 
L 1178 0 
L 603 0 
L 603 3500 
z
M 603 4863 
L 1178 4863 
L 1178 4134 
L 603 4134 
L 603 4863 
z
" transform="scale(0.015625)"/>
      <path id="DejaVuSans-6e" d="M 3513 2113 
L 3513 0 
L 2938 0 
L 2938 2094 
Q 2938 2591 2744 2837 
Q 2550 3084 2163 3084 
Q 1697 3084 1428 2787 
Q 1159 2491 1159 1978 
L 1159 0 
L 581 0 
L 581 3500 
L 1159 3500 
L 1159 2956 
Q 1366 3272 1645 3428 
Q 1925 3584 2291 3584 
Q 2894 3584 3203 3211 
Q 3513 2838 3513 2113 
z
" transform="scale(0.015625)"/>
      <path id="DejaVuSans-75" d="M 544 1381 
L 544 3500 
L 1119 3500 
L 1119 1403 
Q 1119 906 1312 657 
Q 1506 409 1894 409 
Q 2359 409 2629 706 
Q 2900 1003 2900 1516 
L 2900 3500 
L 3475 3500 
L 3475 0 
L 2900 0 
L 2900 538 
Q 2691 219 2414 64 
Q 2138 -91 1772 -91 
Q 1169 -91 856 284 
Q 544 659 544 1381 
z
M 1991 3584 
L 1991 3584 
z
" transform="scale(0.015625)"/>
     </defs>
     <use xlink:href="#DejaVuSans-43"/>
     <use xlink:href="#DejaVuSans-6f" x="69.824219"/>
     <use xlink:href="#DejaVuSans-73" x="131.005859"/>
     <use xlink:href="#DejaVuSans-69" x="183.105469"/>
     <use xlink:href="#DejaVuSans-6e" x="210.888672"/>
     <use xlink:href="#DejaVuSans-75" x="274.267578"/>
     <use xlink:href="#DejaVuSans-73" x="337.646484"/>
    </g>
   </g>
  </g>
 </g>
 <defs>
  <clipPath id="pce9ef7f9bb">
   <rect x="57.6" y="41.472" width="357.12" height="266.112"/>
  </clipPath>
 </defs>
</svg>
