<?xml version="1.0" encoding="utf-8" standalone="no"?>
<!DOCTYPE svg PUBLIC "-//W3C//DTD SVG 1.1//EN"
  "http://www.w3.org/Graphics/SVG/1.1/DTD/svg11.dtd">
<svg xmlns:xlink="http://www.w3.org/1999/xlink" width="460.8pt" height="345.6pt" viewBox="0 0 460.8 345.6" xmlns="http://www.w3.org/2000/svg" version="1.1">
 <metadata>
  <rdf:RDF xmlns:dc="http://purl.org/dc/elements/1.1/" xmlns:cc="http://creativecommons.org/ns#" xmlns:rdf="http://www.w3.org/1999/02/22-rdf-syntax-ns#">
   <cc:Work>
    <dc:type rdf:resource="http://purl.org/dc/dcmitype/StillImage"/>
    <dc:date>2024-05-12T16:33:22.247055</dc:date>
    <dc:format>image/svg+xml</dc:format>
    <dc:creator>
     <cc:Agent>
      <dc:title>Matplotlib v3.8.3, https://matplotlib.org/</dc:title>
     </cc:Agent>
    </dc:creator>
   </cc:Work>
  </rdf:RDF>
 </metadata>
 <defs>
  <style type="text/css">*{stroke-linejoin: round; stroke-linecap: butt}</style>
 </defs>
 <g id="figure_1">
  <g id="patch_1">
   <path d="M 0 345.6 
L 460.8 345.6 
L 460.8 0 
L 0 0 
z
" style="fill: none"/>
  </g>
  <g id="axes_1">
   <g id="patch_2">
    <path d="M 103.104 307.584 
L 369.216 307.584 
L 369.216 41.472 
L 103.104 41.472 
z
" style="fill: none"/>
   </g>
   <g id="patch_3">
    <path d="M 236.16 285.408 
C 265.56572 285.408 293.771016 273.724984 314.564 252.932 
C 335.356984 232.139016 347.04 203.93372 347.04 174.528 
C 347.04 145.12228 335.356984 116.916984 314.564 96.124 
C 293.771016 75.331016 265.56572 63.648 236.16 63.648 
C 206.75428 63.648 178.548984 75.331016 157.756 96.124 
C 136.963016 116.916984 125.28 145.12228 125.28 174.528 
C 125.28 203.93372 136.963016 232.139016 157.756 252.932 
C 178.548984 273.724984 206.75428 285.408 236.16 285.408 
L 236.16 285.408 
z
" clip-path="url(#p72ccb38ec2)" style="fill: none; stroke: #ffffff; stroke-linejoin: miter"/>
   </g>
   <g id="matplotlib.axis_1">
    <g id="xtick_1">
     <g id="line2d_1">
      <defs>
       <path id="ma0d6fb278e" d="M 0 0 
L 0 3.5 
" style="stroke: #d3d3d3; stroke-width: 0.8"/>
      </defs>
      <g>
       <use xlink:href="#ma0d6fb278e" x="125.28" y="307.584" style="fill: #d3d3d3; stroke: #d3d3d3; stroke-width: 0.8"/>
      </g>
     </g>
     <g id="text_1">
      <!-- −1.0 -->
      <g style="fill: #d3d3d3" transform="translate(113.138594 322.182437) scale(0.1 -0.1)">
       <defs>
        <path id="DejaVuSans-2212" d="M 678 2272 
L 4684 2272 
L 4684 1741 
L 678 1741 
L 678 2272 
z
" transform="scale(0.015625)"/>
        <path id="DejaVuSans-31" d="M 794 531 
L 1825 531 
L 1825 4091 
L 703 3866 
L 703 4441 
L 1819 4666 
L 2450 4666 
L 2450 531 
L 3481 531 
L 3481 0 
L 794 0 
L 794 531 
z
" transform="scale(0.015625)"/>
        <path id="DejaVuSans-2e" d="M 684 794 
L 1344 794 
L 1344 0 
L 684 0 
L 684 794 
z
" transform="scale(0.015625)"/>
        <path id="DejaVuSans-30" d="M 2034 4250 
Q 1547 4250 1301 3770 
Q 1056 3291 1056 2328 
Q 1056 1369 1301 889 
Q 1547 409 2034 409 
Q 2525 409 2770 889 
Q 3016 1369 3016 2328 
Q 3016 3291 2770 3770 
Q 2525 4250 2034 4250 
z
M 2034 4750 
Q 2819 4750 3233 4129 
Q 3647 3509 3647 2328 
Q 3647 1150 3233 529 
Q 2819 -91 2034 -91 
Q 1250 -91 836 529 
Q 422 1150 422 2328 
Q 422 3509 836 4129 
Q 1250 4750 2034 4750 
z
" transform="scale(0.015625)"/>
       </defs>
       <use xlink:href="#DejaVuSans-2212"/>
       <use xlink:href="#DejaVuSans-31" x="83.789062"/>
       <use xlink:href="#DejaVuSans-2e" x="147.412109"/>
       <use xlink:href="#DejaVuSans-30" x="179.199219"/>
      </g>
     </g>
    </g>
    <g id="xtick_2">
     <g id="line2d_2">
      <g>
       <use xlink:href="#ma0d6fb278e" x="180.72" y="307.584" style="fill: #d3d3d3; stroke: #d3d3d3; stroke-width: 0.8"/>
      </g>
     </g>
     <g id="text_2">
      <!-- −0.5 -->
      <g style="fill: #d3d3d3" transform="translate(168.578594 322.182437) scale(0.1 -0.1)">
       <defs>
        <path id="DejaVuSans-35" d="M 691 4666 
L 3169 4666 
L 3169 4134 
L 1269 4134 
L 1269 2991 
Q 1406 3038 1543 3061 
Q 1681 3084 1819 3084 
Q 2600 3084 3056 2656 
Q 3513 2228 3513 1497 
Q 3513 744 3044 326 
Q 2575 -91 1722 -91 
Q 1428 -91 1123 -41 
Q 819 9 494 109 
L 494 744 
Q 775 591 1075 516 
Q 1375 441 1709 441 
Q 2250 441 2565 725 
Q 2881 1009 2881 1497 
Q 2881 1984 2565 2268 
Q 2250 2553 1709 2553 
Q 1456 2553 1204 2497 
Q 953 2441 691 2322 
L 691 4666 
z
" transform="scale(0.015625)"/>
       </defs>
       <use xlink:href="#DejaVuSans-2212"/>
       <use xlink:href="#DejaVuSans-30" x="83.789062"/>
       <use xlink:href="#DejaVuSans-2e" x="147.412109"/>
       <use xlink:href="#DejaVuSans-35" x="179.199219"/>
      </g>
     </g>
    </g>
    <g id="xtick_3">
     <g id="line2d_3">
      <g>
       <use xlink:href="#ma0d6fb278e" x="236.16" y="307.584" style="fill: #d3d3d3; stroke: #d3d3d3; stroke-width: 0.8"/>
      </g>
     </g>
     <g id="text_3">
      <!-- 0.0 -->
      <g style="fill: #d3d3d3" transform="translate(228.208438 322.182437) scale(0.1 -0.1)">
       <use xlink:href="#DejaVuSans-30"/>
       <use xlink:href="#DejaVuSans-2e" x="63.623047"/>
       <use xlink:href="#DejaVuSans-30" x="95.410156"/>
      </g>
     </g>
    </g>
    <g id="xtick_4">
     <g id="line2d_4">
      <g>
       <use xlink:href="#ma0d6fb278e" x="291.6" y="307.584" style="fill: #d3d3d3; stroke: #d3d3d3; stroke-width: 0.8"/>
      </g>
     </g>
     <g id="text_4">
      <!-- 0.5 -->
      <g style="fill: #d3d3d3" transform="translate(283.648438 322.182437) scale(0.1 -0.1)">
       <use xlink:href="#DejaVuSans-30"/>
       <use xlink:href="#DejaVuSans-2e" x="63.623047"/>
       <use xlink:href="#DejaVuSans-35" x="95.410156"/>
      </g>
     </g>
    </g>
    <g id="xtick_5">
     <g id="line2d_5">
      <g>
       <use xlink:href="#ma0d6fb278e" x="347.04" y="307.584" style="fill: #d3d3d3; stroke: #d3d3d3; stroke-width: 0.8"/>
      </g>
     </g>
     <g id="text_5">
      <!-- 1.0 -->
      <g style="fill: #d3d3d3" transform="translate(339.088437 322.182437) scale(0.1 -0.1)">
       <use xlink:href="#DejaVuSans-31"/>
       <use xlink:href="#DejaVuSans-2e" x="63.623047"/>
       <use xlink:href="#DejaVuSans-30" x="95.410156"/>
      </g>
     </g>
    </g>
    <g id="text_6">
     <!-- X-as -->
     <g style="fill: #d3d3d3" transform="translate(225.512344 335.860562) scale(0.1 -0.1)">
      <defs>
       <path id="DejaVuSans-58" d="M 403 4666 
L 1081 4666 
L 2241 2931 
L 3406 4666 
L 4084 4666 
L 2584 2425 
L 4184 0 
L 3506 0 
L 2194 1984 
L 872 0 
L 191 0 
L 1856 2491 
L 403 4666 
z
" transform="scale(0.015625)"/>
       <path id="DejaVuSans-2d" d="M 313 2009 
L 1997 2009 
L 1997 1497 
L 313 1497 
L 313 2009 
z
" transform="scale(0.015625)"/>
       <path id="DejaVuSans-61" d="M 2194 1759 
Q 1497 1759 1228 1600 
Q 959 1441 959 1056 
Q 959 750 1161 570 
Q 1363 391 1709 391 
Q 2188 391 2477 730 
Q 2766 1069 2766 1631 
L 2766 1759 
L 2194 1759 
z
M 3341 1997 
L 3341 0 
L 2766 0 
L 2766 531 
Q 2569 213 2275 61 
Q 1981 -91 1556 -91 
Q 1019 -91 701 211 
Q 384 513 384 1019 
Q 384 1609 779 1909 
Q 1175 2209 1959 2209 
L 2766 2209 
L 2766 2266 
Q 2766 2663 2505 2880 
Q 2244 3097 1772 3097 
Q 1472 3097 1187 3025 
Q 903 2953 641 2809 
L 641 3341 
Q 956 3463 1253 3523 
Q 1550 3584 1831 3584 
Q 2591 3584 2966 3190 
Q 3341 2797 3341 1997 
z
" transform="scale(0.015625)"/>
       <path id="DejaVuSans-73" d="M 2834 3397 
L 2834 2853 
Q 2591 2978 2328 3040 
Q 2066 3103 1784 3103 
Q 1356 3103 1142 2972 
Q 928 2841 928 2578 
Q 928 2378 1081 2264 
Q 1234 2150 1697 2047 
L 1894 2003 
Q 2506 1872 2764 1633 
Q 3022 1394 3022 966 
Q 3022 478 2636 193 
Q 2250 -91 1575 -91 
Q 1294 -91 989 -36 
Q 684 19 347 128 
L 347 722 
Q 666 556 975 473 
Q 1284 391 1588 391 
Q 1994 391 2212 530 
Q 2431 669 2431 922 
Q 2431 1156 2273 1281 
Q 2116 1406 1581 1522 
L 1381 1569 
Q 847 1681 609 1914 
Q 372 2147 372 2553 
Q 372 3047 722 3315 
Q 1072 3584 1716 3584 
Q 2034 3584 2315 3537 
Q 2597 3491 2834 3397 
z
" transform="scale(0.015625)"/>
      </defs>
      <use xlink:href="#DejaVuSans-58"/>
      <use xlink:href="#DejaVuSans-2d" x="63.505859"/>
      <use xlink:href="#DejaVuSans-61" x="99.589844"/>
      <use xlink:href="#DejaVuSans-73" x="160.869141"/>
     </g>
    </g>
   </g>
   <g id="matplotlib.axis_2">
    <g id="ytick_1">
     <g id="line2d_6">
      <defs>
       <path id="ma4511808bb" d="M 0 0 
L -3.5 0 
" style="stroke: #d3d3d3; stroke-width: 0.8"/>
      </defs>
      <g>
       <use xlink:href="#ma4511808bb" x="103.104" y="285.408" style="fill: #d3d3d3; stroke: #d3d3d3; stroke-width: 0.8"/>
      </g>
     </g>
     <g id="text_7">
      <!-- −1.0 -->
      <g style="fill: #d3d3d3" transform="translate(71.821188 289.207219) scale(0.1 -0.1)">
       <use xlink:href="#DejaVuSans-2212"/>
       <use xlink:href="#DejaVuSans-31" x="83.789062"/>
       <use xlink:href="#DejaVuSans-2e" x="147.412109"/>
       <use xlink:href="#DejaVuSans-30" x="179.199219"/>
      </g>
     </g>
    </g>
    <g id="ytick_2">
     <g id="line2d_7">
      <g>
       <use xlink:href="#ma4511808bb" x="103.104" y="229.968" style="fill: #d3d3d3; stroke: #d3d3d3; stroke-width: 0.8"/>
      </g>
     </g>
     <g id="text_8">
      <!-- −0.5 -->
      <g style="fill: #d3d3d3" transform="translate(71.821188 233.767219) scale(0.1 -0.1)">
       <use xlink:href="#DejaVuSans-2212"/>
       <use xlink:href="#DejaVuSans-30" x="83.789062"/>
       <use xlink:href="#DejaVuSans-2e" x="147.412109"/>
       <use xlink:href="#DejaVuSans-35" x="179.199219"/>
      </g>
     </g>
    </g>
    <g id="ytick_3">
     <g id="line2d_8">
      <g>
       <use xlink:href="#ma4511808bb" x="103.104" y="174.528" style="fill: #d3d3d3; stroke: #d3d3d3; stroke-width: 0.8"/>
      </g>
     </g>
     <g id="text_9">
      <!-- 0.0 -->
      <g style="fill: #d3d3d3" transform="translate(80.200875 178.327219) scale(0.1 -0.1)">
       <use xlink:href="#DejaVuSans-30"/>
       <use xlink:href="#DejaVuSans-2e" x="63.623047"/>
       <use xlink:href="#DejaVuSans-30" x="95.410156"/>
      </g>
     </g>
    </g>
    <g id="ytick_4">
     <g id="line2d_9">
      <g>
       <use xlink:href="#ma4511808bb" x="103.104" y="119.088" style="fill: #d3d3d3; stroke: #d3d3d3; stroke-width: 0.8"/>
      </g>
     </g>
     <g id="text_10">
      <!-- 0.5 -->
      <g style="fill: #d3d3d3" transform="translate(80.200875 122.887219) scale(0.1 -0.1)">
       <use xlink:href="#DejaVuSans-30"/>
       <use xlink:href="#DejaVuSans-2e" x="63.623047"/>
       <use xlink:href="#DejaVuSans-35" x="95.410156"/>
      </g>
     </g>
    </g>
    <g id="ytick_5">
     <g id="line2d_10">
      <g>
       <use xlink:href="#ma4511808bb" x="103.104" y="63.648" style="fill: #d3d3d3; stroke: #d3d3d3; stroke-width: 0.8"/>
      </g>
     </g>
     <g id="text_11">
      <!-- 1.0 -->
      <g style="fill: #d3d3d3" transform="translate(80.200875 67.447219) scale(0.1 -0.1)">
       <use xlink:href="#DejaVuSans-31"/>
       <use xlink:href="#DejaVuSans-2e" x="63.623047"/>
       <use xlink:href="#DejaVuSans-30" x="95.410156"/>
      </g>
     </g>
    </g>
    <g id="text_12">
     <!-- Y-as -->
     <g style="fill: #d3d3d3" transform="translate(65.7415 184.460813) rotate(-90) scale(0.1 -0.1)">
      <defs>
       <path id="DejaVuSans-59" d="M -13 4666 
L 666 4666 
L 1959 2747 
L 3244 4666 
L 3922 4666 
L 2272 2222 
L 2272 0 
L 1638 0 
L 1638 2222 
L -13 4666 
z
" transform="scale(0.015625)"/>
      </defs>
      <use xlink:href="#DejaVuSans-59"/>
      <use xlink:href="#DejaVuSans-2d" x="49.208984"/>
      <use xlink:href="#DejaVuSans-61" x="85.292969"/>
      <use xlink:href="#DejaVuSans-73" x="146.572266"/>
     </g>
    </g>
   </g>
   <g id="LineCollection_1">
    <path d="M 236.16 296.496 
L 236.16 52.56 
" clip-path="url(#p72ccb38ec2)" style="fill: none; stroke: #d3d3d3; stroke-width: 1.5"/>
   </g>
   <g id="LineCollection_2">
    <path d="M 114.192 174.528 
L 358.128 174.528 
" clip-path="url(#p72ccb38ec2)" style="fill: none; stroke: #d3d3d3; stroke-width: 1.5"/>
   </g>
   <g id="line2d_11">
    <path d="M 347.04 174.528 
L 344.950052 153.101402 
L 342.860103 144.370706 
L 340.770155 137.770825 
L 338.680206 132.290792 
L 336.590258 127.537174 
L 334.500309 123.307321 
L 332.410361 119.480362 
L 330.320412 115.977243 
L 328.230464 112.742856 
L 326.140515 109.736942 
L 324.050567 106.929016 
L 321.960619 104.295328 
L 319.87067 101.816941 
L 317.780722 99.478468 
L 315.690773 97.267205 
L 313.600825 95.172515 
L 311.510876 93.185392 
L 309.420928 91.298132 
L 307.330979 89.504085 
L 305.241031 87.797466 
L 303.151083 86.173208 
L 301.061134 84.626848 
L 298.971186 83.15443 
L 296.881237 81.752433 
L 294.791289 80.417712 
L 292.70134 79.14744 
L 290.611392 77.939076 
L 288.521443 76.790322 
L 286.431495 75.699101 
L 284.341546 74.663527 
L 282.251598 73.681885 
L 280.16165 72.752614 
L 278.071701 71.874292 
L 275.981753 71.045623 
L 273.891804 70.265421 
L 271.801856 69.532607 
L 269.711907 68.846195 
L 267.621959 68.205286 
L 265.53201 67.609062 
L 263.442062 67.056778 
L 261.352113 66.547762 
L 259.262165 66.081403 
L 257.172217 65.657154 
L 255.082268 65.274523 
L 252.99232 64.933076 
L 250.902371 64.632427 
L 248.812423 64.372244 
L 246.722474 64.152239 
L 244.632526 63.972174 
L 242.542577 63.831852 
L 240.452629 63.731124 
L 238.36268 63.669881 
L 236.272732 63.648057 
L 234.182784 63.66563 
L 232.092835 63.722618 
L 230.002887 63.819083 
L 227.912938 63.955126 
L 225.82299 64.130896 
L 223.733041 64.346581 
L 221.643093 64.602417 
L 219.553144 64.898685 
L 217.463196 65.235713 
L 215.373248 65.613881 
L 213.283299 66.033618 
L 211.193351 66.495409 
L 209.103402 66.999795 
L 207.013454 67.547379 
L 204.923505 68.138829 
L 202.833557 68.774879 
L 200.743608 69.456341 
L 198.65366 70.184103 
L 196.563711 70.959142 
L 194.473763 71.782528 
L 192.383815 72.655433 
L 190.293866 73.579141 
L 188.203918 74.555061 
L 186.113969 75.584737 
L 184.024021 76.669868 
L 181.934072 77.812318 
L 179.844124 79.014145 
L 177.754175 80.27762 
L 175.664227 81.605259 
L 173.574278 82.999852 
L 171.48433 84.464511 
L 169.394382 86.002712 
L 167.304433 87.618361 
L 165.214485 89.315863 
L 163.124536 91.100214 
L 161.034588 92.977115 
L 158.944639 94.953114 
L 156.854691 97.035792 
L 154.764742 99.234 
L 152.674794 101.558179 
L 150.584845 104.020785 
L 148.494897 106.63688 
L 146.404949 109.424965 
L 144.315 112.408193 
L 142.225052 115.616203 
L 140.135103 119.088 
" clip-path="url(#p72ccb38ec2)" style="fill: none; stroke: #00ced1; stroke-width: 1.5; stroke-linecap: square"/>
   </g>
   <g id="LineCollection_3">
    <path d="M 230.616 78.503103 
L 241.704 78.503103 
" clip-path="url(#p72ccb38ec2)" style="fill: none; stroke: #d3d3d3; stroke-width: 1.5"/>
    <path d="M 230.616 96.124 
L 241.704 96.124 
" clip-path="url(#p72ccb38ec2)" style="fill: none; stroke: #d3d3d3; stroke-width: 1.5"/>
    <path d="M 230.616 119.088 
L 241.704 119.088 
" clip-path="url(#p72ccb38ec2)" style="fill: none; stroke: #d3d3d3; stroke-width: 1.5"/>
   </g>
   <g id="LineCollection_4">
    <path d="M 180.72 180.072 
L 180.72 168.984 
" clip-path="url(#p72ccb38ec2)" style="fill: none; stroke: #d3d3d3; stroke-width: 1.5"/>
    <path d="M 157.756 180.072 
L 157.756 168.984 
" clip-path="url(#p72ccb38ec2)" style="fill: none; stroke: #d3d3d3; stroke-width: 1.5"/>
    <path d="M 140.135103 180.072 
L 140.135103 168.984 
" clip-path="url(#p72ccb38ec2)" style="fill: none; stroke: #d3d3d3; stroke-width: 1.5"/>
   </g>
   <g id="line2d_12">
    <path d="M 236.16 174.528 
L 140.135103 119.088 
" clip-path="url(#p72ccb38ec2)" style="fill: none; stroke: #00ced1; stroke-width: 1.5; stroke-linecap: square"/>
   </g>
   <g id="LineCollection_5">
    <path d="M 230.616 119.088 
L 140.135103 119.088 
" clip-path="url(#p72ccb38ec2)" style="fill: none; stroke-dasharray: 5.55,2.4; stroke-dashoffset: 0; stroke: #00ff7f; stroke-width: 1.5"/>
   </g>
   <g id="LineCollection_6">
    <path d="M 140.135103 168.984 
L 140.135103 119.088 
" clip-path="url(#p72ccb38ec2)" style="fill: none; stroke-dasharray: 5.55,2.4; stroke-dashoffset: 0; stroke: #00ff7f; stroke-width: 1.5"/>
   </g>
   <g id="patch_4">
    <path d="M 103.104 307.584 
L 103.104 41.472 
" style="fill: none; stroke: #d3d3d3; stroke-width: 0.8; stroke-linejoin: miter; stroke-linecap: square"/>
   </g>
   <g id="patch_5">
    <path d="M 369.216 307.584 
L 369.216 41.472 
" style="fill: none; stroke: #d3d3d3; stroke-width: 0.8; stroke-linejoin: miter; stroke-linecap: square"/>
   </g>
   <g id="patch_6">
    <path d="M 103.104 307.584 
L 369.216 307.584 
" style="fill: none; stroke: #d3d3d3; stroke-width: 0.8; stroke-linejoin: miter; stroke-linecap: square"/>
   </g>
   <g id="patch_7">
    <path d="M 103.104 41.472 
L 369.216 41.472 
" style="fill: none; stroke: #d3d3d3; stroke-width: 0.8; stroke-linejoin: miter; stroke-linecap: square"/>
   </g>
   <g id="text_13">
    <!-- $- \frac{1}{2}$ -->
    <g style="fill: #ffffff" transform="translate(169.632 196.704) scale(0.1 -0.1)">
     <defs>
      <path id="DejaVuSans-32" d="M 1228 531 
L 3431 531 
L 3431 0 
L 469 0 
L 469 531 
Q 828 903 1448 1529 
Q 2069 2156 2228 2338 
Q 2531 2678 2651 2914 
Q 2772 3150 2772 3378 
Q 2772 3750 2511 3984 
Q 2250 4219 1831 4219 
Q 1534 4219 1204 4116 
Q 875 4013 500 3803 
L 500 4441 
Q 881 4594 1212 4672 
Q 1544 4750 1819 4750 
Q 2544 4750 2975 4387 
Q 3406 4025 3406 3419 
Q 3406 3131 3298 2873 
Q 3191 2616 2906 2266 
Q 2828 2175 2409 1742 
Q 1991 1309 1228 531 
z
" transform="scale(0.015625)"/>
     </defs>
     <use xlink:href="#DejaVuSans-2212" transform="translate(0 0.16875)"/>
     <use xlink:href="#DejaVuSans-31" transform="translate(83.789062 43.965625) scale(0.7)"/>
     <use xlink:href="#DejaVuSans-32" transform="translate(83.789062 -39.2375) scale(0.7)"/>
     <path d="M 83.789062 18.965625 
L 83.789062 25.215625 
L 128.325195 25.215625 
L 128.325195 18.965625 
L 83.789062 18.965625 
z
"/>
    </g>
   </g>
   <g id="text_14">
    <!-- $\frac{\sqrt{3}}{2}$ -->
    <g style="fill: #ffffff" transform="translate(245.0304 81.829503) scale(0.1 -0.1)">
     <defs>
      <path id="STIXSizeOneSym-Regular-221a" d="M 6970 9933 
L 3373 -1888 
L 3104 -1888 
L 1626 2918 
Q 1555 3149 1465 3251 
Q 1376 3354 1229 3354 
Q 1011 3354 794 3181 
L 717 3309 
L 1766 4115 
L 1926 4115 
L 3379 -602 
L 3405 -602 
L 6605 9933 
L 6970 9933 
z
" transform="scale(0.015625)"/>
      <path id="DejaVuSans-33" d="M 2597 2516 
Q 3050 2419 3304 2112 
Q 3559 1806 3559 1356 
Q 3559 666 3084 287 
Q 2609 -91 1734 -91 
Q 1441 -91 1130 -33 
Q 819 25 488 141 
L 488 750 
Q 750 597 1062 519 
Q 1375 441 1716 441 
Q 2309 441 2620 675 
Q 2931 909 2931 1356 
Q 2931 1769 2642 2001 
Q 2353 2234 1838 2234 
L 1294 2234 
L 1294 2753 
L 1863 2753 
Q 2328 2753 2575 2939 
Q 2822 3125 2822 3475 
Q 2822 3834 2567 4026 
Q 2313 4219 1838 4219 
Q 1578 4219 1281 4162 
Q 984 4106 628 3988 
L 628 4550 
Q 988 4650 1302 4700 
Q 1616 4750 1894 4750 
Q 2613 4750 3031 4423 
Q 3450 4097 3450 3541 
Q 3450 3153 3228 2886 
Q 3006 2619 2597 2516 
z
" transform="scale(0.015625)"/>
     </defs>
     <use xlink:href="#STIXSizeOneSym-Regular-221a" transform="translate(0 55.789063) scale(0.405101)"/>
     <use xlink:href="#DejaVuSans-33" transform="translate(51.571712 44.671875) scale(0.7)"/>
     <use xlink:href="#DejaVuSans-32" transform="translate(30 -39.390625) scale(0.7)"/>
     <path d="M 42.821712 114.25 
L 42.821712 118.625 
L 104.857845 118.625 
L 104.857845 114.25 
L 42.821712 114.25 
z
"/>
     <path d="M 0 18.8125 
L 0 25.0625 
L 104.857845 25.0625 
L 104.857845 18.8125 
L 0 18.8125 
z
"/>
    </g>
   </g>
   <g id="text_15">
    <!-- $- \frac{\sqrt{2}}{2}$ -->
    <g style="fill: #ffffff" transform="translate(146.668 196.704) scale(0.1 -0.1)">
     <use xlink:href="#DejaVuSans-2212" transform="translate(0 0.30625)"/>
     <use xlink:href="#STIXSizeOneSym-Regular-221a" transform="translate(83.789062 55.871875) scale(0.399712)"/>
     <use xlink:href="#DejaVuSans-32" transform="translate(134.805846 43.671875) scale(0.7)"/>
     <use xlink:href="#DejaVuSans-32" transform="translate(113.789062 -39.1) scale(0.7)"/>
     <path d="M 126.055846 113.25 
L 126.055846 117.625 
L 188.091978 117.625 
L 188.091978 113.25 
L 126.055846 113.25 
z
"/>
     <path d="M 83.789062 19.103125 
L 83.789062 25.353125 
L 188.091978 25.353125 
L 188.091978 19.103125 
L 83.789062 19.103125 
z
"/>
    </g>
   </g>
   <g id="text_16">
    <!-- $\frac{\sqrt{2}}{2}$ -->
    <g style="fill: #ffffff" transform="translate(245.0304 99.4504) scale(0.1 -0.1)">
     <use xlink:href="#STIXSizeOneSym-Regular-221a" transform="translate(0 55.871875) scale(0.399712)"/>
     <use xlink:href="#DejaVuSans-32" transform="translate(51.016783 43.671875) scale(0.7)"/>
     <use xlink:href="#DejaVuSans-32" transform="translate(30 -39.1) scale(0.7)"/>
     <path d="M 42.266783 113.25 
L 42.266783 117.625 
L 104.302916 117.625 
L 104.302916 113.25 
L 42.266783 113.25 
z
"/>
     <path d="M 0 19.103125 
L 0 25.353125 
L 104.302916 25.353125 
L 104.302916 19.103125 
L 0 19.103125 
z
"/>
    </g>
   </g>
   <g id="text_17">
    <!-- $- \frac{\sqrt{3}}{2}$ -->
    <g style="fill: #ffffff" transform="translate(129.047103 196.704) scale(0.1 -0.1)">
     <use xlink:href="#DejaVuSans-2212" transform="translate(0 0.015625)"/>
     <use xlink:href="#STIXSizeOneSym-Regular-221a" transform="translate(83.789062 55.789063) scale(0.405101)"/>
     <use xlink:href="#DejaVuSans-33" transform="translate(135.360774 44.671875) scale(0.7)"/>
     <use xlink:href="#DejaVuSans-32" transform="translate(113.789062 -39.390625) scale(0.7)"/>
     <path d="M 126.610774 114.25 
L 126.610774 118.625 
L 188.646907 118.625 
L 188.646907 114.25 
L 126.610774 114.25 
z
"/>
     <path d="M 83.789062 18.8125 
L 83.789062 25.0625 
L 188.646907 25.0625 
L 188.646907 18.8125 
L 83.789062 18.8125 
z
"/>
    </g>
   </g>
   <g id="text_18">
    <!-- $\frac{1}{2}$ -->
    <g style="fill: #ffffff" transform="translate(245.0304 122.4144) scale(0.1 -0.1)">
     <use xlink:href="#DejaVuSans-31" transform="translate(0 43.965625) scale(0.7)"/>
     <use xlink:href="#DejaVuSans-32" transform="translate(0 -39.2375) scale(0.7)"/>
     <path d="M 0 18.965625 
L 0 25.215625 
L 44.536133 25.215625 
L 44.536133 18.965625 
L 0 18.965625 
z
"/>
    </g>
   </g>
   <g id="text_19">
    <!-- $\theta = \frac{5}{6} \pi$ -->
    <g style="fill: #00ced1" transform="translate(106.871103 108) scale(0.13 -0.13)">
     <defs>
      <path id="DejaVuSans-Oblique-3b8" d="M 2913 2219 
L 925 2219 
Q 791 1284 928 888 
Q 1100 400 1566 400 
Q 2034 400 2391 891 
Q 2703 1322 2913 2219 
z
M 3009 2750 
Q 3094 3638 2984 3950 
Q 2813 4444 2353 4444 
Q 1875 4444 1525 3956 
Q 1250 3563 1034 2750 
L 3009 2750 
z
M 2444 4913 
Q 3194 4913 3494 4250 
Q 3794 3591 3566 2422 
Q 3341 1256 2781 594 
Q 2225 -72 1475 -72 
Q 722 -72 425 594 
Q 128 1256 353 2422 
Q 581 3591 1134 4250 
Q 1691 4913 2444 4913 
z
" transform="scale(0.015625)"/>
      <path id="DejaVuSans-3d" d="M 678 2906 
L 4684 2906 
L 4684 2381 
L 678 2381 
L 678 2906 
z
M 678 1631 
L 4684 1631 
L 4684 1100 
L 678 1100 
L 678 1631 
z
" transform="scale(0.015625)"/>
      <path id="DejaVuSans-36" d="M 2113 2584 
Q 1688 2584 1439 2293 
Q 1191 2003 1191 1497 
Q 1191 994 1439 701 
Q 1688 409 2113 409 
Q 2538 409 2786 701 
Q 3034 994 3034 1497 
Q 3034 2003 2786 2293 
Q 2538 2584 2113 2584 
z
M 3366 4563 
L 3366 3988 
Q 3128 4100 2886 4159 
Q 2644 4219 2406 4219 
Q 1781 4219 1451 3797 
Q 1122 3375 1075 2522 
Q 1259 2794 1537 2939 
Q 1816 3084 2150 3084 
Q 2853 3084 3261 2657 
Q 3669 2231 3669 1497 
Q 3669 778 3244 343 
Q 2819 -91 2113 -91 
Q 1303 -91 875 529 
Q 447 1150 447 2328 
Q 447 3434 972 4092 
Q 1497 4750 2381 4750 
Q 2619 4750 2861 4703 
Q 3103 4656 3366 4563 
z
" transform="scale(0.015625)"/>
      <path id="DejaVuSans-Oblique-3c0" d="M 584 3500 
L 3938 3500 
L 3825 2925 
L 3384 2925 
L 2966 775 
Q 2922 550 2981 450 
Q 3038 353 3209 353 
Q 3256 353 3325 363 
Q 3397 369 3419 372 
L 3338 -44 
Q 3222 -84 3103 -103 
Q 2981 -122 2866 -122 
Q 2491 -122 2388 81 
Q 2284 288 2391 838 
L 2797 2925 
L 1506 2925 
L 938 0 
L 350 0 
L 919 2925 
L 472 2925 
L 584 3500 
z
" transform="scale(0.015625)"/>
     </defs>
     <use xlink:href="#DejaVuSans-Oblique-3b8" transform="translate(0 0.173438)"/>
     <use xlink:href="#DejaVuSans-3d" transform="translate(80.664062 0.173438)"/>
     <use xlink:href="#DejaVuSans-35" transform="translate(183.935547 44.965625) scale(0.7)"/>
     <use xlink:href="#DejaVuSans-36" transform="translate(183.935547 -39.232812) scale(0.7)"/>
     <use xlink:href="#DejaVuSans-Oblique-3c0" transform="translate(240.97168 0.173438)"/>
     <path d="M 183.935547 18.970313 
L 183.935547 25.220313 
L 228.47168 25.220313 
L 228.47168 18.970313 
L 183.935547 18.970313 
z
"/>
    </g>
   </g>
   <g id="text_20">
    <!-- $\theta$ -->
    <g style="fill: #00ced1" transform="translate(260.5536 157.896) scale(0.15 -0.15)">
     <use xlink:href="#DejaVuSans-Oblique-3b8" transform="translate(0 0.234375)"/>
    </g>
   </g>
   <g id="PathCollection_1">
    <defs>
     <path id="m99f886ea86" d="M 0 3 
C 0.795609 3 1.55874 2.683901 2.12132 2.12132 
C 2.683901 1.55874 3 0.795609 3 0 
C 3 -0.795609 2.683901 -1.55874 2.12132 -2.12132 
C 1.55874 -2.683901 0.795609 -3 0 -3 
C -0.795609 -3 -1.55874 -2.683901 -2.12132 -2.12132 
C -2.683901 -1.55874 -3 -0.795609 -3 0 
C -3 0.795609 -2.683901 1.55874 -2.12132 2.12132 
C -1.55874 2.683901 -0.795609 3 0 3 
z
" style="stroke: #00ced1"/>
    </defs>
    <g clip-path="url(#p72ccb38ec2)">
     <use xlink:href="#m99f886ea86" x="347.04" y="174.528" style="fill: #00ced1; stroke: #00ced1"/>
     <use xlink:href="#m99f886ea86" x="140.135103" y="119.088" style="fill: #00ced1; stroke: #00ced1"/>
    </g>
   </g>
   <g id="PathCollection_2">
    <defs>
     <path id="m28a1bc3dc9" d="M 0 3 
C 0.795609 3 1.55874 2.683901 2.12132 2.12132 
C 2.683901 1.55874 3 0.795609 3 0 
C 3 -0.795609 2.683901 -1.55874 2.12132 -2.12132 
C 1.55874 -2.683901 0.795609 -3 0 -3 
C -0.795609 -3 -1.55874 -2.683901 -2.12132 -2.12132 
C -2.683901 -1.55874 -3 -0.795609 -3 0 
C -3 0.795609 -2.683901 1.55874 -2.12132 2.12132 
C -1.55874 2.683901 -0.795609 3 0 3 
z
" style="stroke: #00ff7f"/>
    </defs>
    <g clip-path="url(#p72ccb38ec2)">
     <use xlink:href="#m28a1bc3dc9" x="180.72" y="78.503103" style="fill: #00ff7f; stroke: #00ff7f"/>
     <use xlink:href="#m28a1bc3dc9" x="157.756" y="96.124" style="fill: #00ff7f; stroke: #00ff7f"/>
     <use xlink:href="#m28a1bc3dc9" x="140.135103" y="119.088" style="fill: #00ff7f; stroke: #00ff7f"/>
    </g>
   </g>
   <g id="patch_8">
    <path d="M 263.88 174.528 
C 263.88 168.426997 261.86581 162.493384 258.151755 157.653133 
C 254.437699 152.812882 249.22758 149.331592 243.334464 147.752536 
C 237.441348 146.17348 231.188607 146.583307 225.552015 148.918059 
C 219.915424 151.252812 215.204277 155.384377 212.153776 160.668 
" clip-path="url(#p72ccb38ec2)" style="fill: none; stroke: #00ced1; stroke-linejoin: miter"/>
   </g>
  </g>
 </g>
 <defs>
  <clipPath id="p72ccb38ec2">
   <rect x="103.104" y="41.472" width="266.112" height="266.112"/>
  </clipPath>
 </defs>
</svg>
