<?xml version="1.0" encoding="utf-8" standalone="no"?>
<!DOCTYPE svg PUBLIC "-//W3C//DTD SVG 1.1//EN"
  "http://www.w3.org/Graphics/SVG/1.1/DTD/svg11.dtd">
<svg xmlns:xlink="http://www.w3.org/1999/xlink" width="460.8pt" height="345.6pt" viewBox="0 0 460.8 345.6" xmlns="http://www.w3.org/2000/svg" version="1.1">
 <metadata>
  <rdf:RDF xmlns:dc="http://purl.org/dc/elements/1.1/" xmlns:cc="http://creativecommons.org/ns#" xmlns:rdf="http://www.w3.org/1999/02/22-rdf-syntax-ns#">
   <cc:Work>
    <dc:type rdf:resource="http://purl.org/dc/dcmitype/StillImage"/>
    <dc:date>2024-05-11T17:16:59.022460</dc:date>
    <dc:format>image/svg+xml</dc:format>
    <dc:creator>
     <cc:Agent>
      <dc:title>Matplotlib v3.8.3, https://matplotlib.org/</dc:title>
     </cc:Agent>
    </dc:creator>
   </cc:Work>
  </rdf:RDF>
 </metadata>
 <defs>
  <style type="text/css">*{stroke-linejoin: round; stroke-linecap: butt}</style>
 </defs>
 <g id="figure_1">
  <g id="patch_1">
   <path d="M 0 345.6 
L 460.8 345.6 
L 460.8 0 
L 0 0 
z
" style="fill: none"/>
  </g>
  <g id="axes_1">
   <g id="patch_2">
    <path d="M 103.104 307.584 
L 369.216 307.584 
L 369.216 41.472 
L 103.104 41.472 
z
" style="fill: none"/>
   </g>
   <g id="patch_3">
    <path d="M 236.16 285.408 
C 265.56572 285.408 293.771016 273.724984 314.564 252.932 
C 335.356984 232.139016 347.04 203.93372 347.04 174.528 
C 347.04 145.12228 335.356984 116.916984 314.564 96.124 
C 293.771016 75.331016 265.56572 63.648 236.16 63.648 
C 206.75428 63.648 178.548984 75.331016 157.756 96.124 
C 136.963016 116.916984 125.28 145.12228 125.28 174.528 
C 125.28 203.93372 136.963016 232.139016 157.756 252.932 
C 178.548984 273.724984 206.75428 285.408 236.16 285.408 
L 236.16 285.408 
z
" clip-path="url(#pd7be853e13)" style="fill: none; stroke: #00ced1; stroke-linejoin: miter"/>
   </g>
   <g id="matplotlib.axis_1">
    <g id="xtick_1">
     <g id="line2d_1">
      <defs>
       <path id="m1c22e0d259" d="M 0 0 
L 0 3.5 
" style="stroke: #d3d3d3; stroke-width: 0.8"/>
      </defs>
      <g>
       <use xlink:href="#m1c22e0d259" x="125.28" y="307.584" style="fill: #d3d3d3; stroke: #d3d3d3; stroke-width: 0.8"/>
      </g>
     </g>
     <g id="text_1">
      <!-- −1.0 -->
      <g style="fill: #d3d3d3" transform="translate(113.138594 322.182437) scale(0.1 -0.1)">
       <defs>
        <path id="DejaVuSans-2212" d="M 678 2272 
L 4684 2272 
L 4684 1741 
L 678 1741 
L 678 2272 
z
" transform="scale(0.015625)"/>
        <path id="DejaVuSans-31" d="M 794 531 
L 1825 531 
L 1825 4091 
L 703 3866 
L 703 4441 
L 1819 4666 
L 2450 4666 
L 2450 531 
L 3481 531 
L 3481 0 
L 794 0 
L 794 531 
z
" transform="scale(0.015625)"/>
        <path id="DejaVuSans-2e" d="M 684 794 
L 1344 794 
L 1344 0 
L 684 0 
L 684 794 
z
" transform="scale(0.015625)"/>
        <path id="DejaVuSans-30" d="M 2034 4250 
Q 1547 4250 1301 3770 
Q 1056 3291 1056 2328 
Q 1056 1369 1301 889 
Q 1547 409 2034 409 
Q 2525 409 2770 889 
Q 3016 1369 3016 2328 
Q 3016 3291 2770 3770 
Q 2525 4250 2034 4250 
z
M 2034 4750 
Q 2819 4750 3233 4129 
Q 3647 3509 3647 2328 
Q 3647 1150 3233 529 
Q 2819 -91 2034 -91 
Q 1250 -91 836 529 
Q 422 1150 422 2328 
Q 422 3509 836 4129 
Q 1250 4750 2034 4750 
z
" transform="scale(0.015625)"/>
       </defs>
       <use xlink:href="#DejaVuSans-2212"/>
       <use xlink:href="#DejaVuSans-31" x="83.789062"/>
       <use xlink:href="#DejaVuSans-2e" x="147.412109"/>
       <use xlink:href="#DejaVuSans-30" x="179.199219"/>
      </g>
     </g>
    </g>
    <g id="xtick_2">
     <g id="line2d_2">
      <g>
       <use xlink:href="#m1c22e0d259" x="180.72" y="307.584" style="fill: #d3d3d3; stroke: #d3d3d3; stroke-width: 0.8"/>
      </g>
     </g>
     <g id="text_2">
      <!-- −0.5 -->
      <g style="fill: #d3d3d3" transform="translate(168.578594 322.182437) scale(0.1 -0.1)">
       <defs>
        <path id="DejaVuSans-35" d="M 691 4666 
L 3169 4666 
L 3169 4134 
L 1269 4134 
L 1269 2991 
Q 1406 3038 1543 3061 
Q 1681 3084 1819 3084 
Q 2600 3084 3056 2656 
Q 3513 2228 3513 1497 
Q 3513 744 3044 326 
Q 2575 -91 1722 -91 
Q 1428 -91 1123 -41 
Q 819 9 494 109 
L 494 744 
Q 775 591 1075 516 
Q 1375 441 1709 441 
Q 2250 441 2565 725 
Q 2881 1009 2881 1497 
Q 2881 1984 2565 2268 
Q 2250 2553 1709 2553 
Q 1456 2553 1204 2497 
Q 953 2441 691 2322 
L 691 4666 
z
" transform="scale(0.015625)"/>
       </defs>
       <use xlink:href="#DejaVuSans-2212"/>
       <use xlink:href="#DejaVuSans-30" x="83.789062"/>
       <use xlink:href="#DejaVuSans-2e" x="147.412109"/>
       <use xlink:href="#DejaVuSans-35" x="179.199219"/>
      </g>
     </g>
    </g>
    <g id="xtick_3">
     <g id="line2d_3">
      <g>
       <use xlink:href="#m1c22e0d259" x="236.16" y="307.584" style="fill: #d3d3d3; stroke: #d3d3d3; stroke-width: 0.8"/>
      </g>
     </g>
     <g id="text_3">
      <!-- 0.0 -->
      <g style="fill: #d3d3d3" transform="translate(228.208438 322.182437) scale(0.1 -0.1)">
       <use xlink:href="#DejaVuSans-30"/>
       <use xlink:href="#DejaVuSans-2e" x="63.623047"/>
       <use xlink:href="#DejaVuSans-30" x="95.410156"/>
      </g>
     </g>
    </g>
    <g id="xtick_4">
     <g id="line2d_4">
      <g>
       <use xlink:href="#m1c22e0d259" x="291.6" y="307.584" style="fill: #d3d3d3; stroke: #d3d3d3; stroke-width: 0.8"/>
      </g>
     </g>
     <g id="text_4">
      <!-- 0.5 -->
      <g style="fill: #d3d3d3" transform="translate(283.648438 322.182437) scale(0.1 -0.1)">
       <use xlink:href="#DejaVuSans-30"/>
       <use xlink:href="#DejaVuSans-2e" x="63.623047"/>
       <use xlink:href="#DejaVuSans-35" x="95.410156"/>
      </g>
     </g>
    </g>
    <g id="xtick_5">
     <g id="line2d_5">
      <g>
       <use xlink:href="#m1c22e0d259" x="347.04" y="307.584" style="fill: #d3d3d3; stroke: #d3d3d3; stroke-width: 0.8"/>
      </g>
     </g>
     <g id="text_5">
      <!-- 1.0 -->
      <g style="fill: #d3d3d3" transform="translate(339.088437 322.182437) scale(0.1 -0.1)">
       <use xlink:href="#DejaVuSans-31"/>
       <use xlink:href="#DejaVuSans-2e" x="63.623047"/>
       <use xlink:href="#DejaVuSans-30" x="95.410156"/>
      </g>
     </g>
    </g>
    <g id="text_6">
     <!-- X-as -->
     <g style="fill: #d3d3d3" transform="translate(225.512344 335.860562) scale(0.1 -0.1)">
      <defs>
       <path id="DejaVuSans-58" d="M 403 4666 
L 1081 4666 
L 2241 2931 
L 3406 4666 
L 4084 4666 
L 2584 2425 
L 4184 0 
L 3506 0 
L 2194 1984 
L 872 0 
L 191 0 
L 1856 2491 
L 403 4666 
z
" transform="scale(0.015625)"/>
       <path id="DejaVuSans-2d" d="M 313 2009 
L 1997 2009 
L 1997 1497 
L 313 1497 
L 313 2009 
z
" transform="scale(0.015625)"/>
       <path id="DejaVuSans-61" d="M 2194 1759 
Q 1497 1759 1228 1600 
Q 959 1441 959 1056 
Q 959 750 1161 570 
Q 1363 391 1709 391 
Q 2188 391 2477 730 
Q 2766 1069 2766 1631 
L 2766 1759 
L 2194 1759 
z
M 3341 1997 
L 3341 0 
L 2766 0 
L 2766 531 
Q 2569 213 2275 61 
Q 1981 -91 1556 -91 
Q 1019 -91 701 211 
Q 384 513 384 1019 
Q 384 1609 779 1909 
Q 1175 2209 1959 2209 
L 2766 2209 
L 2766 2266 
Q 2766 2663 2505 2880 
Q 2244 3097 1772 3097 
Q 1472 3097 1187 3025 
Q 903 2953 641 2809 
L 641 3341 
Q 956 3463 1253 3523 
Q 1550 3584 1831 3584 
Q 2591 3584 2966 3190 
Q 3341 2797 3341 1997 
z
" transform="scale(0.015625)"/>
       <path id="DejaVuSans-73" d="M 2834 3397 
L 2834 2853 
Q 2591 2978 2328 3040 
Q 2066 3103 1784 3103 
Q 1356 3103 1142 2972 
Q 928 2841 928 2578 
Q 928 2378 1081 2264 
Q 1234 2150 1697 2047 
L 1894 2003 
Q 2506 1872 2764 1633 
Q 3022 1394 3022 966 
Q 3022 478 2636 193 
Q 2250 -91 1575 -91 
Q 1294 -91 989 -36 
Q 684 19 347 128 
L 347 722 
Q 666 556 975 473 
Q 1284 391 1588 391 
Q 1994 391 2212 530 
Q 2431 669 2431 922 
Q 2431 1156 2273 1281 
Q 2116 1406 1581 1522 
L 1381 1569 
Q 847 1681 609 1914 
Q 372 2147 372 2553 
Q 372 3047 722 3315 
Q 1072 3584 1716 3584 
Q 2034 3584 2315 3537 
Q 2597 3491 2834 3397 
z
" transform="scale(0.015625)"/>
      </defs>
      <use xlink:href="#DejaVuSans-58"/>
      <use xlink:href="#DejaVuSans-2d" x="63.505859"/>
      <use xlink:href="#DejaVuSans-61" x="99.589844"/>
      <use xlink:href="#DejaVuSans-73" x="160.869141"/>
     </g>
    </g>
   </g>
   <g id="matplotlib.axis_2">
    <g id="ytick_1">
     <g id="line2d_6">
      <defs>
       <path id="m1c38562f3b" d="M 0 0 
L -3.5 0 
" style="stroke: #d3d3d3; stroke-width: 0.8"/>
      </defs>
      <g>
       <use xlink:href="#m1c38562f3b" x="103.104" y="285.408" style="fill: #d3d3d3; stroke: #d3d3d3; stroke-width: 0.8"/>
      </g>
     </g>
     <g id="text_7">
      <!-- −1.0 -->
      <g style="fill: #d3d3d3" transform="translate(71.821188 289.207219) scale(0.1 -0.1)">
       <use xlink:href="#DejaVuSans-2212"/>
       <use xlink:href="#DejaVuSans-31" x="83.789062"/>
       <use xlink:href="#DejaVuSans-2e" x="147.412109"/>
       <use xlink:href="#DejaVuSans-30" x="179.199219"/>
      </g>
     </g>
    </g>
    <g id="ytick_2">
     <g id="line2d_7">
      <g>
       <use xlink:href="#m1c38562f3b" x="103.104" y="229.968" style="fill: #d3d3d3; stroke: #d3d3d3; stroke-width: 0.8"/>
      </g>
     </g>
     <g id="text_8">
      <!-- −0.5 -->
      <g style="fill: #d3d3d3" transform="translate(71.821188 233.767219) scale(0.1 -0.1)">
       <use xlink:href="#DejaVuSans-2212"/>
       <use xlink:href="#DejaVuSans-30" x="83.789062"/>
       <use xlink:href="#DejaVuSans-2e" x="147.412109"/>
       <use xlink:href="#DejaVuSans-35" x="179.199219"/>
      </g>
     </g>
    </g>
    <g id="ytick_3">
     <g id="line2d_8">
      <g>
       <use xlink:href="#m1c38562f3b" x="103.104" y="174.528" style="fill: #d3d3d3; stroke: #d3d3d3; stroke-width: 0.8"/>
      </g>
     </g>
     <g id="text_9">
      <!-- 0.0 -->
      <g style="fill: #d3d3d3" transform="translate(80.200875 178.327219) scale(0.1 -0.1)">
       <use xlink:href="#DejaVuSans-30"/>
       <use xlink:href="#DejaVuSans-2e" x="63.623047"/>
       <use xlink:href="#DejaVuSans-30" x="95.410156"/>
      </g>
     </g>
    </g>
    <g id="ytick_4">
     <g id="line2d_9">
      <g>
       <use xlink:href="#m1c38562f3b" x="103.104" y="119.088" style="fill: #d3d3d3; stroke: #d3d3d3; stroke-width: 0.8"/>
      </g>
     </g>
     <g id="text_10">
      <!-- 0.5 -->
      <g style="fill: #d3d3d3" transform="translate(80.200875 122.887219) scale(0.1 -0.1)">
       <use xlink:href="#DejaVuSans-30"/>
       <use xlink:href="#DejaVuSans-2e" x="63.623047"/>
       <use xlink:href="#DejaVuSans-35" x="95.410156"/>
      </g>
     </g>
    </g>
    <g id="ytick_5">
     <g id="line2d_10">
      <g>
       <use xlink:href="#m1c38562f3b" x="103.104" y="63.648" style="fill: #d3d3d3; stroke: #d3d3d3; stroke-width: 0.8"/>
      </g>
     </g>
     <g id="text_11">
      <!-- 1.0 -->
      <g style="fill: #d3d3d3" transform="translate(80.200875 67.447219) scale(0.1 -0.1)">
       <use xlink:href="#DejaVuSans-31"/>
       <use xlink:href="#DejaVuSans-2e" x="63.623047"/>
       <use xlink:href="#DejaVuSans-30" x="95.410156"/>
      </g>
     </g>
    </g>
    <g id="text_12">
     <!-- Y-as -->
     <g style="fill: #d3d3d3" transform="translate(65.7415 184.460813) rotate(-90) scale(0.1 -0.1)">
      <defs>
       <path id="DejaVuSans-59" d="M -13 4666 
L 666 4666 
L 1959 2747 
L 3244 4666 
L 3922 4666 
L 2272 2222 
L 2272 0 
L 1638 0 
L 1638 2222 
L -13 4666 
z
" transform="scale(0.015625)"/>
      </defs>
      <use xlink:href="#DejaVuSans-59"/>
      <use xlink:href="#DejaVuSans-2d" x="49.208984"/>
      <use xlink:href="#DejaVuSans-61" x="85.292969"/>
      <use xlink:href="#DejaVuSans-73" x="146.572266"/>
     </g>
    </g>
   </g>
   <g id="LineCollection_1">
    <path d="M 236.16 296.496 
L 236.16 52.56 
" clip-path="url(#pd7be853e13)" style="fill: none; stroke: #d3d3d3; stroke-width: 1.5"/>
   </g>
   <g id="LineCollection_2">
    <path d="M 114.192 174.528 
L 358.128 174.528 
" clip-path="url(#pd7be853e13)" style="fill: none; stroke: #d3d3d3; stroke-width: 1.5"/>
   </g>
   <g id="line2d_11">
    <path d="M 236.16 174.528 
L 332.184897 119.088 
" clip-path="url(#pd7be853e13)" style="fill: none; stroke: #00ced1; stroke-width: 1.5; stroke-linecap: square"/>
   </g>
   <g id="LineCollection_3">
    <path d="M 230.616 119.088 
L 241.704 119.088 
" clip-path="url(#pd7be853e13)" style="fill: none; stroke: #d3d3d3; stroke-width: 1.5"/>
   </g>
   <g id="LineCollection_4">
    <path d="M 332.184897 180.072 
L 332.184897 168.984 
" clip-path="url(#pd7be853e13)" style="fill: none; stroke: #d3d3d3; stroke-width: 1.5"/>
   </g>
   <g id="line2d_12">
    <path d="M 236.16 174.528 
L 314.564 96.124 
" clip-path="url(#pd7be853e13)" style="fill: none; stroke: #00ced1; stroke-width: 1.5; stroke-linecap: square"/>
   </g>
   <g id="LineCollection_5">
    <path d="M 230.616 96.124 
L 241.704 96.124 
" clip-path="url(#pd7be853e13)" style="fill: none; stroke: #d3d3d3; stroke-width: 1.5"/>
   </g>
   <g id="LineCollection_6">
    <path d="M 314.564 180.072 
L 314.564 168.984 
" clip-path="url(#pd7be853e13)" style="fill: none; stroke: #d3d3d3; stroke-width: 1.5"/>
   </g>
   <g id="line2d_13">
    <path d="M 236.16 174.528 
L 291.6 78.503103 
" clip-path="url(#pd7be853e13)" style="fill: none; stroke: #00ced1; stroke-width: 1.5; stroke-linecap: square"/>
   </g>
   <g id="LineCollection_7">
    <path d="M 230.616 78.503103 
L 241.704 78.503103 
" clip-path="url(#pd7be853e13)" style="fill: none; stroke: #d3d3d3; stroke-width: 1.5"/>
   </g>
   <g id="LineCollection_8">
    <path d="M 291.6 180.072 
L 291.6 168.984 
" clip-path="url(#pd7be853e13)" style="fill: none; stroke: #d3d3d3; stroke-width: 1.5"/>
   </g>
   <g id="line2d_14">
    <path d="M 236.16 174.528 
L 180.72 78.503103 
" clip-path="url(#pd7be853e13)" style="fill: none; stroke: #00ced1; stroke-width: 1.5; stroke-linecap: square"/>
   </g>
   <g id="LineCollection_9">
    <path d="M 230.616 78.503103 
L 241.704 78.503103 
" clip-path="url(#pd7be853e13)" style="fill: none; stroke: #d3d3d3; stroke-width: 1.5"/>
   </g>
   <g id="LineCollection_10">
    <path d="M 180.72 180.072 
L 180.72 168.984 
" clip-path="url(#pd7be853e13)" style="fill: none; stroke: #d3d3d3; stroke-width: 1.5"/>
   </g>
   <g id="line2d_15">
    <path d="M 236.16 174.528 
L 157.756 96.124 
" clip-path="url(#pd7be853e13)" style="fill: none; stroke: #00ced1; stroke-width: 1.5; stroke-linecap: square"/>
   </g>
   <g id="LineCollection_11">
    <path d="M 230.616 96.124 
L 241.704 96.124 
" clip-path="url(#pd7be853e13)" style="fill: none; stroke: #d3d3d3; stroke-width: 1.5"/>
   </g>
   <g id="LineCollection_12">
    <path d="M 157.756 180.072 
L 157.756 168.984 
" clip-path="url(#pd7be853e13)" style="fill: none; stroke: #d3d3d3; stroke-width: 1.5"/>
   </g>
   <g id="line2d_16">
    <path d="M 236.16 174.528 
L 140.135103 119.088 
" clip-path="url(#pd7be853e13)" style="fill: none; stroke: #00ced1; stroke-width: 1.5; stroke-linecap: square"/>
   </g>
   <g id="LineCollection_13">
    <path d="M 230.616 119.088 
L 241.704 119.088 
" clip-path="url(#pd7be853e13)" style="fill: none; stroke: #d3d3d3; stroke-width: 1.5"/>
   </g>
   <g id="LineCollection_14">
    <path d="M 140.135103 180.072 
L 140.135103 168.984 
" clip-path="url(#pd7be853e13)" style="fill: none; stroke: #d3d3d3; stroke-width: 1.5"/>
   </g>
   <g id="line2d_17">
    <path d="M 236.16 174.528 
L 140.135103 229.968 
" clip-path="url(#pd7be853e13)" style="fill: none; stroke: #00ced1; stroke-width: 1.5; stroke-linecap: square"/>
   </g>
   <g id="LineCollection_15">
    <path d="M 230.616 229.968 
L 241.704 229.968 
" clip-path="url(#pd7be853e13)" style="fill: none; stroke: #d3d3d3; stroke-width: 1.5"/>
   </g>
   <g id="LineCollection_16">
    <path d="M 140.135103 180.072 
L 140.135103 168.984 
" clip-path="url(#pd7be853e13)" style="fill: none; stroke: #d3d3d3; stroke-width: 1.5"/>
   </g>
   <g id="line2d_18">
    <path d="M 236.16 174.528 
L 157.756 252.932 
" clip-path="url(#pd7be853e13)" style="fill: none; stroke: #00ced1; stroke-width: 1.5; stroke-linecap: square"/>
   </g>
   <g id="LineCollection_17">
    <path d="M 230.616 252.932 
L 241.704 252.932 
" clip-path="url(#pd7be853e13)" style="fill: none; stroke: #d3d3d3; stroke-width: 1.5"/>
   </g>
   <g id="LineCollection_18">
    <path d="M 157.756 180.072 
L 157.756 168.984 
" clip-path="url(#pd7be853e13)" style="fill: none; stroke: #d3d3d3; stroke-width: 1.5"/>
   </g>
   <g id="line2d_19">
    <path d="M 236.16 174.528 
L 180.72 270.552897 
" clip-path="url(#pd7be853e13)" style="fill: none; stroke: #00ced1; stroke-width: 1.5; stroke-linecap: square"/>
   </g>
   <g id="LineCollection_19">
    <path d="M 230.616 270.552897 
L 241.704 270.552897 
" clip-path="url(#pd7be853e13)" style="fill: none; stroke: #d3d3d3; stroke-width: 1.5"/>
   </g>
   <g id="LineCollection_20">
    <path d="M 180.72 180.072 
L 180.72 168.984 
" clip-path="url(#pd7be853e13)" style="fill: none; stroke: #d3d3d3; stroke-width: 1.5"/>
   </g>
   <g id="line2d_20">
    <path d="M 236.16 174.528 
L 291.6 270.552897 
" clip-path="url(#pd7be853e13)" style="fill: none; stroke: #00ced1; stroke-width: 1.5; stroke-linecap: square"/>
   </g>
   <g id="LineCollection_21">
    <path d="M 230.616 270.552897 
L 241.704 270.552897 
" clip-path="url(#pd7be853e13)" style="fill: none; stroke: #d3d3d3; stroke-width: 1.5"/>
   </g>
   <g id="LineCollection_22">
    <path d="M 291.6 180.072 
L 291.6 168.984 
" clip-path="url(#pd7be853e13)" style="fill: none; stroke: #d3d3d3; stroke-width: 1.5"/>
   </g>
   <g id="line2d_21">
    <path d="M 236.16 174.528 
L 314.564 252.932 
" clip-path="url(#pd7be853e13)" style="fill: none; stroke: #00ced1; stroke-width: 1.5; stroke-linecap: square"/>
   </g>
   <g id="LineCollection_23">
    <path d="M 230.616 252.932 
L 241.704 252.932 
" clip-path="url(#pd7be853e13)" style="fill: none; stroke: #d3d3d3; stroke-width: 1.5"/>
   </g>
   <g id="LineCollection_24">
    <path d="M 314.564 180.072 
L 314.564 168.984 
" clip-path="url(#pd7be853e13)" style="fill: none; stroke: #d3d3d3; stroke-width: 1.5"/>
   </g>
   <g id="line2d_22">
    <path d="M 236.16 174.528 
L 332.184897 229.968 
" clip-path="url(#pd7be853e13)" style="fill: none; stroke: #00ced1; stroke-width: 1.5; stroke-linecap: square"/>
   </g>
   <g id="LineCollection_25">
    <path d="M 230.616 229.968 
L 241.704 229.968 
" clip-path="url(#pd7be853e13)" style="fill: none; stroke: #d3d3d3; stroke-width: 1.5"/>
   </g>
   <g id="LineCollection_26">
    <path d="M 332.184897 180.072 
L 332.184897 168.984 
" clip-path="url(#pd7be853e13)" style="fill: none; stroke: #d3d3d3; stroke-width: 1.5"/>
   </g>
   <g id="patch_4">
    <path d="M 103.104 307.584 
L 103.104 41.472 
" style="fill: none; stroke: #d3d3d3; stroke-width: 0.8; stroke-linejoin: miter; stroke-linecap: square"/>
   </g>
   <g id="patch_5">
    <path d="M 369.216 307.584 
L 369.216 41.472 
" style="fill: none; stroke: #d3d3d3; stroke-width: 0.8; stroke-linejoin: miter; stroke-linecap: square"/>
   </g>
   <g id="patch_6">
    <path d="M 103.104 307.584 
L 369.216 307.584 
" style="fill: none; stroke: #d3d3d3; stroke-width: 0.8; stroke-linejoin: miter; stroke-linecap: square"/>
   </g>
   <g id="patch_7">
    <path d="M 103.104 41.472 
L 369.216 41.472 
" style="fill: none; stroke: #d3d3d3; stroke-width: 0.8; stroke-linejoin: miter; stroke-linecap: square"/>
   </g>
   <g id="text_13">
    <!-- $\theta = \frac{1}{6} \pi$ -->
    <g style="fill: #00ced1" transform="translate(332.184897 114.6528) scale(0.1 -0.1)">
     <defs>
      <path id="DejaVuSans-Oblique-3b8" d="M 2913 2219 
L 925 2219 
Q 791 1284 928 888 
Q 1100 400 1566 400 
Q 2034 400 2391 891 
Q 2703 1322 2913 2219 
z
M 3009 2750 
Q 3094 3638 2984 3950 
Q 2813 4444 2353 4444 
Q 1875 4444 1525 3956 
Q 1250 3563 1034 2750 
L 3009 2750 
z
M 2444 4913 
Q 3194 4913 3494 4250 
Q 3794 3591 3566 2422 
Q 3341 1256 2781 594 
Q 2225 -72 1475 -72 
Q 722 -72 425 594 
Q 128 1256 353 2422 
Q 581 3591 1134 4250 
Q 1691 4913 2444 4913 
z
" transform="scale(0.015625)"/>
      <path id="DejaVuSans-3d" d="M 678 2906 
L 4684 2906 
L 4684 2381 
L 678 2381 
L 678 2906 
z
M 678 1631 
L 4684 1631 
L 4684 1100 
L 678 1100 
L 678 1631 
z
" transform="scale(0.015625)"/>
      <path id="DejaVuSans-36" d="M 2113 2584 
Q 1688 2584 1439 2293 
Q 1191 2003 1191 1497 
Q 1191 994 1439 701 
Q 1688 409 2113 409 
Q 2538 409 2786 701 
Q 3034 994 3034 1497 
Q 3034 2003 2786 2293 
Q 2538 2584 2113 2584 
z
M 3366 4563 
L 3366 3988 
Q 3128 4100 2886 4159 
Q 2644 4219 2406 4219 
Q 1781 4219 1451 3797 
Q 1122 3375 1075 2522 
Q 1259 2794 1537 2939 
Q 1816 3084 2150 3084 
Q 2853 3084 3261 2657 
Q 3669 2231 3669 1497 
Q 3669 778 3244 343 
Q 2819 -91 2113 -91 
Q 1303 -91 875 529 
Q 447 1150 447 2328 
Q 447 3434 972 4092 
Q 1497 4750 2381 4750 
Q 2619 4750 2861 4703 
Q 3103 4656 3366 4563 
z
" transform="scale(0.015625)"/>
      <path id="DejaVuSans-Oblique-3c0" d="M 584 3500 
L 3938 3500 
L 3825 2925 
L 3384 2925 
L 2966 775 
Q 2922 550 2981 450 
Q 3038 353 3209 353 
Q 3256 353 3325 363 
Q 3397 369 3419 372 
L 3338 -44 
Q 3222 -84 3103 -103 
Q 2981 -122 2866 -122 
Q 2491 -122 2388 81 
Q 2284 288 2391 838 
L 2797 2925 
L 1506 2925 
L 938 0 
L 350 0 
L 919 2925 
L 472 2925 
L 584 3500 
z
" transform="scale(0.015625)"/>
     </defs>
     <use xlink:href="#DejaVuSans-Oblique-3b8" transform="translate(0 0.16875)"/>
     <use xlink:href="#DejaVuSans-3d" transform="translate(80.664062 0.16875)"/>
     <use xlink:href="#DejaVuSans-31" transform="translate(183.935547 43.965625) scale(0.7)"/>
     <use xlink:href="#DejaVuSans-36" transform="translate(183.935547 -39.2375) scale(0.7)"/>
     <use xlink:href="#DejaVuSans-Oblique-3c0" transform="translate(240.97168 0.16875)"/>
     <path d="M 183.935547 18.965625 
L 183.935547 25.215625 
L 228.47168 25.215625 
L 228.47168 18.965625 
L 183.935547 18.965625 
z
"/>
    </g>
   </g>
   <g id="text_14">
    <!-- $\frac{\sqrt{3}}{2}$ -->
    <g style="fill: #d3d3d3" transform="translate(326.640897 163.44) scale(0.1 -0.1)">
     <defs>
      <path id="STIXSizeOneSym-Regular-221a" d="M 6970 9933 
L 3373 -1888 
L 3104 -1888 
L 1626 2918 
Q 1555 3149 1465 3251 
Q 1376 3354 1229 3354 
Q 1011 3354 794 3181 
L 717 3309 
L 1766 4115 
L 1926 4115 
L 3379 -602 
L 3405 -602 
L 6605 9933 
L 6970 9933 
z
" transform="scale(0.015625)"/>
      <path id="DejaVuSans-33" d="M 2597 2516 
Q 3050 2419 3304 2112 
Q 3559 1806 3559 1356 
Q 3559 666 3084 287 
Q 2609 -91 1734 -91 
Q 1441 -91 1130 -33 
Q 819 25 488 141 
L 488 750 
Q 750 597 1062 519 
Q 1375 441 1716 441 
Q 2309 441 2620 675 
Q 2931 909 2931 1356 
Q 2931 1769 2642 2001 
Q 2353 2234 1838 2234 
L 1294 2234 
L 1294 2753 
L 1863 2753 
Q 2328 2753 2575 2939 
Q 2822 3125 2822 3475 
Q 2822 3834 2567 4026 
Q 2313 4219 1838 4219 
Q 1578 4219 1281 4162 
Q 984 4106 628 3988 
L 628 4550 
Q 988 4650 1302 4700 
Q 1616 4750 1894 4750 
Q 2613 4750 3031 4423 
Q 3450 4097 3450 3541 
Q 3450 3153 3228 2886 
Q 3006 2619 2597 2516 
z
" transform="scale(0.015625)"/>
      <path id="DejaVuSans-32" d="M 1228 531 
L 3431 531 
L 3431 0 
L 469 0 
L 469 531 
Q 828 903 1448 1529 
Q 2069 2156 2228 2338 
Q 2531 2678 2651 2914 
Q 2772 3150 2772 3378 
Q 2772 3750 2511 3984 
Q 2250 4219 1831 4219 
Q 1534 4219 1204 4116 
Q 875 4013 500 3803 
L 500 4441 
Q 881 4594 1212 4672 
Q 1544 4750 1819 4750 
Q 2544 4750 2975 4387 
Q 3406 4025 3406 3419 
Q 3406 3131 3298 2873 
Q 3191 2616 2906 2266 
Q 2828 2175 2409 1742 
Q 1991 1309 1228 531 
z
" transform="scale(0.015625)"/>
     </defs>
     <use xlink:href="#STIXSizeOneSym-Regular-221a" transform="translate(0 55.789063) scale(0.405101)"/>
     <use xlink:href="#DejaVuSans-33" transform="translate(51.571712 44.671875) scale(0.7)"/>
     <use xlink:href="#DejaVuSans-32" transform="translate(30 -39.390625) scale(0.7)"/>
     <path d="M 42.821712 114.25 
L 42.821712 118.625 
L 104.857845 118.625 
L 104.857845 114.25 
L 42.821712 114.25 
z
"/>
     <path d="M 0 18.8125 
L 0 25.0625 
L 104.857845 25.0625 
L 104.857845 18.8125 
L 0 18.8125 
z
"/>
    </g>
   </g>
   <g id="text_15">
    <!-- $\frac{1}{2}$ -->
    <g style="fill: #d3d3d3" transform="translate(247.248 120.1968) scale(0.1 -0.1)">
     <use xlink:href="#DejaVuSans-31" transform="translate(0 43.965625) scale(0.7)"/>
     <use xlink:href="#DejaVuSans-32" transform="translate(0 -39.2375) scale(0.7)"/>
     <path d="M 0 18.965625 
L 0 25.215625 
L 44.536133 25.215625 
L 44.536133 18.965625 
L 0 18.965625 
z
"/>
    </g>
   </g>
   <g id="text_16">
    <!-- $\theta = \frac{1}{4} \pi$ -->
    <g style="fill: #00ced1" transform="translate(314.564 91.6888) scale(0.1 -0.1)">
     <defs>
      <path id="DejaVuSans-34" d="M 2419 4116 
L 825 1625 
L 2419 1625 
L 2419 4116 
z
M 2253 4666 
L 3047 4666 
L 3047 1625 
L 3713 1625 
L 3713 1100 
L 3047 1100 
L 3047 0 
L 2419 0 
L 2419 1100 
L 313 1100 
L 313 1709 
L 2253 4666 
z
" transform="scale(0.015625)"/>
     </defs>
     <use xlink:href="#DejaVuSans-Oblique-3b8" transform="translate(0 0.16875)"/>
     <use xlink:href="#DejaVuSans-3d" transform="translate(80.664062 0.16875)"/>
     <use xlink:href="#DejaVuSans-31" transform="translate(183.935547 43.965625) scale(0.7)"/>
     <use xlink:href="#DejaVuSans-34" transform="translate(183.935547 -38.31875) scale(0.7)"/>
     <use xlink:href="#DejaVuSans-Oblique-3c0" transform="translate(240.97168 0.16875)"/>
     <path d="M 183.935547 18.965625 
L 183.935547 25.215625 
L 228.47168 25.215625 
L 228.47168 18.965625 
L 183.935547 18.965625 
z
"/>
    </g>
   </g>
   <g id="text_17">
    <!-- $\frac{\sqrt{2}}{2}$ -->
    <g style="fill: #d3d3d3" transform="translate(309.02 163.44) scale(0.1 -0.1)">
     <use xlink:href="#STIXSizeOneSym-Regular-221a" transform="translate(0 55.871875) scale(0.399712)"/>
     <use xlink:href="#DejaVuSans-32" transform="translate(51.016783 43.671875) scale(0.7)"/>
     <use xlink:href="#DejaVuSans-32" transform="translate(30 -39.1) scale(0.7)"/>
     <path d="M 42.266783 113.25 
L 42.266783 117.625 
L 104.302916 117.625 
L 104.302916 113.25 
L 42.266783 113.25 
z
"/>
     <path d="M 0 19.103125 
L 0 25.353125 
L 104.302916 25.353125 
L 104.302916 19.103125 
L 0 19.103125 
z
"/>
    </g>
   </g>
   <g id="text_18">
    <!-- $\frac{\sqrt{2}}{2}$ -->
    <g style="fill: #d3d3d3" transform="translate(247.248 97.2328) scale(0.1 -0.1)">
     <use xlink:href="#STIXSizeOneSym-Regular-221a" transform="translate(0 55.871875) scale(0.399712)"/>
     <use xlink:href="#DejaVuSans-32" transform="translate(51.016783 43.671875) scale(0.7)"/>
     <use xlink:href="#DejaVuSans-32" transform="translate(30 -39.1) scale(0.7)"/>
     <path d="M 42.266783 113.25 
L 42.266783 117.625 
L 104.302916 117.625 
L 104.302916 113.25 
L 42.266783 113.25 
z
"/>
     <path d="M 0 19.103125 
L 0 25.353125 
L 104.302916 25.353125 
L 104.302916 19.103125 
L 0 19.103125 
z
"/>
    </g>
   </g>
   <g id="text_19">
    <!-- $\theta = \frac{1}{3} \pi$ -->
    <g style="fill: #00ced1" transform="translate(291.6 74.067903) scale(0.1 -0.1)">
     <use xlink:href="#DejaVuSans-Oblique-3b8" transform="translate(0 0.16875)"/>
     <use xlink:href="#DejaVuSans-3d" transform="translate(80.664062 0.16875)"/>
     <use xlink:href="#DejaVuSans-31" transform="translate(183.935547 43.965625) scale(0.7)"/>
     <use xlink:href="#DejaVuSans-33" transform="translate(183.935547 -39.2375) scale(0.7)"/>
     <use xlink:href="#DejaVuSans-Oblique-3c0" transform="translate(240.97168 0.16875)"/>
     <path d="M 183.935547 18.965625 
L 183.935547 25.215625 
L 228.47168 25.215625 
L 228.47168 18.965625 
L 183.935547 18.965625 
z
"/>
    </g>
   </g>
   <g id="text_20">
    <!-- $\frac{1}{2}$ -->
    <g style="fill: #d3d3d3" transform="translate(289.49328 163.44) scale(0.1 -0.1)">
     <use xlink:href="#DejaVuSans-31" transform="translate(0 43.965625) scale(0.7)"/>
     <use xlink:href="#DejaVuSans-32" transform="translate(0 -39.2375) scale(0.7)"/>
     <path d="M 0 18.965625 
L 0 25.215625 
L 44.536133 25.215625 
L 44.536133 18.965625 
L 0 18.965625 
z
"/>
    </g>
   </g>
   <g id="text_21">
    <!-- $\frac{\sqrt{3}}{2}$ -->
    <g style="fill: #d3d3d3" transform="translate(247.248 79.611903) scale(0.1 -0.1)">
     <use xlink:href="#STIXSizeOneSym-Regular-221a" transform="translate(0 55.789063) scale(0.405101)"/>
     <use xlink:href="#DejaVuSans-33" transform="translate(51.571712 44.671875) scale(0.7)"/>
     <use xlink:href="#DejaVuSans-32" transform="translate(30 -39.390625) scale(0.7)"/>
     <path d="M 42.821712 114.25 
L 42.821712 118.625 
L 104.857845 118.625 
L 104.857845 114.25 
L 42.821712 114.25 
z
"/>
     <path d="M 0 18.8125 
L 0 25.0625 
L 104.857845 25.0625 
L 104.857845 18.8125 
L 0 18.8125 
z
"/>
    </g>
   </g>
   <g id="text_22">
    <!-- $\theta = \frac{2}{3} \pi$ -->
    <g style="fill: #00ced1" transform="translate(150.228 75.731103) scale(0.1 -0.1)">
     <use xlink:href="#DejaVuSans-Oblique-3b8" transform="translate(0 0.25)"/>
     <use xlink:href="#DejaVuSans-3d" transform="translate(80.664062 0.25)"/>
     <use xlink:href="#DejaVuSans-32" transform="translate(183.935547 44.046875) scale(0.7)"/>
     <use xlink:href="#DejaVuSans-33" transform="translate(183.935547 -39.15625) scale(0.7)"/>
     <use xlink:href="#DejaVuSans-Oblique-3c0" transform="translate(240.97168 0.25)"/>
     <path d="M 183.935547 19.046875 
L 183.935547 25.296875 
L 228.47168 25.296875 
L 228.47168 19.046875 
L 183.935547 19.046875 
z
"/>
    </g>
   </g>
   <g id="text_23">
    <!-- $- \frac{1}{2}$ -->
    <g style="fill: #d3d3d3" transform="translate(174.965328 163.44) scale(0.1 -0.1)">
     <use xlink:href="#DejaVuSans-2212" transform="translate(0 0.16875)"/>
     <use xlink:href="#DejaVuSans-31" transform="translate(83.789062 43.965625) scale(0.7)"/>
     <use xlink:href="#DejaVuSans-32" transform="translate(83.789062 -39.2375) scale(0.7)"/>
     <path d="M 83.789062 18.965625 
L 83.789062 25.215625 
L 128.325195 25.215625 
L 128.325195 18.965625 
L 83.789062 18.965625 
z
"/>
    </g>
   </g>
   <g id="text_24">
    <!-- $\frac{\sqrt{3}}{2}$ -->
    <g style="fill: #d3d3d3" transform="translate(247.248 79.611903) scale(0.1 -0.1)">
     <use xlink:href="#STIXSizeOneSym-Regular-221a" transform="translate(0 55.789063) scale(0.405101)"/>
     <use xlink:href="#DejaVuSans-33" transform="translate(51.571712 44.671875) scale(0.7)"/>
     <use xlink:href="#DejaVuSans-32" transform="translate(30 -39.390625) scale(0.7)"/>
     <path d="M 42.821712 114.25 
L 42.821712 118.625 
L 104.857845 118.625 
L 104.857845 114.25 
L 42.821712 114.25 
z
"/>
     <path d="M 0 18.8125 
L 0 25.0625 
L 104.857845 25.0625 
L 104.857845 18.8125 
L 0 18.8125 
z
"/>
    </g>
   </g>
   <g id="text_25">
    <!-- $\theta = \frac{3}{4} \pi$ -->
    <g style="fill: #00ced1" transform="translate(127.264 93.352) scale(0.1 -0.1)">
     <use xlink:href="#DejaVuSans-Oblique-3b8" transform="translate(0 0.254688)"/>
     <use xlink:href="#DejaVuSans-3d" transform="translate(80.664062 0.254688)"/>
     <use xlink:href="#DejaVuSans-33" transform="translate(183.935547 45.046875) scale(0.7)"/>
     <use xlink:href="#DejaVuSans-34" transform="translate(183.935547 -38.232812) scale(0.7)"/>
     <use xlink:href="#DejaVuSans-Oblique-3c0" transform="translate(240.97168 0.254688)"/>
     <path d="M 183.935547 19.051563 
L 183.935547 25.301563 
L 228.47168 25.301563 
L 228.47168 19.051563 
L 183.935547 19.051563 
z
"/>
    </g>
   </g>
   <g id="text_26">
    <!-- $- \frac{\sqrt{2}}{2}$ -->
    <g style="fill: #d3d3d3" transform="translate(147.7768 163.44) scale(0.1 -0.1)">
     <use xlink:href="#DejaVuSans-2212" transform="translate(0 0.30625)"/>
     <use xlink:href="#STIXSizeOneSym-Regular-221a" transform="translate(83.789062 55.871875) scale(0.399712)"/>
     <use xlink:href="#DejaVuSans-32" transform="translate(134.805846 43.671875) scale(0.7)"/>
     <use xlink:href="#DejaVuSans-32" transform="translate(113.789062 -39.1) scale(0.7)"/>
     <path d="M 126.055846 113.25 
L 126.055846 117.625 
L 188.091978 117.625 
L 188.091978 113.25 
L 126.055846 113.25 
z
"/>
     <path d="M 83.789062 19.103125 
L 83.789062 25.353125 
L 188.091978 25.353125 
L 188.091978 19.103125 
L 83.789062 19.103125 
z
"/>
    </g>
   </g>
   <g id="text_27">
    <!-- $\frac{\sqrt{2}}{2}$ -->
    <g style="fill: #d3d3d3" transform="translate(247.248 97.2328) scale(0.1 -0.1)">
     <use xlink:href="#STIXSizeOneSym-Regular-221a" transform="translate(0 55.871875) scale(0.399712)"/>
     <use xlink:href="#DejaVuSans-32" transform="translate(51.016783 43.671875) scale(0.7)"/>
     <use xlink:href="#DejaVuSans-32" transform="translate(30 -39.1) scale(0.7)"/>
     <path d="M 42.266783 113.25 
L 42.266783 117.625 
L 104.302916 117.625 
L 104.302916 113.25 
L 42.266783 113.25 
z
"/>
     <path d="M 0 19.103125 
L 0 25.353125 
L 104.302916 25.353125 
L 104.302916 19.103125 
L 0 19.103125 
z
"/>
    </g>
   </g>
   <g id="text_28">
    <!-- $\theta = \frac{5}{6} \pi$ -->
    <g style="fill: #00ced1" transform="translate(109.643103 116.316) scale(0.1 -0.1)">
     <use xlink:href="#DejaVuSans-Oblique-3b8" transform="translate(0 0.173438)"/>
     <use xlink:href="#DejaVuSans-3d" transform="translate(80.664062 0.173438)"/>
     <use xlink:href="#DejaVuSans-35" transform="translate(183.935547 44.965625) scale(0.7)"/>
     <use xlink:href="#DejaVuSans-36" transform="translate(183.935547 -39.232812) scale(0.7)"/>
     <use xlink:href="#DejaVuSans-Oblique-3c0" transform="translate(240.97168 0.173438)"/>
     <path d="M 183.935547 18.970313 
L 183.935547 25.220313 
L 228.47168 25.220313 
L 228.47168 18.970313 
L 183.935547 18.970313 
z
"/>
    </g>
   </g>
   <g id="text_29">
    <!-- $- \frac{\sqrt{3}}{2}$ -->
    <g style="fill: #d3d3d3" transform="translate(126.275103 163.44) scale(0.1 -0.1)">
     <use xlink:href="#DejaVuSans-2212" transform="translate(0 0.015625)"/>
     <use xlink:href="#STIXSizeOneSym-Regular-221a" transform="translate(83.789062 55.789063) scale(0.405101)"/>
     <use xlink:href="#DejaVuSans-33" transform="translate(135.360774 44.671875) scale(0.7)"/>
     <use xlink:href="#DejaVuSans-32" transform="translate(113.789062 -39.390625) scale(0.7)"/>
     <path d="M 126.610774 114.25 
L 126.610774 118.625 
L 188.646907 118.625 
L 188.646907 114.25 
L 126.610774 114.25 
z
"/>
     <path d="M 83.789062 18.8125 
L 83.789062 25.0625 
L 188.646907 25.0625 
L 188.646907 18.8125 
L 83.789062 18.8125 
z
"/>
    </g>
   </g>
   <g id="text_30">
    <!-- $\frac{1}{2}$ -->
    <g style="fill: #d3d3d3" transform="translate(247.248 120.1968) scale(0.1 -0.1)">
     <use xlink:href="#DejaVuSans-31" transform="translate(0 43.965625) scale(0.7)"/>
     <use xlink:href="#DejaVuSans-32" transform="translate(0 -39.2375) scale(0.7)"/>
     <path d="M 0 18.965625 
L 0 25.215625 
L 44.536133 25.215625 
L 44.536133 18.965625 
L 0 18.965625 
z
"/>
    </g>
   </g>
   <g id="text_31">
    <!-- $\theta = 1 \frac{1}{6} \pi$ -->
    <g style="fill: #00ced1" transform="translate(109.088703 243.828) scale(0.1 -0.1)">
     <use xlink:href="#DejaVuSans-Oblique-3b8" transform="translate(0 0.16875)"/>
     <use xlink:href="#DejaVuSans-3d" transform="translate(80.664062 0.16875)"/>
     <use xlink:href="#DejaVuSans-31" transform="translate(183.935547 0.16875)"/>
     <use xlink:href="#DejaVuSans-31" transform="translate(247.558594 43.965625) scale(0.7)"/>
     <use xlink:href="#DejaVuSans-36" transform="translate(247.558594 -39.2375) scale(0.7)"/>
     <use xlink:href="#DejaVuSans-Oblique-3c0" transform="translate(304.594727 0.16875)"/>
     <path d="M 247.558594 18.965625 
L 247.558594 25.215625 
L 292.094727 25.215625 
L 292.094727 18.965625 
L 247.558594 18.965625 
z
"/>
    </g>
   </g>
   <g id="text_32">
    <!-- $- \frac{\sqrt{3}}{2}$ -->
    <g style="fill: #d3d3d3" transform="translate(126.275103 163.44) scale(0.1 -0.1)">
     <use xlink:href="#DejaVuSans-2212" transform="translate(0 0.015625)"/>
     <use xlink:href="#STIXSizeOneSym-Regular-221a" transform="translate(83.789062 55.789063) scale(0.405101)"/>
     <use xlink:href="#DejaVuSans-33" transform="translate(135.360774 44.671875) scale(0.7)"/>
     <use xlink:href="#DejaVuSans-32" transform="translate(113.789062 -39.390625) scale(0.7)"/>
     <path d="M 126.610774 114.25 
L 126.610774 118.625 
L 188.646907 118.625 
L 188.646907 114.25 
L 126.610774 114.25 
z
"/>
     <path d="M 83.789062 18.8125 
L 83.789062 25.0625 
L 188.646907 25.0625 
L 188.646907 18.8125 
L 83.789062 18.8125 
z
"/>
    </g>
   </g>
   <g id="text_33">
    <!-- $- \frac{1}{2}$ -->
    <g style="fill: #d3d3d3" transform="translate(247.248 231.0768) scale(0.1 -0.1)">
     <use xlink:href="#DejaVuSans-2212" transform="translate(0 0.16875)"/>
     <use xlink:href="#DejaVuSans-31" transform="translate(83.789062 43.965625) scale(0.7)"/>
     <use xlink:href="#DejaVuSans-32" transform="translate(83.789062 -39.2375) scale(0.7)"/>
     <path d="M 83.789062 18.965625 
L 83.789062 25.215625 
L 128.325195 25.215625 
L 128.325195 18.965625 
L 83.789062 18.965625 
z
"/>
    </g>
   </g>
   <g id="text_34">
    <!-- $\theta = 1 \frac{1}{4} \pi$ -->
    <g style="fill: #00ced1" transform="translate(126.7096 266.792) scale(0.1 -0.1)">
     <use xlink:href="#DejaVuSans-Oblique-3b8" transform="translate(0 0.16875)"/>
     <use xlink:href="#DejaVuSans-3d" transform="translate(80.664062 0.16875)"/>
     <use xlink:href="#DejaVuSans-31" transform="translate(183.935547 0.16875)"/>
     <use xlink:href="#DejaVuSans-31" transform="translate(247.558594 43.965625) scale(0.7)"/>
     <use xlink:href="#DejaVuSans-34" transform="translate(247.558594 -38.31875) scale(0.7)"/>
     <use xlink:href="#DejaVuSans-Oblique-3c0" transform="translate(304.594727 0.16875)"/>
     <path d="M 247.558594 18.965625 
L 247.558594 25.215625 
L 292.094727 25.215625 
L 292.094727 18.965625 
L 247.558594 18.965625 
z
"/>
    </g>
   </g>
   <g id="text_35">
    <!-- $- \frac{\sqrt{2}}{2}$ -->
    <g style="fill: #d3d3d3" transform="translate(147.7768 163.44) scale(0.1 -0.1)">
     <use xlink:href="#DejaVuSans-2212" transform="translate(0 0.30625)"/>
     <use xlink:href="#STIXSizeOneSym-Regular-221a" transform="translate(83.789062 55.871875) scale(0.399712)"/>
     <use xlink:href="#DejaVuSans-32" transform="translate(134.805846 43.671875) scale(0.7)"/>
     <use xlink:href="#DejaVuSans-32" transform="translate(113.789062 -39.1) scale(0.7)"/>
     <path d="M 126.055846 113.25 
L 126.055846 117.625 
L 188.091978 117.625 
L 188.091978 113.25 
L 126.055846 113.25 
z
"/>
     <path d="M 83.789062 19.103125 
L 83.789062 25.353125 
L 188.091978 25.353125 
L 188.091978 19.103125 
L 83.789062 19.103125 
z
"/>
    </g>
   </g>
   <g id="text_36">
    <!-- $- \frac{\sqrt{2}}{2}$ -->
    <g style="fill: #d3d3d3" transform="translate(247.248 254.0408) scale(0.1 -0.1)">
     <use xlink:href="#DejaVuSans-2212" transform="translate(0 0.30625)"/>
     <use xlink:href="#STIXSizeOneSym-Regular-221a" transform="translate(83.789062 55.871875) scale(0.399712)"/>
     <use xlink:href="#DejaVuSans-32" transform="translate(134.805846 43.671875) scale(0.7)"/>
     <use xlink:href="#DejaVuSans-32" transform="translate(113.789062 -39.1) scale(0.7)"/>
     <path d="M 126.055846 113.25 
L 126.055846 117.625 
L 188.091978 117.625 
L 188.091978 113.25 
L 126.055846 113.25 
z
"/>
     <path d="M 83.789062 19.103125 
L 83.789062 25.353125 
L 188.091978 25.353125 
L 188.091978 19.103125 
L 83.789062 19.103125 
z
"/>
    </g>
   </g>
   <g id="text_37">
    <!-- $\theta = 1 \frac{1}{3} \pi$ -->
    <g style="fill: #00ced1" transform="translate(149.6736 284.412897) scale(0.1 -0.1)">
     <use xlink:href="#DejaVuSans-Oblique-3b8" transform="translate(0 0.16875)"/>
     <use xlink:href="#DejaVuSans-3d" transform="translate(80.664062 0.16875)"/>
     <use xlink:href="#DejaVuSans-31" transform="translate(183.935547 0.16875)"/>
     <use xlink:href="#DejaVuSans-31" transform="translate(247.558594 43.965625) scale(0.7)"/>
     <use xlink:href="#DejaVuSans-33" transform="translate(247.558594 -39.2375) scale(0.7)"/>
     <use xlink:href="#DejaVuSans-Oblique-3c0" transform="translate(304.594727 0.16875)"/>
     <path d="M 247.558594 18.965625 
L 247.558594 25.215625 
L 292.094727 25.215625 
L 292.094727 18.965625 
L 247.558594 18.965625 
z
"/>
    </g>
   </g>
   <g id="text_38">
    <!-- $- \frac{1}{2}$ -->
    <g style="fill: #d3d3d3" transform="translate(174.965328 163.44) scale(0.1 -0.1)">
     <use xlink:href="#DejaVuSans-2212" transform="translate(0 0.16875)"/>
     <use xlink:href="#DejaVuSans-31" transform="translate(83.789062 43.965625) scale(0.7)"/>
     <use xlink:href="#DejaVuSans-32" transform="translate(83.789062 -39.2375) scale(0.7)"/>
     <path d="M 83.789062 18.965625 
L 83.789062 25.215625 
L 128.325195 25.215625 
L 128.325195 18.965625 
L 83.789062 18.965625 
z
"/>
    </g>
   </g>
   <g id="text_39">
    <!-- $- \frac{\sqrt{3}}{2}$ -->
    <g style="fill: #d3d3d3" transform="translate(247.248 271.661697) scale(0.1 -0.1)">
     <use xlink:href="#DejaVuSans-2212" transform="translate(0 0.015625)"/>
     <use xlink:href="#STIXSizeOneSym-Regular-221a" transform="translate(83.789062 55.789063) scale(0.405101)"/>
     <use xlink:href="#DejaVuSans-33" transform="translate(135.360774 44.671875) scale(0.7)"/>
     <use xlink:href="#DejaVuSans-32" transform="translate(113.789062 -39.390625) scale(0.7)"/>
     <path d="M 126.610774 114.25 
L 126.610774 118.625 
L 188.646907 118.625 
L 188.646907 114.25 
L 126.610774 114.25 
z
"/>
     <path d="M 83.789062 18.8125 
L 83.789062 25.0625 
L 188.646907 25.0625 
L 188.646907 18.8125 
L 83.789062 18.8125 
z
"/>
    </g>
   </g>
   <g id="text_40">
    <!-- $\theta = 1 \frac{2}{3} \pi$ -->
    <g style="fill: #00ced1" transform="translate(289.3824 282.749697) scale(0.1 -0.1)">
     <use xlink:href="#DejaVuSans-Oblique-3b8" transform="translate(0 0.25)"/>
     <use xlink:href="#DejaVuSans-3d" transform="translate(80.664062 0.25)"/>
     <use xlink:href="#DejaVuSans-31" transform="translate(183.935547 0.25)"/>
     <use xlink:href="#DejaVuSans-32" transform="translate(247.558594 44.046875) scale(0.7)"/>
     <use xlink:href="#DejaVuSans-33" transform="translate(247.558594 -39.15625) scale(0.7)"/>
     <use xlink:href="#DejaVuSans-Oblique-3c0" transform="translate(304.594727 0.25)"/>
     <path d="M 247.558594 19.046875 
L 247.558594 25.296875 
L 292.094727 25.296875 
L 292.094727 19.046875 
L 247.558594 19.046875 
z
"/>
    </g>
   </g>
   <g id="text_41">
    <!-- $\frac{1}{2}$ -->
    <g style="fill: #d3d3d3" transform="translate(289.49328 163.44) scale(0.1 -0.1)">
     <use xlink:href="#DejaVuSans-31" transform="translate(0 43.965625) scale(0.7)"/>
     <use xlink:href="#DejaVuSans-32" transform="translate(0 -39.2375) scale(0.7)"/>
     <path d="M 0 18.965625 
L 0 25.215625 
L 44.536133 25.215625 
L 44.536133 18.965625 
L 0 18.965625 
z
"/>
    </g>
   </g>
   <g id="text_42">
    <!-- $- \frac{\sqrt{3}}{2}$ -->
    <g style="fill: #d3d3d3" transform="translate(247.248 271.661697) scale(0.1 -0.1)">
     <use xlink:href="#DejaVuSans-2212" transform="translate(0 0.015625)"/>
     <use xlink:href="#STIXSizeOneSym-Regular-221a" transform="translate(83.789062 55.789063) scale(0.405101)"/>
     <use xlink:href="#DejaVuSans-33" transform="translate(135.360774 44.671875) scale(0.7)"/>
     <use xlink:href="#DejaVuSans-32" transform="translate(113.789062 -39.390625) scale(0.7)"/>
     <path d="M 126.610774 114.25 
L 126.610774 118.625 
L 188.646907 118.625 
L 188.646907 114.25 
L 126.610774 114.25 
z
"/>
     <path d="M 83.789062 18.8125 
L 83.789062 25.0625 
L 188.646907 25.0625 
L 188.646907 18.8125 
L 83.789062 18.8125 
z
"/>
    </g>
   </g>
   <g id="text_43">
    <!-- $\theta = 1 \frac{3}{4} \pi$ -->
    <g style="fill: #00ced1" transform="translate(312.3464 265.1288) scale(0.1 -0.1)">
     <use xlink:href="#DejaVuSans-Oblique-3b8" transform="translate(0 0.254688)"/>
     <use xlink:href="#DejaVuSans-3d" transform="translate(80.664062 0.254688)"/>
     <use xlink:href="#DejaVuSans-31" transform="translate(183.935547 0.254688)"/>
     <use xlink:href="#DejaVuSans-33" transform="translate(247.558594 45.046875) scale(0.7)"/>
     <use xlink:href="#DejaVuSans-34" transform="translate(247.558594 -38.232812) scale(0.7)"/>
     <use xlink:href="#DejaVuSans-Oblique-3c0" transform="translate(304.594727 0.254688)"/>
     <path d="M 247.558594 19.051563 
L 247.558594 25.301563 
L 292.094727 25.301563 
L 292.094727 19.051563 
L 247.558594 19.051563 
z
"/>
    </g>
   </g>
   <g id="text_44">
    <!-- $\frac{\sqrt{2}}{2}$ -->
    <g style="fill: #d3d3d3" transform="translate(309.02 163.44) scale(0.1 -0.1)">
     <use xlink:href="#STIXSizeOneSym-Regular-221a" transform="translate(0 55.871875) scale(0.399712)"/>
     <use xlink:href="#DejaVuSans-32" transform="translate(51.016783 43.671875) scale(0.7)"/>
     <use xlink:href="#DejaVuSans-32" transform="translate(30 -39.1) scale(0.7)"/>
     <path d="M 42.266783 113.25 
L 42.266783 117.625 
L 104.302916 117.625 
L 104.302916 113.25 
L 42.266783 113.25 
z
"/>
     <path d="M 0 19.103125 
L 0 25.353125 
L 104.302916 25.353125 
L 104.302916 19.103125 
L 0 19.103125 
z
"/>
    </g>
   </g>
   <g id="text_45">
    <!-- $- \frac{\sqrt{2}}{2}$ -->
    <g style="fill: #d3d3d3" transform="translate(247.248 254.0408) scale(0.1 -0.1)">
     <use xlink:href="#DejaVuSans-2212" transform="translate(0 0.30625)"/>
     <use xlink:href="#STIXSizeOneSym-Regular-221a" transform="translate(83.789062 55.871875) scale(0.399712)"/>
     <use xlink:href="#DejaVuSans-32" transform="translate(134.805846 43.671875) scale(0.7)"/>
     <use xlink:href="#DejaVuSans-32" transform="translate(113.789062 -39.1) scale(0.7)"/>
     <path d="M 126.055846 113.25 
L 126.055846 117.625 
L 188.091978 117.625 
L 188.091978 113.25 
L 126.055846 113.25 
z
"/>
     <path d="M 83.789062 19.103125 
L 83.789062 25.353125 
L 188.091978 25.353125 
L 188.091978 19.103125 
L 83.789062 19.103125 
z
"/>
    </g>
   </g>
   <g id="text_46">
    <!-- $\theta = 1 \frac{5}{6} \pi$ -->
    <g style="fill: #00ced1" transform="translate(329.967297 242.1648) scale(0.1 -0.1)">
     <use xlink:href="#DejaVuSans-Oblique-3b8" transform="translate(0 0.173438)"/>
     <use xlink:href="#DejaVuSans-3d" transform="translate(80.664062 0.173438)"/>
     <use xlink:href="#DejaVuSans-31" transform="translate(183.935547 0.173438)"/>
     <use xlink:href="#DejaVuSans-35" transform="translate(247.558594 44.965625) scale(0.7)"/>
     <use xlink:href="#DejaVuSans-36" transform="translate(247.558594 -39.232812) scale(0.7)"/>
     <use xlink:href="#DejaVuSans-Oblique-3c0" transform="translate(304.594727 0.173438)"/>
     <path d="M 247.558594 18.970313 
L 247.558594 25.220313 
L 292.094727 25.220313 
L 292.094727 18.970313 
L 247.558594 18.970313 
z
"/>
    </g>
   </g>
   <g id="text_47">
    <!-- $\frac{\sqrt{3}}{2}$ -->
    <g style="fill: #d3d3d3" transform="translate(326.640897 163.44) scale(0.1 -0.1)">
     <use xlink:href="#STIXSizeOneSym-Regular-221a" transform="translate(0 55.789063) scale(0.405101)"/>
     <use xlink:href="#DejaVuSans-33" transform="translate(51.571712 44.671875) scale(0.7)"/>
     <use xlink:href="#DejaVuSans-32" transform="translate(30 -39.390625) scale(0.7)"/>
     <path d="M 42.821712 114.25 
L 42.821712 118.625 
L 104.857845 118.625 
L 104.857845 114.25 
L 42.821712 114.25 
z
"/>
     <path d="M 0 18.8125 
L 0 25.0625 
L 104.857845 25.0625 
L 104.857845 18.8125 
L 0 18.8125 
z
"/>
    </g>
   </g>
   <g id="text_48">
    <!-- $- \frac{1}{2}$ -->
    <g style="fill: #d3d3d3" transform="translate(247.248 231.0768) scale(0.1 -0.1)">
     <use xlink:href="#DejaVuSans-2212" transform="translate(0 0.16875)"/>
     <use xlink:href="#DejaVuSans-31" transform="translate(83.789062 43.965625) scale(0.7)"/>
     <use xlink:href="#DejaVuSans-32" transform="translate(83.789062 -39.2375) scale(0.7)"/>
     <path d="M 83.789062 18.965625 
L 83.789062 25.215625 
L 128.325195 25.215625 
L 128.325195 18.965625 
L 83.789062 18.965625 
z
"/>
    </g>
   </g>
   <g id="text_49">
    <!-- De Eenheidscirkel -->
    <g style="fill: #d3d3d3" transform="translate(182.511563 35.472) scale(0.12 -0.12)">
     <defs>
      <path id="DejaVuSans-44" d="M 1259 4147 
L 1259 519 
L 2022 519 
Q 2988 519 3436 956 
Q 3884 1394 3884 2338 
Q 3884 3275 3436 3711 
Q 2988 4147 2022 4147 
L 1259 4147 
z
M 628 4666 
L 1925 4666 
Q 3281 4666 3915 4102 
Q 4550 3538 4550 2338 
Q 4550 1131 3912 565 
Q 3275 0 1925 0 
L 628 0 
L 628 4666 
z
" transform="scale(0.015625)"/>
      <path id="DejaVuSans-65" d="M 3597 1894 
L 3597 1613 
L 953 1613 
Q 991 1019 1311 708 
Q 1631 397 2203 397 
Q 2534 397 2845 478 
Q 3156 559 3463 722 
L 3463 178 
Q 3153 47 2828 -22 
Q 2503 -91 2169 -91 
Q 1331 -91 842 396 
Q 353 884 353 1716 
Q 353 2575 817 3079 
Q 1281 3584 2069 3584 
Q 2775 3584 3186 3129 
Q 3597 2675 3597 1894 
z
M 3022 2063 
Q 3016 2534 2758 2815 
Q 2500 3097 2075 3097 
Q 1594 3097 1305 2825 
Q 1016 2553 972 2059 
L 3022 2063 
z
" transform="scale(0.015625)"/>
      <path id="DejaVuSans-20" transform="scale(0.015625)"/>
      <path id="DejaVuSans-45" d="M 628 4666 
L 3578 4666 
L 3578 4134 
L 1259 4134 
L 1259 2753 
L 3481 2753 
L 3481 2222 
L 1259 2222 
L 1259 531 
L 3634 531 
L 3634 0 
L 628 0 
L 628 4666 
z
" transform="scale(0.015625)"/>
      <path id="DejaVuSans-6e" d="M 3513 2113 
L 3513 0 
L 2938 0 
L 2938 2094 
Q 2938 2591 2744 2837 
Q 2550 3084 2163 3084 
Q 1697 3084 1428 2787 
Q 1159 2491 1159 1978 
L 1159 0 
L 581 0 
L 581 3500 
L 1159 3500 
L 1159 2956 
Q 1366 3272 1645 3428 
Q 1925 3584 2291 3584 
Q 2894 3584 3203 3211 
Q 3513 2838 3513 2113 
z
" transform="scale(0.015625)"/>
      <path id="DejaVuSans-68" d="M 3513 2113 
L 3513 0 
L 2938 0 
L 2938 2094 
Q 2938 2591 2744 2837 
Q 2550 3084 2163 3084 
Q 1697 3084 1428 2787 
Q 1159 2491 1159 1978 
L 1159 0 
L 581 0 
L 581 4863 
L 1159 4863 
L 1159 2956 
Q 1366 3272 1645 3428 
Q 1925 3584 2291 3584 
Q 2894 3584 3203 3211 
Q 3513 2838 3513 2113 
z
" transform="scale(0.015625)"/>
      <path id="DejaVuSans-69" d="M 603 3500 
L 1178 3500 
L 1178 0 
L 603 0 
L 603 3500 
z
M 603 4863 
L 1178 4863 
L 1178 4134 
L 603 4134 
L 603 4863 
z
" transform="scale(0.015625)"/>
      <path id="DejaVuSans-64" d="M 2906 2969 
L 2906 4863 
L 3481 4863 
L 3481 0 
L 2906 0 
L 2906 525 
Q 2725 213 2448 61 
Q 2172 -91 1784 -91 
Q 1150 -91 751 415 
Q 353 922 353 1747 
Q 353 2572 751 3078 
Q 1150 3584 1784 3584 
Q 2172 3584 2448 3432 
Q 2725 3281 2906 2969 
z
M 947 1747 
Q 947 1113 1208 752 
Q 1469 391 1925 391 
Q 2381 391 2643 752 
Q 2906 1113 2906 1747 
Q 2906 2381 2643 2742 
Q 2381 3103 1925 3103 
Q 1469 3103 1208 2742 
Q 947 2381 947 1747 
z
" transform="scale(0.015625)"/>
      <path id="DejaVuSans-63" d="M 3122 3366 
L 3122 2828 
Q 2878 2963 2633 3030 
Q 2388 3097 2138 3097 
Q 1578 3097 1268 2742 
Q 959 2388 959 1747 
Q 959 1106 1268 751 
Q 1578 397 2138 397 
Q 2388 397 2633 464 
Q 2878 531 3122 666 
L 3122 134 
Q 2881 22 2623 -34 
Q 2366 -91 2075 -91 
Q 1284 -91 818 406 
Q 353 903 353 1747 
Q 353 2603 823 3093 
Q 1294 3584 2113 3584 
Q 2378 3584 2631 3529 
Q 2884 3475 3122 3366 
z
" transform="scale(0.015625)"/>
      <path id="DejaVuSans-72" d="M 2631 2963 
Q 2534 3019 2420 3045 
Q 2306 3072 2169 3072 
Q 1681 3072 1420 2755 
Q 1159 2438 1159 1844 
L 1159 0 
L 581 0 
L 581 3500 
L 1159 3500 
L 1159 2956 
Q 1341 3275 1631 3429 
Q 1922 3584 2338 3584 
Q 2397 3584 2469 3576 
Q 2541 3569 2628 3553 
L 2631 2963 
z
" transform="scale(0.015625)"/>
      <path id="DejaVuSans-6b" d="M 581 4863 
L 1159 4863 
L 1159 1991 
L 2875 3500 
L 3609 3500 
L 1753 1863 
L 3688 0 
L 2938 0 
L 1159 1709 
L 1159 0 
L 581 0 
L 581 4863 
z
" transform="scale(0.015625)"/>
      <path id="DejaVuSans-6c" d="M 603 4863 
L 1178 4863 
L 1178 0 
L 603 0 
L 603 4863 
z
" transform="scale(0.015625)"/>
     </defs>
     <use xlink:href="#DejaVuSans-44"/>
     <use xlink:href="#DejaVuSans-65" x="77.001953"/>
     <use xlink:href="#DejaVuSans-20" x="138.525391"/>
     <use xlink:href="#DejaVuSans-45" x="170.3125"/>
     <use xlink:href="#DejaVuSans-65" x="233.496094"/>
     <use xlink:href="#DejaVuSans-6e" x="295.019531"/>
     <use xlink:href="#DejaVuSans-68" x="358.398438"/>
     <use xlink:href="#DejaVuSans-65" x="421.777344"/>
     <use xlink:href="#DejaVuSans-69" x="483.300781"/>
     <use xlink:href="#DejaVuSans-64" x="511.083984"/>
     <use xlink:href="#DejaVuSans-73" x="574.560547"/>
     <use xlink:href="#DejaVuSans-63" x="626.660156"/>
     <use xlink:href="#DejaVuSans-69" x="681.640625"/>
     <use xlink:href="#DejaVuSans-72" x="709.423828"/>
     <use xlink:href="#DejaVuSans-6b" x="750.537109"/>
     <use xlink:href="#DejaVuSans-65" x="804.822266"/>
     <use xlink:href="#DejaVuSans-6c" x="866.345703"/>
    </g>
   </g>
   <g id="PathCollection_1">
    <defs>
     <path id="mb0cb4590e6" d="M 0 1.581139 
C 0.419323 1.581139 0.821528 1.41454 1.118034 1.118034 
C 1.41454 0.821528 1.581139 0.419323 1.581139 0 
C 1.581139 -0.419323 1.41454 -0.821528 1.118034 -1.118034 
C 0.821528 -1.41454 0.419323 -1.581139 0 -1.581139 
C -0.419323 -1.581139 -0.821528 -1.41454 -1.118034 -1.118034 
C -1.41454 -0.821528 -1.581139 -0.419323 -1.581139 0 
C -1.581139 0.419323 -1.41454 0.821528 -1.118034 1.118034 
C -0.821528 1.41454 -0.419323 1.581139 0 1.581139 
z
" style="stroke: #00ff7f"/>
    </defs>
    <g clip-path="url(#pd7be853e13)">
     <use xlink:href="#mb0cb4590e6" x="332.184897" y="119.088" style="fill: #00ff7f; stroke: #00ff7f"/>
    </g>
   </g>
   <g id="PathCollection_2">
    <g clip-path="url(#pd7be853e13)">
     <use xlink:href="#mb0cb4590e6" x="314.564" y="96.124" style="fill: #00ff7f; stroke: #00ff7f"/>
    </g>
   </g>
   <g id="PathCollection_3">
    <g clip-path="url(#pd7be853e13)">
     <use xlink:href="#mb0cb4590e6" x="291.6" y="78.503103" style="fill: #00ff7f; stroke: #00ff7f"/>
    </g>
   </g>
   <g id="PathCollection_4">
    <g clip-path="url(#pd7be853e13)">
     <use xlink:href="#mb0cb4590e6" x="180.72" y="78.503103" style="fill: #00ff7f; stroke: #00ff7f"/>
    </g>
   </g>
   <g id="PathCollection_5">
    <g clip-path="url(#pd7be853e13)">
     <use xlink:href="#mb0cb4590e6" x="157.756" y="96.124" style="fill: #00ff7f; stroke: #00ff7f"/>
    </g>
   </g>
   <g id="PathCollection_6">
    <g clip-path="url(#pd7be853e13)">
     <use xlink:href="#mb0cb4590e6" x="140.135103" y="119.088" style="fill: #00ff7f; stroke: #00ff7f"/>
    </g>
   </g>
   <g id="PathCollection_7">
    <g clip-path="url(#pd7be853e13)">
     <use xlink:href="#mb0cb4590e6" x="140.135103" y="229.968" style="fill: #00ff7f; stroke: #00ff7f"/>
    </g>
   </g>
   <g id="PathCollection_8">
    <g clip-path="url(#pd7be853e13)">
     <use xlink:href="#mb0cb4590e6" x="157.756" y="252.932" style="fill: #00ff7f; stroke: #00ff7f"/>
    </g>
   </g>
   <g id="PathCollection_9">
    <g clip-path="url(#pd7be853e13)">
     <use xlink:href="#mb0cb4590e6" x="180.72" y="270.552897" style="fill: #00ff7f; stroke: #00ff7f"/>
    </g>
   </g>
   <g id="PathCollection_10">
    <g clip-path="url(#pd7be853e13)">
     <use xlink:href="#mb0cb4590e6" x="291.6" y="270.552897" style="fill: #00ff7f; stroke: #00ff7f"/>
    </g>
   </g>
   <g id="PathCollection_11">
    <g clip-path="url(#pd7be853e13)">
     <use xlink:href="#mb0cb4590e6" x="314.564" y="252.932" style="fill: #00ff7f; stroke: #00ff7f"/>
    </g>
   </g>
   <g id="PathCollection_12">
    <g clip-path="url(#pd7be853e13)">
     <use xlink:href="#mb0cb4590e6" x="332.184897" y="229.968" style="fill: #00ff7f; stroke: #00ff7f"/>
    </g>
   </g>
  </g>
 </g>
 <defs>
  <clipPath id="pd7be853e13">
   <rect x="103.104" y="41.472" width="266.112" height="266.112"/>
  </clipPath>
 </defs>
</svg>
