<svg version="1.1" id="Layer_1" xmlns="http://www.w3.org/2000/svg" xmlns:xlink="http://www.w3.org/1999/xlink" x="0px" y="0px"
	 width="100%" viewBox="0 0 1080 1080" enable-background="new 0 0 1080 1080" xml:space="preserve">
<path fill="#000000" opacity="0.000000" stroke="none" 
	d="
M607.000000,1081.000000 
	C404.689972,1081.000000 202.879913,1081.000000 1.034936,1081.000000 
	C1.034936,721.064819 1.034936,361.129669 1.034936,1.097249 
	C360.893616,1.097249 720.787231,1.097249 1080.840454,1.097249 
	C1080.840454,360.999939 1080.840454,720.999939 1080.840454,1081.000000 
	C923.129211,1081.000000 765.314636,1081.000000 607.000000,1081.000000 
M124.358208,836.244751 
	C126.128563,839.736145 127.898911,843.227539 130.054077,847.477905 
	C390.441864,847.477905 652.139160,847.477905 914.038635,847.477905 
	C914.207886,845.202209 914.362427,843.125427 914.528137,840.898376 
	C916.820740,840.779602 918.785095,840.677856 920.912964,840.567627 
	C920.912964,605.761169 920.912964,371.094391 920.912964,137.784897 
	C916.434814,135.659134 912.778259,133.923370 908.677246,131.976624 
	C908.868774,131.816696 908.215637,132.329269 907.598572,132.882050 
	C831.283691,201.245285 754.958130,269.596588 678.662537,337.981354 
	C590.207153,417.265167 501.787140,496.588440 413.335175,575.876038 
	C327.613922,652.715820 241.863480,729.523010 156.148743,806.370056 
	C145.370926,816.032837 134.732574,825.851135 124.358208,836.244751 
M934.062500,864.163513 
	C933.562439,865.880859 932.633789,867.596558 932.626892,869.315857 
	C932.531311,893.113403 932.562317,916.911499 932.562317,940.709412 
	C932.562317,944.010620 932.562317,947.311768 932.562317,950.801453 
	C946.566711,950.801453 960.206665,951.416443 973.764282,950.623474 
	C986.576904,949.874146 994.277588,942.196228 995.847534,930.758362 
	C997.691467,917.324768 992.813354,909.270081 979.729797,904.105835 
	C979.358337,903.959229 979.070679,903.600464 978.764160,903.356689 
	C979.025879,902.876709 979.107971,902.486877 979.345215,902.325928 
	C988.858154,895.874268 991.926331,889.247192 989.765869,879.757874 
	C987.845642,871.323669 981.618591,865.639099 970.872253,864.803772 
	C958.960388,863.877869 946.943176,864.306702 934.062500,864.163513 
M536.536072,970.914062 
	C540.201660,974.216614 543.412964,978.353271 547.627075,980.648560 
	C556.458862,985.458679 566.312378,985.274048 575.919373,983.520935 
	C590.097107,980.933716 597.587830,972.293274 598.641296,957.814087 
	C599.426819,947.018799 595.471130,935.509155 580.347107,931.065857 
	C579.977051,930.957092 579.686035,930.579529 579.036438,930.079956 
	C581.237244,928.629456 583.201782,927.469055 585.021240,926.113953 
	C596.892822,917.271729 597.615234,899.279480 586.603516,890.128296 
	C575.843689,881.186584 546.807983,879.791199 536.191345,899.120850 
	C538.308411,901.428040 540.507446,903.824524 542.941711,906.477356 
	C543.930359,905.354614 544.633545,904.701416 545.165161,903.929993 
	C551.336426,894.975830 560.156860,892.765442 570.209045,894.549927 
	C579.473816,896.194702 583.810669,902.405090 582.896423,911.766663 
	C582.054504,920.388062 575.853149,926.309143 566.559875,926.979980 
	C562.296692,927.287781 557.992920,927.032471 553.481812,927.032471 
	C553.481812,930.617065 553.481812,933.524231 553.481812,936.406616 
	C560.457520,936.954041 567.294189,936.984680 573.930847,938.151978 
	C580.708435,939.344055 585.098328,943.775085 586.320435,950.835510 
	C587.583313,958.131348 586.783691,964.938782 580.570740,969.848328 
	C569.049072,978.952881 549.533142,973.876160 543.831360,960.454163 
	C543.214294,959.001648 542.521851,957.581238 541.747620,955.890808 
	C538.255005,957.494080 535.285950,958.856995 531.862183,960.428650 
	C533.390015,963.975952 534.754761,967.144531 536.536072,970.914062 
M507.444092,387.824829 
	C509.218628,387.824829 510.993164,387.824829 513.142212,387.824829 
	C513.142212,395.726807 513.142212,403.145172 513.142212,410.782532 
	C516.924927,410.782532 520.325989,410.782532 524.275085,410.782532 
	C524.275085,403.084625 524.275085,395.538116 524.275085,387.687653 
	C530.097595,387.687653 535.377502,387.687653 540.776672,387.687653 
	C540.776672,384.456451 540.776672,381.562592 540.776672,378.116150 
	C535.129639,378.116150 529.745789,378.116150 523.928467,378.116150 
	C523.928467,356.180786 523.928467,334.800507 523.928467,313.150299 
	C521.490845,313.150299 519.478943,313.400879 517.552429,313.101654 
	C512.504517,312.317657 509.552856,314.334900 506.768616,318.684235 
	C494.850708,337.301544 482.608978,355.716064 470.205109,374.014526 
	C467.215637,378.424622 466.832520,382.717529 467.863678,387.824829 
	C480.859375,387.824829 493.658691,387.824829 507.444092,387.824829 
M110.019279,871.335754 
	C109.466583,869.769958 108.913689,868.204285 108.361221,866.638428 
	C104.969086,857.023865 104.967964,857.153015 94.821594,857.062744 
	C91.809090,857.036011 90.537003,857.933716 89.576324,860.840515 
	C85.513100,873.134705 81.132706,885.324219 76.860535,897.549194 
	C71.502014,912.882874 66.135925,928.213867 60.685501,943.796509 
	C64.596199,943.796509 68.039291,943.796509 71.519272,943.796509 
	C73.799301,937.011536 76.091736,930.431091 78.200035,923.792175 
	C78.997665,921.280518 80.061119,920.051453 83.048653,920.122314 
	C92.870247,920.355347 102.704819,920.368103 112.525635,920.119263 
	C115.718666,920.038391 116.857178,921.309570 117.707672,924.061890 
	C119.757256,930.694763 122.081505,937.242737 124.290108,943.810486 
	C127.980240,943.810486 131.418304,943.810486 135.330246,943.810486 
	C126.889198,919.688782 118.562187,895.892944 110.019279,871.335754 
M949.237305,128.057098 
	C952.564148,128.026840 955.911682,128.225342 959.214233,127.926361 
	C972.888367,126.688408 984.134766,116.509163 985.580017,104.061089 
	C983.139587,102.965958 980.648376,101.848015 977.965820,100.644241 
	C975.459473,107.408401 972.533752,113.073120 966.262024,116.246193 
	C951.563538,123.682640 933.513794,116.935707 928.001038,101.494659 
	C923.784973,89.685486 923.881714,77.601898 927.993652,65.756027 
	C931.383484,55.990459 938.292969,50.032887 948.731262,48.689880 
	C961.105774,47.097759 971.580139,49.877842 977.717773,62.493088 
	C980.437500,60.721237 982.753052,59.212677 985.196228,57.620979 
	C983.313965,51.978359 980.007019,47.776531 975.328735,44.629414 
	C957.654419,32.739994 930.095947,39.167412 920.091797,57.928581 
	C912.216187,72.697983 912.002441,88.374352 917.566467,103.876762 
	C922.676025,118.112816 933.250061,126.171669 949.237305,128.057098 
z"/>
<path fill="#FAFAFA" opacity="1.000000" stroke="none" 
	d="
M124.193909,835.921082 
	C134.732574,825.851135 145.370926,816.032837 156.148743,806.370056 
	C241.863480,729.523010 327.613922,652.715820 413.335175,575.876038 
	C501.787140,496.588440 590.207153,417.265167 678.662537,337.981354 
	C754.958130,269.596588 831.283691,201.245285 907.598572,132.882050 
	C908.215637,132.329269 908.868774,131.816696 908.677246,131.976624 
	C912.778259,133.923370 916.434814,135.659134 920.912964,137.784897 
	C920.912964,371.094391 920.912964,605.761169 920.912964,840.567627 
	C918.785095,840.677856 916.820740,840.779602 914.528137,840.898376 
	C914.362427,843.125427 914.207886,845.202209 914.038635,847.477905 
	C652.139160,847.477905 390.441864,847.477905 130.054077,847.477905 
	C127.898911,843.227539 126.128563,839.736145 124.193909,835.921082 
M385.770813,619.264465 
	C341.493591,658.953003 297.216339,698.641541 252.759521,738.491028 
	C270.804169,747.182556 282.240295,761.714783 287.662964,779.857788 
	C293.024170,797.795044 295.493164,816.531006 281.838379,833.519897 
	C465.454529,833.519897 648.046204,833.519897 830.997009,833.519897 
	C830.997009,821.251465 830.997009,809.130615 830.997009,796.737732 
	C835.775085,796.737732 840.196289,796.737732 845.183105,796.737732 
	C845.183105,809.083191 845.183105,821.287659 845.183105,833.341553 
	C866.139587,833.341553 886.531067,833.341553 906.905151,833.341553 
	C906.905151,808.583618 906.905151,784.177063 906.905151,759.404053 
	C900.798523,759.404053 895.019104,759.404053 889.277161,759.404053 
	C889.277161,754.625916 889.277161,750.221863 889.277161,745.406372 
	C895.331848,745.406372 901.088867,745.406372 906.838745,745.406372 
	C906.838745,547.696533 906.838745,350.410828 906.838745,152.408401 
	C732.949280,308.222321 559.636353,463.519684 385.770813,619.264465 
M171.499893,833.700195 
	C202.923080,833.700195 234.346283,833.700195 264.800629,833.700195 
	C267.691711,829.214478 270.248535,825.559814 272.470520,821.711853 
	C274.689728,817.868713 277.846436,813.992798 278.369598,809.850525 
	C280.041809,796.610168 278.971069,783.607483 270.972626,772.087158 
	C266.399353,765.500122 260.960266,760.194275 254.038696,755.753967 
	C247.476608,751.544250 239.626663,750.304932 233.714508,755.587830 
	C206.030746,780.324890 178.378647,805.097351 150.723831,829.866821 
	C149.600235,830.873230 148.563049,831.976135 146.807159,833.700195 
	C155.547577,833.700195 163.023743,833.700195 171.499893,833.700195 
z"/>
<path fill="#FAFAFA" opacity="1.000000" stroke="none" 
	d="
M934.517212,864.154602 
	C946.943176,864.306702 958.960388,863.877869 970.872253,864.803772 
	C981.618591,865.639099 987.845642,871.323669 989.765869,879.757874 
	C991.926331,889.247192 988.858154,895.874268 979.345215,902.325928 
	C979.107971,902.486877 979.025879,902.876709 978.764160,903.356689 
	C979.070679,903.600464 979.358337,903.959229 979.729797,904.105835 
	C992.813354,909.270081 997.691467,917.324768 995.847534,930.758362 
	C994.277588,942.196228 986.576904,949.874146 973.764282,950.623474 
	C960.206665,951.416443 946.566711,950.801453 932.562317,950.801453 
	C932.562317,947.311768 932.562317,944.010620 932.562317,940.709412 
	C932.562317,916.911499 932.531311,893.113403 932.626892,869.315857 
	C932.633789,867.596558 933.562439,865.880859 934.517212,864.154602 
M942.908630,917.550903 
	C942.908630,925.786560 942.908630,934.022217 942.908630,942.073486 
	C953.237122,942.073486 962.894531,942.550354 972.480957,941.929932 
	C980.874207,941.386597 985.312622,935.590149 985.678528,926.591125 
	C986.052246,917.399963 981.868408,910.787842 973.417297,910.046814 
	C963.422729,909.170410 953.292603,909.841003 942.908630,909.841003 
	C942.908630,911.960693 942.908630,914.265259 942.908630,917.550903 
M980.039124,886.491028 
	C979.491089,878.510864 976.524048,873.890015 969.790344,873.357300 
	C960.952820,872.658020 952.018188,873.185608 943.123047,873.185608 
	C943.123047,882.388306 943.123047,891.307251 943.123047,900.481079 
	C951.261414,900.481079 959.218201,900.874939 967.118103,900.372803 
	C975.398743,899.846375 978.977783,895.799133 980.039124,886.491028 
z"/>
<path fill="#F9F9F9" opacity="1.000000" stroke="none" 
	d="
M536.327759,970.613647 
	C534.754761,967.144531 533.390015,963.975952 531.862183,960.428650 
	C535.285950,958.856995 538.255005,957.494080 541.747620,955.890808 
	C542.521851,957.581238 543.214294,959.001648 543.831360,960.454163 
	C549.533142,973.876160 569.049072,978.952881 580.570740,969.848328 
	C586.783691,964.938782 587.583313,958.131348 586.320435,950.835510 
	C585.098328,943.775085 580.708435,939.344055 573.930847,938.151978 
	C567.294189,936.984680 560.457520,936.954041 553.481812,936.406616 
	C553.481812,933.524231 553.481812,930.617065 553.481812,927.032471 
	C557.992920,927.032471 562.296692,927.287781 566.559875,926.979980 
	C575.853149,926.309143 582.054504,920.388062 582.896423,911.766663 
	C583.810669,902.405090 579.473816,896.194702 570.209045,894.549927 
	C560.156860,892.765442 551.336426,894.975830 545.165161,903.929993 
	C544.633545,904.701416 543.930359,905.354614 542.941711,906.477356 
	C540.507446,903.824524 538.308411,901.428040 536.191345,899.120850 
	C546.807983,879.791199 575.843689,881.186584 586.603516,890.128296 
	C597.615234,899.279480 596.892822,917.271729 585.021240,926.113953 
	C583.201782,927.469055 581.237244,928.629456 579.036438,930.079956 
	C579.686035,930.579529 579.977051,930.957092 580.347107,931.065857 
	C595.471130,935.509155 599.426819,947.018799 598.641296,957.814087 
	C597.587830,972.293274 590.097107,980.933716 575.919373,983.520935 
	C566.312378,985.274048 556.458862,985.458679 547.627075,980.648560 
	C543.412964,978.353271 540.201660,974.216614 536.327759,970.613647 
z"/>
<path fill="#F7F7F7" opacity="1.000000" stroke="none" 
	d="
M506.951050,387.824829 
	C493.658691,387.824829 480.859375,387.824829 467.863678,387.824829 
	C466.832520,382.717529 467.215637,378.424622 470.205109,374.014526 
	C482.608978,355.716064 494.850708,337.301544 506.768616,318.684235 
	C509.552856,314.334900 512.504517,312.317657 517.552429,313.101654 
	C519.478943,313.400879 521.490845,313.150299 523.928467,313.150299 
	C523.928467,334.800507 523.928467,356.180786 523.928467,378.116150 
	C529.745789,378.116150 535.129639,378.116150 540.776672,378.116150 
	C540.776672,381.562592 540.776672,384.456451 540.776672,387.687653 
	C535.377502,387.687653 530.097595,387.687653 524.275085,387.687653 
	C524.275085,395.538116 524.275085,403.084625 524.275085,410.782532 
	C520.325989,410.782532 516.924927,410.782532 513.142212,410.782532 
	C513.142212,403.145172 513.142212,395.726807 513.142212,387.824829 
	C510.993164,387.824829 509.218628,387.824829 506.951050,387.824829 
M507.340057,335.860413 
	C498.547974,349.656128 489.755859,363.451843 480.503357,377.969971 
	C491.941864,377.969971 502.306458,377.969971 512.825745,377.969971 
	C512.825745,361.717163 512.825745,345.535400 512.825745,329.353607 
	C512.503113,329.192627 512.180420,329.031677 511.857788,328.870697 
	C510.499268,331.006073 509.140778,333.141449 507.340057,335.860413 
z"/>
<path fill="#F9F9F9" opacity="1.000000" stroke="none" 
	d="
M110.127228,871.716431 
	C118.562187,895.892944 126.889198,919.688782 135.330246,943.810486 
	C131.418304,943.810486 127.980240,943.810486 124.290108,943.810486 
	C122.081505,937.242737 119.757256,930.694763 117.707672,924.061890 
	C116.857178,921.309570 115.718666,920.038391 112.525635,920.119263 
	C102.704819,920.368103 92.870247,920.355347 83.048653,920.122314 
	C80.061119,920.051453 78.997665,921.280518 78.200035,923.792175 
	C76.091736,930.431091 73.799301,937.011536 71.519272,943.796509 
	C68.039291,943.796509 64.596199,943.796509 60.685501,943.796509 
	C66.135925,928.213867 71.502014,912.882874 76.860535,897.549194 
	C81.132706,885.324219 85.513100,873.134705 89.576324,860.840515 
	C90.537003,857.933716 91.809090,857.036011 94.821594,857.062744 
	C104.967964,857.153015 104.969086,857.023865 108.361221,866.638428 
	C108.913689,868.204285 109.466583,869.769958 110.127228,871.716431 
M105.979340,889.509460 
	C103.487007,882.260010 100.994675,875.010559 98.502342,867.761169 
	C98.071106,867.784180 97.639877,867.807251 97.208649,867.830261 
	C92.317917,882.275391 87.427185,896.720520 82.471863,911.356445 
	C93.104225,911.356445 102.967003,911.356445 113.329430,911.356445 
	C110.838936,904.035889 108.499245,897.158569 105.979340,889.509460 
z"/>
<path fill="#F8F8F8" opacity="1.000000" stroke="none" 
	d="
M948.811157,128.031799 
	C933.250061,126.171669 922.676025,118.112816 917.566467,103.876762 
	C912.002441,88.374352 912.216187,72.697983 920.091797,57.928581 
	C930.095947,39.167412 957.654419,32.739994 975.328735,44.629414 
	C980.007019,47.776531 983.313965,51.978359 985.196228,57.620979 
	C982.753052,59.212677 980.437500,60.721237 977.717773,62.493088 
	C971.580139,49.877842 961.105774,47.097759 948.731262,48.689880 
	C938.292969,50.032887 931.383484,55.990459 927.993652,65.756027 
	C923.881714,77.601898 923.784973,89.685486 928.001038,101.494659 
	C933.513794,116.935707 951.563538,123.682640 966.262024,116.246193 
	C972.533752,113.073120 975.459473,107.408401 977.965820,100.644241 
	C980.648376,101.848015 983.139587,102.965958 985.580017,104.061089 
	C984.134766,116.509163 972.888367,126.688408 959.214233,127.926361 
	C955.911682,128.225342 952.564148,128.026840 948.811157,128.031799 
z"/>
<path fill="#000000" opacity="0.000000" stroke="none" 
	d="
M386.047119,619.040771 
	C559.636353,463.519684 732.949280,308.222321 906.838745,152.408401 
	C906.838745,350.410828 906.838745,547.696533 906.838745,745.406372 
	C901.088867,745.406372 895.331848,745.406372 889.277161,745.406372 
	C889.277161,750.221863 889.277161,754.625916 889.277161,759.404053 
	C895.019104,759.404053 900.798523,759.404053 906.905151,759.404053 
	C906.905151,784.177063 906.905151,808.583618 906.905151,833.341553 
	C886.531067,833.341553 866.139587,833.341553 845.183105,833.341553 
	C845.183105,821.287659 845.183105,809.083191 845.183105,796.737732 
	C840.196289,796.737732 835.775085,796.737732 830.997009,796.737732 
	C830.997009,809.130615 830.997009,821.251465 830.997009,833.519897 
	C648.046204,833.519897 465.454529,833.519897 281.838379,833.519897 
	C295.493164,816.531006 293.024170,797.795044 287.662964,779.857788 
	C282.240295,761.714783 270.804169,747.182556 252.759521,738.491028 
	C297.216339,698.641541 341.493591,658.953003 386.047119,619.040771 
M328.302521,792.461121 
	C345.512238,797.705078 359.161530,790.612915 362.649414,773.131897 
	C364.738739,762.660339 365.177582,751.649109 364.714081,740.951721 
	C364.400146,733.706116 361.738770,726.395447 359.176147,719.465576 
	C357.031433,713.666016 352.244995,709.858582 346.178925,707.914917 
	C330.996887,703.050354 317.592041,710.514893 313.430450,726.794800 
	C309.580078,741.857056 309.468201,757.156921 313.199615,772.268982 
	C315.269348,780.651245 318.940735,788.305176 328.302521,792.461121 
M831.046326,756.668884 
	C831.046326,765.114136 831.046326,773.559326 831.046326,782.254517 
	C835.820190,782.254517 840.235168,782.254517 845.117798,782.254517 
	C845.117798,774.679138 845.117798,767.278870 845.117798,759.425415 
	C855.310364,759.425415 865.045471,759.425415 874.650330,759.425415 
	C874.650330,754.567017 874.650330,750.179077 874.650330,745.830688 
	C860.610046,745.830688 846.910828,745.830688 833.127747,745.830688 
	C832.396118,749.308105 831.721252,752.515869 831.046326,756.668884 
z"/>
<path fill="#030303" opacity="0.000000" stroke="none" 
	d="
M170.999908,833.700195 
	C163.023743,833.700195 155.547577,833.700195 146.807159,833.700195 
	C148.563049,831.976135 149.600235,830.873230 150.723831,829.866821 
	C178.378647,805.097351 206.030746,780.324890 233.714508,755.587830 
	C239.626663,750.304932 247.476608,751.544250 254.038696,755.753967 
	C260.960266,760.194275 266.399353,765.500122 270.972626,772.087158 
	C278.971069,783.607483 280.041809,796.610168 278.369598,809.850525 
	C277.846436,813.992798 274.689728,817.868713 272.470520,821.711853 
	C270.248535,825.559814 267.691711,829.214478 264.800629,833.700195 
	C234.346283,833.700195 202.923080,833.700195 170.999908,833.700195 
z"/>
<path fill="#050505" opacity="0.000000" stroke="none" 
	d="
M942.908630,917.060364 
	C942.908630,914.265259 942.908630,911.960693 942.908630,909.841003 
	C953.292603,909.841003 963.422729,909.170410 973.417297,910.046814 
	C981.868408,910.787842 986.052246,917.399963 985.678528,926.591125 
	C985.312622,935.590149 980.874207,941.386597 972.480957,941.929932 
	C962.894531,942.550354 953.237122,942.073486 942.908630,942.073486 
	C942.908630,934.022217 942.908630,925.786560 942.908630,917.060364 
z"/>
<path fill="#040404" opacity="0.000000" stroke="none" 
	d="
M980.029358,886.915894 
	C978.977783,895.799133 975.398743,899.846375 967.118103,900.372803 
	C959.218201,900.874939 951.261414,900.481079 943.123047,900.481079 
	C943.123047,891.307251 943.123047,882.388306 943.123047,873.185608 
	C952.018188,873.185608 960.952820,872.658020 969.790344,873.357300 
	C976.524048,873.890015 979.491089,878.510864 980.029358,886.915894 
z"/>
<path fill="#020202" opacity="0.000000" stroke="none" 
	d="
M507.561157,335.568604 
	C509.140778,333.141449 510.499268,331.006073 511.857788,328.870697 
	C512.180420,329.031677 512.503113,329.192627 512.825745,329.353607 
	C512.825745,345.535400 512.825745,361.717163 512.825745,377.969971 
	C502.306458,377.969971 491.941864,377.969971 480.503357,377.969971 
	C489.755859,363.451843 498.547974,349.656128 507.561157,335.568604 
z"/>
<path fill="#080808" opacity="0.000000" stroke="none" 
	d="
M106.069443,889.895386 
	C108.499245,897.158569 110.838936,904.035889 113.329430,911.356445 
	C102.967003,911.356445 93.104225,911.356445 82.471863,911.356445 
	C87.427185,896.720520 92.317917,882.275391 97.208649,867.830261 
	C97.639877,867.807251 98.071106,867.784180 98.502342,867.761169 
	C100.994675,875.010559 103.487007,882.260010 106.069443,889.895386 
z"/>
<path fill="#F9F9F9" opacity="1.000000" stroke="none" 
	d="
M327.951355,792.287109 
	C318.940735,788.305176 315.269348,780.651245 313.199615,772.268982 
	C309.468201,757.156921 309.580078,741.857056 313.430450,726.794800 
	C317.592041,710.514893 330.996887,703.050354 346.178925,707.914917 
	C352.244995,709.858582 357.031433,713.666016 359.176147,719.465576 
	C361.738770,726.395447 364.400146,733.706116 364.714081,740.951721 
	C365.177582,751.649109 364.738739,762.660339 362.649414,773.131897 
	C359.161530,790.612915 345.512238,797.705078 327.951355,792.287109 
M333.548523,785.309998 
	C342.322662,787.110596 348.699371,784.365845 351.412140,776.143433 
	C353.748047,769.063293 354.587189,761.489380 356.168243,753.740967 
	C343.542023,753.740967 332.350189,753.740967 319.961761,753.740967 
	C321.377716,761.342834 322.398956,768.522156 324.133575,775.524719 
	C325.237000,779.979126 328.117615,783.512268 333.548523,785.309998 
M345.472839,745.077698 
	C348.591431,745.077698 351.710052,745.077698 356.328369,745.077698 
	C354.333679,737.157349 353.073456,729.830688 350.573303,722.954834 
	C348.543854,717.373413 343.607574,714.763306 337.448547,714.928345 
	C331.480316,715.088318 326.935333,717.879028 325.120239,723.358704 
	C322.864838,730.167786 321.632355,737.315552 319.776215,745.077698 
	C328.943695,745.077698 336.712860,745.077698 345.472839,745.077698 
z"/>
<path fill="#FAFAFA" opacity="1.000000" stroke="none" 
	d="
M831.046326,756.196289 
	C831.721252,752.515869 832.396118,749.308105 833.127747,745.830688 
	C846.910828,745.830688 860.610046,745.830688 874.650330,745.830688 
	C874.650330,750.179077 874.650330,754.567017 874.650330,759.425415 
	C865.045471,759.425415 855.310364,759.425415 845.117798,759.425415 
	C845.117798,767.278870 845.117798,774.679138 845.117798,782.254517 
	C840.235168,782.254517 835.820190,782.254517 831.046326,782.254517 
	C831.046326,773.559326 831.046326,765.114136 831.046326,756.196289 
z"/>
<path fill="#070707" opacity="0.000000" stroke="none" 
	d="
M333.163940,785.201416 
	C328.117615,783.512268 325.237000,779.979126 324.133575,775.524719 
	C322.398956,768.522156 321.377716,761.342834 319.961761,753.740967 
	C332.350189,753.740967 343.542023,753.740967 356.168243,753.740967 
	C354.587189,761.489380 353.748047,769.063293 351.412140,776.143433 
	C348.699371,784.365845 342.322662,787.110596 333.163940,785.201416 
z"/>
<path fill="#030303" opacity="0.000000" stroke="none" 
	d="
M344.977417,745.077698 
	C336.712860,745.077698 328.943695,745.077698 319.776215,745.077698 
	C321.632355,737.315552 322.864838,730.167786 325.120239,723.358704 
	C326.935333,717.879028 331.480316,715.088318 337.448547,714.928345 
	C343.607574,714.763306 348.543854,717.373413 350.573303,722.954834 
	C353.073456,729.830688 354.333679,737.157349 356.328369,745.077698 
	C351.710052,745.077698 348.591431,745.077698 344.977417,745.077698 
z"/>
</svg>