<svg version="1.1" id="Layer_1" xmlns="http://www.w3.org/2000/svg" xmlns:xlink="http://www.w3.org/1999/xlink" x="0px" y="0px"
	 width="100%" viewBox="0 0 963 963" enable-background="new 0 0 963 963" xml:space="preserve">
<path fill="#000000" opacity="0.000000" stroke="none" 
	d="
M964.000000,352.000000 
	C964.000000,556.333313 964.000000,760.166687 964.000000,964.000000 
	C643.000000,964.000000 322.000000,964.000000 1.000000,964.000000 
	C1.000000,643.000000 1.000000,322.000000 1.000000,1.000000 
	C322.000000,1.000000 643.000000,1.000000 964.000000,1.000000 
	C964.000000,117.833336 964.000000,234.666672 964.000000,352.000000 
M936.167480,475.424072 
	C935.173340,458.645142 934.956360,441.777344 933.050293,425.102661 
	C924.909912,353.891510 900.965027,288.298645 861.585510,228.389999 
	C846.369080,205.241043 829.529358,183.367126 809.696411,162.954834 
	C809.382935,157.594833 809.056519,151.940094 803.585632,149.243942 
	C800.485413,147.716095 796.646545,147.686935 792.807434,146.394440 
	C792.091187,145.698868 791.392090,144.984650 790.656372,144.310333 
	C719.856018,79.420387 637.151245,39.519039 541.818115,26.801483 
	C522.101807,24.171293 502.047699,24.073174 481.366547,22.563253 
	C480.294891,22.649776 479.223267,22.736298 477.227600,22.586052 
	C452.835480,22.300301 428.665527,24.554323 404.626556,28.633188 
	C325.365356,42.082008 254.244034,73.768852 192.250931,124.932991 
	C104.519203,197.339752 50.446854,289.756439 30.556082,401.882416 
	C26.187664,426.507629 23.748508,451.375458 24.118008,477.133453 
	C24.185593,478.318726 24.253180,479.503967 24.175743,481.655426 
	C24.091511,512.248352 27.283285,542.530151 33.778717,572.391052 
	C57.414341,681.048828 112.929070,769.930237 200.413925,838.555298 
	C260.575623,885.747498 328.689026,915.411072 404.047424,928.196228 
	C428.516663,932.347473 453.164581,935.327087 478.628845,934.736572 
	C479.814880,934.649048 481.000916,934.561584 483.086029,934.623657 
	C518.593384,934.852600 553.615601,930.560974 588.025635,922.074951 
	C636.927795,910.014954 682.904663,890.832886 725.197021,863.257507 
	C828.931396,795.620850 895.591309,701.655823 924.662964,581.265991 
	C932.626526,548.287781 936.547791,514.721497 936.237061,480.202515 
	C936.170593,478.936737 936.104126,477.670929 936.167480,475.424072 
z"/>
<path fill="#00C5C8" opacity="1.000000" stroke="none" 
	d="
M478.097351,934.432739 
	C453.164581,935.327087 428.516663,932.347473 404.047424,928.196228 
	C328.689026,915.411072 260.575623,885.747498 200.413925,838.555298 
	C112.929070,769.930237 57.414341,681.048828 33.778717,572.391052 
	C27.283285,542.530151 24.091511,512.248352 24.680412,481.183960 
	C28.611292,480.795746 32.037502,480.879028 35.359100,481.424744 
	C35.484596,525.666016 41.934097,568.513428 55.016315,610.288452 
	C81.522911,694.931091 128.907257,765.836304 197.386948,822.052124 
	C278.763245,888.855103 372.481110,922.654358 477.992920,923.836060 
	C478.070831,927.650452 478.084076,931.041565 478.097351,934.432739 
z"/>
<path fill="#00C6C9" opacity="1.000000" stroke="none" 
	d="
M936.043396,480.719696 
	C936.547791,514.721497 932.626526,548.287781 924.662964,581.265991 
	C895.591309,701.655823 828.931396,795.620850 725.197021,863.257507 
	C682.904663,890.832886 636.927795,910.014954 588.025635,922.074951 
	C553.615601,930.560974 518.593384,934.852600 482.623535,934.139771 
	C482.414093,930.268799 482.667175,926.881714 483.393555,923.484741 
	C527.180176,923.467224 569.607178,917.110962 610.884094,904.196899 
	C688.943665,879.774963 755.978638,837.647644 810.575256,776.563843 
	C885.739136,692.468811 923.639404,593.725281 925.576538,480.905273 
	C929.363098,480.797119 932.703247,480.758423 936.043396,480.719696 
z"/>
<path fill="#00C6C8" opacity="1.000000" stroke="none" 
	d="
M24.327229,476.454163 
	C23.748508,451.375458 26.187664,426.507629 30.556082,401.882416 
	C50.446854,289.756439 104.519203,197.339752 192.250931,124.932991 
	C254.244034,73.768852 325.365356,42.082008 404.626556,28.633188 
	C428.665527,24.554323 452.835480,22.300301 477.671082,23.105927 
	C478.050049,26.993052 477.985565,30.360300 477.459961,33.716808 
	C459.881592,34.704807 442.642578,34.734005 425.667389,36.864849 
	C337.353424,47.950657 259.081848,82.185631 191.351761,140.131516 
	C154.078201,172.020554 122.616882,208.852814 97.592674,251.087555 
	C65.836746,304.683716 45.784023,362.356354 38.566143,424.261414 
	C36.566387,441.412567 36.454556,458.783813 35.064762,476.163452 
	C31.211069,476.333252 27.769148,476.393707 24.327229,476.454163 
z"/>
<path fill="#C1C2C2" opacity="1.000000" stroke="none" 
	d="
M24.222618,476.793823 
	C27.769148,476.393707 31.211069,476.333252 35.539886,476.342041 
	C37.092480,476.440704 37.758183,476.495941 38.423882,476.495941 
	C183.421082,476.500610 328.418274,476.502319 473.415466,476.488495 
	C474.849731,476.488342 476.283997,476.280518 478.116547,476.138885 
	C478.116547,473.833221 478.116516,471.865967 478.116516,469.898712 
	C478.116516,368.900665 478.115540,267.902618 478.123596,166.904572 
	C478.123749,164.908493 478.229492,162.912415 478.670532,160.897278 
	C483.638641,160.273361 488.206818,159.453232 492.810059,159.124451 
	C497.379395,158.798080 501.984039,158.966232 506.572693,159.280853 
	C498.545105,159.998459 490.518005,160.352722 482.227722,160.718613 
	C482.227722,162.987488 482.227753,164.804947 482.227753,166.622421 
	C482.227722,266.238708 482.226624,365.855011 482.236206,465.471313 
	C482.236389,467.300018 482.364197,469.128723 482.345276,471.225952 
	C482.152679,472.873566 482.047241,474.252625 481.585754,475.746643 
	C479.642242,478.214142 479.232483,480.371918 482.234253,482.434204 
	C482.229828,627.660278 482.226990,772.416931 482.258575,917.173645 
	C482.259033,919.280701 482.690125,921.387573 482.920227,923.494568 
	C482.667175,926.881714 482.414093,930.268799 482.173981,934.065063 
	C481.000916,934.561584 479.814880,934.649048 478.363098,934.584656 
	C478.084076,931.041565 478.070831,927.650452 478.071655,923.338318 
	C478.085693,775.223022 478.085693,628.028748 478.085693,480.670685 
	C475.809601,480.670685 474.313477,480.670685 472.817352,480.670685 
	C328.689209,480.670654 184.561035,480.669647 40.432888,480.682678 
	C38.776489,480.682831 37.120102,480.865082 35.463711,480.962341 
	C32.037502,480.879028 28.611292,480.795746 24.752922,480.700867 
	C24.253180,479.503967 24.185593,478.318726 24.222618,476.793823 
z"/>
<path fill="#00C5C8" opacity="1.000000" stroke="none" 
	d="
M482.149292,22.808046 
	C502.047699,24.073174 522.101807,24.171293 541.818115,26.801483 
	C637.151245,39.519039 719.856018,79.420387 790.656372,144.310333 
	C791.392090,144.984650 792.091187,145.698868 792.744507,146.942108 
	C789.885742,149.405090 787.089905,151.320404 783.976929,153.037689 
	C775.603455,145.870987 767.743652,138.658676 759.459167,131.972610 
	C699.627380,83.684891 631.676453,53.245090 555.982422,40.128384 
	C531.682068,35.917477 507.181152,33.457729 482.360352,33.589592 
	C482.224426,29.742577 482.186859,26.275312 482.149292,22.808046 
z"/>
<path fill="#00C6C9" opacity="1.000000" stroke="none" 
	d="
M809.875549,163.756683 
	C829.529358,183.367126 846.369080,205.241043 861.585510,228.389999 
	C900.965027,288.298645 924.909912,353.891510 933.050293,425.102661 
	C934.956360,441.777344 935.173340,458.645142 935.645386,475.880798 
	C931.801819,476.267792 928.480347,476.197998 925.162292,475.649963 
	C923.658142,454.777679 923.183411,434.243713 920.442993,414.016785 
	C913.151611,360.199097 895.567566,309.652954 869.236023,262.178711 
	C851.064270,229.416046 829.121582,199.399872 803.102356,172.166840 
	C805.414062,169.160767 807.644775,166.458725 809.875549,163.756683 
z"/>
<path fill="#01E070" opacity="1.000000" stroke="none" 
	d="
M809.786011,163.355759 
	C807.644775,166.458725 805.414062,169.160767 802.632935,172.078705 
	C798.280090,173.155029 799.704224,176.253098 799.702820,178.436905 
	C799.646912,266.585358 799.674072,354.733856 799.665405,442.882355 
	C799.665161,445.532135 799.395447,448.181885 798.857971,450.662537 
	C796.830933,450.541595 795.197327,450.589752 793.465271,450.138672 
	C793.351379,366.663605 793.336426,283.687805 793.319458,200.711990 
	C793.317871,192.714310 793.409302,184.713806 793.194702,176.721649 
	C793.157837,175.347839 791.793335,174.009674 790.861267,172.410675 
	C789.057861,170.783356 787.435303,169.400406 785.657471,167.648285 
	C785.099487,162.597961 784.696777,157.916824 784.294006,153.235703 
	C787.089905,151.320404 789.885742,149.405090 792.911011,147.236298 
	C796.646545,147.686935 800.485413,147.716095 803.585632,149.243942 
	C809.056519,151.940094 809.382935,157.594833 809.786011,163.355759 
z"/>
<path fill="#C1C2C2" opacity="1.000000" stroke="none" 
	d="
M481.757935,22.685650 
	C482.186859,26.275312 482.224426,29.742577 482.261871,34.051540 
	C482.261749,74.385452 482.261749,113.877670 482.261749,153.802612 
	C489.442200,153.802612 495.896637,153.728317 502.346863,153.860931 
	C503.754913,153.889877 505.147827,154.657837 506.108063,155.074829 
	C496.550476,154.400574 487.432526,153.736954 478.228668,152.607208 
	C478.134033,136.150909 478.144470,120.160721 478.112061,104.170609 
	C478.064453,80.689560 477.986206,57.208569 477.921051,33.727551 
	C477.985565,30.360300 478.050049,26.993052 478.133087,23.224312 
	C479.223267,22.736298 480.294891,22.649776 481.757935,22.685650 
z"/>
<path fill="#B6B9B9" opacity="1.000000" stroke="none" 
	d="
M925.158813,476.128235 
	C928.480347,476.197998 931.801819,476.267792 935.580444,476.371338 
	C936.104126,477.670929 936.170593,478.936737 936.140259,480.461121 
	C932.703247,480.758423 929.363098,480.797119 925.109802,480.795105 
	C882.768372,480.742920 841.340149,480.731445 799.898926,480.349304 
	C799.891235,478.752594 799.896423,477.526581 800.375732,476.327698 
	C841.633423,476.385437 882.416931,476.417603 923.200500,476.433441 
	C923.853210,476.433685 924.506042,476.234375 925.158813,476.128235 
z"/>
<path fill="#000000" opacity="0.000000" stroke="none" 
	d="
M35.359100,481.424744 
	C37.120102,480.865082 38.776489,480.682831 40.432888,480.682678 
	C184.561035,480.669647 328.689209,480.670654 472.817352,480.670685 
	C474.313477,480.670685 475.809601,480.670685 478.085693,480.670685 
	C478.085693,628.028748 478.085693,775.223022 478.006958,922.915161 
	C372.481110,922.654358 278.763245,888.855103 197.386948,822.052124 
	C128.907257,765.836304 81.522911,694.931091 55.016315,610.288452 
	C41.934097,568.513428 35.484596,525.666016 35.359100,481.424744 
z"/>
<path fill="#000000" opacity="0.000000" stroke="none" 
	d="
M799.911865,480.719971 
	C841.340149,480.731445 882.768372,480.742920 924.663391,480.864563 
	C923.639404,593.725281 885.739136,692.468811 810.575256,776.563843 
	C755.978638,837.647644 688.943665,879.774963 610.884094,904.196899 
	C569.607178,917.110962 527.180176,923.467224 483.393555,923.484741 
	C482.690125,921.387573 482.259033,919.280701 482.258575,917.173645 
	C482.226990,772.416931 482.229828,627.660278 482.746216,482.343201 
	C486.239655,481.750549 489.216583,481.703278 492.193665,481.688324 
	C511.212006,481.592621 530.230347,481.504028 549.516724,481.616272 
	C552.391907,484.476318 554.759155,483.143921 557.613159,481.496552 
	C636.453308,481.638641 714.780640,481.663788 793.236389,482.162231 
	C793.472412,488.705353 793.580078,494.775208 793.595581,501.150330 
	C795.414001,501.292389 797.324707,501.129211 799.353149,500.512634 
	C799.617920,493.612823 799.764893,487.166412 799.911865,480.719971 
M646.986145,522.327820 
	C651.350403,530.999207 659.859436,531.810364 668.236816,525.406555 
	C671.928284,526.737488 674.741760,527.903137 677.659119,528.677368 
	C678.249695,528.834167 679.804382,527.575684 679.884644,526.854980 
	C679.977173,526.023804 678.963318,524.312378 678.369202,524.284668 
	C674.487061,524.103455 674.921692,521.391785 674.910156,518.908386 
	C674.883728,513.243286 674.974915,507.576385 674.859131,501.913483 
	C674.760010,497.062164 673.120667,492.957855 668.014526,491.447479 
	C661.963135,489.657471 656.178467,490.333557 650.825012,493.953308 
	C647.505981,496.197510 647.062317,498.342560 649.092041,499.704346 
	C654.757751,498.121399 659.146912,496.403015 663.672241,495.893799 
	C665.288147,495.712006 668.418640,498.267242 668.684021,499.921814 
	C668.933167,501.474884 666.679749,504.223755 664.869141,505.127655 
	C662.116455,506.501984 658.763611,506.625305 655.721375,507.478577 
	C647.969666,509.652802 645.537292,513.562927 646.986145,522.327820 
M804.416443,547.694153 
	C804.886108,546.880859 805.952087,545.789795 805.724487,545.301270 
	C804.607666,542.903564 803.324097,540.536377 801.762634,538.405090 
	C799.824036,535.759033 799.697021,533.491821 801.719177,530.777649 
	C803.513123,528.369690 804.811279,525.592468 806.780396,522.199036 
	C799.600586,522.370789 800.243530,529.217346 796.135132,531.468872 
	C794.928284,529.527405 793.685547,527.584717 792.500977,525.607239 
	C791.226868,523.480469 790.069031,521.181213 786.648132,523.147278 
	C788.005066,525.428406 789.035706,527.718018 790.563110,529.605774 
	C793.249817,532.926453 793.427429,535.908813 790.711426,539.347473 
	C788.909851,541.628540 787.666565,544.350525 785.754211,547.583862 
	C793.487122,547.816956 792.222534,539.816956 796.446350,537.821472 
	C798.880188,541.098938 801.306763,544.366638 804.416443,547.694153 
z"/>
<path fill="#000101" opacity="0.000000" stroke="none" 
	d="
M477.459961,33.716808 
	C477.986206,57.208569 478.064453,80.689560 478.112061,104.170609 
	C478.144470,120.160721 478.134033,136.150909 478.136902,152.701202 
	C478.131042,153.261337 478.204956,153.513443 477.735474,153.634796 
	C471.337677,153.770889 465.407410,153.707245 459.482605,153.858368 
	C458.093201,153.893799 456.722290,154.655762 455.234802,155.458008 
	C455.192017,156.863358 455.257294,157.894165 455.336792,159.296509 
	C456.928741,159.878601 458.502655,160.232391 460.084839,160.274261 
	C466.116699,160.433838 472.151215,160.492828 478.145081,160.691254 
	C478.105377,160.793091 478.285950,160.916336 478.285950,160.916336 
	C478.229492,162.912415 478.123749,164.908493 478.123596,166.904572 
	C478.115540,267.902618 478.116516,368.900665 478.116516,469.898712 
	C478.116516,471.865967 478.116547,473.833221 478.116547,476.138885 
	C476.283997,476.280518 474.849731,476.488342 473.415466,476.488495 
	C328.418274,476.502319 183.421082,476.500610 38.423882,476.495941 
	C37.758183,476.495941 37.092480,476.440704 35.951660,476.232666 
	C36.454556,458.783813 36.566387,441.412567 38.566143,424.261414 
	C45.784023,362.356354 65.836746,304.683716 97.592674,251.087555 
	C122.616882,208.852814 154.078201,172.020554 191.351761,140.131516 
	C259.081848,82.185631 337.353424,47.950657 425.667389,36.864849 
	C442.642578,34.734005 459.881592,34.704807 477.459961,33.716808 
z"/>
<path fill="#010101" opacity="0.000000" stroke="none" 
	d="
M506.547699,155.085464 
	C505.147827,154.657837 503.754913,153.889877 502.346863,153.860931 
	C495.896637,153.728317 489.442200,153.802612 482.261749,153.802612 
	C482.261749,113.877670 482.261749,74.385452 482.360229,34.431290 
	C507.181152,33.457729 531.682068,35.917477 555.982422,40.128384 
	C631.676453,53.245090 699.627380,83.684891 759.459167,131.972610 
	C767.743652,138.658676 775.603455,145.870987 783.976929,153.037689 
	C784.696777,157.916824 785.099487,162.597961 785.385193,167.901123 
	C703.364502,250.397552 621.459961,332.271027 539.566101,414.155212 
	C538.398987,415.322205 537.365662,416.623047 536.041809,417.992401 
	C534.879272,419.120300 533.944763,420.117249 532.678955,421.285278 
	C530.450928,423.320129 528.545898,425.175598 526.658630,427.048889 
	C511.914642,441.683136 497.174072,456.320801 482.432434,470.957428 
	C482.364197,469.128723 482.236389,467.300018 482.236206,465.471313 
	C482.226624,365.855011 482.227722,266.238708 482.227753,166.622421 
	C482.227753,164.804947 482.227722,162.987488 482.227722,160.718613 
	C490.518005,160.352722 498.545105,159.998459 506.701477,158.909714 
	C506.736420,157.145294 506.642059,156.115387 506.547699,155.085464 
M622.831482,225.779205 
	C631.238403,234.215363 639.645386,242.651535 648.988525,252.027161 
	C645.238464,254.975601 641.979858,257.537598 638.432800,260.326447 
	C640.145752,261.923309 641.180298,262.887787 641.679321,263.352966 
	C649.116699,255.924805 656.263550,248.786804 663.644836,241.414703 
	C662.926941,240.753494 661.890991,239.799347 660.152222,238.197845 
	C657.671692,241.348236 655.401306,244.231735 652.439087,247.993866 
	C641.378296,236.812027 631.031616,226.352081 619.983154,215.182709 
	C617.627808,220.269501 615.886536,224.909027 613.404724,229.111221 
	C611.428406,232.457550 612.187073,234.237289 615.475525,235.833420 
	C617.716980,232.293304 619.925537,228.805099 622.831482,225.779205 
M560.972412,334.440033 
	C572.304626,338.501007 584.878662,326.582855 582.320190,316.086121 
	C581.421326,312.398193 579.859497,311.733215 576.624390,313.972351 
	C576.763306,314.733887 576.885620,315.524963 577.053711,316.306183 
	C578.135681,321.337036 576.202576,325.132843 572.119873,327.914856 
	C568.222107,330.570801 563.924988,330.424805 560.412109,327.723694 
	C557.067627,325.152100 553.760376,322.002258 551.719788,318.383240 
	C548.272217,312.268860 552.568481,304.216858 559.418823,302.915924 
	C561.291870,302.560242 563.289795,302.861938 565.523743,302.861938 
	C565.746521,301.089661 565.924988,299.669678 566.121094,298.109070 
	C558.931213,295.680298 553.800232,298.601349 549.433411,303.465393 
	C544.769104,308.660797 543.617432,314.688629 546.485901,321.092865 
	C549.248718,327.261292 553.898499,331.681732 560.972412,334.440033 
M547.956543,149.349777 
	C546.708374,150.614960 544.961609,151.664474 544.304016,153.185074 
	C542.182617,158.090424 540.462219,163.169189 538.587280,168.181122 
	C538.105408,168.179764 537.623474,168.178406 537.141602,168.177048 
	C535.081848,162.849030 533.170898,157.455154 530.861145,152.237808 
	C530.260498,150.881149 528.414856,150.075653 527.141113,149.016983 
	C526.750427,149.414963 526.359741,149.812943 525.969055,150.210922 
	C528.674194,157.136230 531.387024,164.058517 534.082153,170.987686 
	C536.743225,177.829330 534.901794,180.885056 527.810425,181.717041 
	C526.934692,181.819778 526.162781,182.806946 525.342712,183.384293 
	C526.042053,183.961395 526.655151,184.832321 527.454956,185.066879 
	C531.911377,186.373795 536.000977,184.228287 538.088318,179.118134 
	C541.790466,170.054459 545.251831,160.891937 548.744202,151.744141 
	C548.989197,151.102493 548.660400,150.241806 547.956543,149.349777 
M596.624756,288.134521 
	C602.325562,282.454651 608.026428,276.774780 613.905212,270.917603 
	C612.427917,269.560791 611.491943,268.701172 610.948486,268.202026 
	C604.089600,275.027588 597.433533,281.651306 590.619202,288.432526 
	C592.036377,291.616089 593.942261,291.419189 596.624756,288.134521 
M602.894409,261.855469 
	C602.297424,260.469818 601.700378,259.084167 601.309692,258.177399 
	C594.144226,265.326691 587.497803,271.958038 580.625793,278.814514 
	C581.332275,279.409302 582.373535,280.285980 583.517212,281.248840 
	C590.035706,274.729126 596.237488,268.526184 602.894409,261.855469 
z"/>
<path fill="#00C0C3" opacity="1.000000" stroke="none" 
	d="
M482.345276,471.225952 
	C497.174072,456.320801 511.914642,441.683136 526.658630,427.048889 
	C528.545898,425.175598 530.450928,423.320129 532.918396,421.636536 
	C535.451721,422.527557 537.414368,423.238495 539.224915,424.272644 
	C525.812927,437.911804 512.533630,451.208435 499.306824,464.557068 
	C495.934021,467.960938 492.727570,471.529602 489.085938,475.104065 
	C486.465393,475.334290 484.203613,475.483002 481.941833,475.631683 
	C482.047241,474.252625 482.152679,472.873566 482.345276,471.225952 
z"/>
<path fill="#01EC76" opacity="1.000000" stroke="none" 
	d="
M481.585724,475.746643 
	C484.203613,475.483002 486.465393,475.334290 489.568909,475.269226 
	C510.313202,475.401031 530.215759,475.449158 550.108826,475.840576 
	C549.815735,477.927002 549.532227,479.670074 549.248657,481.413147 
	C530.230347,481.504028 511.212006,481.592621 492.193665,481.688324 
	C489.216583,481.703278 486.239655,481.750549 482.750702,481.873871 
	C479.232483,480.371918 479.642242,478.214142 481.585724,475.746643 
z"/>
<path fill="#EEF1F1" opacity="1.000000" stroke="none" 
	d="
M506.108063,155.074829 
	C506.642059,156.115387 506.736420,157.145294 506.701965,158.546356 
	C501.984039,158.966232 497.379395,158.798080 492.810059,159.124451 
	C488.206818,159.453232 483.638641,160.273361 478.670532,160.897278 
	C478.285950,160.916336 478.105377,160.793091 478.013916,160.317627 
	C470.389191,159.536438 462.855896,159.230698 455.322601,158.924957 
	C455.257294,157.894165 455.192017,156.863358 455.681519,155.449600 
	C462.147400,155.037628 468.061310,155.099854 473.967438,154.913681 
	C475.393219,154.868744 476.793152,154.002182 478.204956,153.513458 
	C478.204956,153.513443 478.131042,153.261337 478.222809,153.167343 
	C487.432526,153.736954 496.550476,154.400574 506.108063,155.074829 
z"/>
<path fill="#010202" opacity="0.000000" stroke="none" 
	d="
M925.162292,475.649963 
	C924.506042,476.234375 923.853210,476.433685 923.200500,476.433441 
	C882.416931,476.417603 841.633423,476.385437 800.394165,476.228882 
	C799.938477,476.102966 799.744507,476.051056 799.818359,475.585754 
	C799.749817,467.251740 799.607422,459.383026 799.469727,451.388306 
	C799.474487,451.262360 799.251343,450.831665 799.251343,450.831665 
	C799.395447,448.181885 799.665161,445.532135 799.665405,442.882355 
	C799.674072,354.733856 799.646912,266.585358 799.702820,178.436905 
	C799.704224,176.253098 798.280090,173.155029 802.552002,172.382751 
	C829.121582,199.399872 851.064270,229.416046 869.236023,262.178711 
	C895.567566,309.652954 913.151611,360.199097 920.442993,414.016785 
	C923.183411,434.243713 923.658142,454.777679 925.162292,475.649963 
M811.936279,359.207458 
	C812.705261,360.686707 813.474243,362.165955 814.243225,363.645264 
	C815.744995,362.503967 817.246765,361.362671 819.117554,359.940948 
	C819.006592,359.859192 819.525879,360.232849 820.036133,360.618439 
	C830.339722,368.404449 842.884583,363.774872 845.147766,351.106842 
	C845.835815,347.255096 845.684021,343.147675 845.261108,339.228058 
	C844.636658,333.439911 841.994263,328.613739 836.142090,326.578583 
	C830.009094,324.445740 824.316895,325.347992 819.542847,330.128937 
	C819.150818,330.521484 818.529236,330.684753 817.442505,331.254150 
	C817.442505,324.398956 817.442505,318.124695 817.442505,311.577911 
	C815.482483,311.577911 813.940063,311.577911 811.936279,311.577911 
	C811.936279,327.348236 811.936279,342.807739 811.936279,359.207458 
z"/>
<path fill="#000101" opacity="0.000000" stroke="none" 
	d="
M791.042114,172.655060 
	C791.793335,174.009674 793.157837,175.347839 793.194702,176.721649 
	C793.409302,184.713806 793.317871,192.714310 793.319458,200.711990 
	C793.336426,283.687805 793.351379,366.663605 793.351318,450.541168 
	C793.260681,459.390961 793.185608,467.338989 792.639526,475.357910 
	C716.900757,475.438934 641.633057,475.450348 566.365295,475.448792 
	C565.037781,475.448761 563.710266,475.292053 562.526855,474.856384 
	C571.214905,463.194733 569.940002,450.792145 566.341614,438.334442 
	C563.364929,428.028778 556.218872,421.506958 546.324219,417.777100 
	C547.785706,416.136017 549.043091,414.805206 550.337402,413.511353 
	C610.721191,353.148224 671.118408,292.798462 731.489075,232.422150 
	C751.374817,212.534531 771.192993,192.579361 791.042114,172.655060 
M586.136963,395.613159 
	C584.454468,398.045074 582.079712,400.253815 581.210938,402.948090 
	C577.700500,413.835236 577.587036,424.921204 581.261719,435.799927 
	C583.731812,443.112671 588.825806,446.450806 595.931885,446.270020 
	C603.079529,446.088196 607.863953,442.594910 610.131897,435.151337 
	C613.208252,425.054443 613.360962,414.765991 610.272888,404.660370 
	C606.769287,393.194672 597.349854,389.551331 586.136963,395.613159 
z"/>
<path fill="#00C0C3" opacity="1.000000" stroke="none" 
	d="
M790.861206,172.410675 
	C771.192993,192.579361 751.374817,212.534531 731.489075,232.422150 
	C671.118408,292.798462 610.721191,353.148224 550.337402,413.511353 
	C549.043091,414.805206 547.785706,416.136017 545.927979,417.866211 
	C542.319824,418.142334 539.294861,418.001862 536.269836,417.861389 
	C537.365662,416.623047 538.398987,415.322205 539.566101,414.155212 
	C621.459961,332.271027 703.364502,250.397552 785.540405,168.270325 
	C787.435303,169.400406 789.057861,170.783356 790.861206,172.410675 
z"/>
<path fill="#EEF1F1" opacity="1.000000" stroke="none" 
	d="
M793.110474,475.287048 
	C793.185608,467.338989 793.260681,459.390961 793.449707,451.040405 
	C795.197327,450.589752 796.830933,450.541595 798.857971,450.662537 
	C799.251343,450.831665 799.474487,451.262360 799.280151,451.858307 
	C799.305420,460.319855 799.524963,468.185455 799.744507,476.051056 
	C799.744507,476.051056 799.938477,476.102966 799.920044,476.201782 
	C799.896423,477.526581 799.891235,478.752594 799.898926,480.349304 
	C799.764893,487.166412 799.617920,493.612823 798.956482,500.569397 
	C796.857239,501.001373 795.272461,500.923248 793.687744,500.845093 
	C793.580078,494.775208 793.472412,488.705353 793.342651,481.773346 
	C793.250549,479.036499 793.180542,477.161774 793.110474,475.287048 
z"/>
<path fill="#01EC76" opacity="1.000000" stroke="none" 
	d="
M792.639526,475.357910 
	C793.180542,477.161774 793.250549,479.036499 793.214355,481.300110 
	C714.780640,481.663788 636.453308,481.638641 557.761414,481.175873 
	C559.058838,478.894989 560.720825,477.051727 562.382751,475.208435 
	C563.710266,475.292053 565.037781,475.448761 566.365295,475.448792 
	C641.633057,475.450348 716.900757,475.438934 792.639526,475.357910 
z"/>
<path fill="#E6E6E6" opacity="1.000000" stroke="none" 
	d="
M646.888733,521.948486 
	C645.537292,513.562927 647.969666,509.652802 655.721375,507.478577 
	C658.763611,506.625305 662.116455,506.501984 664.869141,505.127655 
	C666.679749,504.223755 668.933167,501.474884 668.684021,499.921814 
	C668.418640,498.267242 665.288147,495.712006 663.672241,495.893799 
	C659.146912,496.403015 654.757751,498.121399 649.092041,499.704346 
	C647.062317,498.342560 647.505981,496.197510 650.825012,493.953308 
	C656.178467,490.333557 661.963135,489.657471 668.014526,491.447479 
	C673.120667,492.957855 674.760010,497.062164 674.859131,501.913483 
	C674.974915,507.576385 674.883728,513.243286 674.910156,518.908386 
	C674.921692,521.391785 674.487061,524.103455 678.369202,524.284668 
	C678.963318,524.312378 679.977173,526.023804 679.884644,526.854980 
	C679.804382,527.575684 678.249695,528.834167 677.659119,528.677368 
	C674.741760,527.903137 671.928284,526.737488 668.236816,525.406555 
	C659.859436,531.810364 651.350403,530.999207 646.888733,521.948486 
M659.502136,524.777954 
	C667.603638,523.549561 670.797119,518.042542 668.575134,509.308563 
	C665.176147,510.066437 661.780518,510.801300 658.395996,511.584412 
	C654.880066,512.397888 652.127747,513.992859 652.151367,518.161316 
	C652.175903,522.490601 654.664185,524.416748 659.502136,524.777954 
z"/>
<path fill="#EEF1F1" opacity="1.000000" stroke="none" 
	d="
M562.526855,474.856384 
	C560.720825,477.051727 559.058838,478.894989 557.248657,481.058960 
	C554.759155,483.143921 552.391907,484.476318 549.516724,481.616272 
	C549.532227,479.670074 549.815735,477.927002 550.461975,475.772522 
	C563.033691,465.271973 563.869934,453.241760 558.047974,437.710083 
	C555.280579,430.327454 549.704834,422.926422 539.377014,423.949432 
	C537.414368,423.238495 535.451721,422.527557 533.249634,421.465393 
	C533.944763,420.117249 534.879272,419.120300 536.041809,417.992371 
	C539.294861,418.001862 542.319824,418.142334 545.741089,418.193726 
	C556.218872,421.506958 563.364929,428.028778 566.341614,438.334442 
	C569.940002,450.792145 571.214905,463.194733 562.526855,474.856384 
z"/>
<path fill="#DDDDDD" opacity="1.000000" stroke="none" 
	d="
M804.074951,547.664246 
	C801.306763,544.366638 798.880188,541.098938 796.446350,537.821472 
	C792.222534,539.816956 793.487122,547.816956 785.754211,547.583862 
	C787.666565,544.350525 788.909851,541.628540 790.711426,539.347473 
	C793.427429,535.908813 793.249817,532.926453 790.563110,529.605774 
	C789.035706,527.718018 788.005066,525.428406 786.648132,523.147278 
	C790.069031,521.181213 791.226868,523.480469 792.500977,525.607239 
	C793.685547,527.584717 794.928284,529.527405 796.135132,531.468872 
	C800.243530,529.217346 799.600586,522.370789 806.780396,522.199036 
	C804.811279,525.592468 803.513123,528.369690 801.719177,530.777649 
	C799.697021,533.491821 799.824036,535.759033 801.762634,538.405090 
	C803.324097,540.536377 804.607666,542.903564 805.724487,545.301270 
	C805.952087,545.789795 804.886108,546.880859 804.074951,547.664246 
z"/>
<path fill="#B6B9B9" opacity="1.000000" stroke="none" 
	d="
M793.595520,501.150330 
	C795.272461,500.923248 796.857239,501.001373 798.838684,501.022766 
	C797.324707,501.129211 795.414001,501.292389 793.595520,501.150330 
z"/>
<path fill="#C1C2C2" opacity="1.000000" stroke="none" 
	d="
M455.336792,159.296509 
	C462.855896,159.230698 470.389191,159.536438 478.053619,160.215790 
	C472.151215,160.492828 466.116699,160.433838 460.084839,160.274261 
	C458.502655,160.232391 456.928741,159.878601 455.336792,159.296509 
z"/>
<path fill="#C1C2C2" opacity="1.000000" stroke="none" 
	d="
M477.735474,153.634811 
	C476.793152,154.002182 475.393219,154.868744 473.967438,154.913681 
	C468.061310,155.099854 462.147400,155.037628 455.789612,155.075043 
	C456.722290,154.655762 458.093201,153.893799 459.482605,153.858368 
	C465.407410,153.707245 471.337677,153.770889 477.735474,153.634811 
z"/>
<path fill="#E8E8E8" opacity="1.000000" stroke="none" 
	d="
M622.482788,225.548035 
	C619.925537,228.805099 617.716980,232.293304 615.475525,235.833420 
	C612.187073,234.237289 611.428406,232.457550 613.404724,229.111221 
	C615.886536,224.909027 617.627808,220.269501 619.983154,215.182709 
	C631.031616,226.352081 641.378296,236.812027 652.439087,247.993866 
	C655.401306,244.231735 657.671692,241.348236 660.152222,238.197845 
	C661.890991,239.799347 662.926941,240.753494 663.644836,241.414703 
	C656.263550,248.786804 649.116699,255.924805 641.679321,263.352966 
	C641.180298,262.887787 640.145752,261.923309 638.432800,260.326447 
	C641.979858,257.537598 645.238464,254.975601 648.988525,252.027161 
	C639.645386,242.651535 631.238403,234.215363 622.482788,225.548035 
z"/>
<path fill="#E8E8E8" opacity="1.000000" stroke="none" 
	d="
M560.612671,334.316895 
	C553.898499,331.681732 549.248718,327.261292 546.485901,321.092865 
	C543.617432,314.688629 544.769104,308.660797 549.433411,303.465393 
	C553.800232,298.601349 558.931213,295.680298 566.121094,298.109070 
	C565.924988,299.669678 565.746521,301.089661 565.523743,302.861938 
	C563.289795,302.861938 561.291870,302.560242 559.418823,302.915924 
	C552.568481,304.216858 548.272217,312.268860 551.719788,318.383240 
	C553.760376,322.002258 557.067627,325.152100 560.412109,327.723694 
	C563.924988,330.424805 568.222107,330.570801 572.119873,327.914856 
	C576.202576,325.132843 578.135681,321.337036 577.053711,316.306183 
	C576.885620,315.524963 576.763306,314.733887 576.624390,313.972351 
	C579.859497,311.733215 581.421326,312.398193 582.320190,316.086121 
	C584.878662,326.582855 572.304626,338.501007 560.612671,334.316895 
z"/>
<path fill="#DDDDDD" opacity="1.000000" stroke="none" 
	d="
M548.277466,149.416367 
	C548.660400,150.241806 548.989197,151.102493 548.744202,151.744141 
	C545.251831,160.891937 541.790466,170.054459 538.088318,179.118134 
	C536.000977,184.228287 531.911377,186.373795 527.454956,185.066879 
	C526.655151,184.832321 526.042053,183.961395 525.342712,183.384277 
	C526.162781,182.806946 526.934692,181.819778 527.810425,181.717041 
	C534.901794,180.885056 536.743225,177.829330 534.082153,170.987686 
	C531.387024,164.058517 528.674194,157.136230 525.969055,150.210922 
	C526.359741,149.812943 526.750427,149.414963 527.141113,149.016983 
	C528.414856,150.075653 530.260498,150.881149 530.861145,152.237808 
	C533.170898,157.455154 535.081848,162.849030 537.141602,168.177048 
	C537.623474,168.178406 538.105408,168.179764 538.587280,168.181122 
	C540.462219,163.169189 542.182617,158.090424 544.304016,153.185074 
	C544.961609,151.664474 546.708374,150.614960 548.277466,149.416367 
z"/>
<path fill="#ECECEC" opacity="1.000000" stroke="none" 
	d="
M596.375671,288.384277 
	C593.942261,291.419189 592.036377,291.616089 590.619202,288.432526 
	C597.433533,281.651306 604.089600,275.027588 610.948486,268.202026 
	C611.491943,268.701172 612.427917,269.560791 613.905212,270.917603 
	C608.026428,276.774780 602.325562,282.454651 596.375671,288.384277 
z"/>
<path fill="#ECECEC" opacity="1.000000" stroke="none" 
	d="
M602.666809,262.089355 
	C596.237488,268.526184 590.035706,274.729126 583.517212,281.248840 
	C582.373535,280.285980 581.332275,279.409302 580.625793,278.814514 
	C587.497803,271.958038 594.144226,265.326691 601.309692,258.177399 
	C601.700378,259.084167 602.297424,260.469818 602.666809,262.089355 
z"/>
<path fill="#010605" opacity="0.000000" stroke="none" 
	d="
M539.224915,424.272644 
	C549.704834,422.926422 555.280579,430.327454 558.047974,437.710083 
	C563.869934,453.241760 563.033691,465.271973 550.471497,475.429199 
	C530.215759,475.449158 510.313202,475.401031 489.927643,475.187744 
	C492.727570,471.529602 495.934021,467.960938 499.306824,464.557068 
	C512.533630,451.208435 525.812927,437.911804 539.224915,424.272644 
z"/>
<path fill="#ECECEC" opacity="1.000000" stroke="none" 
	d="
M811.936279,358.737335 
	C811.936279,342.807739 811.936279,327.348236 811.936279,311.577911 
	C813.940063,311.577911 815.482483,311.577911 817.442505,311.577911 
	C817.442505,318.124695 817.442505,324.398956 817.442505,331.254150 
	C818.529236,330.684753 819.150818,330.521484 819.542847,330.128937 
	C824.316895,325.347992 830.009094,324.445740 836.142090,326.578583 
	C841.994263,328.613739 844.636658,333.439911 845.261108,339.228058 
	C845.684021,343.147675 845.835815,347.255096 845.147766,351.106842 
	C842.884583,363.774872 830.339722,368.404449 820.036133,360.618439 
	C819.525879,360.232849 819.006592,359.859192 819.117554,359.940948 
	C817.246765,361.362671 815.744995,362.503967 814.243225,363.645264 
	C813.474243,362.165955 812.705261,360.686707 811.936279,358.737335 
M817.562317,346.356964 
	C817.690674,347.345856 817.774475,348.342896 817.954529,349.322296 
	C819.142761,355.783966 823.057312,359.262115 829.078186,359.234161 
	C835.030945,359.206512 838.673096,356.139984 839.527832,349.420380 
	C839.999023,345.716614 839.713318,341.777649 838.992798,338.096558 
	C838.102600,333.549072 834.822876,331.040436 830.128967,330.700256 
	C825.200806,330.343109 821.081665,331.962280 819.175720,336.724884 
	C818.095398,339.424469 818.021912,342.526947 817.562317,346.356964 
z"/>
<path fill="#B6B9B9" opacity="1.000000" stroke="none" 
	d="
M799.818359,475.585754 
	C799.524963,468.185455 799.305420,460.319855 799.275452,451.984253 
	C799.607422,459.383026 799.749817,467.251740 799.818359,475.585754 
z"/>
<path fill="#ECECEC" opacity="1.000000" stroke="none" 
	d="
M586.423096,395.392761 
	C597.349854,389.551331 606.769287,393.194672 610.272888,404.660370 
	C613.360962,414.765991 613.208252,425.054443 610.131897,435.151337 
	C607.863953,442.594910 603.079529,446.088196 595.931885,446.270020 
	C588.825806,446.450806 583.731812,443.112671 581.261719,435.799927 
	C577.587036,424.921204 577.700500,413.835236 581.210938,402.948090 
	C582.079712,400.253815 584.454468,398.045074 586.423096,395.392761 
M594.551636,421.329254 
	C591.468445,421.329254 588.385193,421.329254 584.096130,421.329254 
	C585.487793,427.110077 585.977112,432.165985 587.937805,436.566223 
	C590.754089,442.886414 599.800720,443.113373 602.758972,436.889404 
	C604.927673,432.326660 605.475769,426.993683 606.917847,421.329285 
	C602.130310,421.329285 598.825439,421.329285 594.551636,421.329254 
M601.320862,416.204010 
	C602.771301,416.115082 604.221680,416.026123 606.733154,415.872101 
	C605.394714,410.933777 604.821106,406.231445 602.865234,402.199646 
	C599.835693,395.954651 590.999023,396.001984 588.025879,402.277863 
	C586.120239,406.300507 585.603394,410.981079 584.246399,416.204071 
	C590.466003,416.204071 595.412659,416.204071 601.320862,416.204010 
z"/>
<path fill="#0D0D0D" opacity="0.000000" stroke="none" 
	d="
M659.108398,524.773987 
	C654.664185,524.416748 652.175903,522.490601 652.151367,518.161316 
	C652.127747,513.992859 654.880066,512.397888 658.395996,511.584412 
	C661.780518,510.801300 665.176147,510.066437 668.575134,509.308563 
	C670.797119,518.042542 667.603638,523.549561 659.108398,524.773987 
z"/>
<path fill="#080808" opacity="0.000000" stroke="none" 
	d="
M817.528625,345.902466 
	C818.021912,342.526947 818.095398,339.424469 819.175720,336.724884 
	C821.081665,331.962280 825.200806,330.343109 830.128967,330.700256 
	C834.822876,331.040436 838.102600,333.549072 838.992798,338.096558 
	C839.713318,341.777649 839.999023,345.716614 839.527832,349.420380 
	C838.673096,356.139984 835.030945,359.206512 829.078186,359.234161 
	C823.057312,359.262115 819.142761,355.783966 817.954529,349.322296 
	C817.774475,348.342896 817.690674,347.345856 817.528625,345.902466 
z"/>
<path fill="#0D0D0D" opacity="0.000000" stroke="none" 
	d="
M595.036072,421.329285 
	C598.825439,421.329285 602.130310,421.329285 606.917847,421.329285 
	C605.475769,426.993683 604.927673,432.326660 602.758972,436.889404 
	C599.800720,443.113373 590.754089,442.886414 587.937805,436.566223 
	C585.977112,432.165985 585.487793,427.110077 584.096130,421.329254 
	C588.385193,421.329254 591.468445,421.329254 595.036072,421.329285 
z"/>
<path fill="#0A0A0A" opacity="0.000000" stroke="none" 
	d="
M600.840088,416.204041 
	C595.412659,416.204071 590.466003,416.204071 584.246399,416.204071 
	C585.603394,410.981079 586.120239,406.300507 588.025879,402.277863 
	C590.999023,396.001984 599.835693,395.954651 602.865234,402.199646 
	C604.821106,406.231445 605.394714,410.933777 606.733154,415.872101 
	C604.221680,416.026123 602.771301,416.115082 600.840088,416.204041 
z"/>
</svg>