<svg version="1.1" id="Layer_1" xmlns="http://www.w3.org/2000/svg" xmlns:xlink="http://www.w3.org/1999/xlink" x="0px" y="0px"
	 width="100%" viewBox="0 0 1080 767" enable-background="new 0 0 1080 767" xml:space="preserve">
<path fill="#000000" opacity="0.000000" stroke="none" 
	d="
M788.000000,768.000000 
	C525.333374,768.000000 263.166687,768.000000 1.000035,768.000000 
	C1.000023,512.333374 1.000023,256.666718 1.000012,1.000070 
	C360.999969,1.000046 720.999939,1.000046 1081.000000,1.000023 
	C1081.000000,256.666595 1081.000000,512.333191 1081.000000,767.999878 
	C983.500000,768.000000 886.000000,768.000000 788.000000,768.000000 
M687.499512,604.382751 
	C803.446838,604.382751 919.394165,604.382751 1034.318970,604.382751 
	C1036.154541,600.492249 1037.674805,597.270142 1039.475098,593.454407 
	C905.348022,432.157440 770.570496,270.078278 635.797485,108.004501 
	C634.083923,109.401543 632.808411,110.441406 631.397400,111.591743 
	C629.949524,110.223991 628.570374,108.921257 627.037048,107.472809 
	C432.127594,269.617859 237.432770,431.584320 43.307976,593.076599 
	C44.750008,597.017944 45.957989,600.319519 47.444477,604.382385 
	C259.950165,604.382385 473.224823,604.382385 687.499512,604.382751 
M894.848022,301.155334 
	C894.854004,298.823761 894.986511,296.484467 894.845154,294.161835 
	C893.989685,280.102478 886.785828,270.242432 874.716248,267.685455 
	C860.798523,264.736938 849.598572,268.977631 843.518127,281.209412 
	C843.348511,281.550629 842.837280,281.722015 841.883911,282.400757 
	C841.622559,273.005829 841.916565,264.321503 845.992188,256.241089 
	C849.700317,248.889420 855.887146,245.370972 864.053833,244.915146 
	C871.961670,244.473740 878.681946,247.073318 884.577759,253.142578 
	C886.657410,250.228470 888.350891,247.855392 890.382141,245.009048 
	C887.903442,243.053848 885.762329,240.922379 883.238342,239.445221 
	C865.735779,229.202301 842.434814,236.639145 835.185364,255.448853 
	C828.397705,273.060333 829.013855,291.140015 836.063721,308.583069 
	C841.643250,322.388153 853.749878,329.069855 867.909119,327.490295 
	C883.672363,325.731781 891.527161,318.285522 894.848022,301.155334 
M322.521820,319.010834 
	C328.684479,312.767822 329.933929,305.029022 328.907471,296.797668 
	C327.681030,286.962616 320.942780,281.534454 311.879700,277.643097 
	C313.689392,276.198975 314.951294,275.191895 316.213257,274.184906 
	C322.727875,268.986359 325.686768,262.377960 324.357056,253.991455 
	C322.998932,245.425720 318.176361,239.356445 310.008667,237.158371 
	C304.220306,235.600632 297.815735,235.012619 291.868774,235.662430 
	C282.032837,236.737183 274.635376,242.107178 272.348083,252.290161 
	C270.096283,262.315247 273.721497,270.274841 282.409821,275.829468 
	C283.090729,276.264801 283.959961,276.405579 285.459229,276.938110 
	C281.935028,278.879547 280.002747,279.830322 278.184296,280.963715 
	C263.207214,290.298828 263.332764,313.120026 278.251465,322.538696 
	C288.666077,329.113800 312.305054,329.419037 322.521820,319.010834 
M1070.988281,707.190002 
	C1072.545654,701.073547 1072.765625,695.019409 1070.023560,689.142395 
	C1067.246460,683.190063 1061.799072,680.537842 1055.946167,678.496033 
	C1056.367676,677.799744 1056.468384,677.422058 1056.711914,677.261719 
	C1065.488647,671.485107 1068.201050,665.686401 1066.218262,656.880188 
	C1064.371948,648.680908 1058.959229,643.530396 1049.049683,642.904419 
	C1037.482910,642.173645 1025.834473,642.733704 1014.036377,642.733704 
	C1014.036377,668.987427 1014.036377,695.384827 1014.036377,721.925964 
	C1026.263550,721.925964 1038.257446,722.268188 1050.221436,721.816650 
	C1059.643433,721.461121 1067.264282,717.524536 1070.988281,707.190002 
M33.708591,654.051514 
	C26.875822,673.569336 20.043049,693.087158 13.147209,712.785156 
	C16.742744,712.785156 19.844070,712.785156 23.047878,712.785156 
	C25.577608,705.468140 28.049458,698.318542 30.527056,691.152344 
	C40.967003,691.152344 50.950493,691.251953 60.929600,691.086670 
	C63.640377,691.041809 64.643654,692.073364 65.393539,694.520447 
	C67.278320,700.671326 69.487312,706.722717 71.564217,712.807861 
	C74.928680,712.807861 78.021828,712.807861 81.450157,712.807861 
	C80.983292,711.276917 80.643227,710.014404 80.215805,708.782166 
	C72.437424,686.358093 64.648521,663.937622 56.861958,641.516418 
	C53.949078,633.128845 53.948048,633.244690 44.936470,633.153259 
	C42.032253,633.123779 40.485638,633.770508 39.609856,636.823425 
	C38.010780,642.397827 35.861435,647.814392 33.708591,654.051514 
M679.411987,93.234467 
	C698.529541,97.318100 713.642822,89.121399 717.766785,72.148651 
	C715.523254,71.046059 713.220642,69.914482 710.674500,68.663185 
	C708.144287,75.169098 705.291565,80.696404 698.987061,83.525253 
	C684.708130,89.932266 668.556091,82.869614 664.046570,67.939285 
	C661.089417,58.148491 661.123901,48.195797 664.050049,38.400124 
	C667.450562,27.016279 675.896484,21.029150 687.776672,20.757498 
	C697.780029,20.528759 705.610168,23.988363 710.234680,33.797710 
	C712.918396,32.058475 715.063049,30.668562 718.419006,28.493618 
	C714.453613,24.300615 711.544067,19.849197 707.471741,17.156101 
	C689.907043,5.540301 664.297302,13.263108 655.916626,32.538853 
	C650.518982,44.953468 650.444824,57.837742 654.627686,70.579033 
	C658.468323,82.277893 666.388062,90.054489 679.411987,93.234467 
z"/>
<path fill="#F9F9F9" opacity="1.000000" stroke="none" 
	d="
M686.999512,604.382568 
	C473.224823,604.382385 259.950165,604.382385 47.444477,604.382385 
	C45.957989,600.319519 44.750008,597.017944 43.307976,593.076599 
	C237.432770,431.584320 432.127594,269.617859 627.037048,107.472809 
	C628.570374,108.921257 629.949524,110.223991 631.397400,111.591743 
	C632.808411,110.441406 634.083923,109.401543 635.797485,108.004501 
	C770.570496,270.078278 905.348022,432.157440 1039.475098,593.454407 
	C1037.674805,597.270142 1036.154541,600.492249 1034.318970,604.382751 
	C919.394165,604.382751 803.446838,604.382751 686.999512,604.382568 
M375.177521,332.643188 
	C271.540771,418.869995 167.904007,505.096802 63.396069,592.048462 
	C383.628174,592.048462 702.712830,592.048462 1022.592834,592.048462 
	C904.654053,450.218353 787.188721,308.957550 669.659973,167.620499 
	C661.098511,174.709457 653.038696,181.383057 644.757507,188.239960 
	C642.171509,185.110046 639.783691,182.219971 637.138367,179.018219 
	C645.516357,172.010452 653.610413,165.240189 661.905151,158.302063 
	C651.319763,145.578354 640.927856,133.087280 630.360718,120.385529 
	C608.889771,138.247589 587.795288,155.796463 566.542419,173.477081 
	C568.992249,176.548691 571.258301,179.389923 573.697937,182.448807 
	C570.628235,185.027435 567.723511,187.467514 564.652771,190.047058 
	C562.139160,187.113724 559.792786,184.375504 557.160583,181.303802 
	C496.549744,231.700287 436.130432,281.937531 375.177521,332.643188 
z"/>
<path fill="#F8F8F8" opacity="1.000000" stroke="none" 
	d="
M894.798218,301.601105 
	C891.527161,318.285522 883.672363,325.731781 867.909119,327.490295 
	C853.749878,329.069855 841.643250,322.388153 836.063721,308.583069 
	C829.013855,291.140015 828.397705,273.060333 835.185364,255.448853 
	C842.434814,236.639145 865.735779,229.202301 883.238342,239.445221 
	C885.762329,240.922379 887.903442,243.053848 890.382141,245.009048 
	C888.350891,247.855392 886.657410,250.228470 884.577759,253.142578 
	C878.681946,247.073318 871.961670,244.473740 864.053833,244.915146 
	C855.887146,245.370972 849.700317,248.889420 845.992188,256.241089 
	C841.916565,264.321503 841.622559,273.005829 841.883911,282.400757 
	C842.837280,281.722015 843.348511,281.550629 843.518127,281.209412 
	C849.598572,268.977631 860.798523,264.736938 874.716248,267.685455 
	C886.785828,270.242432 893.989685,280.102478 894.845154,294.161835 
	C894.986511,296.484467 894.854004,298.823761 894.798218,301.601105 
M882.378052,306.528717 
	C882.592834,301.120270 883.525574,295.619446 882.844238,290.326324 
	C881.952759,283.401093 877.638672,278.633636 870.558533,276.865479 
	C854.044434,272.741272 842.132324,285.040283 845.711609,302.521881 
	C847.544617,311.474731 853.087097,316.805511 861.695068,317.894928 
	C871.227539,319.101379 878.040833,315.558655 882.378052,306.528717 
z"/>
<path fill="#F9F9F9" opacity="1.000000" stroke="none" 
	d="
M322.267456,319.264648 
	C312.305054,329.419037 288.666077,329.113800 278.251465,322.538696 
	C263.332764,313.120026 263.207214,290.298828 278.184296,280.963715 
	C280.002747,279.830322 281.935028,278.879547 285.459229,276.938110 
	C283.959961,276.405579 283.090729,276.264801 282.409821,275.829468 
	C273.721497,270.274841 270.096283,262.315247 272.348083,252.290161 
	C274.635376,242.107178 282.032837,236.737183 291.868774,235.662430 
	C297.815735,235.012619 304.220306,235.600632 310.008667,237.158371 
	C318.176361,239.356445 322.998932,245.425720 324.357056,253.991455 
	C325.686768,262.377960 322.727875,268.986359 316.213257,274.184906 
	C314.951294,275.191895 313.689392,276.198975 311.879700,277.643097 
	C320.942780,281.534454 327.681030,286.962616 328.907471,296.797668 
	C329.933929,305.029022 328.684479,312.767822 322.267456,319.264648 
M318.058197,301.358612 
	C317.785950,289.468445 311.189178,283.331635 298.511169,283.174652 
	C286.225586,283.022461 278.741882,289.102234 278.190460,299.683136 
	C277.653381,309.988617 284.046722,316.850281 295.154694,317.890137 
	C308.525726,319.141785 316.469574,313.701141 318.058197,301.358612 
M282.696655,263.429565 
	C285.746765,271.966827 293.664795,275.742401 303.241028,273.225739 
	C310.111389,271.420166 313.990448,266.604279 314.191406,259.630768 
	C314.408478,252.099960 311.001587,247.019379 304.220490,244.761566 
	C290.935974,240.338379 280.730621,248.724289 282.696655,263.429565 
z"/>
<path fill="#F8F8F8" opacity="1.000000" stroke="none" 
	d="
M1070.895508,707.583252 
	C1067.264282,717.524536 1059.643433,721.461121 1050.221436,721.816650 
	C1038.257446,722.268188 1026.263550,721.925964 1014.036377,721.925964 
	C1014.036377,695.384827 1014.036377,668.987427 1014.036377,642.733704 
	C1025.834473,642.733704 1037.482910,642.173645 1049.049683,642.904419 
	C1058.959229,643.530396 1064.371948,648.680908 1066.218262,656.880188 
	C1068.201050,665.686401 1065.488647,671.485107 1056.711914,677.261719 
	C1056.468384,677.422058 1056.367676,677.799744 1055.946167,678.496033 
	C1061.799072,680.537842 1067.246460,683.190063 1070.023560,689.142395 
	C1072.765625,695.019409 1072.545654,701.073547 1070.895508,707.583252 
M1061.525146,692.582214 
	C1059.839722,687.656372 1056.118042,684.538269 1051.254517,684.261475 
	C1042.031616,683.736633 1032.757568,684.109558 1023.484802,684.109558 
	C1023.484802,694.179138 1023.484802,704.065247 1023.484802,714.056152 
	C1031.980469,714.056152 1040.144165,714.283691 1048.289551,713.995667 
	C1057.416138,713.672974 1062.273682,708.428711 1062.361328,699.327332 
	C1062.380371,697.342407 1062.016724,695.353821 1061.525146,692.582214 
M1037.423340,675.837769 
	C1040.892212,675.625793 1044.430420,675.774048 1047.815186,675.124329 
	C1054.188599,673.900879 1057.327393,669.415588 1057.241455,662.475647 
	C1057.156372,655.600586 1054.287842,651.346069 1047.607178,650.759521 
	C1039.612183,650.057617 1031.508423,650.593933 1023.383667,650.593933 
	C1023.383667,658.931213 1023.383667,667.156677 1023.383667,675.837769 
	C1027.895508,675.837769 1032.172852,675.837769 1037.423340,675.837769 
z"/>
<path fill="#F7F7F7" opacity="1.000000" stroke="none" 
	d="
M33.825104,653.674133 
	C35.861435,647.814392 38.010780,642.397827 39.609856,636.823425 
	C40.485638,633.770508 42.032253,633.123779 44.936470,633.153259 
	C53.948048,633.244690 53.949078,633.128845 56.861958,641.516418 
	C64.648521,663.937622 72.437424,686.358093 80.215805,708.782166 
	C80.643227,710.014404 80.983292,711.276917 81.450157,712.807861 
	C78.021828,712.807861 74.928680,712.807861 71.564217,712.807861 
	C69.487312,706.722717 67.278320,700.671326 65.393539,694.520447 
	C64.643654,692.073364 63.640377,691.041809 60.929600,691.086670 
	C50.950493,691.251953 40.967003,691.152344 30.527056,691.152344 
	C28.049458,698.318542 25.577608,705.468140 23.047878,712.785156 
	C19.844070,712.785156 16.742744,712.785156 13.147209,712.785156 
	C20.043049,693.087158 26.875822,673.569336 33.825104,653.674133 
M46.502132,683.174500 
	C51.295269,683.174500 56.088406,683.174500 61.516438,683.174500 
	C56.864891,669.425232 52.389450,656.196533 47.914005,642.967773 
	C47.530621,642.949524 47.147240,642.931274 46.763855,642.913025 
	C42.275856,656.175598 37.787853,669.438110 33.139523,683.174500 
	C37.888817,683.174500 41.697979,683.174500 46.502132,683.174500 
z"/>
<path fill="#F7F7F7" opacity="1.000000" stroke="none" 
	d="
M678.996216,93.151566 
	C666.388062,90.054489 658.468323,82.277893 654.627686,70.579033 
	C650.444824,57.837742 650.518982,44.953468 655.916626,32.538853 
	C664.297302,13.263108 689.907043,5.540301 707.471741,17.156101 
	C711.544067,19.849197 714.453613,24.300615 718.419006,28.493618 
	C715.063049,30.668562 712.918396,32.058475 710.234680,33.797710 
	C705.610168,23.988363 697.780029,20.528759 687.776672,20.757498 
	C675.896484,21.029150 667.450562,27.016279 664.050049,38.400124 
	C661.123901,48.195797 661.089417,58.148491 664.046570,67.939285 
	C668.556091,82.869614 684.708130,89.932266 698.987061,83.525253 
	C705.291565,80.696404 708.144287,75.169098 710.674500,68.663185 
	C713.220642,69.914482 715.523254,71.046059 717.766785,72.148651 
	C713.642822,89.121399 698.529541,97.318100 678.996216,93.151566 
z"/>
<path fill="#000000" opacity="0.000000" stroke="none" 
	d="
M375.444305,332.408997 
	C436.130432,281.937531 496.549744,231.700287 557.160583,181.303802 
	C559.792786,184.375504 562.139160,187.113724 564.652771,190.047058 
	C567.723511,187.467514 570.628235,185.027435 573.697937,182.448807 
	C571.258301,179.389923 568.992249,176.548691 566.542419,173.477081 
	C587.795288,155.796463 608.889771,138.247589 630.360718,120.385529 
	C640.927856,133.087280 651.319763,145.578354 661.905151,158.302063 
	C653.610413,165.240189 645.516357,172.010452 637.138367,179.018219 
	C639.783691,182.219971 642.171509,185.110046 644.757507,188.239960 
	C653.038696,181.383057 661.098511,174.709457 669.659973,167.620499 
	C787.188721,308.957550 904.654053,450.218353 1022.592834,592.048462 
	C702.712830,592.048462 383.628174,592.048462 63.396069,592.048462 
	C167.904007,505.096802 271.540771,418.869995 375.444305,332.408997 
M635.043091,195.567230 
	C632.660889,192.641647 630.278625,189.716049 627.849976,186.733398 
	C618.442810,194.571625 609.433594,202.078247 600.220154,209.755005 
	C602.947693,213.052307 605.329773,215.932007 607.918884,219.061951 
	C617.211548,211.241257 626.092712,203.766937 635.043091,195.567230 
M583.442993,194.049332 
	C582.302246,193.671875 580.706543,192.621811 580.098999,193.032730 
	C577.380493,194.871185 574.943665,197.126038 572.289062,199.326813 
	C580.074829,208.692932 587.615540,217.764252 595.277161,226.981064 
	C598.415283,224.354630 601.304932,221.936096 604.494934,219.266235 
	C597.516174,210.901382 590.709534,202.742752 583.442993,194.049332 
z"/>
<path fill="#030303" opacity="0.000000" stroke="none" 
	d="
M882.247375,306.902527 
	C878.040833,315.558655 871.227539,319.101379 861.695068,317.894928 
	C853.087097,316.805511 847.544617,311.474731 845.711609,302.521881 
	C842.132324,285.040283 854.044434,272.741272 870.558533,276.865479 
	C877.638672,278.633636 881.952759,283.401093 882.844238,290.326324 
	C883.525574,295.619446 882.592834,301.120270 882.247375,306.902527 
z"/>
<path fill="#040404" opacity="0.000000" stroke="none" 
	d="
M318.047760,301.788269 
	C316.469574,313.701141 308.525726,319.141785 295.154694,317.890137 
	C284.046722,316.850281 277.653381,309.988617 278.190460,299.683136 
	C278.741882,289.102234 286.225586,283.022461 298.511169,283.174652 
	C311.189178,283.331635 317.785950,289.468445 318.047760,301.788269 
z"/>
<path fill="#030303" opacity="0.000000" stroke="none" 
	d="
M282.570374,263.042603 
	C280.730621,248.724289 290.935974,240.338379 304.220490,244.761566 
	C311.001587,247.019379 314.408478,252.099960 314.191406,259.630768 
	C313.990448,266.604279 310.111389,271.420166 303.241028,273.225739 
	C293.664795,275.742401 285.746765,271.966827 282.570374,263.042603 
z"/>
<path fill="#020202" opacity="0.000000" stroke="none" 
	d="
M1061.677246,692.974548 
	C1062.016724,695.353821 1062.380371,697.342407 1062.361328,699.327332 
	C1062.273682,708.428711 1057.416138,713.672974 1048.289551,713.995667 
	C1040.144165,714.283691 1031.980469,714.056152 1023.484802,714.056152 
	C1023.484802,704.065247 1023.484802,694.179138 1023.484802,684.109558 
	C1032.757568,684.109558 1042.031616,683.736633 1051.254517,684.261475 
	C1056.118042,684.538269 1059.839722,687.656372 1061.677246,692.974548 
z"/>
<path fill="#060606" opacity="0.000000" stroke="none" 
	d="
M1036.936768,675.837769 
	C1032.172852,675.837769 1027.895508,675.837769 1023.383667,675.837769 
	C1023.383667,667.156677 1023.383667,658.931213 1023.383667,650.593933 
	C1031.508423,650.593933 1039.612183,650.057617 1047.607178,650.759521 
	C1054.287842,651.346069 1057.156372,655.600586 1057.241455,662.475647 
	C1057.327393,669.415588 1054.188599,673.900879 1047.815186,675.124329 
	C1044.430420,675.774048 1040.892212,675.625793 1036.936768,675.837769 
z"/>
<path fill="#050505" opacity="0.000000" stroke="none" 
	d="
M46.004639,683.174500 
	C41.697979,683.174500 37.888817,683.174500 33.139523,683.174500 
	C37.787853,669.438110 42.275856,656.175598 46.763855,642.913025 
	C47.147240,642.931274 47.530621,642.949524 47.914005,642.967773 
	C52.389450,656.196533 56.864891,669.425232 61.516438,683.174500 
	C56.088406,683.174500 51.295269,683.174500 46.004639,683.174500 
z"/>
<path fill="#F9F9F9" opacity="1.000000" stroke="none" 
	d="
M635.008423,195.929932 
	C626.092712,203.766937 617.211548,211.241257 607.918884,219.061951 
	C605.329773,215.932007 602.947693,213.052307 600.220154,209.755005 
	C609.433594,202.078247 618.442810,194.571625 627.849976,186.733398 
	C630.278625,189.716049 632.660889,192.641647 635.008423,195.929932 
z"/>
<path fill="#F9F9F9" opacity="1.000000" stroke="none" 
	d="
M583.672913,194.316711 
	C590.709534,202.742752 597.516174,210.901382 604.494934,219.266235 
	C601.304932,221.936096 598.415283,224.354630 595.277161,226.981064 
	C587.615540,217.764252 580.074829,208.692932 572.289062,199.326813 
	C574.943665,197.126038 577.380493,194.871185 580.098999,193.032730 
	C580.706543,192.621811 582.302246,193.671875 583.672913,194.316711 
z"/>
</svg>