<svg version="1.1" id="Layer_1" xmlns="http://www.w3.org/2000/svg" xmlns:xlink="http://www.w3.org/1999/xlink" x="0px" y="0px"
	 width="100%" viewBox="0 0 983 983" enable-background="new 0 0 983 983" xml:space="preserve">
<path fill="#000000" opacity="0.000000" stroke="none" 
	d="
M517.000000,984.000000 
	C344.666656,984.000000 172.833328,984.000000 1.000000,984.000000 
	C1.000000,656.333313 1.000000,328.666656 1.000000,1.000000 
	C328.666656,1.000000 656.333313,1.000000 984.000000,1.000000 
	C984.000000,328.666656 984.000000,656.333313 984.000000,984.000000 
	C828.500000,984.000000 673.000000,984.000000 517.000000,984.000000 
M715.499268,836.192566 
	C756.125916,836.192566 796.752563,836.192566 837.472351,836.192566 
	C837.757019,833.607117 837.984436,831.541260 838.214661,829.450134 
	C840.544189,829.240723 842.496094,829.065247 844.615234,828.874756 
	C844.615234,594.197266 844.615234,359.770782 844.615234,126.320503 
	C840.163879,124.380478 836.264282,122.680923 831.864685,120.763443 
	C585.230225,354.746460 337.955994,589.336426 91.785393,822.879395 
	C93.655281,828.059448 95.044907,831.909058 96.591125,836.192505 
	C302.239258,836.192505 508.369232,836.192505 715.499268,836.192566 
M861.149231,899.499939 
	C861.149231,912.733276 861.149231,925.966614 861.149231,939.581482 
	C866.452209,939.581482 871.088135,939.628723 875.722778,939.571472 
	C885.036316,939.456482 894.407471,939.885498 903.648071,938.989197 
	C916.160034,937.775574 923.005005,930.403442 924.635925,918.039429 
	C926.208923,906.114685 921.245911,897.875488 909.589111,893.021179 
	C908.862549,892.718567 908.196106,892.271423 907.014587,891.625183 
	C907.762268,891.124817 908.174988,890.852844 908.583435,890.574524 
	C917.558411,884.458557 920.483276,877.939636 918.406982,868.681580 
	C916.414062,859.795044 910.340210,853.921692 899.930664,853.294128 
	C887.198059,852.526367 874.383789,853.111206 861.149231,853.111206 
	C861.149231,868.290833 861.149231,883.395325 861.149231,899.499939 
M514.500793,961.918274 
	C506.434845,961.918274 498.368896,961.918274 490.146179,961.918274 
	C490.213654,955.498840 493.369019,951.615845 497.295502,948.470581 
	C504.959595,942.331421 513.230896,936.908875 520.573242,930.422546 
	C526.356567,925.313599 532.270447,919.724304 536.103394,913.166016 
	C544.135193,899.423462 538.624878,881.225952 525.110229,875.616882 
	C511.711517,870.055786 498.306885,870.725220 486.208923,879.516113 
	C482.586731,882.148071 479.783447,885.906982 476.762299,888.989136 
	C479.701904,892.219910 481.901917,894.637817 483.974640,896.915894 
	C484.783783,896.530212 485.163025,896.459106 485.366638,896.231262 
	C485.914825,895.617371 486.420349,894.958679 486.886108,894.278870 
	C492.208618,886.510559 499.671295,882.900635 508.986420,882.850342 
	C523.961731,882.769409 531.666687,893.634338 526.220886,907.700378 
	C524.824402,911.307373 522.354797,914.733765 519.649109,917.540222 
	C516.209045,921.108215 512.085632,924.036072 508.151367,927.104736 
	C501.195099,932.530334 494.011261,937.673523 487.193390,943.264954 
	C478.263763,950.588257 477.029633,960.560547 478.024872,971.286804 
	C498.618622,971.286804 518.858398,971.286804 539.218262,971.286804 
	C539.218262,968.090881 539.218262,965.198669 539.218262,961.918335 
	C531.092224,961.918335 523.296509,961.918335 514.500793,961.918274 
M929.348511,514.584106 
	C931.474487,514.584106 933.600464,514.584106 935.774841,514.584106 
	C935.774841,511.090240 935.774841,508.160736 935.774841,504.629089 
	C919.282898,504.629089 903.071106,504.629089 886.779785,504.629089 
	C886.645264,497.986389 890.416809,494.113434 894.578979,490.779968 
	C902.506531,484.430878 911.110352,478.871674 918.649353,472.110291 
	C924.247437,467.089569 929.917908,461.354187 933.261841,454.771637 
	C941.698608,438.163513 932.346313,419.335968 914.469604,416.381805 
	C907.755798,415.272278 900.458435,415.762482 893.739197,417.096069 
	C884.926575,418.845123 878.396851,424.656952 873.360046,432.793030 
	C875.921448,435.233093 878.376099,437.571533 880.748108,439.831116 
	C881.395386,439.485504 881.749573,439.392975 881.956482,439.166168 
	C882.401733,438.677826 882.795593,438.136963 883.168152,437.588776 
	C889.824829,427.792542 899.283020,424.657166 910.594421,426.260071 
	C918.846069,427.429382 923.303162,432.328766 924.054688,440.557404 
	C924.626770,446.821350 923.275085,452.653046 919.047119,457.305115 
	C915.488220,461.220886 911.465637,464.780609 907.315002,468.078552 
	C900.275940,473.671692 892.963196,478.919678 885.785583,484.339447 
	C875.826965,491.859222 873.187012,502.170319 874.476196,514.584045 
	C892.486023,514.584045 910.433472,514.584045 929.348511,514.584106 
M101.274269,923.955444 
	C93.146973,900.579895 85.021637,877.203674 76.891319,853.829163 
	C74.066170,845.706909 74.053101,845.922607 65.300247,845.622131 
	C61.192280,845.481140 59.291752,846.652283 57.901062,850.754944 
	C49.260334,876.245728 40.262794,901.615479 31.397198,927.030151 
	C30.822504,928.677673 30.360910,930.364746 29.748135,932.353210 
	C31.683418,932.449463 33.011227,932.396301 34.298000,932.601135 
	C38.761593,933.311462 41.268707,931.911621 42.323097,927.085388 
	C43.450539,921.924805 45.399406,916.905212 47.425884,912.004333 
	C47.995369,910.627197 50.077965,909.025574 51.503891,908.989136 
	C61.647747,908.729980 71.802734,908.943665 81.950813,908.787598 
	C84.679832,908.745605 85.686516,909.865051 86.423172,912.281799 
	C88.166023,917.999756 90.095215,923.668335 92.194275,929.264893 
	C92.678764,930.556702 94.024323,932.231628 95.187927,932.422302 
	C98.000244,932.883057 100.939064,932.571777 104.267349,932.571777 
	C103.163544,929.352905 102.363724,927.020569 101.274269,923.955444 
M878.289490,116.740974 
	C894.449463,114.971710 905.202148,106.089890 907.028564,92.615036 
	C904.657349,91.556274 902.177002,90.448784 899.359680,89.190826 
	C896.820190,96.080147 893.754456,101.886421 887.242065,104.986450 
	C872.074890,112.206375 854.397461,104.869492 849.013672,88.994057 
	C845.943787,79.941833 845.905945,70.591263 847.484009,61.352188 
	C849.501587,49.539799 855.248169,40.188614 867.910034,37.681152 
	C880.584595,35.171154 891.855042,37.364567 898.737671,49.977932 
	C898.853943,50.190899 899.336365,50.204010 899.649902,50.304550 
	C907.620483,46.455112 908.007996,45.219967 902.526062,38.564011 
	C900.653687,36.290642 898.363464,34.184227 895.873840,32.624432 
	C876.578796,20.535637 849.157471,28.872026 839.853943,49.585922 
	C835.500916,59.277760 834.870178,69.481804 835.940369,79.906990 
	C838.352051,103.400879 853.713440,117.112381 878.289490,116.740974 
z"/>
<path fill="#F7F7F7" opacity="1.000000" stroke="none" 
	d="
M714.999268,836.192505 
	C508.369232,836.192505 302.239258,836.192505 96.591125,836.192505 
	C95.044907,831.909058 93.655281,828.059448 91.785393,822.879395 
	C337.955994,589.336426 585.230225,354.746460 831.864685,120.763443 
	C836.264282,122.680923 840.163879,124.380478 844.615234,126.320503 
	C844.615234,359.770782 844.615234,594.197266 844.615234,828.874756 
	C842.496094,829.065247 840.544189,829.240723 838.214661,829.450134 
	C837.984436,831.541260 837.757019,833.607117 837.472351,836.192566 
	C796.752563,836.192566 756.125916,836.192566 714.999268,836.192505 
M634.247864,327.744598 
	C460.944153,492.142670 287.640442,656.540771 113.438278,821.791138 
	C329.352997,821.791138 543.875305,821.791138 758.960083,821.791138 
	C758.960083,809.452759 758.960083,797.378662 758.960083,785.282593 
	C763.783630,785.282593 768.040955,785.282593 772.932251,785.282593 
	C772.932251,797.620850 772.932251,809.676636 772.932251,821.836548 
	C792.493958,821.836548 811.414612,821.836548 830.343079,821.836548 
	C830.343079,797.162537 830.343079,772.778259 830.343079,747.862671 
	C825.679077,747.862671 821.446289,747.862671 817.212402,747.862671 
	C817.212402,743.059509 817.212402,738.798401 817.212402,734.016357 
	C821.736450,734.016357 825.990417,734.016357 830.477905,734.016357 
	C830.477905,536.616211 830.477905,339.744995 830.477905,141.540970 
	C764.691528,203.967056 699.726990,265.613281 634.247864,327.744598 
z"/>
<path fill="#F3F3F3" opacity="1.000000" stroke="none" 
	d="
M861.149231,898.999878 
	C861.149231,883.395325 861.149231,868.290833 861.149231,853.111206 
	C874.383789,853.111206 887.198059,852.526367 899.930664,853.294128 
	C910.340210,853.921692 916.414062,859.795044 918.406982,868.681580 
	C920.483276,877.939636 917.558411,884.458557 908.583435,890.574524 
	C908.174988,890.852844 907.762268,891.124817 907.014587,891.625183 
	C908.196106,892.271423 908.862549,892.718567 909.589111,893.021179 
	C921.245911,897.875488 926.208923,906.114685 924.635925,918.039429 
	C923.005005,930.403442 916.160034,937.775574 903.648071,938.989197 
	C894.407471,939.885498 885.036316,939.456482 875.722778,939.571472 
	C871.088135,939.628723 866.452209,939.581482 861.149231,939.581482 
	C861.149231,925.966614 861.149231,912.733276 861.149231,898.999878 
M887.496704,897.725159 
	C882.246338,897.725159 876.995911,897.725159 871.967773,897.725159 
	C871.967773,909.250427 871.967773,919.955017 871.967773,930.691406 
	C881.857666,930.691406 891.345642,931.218018 900.746765,930.539917 
	C909.749329,929.890686 914.183167,923.947388 914.210754,914.472351 
	C914.238647,904.901245 909.914978,899.386108 900.938782,898.188293 
	C896.842346,897.641724 892.644531,897.855957 887.496704,897.725159 
M871.515320,885.435852 
	C872.220886,886.666687 872.921326,888.962402 873.632812,888.965881 
	C882.084167,889.006409 890.601929,889.268799 898.968567,888.308533 
	C905.217285,887.591370 908.666016,881.951660 908.693420,875.085022 
	C908.720581,868.283936 905.840271,862.901733 899.938171,862.361450 
	C890.666809,861.512756 881.260681,862.136047 871.514404,862.136047 
	C871.514404,869.551453 871.514404,877.000000 871.515320,885.435852 
z"/>
<path fill="#F3F3F3" opacity="1.000000" stroke="none" 
	d="
M515.000793,961.918335 
	C523.296509,961.918335 531.092224,961.918335 539.218262,961.918335 
	C539.218262,965.198669 539.218262,968.090881 539.218262,971.286804 
	C518.858398,971.286804 498.618622,971.286804 478.024872,971.286804 
	C477.029633,960.560547 478.263763,950.588257 487.193390,943.264954 
	C494.011261,937.673523 501.195099,932.530334 508.151367,927.104736 
	C512.085632,924.036072 516.209045,921.108215 519.649109,917.540222 
	C522.354797,914.733765 524.824402,911.307373 526.220886,907.700378 
	C531.666687,893.634338 523.961731,882.769409 508.986420,882.850342 
	C499.671295,882.900635 492.208618,886.510559 486.886108,894.278870 
	C486.420349,894.958679 485.914825,895.617371 485.366638,896.231262 
	C485.163025,896.459106 484.783783,896.530212 483.974640,896.915894 
	C481.901917,894.637817 479.701904,892.219910 476.762299,888.989136 
	C479.783447,885.906982 482.586731,882.148071 486.208923,879.516113 
	C498.306885,870.725220 511.711517,870.055786 525.110229,875.616882 
	C538.624878,881.225952 544.135193,899.423462 536.103394,913.166016 
	C532.270447,919.724304 526.356567,925.313599 520.573242,930.422546 
	C513.230896,936.908875 504.959595,942.331421 497.295502,948.470581 
	C493.369019,951.615845 490.213654,955.498840 490.146179,961.918274 
	C498.368896,961.918274 506.434845,961.918274 515.000793,961.918335 
z"/>
<path fill="#F2F2F2" opacity="1.000000" stroke="none" 
	d="
M928.864746,514.584106 
	C910.433472,514.584045 892.486023,514.584045 874.476196,514.584045 
	C873.187012,502.170319 875.826965,491.859222 885.785583,484.339447 
	C892.963196,478.919678 900.275940,473.671692 907.315002,468.078552 
	C911.465637,464.780609 915.488220,461.220886 919.047119,457.305115 
	C923.275085,452.653046 924.626770,446.821350 924.054688,440.557404 
	C923.303162,432.328766 918.846069,427.429382 910.594421,426.260071 
	C899.283020,424.657166 889.824829,427.792542 883.168152,437.588776 
	C882.795593,438.136963 882.401733,438.677826 881.956482,439.166168 
	C881.749573,439.392975 881.395386,439.485504 880.748108,439.831116 
	C878.376099,437.571533 875.921448,435.233093 873.360046,432.793030 
	C878.396851,424.656952 884.926575,418.845123 893.739197,417.096069 
	C900.458435,415.762482 907.755798,415.272278 914.469604,416.381805 
	C932.346313,419.335968 941.698608,438.163513 933.261841,454.771637 
	C929.917908,461.354187 924.247437,467.089569 918.649353,472.110291 
	C911.110352,478.871674 902.506531,484.430878 894.578979,490.779968 
	C890.416809,494.113434 886.645264,497.986389 886.779785,504.629089 
	C903.071106,504.629089 919.282898,504.629089 935.774841,504.629089 
	C935.774841,508.160736 935.774841,511.090240 935.774841,514.584106 
	C933.600464,514.584106 931.474487,514.584106 928.864746,514.584106 
z"/>
<path fill="#F3F3F3" opacity="1.000000" stroke="none" 
	d="
M101.419083,924.321777 
	C102.363724,927.020569 103.163544,929.352905 104.267349,932.571777 
	C100.939064,932.571777 98.000244,932.883057 95.187927,932.422302 
	C94.024323,932.231628 92.678764,930.556702 92.194275,929.264893 
	C90.095215,923.668335 88.166023,917.999756 86.423172,912.281799 
	C85.686516,909.865051 84.679832,908.745605 81.950813,908.787598 
	C71.802734,908.943665 61.647747,908.729980 51.503891,908.989136 
	C50.077965,909.025574 47.995369,910.627197 47.425884,912.004333 
	C45.399406,916.905212 43.450539,921.924805 42.323097,927.085388 
	C41.268707,931.911621 38.761593,933.311462 34.298000,932.601135 
	C33.011227,932.396301 31.683418,932.449463 29.748135,932.353210 
	C30.360910,930.364746 30.822504,928.677673 31.397198,927.030151 
	C40.262794,901.615479 49.260334,876.245728 57.901062,850.754944 
	C59.291752,846.652283 61.192280,845.481140 65.300247,845.622131 
	C74.053101,845.922607 74.066170,845.706909 76.891319,853.829163 
	C85.021637,877.203674 93.146973,900.579895 101.419083,924.321777 
M75.018852,878.497131 
	C72.522049,871.203369 70.025238,863.909668 67.528427,856.615906 
	C67.049309,856.587585 66.570190,856.559204 66.091072,856.530884 
	C61.236279,870.853638 56.381489,885.176392 51.408802,899.846924 
	C62.182587,899.846924 71.906601,899.846924 82.172737,899.846924 
	C79.766380,892.717285 77.495529,885.989136 75.018852,878.497131 
z"/>
<path fill="#F2F2F2" opacity="1.000000" stroke="none" 
	d="
M877.822021,116.775055 
	C853.713440,117.112381 838.352051,103.400879 835.940369,79.906990 
	C834.870178,69.481804 835.500916,59.277760 839.853943,49.585922 
	C849.157471,28.872026 876.578796,20.535637 895.873840,32.624432 
	C898.363464,34.184227 900.653687,36.290642 902.526062,38.564011 
	C908.007996,45.219967 907.620483,46.455112 899.648926,50.307465 
	C899.336365,50.204010 898.853943,50.190899 898.737671,49.977932 
	C891.855042,37.364567 880.584595,35.171154 867.910034,37.681152 
	C855.248169,40.188614 849.501587,49.539799 847.484009,61.352188 
	C845.905945,70.591263 845.943787,79.941833 849.013672,88.994057 
	C854.397461,104.869492 872.074890,112.206375 887.242065,104.986450 
	C893.754456,101.886421 896.820190,96.080147 899.359680,89.190826 
	C902.177002,90.448784 904.657349,91.556274 907.028564,92.615036 
	C905.202148,106.089890 894.449463,114.971710 877.822021,116.775055 
z"/>
<path fill="#010101" opacity="0.000000" stroke="none" 
	d="
M634.505127,327.502075 
	C699.726990,265.613281 764.691528,203.967056 830.477905,141.540970 
	C830.477905,339.744995 830.477905,536.616211 830.477905,734.016357 
	C825.990417,734.016357 821.736450,734.016357 817.212402,734.016357 
	C817.212402,738.798401 817.212402,743.059509 817.212402,747.862671 
	C821.446289,747.862671 825.679077,747.862671 830.343079,747.862671 
	C830.343079,772.778259 830.343079,797.162537 830.343079,821.836548 
	C811.414612,821.836548 792.493958,821.836548 772.932251,821.836548 
	C772.932251,809.676636 772.932251,797.620850 772.932251,785.282593 
	C768.040955,785.282593 763.783630,785.282593 758.960083,785.282593 
	C758.960083,797.378662 758.960083,809.452759 758.960083,821.791138 
	C543.875305,821.791138 329.352997,821.791138 113.438278,821.791138 
	C287.640442,656.540771 460.944153,492.142670 634.505127,327.502075 
M794.432373,734.010132 
	C783.459167,734.010132 772.485962,734.010132 761.540100,734.010132 
	C756.403442,746.268433 759.775879,758.582336 758.756165,770.753967 
	C763.775269,770.753967 768.032227,770.753967 772.964722,770.753967 
	C772.964722,763.113037 772.964722,755.743835 772.964722,748.033691 
	C783.269104,748.033691 792.899353,748.033691 802.638611,748.033691 
	C802.638611,743.253052 802.638611,738.851379 802.638611,734.010132 
	C800.003845,734.010132 797.705566,734.010132 794.432373,734.010132 
z"/>
<path fill="#070707" opacity="0.000000" stroke="none" 
	d="
M887.994690,897.725098 
	C892.644531,897.855957 896.842346,897.641724 900.938782,898.188293 
	C909.914978,899.386108 914.238647,904.901245 914.210754,914.472351 
	C914.183167,923.947388 909.749329,929.890686 900.746765,930.539917 
	C891.345642,931.218018 881.857666,930.691406 871.967773,930.691406 
	C871.967773,919.955017 871.967773,909.250427 871.967773,897.725159 
	C876.995911,897.725159 882.246338,897.725159 887.994690,897.725098 
z"/>
<path fill="#0A0A0A" opacity="0.000000" stroke="none" 
	d="
M871.514893,884.942200 
	C871.514404,877.000000 871.514404,869.551453 871.514404,862.136047 
	C881.260681,862.136047 890.666809,861.512756 899.938171,862.361450 
	C905.840271,862.901733 908.720581,868.283936 908.693420,875.085022 
	C908.666016,881.951660 905.217285,887.591370 898.968567,888.308533 
	C890.601929,889.268799 882.084167,889.006409 873.632812,888.965881 
	C872.921326,888.962402 872.220886,886.666687 871.514893,884.942200 
z"/>
<path fill="#080808" opacity="0.000000" stroke="none" 
	d="
M75.121765,878.879028 
	C77.495529,885.989136 79.766380,892.717285 82.172737,899.846924 
	C71.906601,899.846924 62.182587,899.846924 51.408802,899.846924 
	C56.381489,885.176392 61.236279,870.853638 66.091072,856.530884 
	C66.570190,856.559204 67.049309,856.587585 67.528427,856.615906 
	C70.025238,863.909668 72.522049,871.203369 75.121765,878.879028 
z"/>
<path fill="#F5F5F5" opacity="1.000000" stroke="none" 
	d="
M794.919800,734.010132 
	C797.705566,734.010132 800.003845,734.010132 802.638611,734.010132 
	C802.638611,738.851379 802.638611,743.253052 802.638611,748.033691 
	C792.899353,748.033691 783.269104,748.033691 772.964722,748.033691 
	C772.964722,755.743835 772.964722,763.113037 772.964722,770.753967 
	C768.032227,770.753967 763.775269,770.753967 758.756165,770.753967 
	C759.775879,758.582336 756.403442,746.268433 761.540100,734.010132 
	C772.485962,734.010132 783.459167,734.010132 794.919800,734.010132 
z"/>
</svg>