<svg version="1.1" id="Layer_1" xmlns="http://www.w3.org/2000/svg" xmlns:xlink="http://www.w3.org/1999/xlink" x="0px" y="0px"
	 width="100%" viewBox="0 0 687 1031" enable-background="new 0 0 687 1031" xml:space="preserve">
<path fill="#000000" opacity="0.000000" stroke="none" 
	d="
M336.000000,1032.000000 
	C224.000015,1032.000000 112.500023,1032.000000 1.000030,1032.000000 
	C1.000020,688.333374 1.000020,344.666779 1.000010,1.000122 
	C229.999924,1.000082 458.999847,1.000082 687.999817,1.000041 
	C687.999878,344.666534 687.999878,688.333069 687.999939,1031.999756 
	C570.833313,1032.000000 453.666656,1032.000000 336.000000,1032.000000 
M237.499496,909.299866 
	C343.498413,909.299866 449.497345,909.298462 555.496277,909.312134 
	C557.146179,909.312317 559.642456,908.854065 560.293457,909.711365 
	C562.614868,912.767639 564.560059,910.747498 566.567200,909.775940 
	C568.342651,908.916504 569.980164,907.772095 571.899109,906.621277 
	C427.573700,642.809509 283.341248,379.167572 139.292404,115.861290 
	C135.423203,116.904411 132.164978,117.782814 128.998749,118.636421 
	C128.998749,380.247803 128.998749,641.979248 128.998749,904.005676 
	C130.787140,904.005676 132.235458,904.005676 133.829971,904.005676 
	C134.003418,905.865173 134.151154,907.449158 134.323776,909.299866 
	C168.526398,909.299866 202.512924,909.299866 237.499496,909.299866 
M613.363586,981.014282 
	C614.692932,980.960510 616.033142,980.997437 617.349792,980.838562 
	C626.880432,979.688538 632.915100,974.218140 634.035767,965.767578 
	C635.458862,955.036621 631.994934,949.059265 622.068970,945.082214 
	C621.708984,944.938049 621.416016,944.626709 621.031433,944.349731 
	C629.148438,938.108826 631.306519,933.077637 629.252075,925.710266 
	C627.005554,917.653870 620.764404,914.846069 613.392212,914.480591 
	C604.302612,914.029968 595.173645,914.372864 585.778809,914.372864 
	C585.778809,936.656677 585.778809,958.695862 585.778809,981.015320 
	C594.796753,981.015320 603.597656,981.015320 613.363586,981.014282 
M349.567474,928.672302 
	C335.184662,925.920288 322.991760,930.724915 318.269165,940.207031 
	C319.949341,942.660706 321.417511,944.804749 323.189362,947.392273 
	C328.396301,938.635559 335.434113,935.130920 344.625519,936.004456 
	C351.938324,936.699463 355.668335,940.690857 356.202087,947.915588 
	C356.755554,955.406982 353.021301,960.669250 347.599945,964.974792 
	C341.083832,970.149780 334.398468,975.115479 327.708771,980.066895 
	C319.675171,986.013062 316.926788,993.971619 318.279633,1003.756592 
	C333.966980,1003.756592 349.529541,1003.756592 365.052551,1003.756592 
	C365.052551,1001.282959 365.052551,999.080322 365.052551,996.519409 
	C352.401215,996.519409 340.134552,996.519409 325.964417,996.519409 
	C328.743713,992.393982 330.272858,988.854126 332.881683,986.522278 
	C337.954285,981.988403 343.877960,978.411194 348.989044,973.914795 
	C353.817413,969.666992 359.016205,965.348877 362.358887,960.003052 
	C370.020966,947.749207 363.968079,933.037720 349.567474,928.672302 
M58.009178,559.506042 
	C55.237347,563.142822 52.970856,566.908875 54.959724,572.133301 
	C66.314964,572.133301 77.758743,572.133301 89.644623,572.133301 
	C89.644623,578.272522 89.644623,584.028259 89.644623,589.690796 
	C92.675949,589.690796 95.249969,589.690796 98.261902,589.690796 
	C98.261902,583.644226 98.261902,577.903625 98.261902,571.769897 
	C102.794716,571.769897 106.868813,571.769897 110.829514,571.769897 
	C110.829514,569.380066 110.829514,567.418884 110.829514,564.878906 
	C106.483841,564.878906 102.277039,564.878906 97.717606,564.878906 
	C97.717606,547.879089 97.717606,531.460205 97.717606,515.471497 
	C90.033333,513.042542 85.942108,516.426453 82.211105,522.581238 
	C74.713669,534.949097 66.389618,546.815796 58.009178,559.506042 
M82.872620,943.169800 
	C79.316048,953.313171 75.759476,963.456543 72.127220,973.815796 
	C75.117615,973.815796 77.736427,973.815796 80.449806,973.815796 
	C82.217484,968.664124 83.805038,963.611877 85.743279,958.697937 
	C86.208366,957.518738 87.818428,956.020935 88.936363,955.991821 
	C97.555786,955.767273 106.183685,955.868103 114.837013,955.868103 
	C116.988052,962.113342 119.029358,968.039978 120.977386,973.695801 
	C123.953201,973.695801 126.499115,973.695801 129.424271,973.695801 
	C122.028084,952.466248 114.617538,931.701111 107.647812,910.789062 
	C106.145164,906.280640 103.199059,907.395630 100.240929,907.198914 
	C97.265945,907.000916 95.101395,907.216980 93.937843,910.902771 
	C90.594498,921.493652 86.726295,931.918884 82.872620,943.169800 
M77.804024,91.509361 
	C72.489723,82.049652 72.723351,71.966057 75.162392,61.932545 
	C77.609825,51.864494 85.316521,46.559620 95.764526,46.566147 
	C103.909576,46.571236 110.300461,49.515160 113.911240,57.586014 
	C116.234261,56.000351 117.979263,54.809231 119.709740,53.628029 
	C117.712242,48.062778 114.103508,44.346695 109.035004,42.019802 
	C90.936180,33.710815 70.857506,43.247120 66.421989,62.574413 
	C65.285217,67.527771 64.962746,72.848480 65.310684,77.928879 
	C66.436508,94.367493 75.444427,104.934250 89.940811,107.611481 
	C104.719330,110.340828 117.216896,102.986900 120.117516,89.455620 
	C118.230820,88.589500 116.260429,87.684959 114.299416,86.784729 
	C106.639832,103.392906 88.856392,105.750717 77.804024,91.509361 
z"/>
<path fill="#F8F8F8" opacity="1.000000" stroke="none" 
	d="
M236.999481,909.299866 
	C202.512924,909.299866 168.526398,909.299866 134.323776,909.299866 
	C134.151154,907.449158 134.003418,905.865173 133.829971,904.005676 
	C132.235458,904.005676 130.787140,904.005676 128.998749,904.005676 
	C128.998749,641.979248 128.998749,380.247803 128.998749,118.636421 
	C132.164978,117.782814 135.423203,116.904411 139.292404,115.861290 
	C283.341248,379.167572 427.573700,642.809509 571.899109,906.621277 
	C569.980164,907.772095 568.342651,908.916504 566.567200,909.775940 
	C564.560059,910.747498 562.614868,912.767639 560.293457,909.711365 
	C559.642456,908.854065 557.146179,909.312317 555.496277,909.312134 
	C449.497345,909.298462 343.498413,909.299866 236.999481,909.299866 
M465.861420,735.730164 
	C357.508972,537.691833 249.156525,339.653503 140.804077,141.615173 
	C140.553818,141.760117 140.303574,141.905045 140.053314,142.049988 
	C140.053314,394.045288 140.053314,646.040588 140.053314,897.881226 
	C165.789291,897.881226 191.181091,897.881226 216.900848,897.881226 
	C216.900848,888.734924 216.900848,879.956604 216.900848,871.208374 
	C220.653946,871.208374 224.069183,871.208374 228.014481,871.208374 
	C228.014481,880.396729 228.014481,889.288147 228.014481,898.038208 
	C336.980682,898.038208 445.402985,898.038208 554.657471,898.038208 
	C524.969482,843.819519 495.562317,790.113770 465.861420,735.730164 
z"/>
<path fill="#F7F7F7" opacity="1.000000" stroke="none" 
	d="
M612.881104,981.014771 
	C603.597656,981.015320 594.796753,981.015320 585.778809,981.015320 
	C585.778809,958.695862 585.778809,936.656677 585.778809,914.372864 
	C595.173645,914.372864 604.302612,914.029968 613.392212,914.480591 
	C620.764404,914.846069 627.005554,917.653870 629.252075,925.710266 
	C631.306519,933.077637 629.148438,938.108826 621.031433,944.349731 
	C621.416016,944.626709 621.708984,944.938049 622.068970,945.082214 
	C631.994934,949.059265 635.458862,955.036621 634.035767,965.767578 
	C632.915100,974.218140 626.880432,979.688538 617.349792,980.838562 
	C616.033142,980.997437 614.692932,980.960510 612.881104,981.014771 
M614.036743,948.989929 
	C607.289612,948.989929 600.542419,948.989929 593.832031,948.989929 
	C593.832031,957.713318 593.832031,965.908569 593.832031,974.311951 
	C600.666382,974.311951 607.134766,974.520996 613.584045,974.258911 
	C621.604004,973.932983 625.559082,970.372253 626.101562,963.595276 
	C626.804688,954.810913 623.827820,950.930054 614.036743,948.989929 
M621.345581,935.450623 
	C623.004517,927.583557 620.743896,922.187866 614.373230,921.462402 
	C607.565674,920.687134 600.601440,921.287720 593.764160,921.287720 
	C593.764160,928.416565 593.764160,935.167236 593.764160,942.095337 
	C600.224243,942.095337 606.377686,942.228577 612.521912,942.047424 
	C616.478943,941.930847 619.460876,939.955505 621.345581,935.450623 
z"/>
<path fill="#F9F9F9" opacity="1.000000" stroke="none" 
	d="
M349.971497,928.781860 
	C363.968079,933.037720 370.020966,947.749207 362.358887,960.003052 
	C359.016205,965.348877 353.817413,969.666992 348.989044,973.914795 
	C343.877960,978.411194 337.954285,981.988403 332.881683,986.522278 
	C330.272858,988.854126 328.743713,992.393982 325.964417,996.519409 
	C340.134552,996.519409 352.401215,996.519409 365.052551,996.519409 
	C365.052551,999.080322 365.052551,1001.282959 365.052551,1003.756592 
	C349.529541,1003.756592 333.966980,1003.756592 318.279633,1003.756592 
	C316.926788,993.971619 319.675171,986.013062 327.708771,980.066895 
	C334.398468,975.115479 341.083832,970.149780 347.599945,964.974792 
	C353.021301,960.669250 356.755554,955.406982 356.202087,947.915588 
	C355.668335,940.690857 351.938324,936.699463 344.625519,936.004456 
	C335.434113,935.130920 328.396301,938.635559 323.189362,947.392273 
	C321.417511,944.804749 319.949341,942.660706 318.269165,940.207031 
	C322.991760,930.724915 335.184662,925.920288 349.971497,928.781860 
z"/>
<path fill="#FCFCFC" opacity="1.000000" stroke="none" 
	d="
M58.207924,559.197693 
	C66.389618,546.815796 74.713669,534.949097 82.211105,522.581238 
	C85.942108,516.426453 90.033333,513.042542 97.717606,515.471497 
	C97.717606,531.460205 97.717606,547.879089 97.717606,564.878906 
	C102.277039,564.878906 106.483841,564.878906 110.829514,564.878906 
	C110.829514,567.418884 110.829514,569.380066 110.829514,571.769897 
	C106.868813,571.769897 102.794716,571.769897 98.261902,571.769897 
	C98.261902,577.903625 98.261902,583.644226 98.261902,589.690796 
	C95.249969,589.690796 92.675949,589.690796 89.644623,589.690796 
	C89.644623,584.028259 89.644623,578.272522 89.644623,572.133301 
	C77.758743,572.133301 66.314964,572.133301 54.959724,572.133301 
	C52.970856,566.908875 55.237347,563.142822 58.207924,559.197693 
M89.587555,546.500000 
	C89.587555,540.089355 89.587555,533.678711 89.587555,527.268127 
	C89.193672,527.187378 88.799782,527.106689 88.405899,527.026001 
	C80.487213,539.448181 72.568527,551.870300 64.382477,564.711914 
	C73.434906,564.711914 81.349892,564.711914 89.587517,564.711914 
	C89.587517,558.775208 89.587517,553.136902 89.587555,546.500000 
z"/>
<path fill="#F5F5F5" opacity="1.000000" stroke="none" 
	d="
M82.968475,942.789490 
	C86.726295,931.918884 90.594498,921.493652 93.937843,910.902771 
	C95.101395,907.216980 97.265945,907.000916 100.240929,907.198914 
	C103.199059,907.395630 106.145164,906.280640 107.647812,910.789062 
	C114.617538,931.701111 122.028084,952.466248 129.424271,973.695801 
	C126.499115,973.695801 123.953201,973.695801 120.977386,973.695801 
	C119.029358,968.039978 116.988052,962.113342 114.837013,955.868103 
	C106.183685,955.868103 97.555786,955.767273 88.936363,955.991821 
	C87.818428,956.020935 86.208366,957.518738 85.743279,958.697937 
	C83.805038,963.611877 82.217484,968.664124 80.449806,973.815796 
	C77.736427,973.815796 75.117615,973.815796 72.127220,973.815796 
	C75.759476,963.456543 79.316048,953.313171 82.968475,942.789490 
M105.798126,928.735352 
	C104.235344,924.365723 102.672554,919.996094 100.629448,914.283508 
	C96.396828,926.787842 92.689209,937.741211 88.962524,948.750854 
	C96.916695,948.750854 104.459183,948.750854 112.457375,948.750854 
	C110.211967,942.049622 108.109467,935.774902 105.798126,928.735352 
z"/>
<path fill="#F5F5F5" opacity="1.000000" stroke="none" 
	d="
M77.978271,91.839935 
	C88.856392,105.750717 106.639832,103.392906 114.299416,86.784729 
	C116.260429,87.684959 118.230820,88.589500 120.117516,89.455620 
	C117.216896,102.986900 104.719330,110.340828 89.940811,107.611481 
	C75.444427,104.934250 66.436508,94.367493 65.310684,77.928879 
	C64.962746,72.848480 65.285217,67.527771 66.421989,62.574413 
	C70.857506,43.247120 90.936180,33.710815 109.035004,42.019802 
	C114.103508,44.346695 117.712242,48.062778 119.709740,53.628029 
	C117.979263,54.809231 116.234261,56.000351 113.911240,57.586014 
	C110.300461,49.515160 103.909576,46.571236 95.764526,46.566147 
	C85.316521,46.559620 77.609825,51.864494 75.162392,61.932545 
	C72.723351,71.966057 72.489723,82.049652 77.978271,91.839935 
z"/>
<path fill="#000000" opacity="0.000000" stroke="none" 
	d="
M466.008301,736.069092 
	C495.562317,790.113770 524.969482,843.819519 554.657471,898.038208 
	C445.402985,898.038208 336.980682,898.038208 228.014481,898.038208 
	C228.014481,889.288147 228.014481,880.396729 228.014481,871.208374 
	C224.069183,871.208374 220.653946,871.208374 216.900848,871.208374 
	C216.900848,879.956604 216.900848,888.734924 216.900848,897.881226 
	C191.181091,897.881226 165.789291,897.881226 140.053314,897.881226 
	C140.053314,646.040588 140.053314,394.045288 140.053314,142.049988 
	C140.303574,141.905045 140.553818,141.760117 140.804077,141.615173 
	C249.156525,339.653503 357.508972,537.691833 466.008301,736.069092 
M225.978348,805.587158 
	C224.745453,805.434326 223.512543,805.281494 222.240906,805.123901 
	C222.156723,803.282532 222.090576,801.835571 222.017838,800.244385 
	C211.021805,800.244385 200.280640,800.244385 189.349716,800.244385 
	C189.349716,803.868042 189.349716,807.260559 189.349716,811.065979 
	C198.493683,811.065979 207.402832,811.065979 216.448303,811.065979 
	C216.693451,812.872925 216.886078,814.292786 217.061157,815.583252 
	C220.712006,815.583252 224.120117,815.583252 228.227722,815.583252 
	C227.726715,812.030823 227.282867,808.883606 225.978348,805.587158 
M227.805847,840.510010 
	C227.805847,836.077820 227.805847,831.645630 227.805847,827.150208 
	C223.837860,827.150208 220.430695,827.150208 216.973984,827.150208 
	C216.973984,838.157837 216.973984,848.911133 216.973984,859.639648 
	C220.607788,859.639648 224.020065,859.639648 227.805847,859.639648 
	C227.805847,853.402161 227.805847,847.453918 227.805847,840.510010 
M178.120712,809.376709 
	C178.120712,806.301392 178.120712,803.226135 178.120712,800.381653 
	C166.699951,800.381653 155.983917,800.381653 145.310913,800.381653 
	C145.310913,804.018555 145.310913,807.291382 145.310913,810.341553 
	C156.357941,810.341553 167.203568,810.341553 178.120712,809.376709 
z"/>
<path fill="#050505" opacity="0.000000" stroke="none" 
	d="
M614.482056,949.008911 
	C623.827820,950.930054 626.804688,954.810913 626.101562,963.595276 
	C625.559082,970.372253 621.604004,973.932983 613.584045,974.258911 
	C607.134766,974.520996 600.666382,974.311951 593.832031,974.311951 
	C593.832031,965.908569 593.832031,957.713318 593.832031,948.989929 
	C600.542419,948.989929 607.289612,948.989929 614.482056,949.008911 
z"/>
<path fill="#060606" opacity="0.000000" stroke="none" 
	d="
M621.214600,935.827026 
	C619.460876,939.955505 616.478943,941.930847 612.521912,942.047424 
	C606.377686,942.228577 600.224243,942.095337 593.764160,942.095337 
	C593.764160,935.167236 593.764160,928.416565 593.764160,921.287720 
	C600.601440,921.287720 607.565674,920.687134 614.373230,921.462402 
	C620.743896,922.187866 623.004517,927.583557 621.214600,935.827026 
z"/>
<path fill="#0B0B0B" opacity="0.000000" stroke="none" 
	d="
M89.587540,546.999329 
	C89.587517,553.136902 89.587517,558.775208 89.587517,564.711914 
	C81.349892,564.711914 73.434906,564.711914 64.382477,564.711914 
	C72.568527,551.870300 80.487213,539.448181 88.405899,527.026001 
	C88.799782,527.106689 89.193672,527.187378 89.587555,527.268127 
	C89.587555,533.678711 89.587555,540.089355 89.587540,546.999329 
z"/>
<path fill="#050505" opacity="0.000000" stroke="none" 
	d="
M105.902542,929.117798 
	C108.109467,935.774902 110.211967,942.049622 112.457375,948.750854 
	C104.459183,948.750854 96.916695,948.750854 88.962524,948.750854 
	C92.689209,937.741211 96.396828,926.787842 100.629448,914.283508 
	C102.672554,919.996094 104.235344,924.365723 105.902542,929.117798 
z"/>
<path fill="#FAFAFA" opacity="1.000000" stroke="none" 
	d="
M226.408676,805.661743 
	C227.282867,808.883606 227.726715,812.030823 228.227722,815.583252 
	C224.120117,815.583252 220.712006,815.583252 217.061157,815.583252 
	C216.886078,814.292786 216.693451,812.872925 216.448303,811.065979 
	C207.402832,811.065979 198.493683,811.065979 189.349716,811.065979 
	C189.349716,807.260559 189.349716,803.868042 189.349716,800.244385 
	C200.280640,800.244385 211.021805,800.244385 222.017838,800.244385 
	C222.090576,801.835571 222.156723,803.282532 222.240906,805.123901 
	C223.512543,805.281494 224.745453,805.434326 226.408676,805.661743 
z"/>
<path fill="#F7F7F7" opacity="1.000000" stroke="none" 
	d="
M227.805847,841.007812 
	C227.805847,847.453918 227.805847,853.402161 227.805847,859.639648 
	C224.020065,859.639648 220.607788,859.639648 216.973984,859.639648 
	C216.973984,848.911133 216.973984,838.157837 216.973984,827.150208 
	C220.430695,827.150208 223.837860,827.150208 227.805847,827.150208 
	C227.805847,831.645630 227.805847,836.077820 227.805847,841.007812 
z"/>
<path fill="#FCFCFC" opacity="1.000000" stroke="none" 
	d="
M178.084961,809.859131 
	C167.203568,810.341553 156.357941,810.341553 145.310913,810.341553 
	C145.310913,807.291382 145.310913,804.018555 145.310913,800.381653 
	C155.983917,800.381653 166.699951,800.381653 178.120712,800.381653 
	C178.120712,803.226135 178.120712,806.301392 178.084961,809.859131 
z"/>
</svg>