<svg version="1.1" id="Layer_1" xmlns="http://www.w3.org/2000/svg" xmlns:xlink="http://www.w3.org/1999/xlink" x="0px" y="0px"
	 width="100%" viewBox="0 0 961 972" enable-background="new 0 0 961 972" xml:space="preserve">
<path fill="#000000" opacity="0.000000" stroke="none" 
	d="
M558.000000,973.000000 
	C372.000000,973.000000 186.500000,973.000000 1.000000,973.000000 
	C1.000000,649.000000 1.000000,325.000000 1.000000,1.000000 
	C321.333344,1.000000 641.666687,1.000000 962.000000,1.000000 
	C962.000000,325.000000 962.000000,649.000000 962.000000,973.000000 
	C827.500000,973.000000 693.000000,973.000000 558.000000,973.000000 
M408.499939,886.856628 
	C556.280701,886.856628 704.061401,886.856628 850.388306,886.856628 
	C852.601929,882.062073 854.360901,878.252258 856.357605,873.927429 
	C622.357056,612.784119 387.706970,350.915985 153.922394,90.013672 
	C149.056549,91.940613 145.261353,93.443573 141.130295,95.079529 
	C141.130295,356.013336 141.130295,617.750244 141.130295,879.666443 
	C143.454208,879.818542 145.523972,879.953979 147.624908,880.091492 
	C147.828384,882.524841 148.000793,884.586670 148.190598,886.856628 
	C234.881516,886.856628 321.190735,886.856628 408.499939,886.856628 
M85.499390,104.010544 
	C92.468079,103.672989 99.552391,104.012032 106.379387,102.845352 
	C117.697456,100.911179 123.791351,92.904015 124.640007,80.516785 
	C125.388908,69.585609 120.260834,61.722168 109.812057,57.747257 
	C108.854431,57.382957 107.936577,56.914108 106.909065,56.452869 
	C107.427025,55.777287 107.571404,55.437466 107.827995,55.276222 
	C117.016014,49.502529 120.219025,42.959209 118.346519,33.743378 
	C116.481850,24.566183 110.778236,18.677450 100.298637,17.986061 
	C87.421715,17.136509 74.446075,17.783335 61.312721,17.783335 
	C61.312721,46.312534 61.312721,75.021713 61.312721,103.670799 
	C61.892239,103.821793 62.199707,103.971062 62.507637,103.972008 
	C69.838295,103.994499 77.168999,104.001060 85.499390,104.010544 
M46.831406,481.289612 
	C43.633957,484.286072 40.436508,487.282532 37.032398,490.472687 
	C39.981262,493.599884 42.189728,495.941895 44.620766,498.519958 
	C45.568165,497.372437 46.111401,496.781311 46.580471,496.136230 
	C53.088619,487.185852 64.519112,483.561096 74.872604,487.265778 
	C79.555130,488.941284 82.811569,492.084198 83.928947,497.067047 
	C86.616867,509.053589 79.619896,518.344849 67.285896,519.045959 
	C63.337666,519.270386 59.365921,519.081116 55.208683,519.081116 
	C55.208683,522.613220 55.208683,525.641846 55.208683,528.418579 
	C62.141396,528.960876 68.815170,529.025757 75.316696,530.117004 
	C82.149208,531.263672 86.721901,535.736328 87.817154,542.688965 
	C88.965294,549.977356 88.486389,557.140930 81.786049,562.078430 
	C69.662689,571.012207 50.672852,565.611084 44.981876,551.699280 
	C44.501286,550.524475 43.884109,549.405579 43.187584,547.965454 
	C39.895329,549.442383 36.928520,550.773376 33.707981,552.218140 
	C36.277554,562.749939 41.827839,570.406067 51.912128,573.951965 
	C62.454704,577.658997 73.244019,577.476013 83.728256,573.749207 
	C94.676216,569.857666 100.286926,560.181274 100.110199,546.750427 
	C99.959915,535.329102 94.580231,527.840454 83.643921,523.785889 
	C82.670486,523.424988 81.750374,522.920166 80.333633,522.263550 
	C83.182846,520.295349 85.608658,518.885742 87.729324,517.111389 
	C101.232269,505.813507 98.037277,484.681763 81.576874,478.504791 
	C70.060158,474.182983 58.427311,474.427551 46.831406,481.289612 
M560.137878,396.500061 
	C560.137878,384.771667 560.137878,373.043274 560.137878,361.150330 
	C557.362000,361.150330 555.341980,361.392303 553.400940,361.103271 
	C548.329529,360.348175 545.458496,362.473511 542.686401,366.810059 
	C530.691284,385.574463 518.347351,404.120209 505.856781,422.560242 
	C502.924408,426.889343 503.065155,431.061432 503.864105,436.032684 
	C519.067200,436.032684 533.971802,436.032684 549.248352,436.032684 
	C549.248352,443.845459 549.248352,451.261292 549.248352,458.761719 
	C553.040710,458.761719 556.446289,458.761719 560.219360,458.761719 
	C560.219360,451.096191 560.219360,443.676971 560.219360,435.763611 
	C565.981934,435.763611 571.382812,435.763611 576.713257,435.763611 
	C576.713257,432.358276 576.713257,429.463287 576.713257,426.214844 
	C571.113098,426.214844 565.846802,426.214844 560.137878,426.214844 
	C560.137878,416.399597 560.137878,406.949829 560.137878,396.500061 
M887.348633,908.752625 
	C881.584229,925.361084 875.819885,941.969543 869.965576,958.837219 
	C873.756104,958.837219 877.207581,958.837219 880.712891,958.837219 
	C883.062073,951.966675 885.282043,945.181396 887.757324,938.490417 
	C888.231812,937.207642 889.692810,935.374817 890.728821,935.354858 
	C902.330994,935.131348 913.939148,935.213745 925.527039,935.213745 
	C928.311768,943.391785 930.922668,951.059326 933.564270,958.816895 
	C937.159241,958.816895 940.593018,958.816895 944.377869,958.816895 
	C943.903687,957.293701 943.551697,956.035156 943.122437,954.803528 
	C934.869873,931.126709 926.614380,907.450806 918.345886,883.779480 
	C914.118103,871.676025 914.105896,871.678894 901.332886,872.175354 
	C901.012634,872.187805 900.697021,872.317200 900.047424,872.470215 
	C895.971619,884.216858 891.836670,896.134277 887.348633,908.752625 
M120.314674,894.181152 
	C121.953194,896.434509 123.591713,898.687866 125.514442,901.332092 
	C127.977478,899.712952 130.284607,898.196350 132.679092,896.622253 
	C130.735733,890.580811 127.047646,886.234924 121.970787,883.076416 
	C102.420143,870.913330 75.000931,879.452881 65.764206,900.492737 
	C61.765938,909.600159 61.279755,919.149353 61.924206,928.873840 
	C63.608772,954.293274 81.633286,969.563354 106.892525,966.950684 
	C120.339310,965.559814 131.131042,955.908997 133.149170,943.195129 
	C130.767914,942.038391 128.308701,940.843811 125.517227,939.487793 
	C122.982544,946.368286 120.025848,952.201599 113.532227,955.371033 
	C98.320450,962.795593 80.170189,955.435120 75.062584,939.331299 
	C71.558174,928.282288 71.529739,916.943115 75.069839,905.905823 
	C81.106201,887.085815 104.621330,880.769409 120.314674,894.181152 
z"/>
<path fill="#FBFBFB" opacity="1.000000" stroke="none" 
	d="
M407.999939,886.856628 
	C321.190735,886.856628 234.881516,886.856628 148.190598,886.856628 
	C148.000793,884.586670 147.828384,882.524841 147.624908,880.091492 
	C145.523972,879.953979 143.454208,879.818542 141.130295,879.666443 
	C141.130295,617.750244 141.130295,356.013336 141.130295,95.079529 
	C145.261353,93.443573 149.056549,91.940613 153.922394,90.013672 
	C387.706970,350.915985 622.357056,612.784119 856.357605,873.927429 
	C854.360901,878.252258 852.601929,882.062073 850.388306,886.856628 
	C704.061401,886.856628 556.280701,886.856628 407.999939,886.856628 
M668.774902,685.732117 
	C497.736420,494.863220 326.697906,303.994324 155.125183,112.529266 
	C155.125183,341.086853 155.125183,568.649597 155.125183,796.619995 
	C167.466843,796.619995 179.570877,796.619995 191.672729,796.619995 
	C191.672729,801.435181 191.672729,805.838684 191.672729,810.702332 
	C179.310425,810.702332 167.244278,810.702332 155.138794,810.702332 
	C155.138794,831.591553 155.138794,852.008911 155.138794,872.544128 
	C179.791962,872.544128 204.186966,872.544128 229.090927,872.544128 
	C229.090927,866.368225 229.090927,860.469238 229.090927,854.675232 
	C233.999496,854.675232 238.388718,854.675232 243.085373,854.675232 
	C243.085373,860.836243 243.085373,866.621582 243.085373,872.506775 
	C440.732849,872.506775 638.054565,872.506775 836.117554,872.506775 
	C780.161682,810.063354 724.697876,748.168945 668.774902,685.732117 
z"/>
<path fill="#F9F9F9" opacity="1.000000" stroke="none" 
	d="
M84.999542,104.010544 
	C77.168999,104.001060 69.838295,103.994499 62.507637,103.972008 
	C62.199707,103.971062 61.892239,103.821793 61.312721,103.670799 
	C61.312721,75.021713 61.312721,46.312534 61.312721,17.783335 
	C74.446075,17.783335 87.421715,17.136509 100.298637,17.986061 
	C110.778236,18.677450 116.481850,24.566183 118.346519,33.743378 
	C120.219025,42.959209 117.016014,49.502529 107.827995,55.276222 
	C107.571404,55.437466 107.427025,55.777287 106.909065,56.452869 
	C107.936577,56.914108 108.854431,57.382957 109.812057,57.747257 
	C120.260834,61.722168 125.388908,69.585609 124.640007,80.516785 
	C123.791351,92.904015 117.697456,100.911179 106.379387,102.845352 
	C99.552391,104.012032 92.468079,103.672989 84.999542,104.010544 
M71.298416,89.276962 
	C71.298416,91.212753 71.298416,93.148544 71.298416,94.992928 
	C81.834709,94.992928 91.819557,95.510529 101.720978,94.824295 
	C109.240494,94.303146 113.601036,88.554184 114.053001,80.828888 
	C114.599503,71.487793 111.434525,64.606583 104.073090,63.554989 
	C93.364105,62.025200 82.415039,62.176022 71.298424,61.596149 
	C71.298424,71.364388 71.298424,79.845970 71.298416,89.276962 
M108.499260,40.295944 
	C107.942619,31.179163 104.969505,26.717812 97.600243,26.207375 
	C89.031998,25.613894 80.391113,26.068972 71.642769,26.068972 
	C71.642769,35.314819 71.642769,44.348457 71.642769,53.459103 
	C79.940819,53.459103 87.922180,53.857227 95.845016,53.346867 
	C103.731003,52.838882 107.195312,48.997742 108.499260,40.295944 
z"/>
<path fill="#F9F9F9" opacity="1.000000" stroke="none" 
	d="
M47.148125,481.114563 
	C58.427311,474.427551 70.060158,474.182983 81.576874,478.504791 
	C98.037277,484.681763 101.232269,505.813507 87.729324,517.111389 
	C85.608658,518.885742 83.182846,520.295349 80.333633,522.263550 
	C81.750374,522.920166 82.670486,523.424988 83.643921,523.785889 
	C94.580231,527.840454 99.959915,535.329102 100.110199,546.750427 
	C100.286926,560.181274 94.676216,569.857666 83.728256,573.749207 
	C73.244019,577.476013 62.454704,577.658997 51.912128,573.951965 
	C41.827839,570.406067 36.277554,562.749939 33.707981,552.218140 
	C36.928520,550.773376 39.895329,549.442383 43.187584,547.965454 
	C43.884109,549.405579 44.501286,550.524475 44.981876,551.699280 
	C50.672852,565.611084 69.662689,571.012207 81.786049,562.078430 
	C88.486389,557.140930 88.965294,549.977356 87.817154,542.688965 
	C86.721901,535.736328 82.149208,531.263672 75.316696,530.117004 
	C68.815170,529.025757 62.141396,528.960876 55.208683,528.418579 
	C55.208683,525.641846 55.208683,522.613220 55.208683,519.081116 
	C59.365921,519.081116 63.337666,519.270386 67.285896,519.045959 
	C79.619896,518.344849 86.616867,509.053589 83.928947,497.067047 
	C82.811569,492.084198 79.555130,488.941284 74.872604,487.265778 
	C64.519112,483.561096 53.088619,487.185852 46.580471,496.136230 
	C46.111401,496.781311 45.568165,497.372437 44.620766,498.519958 
	C42.189728,495.941895 39.981262,493.599884 37.032398,490.472687 
	C40.436508,487.282532 43.633957,484.286072 47.148125,481.114563 
z"/>
<path fill="#F7F7F7" opacity="1.000000" stroke="none" 
	d="
M560.137878,397.000061 
	C560.137878,406.949829 560.137878,416.399597 560.137878,426.214844 
	C565.846802,426.214844 571.113098,426.214844 576.713257,426.214844 
	C576.713257,429.463287 576.713257,432.358276 576.713257,435.763611 
	C571.382812,435.763611 565.981934,435.763611 560.219360,435.763611 
	C560.219360,443.676971 560.219360,451.096191 560.219360,458.761719 
	C556.446289,458.761719 553.040710,458.761719 549.248352,458.761719 
	C549.248352,451.261292 549.248352,443.845459 549.248352,436.032684 
	C533.971802,436.032684 519.067200,436.032684 503.864105,436.032684 
	C503.065155,431.061432 502.924408,426.889343 505.856781,422.560242 
	C518.347351,404.120209 530.691284,385.574463 542.686401,366.810059 
	C545.458496,362.473511 548.329529,360.348175 553.400940,361.103271 
	C555.341980,361.392303 557.362000,361.150330 560.137878,361.150330 
	C560.137878,373.043274 560.137878,384.771667 560.137878,397.000061 
M536.496643,426.308624 
	C540.592896,426.308624 544.689087,426.308624 548.801514,426.308624 
	C548.801514,409.634583 548.801514,393.485077 548.801514,377.335571 
	C548.474304,377.196289 548.147095,377.057037 547.819824,376.917786 
	C537.514465,393.049103 527.209106,409.180420 516.266907,426.308624 
	C523.617615,426.308624 529.557373,426.308624 536.496643,426.308624 
z"/>
<path fill="#F9F9F9" opacity="1.000000" stroke="none" 
	d="
M887.525146,908.402100 
	C891.836670,896.134277 895.971619,884.216858 900.047424,872.470215 
	C900.697021,872.317200 901.012634,872.187805 901.332886,872.175354 
	C914.105896,871.678894 914.118103,871.676025 918.345886,883.779480 
	C926.614380,907.450806 934.869873,931.126709 943.122437,954.803528 
	C943.551697,956.035156 943.903687,957.293701 944.377869,958.816895 
	C940.593018,958.816895 937.159241,958.816895 933.564270,958.816895 
	C930.922668,951.059326 928.311768,943.391785 925.527039,935.213745 
	C913.939148,935.213745 902.330994,935.131348 890.728821,935.354858 
	C889.692810,935.374817 888.231812,937.207642 887.757324,938.490417 
	C885.282043,945.181396 883.062073,951.966675 880.712891,958.837219 
	C877.207581,958.837219 873.756104,958.837219 869.965576,958.837219 
	C875.819885,941.969543 881.584229,925.361084 887.525146,908.402100 
M910.292847,890.161682 
	C909.383484,887.695801 908.474182,885.229858 907.564819,882.763977 
	C907.181946,882.829041 906.799072,882.894043 906.416199,882.959106 
	C901.546265,897.315918 896.676331,911.672729 891.669495,926.433289 
	C902.116211,926.433289 911.978271,926.433289 922.540833,926.433289 
	C918.489014,914.332581 914.560242,902.599243 910.292847,890.161682 
z"/>
<path fill="#F9F9F9" opacity="1.000000" stroke="none" 
	d="
M120.066246,893.913940 
	C104.621330,880.769409 81.106201,887.085815 75.069839,905.905823 
	C71.529739,916.943115 71.558174,928.282288 75.062584,939.331299 
	C80.170189,955.435120 98.320450,962.795593 113.532227,955.371033 
	C120.025848,952.201599 122.982544,946.368286 125.517227,939.487793 
	C128.308701,940.843811 130.767914,942.038391 133.149170,943.195129 
	C131.131042,955.908997 120.339310,965.559814 106.892525,966.950684 
	C81.633286,969.563354 63.608772,954.293274 61.924206,928.873840 
	C61.279755,919.149353 61.765938,909.600159 65.764206,900.492737 
	C75.000931,879.452881 102.420143,870.913330 121.970787,883.076416 
	C127.047646,886.234924 130.735733,890.580811 132.679092,896.622253 
	C130.284607,898.196350 127.977478,899.712952 125.514442,901.332092 
	C123.591713,898.687866 121.953194,896.434509 120.066246,893.913940 
z"/>
<path fill="#000000" opacity="0.000000" stroke="none" 
	d="
M669.004456,686.003357 
	C724.697876,748.168945 780.161682,810.063354 836.117554,872.506775 
	C638.054565,872.506775 440.732849,872.506775 243.085373,872.506775 
	C243.085373,866.621582 243.085373,860.836243 243.085373,854.675232 
	C238.388718,854.675232 233.999496,854.675232 229.090927,854.675232 
	C229.090927,860.469238 229.090927,866.368225 229.090927,872.544128 
	C204.186966,872.544128 179.791962,872.544128 155.138794,872.544128 
	C155.138794,852.008911 155.138794,831.591553 155.138794,810.702332 
	C167.244278,810.702332 179.310425,810.702332 191.672729,810.702332 
	C191.672729,805.838684 191.672729,801.435181 191.672729,796.619995 
	C179.570877,796.619995 167.466843,796.619995 155.125183,796.619995 
	C155.125183,568.649597 155.125183,341.086853 155.125183,112.529266 
	C326.697906,303.994324 497.736420,494.863220 669.004456,686.003357 
M242.955002,811.513184 
	C242.955002,807.230713 242.955002,802.948242 242.955002,798.852051 
	C230.582748,794.494751 218.396347,797.510071 206.188370,796.385925 
	C206.188370,801.349854 206.188370,805.753601 206.188370,810.655029 
	C213.801987,810.655029 221.200409,810.655029 228.936966,810.655029 
	C228.936966,820.748962 228.936966,830.352600 228.936966,840.114014 
	C233.739182,840.114014 238.184006,840.114014 242.955002,840.114014 
	C242.955002,830.772461 242.955002,821.640381 242.955002,811.513184 
z"/>
<path fill="#070707" opacity="0.000000" stroke="none" 
	d="
M71.298416,88.802254 
	C71.298424,79.845970 71.298424,71.364388 71.298424,61.596149 
	C82.415039,62.176022 93.364105,62.025200 104.073090,63.554989 
	C111.434525,64.606583 114.599503,71.487793 114.053001,80.828888 
	C113.601036,88.554184 109.240494,94.303146 101.720978,94.824295 
	C91.819557,95.510529 81.834709,94.992928 71.298416,94.992928 
	C71.298416,93.148544 71.298416,91.212753 71.298416,88.802254 
z"/>
<path fill="#060606" opacity="0.000000" stroke="none" 
	d="
M108.451309,40.689934 
	C107.195312,48.997742 103.731003,52.838882 95.845016,53.346867 
	C87.922180,53.857227 79.940819,53.459103 71.642769,53.459103 
	C71.642769,44.348457 71.642769,35.314819 71.642769,26.068972 
	C80.391113,26.068972 89.031998,25.613894 97.600243,26.207375 
	C104.969505,26.717812 107.942619,31.179163 108.451309,40.689934 
z"/>
<path fill="#020202" opacity="0.000000" stroke="none" 
	d="
M535.996826,426.308624 
	C529.557373,426.308624 523.617615,426.308624 516.266907,426.308624 
	C527.209106,409.180420 537.514465,393.049103 547.819824,376.917786 
	C548.147095,377.057037 548.474304,377.196289 548.801514,377.335571 
	C548.801514,393.485077 548.801514,409.634583 548.801514,426.308624 
	C544.689087,426.308624 540.592896,426.308624 535.996826,426.308624 
z"/>
<path fill="#080808" opacity="0.000000" stroke="none" 
	d="
M910.462158,890.513794 
	C914.560242,902.599243 918.489014,914.332581 922.540833,926.433289 
	C911.978271,926.433289 902.116211,926.433289 891.669495,926.433289 
	C896.676331,911.672729 901.546265,897.315918 906.416199,882.959106 
	C906.799072,882.894043 907.181946,882.829041 907.564819,882.763977 
	C908.474182,885.229858 909.383484,887.695801 910.462158,890.513794 
z"/>
<path fill="#FAFAFA" opacity="1.000000" stroke="none" 
	d="
M242.955002,812.010742 
	C242.955002,821.640381 242.955002,830.772461 242.955002,840.114014 
	C238.184006,840.114014 233.739182,840.114014 228.936966,840.114014 
	C228.936966,830.352600 228.936966,820.748962 228.936966,810.655029 
	C221.200409,810.655029 213.801987,810.655029 206.188370,810.655029 
	C206.188370,805.753601 206.188370,801.349854 206.188370,796.385925 
	C218.396347,797.510071 230.582748,794.494751 242.955002,798.852051 
	C242.955002,802.948242 242.955002,807.230713 242.955002,812.010742 
z"/>
</svg>