<svg version="1.1" id="Layer_1" xmlns="http://www.w3.org/2000/svg" xmlns:xlink="http://www.w3.org/1999/xlink" x="0px" y="0px"
	 width="100%" viewBox="0 0 1009 998" enable-background="new 0 0 1009 998" xml:space="preserve">
<path fill="#000000" opacity="0.000000" stroke="none" 
	d="
M1010.000000,376.000000 
	C1010.000000,584.000000 1010.000000,791.500000 1010.000000,999.000000 
	C673.666687,999.000000 337.333344,999.000000 1.000000,999.000000 
	C1.000000,666.333313 1.000000,333.666656 1.000000,1.000000 
	C337.333344,1.000000 673.666687,1.000000 1010.000000,1.000000 
	C1010.000000,125.833336 1010.000000,250.666672 1010.000000,376.000000 
M764.044067,838.355591 
	C813.605469,864.207397 863.166870,890.059143 912.612366,915.850464 
	C914.312317,913.853577 915.680420,912.246460 917.168518,910.498474 
	C916.553833,909.572754 915.922729,908.613892 915.283325,907.660522 
	C773.048828,695.577393 630.814575,483.494080 488.572357,271.416168 
	C486.117554,267.756165 483.526489,264.790619 479.262268,262.373657 
	C367.925903,199.268326 256.778931,135.828781 145.596390,72.451996 
	C124.546837,60.453228 103.484627,48.476662 82.541374,36.554245 
	C80.615311,38.196911 78.937706,39.627670 77.206192,41.104408 
	C148.331955,224.922287 219.431534,408.672485 290.505066,592.355347 
	C293.145660,591.810242 295.325378,591.360291 297.505096,590.910339 
	C297.261505,591.409912 297.017914,591.909424 296.774323,592.408997 
	C298.234344,593.982849 299.402832,596.115173 301.195831,597.051025 
	C455.222839,677.441406 609.298035,757.739563 764.044067,838.355591 
M512.069763,203.293213 
	C505.803589,203.293213 499.537415,203.293213 493.335266,203.293213 
	C493.335266,219.551910 493.335266,235.138306 493.335266,251.027985 
	C499.410980,251.027985 505.215607,251.034454 511.020233,251.023575 
	C512.519165,251.020767 514.027039,251.058319 515.515259,250.915573 
	C523.617493,250.138245 528.050293,245.079727 528.048462,236.985077 
	C528.046997,230.545761 524.299805,227.026016 518.616638,224.872574 
	C524.752075,219.874634 526.193970,215.874161 524.084778,210.451538 
	C522.104370,205.359879 517.769409,203.993057 512.069763,203.293213 
M154.575592,328.757019 
	C146.859283,325.822144 140.369522,327.407684 134.940048,335.102600 
	C134.727798,327.739655 135.109024,321.473145 140.879257,317.737061 
	C146.734970,313.945587 152.569290,315.690247 157.757645,320.197876 
	C158.854630,318.779602 159.739609,317.635406 160.599503,316.523682 
	C152.283630,306.571014 135.934097,309.327515 131.157639,321.585144 
	C127.732399,330.375214 127.834221,339.511932 130.936829,348.420441 
	C133.595474,356.054230 139.609390,360.040436 147.256363,359.823700 
	C154.459290,359.619568 160.096710,355.547577 161.945679,349.213409 
	C164.300186,341.147369 161.806793,333.599091 154.575592,328.757019 
M977.062256,933.526123 
	C977.249634,930.711243 977.736755,927.878357 977.569214,925.084778 
	C977.026245,916.033752 974.020264,907.724731 964.559998,905.301453 
	C956.415955,903.215271 947.695557,903.378723 939.162964,902.540894 
	C939.162964,919.557007 939.162964,935.135559 939.162964,951.003479 
	C944.867920,951.003479 950.331055,951.100647 955.789612,950.983276 
	C967.341858,950.734985 973.765564,945.641418 977.062256,933.526123 
M572.449890,771.055664 
	C562.583130,762.170593 548.839905,764.378235 543.785339,776.010071 
	C539.693115,785.427429 539.853516,795.171082 543.864563,804.653503 
	C546.773560,811.530640 552.423584,814.761353 559.697144,814.758301 
	C566.997803,814.755249 572.815186,811.467957 575.429199,804.537781 
	C579.666016,793.305176 579.864807,782.114014 572.449890,771.055664 
M319.319275,93.245506 
	C312.872131,93.245506 306.424988,93.245506 299.371033,93.245506 
	C299.371033,102.166130 299.371033,110.591408 299.371033,119.268829 
	C302.180817,121.116081 303.661652,118.824936 305.583496,116.885361 
	C309.040771,113.396194 313.289368,113.183273 317.576233,115.151268 
	C321.400360,116.906822 323.346924,121.857704 322.586548,127.261391 
	C321.962280,131.698029 320.176056,135.191147 315.265076,136.177979 
	C308.402008,137.557037 303.685791,134.957901 301.241638,128.224457 
	C299.508850,129.049591 298.211945,129.667160 296.979950,130.253830 
	C298.834137,137.808304 303.353333,141.333939 311.424744,141.794571 
	C318.949158,142.223969 325.047272,138.656357 327.495209,132.392746 
	C330.255798,125.329163 328.671173,115.790894 323.365356,112.207092 
	C320.659668,110.379547 316.884155,109.179672 313.668549,109.329895 
	C310.396942,109.482735 307.219147,111.643036 303.950714,112.944016 
	C304.171600,108.384048 304.411133,103.439095 304.667175,98.153740 
	C312.111481,98.153740 319.050873,98.153740 326.313721,98.153740 
	C326.192810,96.338387 326.098145,94.916924 325.986847,93.245506 
	C323.860382,93.245506 322.056885,93.245506 319.319275,93.245506 
M284.879517,623.505554 
	C283.322662,619.134277 281.974976,614.668457 280.069733,610.454712 
	C279.559265,609.325745 277.339844,608.384949 275.919647,608.404846 
	C274.272430,608.427979 271.576752,609.214417 271.164246,610.339722 
	C265.660522,625.354126 260.477325,640.486084 255.124512,655.846436 
	C257.370483,655.846436 259.150940,655.846436 260.759277,655.846436 
	C262.636169,651.455933 263.340179,645.453125 266.494446,643.583130 
	C270.073669,641.460999 275.846222,643.035645 280.665253,643.008728 
	C282.306671,642.999573 283.948120,643.007263 285.558441,643.007263 
	C287.137360,647.524597 288.600525,651.710754 290.044983,655.843445 
	C292.108765,655.843445 293.900909,655.843445 296.104218,655.843445 
	C292.358246,645.126343 288.712616,634.696350 284.879517,623.505554 
M21.006895,26.618647 
	C17.846754,35.861156 17.727144,45.001400 22.981401,53.499687 
	C30.620808,65.855736 50.393250,65.958038 56.870419,53.914211 
	C58.680733,50.548054 58.577843,48.386021 54.225098,47.946213 
	C49.204762,56.607410 44.729160,58.882198 36.494717,57.041702 
	C29.946199,55.578030 25.805857,50.009995 25.195879,41.262848 
	C24.978907,38.151440 25.181530,34.922432 25.773375,31.859320 
	C27.639030,22.203550 34.190434,17.304953 43.741570,19.241364 
	C47.579323,20.019436 50.961842,23.042910 55.456814,25.549158 
	C55.539139,25.491285 56.818878,24.591663 58.058449,23.720282 
	C54.505444,15.948628 48.221542,13.796522 40.751316,13.754380 
	C31.701214,13.703324 25.192835,17.732533 21.006895,26.618647 
M513.967957,768.678284 
	C511.011200,769.693848 508.054443,770.709412 504.995850,771.759949 
	C504.995850,773.370728 504.995850,774.945374 504.995850,777.022888 
	C509.195160,775.660034 512.998901,774.425537 516.780396,773.198242 
	C516.780396,785.327271 516.780396,797.094910 516.780396,809.316345 
	C512.473145,809.316345 508.393280,809.316345 503.985779,809.316345 
	C504.121185,811.166687 504.221008,812.530640 504.311554,813.768127 
	C514.489319,813.768127 524.230225,813.768127 534.289795,813.768127 
	C534.133911,812.071716 534.005066,810.669861 533.852356,809.007568 
	C530.046204,809.007568 526.600647,809.007568 522.652588,809.007568 
	C522.652588,794.669067 522.652588,780.617981 522.652588,765.530518 
	C519.457397,766.627258 517.051880,767.452942 513.967957,768.678284 
z"/>
<path fill="#F6F6F6" opacity="1.000000" stroke="none" 
	d="
M763.706970,838.199829 
	C609.298035,757.739563 455.222839,677.441406 301.195831,597.051025 
	C299.402832,596.115173 298.234344,593.982849 296.774323,592.408997 
	C297.017914,591.909424 297.261505,591.409912 297.505096,590.910339 
	C295.325378,591.360291 293.145660,591.810242 290.505066,592.355347 
	C219.431534,408.672485 148.331955,224.922287 77.206192,41.104408 
	C78.937706,39.627670 80.615311,38.196911 82.541374,36.554245 
	C103.484627,48.476662 124.546837,60.453228 145.596390,72.451996 
	C256.778931,135.828781 367.925903,199.268326 479.262268,262.373657 
	C483.526489,264.790619 486.117554,267.756165 488.572357,271.416168 
	C630.814575,483.494080 773.048828,695.577393 915.283325,907.660522 
	C915.922729,908.613892 916.553833,909.572754 917.168518,910.498474 
	C915.680420,912.246460 914.312317,913.853577 912.612366,915.850464 
	C863.166870,890.059143 813.605469,864.207397 763.706970,838.199829 
M863.956848,843.593445 
	C736.170532,653.069580 608.384277,462.545746 480.291443,271.564941 
	C427.051941,367.632141 374.154388,463.082245 321.119568,558.780090 
	C326.644470,561.940979 332.040253,565.028015 337.543396,568.176392 
	C336.127594,570.555664 335.063995,572.342957 334.021576,574.094727 
	C328.308868,570.964294 323.087097,568.102905 317.616180,565.104980 
	C312.883331,573.678345 308.289215,582.000366 303.609222,590.477966 
	C318.803558,598.374146 333.459045,605.990234 348.051147,613.573425 
	C349.347992,611.639954 350.250244,610.294739 351.243500,608.813904 
	C353.282196,610.008301 355.098175,611.072205 356.948425,612.156189 
	C356.140503,613.876404 355.467621,615.309143 354.646271,617.057922 
	C537.128479,712.159424 719.341980,807.120911 901.555481,902.082397 
	C901.867676,901.765259 902.179871,901.448120 902.492004,901.130981 
	C889.775757,882.154602 877.059448,863.178223 863.956848,843.593445 
M425.531189,355.931854 
	C435.907776,337.198273 446.284393,318.464661 456.735229,299.597015 
	C450.979828,296.274353 445.543610,293.135956 439.900146,289.877930 
	C441.185425,287.689117 442.291138,285.806091 443.418457,283.886292 
	C449.234558,287.161743 454.553101,290.156982 460.224792,293.351105 
	C465.012787,284.689636 469.620392,276.354523 474.333008,267.829468 
	C459.459595,259.358704 445.045319,251.149445 430.592438,242.918198 
	C429.237122,245.058914 428.011047,246.995422 426.730316,249.018295 
	C424.669525,247.800278 422.848175,246.723801 420.977264,245.618042 
	C422.081268,243.423782 423.090027,241.418839 424.182159,239.248154 
	C312.063660,175.358765 200.211044,111.620903 87.101311,47.166679 
	C157.228653,228.406403 226.757248,408.098724 296.564178,588.510315 
	C339.621521,510.818604 382.371765,433.680908 425.531189,355.931854 
z"/>
<path fill="#F1F1F1" opacity="1.000000" stroke="none" 
	d="
M512.512573,203.329559 
	C517.769409,203.993057 522.104370,205.359879 524.084778,210.451538 
	C526.193970,215.874161 524.752075,219.874634 518.616638,224.872574 
	C524.299805,227.026016 528.046997,230.545761 528.048462,236.985077 
	C528.050293,245.079727 523.617493,250.138245 515.515259,250.915573 
	C514.027039,251.058319 512.519165,251.020767 511.020233,251.023575 
	C505.215607,251.034454 499.410980,251.027985 493.335266,251.027985 
	C493.335266,235.138306 493.335266,219.551910 493.335266,203.293213 
	C499.537415,203.293213 505.803589,203.293213 512.512573,203.329559 
M511.152863,228.041733 
	C507.211029,228.041733 503.269226,228.041733 499.236023,228.041733 
	C499.236023,234.308548 499.236023,240.164673 499.236023,246.079437 
	C504.507904,246.079437 509.481781,246.298599 514.427246,246.017731 
	C519.358521,245.737656 521.878357,242.852631 522.113953,237.992920 
	C522.435486,231.359589 519.865662,228.818924 511.152863,228.041733 
M498.923584,212.613663 
	C498.923584,216.046783 498.923584,219.479919 498.923584,223.182632 
	C503.509186,223.182632 507.619080,223.328476 511.714233,223.145020 
	C516.619202,222.925278 519.058105,220.314255 519.091614,215.671448 
	C519.125183,211.015549 516.783142,208.475021 511.775482,208.140640 
	C508.477539,207.920441 505.137726,208.273468 501.848389,207.994980 
	C498.716949,207.729843 498.760925,209.525360 498.923584,212.613663 
z"/>
<path fill="#F1F1F1" opacity="1.000000" stroke="none" 
	d="
M154.927963,328.896210 
	C161.806793,333.599091 164.300186,341.147369 161.945679,349.213409 
	C160.096710,355.547577 154.459290,359.619568 147.256363,359.823700 
	C139.609390,360.040436 133.595474,356.054230 130.936829,348.420441 
	C127.834221,339.511932 127.732399,330.375214 131.157639,321.585144 
	C135.934097,309.327515 152.283630,306.571014 160.599503,316.523682 
	C159.739609,317.635406 158.854630,318.779602 157.757645,320.197876 
	C152.569290,315.690247 146.734970,313.945587 140.879257,317.737061 
	C135.109024,321.473145 134.727798,327.739655 134.940048,335.102600 
	C140.369522,327.407684 146.859283,325.822144 154.927963,328.896210 
M138.475815,350.949371 
	C139.499146,351.770203 140.422470,352.783112 141.563843,353.377197 
	C145.603287,355.479889 151.241165,354.652679 154.001480,351.695618 
	C157.020752,348.461090 157.671127,341.505127 155.293060,337.189545 
	C152.951004,332.939301 149.092834,331.995636 144.687057,332.681732 
	C136.961380,333.884766 134.158478,341.395325 138.475815,350.949371 
z"/>
<path fill="#F0F0F0" opacity="1.000000" stroke="none" 
	d="
M977.020386,933.941284 
	C973.765564,945.641418 967.341858,950.734985 955.789612,950.983276 
	C950.331055,951.100647 944.867920,951.003479 939.162964,951.003479 
	C939.162964,935.135559 939.162964,919.557007 939.162964,902.540894 
	C947.695557,903.378723 956.415955,903.215271 964.559998,905.301453 
	C974.020264,907.724731 977.026245,916.033752 977.569214,925.084778 
	C977.736755,927.878357 977.249634,930.711243 977.020386,933.941284 
M969.982483,937.033630 
	C975.767883,917.956543 968.589355,908.092224 948.976074,908.188171 
	C947.690979,908.194458 946.406555,908.329346 944.963013,908.413757 
	C944.963013,921.031799 944.963013,933.381226 944.963013,946.024414 
	C948.987366,946.024414 952.778442,946.174866 956.553040,945.989624 
	C962.403687,945.702393 967.128174,943.400452 969.982483,937.033630 
z"/>
<path fill="#F3F3F3" opacity="1.000000" stroke="none" 
	d="
M572.685059,771.329895 
	C579.864807,782.114014 579.666016,793.305176 575.429199,804.537781 
	C572.815186,811.467957 566.997803,814.755249 559.697144,814.758301 
	C552.423584,814.761353 546.773560,811.530640 543.864563,804.653503 
	C539.853516,795.171082 539.693115,785.427429 543.785339,776.010071 
	C548.839905,764.378235 562.583130,762.170593 572.685059,771.329895 
M565.025391,772.084778 
	C556.646118,769.438843 550.127747,771.646606 548.793640,779.168701 
	C547.524475,786.324585 547.751831,793.987244 548.753296,801.229065 
	C549.571289,807.143982 554.125366,809.518738 560.183899,809.339600 
	C565.729553,809.175598 570.015442,806.407288 570.792480,800.705017 
	C571.675720,794.222961 571.722656,787.483276 570.980713,780.987183 
	C570.636597,777.974548 567.564209,775.273499 565.025391,772.084778 
z"/>
<path fill="#F0F0F0" opacity="1.000000" stroke="none" 
	d="
M319.786316,93.245506 
	C322.056885,93.245506 323.860382,93.245506 325.986847,93.245506 
	C326.098145,94.916924 326.192810,96.338387 326.313721,98.153740 
	C319.050873,98.153740 312.111481,98.153740 304.667175,98.153740 
	C304.411133,103.439095 304.171600,108.384048 303.950714,112.944016 
	C307.219147,111.643036 310.396942,109.482735 313.668549,109.329895 
	C316.884155,109.179672 320.659668,110.379547 323.365356,112.207092 
	C328.671173,115.790894 330.255798,125.329163 327.495209,132.392746 
	C325.047272,138.656357 318.949158,142.223969 311.424744,141.794571 
	C303.353333,141.333939 298.834137,137.808304 296.979950,130.253830 
	C298.211945,129.667160 299.508850,129.049591 301.241638,128.224457 
	C303.685791,134.957901 308.402008,137.557037 315.265076,136.177979 
	C320.176056,135.191147 321.962280,131.698029 322.586548,127.261391 
	C323.346924,121.857704 321.400360,116.906822 317.576233,115.151268 
	C313.289368,113.183273 309.040771,113.396194 305.583496,116.885361 
	C303.661652,118.824936 302.180817,121.116081 299.371033,119.268829 
	C299.371033,110.591408 299.371033,102.166130 299.371033,93.245506 
	C306.424988,93.245506 312.872131,93.245506 319.786316,93.245506 
z"/>
<path fill="#F2F2F2" opacity="1.000000" stroke="none" 
	d="
M284.973267,623.885986 
	C288.712616,634.696350 292.358246,645.126343 296.104218,655.843445 
	C293.900909,655.843445 292.108765,655.843445 290.044983,655.843445 
	C288.600525,651.710754 287.137360,647.524597 285.558441,643.007263 
	C283.948120,643.007263 282.306671,642.999573 280.665253,643.008728 
	C275.846222,643.035645 270.073669,641.460999 266.494446,643.583130 
	C263.340179,645.453125 262.636169,651.455933 260.759277,655.846436 
	C259.150940,655.846436 257.370483,655.846436 255.124512,655.846436 
	C260.477325,640.486084 265.660522,625.354126 271.164246,610.339722 
	C271.576752,609.214417 274.272430,608.427979 275.919647,608.404846 
	C277.339844,608.384949 279.559265,609.325745 280.069733,610.454712 
	C281.974976,614.668457 283.322662,619.134277 284.973267,623.885986 
M277.264984,618.394592 
	C276.766937,617.049622 276.268890,615.704590 275.445038,613.479858 
	C272.535736,622.158508 269.931885,629.925964 267.286102,637.818420 
	C273.159271,637.818420 278.364075,637.818420 283.850861,637.818420 
	C281.682098,631.326233 279.636932,625.204041 277.264984,618.394592 
z"/>
<path fill="#F3F3F3" opacity="1.000000" stroke="none" 
	d="
M21.128315,26.253056 
	C25.192835,17.732533 31.701214,13.703324 40.751316,13.754380 
	C48.221542,13.796522 54.505444,15.948628 58.058449,23.720282 
	C56.818878,24.591663 55.539139,25.491285 55.456814,25.549158 
	C50.961842,23.042910 47.579323,20.019436 43.741570,19.241364 
	C34.190434,17.304953 27.639030,22.203550 25.773375,31.859320 
	C25.181530,34.922432 24.978907,38.151440 25.195879,41.262848 
	C25.805857,50.009995 29.946199,55.578030 36.494717,57.041702 
	C44.729160,58.882198 49.204762,56.607410 54.225098,47.946213 
	C58.577843,48.386021 58.680733,50.548054 56.870419,53.914211 
	C50.393250,65.958038 30.620808,65.855736 22.981401,53.499687 
	C17.727144,45.001400 17.846754,35.861156 21.128315,26.253056 
z"/>
<path fill="#EDEDED" opacity="1.000000" stroke="none" 
	d="
M514.307129,768.478516 
	C517.051880,767.452942 519.457397,766.627258 522.652588,765.530518 
	C522.652588,780.617981 522.652588,794.669067 522.652588,809.007568 
	C526.600647,809.007568 530.046204,809.007568 533.852356,809.007568 
	C534.005066,810.669861 534.133911,812.071716 534.289795,813.768127 
	C524.230225,813.768127 514.489319,813.768127 504.311554,813.768127 
	C504.221008,812.530640 504.121185,811.166687 503.985779,809.316345 
	C508.393280,809.316345 512.473145,809.316345 516.780396,809.316345 
	C516.780396,797.094910 516.780396,785.327271 516.780396,773.198242 
	C512.998901,774.425537 509.195160,775.660034 504.995850,777.022888 
	C504.995850,774.945374 504.995850,773.370728 504.995850,771.759949 
	C508.054443,770.709412 511.011200,769.693848 514.307129,768.478516 
z"/>
<path fill="#000000" opacity="0.000000" stroke="none" 
	d="
M864.150024,843.897644 
	C877.059448,863.178223 889.775757,882.154602 902.492004,901.130981 
	C902.179871,901.448120 901.867676,901.765259 901.555481,902.082397 
	C719.341980,807.120911 537.128479,712.159424 354.646271,617.057922 
	C355.467621,615.309143 356.140503,613.876404 356.948425,612.156189 
	C355.098175,611.072205 353.282196,610.008301 351.243500,608.813904 
	C350.250244,610.294739 349.347992,611.639954 348.051147,613.573425 
	C333.459045,605.990234 318.803558,598.374146 303.609222,590.477966 
	C308.289215,582.000366 312.883331,573.678345 317.616180,565.104980 
	C323.087097,568.102905 328.308868,570.964294 334.021576,574.094727 
	C335.063995,572.342957 336.127594,570.555664 337.543396,568.176392 
	C332.040253,565.028015 326.644470,561.940979 321.119568,558.780090 
	C374.154388,463.082245 427.051941,367.632141 480.291443,271.564941 
	C608.384277,462.545746 736.170532,653.069580 864.150024,843.897644 
M369.261627,590.164001 
	C372.108978,584.519958 366.643585,586.159973 364.509338,584.304443 
	C361.065918,590.533997 357.824615,596.397827 354.425873,602.546509 
	C356.530731,603.765564 358.351685,604.820190 360.473755,606.049255 
	C363.384918,600.842285 366.188202,595.828308 369.261627,590.164001 
M358.695312,579.796936 
	C353.714233,577.024475 348.733185,574.252014 343.622711,571.407532 
	C342.341858,573.789795 341.412384,575.518433 340.309753,577.569214 
	C346.400635,580.968201 352.298920,584.259705 358.699066,587.831299 
	C358.705505,584.921997 364.623901,583.295654 358.695312,579.796936 
z"/>
<path fill="#010101" opacity="0.000000" stroke="none" 
	d="
M425.326599,356.237549 
	C382.371765,433.680908 339.621521,510.818604 296.564178,588.510315 
	C226.757248,408.098724 157.228653,228.406403 87.101311,47.166679 
	C200.211044,111.620903 312.063660,175.358765 424.182159,239.248154 
	C423.090027,241.418839 422.081268,243.423782 420.977264,245.618042 
	C422.848175,246.723801 424.669525,247.800278 426.730316,249.018295 
	C428.011047,246.995422 429.237122,245.058914 430.592438,242.918198 
	C445.045319,251.149445 459.459595,259.358704 474.333008,267.829468 
	C469.620392,276.354523 465.012787,284.689636 460.224792,293.351105 
	C454.553101,290.156982 449.234558,287.161743 443.418457,283.886292 
	C442.291138,285.806091 441.185425,287.689117 439.900146,289.877930 
	C445.543610,293.135956 450.979828,296.274353 456.735229,299.597015 
	C446.284393,318.464661 435.907776,337.198273 425.326599,356.237549 
M416.993225,266.579437 
	C419.076477,262.864319 421.159698,259.149200 423.410553,255.135117 
	C421.251648,253.911041 419.428986,252.877609 417.345917,251.696533 
	C414.664124,256.397156 412.119476,260.848267 409.583588,265.304321 
	C406.237305,271.184418 406.358673,271.423492 413.430481,272.742004 
	C414.474274,270.930450 415.544189,269.073547 416.993225,266.579437 
M428.972992,275.635437 
	C425.740448,273.798248 422.507874,271.961090 419.014282,269.975555 
	C417.805664,272.143433 416.797974,273.950928 415.605804,276.089294 
	C421.822784,279.622742 427.728394,282.979218 433.894623,286.483795 
	C435.151672,284.135162 436.124847,282.316986 437.182465,280.341003 
	C434.459167,278.766937 432.042389,277.370056 428.972992,275.635437 
z"/>
<path fill="#020202" opacity="0.000000" stroke="none" 
	d="
M511.605652,228.046509 
	C519.865662,228.818924 522.435486,231.359589 522.113953,237.992920 
	C521.878357,242.852631 519.358521,245.737656 514.427246,246.017731 
	C509.481781,246.298599 504.507904,246.079437 499.236023,246.079437 
	C499.236023,240.164673 499.236023,234.308548 499.236023,228.041733 
	C503.269226,228.041733 507.211029,228.041733 511.605652,228.046509 
z"/>
<path fill="#030303" opacity="0.000000" stroke="none" 
	d="
M498.923676,212.129913 
	C498.760925,209.525360 498.716949,207.729843 501.848389,207.994980 
	C505.137726,208.273468 508.477539,207.920441 511.775482,208.140640 
	C516.783142,208.475021 519.125183,211.015549 519.091614,215.671448 
	C519.058105,220.314255 516.619202,222.925278 511.714233,223.145020 
	C507.619080,223.328476 503.509186,223.182632 498.923584,223.182632 
	C498.923584,219.479919 498.923584,216.046783 498.923676,212.129913 
z"/>
<path fill="#070707" opacity="0.000000" stroke="none" 
	d="
M138.254089,350.624023 
	C134.158478,341.395325 136.961380,333.884766 144.687057,332.681732 
	C149.092834,331.995636 152.951004,332.939301 155.293060,337.189545 
	C157.671127,341.505127 157.020752,348.461090 154.001480,351.695618 
	C151.241165,354.652679 145.603287,355.479889 141.563843,353.377197 
	C140.422470,352.783112 139.499146,351.770203 138.254089,350.624023 
z"/>
<path fill="#020202" opacity="0.000000" stroke="none" 
	d="
M969.858887,937.414856 
	C967.128174,943.400452 962.403687,945.702393 956.553040,945.989624 
	C952.778442,946.174866 948.987366,946.024414 944.963013,946.024414 
	C944.963013,933.381226 944.963013,921.031799 944.963013,908.413757 
	C946.406555,908.329346 947.690979,908.194458 948.976074,908.188171 
	C968.589355,908.092224 975.767883,917.956543 969.858887,937.414856 
z"/>
<path fill="#030303" opacity="0.000000" stroke="none" 
	d="
M565.377075,772.257935 
	C567.564209,775.273499 570.636597,777.974548 570.980713,780.987183 
	C571.722656,787.483276 571.675720,794.222961 570.792480,800.705017 
	C570.015442,806.407288 565.729553,809.175598 560.183899,809.339600 
	C554.125366,809.518738 549.571289,807.143982 548.753296,801.229065 
	C547.751831,793.987244 547.524475,786.324585 548.793640,779.168701 
	C550.127747,771.646606 556.646118,769.438843 565.377075,772.257935 
z"/>
<path fill="#070707" opacity="0.000000" stroke="none" 
	d="
M277.428375,618.738220 
	C279.636932,625.204041 281.682098,631.326233 283.850861,637.818420 
	C278.364075,637.818420 273.159271,637.818420 267.286102,637.818420 
	C269.931885,629.925964 272.535736,622.158508 275.445038,613.479858 
	C276.268890,615.704590 276.766937,617.049622 277.428375,618.738220 
z"/>
<path fill="#F2F2F2" opacity="1.000000" stroke="none" 
	d="
M369.126526,590.489136 
	C366.188202,595.828308 363.384918,600.842285 360.473755,606.049255 
	C358.351685,604.820190 356.530731,603.765564 354.425873,602.546509 
	C357.824615,596.397827 361.065918,590.533997 364.509338,584.304443 
	C366.643585,586.159973 372.108978,584.519958 369.126526,590.489136 
z"/>
<path fill="#F1F1F1" opacity="1.000000" stroke="none" 
	d="
M359.022003,579.939392 
	C364.623901,583.295654 358.705505,584.921997 358.699066,587.831299 
	C352.298920,584.259705 346.400635,580.968201 340.309753,577.569214 
	C341.412384,575.518433 342.341858,573.789795 343.622711,571.407532 
	C348.733185,574.252014 353.714233,577.024475 359.022003,579.939392 
z"/>
<path fill="#F1F1F1" opacity="1.000000" stroke="none" 
	d="
M416.803650,266.898041 
	C415.544189,269.073547 414.474274,270.930450 413.430481,272.742004 
	C406.358673,271.423492 406.237305,271.184418 409.583588,265.304321 
	C412.119476,260.848267 414.664124,256.397156 417.345917,251.696533 
	C419.428986,252.877609 421.251648,253.911041 423.410553,255.135117 
	C421.159698,259.149200 419.076477,262.864319 416.803650,266.898041 
z"/>
<path fill="#F2F2F2" opacity="1.000000" stroke="none" 
	d="
M429.299316,275.804321 
	C432.042389,277.370056 434.459167,278.766937 437.182465,280.341003 
	C436.124847,282.316986 435.151672,284.135162 433.894623,286.483795 
	C427.728394,282.979218 421.822784,279.622742 415.605804,276.089294 
	C416.797974,273.950928 417.805664,272.143433 419.014282,269.975555 
	C422.507874,271.961090 425.740448,273.798248 429.299316,275.804321 
z"/>
</svg>