<svg version="1.1" id="Layer_1" xmlns="http://www.w3.org/2000/svg" xmlns:xlink="http://www.w3.org/1999/xlink" x="0px" y="0px"
	 width="100%" viewBox="0 0 1080 1080" enable-background="new 0 0 1080 1080" xml:space="preserve">
<path fill="#000000" opacity="0.000000" stroke="none" 
	d="
M716.000000,1081.000000 
	C477.360809,1081.000000 239.221634,1081.000000 1.041225,1081.000000 
	C1.041225,721.069031 1.041225,361.138062 1.041225,1.103538 
	C360.889404,1.103538 720.778870,1.103538 1080.834229,1.103538 
	C1080.834229,360.999939 1080.834229,720.999939 1080.834229,1081.000000 
	C959.470947,1081.000000 837.985474,1081.000000 716.000000,1081.000000 
M539.500000,844.992798 
	C606.301514,844.992798 673.103027,844.992798 739.988770,844.992798 
	C740.167725,843.058655 740.315308,841.463379 740.467651,839.816406 
	C742.407898,839.537415 744.015930,839.306152 745.553345,839.085022 
	C745.553345,581.827148 745.553345,324.763672 745.553345,68.226311 
	C741.893738,67.064903 738.690796,66.048439 735.290466,64.969322 
	C550.214417,321.970673 365.057037,579.084961 180.710739,835.072998 
	C182.550095,838.769043 183.909714,841.501099 185.647354,844.992798 
	C302.592163,844.992798 420.546082,844.992798 539.500000,844.992798 
M827.300171,413.007233 
	C817.192444,410.699493 808.719788,413.412720 801.274963,422.808075 
	C801.274963,411.129547 801.274963,400.958313 801.274963,390.793640 
	C798.167419,390.793640 795.712646,390.793640 793.063232,390.793640 
	C793.063232,417.223724 793.063232,443.469696 793.063232,469.759949 
	C795.800354,469.759949 798.382812,469.759949 801.024414,469.759949 
	C801.188232,467.301758 801.335510,465.091370 801.482849,462.880981 
	C802.015015,462.528625 802.547180,462.176239 803.079346,461.823883 
	C803.348267,462.635742 803.379150,463.688568 803.921082,464.224121 
	C816.805054,476.955231 837.878540,471.986359 842.366455,454.440765 
	C844.310974,446.838654 843.768616,438.288757 842.836670,430.347687 
	C841.845825,421.905365 836.549194,415.859772 827.300171,413.007233 
M376.293762,439.883972 
	C393.807251,432.352264 392.486755,407.036133 384.140259,397.711792 
	C380.533600,393.682678 376.041107,391.473999 370.670044,390.953339 
	C363.622314,390.270203 357.265137,391.745270 351.801514,398.492249 
	C351.801514,389.097687 351.801514,381.450012 351.801514,373.493286 
	C363.546844,373.493286 374.636963,373.493286 385.853943,373.493286 
	C385.853943,370.807098 385.853943,368.448334 385.853943,366.233887 
	C371.750031,366.233887 357.998138,366.233887 343.525665,366.233887 
	C343.525665,379.927338 343.525665,393.330658 343.525665,406.833527 
	C347.058014,407.782715 349.951202,407.578186 352.899323,403.709686 
	C358.161316,396.804993 370.231415,396.638550 376.096558,402.593964 
	C381.186188,407.761902 382.247223,420.032654 378.208282,427.016388 
	C374.813568,432.886230 367.467072,435.304291 359.296539,433.610535 
	C352.392609,432.179382 349.235291,427.203217 347.065033,420.714508 
	C344.304260,422.024963 342.007751,423.115082 339.627777,424.244781 
	C341.610535,432.143646 345.756500,437.605072 353.101532,440.216675 
	C360.560669,442.868896 368.080872,442.884338 376.293762,439.883972 
M492.640381,882.800354 
	C503.013031,882.997131 507.291870,886.509033 507.331451,894.858276 
	C507.370117,903.011292 502.013153,907.820435 492.559204,908.069580 
	C490.102631,908.134338 487.642883,908.079285 485.019562,908.079285 
	C485.019562,910.751099 485.019562,913.023315 485.019562,916.028320 
	C489.696472,916.028320 494.193237,915.635803 498.594604,916.116699 
	C505.918884,916.917053 509.952393,921.546997 510.296997,928.685669 
	C510.692505,936.878601 507.480133,941.729126 499.866608,943.264893 
	C496.369995,943.970215 492.584198,943.901917 489.017944,943.464111 
	C481.609436,942.554688 478.390656,936.883789 476.042419,930.170349 
	C473.259338,931.388123 470.935852,932.404785 468.556458,933.445923 
	C470.704895,942.692627 475.799500,948.879211 484.515808,950.748657 
	C490.078918,951.941833 496.157532,952.164001 501.783356,951.328613 
	C512.864502,949.683167 518.343445,943.222473 519.486267,932.274536 
	C520.549805,922.085876 516.359619,915.638306 505.848877,911.240173 
	C505.493591,911.091431 505.244293,910.689514 504.910645,910.372437 
	C507.163849,908.618469 509.423676,907.187561 511.286316,905.353271 
	C519.868469,896.901978 517.420349,882.113892 506.402435,877.327271 
	C497.772919,873.578430 488.791870,873.513855 480.396637,878.085815 
	C476.936920,879.969788 474.185059,883.153442 470.892609,885.930359 
	C473.355713,888.529907 475.014069,890.280151 476.690277,892.049194 
	C483.589844,884.446045 485.013123,883.592529 492.640381,882.800354 
z"/>
<path fill="#FBFBFB" opacity="1.000000" stroke="none" 
	d="
M539.000000,844.992798 
	C420.546082,844.992798 302.592163,844.992798 185.647354,844.992798 
	C183.909714,841.501099 182.550095,838.769043 180.710739,835.072998 
	C365.057037,579.084961 550.214417,321.970673 735.290466,64.969322 
	C738.690796,66.048439 741.893738,67.064903 745.553345,68.226311 
	C745.553345,324.763672 745.553345,581.827148 745.553345,839.085022 
	C744.015930,839.306152 742.407898,839.537415 740.467651,839.816406 
	C740.315308,841.463379 740.167725,843.058655 739.988770,844.992798 
	C673.103027,844.992798 606.301514,844.992798 539.000000,844.992798 
M299.067780,689.605591 
	C264.613831,737.476746 230.159912,785.347839 195.426514,833.607300 
	C344.168823,833.607300 492.155121,833.607300 640.467651,833.607300 
	C640.467651,824.466248 640.467651,815.690674 640.467651,806.727417 
	C644.180481,806.727417 647.563416,806.727417 651.402344,806.727417 
	C651.402344,815.927063 651.402344,824.821838 651.402344,833.657471 
	C679.439819,833.657471 707.014709,833.657471 734.856079,833.657471 
	C734.856079,708.832703 734.856018,584.324158 734.856018,459.815582 
	C734.856018,335.271881 734.856079,210.728195 734.856079,86.184509 
	C734.523560,86.095016 734.191040,86.005516 733.858521,85.916023 
	C589.068665,286.952148 444.278809,487.988281 299.067780,689.605591 
z"/>
<path fill="#F9F9F9" opacity="1.000000" stroke="none" 
	d="
M827.699097,413.082581 
	C836.549194,415.859772 841.845825,421.905365 842.836670,430.347687 
	C843.768616,438.288757 844.310974,446.838654 842.366455,454.440765 
	C837.878540,471.986359 816.805054,476.955231 803.921082,464.224121 
	C803.379150,463.688568 803.348267,462.635742 803.079346,461.823883 
	C802.547180,462.176239 802.015015,462.528625 801.482849,462.880981 
	C801.335510,465.091370 801.188232,467.301758 801.024414,469.759949 
	C798.382812,469.759949 795.800354,469.759949 793.063232,469.759949 
	C793.063232,443.469696 793.063232,417.223724 793.063232,390.793640 
	C795.712646,390.793640 798.167419,390.793640 801.274963,390.793640 
	C801.274963,400.958313 801.274963,411.129547 801.274963,422.808075 
	C808.719788,413.412720 817.192444,410.699493 827.699097,413.082581 
M805.388916,426.005005 
	C799.940430,434.923187 800.090210,444.376068 803.389343,453.798676 
	C805.717224,460.447388 812.155334,463.844147 819.776550,463.432098 
	C827.449402,463.017273 832.379944,459.536255 834.024414,451.959595 
	C835.130920,446.861450 835.243530,441.432831 835.010559,436.187195 
	C834.706787,429.348114 832.063354,423.384949 824.990601,421.000061 
	C817.871155,418.599396 811.218445,419.534332 805.388916,426.005005 
z"/>
<path fill="#F6F6F6" opacity="1.000000" stroke="none" 
	d="
M375.923828,440.004822 
	C368.080872,442.884338 360.560669,442.868896 353.101532,440.216675 
	C345.756500,437.605072 341.610535,432.143646 339.627777,424.244781 
	C342.007751,423.115082 344.304260,422.024963 347.065033,420.714508 
	C349.235291,427.203217 352.392609,432.179382 359.296539,433.610535 
	C367.467072,435.304291 374.813568,432.886230 378.208282,427.016388 
	C382.247223,420.032654 381.186188,407.761902 376.096558,402.593964 
	C370.231415,396.638550 358.161316,396.804993 352.899323,403.709686 
	C349.951202,407.578186 347.058014,407.782715 343.525665,406.833527 
	C343.525665,393.330658 343.525665,379.927338 343.525665,366.233887 
	C357.998138,366.233887 371.750031,366.233887 385.853943,366.233887 
	C385.853943,368.448334 385.853943,370.807098 385.853943,373.493286 
	C374.636963,373.493286 363.546844,373.493286 351.801514,373.493286 
	C351.801514,381.450012 351.801514,389.097687 351.801514,398.492249 
	C357.265137,391.745270 363.622314,390.270203 370.670044,390.953339 
	C376.041107,391.473999 380.533600,393.682678 384.140259,397.711792 
	C392.486755,407.036133 393.807251,432.352264 375.923828,440.004822 
M351.557037,397.975189 
	C351.640503,397.741608 351.723999,397.507996 351.807495,397.274384 
	C351.580048,397.345093 351.352600,397.415802 351.557037,397.975189 
z"/>
<path fill="#F6F6F6" opacity="1.000000" stroke="none" 
	d="
M492.206360,882.819641 
	C485.013123,883.592529 483.589844,884.446045 476.690277,892.049194 
	C475.014069,890.280151 473.355713,888.529907 470.892609,885.930359 
	C474.185059,883.153442 476.936920,879.969788 480.396637,878.085815 
	C488.791870,873.513855 497.772919,873.578430 506.402435,877.327271 
	C517.420349,882.113892 519.868469,896.901978 511.286316,905.353271 
	C509.423676,907.187561 507.163849,908.618469 504.910645,910.372437 
	C505.244293,910.689514 505.493591,911.091431 505.848877,911.240173 
	C516.359619,915.638306 520.549805,922.085876 519.486267,932.274536 
	C518.343445,943.222473 512.864502,949.683167 501.783356,951.328613 
	C496.157532,952.164001 490.078918,951.941833 484.515808,950.748657 
	C475.799500,948.879211 470.704895,942.692627 468.556458,933.445923 
	C470.935852,932.404785 473.259338,931.388123 476.042419,930.170349 
	C478.390656,936.883789 481.609436,942.554688 489.017944,943.464111 
	C492.584198,943.901917 496.369995,943.970215 499.866608,943.264893 
	C507.480133,941.729126 510.692505,936.878601 510.296997,928.685669 
	C509.952393,921.546997 505.918884,916.917053 498.594604,916.116699 
	C494.193237,915.635803 489.696472,916.028320 485.019562,916.028320 
	C485.019562,913.023315 485.019562,910.751099 485.019562,908.079285 
	C487.642883,908.079285 490.102631,908.134338 492.559204,908.069580 
	C502.013153,907.820435 507.370117,903.011292 507.331451,894.858276 
	C507.291870,886.509033 503.013031,882.997131 492.206360,882.819641 
z"/>
<path fill="#000000" opacity="0.000000" stroke="none" 
	d="
M299.278381,689.315002 
	C444.278809,487.988281 589.068665,286.952148 733.858521,85.916023 
	C734.191040,86.005516 734.523560,86.095016 734.856079,86.184509 
	C734.856079,210.728195 734.856018,335.271881 734.856018,459.815582 
	C734.856018,584.324158 734.856079,708.832703 734.856079,833.657471 
	C707.014709,833.657471 679.439819,833.657471 651.402344,833.657471 
	C651.402344,824.821838 651.402344,815.927063 651.402344,806.727417 
	C647.563416,806.727417 644.180481,806.727417 640.467651,806.727417 
	C640.467651,815.690674 640.467651,824.466248 640.467651,833.607300 
	C492.155121,833.607300 344.168823,833.607300 195.426514,833.607300 
	C230.159912,785.347839 264.613831,737.476746 299.278381,689.315002 
M645.888672,740.379639 
	C644.277466,741.627625 642.666321,742.875671 640.578979,744.492493 
	C640.578979,746.051392 640.578979,748.593872 640.578979,751.169739 
	C644.200684,751.169739 649.468872,752.400635 650.379089,750.931519 
	C652.796631,747.029480 655.824219,748.530762 658.580505,748.433838 
	C665.296997,748.197571 672.027405,748.356812 678.736572,748.356812 
	C678.736572,744.381592 678.736572,741.107605 678.736572,737.296021 
	C668.301270,737.296021 658.057373,737.256226 647.815857,737.389893 
	C647.165588,737.398376 646.532837,738.755615 645.888672,740.379639 
M651.304626,785.417725 
	C651.304626,777.835510 651.304626,770.253296 651.304626,762.753174 
	C647.318726,762.753174 643.921753,762.753174 640.583557,762.753174 
	C640.583557,773.786987 640.583557,784.456604 640.583557,795.129395 
	C644.310059,795.129395 647.684509,795.129395 651.304565,795.129395 
	C651.304565,791.986633 651.304565,789.186218 651.304626,785.417725 
M689.889526,745.252686 
	C690.550476,746.284424 691.194885,748.202393 691.874878,748.215088 
	C702.140259,748.406677 712.410400,748.347900 722.617432,748.347900 
	C722.617432,744.450256 722.617432,741.044067 722.617432,737.284668 
	C717.012634,737.284668 711.721924,737.284668 706.431213,737.284668 
	C700.998474,737.284668 695.565735,737.284668 689.889404,737.284668 
	C689.889404,740.038391 689.889404,742.188293 689.889526,745.252686 
z"/>
<path fill="#030303" opacity="0.000000" stroke="none" 
	d="
M805.633057,425.722870 
	C811.218445,419.534332 817.871155,418.599396 824.990601,421.000061 
	C832.063354,423.384949 834.706787,429.348114 835.010559,436.187195 
	C835.243530,441.432831 835.130920,446.861450 834.024414,451.959595 
	C832.379944,459.536255 827.449402,463.017273 819.776550,463.432098 
	C812.155334,463.844147 805.717224,460.447388 803.389343,453.798676 
	C800.090210,444.376068 799.940430,434.923187 805.633057,425.722870 
z"/>
<path fill="#000000" opacity="0.000000" stroke="none" 
	d="
M351.341095,397.730835 
	C351.352600,397.415802 351.580048,397.345093 351.807495,397.274414 
	C351.723999,397.507996 351.640503,397.741608 351.341095,397.730835 
z"/>
<path fill="#F5F5F5" opacity="1.000000" stroke="none" 
	d="
M645.890259,739.932495 
	C646.532837,738.755615 647.165588,737.398376 647.815857,737.389893 
	C658.057373,737.256226 668.301270,737.296021 678.736572,737.296021 
	C678.736572,741.107605 678.736572,744.381592 678.736572,748.356812 
	C672.027405,748.356812 665.296997,748.197571 658.580505,748.433838 
	C655.824219,748.530762 652.796631,747.029480 650.379089,750.931519 
	C649.468872,752.400635 644.200684,751.169739 640.578979,751.169739 
	C640.578979,748.593872 640.578979,746.051392 640.578979,744.492493 
	C642.666321,742.875671 644.277466,741.627625 645.890259,739.932495 
z"/>
<path fill="#F5F5F5" opacity="1.000000" stroke="none" 
	d="
M651.304565,785.901794 
	C651.304565,789.186218 651.304565,791.986633 651.304565,795.129395 
	C647.684509,795.129395 644.310059,795.129395 640.583557,795.129395 
	C640.583557,784.456604 640.583557,773.786987 640.583557,762.753174 
	C643.921753,762.753174 647.318726,762.753174 651.304626,762.753174 
	C651.304626,770.253296 651.304626,777.835510 651.304565,785.901794 
z"/>
<path fill="#F5F5F5" opacity="1.000000" stroke="none" 
	d="
M689.889465,744.795410 
	C689.889404,742.188293 689.889404,740.038391 689.889404,737.284668 
	C695.565735,737.284668 700.998474,737.284668 706.431213,737.284668 
	C711.721924,737.284668 717.012634,737.284668 722.617432,737.284668 
	C722.617432,741.044067 722.617432,744.450256 722.617432,748.347900 
	C712.410400,748.347900 702.140259,748.406677 691.874878,748.215088 
	C691.194885,748.202393 690.550476,746.284424 689.889465,744.795410 
z"/>
</svg>