<svg version="1.1" id="Layer_1" xmlns="http://www.w3.org/2000/svg" xmlns:xlink="http://www.w3.org/1999/xlink" x="0px" y="0px"
	 width="100%" viewBox="0 0 1080 1080" enable-background="new 0 0 1080 1080" xml:space="preserve">
<path fill="#000000" opacity="0.000000" stroke="none" 
	d="
M1081.000000,411.000000 
	C1081.000000,634.640869 1081.000000,857.781738 1081.000000,1080.961304 
	C721.067444,1080.961304 361.134857,1080.961304 1.101150,1080.961304 
	C1.101150,721.109070 1.101150,361.218140 1.101150,1.163592 
	C360.999939,1.163592 720.999939,1.163592 1081.000000,1.163592 
	C1081.000000,137.531921 1081.000000,274.015961 1081.000000,411.000000 
M84.999939,543.954041 
	C85.143471,596.381775 94.115608,647.282776 112.121864,696.491272 
	C141.959427,778.032776 191.005768,845.812683 259.243622,899.526978 
	C319.875000,947.253662 388.391693,977.529602 464.423004,990.532715 
	C489.052094,994.744812 513.882324,997.625427 539.763000,997.135498 
	C540.850220,997.052856 541.937378,996.970215 543.952698,997.001404 
	C579.409668,997.258179 614.385071,992.933105 648.734558,984.476135 
	C692.330322,973.742554 733.627319,957.120911 772.330322,934.124878 
	C824.353699,903.214294 868.765625,863.843323 905.191833,815.536743 
	C947.076172,759.992004 974.915833,698.109131 988.386902,629.816895 
	C994.038452,601.165894 997.244568,572.271667 997.042725,542.229187 
	C996.982605,541.142700 996.922424,540.056213 996.998108,538.044922 
	C996.396667,525.570496 996.126587,513.069702 995.134521,500.626465 
	C991.472473,454.693970 980.749023,410.384460 962.987122,367.901123 
	C921.497314,268.664917 853.526672,192.904266 759.578308,140.656143 
	C715.645874,116.223686 668.706970,99.997078 619.061218,91.687813 
	C593.881958,87.473534 568.618225,84.517334 542.227661,85.012321 
	C541.140869,85.059212 540.054077,85.106102 538.044922,85.001709 
	C514.353638,84.906296 490.864197,86.976959 467.473419,90.812035 
	C391.327240,103.296730 322.753601,133.106506 261.771515,180.327606 
	C214.891006,216.629227 176.487686,260.481995 146.643997,311.671417 
	C119.201927,358.741577 100.719093,409.187561 91.618202,462.980988 
	C87.363556,488.129425 84.653648,513.416138 84.937943,539.769226 
	C85.002327,540.855591 85.066711,541.942017 84.999939,543.954041 
z"/>
<path fill="#FBFBFB" opacity="1.000000" stroke="none" 
	d="
M543.033447,85.154015 
	C568.618225,84.517334 593.881958,87.473534 619.061218,91.687813 
	C668.706970,99.997078 715.645874,116.223686 759.578308,140.656143 
	C853.526672,192.904266 921.497314,268.664917 962.987122,367.901123 
	C980.749023,410.384460 991.472473,454.693970 995.134521,500.626465 
	C996.126587,513.069702 996.396667,525.570496 996.479492,538.523682 
	C992.613159,538.994934 989.265442,538.987427 985.965088,538.515198 
	C984.332886,419.148346 941.740845,317.095001 859.879150,231.097717 
	C859.204407,232.864914 859.203857,234.459152 859.204529,236.053406 
	C859.215149,261.708038 859.229492,287.362701 859.235901,313.017334 
	C859.254761,388.315033 859.270508,463.612701 858.862061,538.943359 
	C857.300415,538.986267 856.164246,538.996216 855.106323,538.542847 
	C855.184570,435.710632 855.184570,333.341827 855.184570,230.549255 
	C773.538513,312.247620 692.449524,393.388550 611.176208,474.713898 
	C617.035095,478.675690 621.376587,484.091431 622.656616,491.616791 
	C622.867737,492.858032 623.533752,494.277863 624.451050,495.100769 
	C629.699768,499.809723 630.746765,506.229889 631.900269,512.627625 
	C633.747375,522.872498 633.538574,532.484802 623.274780,538.869751 
	C622.157043,538.755920 621.386047,538.821045 620.434204,538.596069 
	C616.339600,535.953186 617.000977,533.216125 619.912842,530.728943 
	C624.303223,526.979004 625.882324,522.070618 624.782043,516.813110 
	C623.504639,510.709412 621.193726,504.818604 619.247986,498.862640 
	C619.005798,498.121368 618.151184,497.602844 617.756775,496.884247 
	C616.654663,494.876312 615.147949,492.921661 614.695374,490.758789 
	C613.485718,484.977386 609.586487,482.223236 604.306458,480.243835 
	C599.692200,484.940826 595.158386,489.582214 590.595886,494.195221 
	C575.857788,509.096497 561.109314,523.987366 545.970825,538.911194 
	C544.702820,537.722961 543.828857,536.505798 543.318481,535.301758 
	C559.853210,519.214294 576.109985,503.198212 592.133301,486.951904 
	C595.978516,483.053131 599.036560,478.379974 602.490173,474.089905 
	C602.874878,473.612061 603.462219,473.284973 603.986145,472.933533 
	C606.261230,471.407196 608.881714,470.232117 610.781860,468.334015 
	C690.800171,388.400574 770.754944,308.403564 850.712158,228.409042 
	C851.862915,227.257767 852.944824,226.037811 854.078979,224.828445 
	C853.422119,224.100571 853.009583,223.589874 852.543152,223.134415 
	C809.909363,181.502884 761.142761,149.305862 705.631836,127.413704 
	C653.378723,106.806366 599.209229,96.292557 543.017700,95.670303 
	C543.011353,91.856216 543.022400,88.505112 543.033447,85.154015 
z"/>
<path fill="#FAFAFA" opacity="1.000000" stroke="none" 
	d="
M996.863464,543.029297 
	C997.244568,572.271667 994.038452,601.165894 988.386902,629.816895 
	C974.915833,698.109131 947.076172,759.992004 905.191833,815.536743 
	C868.765625,863.843323 824.353699,903.214294 772.330322,934.124878 
	C733.627319,957.120911 692.330322,973.742554 648.734558,984.476135 
	C614.385071,992.933105 579.409668,997.258179 543.473389,996.491211 
	C543.006775,992.612793 543.019470,989.244568 543.496277,985.918335 
	C558.591064,985.249756 573.289612,985.199585 587.839539,983.703735 
	C630.412231,979.326904 671.570557,969.006714 711.090271,952.466553 
	C771.672974,927.110779 824.299194,890.398560 868.801208,842.021484 
	C909.757141,797.499268 940.290100,746.728210 960.536926,689.778564 
	C977.404419,642.334045 985.951721,593.409912 986.373779,543.014099 
	C990.177490,543.014160 993.520447,543.021729 996.863464,543.029297 
z"/>
<path fill="#FAFAFA" opacity="1.000000" stroke="none" 
	d="
M85.131256,538.971680 
	C84.653648,513.416138 87.363556,488.129425 91.618202,462.980988 
	C100.719093,409.187561 119.201927,358.741577 146.643997,311.671417 
	C176.487686,260.481995 214.891006,216.629227 261.771515,180.327606 
	C322.753601,133.106506 391.327240,103.296730 467.473419,90.812035 
	C490.864197,86.976959 514.353638,84.906296 538.524048,85.528122 
	C538.990723,89.413094 538.978271,92.771660 538.507812,96.087875 
	C490.722412,95.982086 444.614410,103.519188 399.804230,118.677872 
	C343.554688,137.706314 292.945984,166.498871 248.260437,205.825851 
	C185.686386,260.896210 141.618973,327.977905 116.338425,407.320374 
	C102.708878,450.096436 95.886971,494.025848 95.615761,538.984009 
	C91.814140,538.981628 88.472702,538.976624 85.131256,538.971680 
z"/>
<path fill="#FAFAFA" opacity="1.000000" stroke="none" 
	d="
M538.975830,996.887878 
	C513.882324,997.625427 489.052094,994.744812 464.423004,990.532715 
	C388.391693,977.529602 319.875000,947.253662 259.243622,899.526978 
	C191.005768,845.812683 141.959427,778.032776 112.121864,696.491272 
	C94.115608,647.282776 85.143471,596.381775 85.516693,543.474670 
	C89.383148,543.003662 92.732849,543.012024 96.036316,543.481201 
	C96.294090,552.429016 96.443436,560.924927 96.927864,569.401611 
	C99.548355,615.255493 109.080688,659.672241 126.196281,702.265137 
	C173.665588,820.394592 256.246918,904.292542 373.640259,953.473877 
	C426.402618,975.578430 481.689697,986.130676 538.983643,986.333496 
	C538.993103,990.160767 538.984497,993.524292 538.975830,996.887878 
z"/>
<path fill="#D1D1D1" opacity="1.000000" stroke="none" 
	d="
M96.082558,543.020386 
	C92.732849,543.012024 89.383148,543.003662 85.582268,543.011841 
	C85.066711,541.942017 85.002327,540.855591 85.034599,539.370483 
	C88.472702,538.976624 91.814140,538.981628 96.079506,538.990845 
	C244.238510,538.995117 391.473602,538.995117 538.965881,538.995117 
	C538.965881,391.006165 538.965881,243.568192 538.965881,96.130226 
	C538.978271,92.771660 538.990723,89.413094 538.985229,85.603760 
	C540.054077,85.106102 541.140869,85.059212 542.630554,85.083168 
	C543.022400,88.505112 543.011353,91.856216 543.009766,96.130371 
	C543.012939,125.369644 543.004700,153.685852 543.000854,182.002060 
	C542.984802,299.764252 542.970093,417.526459 542.954834,535.288635 
	C543.828857,536.505798 544.702820,537.722961 546.415161,538.938843 
	C571.707397,538.920471 596.161194,538.903320 620.615051,538.886169 
	C621.386047,538.821045 622.157043,538.755920 623.768860,538.846741 
	C701.415771,539.003906 778.221924,539.005066 855.028015,539.006226 
	C856.164246,538.996216 857.300415,538.986267 859.312012,538.957642 
	C902.097534,538.952637 944.007629,538.966248 985.917786,538.979858 
	C989.265442,538.987427 992.613159,538.994934 996.411560,538.986084 
	C996.922424,540.056213 996.982605,541.142700 996.953125,542.629272 
	C993.520447,543.021729 990.177490,543.014160 985.910767,543.005859 
	C837.752502,543.005127 690.517944,543.005127 543.032166,543.005127 
	C543.032166,690.998657 543.032166,838.437500 543.032166,985.876343 
	C543.019470,989.244568 543.006775,992.612793 543.009399,996.434326 
	C541.937378,996.970215 540.850220,997.052856 539.369385,997.011719 
	C538.984497,993.524292 538.993103,990.160767 538.991333,985.873291 
	C538.980896,837.718811 538.980896,690.488220 538.980896,543.020386 
	C390.967957,543.020386 243.525253,543.020386 96.082558,543.020386 
z"/>
<path fill="#010101" opacity="0.000000" stroke="none" 
	d="
M543.318481,535.301758 
	C542.970093,417.526459 542.984802,299.764252 543.000854,182.002060 
	C543.004700,153.685852 543.012939,125.369644 543.027100,96.593369 
	C599.209229,96.292557 653.378723,106.806366 705.631836,127.413704 
	C761.142761,149.305862 809.909363,181.502884 852.543152,223.134415 
	C853.009583,223.589874 853.422119,224.100571 854.078979,224.828445 
	C852.944824,226.037811 851.862915,227.257767 850.712158,228.409042 
	C770.754944,308.403564 690.800171,388.400574 610.781860,468.334015 
	C608.881714,470.232117 606.261230,471.407196 603.986145,472.933533 
	C603.462219,473.284973 602.874878,473.612061 602.490173,474.089905 
	C599.036560,478.379974 595.978516,483.053131 592.133301,486.951904 
	C576.109985,503.198212 559.853210,519.214294 543.318481,535.301758 
M717.114990,305.532043 
	C715.825867,306.762878 714.536804,307.993713 713.012512,309.449127 
	C702.492188,298.855255 692.190918,288.482025 681.064758,277.278076 
	C678.569275,282.573578 676.747803,287.298309 674.192505,291.585571 
	C672.199585,294.929108 673.078613,296.637115 676.548706,298.444061 
	C678.495667,294.603882 680.379944,290.887238 681.916748,287.856049 
	C690.774780,296.638702 699.569946,305.359070 709.278076,314.984558 
	C706.220093,317.501373 702.900024,320.233887 699.361206,323.146484 
	C700.990723,324.473450 702.078796,325.359436 702.546570,325.740356 
	C710.050354,318.260193 717.212830,311.120361 724.482239,303.873901 
	C723.692444,303.177917 722.642578,302.252747 721.257751,301.032379 
	C719.880188,302.556000 718.769165,303.784851 717.114990,305.532043 
M639.048462,375.440460 
	C638.701050,376.743134 637.915222,378.105988 638.084351,379.337769 
	C638.723450,383.993225 636.928040,387.430115 633.326355,390.115021 
	C629.743896,392.785583 625.571899,393.129059 622.128296,390.752899 
	C618.549927,388.283722 615.063599,385.104034 612.786743,381.455200 
	C608.965454,375.331146 612.385254,367.557434 619.298523,365.484924 
	C621.402832,364.854095 623.778748,365.129364 626.300232,364.972900 
	C626.507202,363.545898 626.711670,362.136292 626.944214,360.533051 
	C621.843079,359.049225 617.546753,359.737701 613.560791,362.813232 
	C606.301941,368.414093 603.963013,376.295563 607.410034,383.920990 
	C611.545410,393.069122 621.339478,398.875580 629.736633,397.157471 
	C638.479980,395.368500 644.859802,386.505219 642.920898,378.461639 
	C642.614990,377.192841 640.870850,376.270782 639.048462,375.440460 
M669.665710,331.682465 
	C663.490051,337.913177 657.314331,344.143921 650.913086,350.602203 
	C651.961182,351.600555 652.958313,352.550385 653.651550,353.210724 
	C660.553162,346.313965 667.199402,339.672485 674.494507,332.382538 
	C673.037659,331.948456 671.609619,331.522980 669.665710,331.682465 
M651.912903,329.410614 
	C648.209900,332.968262 644.506897,336.525909 640.565186,340.312836 
	C641.982849,341.636169 642.996704,342.582550 643.587036,343.133575 
	C650.495056,336.223114 657.140991,329.574890 663.932068,322.781433 
	C663.328125,322.145966 662.447510,321.219391 660.769714,319.454102 
	C657.892456,322.710205 655.153137,325.810181 651.912903,329.410614 
z"/>
<path fill="#010101" opacity="0.000000" stroke="none" 
	d="
M855.106323,538.542847 
	C778.221924,539.005066 701.415771,539.003906 624.115601,539.025757 
	C633.538574,532.484802 633.747375,522.872498 631.900269,512.627625 
	C630.746765,506.229889 629.699768,499.809723 624.451050,495.100769 
	C623.533752,494.277863 622.867737,492.858032 622.656616,491.616791 
	C621.376587,484.091431 617.035095,478.675690 611.176208,474.713898 
	C692.449524,393.388550 773.538513,312.247620 855.184570,230.549255 
	C855.184570,333.341827 855.184570,435.710632 855.106323,538.542847 
M673.016846,485.354858 
	C671.971313,478.194397 671.650940,470.824646 669.662903,463.936188 
	C667.904480,457.843170 662.512512,455.020355 656.038391,455.089050 
	C649.341553,455.160095 644.380798,458.349945 642.262329,464.610992 
	C638.375549,476.098114 638.309753,487.794189 642.484314,499.258179 
	C644.757202,505.500061 649.594604,508.712402 656.294739,508.746307 
	C663.082886,508.780640 668.008484,505.567078 670.337891,498.892853 
	C671.739685,494.876404 672.138062,490.509735 673.016846,485.354858 
z"/>
<path fill="#020202" opacity="0.000000" stroke="none" 
	d="
M985.965088,538.515137 
	C944.007629,538.966248 902.097534,538.952637 859.737427,538.924683 
	C859.270508,463.612701 859.254761,388.315033 859.235901,313.017334 
	C859.229492,287.362701 859.215149,261.708038 859.204529,236.053406 
	C859.203857,234.459152 859.204407,232.864914 859.879150,231.097717 
	C941.740845,317.095001 984.332886,419.148346 985.965088,538.515137 
M906.258789,411.744263 
	C906.148499,407.942139 906.513672,404.052643 905.834229,400.355103 
	C904.143982,391.156281 895.970276,385.953033 887.321289,388.607941 
	C884.191711,389.568573 881.449951,391.792358 878.066406,393.702087 
	C878.066406,387.043732 878.066406,380.511902 878.066406,373.747101 
	C875.971558,373.885559 874.418335,373.988220 873.086914,374.076202 
	C873.086914,391.676208 873.086914,408.750671 873.086914,425.882629 
	C874.838684,425.882629 876.303406,425.882629 877.884338,425.882629 
	C878.118774,424.299011 878.336426,422.828796 878.592896,421.096802 
	C890.440063,431.361115 903.164429,427.209595 906.258789,411.744263 
z"/>
<path fill="#030303" opacity="0.000000" stroke="none" 
	d="
M620.434204,538.596069 
	C596.161194,538.903320 571.707397,538.920471 546.809204,538.909912 
	C561.109314,523.987366 575.857788,509.096497 590.595886,494.195221 
	C595.158386,489.582214 599.692200,484.940826 604.306458,480.243835 
	C609.586487,482.223236 613.485718,484.977386 614.695374,490.758789 
	C615.147949,492.921661 616.654663,494.876312 617.756775,496.884247 
	C618.151184,497.602844 619.005798,498.121368 619.247986,498.862640 
	C621.193726,504.818604 623.504639,510.709412 624.782043,516.813110 
	C625.882324,522.070618 624.303223,526.979004 619.912842,530.728943 
	C617.000977,533.216125 616.339600,535.953186 620.434204,538.596069 
z"/>
<path fill="#000000" opacity="0.000000" stroke="none" 
	d="
M543.496277,985.918335 
	C543.032166,838.437500 543.032166,690.998657 543.032166,543.005127 
	C690.517944,543.005127 837.752502,543.005127 985.450012,543.013428 
	C985.951721,593.409912 977.404419,642.334045 960.536926,689.778564 
	C940.290100,746.728210 909.757141,797.499268 868.801208,842.021484 
	C824.299194,890.398560 771.672974,927.110779 711.090271,952.466553 
	C671.570557,969.006714 630.412231,979.326904 587.839539,983.703735 
	C573.289612,985.199585 558.591064,985.249756 543.496277,985.918335 
M707.513855,583.734497 
	C711.045837,593.414001 720.567627,594.572754 730.591553,586.389893 
	C732.232849,591.769043 736.184326,591.639160 741.281494,590.571045 
	C740.588623,589.089783 740.005127,586.829590 739.461548,586.839111 
	C734.694580,586.922729 735.714844,583.492493 735.654541,580.871216 
	C735.520691,575.052063 735.637329,569.226990 735.496033,563.408142 
	C735.396179,559.293396 733.718994,555.969543 729.761719,554.242920 
	C724.251160,551.838562 713.250305,552.409668 708.534363,559.923218 
	C709.434265,561.020264 710.401672,562.199707 711.544312,563.592712 
	C715.336243,558.985840 719.861023,557.002075 725.120605,558.224915 
	C726.944397,558.648926 729.407410,560.819946 729.609253,562.438599 
	C729.804504,564.005249 727.835754,566.669617 726.161133,567.458618 
	C723.226135,568.841370 719.765503,569.071411 716.567627,569.940796 
	C709.229614,571.935791 706.894775,575.272888 707.513855,583.734497 
z"/>
<path fill="#000000" opacity="0.000000" stroke="none" 
	d="
M538.507812,96.087875 
	C538.965881,243.568192 538.965881,391.006165 538.965881,538.995117 
	C391.473602,538.995117 244.238510,538.995117 96.539680,538.988281 
	C95.886971,494.025848 102.708878,450.096436 116.338425,407.320374 
	C141.618973,327.977905 185.686386,260.896210 248.260437,205.825851 
	C292.945984,166.498871 343.554688,137.706314 399.804230,118.677872 
	C444.614410,103.519188 490.722412,95.982086 538.507812,96.087875 
z"/>
<path fill="#000000" opacity="0.000000" stroke="none" 
	d="
M96.036316,543.481201 
	C243.525253,543.020386 390.967957,543.020386 538.980896,543.020386 
	C538.980896,690.488220 538.980896,837.718811 538.973206,985.409607 
	C481.689697,986.130676 426.402618,975.578430 373.640259,953.473877 
	C256.246918,904.292542 173.665588,820.394592 126.196281,702.265137 
	C109.080688,659.672241 99.548355,615.255493 96.927864,569.401611 
	C96.443436,560.924927 96.294090,552.429016 96.036316,543.481201 
z"/>
<path fill="#F4F4F4" opacity="1.000000" stroke="none" 
	d="
M717.386597,305.272888 
	C718.769165,303.784851 719.880188,302.556000 721.257751,301.032379 
	C722.642578,302.252747 723.692444,303.177917 724.482239,303.873901 
	C717.212830,311.120361 710.050354,318.260193 702.546570,325.740356 
	C702.078796,325.359436 700.990723,324.473450 699.361206,323.146484 
	C702.900024,320.233887 706.220093,317.501373 709.278076,314.984558 
	C699.569946,305.359070 690.774780,296.638702 681.916748,287.856049 
	C680.379944,290.887238 678.495667,294.603882 676.548706,298.444061 
	C673.078613,296.637115 672.199585,294.929108 674.192505,291.585571 
	C676.747803,287.298309 678.569275,282.573578 681.064758,277.278076 
	C692.190918,288.482025 702.492188,298.855255 713.012512,309.449127 
	C714.536804,307.993713 715.825867,306.762878 717.386597,305.272888 
z"/>
<path fill="#F4F4F4" opacity="1.000000" stroke="none" 
	d="
M639.420105,375.314423 
	C640.870850,376.270782 642.614990,377.192841 642.920898,378.461639 
	C644.859802,386.505219 638.479980,395.368500 629.736633,397.157471 
	C621.339478,398.875580 611.545410,393.069122 607.410034,383.920990 
	C603.963013,376.295563 606.301941,368.414093 613.560791,362.813232 
	C617.546753,359.737701 621.843079,359.049225 626.944214,360.533051 
	C626.711670,362.136292 626.507202,363.545898 626.300232,364.972900 
	C623.778748,365.129364 621.402832,364.854095 619.298523,365.484924 
	C612.385254,367.557434 608.965454,375.331146 612.786743,381.455200 
	C615.063599,385.104034 618.549927,388.283722 622.128296,390.752899 
	C625.571899,393.129059 629.743896,392.785583 633.326355,390.115021 
	C636.928040,387.430115 638.723450,383.993225 638.084351,379.337769 
	C637.915222,378.105988 638.701050,376.743134 639.420105,375.314423 
z"/>
<path fill="#FBFBFB" opacity="1.000000" stroke="none" 
	d="
M669.923645,331.390015 
	C671.609619,331.522980 673.037659,331.948456 674.494507,332.382538 
	C667.199402,339.672485 660.553162,346.313965 653.651550,353.210724 
	C652.958313,352.550385 651.961182,351.600555 650.913086,350.602203 
	C657.314331,344.143921 663.490051,337.913177 669.923645,331.390015 
z"/>
<path fill="#FBFBFB" opacity="1.000000" stroke="none" 
	d="
M652.163330,329.160370 
	C655.153137,325.810181 657.892456,322.710205 660.769714,319.454102 
	C662.447510,321.219391 663.328125,322.145966 663.932068,322.781433 
	C657.140991,329.574890 650.495056,336.223114 643.587036,343.133575 
	C642.996704,342.582550 641.982849,341.636169 640.565186,340.312836 
	C644.506897,336.525909 648.209900,332.968262 652.163330,329.160370 
z"/>
<path fill="#F4F4F4" opacity="1.000000" stroke="none" 
	d="
M673.002075,485.827667 
	C672.138062,490.509735 671.739685,494.876404 670.337891,498.892853 
	C668.008484,505.567078 663.082886,508.780640 656.294739,508.746307 
	C649.594604,508.712402 644.757202,505.500061 642.484314,499.258179 
	C638.309753,487.794189 638.375549,476.098114 642.262329,464.610992 
	C644.380798,458.349945 649.341553,455.160095 656.038391,455.089050 
	C662.512512,455.020355 667.904480,457.843170 669.662903,463.936188 
	C671.650940,470.824646 671.971313,478.194397 673.002075,485.827667 
M665.860840,493.982117 
	C666.258606,490.762970 666.656372,487.543823 667.077698,484.134369 
	C659.702942,484.134369 652.852234,484.134369 645.127930,484.134369 
	C646.216003,489.225922 646.625977,494.080170 648.330017,498.427155 
	C650.857239,504.873779 659.255554,505.666718 663.188293,500.137695 
	C664.308838,498.562317 664.847961,496.573242 665.860840,493.982117 
M658.743652,460.413910 
	C650.891602,457.646301 644.671448,466.757782 646.514709,478.414490 
	C653.240723,478.414490 659.952576,478.414490 667.073914,478.414490 
	C665.753174,471.660645 666.741699,464.478790 658.743652,460.413910 
z"/>
<path fill="#F7F7F7" opacity="1.000000" stroke="none" 
	d="
M906.203796,412.159546 
	C903.164429,427.209595 890.440063,431.361115 878.592896,421.096802 
	C878.336426,422.828796 878.118774,424.299011 877.884338,425.882629 
	C876.303406,425.882629 874.838684,425.882629 873.086914,425.882629 
	C873.086914,408.750671 873.086914,391.676208 873.086914,374.076202 
	C874.418335,373.988220 875.971558,373.885559 878.066406,373.747101 
	C878.066406,380.511902 878.066406,387.043732 878.066406,393.702087 
	C881.449951,391.792358 884.191711,389.568573 887.321289,388.607941 
	C895.970276,385.953033 904.143982,391.156281 905.834229,400.355103 
	C906.513672,404.052643 906.148499,407.942139 906.203796,412.159546 
M898.857849,397.882507 
	C896.252014,393.629486 892.247559,392.485016 887.648865,393.154816 
	C883.518188,393.756409 880.145020,396.220276 879.481445,400.207336 
	C878.711182,404.835083 878.640259,409.799194 879.449707,414.409424 
	C880.293274,419.213531 885.028503,421.930450 890.009705,421.806610 
	C895.242493,421.676544 899.268555,419.016266 899.860474,413.734161 
	C900.415833,408.778961 899.458374,403.654175 898.857849,397.882507 
z"/>
<path fill="#EFEFEF" opacity="1.000000" stroke="none" 
	d="
M707.402222,583.350098 
	C706.894775,575.272888 709.229614,571.935791 716.567627,569.940796 
	C719.765503,569.071411 723.226135,568.841370 726.161133,567.458618 
	C727.835754,566.669617 729.804504,564.005249 729.609253,562.438599 
	C729.407410,560.819946 726.944397,558.648926 725.120605,558.224915 
	C719.861023,557.002075 715.336243,558.985840 711.544312,563.592712 
	C710.401672,562.199707 709.434265,561.020264 708.534363,559.923218 
	C713.250305,552.409668 724.251160,551.838562 729.761719,554.242920 
	C733.718994,555.969543 735.396179,559.293396 735.496033,563.408142 
	C735.637329,569.226990 735.520691,575.052063 735.654541,580.871216 
	C735.714844,583.492493 734.694580,586.922729 739.461548,586.839111 
	C740.005127,586.829590 740.588623,589.089783 741.281494,590.571045 
	C736.184326,591.639160 732.232849,591.769043 730.591553,586.389893 
	C720.567627,594.572754 711.045837,593.414001 707.402222,583.350098 
M730.087952,573.858765 
	C730.037476,573.040527 729.987000,572.222351 729.945190,571.544250 
	C726.031555,572.419739 722.180786,573.189209 718.380554,574.156738 
	C714.506470,575.143066 712.429199,577.575317 713.001587,581.761475 
	C713.561279,585.855225 716.314575,587.138855 720.033936,587.166321 
	C726.606079,587.214844 729.826294,583.232361 730.087952,573.858765 
z"/>
<path fill="#060606" opacity="0.000000" stroke="none" 
	d="
M665.757263,494.377991 
	C664.847961,496.573242 664.308838,498.562317 663.188293,500.137695 
	C659.255554,505.666718 650.857239,504.873779 648.330017,498.427155 
	C646.625977,494.080170 646.216003,489.225922 645.127930,484.134369 
	C652.852234,484.134369 659.702942,484.134369 667.077698,484.134369 
	C666.656372,487.543823 666.258606,490.762970 665.757263,494.377991 
z"/>
<path fill="#0A0A0A" opacity="0.000000" stroke="none" 
	d="
M659.099548,460.573608 
	C666.741699,464.478790 665.753174,471.660645 667.073914,478.414490 
	C659.952576,478.414490 653.240723,478.414490 646.514709,478.414490 
	C644.671448,466.757782 650.891602,457.646301 659.099548,460.573608 
z"/>
<path fill="#060606" opacity="0.000000" stroke="none" 
	d="
M899.012207,398.243286 
	C899.458374,403.654175 900.415833,408.778961 899.860474,413.734161 
	C899.268555,419.016266 895.242493,421.676544 890.009705,421.806610 
	C885.028503,421.930450 880.293274,419.213531 879.449707,414.409424 
	C878.640259,409.799194 878.711182,404.835083 879.481445,400.207336 
	C880.145020,396.220276 883.518188,393.756409 887.648865,393.154816 
	C892.247559,392.485016 896.252014,393.629486 899.012207,398.243286 
z"/>
<path fill="#060606" opacity="0.000000" stroke="none" 
	d="
M730.088135,574.281738 
	C729.826294,583.232361 726.606079,587.214844 720.033936,587.166321 
	C716.314575,587.138855 713.561279,585.855225 713.001587,581.761475 
	C712.429199,577.575317 714.506470,575.143066 718.380554,574.156738 
	C722.180786,573.189209 726.031555,572.419739 729.945190,571.544250 
	C729.987000,572.222351 730.037476,573.040527 730.088135,574.281738 
z"/>
</svg>