<?xml version="1.0" encoding="utf-8" standalone="no"?>
<!DOCTYPE svg PUBLIC "-//W3C//DTD SVG 1.1//EN"
  "http://www.w3.org/Graphics/SVG/1.1/DTD/svg11.dtd">
<svg xmlns:xlink="http://www.w3.org/1999/xlink" width="460.8pt" height="345.6pt" viewBox="0 0 460.8 345.6" xmlns="http://www.w3.org/2000/svg" version="1.1">
 <metadata>
  <rdf:RDF xmlns:dc="http://purl.org/dc/elements/1.1/" xmlns:cc="http://creativecommons.org/ns#" xmlns:rdf="http://www.w3.org/1999/02/22-rdf-syntax-ns#">
   <cc:Work>
    <dc:type rdf:resource="http://purl.org/dc/dcmitype/StillImage"/>
    <dc:date>2024-08-10T14:47:02.117109</dc:date>
    <dc:format>image/svg+xml</dc:format>
    <dc:creator>
     <cc:Agent>
      <dc:title>Matplotlib v3.8.3, https://matplotlib.org/</dc:title>
     </cc:Agent>
    </dc:creator>
   </cc:Work>
  </rdf:RDF>
 </metadata>
 <defs>
  <style type="text/css">*{stroke-linejoin: round; stroke-linecap: butt}</style>
 </defs>
 <g id="figure_1">
  <g id="patch_1">
   <path d="M 0 345.6 
L 460.8 345.6 
L 460.8 0 
L 0 0 
L 0 345.6 
z
" style="fill: none"/>
  </g>
  <g id="axes_1">
   <g id="patch_2">
    <path d="M 57.6 307.584 
L 414.72 307.584 
L 414.72 41.472 
L 57.6 41.472 
z
" style="fill: none"/>
   </g>
   <g id="LineCollection_1">
    <path d="M 57.6 263.232 
L 414.72 263.232 
" clip-path="url(#pf3f1c47c15)" style="fill: none; stroke: #d3d3d3; stroke-width: 1.5"/>
   </g>
   <g id="LineCollection_2">
    <path d="M 146.88 307.584 
L 146.88 41.472 
" clip-path="url(#pf3f1c47c15)" style="fill: none; stroke: #d3d3d3; stroke-width: 1.5"/>
   </g>
   <g id="matplotlib.axis_1">
    <g id="xtick_1">
     <g id="line2d_1">
      <defs>
       <path id="m3821cce670" d="M 0 0 
L 0 3.5 
" style="stroke: #d3d3d3; stroke-width: 0.8"/>
      </defs>
      <g>
       <use xlink:href="#m3821cce670" x="57.6" y="307.584" style="fill: #d3d3d3; stroke: #d3d3d3; stroke-width: 0.8"/>
      </g>
     </g>
     <g id="text_1">
      <!-- −1.0 -->
      <g style="fill: #d3d3d3" transform="translate(45.458594 322.182437) scale(0.1 -0.1)">
       <defs>
        <path id="DejaVuSans-2212" d="M 678 2272 
L 4684 2272 
L 4684 1741 
L 678 1741 
L 678 2272 
z
" transform="scale(0.015625)"/>
        <path id="DejaVuSans-31" d="M 794 531 
L 1825 531 
L 1825 4091 
L 703 3866 
L 703 4441 
L 1819 4666 
L 2450 4666 
L 2450 531 
L 3481 531 
L 3481 0 
L 794 0 
L 794 531 
z
" transform="scale(0.015625)"/>
        <path id="DejaVuSans-2e" d="M 684 794 
L 1344 794 
L 1344 0 
L 684 0 
L 684 794 
z
" transform="scale(0.015625)"/>
        <path id="DejaVuSans-30" d="M 2034 4250 
Q 1547 4250 1301 3770 
Q 1056 3291 1056 2328 
Q 1056 1369 1301 889 
Q 1547 409 2034 409 
Q 2525 409 2770 889 
Q 3016 1369 3016 2328 
Q 3016 3291 2770 3770 
Q 2525 4250 2034 4250 
z
M 2034 4750 
Q 2819 4750 3233 4129 
Q 3647 3509 3647 2328 
Q 3647 1150 3233 529 
Q 2819 -91 2034 -91 
Q 1250 -91 836 529 
Q 422 1150 422 2328 
Q 422 3509 836 4129 
Q 1250 4750 2034 4750 
z
" transform="scale(0.015625)"/>
       </defs>
       <use xlink:href="#DejaVuSans-2212"/>
       <use xlink:href="#DejaVuSans-31" x="83.789062"/>
       <use xlink:href="#DejaVuSans-2e" x="147.412109"/>
       <use xlink:href="#DejaVuSans-30" x="179.199219"/>
      </g>
     </g>
    </g>
    <g id="xtick_2">
     <g id="line2d_2">
      <g>
       <use xlink:href="#m3821cce670" x="102.24" y="307.584" style="fill: #d3d3d3; stroke: #d3d3d3; stroke-width: 0.8"/>
      </g>
     </g>
     <g id="text_2">
      <!-- −0.5 -->
      <g style="fill: #d3d3d3" transform="translate(90.098594 322.182437) scale(0.1 -0.1)">
       <defs>
        <path id="DejaVuSans-35" d="M 691 4666 
L 3169 4666 
L 3169 4134 
L 1269 4134 
L 1269 2991 
Q 1406 3038 1543 3061 
Q 1681 3084 1819 3084 
Q 2600 3084 3056 2656 
Q 3513 2228 3513 1497 
Q 3513 744 3044 326 
Q 2575 -91 1722 -91 
Q 1428 -91 1123 -41 
Q 819 9 494 109 
L 494 744 
Q 775 591 1075 516 
Q 1375 441 1709 441 
Q 2250 441 2565 725 
Q 2881 1009 2881 1497 
Q 2881 1984 2565 2268 
Q 2250 2553 1709 2553 
Q 1456 2553 1204 2497 
Q 953 2441 691 2322 
L 691 4666 
z
" transform="scale(0.015625)"/>
       </defs>
       <use xlink:href="#DejaVuSans-2212"/>
       <use xlink:href="#DejaVuSans-30" x="83.789062"/>
       <use xlink:href="#DejaVuSans-2e" x="147.412109"/>
       <use xlink:href="#DejaVuSans-35" x="179.199219"/>
      </g>
     </g>
    </g>
    <g id="xtick_3">
     <g id="line2d_3">
      <g>
       <use xlink:href="#m3821cce670" x="146.88" y="307.584" style="fill: #d3d3d3; stroke: #d3d3d3; stroke-width: 0.8"/>
      </g>
     </g>
     <g id="text_3">
      <!-- 0.0 -->
      <g style="fill: #d3d3d3" transform="translate(138.928438 322.182437) scale(0.1 -0.1)">
       <use xlink:href="#DejaVuSans-30"/>
       <use xlink:href="#DejaVuSans-2e" x="63.623047"/>
       <use xlink:href="#DejaVuSans-30" x="95.410156"/>
      </g>
     </g>
    </g>
    <g id="xtick_4">
     <g id="line2d_4">
      <g>
       <use xlink:href="#m3821cce670" x="191.52" y="307.584" style="fill: #d3d3d3; stroke: #d3d3d3; stroke-width: 0.8"/>
      </g>
     </g>
     <g id="text_4">
      <!-- 0.5 -->
      <g style="fill: #d3d3d3" transform="translate(183.568437 322.182437) scale(0.1 -0.1)">
       <use xlink:href="#DejaVuSans-30"/>
       <use xlink:href="#DejaVuSans-2e" x="63.623047"/>
       <use xlink:href="#DejaVuSans-35" x="95.410156"/>
      </g>
     </g>
    </g>
    <g id="xtick_5">
     <g id="line2d_5">
      <g>
       <use xlink:href="#m3821cce670" x="236.16" y="307.584" style="fill: #d3d3d3; stroke: #d3d3d3; stroke-width: 0.8"/>
      </g>
     </g>
     <g id="text_5">
      <!-- 1.0 -->
      <g style="fill: #d3d3d3" transform="translate(228.208438 322.182437) scale(0.1 -0.1)">
       <use xlink:href="#DejaVuSans-31"/>
       <use xlink:href="#DejaVuSans-2e" x="63.623047"/>
       <use xlink:href="#DejaVuSans-30" x="95.410156"/>
      </g>
     </g>
    </g>
    <g id="xtick_6">
     <g id="line2d_6">
      <g>
       <use xlink:href="#m3821cce670" x="280.8" y="307.584" style="fill: #d3d3d3; stroke: #d3d3d3; stroke-width: 0.8"/>
      </g>
     </g>
     <g id="text_6">
      <!-- 1.5 -->
      <g style="fill: #d3d3d3" transform="translate(272.848437 322.182437) scale(0.1 -0.1)">
       <use xlink:href="#DejaVuSans-31"/>
       <use xlink:href="#DejaVuSans-2e" x="63.623047"/>
       <use xlink:href="#DejaVuSans-35" x="95.410156"/>
      </g>
     </g>
    </g>
    <g id="xtick_7">
     <g id="line2d_7">
      <g>
       <use xlink:href="#m3821cce670" x="325.44" y="307.584" style="fill: #d3d3d3; stroke: #d3d3d3; stroke-width: 0.8"/>
      </g>
     </g>
     <g id="text_7">
      <!-- 2.0 -->
      <g style="fill: #d3d3d3" transform="translate(317.488437 322.182437) scale(0.1 -0.1)">
       <defs>
        <path id="DejaVuSans-32" d="M 1228 531 
L 3431 531 
L 3431 0 
L 469 0 
L 469 531 
Q 828 903 1448 1529 
Q 2069 2156 2228 2338 
Q 2531 2678 2651 2914 
Q 2772 3150 2772 3378 
Q 2772 3750 2511 3984 
Q 2250 4219 1831 4219 
Q 1534 4219 1204 4116 
Q 875 4013 500 3803 
L 500 4441 
Q 881 4594 1212 4672 
Q 1544 4750 1819 4750 
Q 2544 4750 2975 4387 
Q 3406 4025 3406 3419 
Q 3406 3131 3298 2873 
Q 3191 2616 2906 2266 
Q 2828 2175 2409 1742 
Q 1991 1309 1228 531 
z
" transform="scale(0.015625)"/>
       </defs>
       <use xlink:href="#DejaVuSans-32"/>
       <use xlink:href="#DejaVuSans-2e" x="63.623047"/>
       <use xlink:href="#DejaVuSans-30" x="95.410156"/>
      </g>
     </g>
    </g>
    <g id="xtick_8">
     <g id="line2d_8">
      <g>
       <use xlink:href="#m3821cce670" x="370.08" y="307.584" style="fill: #d3d3d3; stroke: #d3d3d3; stroke-width: 0.8"/>
      </g>
     </g>
     <g id="text_8">
      <!-- 2.5 -->
      <g style="fill: #d3d3d3" transform="translate(362.128437 322.182437) scale(0.1 -0.1)">
       <use xlink:href="#DejaVuSans-32"/>
       <use xlink:href="#DejaVuSans-2e" x="63.623047"/>
       <use xlink:href="#DejaVuSans-35" x="95.410156"/>
      </g>
     </g>
    </g>
    <g id="xtick_9">
     <g id="line2d_9">
      <g>
       <use xlink:href="#m3821cce670" x="414.72" y="307.584" style="fill: #d3d3d3; stroke: #d3d3d3; stroke-width: 0.8"/>
      </g>
     </g>
     <g id="text_9">
      <!-- 3.0 -->
      <g style="fill: #d3d3d3" transform="translate(406.768438 322.182437) scale(0.1 -0.1)">
       <defs>
        <path id="DejaVuSans-33" d="M 2597 2516 
Q 3050 2419 3304 2112 
Q 3559 1806 3559 1356 
Q 3559 666 3084 287 
Q 2609 -91 1734 -91 
Q 1441 -91 1130 -33 
Q 819 25 488 141 
L 488 750 
Q 750 597 1062 519 
Q 1375 441 1716 441 
Q 2309 441 2620 675 
Q 2931 909 2931 1356 
Q 2931 1769 2642 2001 
Q 2353 2234 1838 2234 
L 1294 2234 
L 1294 2753 
L 1863 2753 
Q 2328 2753 2575 2939 
Q 2822 3125 2822 3475 
Q 2822 3834 2567 4026 
Q 2313 4219 1838 4219 
Q 1578 4219 1281 4162 
Q 984 4106 628 3988 
L 628 4550 
Q 988 4650 1302 4700 
Q 1616 4750 1894 4750 
Q 2613 4750 3031 4423 
Q 3450 4097 3450 3541 
Q 3450 3153 3228 2886 
Q 3006 2619 2597 2516 
z
" transform="scale(0.015625)"/>
       </defs>
       <use xlink:href="#DejaVuSans-33"/>
       <use xlink:href="#DejaVuSans-2e" x="63.623047"/>
       <use xlink:href="#DejaVuSans-30" x="95.410156"/>
      </g>
     </g>
    </g>
    <g id="text_10">
     <!-- X-as -->
     <g style="fill: #d3d3d3" transform="translate(225.512344 335.860562) scale(0.1 -0.1)">
      <defs>
       <path id="DejaVuSans-58" d="M 403 4666 
L 1081 4666 
L 2241 2931 
L 3406 4666 
L 4084 4666 
L 2584 2425 
L 4184 0 
L 3506 0 
L 2194 1984 
L 872 0 
L 191 0 
L 1856 2491 
L 403 4666 
z
" transform="scale(0.015625)"/>
       <path id="DejaVuSans-2d" d="M 313 2009 
L 1997 2009 
L 1997 1497 
L 313 1497 
L 313 2009 
z
" transform="scale(0.015625)"/>
       <path id="DejaVuSans-61" d="M 2194 1759 
Q 1497 1759 1228 1600 
Q 959 1441 959 1056 
Q 959 750 1161 570 
Q 1363 391 1709 391 
Q 2188 391 2477 730 
Q 2766 1069 2766 1631 
L 2766 1759 
L 2194 1759 
z
M 3341 1997 
L 3341 0 
L 2766 0 
L 2766 531 
Q 2569 213 2275 61 
Q 1981 -91 1556 -91 
Q 1019 -91 701 211 
Q 384 513 384 1019 
Q 384 1609 779 1909 
Q 1175 2209 1959 2209 
L 2766 2209 
L 2766 2266 
Q 2766 2663 2505 2880 
Q 2244 3097 1772 3097 
Q 1472 3097 1187 3025 
Q 903 2953 641 2809 
L 641 3341 
Q 956 3463 1253 3523 
Q 1550 3584 1831 3584 
Q 2591 3584 2966 3190 
Q 3341 2797 3341 1997 
z
" transform="scale(0.015625)"/>
       <path id="DejaVuSans-73" d="M 2834 3397 
L 2834 2853 
Q 2591 2978 2328 3040 
Q 2066 3103 1784 3103 
Q 1356 3103 1142 2972 
Q 928 2841 928 2578 
Q 928 2378 1081 2264 
Q 1234 2150 1697 2047 
L 1894 2003 
Q 2506 1872 2764 1633 
Q 3022 1394 3022 966 
Q 3022 478 2636 193 
Q 2250 -91 1575 -91 
Q 1294 -91 989 -36 
Q 684 19 347 128 
L 347 722 
Q 666 556 975 473 
Q 1284 391 1588 391 
Q 1994 391 2212 530 
Q 2431 669 2431 922 
Q 2431 1156 2273 1281 
Q 2116 1406 1581 1522 
L 1381 1569 
Q 847 1681 609 1914 
Q 372 2147 372 2553 
Q 372 3047 722 3315 
Q 1072 3584 1716 3584 
Q 2034 3584 2315 3537 
Q 2597 3491 2834 3397 
z
" transform="scale(0.015625)"/>
      </defs>
      <use xlink:href="#DejaVuSans-58"/>
      <use xlink:href="#DejaVuSans-2d" x="63.505859"/>
      <use xlink:href="#DejaVuSans-61" x="99.589844"/>
      <use xlink:href="#DejaVuSans-73" x="160.869141"/>
     </g>
    </g>
   </g>
   <g id="matplotlib.axis_2">
    <g id="ytick_1">
     <g id="line2d_10">
      <defs>
       <path id="m84390a433a" d="M 0 0 
L -3.5 0 
" style="stroke: #d3d3d3; stroke-width: 0.8"/>
      </defs>
      <g>
       <use xlink:href="#m84390a433a" x="57.6" y="307.584" style="fill: #d3d3d3; stroke: #d3d3d3; stroke-width: 0.8"/>
      </g>
     </g>
     <g id="text_11">
      <!-- −1 -->
      <g style="fill: #d3d3d3" transform="translate(35.857813 311.383219) scale(0.1 -0.1)">
       <use xlink:href="#DejaVuSans-2212"/>
       <use xlink:href="#DejaVuSans-31" x="83.789062"/>
      </g>
     </g>
    </g>
    <g id="ytick_2">
     <g id="line2d_11">
      <g>
       <use xlink:href="#m84390a433a" x="57.6" y="263.232" style="fill: #d3d3d3; stroke: #d3d3d3; stroke-width: 0.8"/>
      </g>
     </g>
     <g id="text_12">
      <!-- 0 -->
      <g style="fill: #d3d3d3" transform="translate(44.2375 267.031219) scale(0.1 -0.1)">
       <use xlink:href="#DejaVuSans-30"/>
      </g>
     </g>
    </g>
    <g id="ytick_3">
     <g id="line2d_12">
      <g>
       <use xlink:href="#m84390a433a" x="57.6" y="218.88" style="fill: #d3d3d3; stroke: #d3d3d3; stroke-width: 0.8"/>
      </g>
     </g>
     <g id="text_13">
      <!-- 1 -->
      <g style="fill: #d3d3d3" transform="translate(44.2375 222.679219) scale(0.1 -0.1)">
       <use xlink:href="#DejaVuSans-31"/>
      </g>
     </g>
    </g>
    <g id="ytick_4">
     <g id="line2d_13">
      <g>
       <use xlink:href="#m84390a433a" x="57.6" y="174.528" style="fill: #d3d3d3; stroke: #d3d3d3; stroke-width: 0.8"/>
      </g>
     </g>
     <g id="text_14">
      <!-- 2 -->
      <g style="fill: #d3d3d3" transform="translate(44.2375 178.327219) scale(0.1 -0.1)">
       <use xlink:href="#DejaVuSans-32"/>
      </g>
     </g>
    </g>
    <g id="ytick_5">
     <g id="line2d_14">
      <g>
       <use xlink:href="#m84390a433a" x="57.6" y="130.176" style="fill: #d3d3d3; stroke: #d3d3d3; stroke-width: 0.8"/>
      </g>
     </g>
     <g id="text_15">
      <!-- 3 -->
      <g style="fill: #d3d3d3" transform="translate(44.2375 133.975219) scale(0.1 -0.1)">
       <use xlink:href="#DejaVuSans-33"/>
      </g>
     </g>
    </g>
    <g id="ytick_6">
     <g id="line2d_15">
      <g>
       <use xlink:href="#m84390a433a" x="57.6" y="85.824" style="fill: #d3d3d3; stroke: #d3d3d3; stroke-width: 0.8"/>
      </g>
     </g>
     <g id="text_16">
      <!-- 4 -->
      <g style="fill: #d3d3d3" transform="translate(44.2375 89.623219) scale(0.1 -0.1)">
       <defs>
        <path id="DejaVuSans-34" d="M 2419 4116 
L 825 1625 
L 2419 1625 
L 2419 4116 
z
M 2253 4666 
L 3047 4666 
L 3047 1625 
L 3713 1625 
L 3713 1100 
L 3047 1100 
L 3047 0 
L 2419 0 
L 2419 1100 
L 313 1100 
L 313 1709 
L 2253 4666 
z
" transform="scale(0.015625)"/>
       </defs>
       <use xlink:href="#DejaVuSans-34"/>
      </g>
     </g>
    </g>
    <g id="ytick_7">
     <g id="line2d_16">
      <g>
       <use xlink:href="#m84390a433a" x="57.6" y="41.472" style="fill: #d3d3d3; stroke: #d3d3d3; stroke-width: 0.8"/>
      </g>
     </g>
     <g id="text_17">
      <!-- 5 -->
      <g style="fill: #d3d3d3" transform="translate(44.2375 45.271219) scale(0.1 -0.1)">
       <use xlink:href="#DejaVuSans-35"/>
      </g>
     </g>
    </g>
    <g id="text_18">
     <!-- Y-as -->
     <g style="fill: #d3d3d3" transform="translate(29.778125 184.460813) rotate(-90) scale(0.1 -0.1)">
      <defs>
       <path id="DejaVuSans-59" d="M -13 4666 
L 666 4666 
L 1959 2747 
L 3244 4666 
L 3922 4666 
L 2272 2222 
L 2272 0 
L 1638 0 
L 1638 2222 
L -13 4666 
z
" transform="scale(0.015625)"/>
      </defs>
      <use xlink:href="#DejaVuSans-59"/>
      <use xlink:href="#DejaVuSans-2d" x="49.208984"/>
      <use xlink:href="#DejaVuSans-61" x="85.292969"/>
      <use xlink:href="#DejaVuSans-73" x="146.572266"/>
     </g>
    </g>
   </g>
   <g id="line2d_17">
    <path d="M 57.6 180.786955 
L 63.8496 189.802539 
L 68.3136 195.853445 
L 71.8848 200.355529 
L 75.456 204.486143 
L 78.1344 207.304362 
L 80.8128 209.857272 
L 83.4912 212.124208 
L 86.1696 214.08682 
L 88.848 215.729221 
L 91.5264 217.038118 
L 94.2048 218.002916 
L 95.9904 218.450974 
L 97.776 218.740958 
L 99.5616 218.871822 
L 101.3472 218.843097 
L 103.1328 218.654885 
L 104.9184 218.307864 
L 106.704 217.803282 
L 109.3824 216.755111 
L 112.0608 215.365131 
L 114.7392 213.644593 
L 117.4176 211.607424 
L 120.096 209.270115 
L 122.7744 206.651585 
L 125.4528 203.773029 
L 129.024 199.571023 
L 132.5952 195.00883 
L 137.0592 188.899956 
L 142.416 181.15588 
L 157.5936 158.903933 
L 162.0576 152.876363 
L 165.6288 148.398252 
L 169.2 144.295958 
L 171.8784 141.501588 
L 174.5568 138.974552 
L 177.2352 136.735305 
L 179.9136 134.801972 
L 182.592 133.190202 
L 185.2704 131.913043 
L 187.9488 130.980832 
L 189.7344 130.554839 
L 191.52 130.287102 
L 193.3056 130.178585 
L 195.0912 130.229677 
L 196.8768 130.440196 
L 198.6624 130.809383 
L 200.448 131.33591 
L 203.1264 132.416414 
L 205.8048 133.837792 
L 208.4832 135.588538 
L 211.1616 137.654481 
L 213.84 140.018898 
L 216.5184 142.662649 
L 219.1968 145.564337 
L 222.768 149.793612 
L 226.3392 154.378635 
L 230.8032 160.50931 
L 236.16 168.269045 
L 250.4448 189.252207 
L 254.9088 195.338847 
L 258.48 199.877888 
L 262.0512 204.052327 
L 264.7296 206.907548 
L 267.408 209.500672 
L 270.0864 211.810708 
L 272.7648 213.818958 
L 275.4432 215.509166 
L 278.1216 216.867651 
L 280.8 217.883416 
L 282.5856 218.366016 
L 284.3712 218.690846 
L 286.1568 218.856738 
L 287.9424 218.863095 
L 289.728 218.709893 
L 291.5136 218.397684 
L 293.2992 217.927591 
L 295.9776 216.930275 
L 298.656 215.589733 
L 301.3344 213.916815 
L 304.0128 211.925063 
L 306.6912 209.630599 
L 309.3696 207.051996 
L 312.048 204.210126 
L 315.6192 200.051484 
L 319.1904 195.525745 
L 323.6544 189.451932 
L 329.0112 181.733515 
L 345.0816 158.208215 
L 349.5456 152.228592 
L 353.1168 147.799375 
L 356.688 143.754589 
L 359.3664 141.00851 
L 362.0448 138.533756 
L 364.7232 136.350358 
L 367.4016 134.47599 
L 370.08 132.925825 
L 372.7584 131.71241 
L 375.4368 130.845567 
L 377.2224 130.463795 
L 379.008 130.240606 
L 380.7936 130.176803 
L 382.5792 130.272617 
L 384.3648 130.527703 
L 386.1504 130.941142 
L 387.936 131.511447 
L 390.6144 132.656385 
L 393.2928 134.140254 
L 395.9712 135.951043 
L 398.6496 138.074095 
L 401.328 140.492224 
L 404.0064 143.185857 
L 407.5776 147.167943 
L 411.1488 151.543543 
L 413.8272 155.045814 
L 413.8272 155.045814 
" clip-path="url(#pf3f1c47c15)" style="fill: none; stroke: #00ced1; stroke-width: 1.5; stroke-linecap: square"/>
   </g>
   <g id="line2d_18">
    <path d="M 57.6 218.436147 
L 59.3856 217.981824 
L 62.064 217.00778 
L 64.7424 215.689881 
L 67.4208 214.038796 
L 70.0992 212.067889 
L 72.7776 209.793115 
L 75.456 207.232886 
L 78.1344 204.407926 
L 81.7056 200.269318 
L 85.2768 195.76048 
L 89.7408 189.703021 
L 95.0976 181.996764 
L 111.168 158.456709 
L 115.632 152.459729 
L 119.2032 148.012867 
L 122.7744 143.947366 
L 125.4528 141.183912 
L 128.1312 138.690364 
L 130.8096 136.486905 
L 133.488 134.59137 
L 136.1664 133.019104 
L 138.8448 131.782833 
L 141.5232 130.892565 
L 143.3088 130.494951 
L 145.0944 130.25581 
L 146.88 130.176 
L 148.6656 130.25581 
L 150.4512 130.494951 
L 152.2368 130.892565 
L 154.0224 131.447218 
L 156.7008 132.56913 
L 159.3792 134.030679 
L 162.0576 135.820036 
L 164.736 137.922715 
L 167.4144 140.321697 
L 170.0928 142.997563 
L 173.664 146.958355 
L 177.2352 151.315673 
L 180.8064 156.006849 
L 185.2704 162.237135 
L 191.52 171.390664 
L 202.2336 187.176705 
L 206.6976 193.387307 
L 210.2688 198.057239 
L 213.84 202.388757 
L 217.4112 206.31956 
L 220.0896 208.970445 
L 222.768 211.342534 
L 225.4464 213.416627 
L 228.1248 215.175934 
L 230.8032 216.606216 
L 233.4816 217.695893 
L 235.2672 218.22865 
L 237.0528 218.60413 
L 238.8384 218.820985 
L 240.624 218.878433 
L 242.4096 218.776266 
L 244.1952 218.514854 
L 245.9808 218.095137 
L 247.7664 217.518625 
L 250.4448 216.364559 
L 253.1232 214.871844 
L 255.8016 213.052566 
L 258.48 210.921449 
L 261.1584 208.495743 
L 263.8368 205.795085 
L 267.408 201.804585 
L 270.9792 197.421774 
L 274.5504 192.709687 
L 279.0144 186.460156 
L 285.264 177.293281 
L 295.9776 161.522349 
L 300.4416 155.331871 
L 304.0128 150.683512 
L 307.584 146.378102 
L 311.1552 142.477563 
L 313.8336 139.851847 
L 316.512 137.506819 
L 319.1904 135.461459 
L 321.8688 133.732325 
L 324.5472 132.333413 
L 327.2256 131.276046 
L 329.0112 130.765225 
L 330.7968 130.411903 
L 332.5824 130.217351 
L 334.368 130.18227 
L 336.1536 130.306785 
L 337.9392 130.590449 
L 339.7248 131.032241 
L 342.4032 131.987785 
L 345.0816 133.287673 
L 347.76 134.921383 
L 350.4384 136.875689 
L 353.1168 139.134773 
L 355.7952 141.680349 
L 358.4736 144.491811 
L 362.0448 148.614408 
L 365.616 153.109712 
L 370.08 159.15403 
L 375.4368 166.850437 
L 392.4 191.636693 
L 396.864 197.55949 
L 400.4352 201.931335 
L 404.0064 205.909044 
L 406.6848 208.599023 
L 409.3632 211.013213 
L 412.0416 213.132072 
L 413.8272 214.372 
L 413.8272 214.372 
" clip-path="url(#pf3f1c47c15)" style="fill: none; stroke: #dc143c; stroke-width: 1.5; stroke-linecap: square"/>
   </g>
   <g id="patch_3">
    <path d="M 57.6 307.584 
L 57.6 41.472 
" style="fill: none; stroke: #d3d3d3; stroke-width: 0.8; stroke-linejoin: miter; stroke-linecap: square"/>
   </g>
   <g id="patch_4">
    <path d="M 414.72 307.584 
L 414.72 41.472 
" style="fill: none; stroke: #d3d3d3; stroke-width: 0.8; stroke-linejoin: miter; stroke-linecap: square"/>
   </g>
   <g id="patch_5">
    <path d="M 57.6 307.584 
L 414.72 307.584 
" style="fill: none; stroke: #d3d3d3; stroke-width: 0.8; stroke-linejoin: miter; stroke-linecap: square"/>
   </g>
   <g id="patch_6">
    <path d="M 57.6 41.472 
L 414.72 41.472 
" style="fill: none; stroke: #d3d3d3; stroke-width: 0.8; stroke-linejoin: miter; stroke-linecap: square"/>
   </g>
   <g id="PolyCollection_1">
    <defs>
     <path id="mfd07bd7e8d" d="M 170.9856 -201.652634 
L 170.9856 -203.195585 
L 171.8784 -204.098412 
L 172.7712 -204.971517 
L 173.664 -205.814115 
L 174.5568 -206.625448 
L 175.4496 -207.404784 
L 176.3424 -208.151424 
L 177.2352 -208.864695 
L 178.128 -209.543955 
L 179.0208 -210.188593 
L 179.9136 -210.798028 
L 180.8064 -211.371713 
L 181.6992 -211.909131 
L 182.592 -212.409798 
L 183.4848 -212.873263 
L 184.3776 -213.299111 
L 185.2704 -213.686957 
L 186.1632 -214.036452 
L 187.056 -214.347282 
L 187.9488 -214.619168 
L 188.8416 -214.851864 
L 189.7344 -215.045161 
L 190.6272 -215.198885 
L 191.52 -215.312898 
L 192.4128 -215.387097 
L 193.3056 -215.421415 
L 194.1984 -215.415822 
L 195.0912 -215.370323 
L 195.984 -215.284958 
L 196.8768 -215.159804 
L 197.7696 -214.994974 
L 198.6624 -214.790617 
L 199.5552 -214.546916 
L 200.448 -214.26409 
L 201.3408 -213.942394 
L 202.2336 -213.582118 
L 203.1264 -213.183586 
L 204.0192 -212.747156 
L 204.912 -212.273221 
L 205.8048 -211.762208 
L 206.6976 -211.214577 
L 207.5904 -210.63082 
L 208.4832 -210.011462 
L 209.376 -209.357062 
L 210.2688 -208.668208 
L 211.1616 -207.945519 
L 212.0544 -207.189647 
L 212.9472 -206.401272 
L 213.84 -205.581102 
L 214.7328 -204.729877 
L 215.6256 -203.848362 
L 216.5184 -202.937351 
L 217.4112 -201.997662 
L 218.304 -201.030143 
L 219.1968 -200.035663 
L 220.0896 -199.015119 
L 220.9824 -197.969427 
L 221.8752 -196.899529 
L 222.768 -195.806388 
L 223.6608 -194.690988 
L 224.5536 -193.554333 
L 225.4464 -192.397445 
L 226.3392 -191.221365 
L 227.232 -190.027152 
L 228.1248 -188.815881 
L 229.0176 -187.588642 
L 229.9104 -186.346539 
L 230.8032 -185.09069 
L 231.696 -183.822225 
L 232.5888 -182.542285 
L 233.4816 -181.252024 
L 234.3744 -179.9526 
L 235.2672 -178.645185 
L 236.16 -177.330955 
L 237.0528 -176.011091 
L 237.9456 -174.686783 
L 238.8384 -173.359222 
L 239.7312 -172.029603 
L 240.624 -170.699122 
L 241.5168 -169.368976 
L 242.4096 -168.040363 
L 243.3024 -166.714478 
L 244.1952 -165.392515 
L 245.088 -164.075663 
L 245.9808 -162.765107 
L 246.8736 -161.462027 
L 247.7664 -160.167595 
L 248.6592 -158.882976 
L 249.552 -157.609327 
L 250.4448 -156.347793 
L 251.3376 -155.09951 
L 252.2304 -153.865601 
L 253.1232 -152.647177 
L 254.016 -151.445333 
L 254.9088 -150.261153 
L 255.8016 -149.095701 
L 256.6944 -147.950025 
L 257.5872 -146.825159 
L 258.48 -145.722112 
L 259.3728 -144.641879 
L 260.2656 -143.585432 
L 261.1584 -142.55372 
L 262.0512 -141.547673 
L 262.944 -140.568195 
L 263.8368 -139.616169 
L 264.7296 -138.692452 
L 265.6224 -137.797873 
L 266.5152 -136.933239 
L 267.408 -136.099328 
L 268.3008 -135.29689 
L 269.1936 -134.526646 
L 270.0864 -133.789292 
L 270.9792 -133.085489 
L 271.872 -132.415871 
L 272.7648 -131.781042 
L 273.6576 -131.181571 
L 274.5504 -130.618 
L 275.4432 -130.090834 
L 276.336 -129.600548 
L 277.2288 -129.147584 
L 278.1216 -128.732349 
L 279.0144 -128.355217 
L 279.9072 -128.016527 
L 280.8 -127.716584 
L 281.6928 -127.455658 
L 282.5856 -127.233984 
L 283.4784 -127.051761 
L 284.3712 -126.909154 
L 285.264 -126.80629 
L 286.1568 -126.743262 
L 287.0496 -126.720127 
L 287.9424 -126.736905 
L 288.8352 -126.793582 
L 289.728 -126.890107 
L 290.6208 -127.026393 
L 291.5136 -127.202316 
L 292.4064 -127.41772 
L 293.2992 -127.672409 
L 294.192 -127.966155 
L 295.0848 -128.298693 
L 295.9776 -128.669725 
L 296.8704 -129.078915 
L 297.7632 -129.525897 
L 298.656 -130.010267 
L 299.5488 -130.53159 
L 300.4416 -131.089397 
L 301.3344 -131.683185 
L 302.2272 -132.312421 
L 303.12 -132.976537 
L 304.0128 -133.674937 
L 304.9056 -134.406992 
L 305.7984 -135.172043 
L 306.6912 -135.969401 
L 307.584 -136.798349 
L 308.4768 -137.658142 
L 309.3696 -138.548004 
L 310.2624 -139.467136 
L 311.1552 -140.41471 
L 312.048 -141.389874 
L 312.9408 -142.391749 
L 313.8336 -143.419435 
L 314.7264 -144.472006 
L 315.6192 -145.548516 
L 316.512 -146.647995 
L 317.4048 -147.769454 
L 318.2976 -148.911883 
L 319.1904 -150.074255 
L 320.0832 -151.255524 
L 320.976 -152.454626 
L 321.8688 -153.670483 
L 322.7616 -154.902 
L 323.6544 -156.148068 
L 324.5472 -157.407568 
L 325.44 -158.679364 
L 326.3328 -159.962313 
L 327.2256 -161.255259 
L 328.1184 -162.557041 
L 329.0112 -163.866485 
L 329.904 -165.182413 
L 330.7968 -166.503642 
L 331.6896 -167.828982 
L 332.5824 -169.157241 
L 333.4752 -170.487222 
L 333.4752 -215.420145 
L 333.4752 -215.420145 
L 332.5824 -215.382649 
L 331.6896 -215.305276 
L 330.7968 -215.188097 
L 329.904 -215.031216 
L 329.0112 -214.834775 
L 328.1184 -214.59895 
L 327.2256 -214.323954 
L 326.3328 -214.010034 
L 325.44 -213.657473 
L 324.5472 -213.266587 
L 323.6544 -212.83773 
L 322.7616 -212.371286 
L 321.8688 -211.867675 
L 320.976 -211.327351 
L 320.0832 -210.7508 
L 319.1904 -210.138541 
L 318.2976 -209.491125 
L 317.4048 -208.809133 
L 316.512 -208.093181 
L 315.6192 -207.343913 
L 314.7264 -206.562002 
L 313.8336 -205.748153 
L 312.9408 -204.903097 
L 312.048 -204.027596 
L 311.1552 -203.122437 
L 310.2624 -202.188434 
L 309.3696 -201.226429 
L 308.4768 -200.237287 
L 307.584 -199.221898 
L 306.6912 -198.181177 
L 305.7984 -197.116058 
L 304.9056 -196.027502 
L 304.0128 -194.916488 
L 303.12 -193.784015 
L 302.2272 -192.631103 
L 301.3344 -191.458789 
L 300.4416 -190.268129 
L 299.5488 -189.060193 
L 298.656 -187.836069 
L 297.7632 -186.596858 
L 296.8704 -185.343677 
L 295.9776 -184.077651 
L 295.0848 -182.799922 
L 294.192 -181.511638 
L 293.2992 -180.213959 
L 292.4064 -178.908053 
L 291.5136 -177.595095 
L 290.6208 -176.276267 
L 289.728 -174.952755 
L 288.8352 -173.625751 
L 287.9424 -172.296448 
L 287.0496 -170.966044 
L 286.1568 -169.635735 
L 285.264 -168.306719 
L 284.3712 -166.980191 
L 283.4784 -165.657345 
L 282.5856 -164.339373 
L 281.6928 -163.027459 
L 280.8 -161.722785 
L 279.9072 -160.426524 
L 279.0144 -159.139844 
L 278.1216 -157.863902 
L 277.2288 -156.599846 
L 276.336 -155.348814 
L 275.4432 -154.111932 
L 274.5504 -152.890313 
L 273.6576 -151.685056 
L 272.7648 -150.497246 
L 271.872 -149.327952 
L 270.9792 -148.178226 
L 270.0864 -147.049103 
L 269.1936 -145.941599 
L 268.3008 -144.856711 
L 267.408 -143.795415 
L 266.5152 -142.758665 
L 265.6224 -141.747396 
L 264.7296 -140.762517 
L 263.8368 -139.804915 
L 262.944 -138.87545 
L 262.0512 -137.974961 
L 261.1584 -137.104257 
L 260.2656 -136.264121 
L 259.3728 -135.45531 
L 258.48 -134.678551 
L 257.5872 -133.934545 
L 256.6944 -133.223959 
L 255.8016 -132.547434 
L 254.9088 -131.905579 
L 254.016 -131.298971 
L 253.1232 -130.728156 
L 252.2304 -130.193647 
L 251.3376 -129.695926 
L 250.4448 -129.235441 
L 249.552 -128.812607 
L 248.6592 -128.427802 
L 247.7664 -128.081375 
L 246.8736 -127.773636 
L 245.9808 -127.504863 
L 245.088 -127.275297 
L 244.1952 -127.085146 
L 243.3024 -126.934579 
L 242.4096 -126.823734 
L 241.5168 -126.752708 
L 240.624 -126.721567 
L 239.7312 -126.730339 
L 238.8384 -126.779015 
L 237.9456 -126.867552 
L 237.0528 -126.99587 
L 236.16 -127.163853 
L 235.2672 -127.37135 
L 234.3744 -127.618176 
L 233.4816 -127.904107 
L 232.5888 -128.228886 
L 231.696 -128.59222 
L 230.8032 -128.993784 
L 229.9104 -129.433216 
L 229.0176 -129.910119 
L 228.1248 -130.424066 
L 227.232 -130.974592 
L 226.3392 -131.561204 
L 225.4464 -132.183373 
L 224.5536 -132.840539 
L 223.6608 -133.532111 
L 222.768 -134.257466 
L 221.8752 -135.015951 
L 220.9824 -135.806885 
L 220.0896 -136.629555 
L 219.1968 -137.483221 
L 218.304 -138.367114 
L 217.4112 -139.28044 
L 216.5184 -140.222375 
L 215.6256 -141.192074 
L 214.7328 -142.188662 
L 213.84 -143.211243 
L 212.9472 -144.258898 
L 212.0544 -145.330682 
L 211.1616 -146.425631 
L 210.2688 -147.542761 
L 209.376 -148.681066 
L 208.4832 -149.83952 
L 207.5904 -151.017083 
L 206.6976 -152.212693 
L 205.8048 -153.425276 
L 204.912 -154.65374 
L 204.0192 -155.896979 
L 203.1264 -157.153874 
L 202.2336 -158.423295 
L 201.3408 -159.704099 
L 200.448 -160.995133 
L 199.5552 -162.295235 
L 198.6624 -163.603236 
L 197.7696 -164.917959 
L 196.8768 -166.23822 
L 195.984 -167.56283 
L 195.0912 -168.890599 
L 194.1984 -170.220331 
L 193.3056 -171.550829 
L 192.4128 -172.880897 
L 191.52 -174.209336 
L 190.6272 -175.534953 
L 189.7344 -176.856552 
L 188.8416 -178.172946 
L 187.9488 -179.48295 
L 187.056 -180.785385 
L 186.1632 -182.079078 
L 185.2704 -183.362865 
L 184.3776 -184.635592 
L 183.4848 -185.896112 
L 182.592 -187.143291 
L 181.6992 -188.376008 
L 180.8064 -189.593151 
L 179.9136 -190.793628 
L 179.0208 -191.976356 
L 178.128 -193.140271 
L 177.2352 -194.284327 
L 176.3424 -195.407493 
L 175.4496 -196.508758 
L 174.5568 -197.587133 
L 173.664 -198.641645 
L 172.7712 -199.671347 
L 171.8784 -200.675311 
L 170.9856 -201.652634 
z
" style="stroke: #9400d3; stroke-opacity: 0.7"/>
    </defs>
    <g clip-path="url(#pf3f1c47c15)">
     <use xlink:href="#mfd07bd7e8d" x="0" y="345.6" style="fill: #9400d3; fill-opacity: 0.7; stroke: #9400d3; stroke-opacity: 0.7"/>
    </g>
   </g>
   <g id="text_19">
    <!-- $V$ -->
    <g style="fill: #ffffff" transform="translate(207.144 174.528) scale(0.1728 -0.1728)">
     <defs>
      <path id="DejaVuSans-Oblique-56" d="M 1319 0 
L 500 4666 
L 1119 4666 
L 1797 653 
L 4063 4666 
L 4750 4666 
L 2053 0 
L 1319 0 
z
" transform="scale(0.015625)"/>
     </defs>
     <use xlink:href="#DejaVuSans-Oblique-56" transform="translate(0 0.09375)"/>
    </g>
   </g>
   <g id="text_20">
    <!-- $V$ -->
    <g style="fill: #ffffff" transform="translate(307.584 174.528) scale(0.1728 -0.1728)">
     <use xlink:href="#DejaVuSans-Oblique-56" transform="translate(0 0.09375)"/>
    </g>
   </g>
   <g id="text_21">
    <!-- f(x) = sin(3x) + 2; g(x) = cos(3x) + 2 -->
    <g style="fill: #d3d3d3" transform="translate(124.050938 35.472) scale(0.12 -0.12)">
     <defs>
      <path id="DejaVuSans-66" d="M 2375 4863 
L 2375 4384 
L 1825 4384 
Q 1516 4384 1395 4259 
Q 1275 4134 1275 3809 
L 1275 3500 
L 2222 3500 
L 2222 3053 
L 1275 3053 
L 1275 0 
L 697 0 
L 697 3053 
L 147 3053 
L 147 3500 
L 697 3500 
L 697 3744 
Q 697 4328 969 4595 
Q 1241 4863 1831 4863 
L 2375 4863 
z
" transform="scale(0.015625)"/>
      <path id="DejaVuSans-28" d="M 1984 4856 
Q 1566 4138 1362 3434 
Q 1159 2731 1159 2009 
Q 1159 1288 1364 580 
Q 1569 -128 1984 -844 
L 1484 -844 
Q 1016 -109 783 600 
Q 550 1309 550 2009 
Q 550 2706 781 3412 
Q 1013 4119 1484 4856 
L 1984 4856 
z
" transform="scale(0.015625)"/>
      <path id="DejaVuSans-78" d="M 3513 3500 
L 2247 1797 
L 3578 0 
L 2900 0 
L 1881 1375 
L 863 0 
L 184 0 
L 1544 1831 
L 300 3500 
L 978 3500 
L 1906 2253 
L 2834 3500 
L 3513 3500 
z
" transform="scale(0.015625)"/>
      <path id="DejaVuSans-29" d="M 513 4856 
L 1013 4856 
Q 1481 4119 1714 3412 
Q 1947 2706 1947 2009 
Q 1947 1309 1714 600 
Q 1481 -109 1013 -844 
L 513 -844 
Q 928 -128 1133 580 
Q 1338 1288 1338 2009 
Q 1338 2731 1133 3434 
Q 928 4138 513 4856 
z
" transform="scale(0.015625)"/>
      <path id="DejaVuSans-20" transform="scale(0.015625)"/>
      <path id="DejaVuSans-3d" d="M 678 2906 
L 4684 2906 
L 4684 2381 
L 678 2381 
L 678 2906 
z
M 678 1631 
L 4684 1631 
L 4684 1100 
L 678 1100 
L 678 1631 
z
" transform="scale(0.015625)"/>
      <path id="DejaVuSans-69" d="M 603 3500 
L 1178 3500 
L 1178 0 
L 603 0 
L 603 3500 
z
M 603 4863 
L 1178 4863 
L 1178 4134 
L 603 4134 
L 603 4863 
z
" transform="scale(0.015625)"/>
      <path id="DejaVuSans-6e" d="M 3513 2113 
L 3513 0 
L 2938 0 
L 2938 2094 
Q 2938 2591 2744 2837 
Q 2550 3084 2163 3084 
Q 1697 3084 1428 2787 
Q 1159 2491 1159 1978 
L 1159 0 
L 581 0 
L 581 3500 
L 1159 3500 
L 1159 2956 
Q 1366 3272 1645 3428 
Q 1925 3584 2291 3584 
Q 2894 3584 3203 3211 
Q 3513 2838 3513 2113 
z
" transform="scale(0.015625)"/>
      <path id="DejaVuSans-2b" d="M 2944 4013 
L 2944 2272 
L 4684 2272 
L 4684 1741 
L 2944 1741 
L 2944 0 
L 2419 0 
L 2419 1741 
L 678 1741 
L 678 2272 
L 2419 2272 
L 2419 4013 
L 2944 4013 
z
" transform="scale(0.015625)"/>
      <path id="DejaVuSans-3b" d="M 750 3309 
L 1409 3309 
L 1409 2516 
L 750 2516 
L 750 3309 
z
M 750 794 
L 1409 794 
L 1409 256 
L 897 -744 
L 494 -744 
L 750 256 
L 750 794 
z
" transform="scale(0.015625)"/>
      <path id="DejaVuSans-67" d="M 2906 1791 
Q 2906 2416 2648 2759 
Q 2391 3103 1925 3103 
Q 1463 3103 1205 2759 
Q 947 2416 947 1791 
Q 947 1169 1205 825 
Q 1463 481 1925 481 
Q 2391 481 2648 825 
Q 2906 1169 2906 1791 
z
M 3481 434 
Q 3481 -459 3084 -895 
Q 2688 -1331 1869 -1331 
Q 1566 -1331 1297 -1286 
Q 1028 -1241 775 -1147 
L 775 -588 
Q 1028 -725 1275 -790 
Q 1522 -856 1778 -856 
Q 2344 -856 2625 -561 
Q 2906 -266 2906 331 
L 2906 616 
Q 2728 306 2450 153 
Q 2172 0 1784 0 
Q 1141 0 747 490 
Q 353 981 353 1791 
Q 353 2603 747 3093 
Q 1141 3584 1784 3584 
Q 2172 3584 2450 3431 
Q 2728 3278 2906 2969 
L 2906 3500 
L 3481 3500 
L 3481 434 
z
" transform="scale(0.015625)"/>
      <path id="DejaVuSans-63" d="M 3122 3366 
L 3122 2828 
Q 2878 2963 2633 3030 
Q 2388 3097 2138 3097 
Q 1578 3097 1268 2742 
Q 959 2388 959 1747 
Q 959 1106 1268 751 
Q 1578 397 2138 397 
Q 2388 397 2633 464 
Q 2878 531 3122 666 
L 3122 134 
Q 2881 22 2623 -34 
Q 2366 -91 2075 -91 
Q 1284 -91 818 406 
Q 353 903 353 1747 
Q 353 2603 823 3093 
Q 1294 3584 2113 3584 
Q 2378 3584 2631 3529 
Q 2884 3475 3122 3366 
z
" transform="scale(0.015625)"/>
      <path id="DejaVuSans-6f" d="M 1959 3097 
Q 1497 3097 1228 2736 
Q 959 2375 959 1747 
Q 959 1119 1226 758 
Q 1494 397 1959 397 
Q 2419 397 2687 759 
Q 2956 1122 2956 1747 
Q 2956 2369 2687 2733 
Q 2419 3097 1959 3097 
z
M 1959 3584 
Q 2709 3584 3137 3096 
Q 3566 2609 3566 1747 
Q 3566 888 3137 398 
Q 2709 -91 1959 -91 
Q 1206 -91 779 398 
Q 353 888 353 1747 
Q 353 2609 779 3096 
Q 1206 3584 1959 3584 
z
" transform="scale(0.015625)"/>
     </defs>
     <use xlink:href="#DejaVuSans-66"/>
     <use xlink:href="#DejaVuSans-28" x="35.205078"/>
     <use xlink:href="#DejaVuSans-78" x="74.21875"/>
     <use xlink:href="#DejaVuSans-29" x="133.398438"/>
     <use xlink:href="#DejaVuSans-20" x="172.412109"/>
     <use xlink:href="#DejaVuSans-3d" x="204.199219"/>
     <use xlink:href="#DejaVuSans-20" x="287.988281"/>
     <use xlink:href="#DejaVuSans-73" x="319.775391"/>
     <use xlink:href="#DejaVuSans-69" x="371.875"/>
     <use xlink:href="#DejaVuSans-6e" x="399.658203"/>
     <use xlink:href="#DejaVuSans-28" x="463.037109"/>
     <use xlink:href="#DejaVuSans-33" x="502.050781"/>
     <use xlink:href="#DejaVuSans-78" x="565.673828"/>
     <use xlink:href="#DejaVuSans-29" x="624.853516"/>
     <use xlink:href="#DejaVuSans-20" x="663.867188"/>
     <use xlink:href="#DejaVuSans-2b" x="695.654297"/>
     <use xlink:href="#DejaVuSans-20" x="779.443359"/>
     <use xlink:href="#DejaVuSans-32" x="811.230469"/>
     <use xlink:href="#DejaVuSans-3b" x="874.853516"/>
     <use xlink:href="#DejaVuSans-20" x="908.544922"/>
     <use xlink:href="#DejaVuSans-67" x="940.332031"/>
     <use xlink:href="#DejaVuSans-28" x="1003.808594"/>
     <use xlink:href="#DejaVuSans-78" x="1042.822266"/>
     <use xlink:href="#DejaVuSans-29" x="1102.001953"/>
     <use xlink:href="#DejaVuSans-20" x="1141.015625"/>
     <use xlink:href="#DejaVuSans-3d" x="1172.802734"/>
     <use xlink:href="#DejaVuSans-20" x="1256.591797"/>
     <use xlink:href="#DejaVuSans-63" x="1288.378906"/>
     <use xlink:href="#DejaVuSans-6f" x="1343.359375"/>
     <use xlink:href="#DejaVuSans-73" x="1404.541016"/>
     <use xlink:href="#DejaVuSans-28" x="1456.640625"/>
     <use xlink:href="#DejaVuSans-33" x="1495.654297"/>
     <use xlink:href="#DejaVuSans-78" x="1559.277344"/>
     <use xlink:href="#DejaVuSans-29" x="1618.457031"/>
     <use xlink:href="#DejaVuSans-20" x="1657.470703"/>
     <use xlink:href="#DejaVuSans-2b" x="1689.257812"/>
     <use xlink:href="#DejaVuSans-20" x="1773.046875"/>
     <use xlink:href="#DejaVuSans-32" x="1804.833984"/>
    </g>
   </g>
   <g id="LineCollection_3">
    <path d="M 333.867595 307.584 
L 333.867595 41.472 
" clip-path="url(#pf3f1c47c15)" style="fill: none; stroke-dasharray: 5.55,2.4; stroke-dashoffset: 0; stroke: #00ff7f; stroke-width: 1.5"/>
   </g>
   <g id="PathCollection_1">
    <defs>
     <path id="m42a610fe96" d="M 0 3 
C 0.795609 3 1.55874 2.683901 2.12132 2.12132 
C 2.683901 1.55874 3 0.795609 3 0 
C 3 -0.795609 2.683901 -1.55874 2.12132 -2.12132 
C 1.55874 -2.683901 0.795609 -3 0 -3 
C -0.795609 -3 -1.55874 -2.683901 -2.12132 -2.12132 
C -2.683901 -1.55874 -3 -0.795609 -3 0 
C -3 0.795609 -2.683901 1.55874 -2.12132 2.12132 
C -1.55874 2.683901 -0.795609 3 0 3 
z
" style="stroke: #7fffd4"/>
    </defs>
    <g clip-path="url(#pf3f1c47c15)">
     <use xlink:href="#m42a610fe96" x="263.747247" y="205.8896" style="fill: #7fffd4; stroke: #7fffd4"/>
    </g>
   </g>
   <g id="PathCollection_2">
    <g clip-path="url(#pf3f1c47c15)">
     <use xlink:href="#m42a610fe96" x="170.253449" y="143.1664" style="fill: #7fffd4; stroke: #7fffd4"/>
    </g>
   </g>
   <g id="PathCollection_3">
    <g clip-path="url(#pf3f1c47c15)">
     <use xlink:href="#m42a610fe96" x="450.734841" y="205.8896" style="fill: #7fffd4; stroke: #7fffd4"/>
    </g>
   </g>
   <g id="PathCollection_4">
    <g clip-path="url(#pf3f1c47c15)">
     <use xlink:href="#m42a610fe96" x="357.241044" y="143.1664" style="fill: #7fffd4; stroke: #7fffd4"/>
    </g>
   </g>
   <g id="PathCollection_5">
    <g clip-path="url(#pf3f1c47c15)">
     <use xlink:href="#m42a610fe96" x="637.722436" y="205.8896" style="fill: #7fffd4; stroke: #7fffd4"/>
    </g>
   </g>
   <g id="PathCollection_6">
    <g clip-path="url(#pf3f1c47c15)">
     <use xlink:href="#m42a610fe96" x="544.228639" y="143.1664" style="fill: #7fffd4; stroke: #7fffd4"/>
    </g>
   </g>
   <g id="legend_1">
    <g id="patch_7">
     <path d="M 286.12 93.548563 
L 407.72 93.548563 
Q 409.72 93.548563 409.72 91.548563 
L 409.72 48.472 
Q 409.72 46.472 407.72 46.472 
L 286.12 46.472 
Q 284.12 46.472 284.12 48.472 
L 284.12 91.548563 
Q 284.12 93.548563 286.12 93.548563 
z
" style="fill: #ffffff; opacity: 0.8; stroke: #cccccc; stroke-linejoin: miter"/>
    </g>
    <g id="line2d_19">
     <path d="M 288.12 54.570438 
L 298.12 54.570438 
L 308.12 54.570438 
" style="fill: none; stroke: #00ced1; stroke-width: 1.5; stroke-linecap: square"/>
    </g>
    <g id="text_22">
     <!-- $f(x) = \sin{\left(3 x \right)} + 2$ -->
     <g transform="translate(316.12 58.070438) scale(0.1 -0.1)">
      <defs>
       <path id="DejaVuSans-Oblique-66" d="M 3059 4863 
L 2969 4384 
L 2419 4384 
Q 2106 4384 1964 4261 
Q 1822 4138 1753 3809 
L 1691 3500 
L 2638 3500 
L 2553 3053 
L 1606 3053 
L 1013 0 
L 434 0 
L 1031 3053 
L 481 3053 
L 563 3500 
L 1113 3500 
L 1159 3744 
Q 1278 4363 1576 4613 
Q 1875 4863 2516 4863 
L 3059 4863 
z
" transform="scale(0.015625)"/>
       <path id="DejaVuSans-Oblique-78" d="M 3841 3500 
L 2234 1784 
L 3219 0 
L 2559 0 
L 1819 1388 
L 531 0 
L -166 0 
L 1556 1844 
L 641 3500 
L 1300 3500 
L 1972 2234 
L 3144 3500 
L 3841 3500 
z
" transform="scale(0.015625)"/>
      </defs>
      <use xlink:href="#DejaVuSans-Oblique-66" transform="translate(0 0.015625)"/>
      <use xlink:href="#DejaVuSans-28" transform="translate(35.205078 0.015625)"/>
      <use xlink:href="#DejaVuSans-Oblique-78" transform="translate(74.21875 0.015625)"/>
      <use xlink:href="#DejaVuSans-29" transform="translate(133.398438 0.015625)"/>
      <use xlink:href="#DejaVuSans-3d" transform="translate(191.894531 0.015625)"/>
      <use xlink:href="#DejaVuSans-73" transform="translate(295.166016 0.015625)"/>
      <use xlink:href="#DejaVuSans-69" transform="translate(347.265625 0.015625)"/>
      <use xlink:href="#DejaVuSans-6e" transform="translate(375.048828 0.015625)"/>
      <use xlink:href="#DejaVuSans-28" transform="translate(454.663411 0.015625)"/>
      <use xlink:href="#DejaVuSans-33" transform="translate(493.677083 0.015625)"/>
      <use xlink:href="#DejaVuSans-Oblique-78" transform="translate(557.300129 0.015625)"/>
      <use xlink:href="#DejaVuSans-29" transform="translate(616.479817 0.015625)"/>
      <use xlink:href="#DejaVuSans-2b" transform="translate(674.975911 0.015625)"/>
      <use xlink:href="#DejaVuSans-32" transform="translate(778.247395 0.015625)"/>
     </g>
    </g>
    <g id="line2d_20">
     <path d="M 288.12 69.250125 
L 298.12 69.250125 
L 308.12 69.250125 
" style="fill: none; stroke: #dc143c; stroke-width: 1.5; stroke-linecap: square"/>
    </g>
    <g id="text_23">
     <!-- $g(x) = \cos{\left(3 x \right)} + 2$ -->
     <g transform="translate(316.12 72.750125) scale(0.1 -0.1)">
      <defs>
       <path id="DejaVuSans-Oblique-67" d="M 3816 3500 
L 3219 434 
Q 3047 -456 2561 -893 
Q 2075 -1331 1253 -1331 
Q 950 -1331 690 -1286 
Q 431 -1241 206 -1147 
L 313 -588 
Q 525 -725 762 -790 
Q 1000 -856 1269 -856 
Q 1816 -856 2167 -557 
Q 2519 -259 2631 300 
L 2681 563 
Q 2441 288 2122 144 
Q 1803 0 1434 0 
Q 903 0 598 351 
Q 294 703 294 1319 
Q 294 1803 478 2267 
Q 663 2731 997 3091 
Q 1219 3328 1514 3456 
Q 1809 3584 2131 3584 
Q 2484 3584 2746 3420 
Q 3009 3256 3138 2956 
L 3238 3500 
L 3816 3500 
z
M 2950 2216 
Q 2950 2641 2750 2872 
Q 2550 3103 2181 3103 
Q 1953 3103 1747 3012 
Q 1541 2922 1394 2759 
Q 1156 2491 1023 2127 
Q 891 1763 891 1375 
Q 891 944 1092 712 
Q 1294 481 1672 481 
Q 2219 481 2584 976 
Q 2950 1472 2950 2216 
z
" transform="scale(0.015625)"/>
      </defs>
      <use xlink:href="#DejaVuSans-Oblique-67" transform="translate(0 0.125)"/>
      <use xlink:href="#DejaVuSans-28" transform="translate(63.476562 0.125)"/>
      <use xlink:href="#DejaVuSans-Oblique-78" transform="translate(102.490234 0.125)"/>
      <use xlink:href="#DejaVuSans-29" transform="translate(161.669922 0.125)"/>
      <use xlink:href="#DejaVuSans-3d" transform="translate(220.166016 0.125)"/>
      <use xlink:href="#DejaVuSans-63" transform="translate(323.4375 0.125)"/>
      <use xlink:href="#DejaVuSans-6f" transform="translate(378.417969 0.125)"/>
      <use xlink:href="#DejaVuSans-73" transform="translate(439.599609 0.125)"/>
      <use xlink:href="#DejaVuSans-28" transform="translate(507.934895 0.125)"/>
      <use xlink:href="#DejaVuSans-33" transform="translate(546.948567 0.125)"/>
      <use xlink:href="#DejaVuSans-Oblique-78" transform="translate(610.571614 0.125)"/>
      <use xlink:href="#DejaVuSans-29" transform="translate(669.751301 0.125)"/>
      <use xlink:href="#DejaVuSans-2b" transform="translate(728.247395 0.125)"/>
      <use xlink:href="#DejaVuSans-32" transform="translate(831.518879 0.125)"/>
     </g>
    </g>
    <g id="line2d_21">
     <path d="M 288.12 83.948563 
L 308.12 83.948563 
" style="fill: none; stroke-dasharray: 5.55,2.4; stroke-dashoffset: 0; stroke: #00ff7f; stroke-width: 1.5"/>
    </g>
    <g id="text_24">
     <!-- $x=p$ -->
     <g transform="translate(316.12 87.448563) scale(0.1 -0.1)">
      <defs>
       <path id="DejaVuSans-Oblique-70" d="M 3175 2156 
Q 3175 2616 2975 2859 
Q 2775 3103 2400 3103 
Q 2144 3103 1911 2972 
Q 1678 2841 1497 2591 
Q 1319 2344 1212 1994 
Q 1106 1644 1106 1300 
Q 1106 863 1306 627 
Q 1506 391 1875 391 
Q 2147 391 2380 519 
Q 2613 647 2778 891 
Q 2956 1147 3065 1494 
Q 3175 1841 3175 2156 
z
M 1394 2969 
Q 1625 3272 1939 3428 
Q 2253 3584 2638 3584 
Q 3175 3584 3472 3232 
Q 3769 2881 3769 2247 
Q 3769 1728 3584 1258 
Q 3400 788 3053 416 
Q 2822 169 2531 39 
Q 2241 -91 1919 -91 
Q 1547 -91 1294 64 
Q 1041 219 916 525 
L 556 -1331 
L -19 -1331 
L 922 3500 
L 1497 3500 
L 1394 2969 
z
" transform="scale(0.015625)"/>
      </defs>
      <use xlink:href="#DejaVuSans-Oblique-78"/>
      <use xlink:href="#DejaVuSans-3d" transform="translate(78.662109 0)"/>
      <use xlink:href="#DejaVuSans-Oblique-70" transform="translate(181.933594 0)"/>
     </g>
    </g>
   </g>
  </g>
 </g>
 <defs>
  <clipPath id="pf3f1c47c15">
   <rect x="57.6" y="41.472" width="357.12" height="266.112"/>
  </clipPath>
 </defs>
</svg>
