<?xml version="1.0" encoding="utf-8" standalone="no"?>
<!DOCTYPE svg PUBLIC "-//W3C//DTD SVG 1.1//EN"
  "http://www.w3.org/Graphics/SVG/1.1/DTD/svg11.dtd">
<svg xmlns:xlink="http://www.w3.org/1999/xlink" width="460.8pt" height="345.6pt" viewBox="0 0 460.8 345.6" xmlns="http://www.w3.org/2000/svg" version="1.1">
 <metadata>
  <rdf:RDF xmlns:dc="http://purl.org/dc/elements/1.1/" xmlns:cc="http://creativecommons.org/ns#" xmlns:rdf="http://www.w3.org/1999/02/22-rdf-syntax-ns#">
   <cc:Work>
    <dc:type rdf:resource="http://purl.org/dc/dcmitype/StillImage"/>
    <dc:date>2025-03-14T22:38:14.373571</dc:date>
    <dc:format>image/svg+xml</dc:format>
    <dc:creator>
     <cc:Agent>
      <dc:title>Matplotlib v3.8.3, https://matplotlib.org/</dc:title>
     </cc:Agent>
    </dc:creator>
   </cc:Work>
  </rdf:RDF>
 </metadata>
 <defs>
  <style type="text/css">*{stroke-linejoin: round; stroke-linecap: butt}</style>
 </defs>
 <g id="figure_1">
  <g id="patch_1">
   <path d="M 0 345.6 
L 460.8 345.6 
L 460.8 0 
L 0 0 
L 0 345.6 
z
" style="fill: none"/>
  </g>
  <g id="axes_1">
   <g id="patch_2">
    <path d="M 57.6 307.584 
L 414.72 307.584 
L 414.72 41.472 
L 57.6 41.472 
L 57.6 307.584 
z
" style="fill: none"/>
   </g>
   <g id="LineCollection_1">
    <path d="M 57.6 117.504 
L 414.72 117.504 
" clip-path="url(#p603b04ab0a)" style="fill: none; stroke: #d3d3d3; stroke-width: 1.5"/>
   </g>
   <g id="LineCollection_2">
    <path d="M 236.16 307.584 
L 236.16 41.472 
" clip-path="url(#p603b04ab0a)" style="fill: none; stroke: #d3d3d3; stroke-width: 1.5"/>
   </g>
   <g id="matplotlib.axis_1">
    <g id="xtick_1">
     <g id="line2d_1">
      <defs>
       <path id="mc526a585c0" d="M 0 0 
L 0 3.5 
" style="stroke: #d3d3d3; stroke-width: 0.8"/>
      </defs>
      <g>
       <use xlink:href="#mc526a585c0" x="57.6" y="307.584" style="fill: #d3d3d3; stroke: #d3d3d3; stroke-width: 0.8"/>
      </g>
     </g>
     <g id="text_1">
      <!-- −2.0 -->
      <g style="fill: #d3d3d3" transform="translate(45.458594 322.182437) scale(0.1 -0.1)">
       <defs>
        <path id="DejaVuSans-2212" d="M 678 2272 
L 4684 2272 
L 4684 1741 
L 678 1741 
L 678 2272 
z
" transform="scale(0.015625)"/>
        <path id="DejaVuSans-32" d="M 1228 531 
L 3431 531 
L 3431 0 
L 469 0 
L 469 531 
Q 828 903 1448 1529 
Q 2069 2156 2228 2338 
Q 2531 2678 2651 2914 
Q 2772 3150 2772 3378 
Q 2772 3750 2511 3984 
Q 2250 4219 1831 4219 
Q 1534 4219 1204 4116 
Q 875 4013 500 3803 
L 500 4441 
Q 881 4594 1212 4672 
Q 1544 4750 1819 4750 
Q 2544 4750 2975 4387 
Q 3406 4025 3406 3419 
Q 3406 3131 3298 2873 
Q 3191 2616 2906 2266 
Q 2828 2175 2409 1742 
Q 1991 1309 1228 531 
z
" transform="scale(0.015625)"/>
        <path id="DejaVuSans-2e" d="M 684 794 
L 1344 794 
L 1344 0 
L 684 0 
L 684 794 
z
" transform="scale(0.015625)"/>
        <path id="DejaVuSans-30" d="M 2034 4250 
Q 1547 4250 1301 3770 
Q 1056 3291 1056 2328 
Q 1056 1369 1301 889 
Q 1547 409 2034 409 
Q 2525 409 2770 889 
Q 3016 1369 3016 2328 
Q 3016 3291 2770 3770 
Q 2525 4250 2034 4250 
z
M 2034 4750 
Q 2819 4750 3233 4129 
Q 3647 3509 3647 2328 
Q 3647 1150 3233 529 
Q 2819 -91 2034 -91 
Q 1250 -91 836 529 
Q 422 1150 422 2328 
Q 422 3509 836 4129 
Q 1250 4750 2034 4750 
z
" transform="scale(0.015625)"/>
       </defs>
       <use xlink:href="#DejaVuSans-2212"/>
       <use xlink:href="#DejaVuSans-32" x="83.789062"/>
       <use xlink:href="#DejaVuSans-2e" x="147.412109"/>
       <use xlink:href="#DejaVuSans-30" x="179.199219"/>
      </g>
     </g>
    </g>
    <g id="xtick_2">
     <g id="line2d_2">
      <g>
       <use xlink:href="#mc526a585c0" x="102.24" y="307.584" style="fill: #d3d3d3; stroke: #d3d3d3; stroke-width: 0.8"/>
      </g>
     </g>
     <g id="text_2">
      <!-- −1.5 -->
      <g style="fill: #d3d3d3" transform="translate(90.098594 322.182437) scale(0.1 -0.1)">
       <defs>
        <path id="DejaVuSans-31" d="M 794 531 
L 1825 531 
L 1825 4091 
L 703 3866 
L 703 4441 
L 1819 4666 
L 2450 4666 
L 2450 531 
L 3481 531 
L 3481 0 
L 794 0 
L 794 531 
z
" transform="scale(0.015625)"/>
        <path id="DejaVuSans-35" d="M 691 4666 
L 3169 4666 
L 3169 4134 
L 1269 4134 
L 1269 2991 
Q 1406 3038 1543 3061 
Q 1681 3084 1819 3084 
Q 2600 3084 3056 2656 
Q 3513 2228 3513 1497 
Q 3513 744 3044 326 
Q 2575 -91 1722 -91 
Q 1428 -91 1123 -41 
Q 819 9 494 109 
L 494 744 
Q 775 591 1075 516 
Q 1375 441 1709 441 
Q 2250 441 2565 725 
Q 2881 1009 2881 1497 
Q 2881 1984 2565 2268 
Q 2250 2553 1709 2553 
Q 1456 2553 1204 2497 
Q 953 2441 691 2322 
L 691 4666 
z
" transform="scale(0.015625)"/>
       </defs>
       <use xlink:href="#DejaVuSans-2212"/>
       <use xlink:href="#DejaVuSans-31" x="83.789062"/>
       <use xlink:href="#DejaVuSans-2e" x="147.412109"/>
       <use xlink:href="#DejaVuSans-35" x="179.199219"/>
      </g>
     </g>
    </g>
    <g id="xtick_3">
     <g id="line2d_3">
      <g>
       <use xlink:href="#mc526a585c0" x="146.88" y="307.584" style="fill: #d3d3d3; stroke: #d3d3d3; stroke-width: 0.8"/>
      </g>
     </g>
     <g id="text_3">
      <!-- −1.0 -->
      <g style="fill: #d3d3d3" transform="translate(134.738594 322.182437) scale(0.1 -0.1)">
       <use xlink:href="#DejaVuSans-2212"/>
       <use xlink:href="#DejaVuSans-31" x="83.789062"/>
       <use xlink:href="#DejaVuSans-2e" x="147.412109"/>
       <use xlink:href="#DejaVuSans-30" x="179.199219"/>
      </g>
     </g>
    </g>
    <g id="xtick_4">
     <g id="line2d_4">
      <g>
       <use xlink:href="#mc526a585c0" x="191.52" y="307.584" style="fill: #d3d3d3; stroke: #d3d3d3; stroke-width: 0.8"/>
      </g>
     </g>
     <g id="text_4">
      <!-- −0.5 -->
      <g style="fill: #d3d3d3" transform="translate(179.378594 322.182437) scale(0.1 -0.1)">
       <use xlink:href="#DejaVuSans-2212"/>
       <use xlink:href="#DejaVuSans-30" x="83.789062"/>
       <use xlink:href="#DejaVuSans-2e" x="147.412109"/>
       <use xlink:href="#DejaVuSans-35" x="179.199219"/>
      </g>
     </g>
    </g>
    <g id="xtick_5">
     <g id="line2d_5">
      <g>
       <use xlink:href="#mc526a585c0" x="236.16" y="307.584" style="fill: #d3d3d3; stroke: #d3d3d3; stroke-width: 0.8"/>
      </g>
     </g>
     <g id="text_5">
      <!-- 0.0 -->
      <g style="fill: #d3d3d3" transform="translate(228.208438 322.182437) scale(0.1 -0.1)">
       <use xlink:href="#DejaVuSans-30"/>
       <use xlink:href="#DejaVuSans-2e" x="63.623047"/>
       <use xlink:href="#DejaVuSans-30" x="95.410156"/>
      </g>
     </g>
    </g>
    <g id="xtick_6">
     <g id="line2d_6">
      <g>
       <use xlink:href="#mc526a585c0" x="280.8" y="307.584" style="fill: #d3d3d3; stroke: #d3d3d3; stroke-width: 0.8"/>
      </g>
     </g>
     <g id="text_6">
      <!-- 0.5 -->
      <g style="fill: #d3d3d3" transform="translate(272.848437 322.182437) scale(0.1 -0.1)">
       <use xlink:href="#DejaVuSans-30"/>
       <use xlink:href="#DejaVuSans-2e" x="63.623047"/>
       <use xlink:href="#DejaVuSans-35" x="95.410156"/>
      </g>
     </g>
    </g>
    <g id="xtick_7">
     <g id="line2d_7">
      <g>
       <use xlink:href="#mc526a585c0" x="325.44" y="307.584" style="fill: #d3d3d3; stroke: #d3d3d3; stroke-width: 0.8"/>
      </g>
     </g>
     <g id="text_7">
      <!-- 1.0 -->
      <g style="fill: #d3d3d3" transform="translate(317.488437 322.182437) scale(0.1 -0.1)">
       <use xlink:href="#DejaVuSans-31"/>
       <use xlink:href="#DejaVuSans-2e" x="63.623047"/>
       <use xlink:href="#DejaVuSans-30" x="95.410156"/>
      </g>
     </g>
    </g>
    <g id="xtick_8">
     <g id="line2d_8">
      <g>
       <use xlink:href="#mc526a585c0" x="370.08" y="307.584" style="fill: #d3d3d3; stroke: #d3d3d3; stroke-width: 0.8"/>
      </g>
     </g>
     <g id="text_8">
      <!-- 1.5 -->
      <g style="fill: #d3d3d3" transform="translate(362.128438 322.182437) scale(0.1 -0.1)">
       <use xlink:href="#DejaVuSans-31"/>
       <use xlink:href="#DejaVuSans-2e" x="63.623047"/>
       <use xlink:href="#DejaVuSans-35" x="95.410156"/>
      </g>
     </g>
    </g>
    <g id="xtick_9">
     <g id="line2d_9">
      <g>
       <use xlink:href="#mc526a585c0" x="414.72" y="307.584" style="fill: #d3d3d3; stroke: #d3d3d3; stroke-width: 0.8"/>
      </g>
     </g>
     <g id="text_9">
      <!-- 2.0 -->
      <g style="fill: #d3d3d3" transform="translate(406.768438 322.182437) scale(0.1 -0.1)">
       <use xlink:href="#DejaVuSans-32"/>
       <use xlink:href="#DejaVuSans-2e" x="63.623047"/>
       <use xlink:href="#DejaVuSans-30" x="95.410156"/>
      </g>
     </g>
    </g>
    <g id="text_10">
     <!-- X-as -->
     <g style="fill: #d3d3d3" transform="translate(225.512344 335.860562) scale(0.1 -0.1)">
      <defs>
       <path id="DejaVuSans-58" d="M 403 4666 
L 1081 4666 
L 2241 2931 
L 3406 4666 
L 4084 4666 
L 2584 2425 
L 4184 0 
L 3506 0 
L 2194 1984 
L 872 0 
L 191 0 
L 1856 2491 
L 403 4666 
z
" transform="scale(0.015625)"/>
       <path id="DejaVuSans-2d" d="M 313 2009 
L 1997 2009 
L 1997 1497 
L 313 1497 
L 313 2009 
z
" transform="scale(0.015625)"/>
       <path id="DejaVuSans-61" d="M 2194 1759 
Q 1497 1759 1228 1600 
Q 959 1441 959 1056 
Q 959 750 1161 570 
Q 1363 391 1709 391 
Q 2188 391 2477 730 
Q 2766 1069 2766 1631 
L 2766 1759 
L 2194 1759 
z
M 3341 1997 
L 3341 0 
L 2766 0 
L 2766 531 
Q 2569 213 2275 61 
Q 1981 -91 1556 -91 
Q 1019 -91 701 211 
Q 384 513 384 1019 
Q 384 1609 779 1909 
Q 1175 2209 1959 2209 
L 2766 2209 
L 2766 2266 
Q 2766 2663 2505 2880 
Q 2244 3097 1772 3097 
Q 1472 3097 1187 3025 
Q 903 2953 641 2809 
L 641 3341 
Q 956 3463 1253 3523 
Q 1550 3584 1831 3584 
Q 2591 3584 2966 3190 
Q 3341 2797 3341 1997 
z
" transform="scale(0.015625)"/>
       <path id="DejaVuSans-73" d="M 2834 3397 
L 2834 2853 
Q 2591 2978 2328 3040 
Q 2066 3103 1784 3103 
Q 1356 3103 1142 2972 
Q 928 2841 928 2578 
Q 928 2378 1081 2264 
Q 1234 2150 1697 2047 
L 1894 2003 
Q 2506 1872 2764 1633 
Q 3022 1394 3022 966 
Q 3022 478 2636 193 
Q 2250 -91 1575 -91 
Q 1294 -91 989 -36 
Q 684 19 347 128 
L 347 722 
Q 666 556 975 473 
Q 1284 391 1588 391 
Q 1994 391 2212 530 
Q 2431 669 2431 922 
Q 2431 1156 2273 1281 
Q 2116 1406 1581 1522 
L 1381 1569 
Q 847 1681 609 1914 
Q 372 2147 372 2553 
Q 372 3047 722 3315 
Q 1072 3584 1716 3584 
Q 2034 3584 2315 3537 
Q 2597 3491 2834 3397 
z
" transform="scale(0.015625)"/>
      </defs>
      <use xlink:href="#DejaVuSans-58"/>
      <use xlink:href="#DejaVuSans-2d" x="63.505859"/>
      <use xlink:href="#DejaVuSans-61" x="99.589844"/>
      <use xlink:href="#DejaVuSans-73" x="160.869141"/>
     </g>
    </g>
   </g>
   <g id="matplotlib.axis_2">
    <g id="ytick_1">
     <g id="line2d_10">
      <defs>
       <path id="mca1b621935" d="M 0 0 
L -3.5 0 
" style="stroke: #d3d3d3; stroke-width: 0.8"/>
      </defs>
      <g>
       <use xlink:href="#mca1b621935" x="57.6" y="307.584" style="fill: #d3d3d3; stroke: #d3d3d3; stroke-width: 0.8"/>
      </g>
     </g>
     <g id="text_11">
      <!-- −5 -->
      <g style="fill: #d3d3d3" transform="translate(35.857813 311.383219) scale(0.1 -0.1)">
       <use xlink:href="#DejaVuSans-2212"/>
       <use xlink:href="#DejaVuSans-35" x="83.789062"/>
      </g>
     </g>
    </g>
    <g id="ytick_2">
     <g id="line2d_11">
      <g>
       <use xlink:href="#mca1b621935" x="57.6" y="269.568" style="fill: #d3d3d3; stroke: #d3d3d3; stroke-width: 0.8"/>
      </g>
     </g>
     <g id="text_12">
      <!-- −4 -->
      <g style="fill: #d3d3d3" transform="translate(35.857813 273.367219) scale(0.1 -0.1)">
       <defs>
        <path id="DejaVuSans-34" d="M 2419 4116 
L 825 1625 
L 2419 1625 
L 2419 4116 
z
M 2253 4666 
L 3047 4666 
L 3047 1625 
L 3713 1625 
L 3713 1100 
L 3047 1100 
L 3047 0 
L 2419 0 
L 2419 1100 
L 313 1100 
L 313 1709 
L 2253 4666 
z
" transform="scale(0.015625)"/>
       </defs>
       <use xlink:href="#DejaVuSans-2212"/>
       <use xlink:href="#DejaVuSans-34" x="83.789062"/>
      </g>
     </g>
    </g>
    <g id="ytick_3">
     <g id="line2d_12">
      <g>
       <use xlink:href="#mca1b621935" x="57.6" y="231.552" style="fill: #d3d3d3; stroke: #d3d3d3; stroke-width: 0.8"/>
      </g>
     </g>
     <g id="text_13">
      <!-- −3 -->
      <g style="fill: #d3d3d3" transform="translate(35.857813 235.351219) scale(0.1 -0.1)">
       <defs>
        <path id="DejaVuSans-33" d="M 2597 2516 
Q 3050 2419 3304 2112 
Q 3559 1806 3559 1356 
Q 3559 666 3084 287 
Q 2609 -91 1734 -91 
Q 1441 -91 1130 -33 
Q 819 25 488 141 
L 488 750 
Q 750 597 1062 519 
Q 1375 441 1716 441 
Q 2309 441 2620 675 
Q 2931 909 2931 1356 
Q 2931 1769 2642 2001 
Q 2353 2234 1838 2234 
L 1294 2234 
L 1294 2753 
L 1863 2753 
Q 2328 2753 2575 2939 
Q 2822 3125 2822 3475 
Q 2822 3834 2567 4026 
Q 2313 4219 1838 4219 
Q 1578 4219 1281 4162 
Q 984 4106 628 3988 
L 628 4550 
Q 988 4650 1302 4700 
Q 1616 4750 1894 4750 
Q 2613 4750 3031 4423 
Q 3450 4097 3450 3541 
Q 3450 3153 3228 2886 
Q 3006 2619 2597 2516 
z
" transform="scale(0.015625)"/>
       </defs>
       <use xlink:href="#DejaVuSans-2212"/>
       <use xlink:href="#DejaVuSans-33" x="83.789062"/>
      </g>
     </g>
    </g>
    <g id="ytick_4">
     <g id="line2d_13">
      <g>
       <use xlink:href="#mca1b621935" x="57.6" y="193.536" style="fill: #d3d3d3; stroke: #d3d3d3; stroke-width: 0.8"/>
      </g>
     </g>
     <g id="text_14">
      <!-- −2 -->
      <g style="fill: #d3d3d3" transform="translate(35.857813 197.335219) scale(0.1 -0.1)">
       <use xlink:href="#DejaVuSans-2212"/>
       <use xlink:href="#DejaVuSans-32" x="83.789062"/>
      </g>
     </g>
    </g>
    <g id="ytick_5">
     <g id="line2d_14">
      <g>
       <use xlink:href="#mca1b621935" x="57.6" y="155.52" style="fill: #d3d3d3; stroke: #d3d3d3; stroke-width: 0.8"/>
      </g>
     </g>
     <g id="text_15">
      <!-- −1 -->
      <g style="fill: #d3d3d3" transform="translate(35.857813 159.319219) scale(0.1 -0.1)">
       <use xlink:href="#DejaVuSans-2212"/>
       <use xlink:href="#DejaVuSans-31" x="83.789062"/>
      </g>
     </g>
    </g>
    <g id="ytick_6">
     <g id="line2d_15">
      <g>
       <use xlink:href="#mca1b621935" x="57.6" y="117.504" style="fill: #d3d3d3; stroke: #d3d3d3; stroke-width: 0.8"/>
      </g>
     </g>
     <g id="text_16">
      <!-- 0 -->
      <g style="fill: #d3d3d3" transform="translate(44.2375 121.303219) scale(0.1 -0.1)">
       <use xlink:href="#DejaVuSans-30"/>
      </g>
     </g>
    </g>
    <g id="ytick_7">
     <g id="line2d_16">
      <g>
       <use xlink:href="#mca1b621935" x="57.6" y="79.488" style="fill: #d3d3d3; stroke: #d3d3d3; stroke-width: 0.8"/>
      </g>
     </g>
     <g id="text_17">
      <!-- 1 -->
      <g style="fill: #d3d3d3" transform="translate(44.2375 83.287219) scale(0.1 -0.1)">
       <use xlink:href="#DejaVuSans-31"/>
      </g>
     </g>
    </g>
    <g id="ytick_8">
     <g id="line2d_17">
      <g>
       <use xlink:href="#mca1b621935" x="57.6" y="41.472" style="fill: #d3d3d3; stroke: #d3d3d3; stroke-width: 0.8"/>
      </g>
     </g>
     <g id="text_18">
      <!-- 2 -->
      <g style="fill: #d3d3d3" transform="translate(44.2375 45.271219) scale(0.1 -0.1)">
       <use xlink:href="#DejaVuSans-32"/>
      </g>
     </g>
    </g>
    <g id="text_19">
     <!-- Y-as -->
     <g style="fill: #d3d3d3" transform="translate(29.778125 184.460813) rotate(-90) scale(0.1 -0.1)">
      <defs>
       <path id="DejaVuSans-59" d="M -13 4666 
L 666 4666 
L 1959 2747 
L 3244 4666 
L 3922 4666 
L 2272 2222 
L 2272 0 
L 1638 0 
L 1638 2222 
L -13 4666 
z
" transform="scale(0.015625)"/>
      </defs>
      <use xlink:href="#DejaVuSans-59"/>
      <use xlink:href="#DejaVuSans-2d" x="49.208984"/>
      <use xlink:href="#DejaVuSans-61" x="85.292969"/>
      <use xlink:href="#DejaVuSans-73" x="146.572266"/>
     </g>
    </g>
   </g>
   <g id="line2d_18">
    <path d="M 57.6 79.488 
L 64.7424 91.409818 
L 70.992 101.44224 
L 77.2416 111.102106 
L 83.4912 120.389414 
L 89.7408 129.304166 
L 95.9904 137.846362 
L 102.24 146.016 
L 108.4896 153.813082 
L 114.7392 161.237606 
L 120.9888 168.289574 
L 127.2384 174.968986 
L 133.488 181.27584 
L 138.8448 186.38519 
L 144.2016 191.220826 
L 149.5584 195.782746 
L 154.9152 200.07095 
L 160.272 204.08544 
L 165.6288 207.826214 
L 170.9856 211.293274 
L 176.3424 214.486618 
L 181.6992 217.406246 
L 187.056 220.05216 
L 192.4128 222.424358 
L 197.7696 224.522842 
L 203.1264 226.34761 
L 208.4832 227.898662 
L 213.84 229.176 
L 218.304 230.03136 
L 222.768 230.69664 
L 227.232 231.17184 
L 231.696 231.45696 
L 236.16 231.552 
L 240.624 231.45696 
L 245.088 231.17184 
L 249.552 230.69664 
L 254.016 230.03136 
L 258.48 229.176 
L 262.944 228.13056 
L 268.3008 226.625126 
L 273.6576 224.845978 
L 279.0144 222.793114 
L 284.3712 220.466534 
L 289.728 217.86624 
L 295.0848 214.99223 
L 300.4416 211.844506 
L 305.7984 208.423066 
L 311.1552 204.72791 
L 316.512 200.75904 
L 321.8688 196.516454 
L 327.2256 192.000154 
L 332.5824 187.210138 
L 337.9392 182.146406 
L 343.296 176.80896 
L 348.6528 171.197798 
L 354.9024 164.305498 
L 361.152 157.04064 
L 367.4016 149.403226 
L 373.6512 141.393254 
L 379.9008 133.010726 
L 386.1504 124.255642 
L 392.4 115.128 
L 398.6496 105.627802 
L 404.8992 95.755046 
L 411.1488 85.509734 
L 413.8272 81.004838 
L 413.8272 81.004838 
" clip-path="url(#p603b04ab0a)" style="fill: none; stroke: #00ced1; stroke-width: 1.5; stroke-linecap: square"/>
   </g>
   <g id="line2d_19">
    <path d="M 57.6 307.584 
L 64.7424 295.662182 
L 70.992 285.62976 
L 77.2416 275.969894 
L 83.4912 266.682586 
L 89.7408 257.767834 
L 95.9904 249.225638 
L 102.24 241.056 
L 108.4896 233.258918 
L 114.7392 225.834394 
L 120.9888 218.782426 
L 127.2384 212.103014 
L 133.488 205.79616 
L 138.8448 200.68681 
L 144.2016 195.851174 
L 149.5584 191.289254 
L 154.9152 187.00105 
L 160.272 182.98656 
L 165.6288 179.245786 
L 170.9856 175.778726 
L 176.3424 172.585382 
L 181.6992 169.665754 
L 187.056 167.01984 
L 192.4128 164.647642 
L 197.7696 162.549158 
L 203.1264 160.72439 
L 208.4832 159.173338 
L 213.84 157.896 
L 218.304 157.04064 
L 222.768 156.37536 
L 227.232 155.90016 
L 231.696 155.61504 
L 236.16 155.52 
L 240.624 155.61504 
L 245.088 155.90016 
L 249.552 156.37536 
L 254.016 157.04064 
L 258.48 157.896 
L 262.944 158.94144 
L 268.3008 160.446874 
L 273.6576 162.226022 
L 279.0144 164.278886 
L 284.3712 166.605466 
L 289.728 169.20576 
L 295.0848 172.07977 
L 300.4416 175.227494 
L 305.7984 178.648934 
L 311.1552 182.34409 
L 316.512 186.31296 
L 321.8688 190.555546 
L 327.2256 195.071846 
L 332.5824 199.861862 
L 337.9392 204.925594 
L 343.296 210.26304 
L 348.6528 215.874202 
L 354.9024 222.766502 
L 361.152 230.03136 
L 367.4016 237.668774 
L 373.6512 245.678746 
L 379.9008 254.061274 
L 386.1504 262.816358 
L 392.4 271.944 
L 398.6496 281.444198 
L 404.8992 291.316954 
L 411.1488 301.562266 
L 413.8272 306.067162 
L 413.8272 306.067162 
" clip-path="url(#p603b04ab0a)" style="fill: none; stroke: #dc143c; stroke-width: 1.5; stroke-linecap: square"/>
   </g>
   <g id="patch_3">
    <path d="M 57.6 307.584 
L 57.6 41.472 
" style="fill: none; stroke: #d3d3d3; stroke-width: 0.8; stroke-linejoin: miter; stroke-linecap: square"/>
   </g>
   <g id="patch_4">
    <path d="M 414.72 307.584 
L 414.72 41.472 
" style="fill: none; stroke: #d3d3d3; stroke-width: 0.8; stroke-linejoin: miter; stroke-linecap: square"/>
   </g>
   <g id="patch_5">
    <path d="M 57.6 307.584 
L 414.72 307.584 
" style="fill: none; stroke: #d3d3d3; stroke-width: 0.8; stroke-linejoin: miter; stroke-linecap: square"/>
   </g>
   <g id="patch_6">
    <path d="M 57.6 41.472 
L 414.72 41.472 
" style="fill: none; stroke: #d3d3d3; stroke-width: 0.8; stroke-linejoin: miter; stroke-linecap: square"/>
   </g>
   <g id="PolyCollection_1">
    <defs>
     <path id="m377713c8d9" d="M 146.88 -152.064 
L 146.88 -152.064 
L 147.7728 -151.307482 
L 148.6656 -150.558566 
L 149.5584 -149.817254 
L 150.4512 -149.083546 
L 151.344 -148.35744 
L 152.2368 -147.638938 
L 153.1296 -146.928038 
L 154.0224 -146.224742 
L 154.9152 -145.52905 
L 155.808 -144.84096 
L 156.7008 -144.160474 
L 157.5936 -143.48759 
L 158.4864 -142.82231 
L 159.3792 -142.164634 
L 160.272 -141.51456 
L 161.1648 -140.87209 
L 162.0576 -140.237222 
L 162.9504 -139.609958 
L 163.8432 -138.990298 
L 164.736 -138.37824 
L 165.6288 -137.773786 
L 166.5216 -137.176934 
L 167.4144 -136.587686 
L 168.3072 -136.006042 
L 169.2 -135.432 
L 170.0928 -134.865562 
L 170.9856 -134.306726 
L 171.8784 -133.755494 
L 172.7712 -133.211866 
L 173.664 -132.67584 
L 174.5568 -132.147418 
L 175.4496 -131.626598 
L 176.3424 -131.113382 
L 177.2352 -130.60777 
L 178.128 -130.10976 
L 179.0208 -129.619354 
L 179.9136 -129.13655 
L 180.8064 -128.66135 
L 181.6992 -128.193754 
L 182.592 -127.73376 
L 183.4848 -127.28137 
L 184.3776 -126.836582 
L 185.2704 -126.399398 
L 186.1632 -125.969818 
L 187.056 -125.54784 
L 187.9488 -125.133466 
L 188.8416 -124.726694 
L 189.7344 -124.327526 
L 190.6272 -123.935962 
L 191.52 -123.552 
L 192.4128 -123.175642 
L 193.3056 -122.806886 
L 194.1984 -122.445734 
L 195.0912 -122.092186 
L 195.984 -121.74624 
L 196.8768 -121.407898 
L 197.7696 -121.077158 
L 198.6624 -120.754022 
L 199.5552 -120.43849 
L 200.448 -120.13056 
L 201.3408 -119.830234 
L 202.2336 -119.53751 
L 203.1264 -119.25239 
L 204.0192 -118.974874 
L 204.912 -118.70496 
L 205.8048 -118.44265 
L 206.6976 -118.187942 
L 207.5904 -117.940838 
L 208.4832 -117.701338 
L 209.376 -117.46944 
L 210.2688 -117.245146 
L 211.1616 -117.028454 
L 212.0544 -116.819366 
L 212.9472 -116.617882 
L 213.84 -116.424 
L 214.7328 -116.237722 
L 215.6256 -116.059046 
L 216.5184 -115.887974 
L 217.4112 -115.724506 
L 218.304 -115.56864 
L 219.1968 -115.420378 
L 220.0896 -115.279718 
L 220.9824 -115.146662 
L 221.8752 -115.02121 
L 222.768 -114.90336 
L 223.6608 -114.793114 
L 224.5536 -114.69047 
L 225.4464 -114.59543 
L 226.3392 -114.507994 
L 227.232 -114.42816 
L 228.1248 -114.35593 
L 229.0176 -114.291302 
L 229.9104 -114.234278 
L 230.8032 -114.184858 
L 231.696 -114.14304 
L 232.5888 -114.108826 
L 233.4816 -114.082214 
L 234.3744 -114.063206 
L 235.2672 -114.051802 
L 236.16 -114.048 
L 237.0528 -114.051802 
L 237.9456 -114.063206 
L 238.8384 -114.082214 
L 239.7312 -114.108826 
L 240.624 -114.14304 
L 241.5168 -114.184858 
L 242.4096 -114.234278 
L 243.3024 -114.291302 
L 244.1952 -114.35593 
L 245.088 -114.42816 
L 245.9808 -114.507994 
L 246.8736 -114.59543 
L 247.7664 -114.69047 
L 248.6592 -114.793114 
L 249.552 -114.90336 
L 250.4448 -115.02121 
L 251.3376 -115.146662 
L 252.2304 -115.279718 
L 253.1232 -115.420378 
L 254.016 -115.56864 
L 254.9088 -115.724506 
L 255.8016 -115.887974 
L 256.6944 -116.059046 
L 257.5872 -116.237722 
L 258.48 -116.424 
L 259.3728 -116.617882 
L 260.2656 -116.819366 
L 261.1584 -117.028454 
L 262.0512 -117.245146 
L 262.944 -117.46944 
L 263.8368 -117.701338 
L 264.7296 -117.940838 
L 265.6224 -118.187942 
L 266.5152 -118.44265 
L 267.408 -118.70496 
L 268.3008 -118.974874 
L 269.1936 -119.25239 
L 270.0864 -119.53751 
L 270.9792 -119.830234 
L 271.872 -120.13056 
L 272.7648 -120.43849 
L 273.6576 -120.754022 
L 274.5504 -121.077158 
L 275.4432 -121.407898 
L 276.336 -121.74624 
L 277.2288 -122.092186 
L 278.1216 -122.445734 
L 279.0144 -122.806886 
L 279.9072 -123.175642 
L 280.8 -123.552 
L 281.6928 -123.935962 
L 282.5856 -124.327526 
L 283.4784 -124.726694 
L 284.3712 -125.133466 
L 285.264 -125.54784 
L 286.1568 -125.969818 
L 287.0496 -126.399398 
L 287.9424 -126.836582 
L 288.8352 -127.28137 
L 289.728 -127.73376 
L 290.6208 -128.193754 
L 291.5136 -128.66135 
L 292.4064 -129.13655 
L 293.2992 -129.619354 
L 294.192 -130.10976 
L 295.0848 -130.60777 
L 295.9776 -131.113382 
L 296.8704 -131.626598 
L 297.7632 -132.147418 
L 298.656 -132.67584 
L 299.5488 -133.211866 
L 300.4416 -133.755494 
L 301.3344 -134.306726 
L 302.2272 -134.865562 
L 303.12 -135.432 
L 304.0128 -136.006042 
L 304.9056 -136.587686 
L 305.7984 -137.176934 
L 306.6912 -137.773786 
L 307.584 -138.37824 
L 308.4768 -138.990298 
L 309.3696 -139.609958 
L 310.2624 -140.237222 
L 311.1552 -140.87209 
L 312.048 -141.51456 
L 312.9408 -142.164634 
L 313.8336 -142.82231 
L 314.7264 -143.48759 
L 315.6192 -144.160474 
L 316.512 -144.84096 
L 317.4048 -145.52905 
L 318.2976 -146.224742 
L 319.1904 -146.928038 
L 320.0832 -147.638938 
L 320.976 -148.35744 
L 321.8688 -149.083546 
L 322.7616 -149.817254 
L 323.6544 -150.558566 
L 324.5472 -151.307482 
L 324.5472 -152.820518 
L 324.5472 -152.820518 
L 323.6544 -153.569434 
L 322.7616 -154.310746 
L 321.8688 -155.044454 
L 320.976 -155.77056 
L 320.0832 -156.489062 
L 319.1904 -157.199962 
L 318.2976 -157.903258 
L 317.4048 -158.59895 
L 316.512 -159.28704 
L 315.6192 -159.967526 
L 314.7264 -160.64041 
L 313.8336 -161.30569 
L 312.9408 -161.963366 
L 312.048 -162.61344 
L 311.1552 -163.25591 
L 310.2624 -163.890778 
L 309.3696 -164.518042 
L 308.4768 -165.137702 
L 307.584 -165.74976 
L 306.6912 -166.354214 
L 305.7984 -166.951066 
L 304.9056 -167.540314 
L 304.0128 -168.121958 
L 303.12 -168.696 
L 302.2272 -169.262438 
L 301.3344 -169.821274 
L 300.4416 -170.372506 
L 299.5488 -170.916134 
L 298.656 -171.45216 
L 297.7632 -171.980582 
L 296.8704 -172.501402 
L 295.9776 -173.014618 
L 295.0848 -173.52023 
L 294.192 -174.01824 
L 293.2992 -174.508646 
L 292.4064 -174.99145 
L 291.5136 -175.46665 
L 290.6208 -175.934246 
L 289.728 -176.39424 
L 288.8352 -176.84663 
L 287.9424 -177.291418 
L 287.0496 -177.728602 
L 286.1568 -178.158182 
L 285.264 -178.58016 
L 284.3712 -178.994534 
L 283.4784 -179.401306 
L 282.5856 -179.800474 
L 281.6928 -180.192038 
L 280.8 -180.576 
L 279.9072 -180.952358 
L 279.0144 -181.321114 
L 278.1216 -181.682266 
L 277.2288 -182.035814 
L 276.336 -182.38176 
L 275.4432 -182.720102 
L 274.5504 -183.050842 
L 273.6576 -183.373978 
L 272.7648 -183.68951 
L 271.872 -183.99744 
L 270.9792 -184.297766 
L 270.0864 -184.59049 
L 269.1936 -184.87561 
L 268.3008 -185.153126 
L 267.408 -185.42304 
L 266.5152 -185.68535 
L 265.6224 -185.940058 
L 264.7296 -186.187162 
L 263.8368 -186.426662 
L 262.944 -186.65856 
L 262.0512 -186.882854 
L 261.1584 -187.099546 
L 260.2656 -187.308634 
L 259.3728 -187.510118 
L 258.48 -187.704 
L 257.5872 -187.890278 
L 256.6944 -188.068954 
L 255.8016 -188.240026 
L 254.9088 -188.403494 
L 254.016 -188.55936 
L 253.1232 -188.707622 
L 252.2304 -188.848282 
L 251.3376 -188.981338 
L 250.4448 -189.10679 
L 249.552 -189.22464 
L 248.6592 -189.334886 
L 247.7664 -189.43753 
L 246.8736 -189.53257 
L 245.9808 -189.620006 
L 245.088 -189.69984 
L 244.1952 -189.77207 
L 243.3024 -189.836698 
L 242.4096 -189.893722 
L 241.5168 -189.943142 
L 240.624 -189.98496 
L 239.7312 -190.019174 
L 238.8384 -190.045786 
L 237.9456 -190.064794 
L 237.0528 -190.076198 
L 236.16 -190.08 
L 235.2672 -190.076198 
L 234.3744 -190.064794 
L 233.4816 -190.045786 
L 232.5888 -190.019174 
L 231.696 -189.98496 
L 230.8032 -189.943142 
L 229.9104 -189.893722 
L 229.0176 -189.836698 
L 228.1248 -189.77207 
L 227.232 -189.69984 
L 226.3392 -189.620006 
L 225.4464 -189.53257 
L 224.5536 -189.43753 
L 223.6608 -189.334886 
L 222.768 -189.22464 
L 221.8752 -189.10679 
L 220.9824 -188.981338 
L 220.0896 -188.848282 
L 219.1968 -188.707622 
L 218.304 -188.55936 
L 217.4112 -188.403494 
L 216.5184 -188.240026 
L 215.6256 -188.068954 
L 214.7328 -187.890278 
L 213.84 -187.704 
L 212.9472 -187.510118 
L 212.0544 -187.308634 
L 211.1616 -187.099546 
L 210.2688 -186.882854 
L 209.376 -186.65856 
L 208.4832 -186.426662 
L 207.5904 -186.187162 
L 206.6976 -185.940058 
L 205.8048 -185.68535 
L 204.912 -185.42304 
L 204.0192 -185.153126 
L 203.1264 -184.87561 
L 202.2336 -184.59049 
L 201.3408 -184.297766 
L 200.448 -183.99744 
L 199.5552 -183.68951 
L 198.6624 -183.373978 
L 197.7696 -183.050842 
L 196.8768 -182.720102 
L 195.984 -182.38176 
L 195.0912 -182.035814 
L 194.1984 -181.682266 
L 193.3056 -181.321114 
L 192.4128 -180.952358 
L 191.52 -180.576 
L 190.6272 -180.192038 
L 189.7344 -179.800474 
L 188.8416 -179.401306 
L 187.9488 -178.994534 
L 187.056 -178.58016 
L 186.1632 -178.158182 
L 185.2704 -177.728602 
L 184.3776 -177.291418 
L 183.4848 -176.84663 
L 182.592 -176.39424 
L 181.6992 -175.934246 
L 180.8064 -175.46665 
L 179.9136 -174.99145 
L 179.0208 -174.508646 
L 178.128 -174.01824 
L 177.2352 -173.52023 
L 176.3424 -173.014618 
L 175.4496 -172.501402 
L 174.5568 -171.980582 
L 173.664 -171.45216 
L 172.7712 -170.916134 
L 171.8784 -170.372506 
L 170.9856 -169.821274 
L 170.0928 -169.262438 
L 169.2 -168.696 
L 168.3072 -168.121958 
L 167.4144 -167.540314 
L 166.5216 -166.951066 
L 165.6288 -166.354214 
L 164.736 -165.74976 
L 163.8432 -165.137702 
L 162.9504 -164.518042 
L 162.0576 -163.890778 
L 161.1648 -163.25591 
L 160.272 -162.61344 
L 159.3792 -161.963366 
L 158.4864 -161.30569 
L 157.5936 -160.64041 
L 156.7008 -159.967526 
L 155.808 -159.28704 
L 154.9152 -158.59895 
L 154.0224 -157.903258 
L 153.1296 -157.199962 
L 152.2368 -156.489062 
L 151.344 -155.77056 
L 150.4512 -155.044454 
L 149.5584 -154.310746 
L 148.6656 -153.569434 
L 147.7728 -152.820518 
L 146.88 -152.064 
z
" style="stroke: #9400d3; stroke-opacity: 0.7"/>
    </defs>
    <g clip-path="url(#p603b04ab0a)">
     <use xlink:href="#m377713c8d9" x="0" y="345.6" style="fill: #9400d3; fill-opacity: 0.7; stroke: #9400d3; stroke-opacity: 0.7"/>
    </g>
   </g>
   <g id="text_20">
    <!-- $V_2$ -->
    <g style="fill: #ffffff" transform="translate(258.48 193.536) scale(0.1728 -0.1728)">
     <defs>
      <path id="DejaVuSans-Oblique-56" d="M 1319 0 
L 500 4666 
L 1119 4666 
L 1797 653 
L 4063 4666 
L 4750 4666 
L 2053 0 
L 1319 0 
z
" transform="scale(0.015625)"/>
     </defs>
     <use xlink:href="#DejaVuSans-Oblique-56" transform="translate(0 0.09375)"/>
     <use xlink:href="#DejaVuSans-32" transform="translate(68.408203 -16.3125) scale(0.7)"/>
    </g>
   </g>
   <g id="text_21">
    <!-- f(x)= x² - 3; g(x) = -x² - 1 -->
    <g style="fill: #d3d3d3" transform="translate(160.397812 35.472) scale(0.12 -0.12)">
     <defs>
      <path id="DejaVuSans-66" d="M 2375 4863 
L 2375 4384 
L 1825 4384 
Q 1516 4384 1395 4259 
Q 1275 4134 1275 3809 
L 1275 3500 
L 2222 3500 
L 2222 3053 
L 1275 3053 
L 1275 0 
L 697 0 
L 697 3053 
L 147 3053 
L 147 3500 
L 697 3500 
L 697 3744 
Q 697 4328 969 4595 
Q 1241 4863 1831 4863 
L 2375 4863 
z
" transform="scale(0.015625)"/>
      <path id="DejaVuSans-28" d="M 1984 4856 
Q 1566 4138 1362 3434 
Q 1159 2731 1159 2009 
Q 1159 1288 1364 580 
Q 1569 -128 1984 -844 
L 1484 -844 
Q 1016 -109 783 600 
Q 550 1309 550 2009 
Q 550 2706 781 3412 
Q 1013 4119 1484 4856 
L 1984 4856 
z
" transform="scale(0.015625)"/>
      <path id="DejaVuSans-78" d="M 3513 3500 
L 2247 1797 
L 3578 0 
L 2900 0 
L 1881 1375 
L 863 0 
L 184 0 
L 1544 1831 
L 300 3500 
L 978 3500 
L 1906 2253 
L 2834 3500 
L 3513 3500 
z
" transform="scale(0.015625)"/>
      <path id="DejaVuSans-29" d="M 513 4856 
L 1013 4856 
Q 1481 4119 1714 3412 
Q 1947 2706 1947 2009 
Q 1947 1309 1714 600 
Q 1481 -109 1013 -844 
L 513 -844 
Q 928 -128 1133 580 
Q 1338 1288 1338 2009 
Q 1338 2731 1133 3434 
Q 928 4138 513 4856 
z
" transform="scale(0.015625)"/>
      <path id="DejaVuSans-3d" d="M 678 2906 
L 4684 2906 
L 4684 2381 
L 678 2381 
L 678 2906 
z
M 678 1631 
L 4684 1631 
L 4684 1100 
L 678 1100 
L 678 1631 
z
" transform="scale(0.015625)"/>
      <path id="DejaVuSans-20" transform="scale(0.015625)"/>
      <path id="DejaVuSans-b2" d="M 838 2444 
L 2163 2444 
L 2163 2088 
L 294 2088 
L 294 2431 
Q 400 2528 597 2703 
Q 1672 3656 1672 3950 
Q 1672 4156 1509 4282 
Q 1347 4409 1081 4409 
Q 919 4409 728 4354 
Q 538 4300 313 4191 
L 313 4575 
Q 553 4663 761 4706 
Q 969 4750 1147 4750 
Q 1600 4750 1872 4544 
Q 2144 4338 2144 4000 
Q 2144 3566 1109 2678 
Q 934 2528 838 2444 
z
" transform="scale(0.015625)"/>
      <path id="DejaVuSans-3b" d="M 750 3309 
L 1409 3309 
L 1409 2516 
L 750 2516 
L 750 3309 
z
M 750 794 
L 1409 794 
L 1409 256 
L 897 -744 
L 494 -744 
L 750 256 
L 750 794 
z
" transform="scale(0.015625)"/>
      <path id="DejaVuSans-67" d="M 2906 1791 
Q 2906 2416 2648 2759 
Q 2391 3103 1925 3103 
Q 1463 3103 1205 2759 
Q 947 2416 947 1791 
Q 947 1169 1205 825 
Q 1463 481 1925 481 
Q 2391 481 2648 825 
Q 2906 1169 2906 1791 
z
M 3481 434 
Q 3481 -459 3084 -895 
Q 2688 -1331 1869 -1331 
Q 1566 -1331 1297 -1286 
Q 1028 -1241 775 -1147 
L 775 -588 
Q 1028 -725 1275 -790 
Q 1522 -856 1778 -856 
Q 2344 -856 2625 -561 
Q 2906 -266 2906 331 
L 2906 616 
Q 2728 306 2450 153 
Q 2172 0 1784 0 
Q 1141 0 747 490 
Q 353 981 353 1791 
Q 353 2603 747 3093 
Q 1141 3584 1784 3584 
Q 2172 3584 2450 3431 
Q 2728 3278 2906 2969 
L 2906 3500 
L 3481 3500 
L 3481 434 
z
" transform="scale(0.015625)"/>
     </defs>
     <use xlink:href="#DejaVuSans-66"/>
     <use xlink:href="#DejaVuSans-28" x="35.205078"/>
     <use xlink:href="#DejaVuSans-78" x="74.21875"/>
     <use xlink:href="#DejaVuSans-29" x="133.398438"/>
     <use xlink:href="#DejaVuSans-3d" x="172.412109"/>
     <use xlink:href="#DejaVuSans-20" x="256.201172"/>
     <use xlink:href="#DejaVuSans-78" x="287.988281"/>
     <use xlink:href="#DejaVuSans-b2" x="347.167969"/>
     <use xlink:href="#DejaVuSans-20" x="387.255859"/>
     <use xlink:href="#DejaVuSans-2d" x="419.042969"/>
     <use xlink:href="#DejaVuSans-20" x="455.126953"/>
     <use xlink:href="#DejaVuSans-33" x="486.914062"/>
     <use xlink:href="#DejaVuSans-3b" x="550.537109"/>
     <use xlink:href="#DejaVuSans-20" x="584.228516"/>
     <use xlink:href="#DejaVuSans-67" x="616.015625"/>
     <use xlink:href="#DejaVuSans-28" x="679.492188"/>
     <use xlink:href="#DejaVuSans-78" x="718.505859"/>
     <use xlink:href="#DejaVuSans-29" x="777.685547"/>
     <use xlink:href="#DejaVuSans-20" x="816.699219"/>
     <use xlink:href="#DejaVuSans-3d" x="848.486328"/>
     <use xlink:href="#DejaVuSans-20" x="932.275391"/>
     <use xlink:href="#DejaVuSans-2d" x="964.0625"/>
     <use xlink:href="#DejaVuSans-78" x="1000.146484"/>
     <use xlink:href="#DejaVuSans-b2" x="1059.326172"/>
     <use xlink:href="#DejaVuSans-20" x="1099.414062"/>
     <use xlink:href="#DejaVuSans-2d" x="1131.201172"/>
     <use xlink:href="#DejaVuSans-20" x="1167.285156"/>
     <use xlink:href="#DejaVuSans-31" x="1199.072266"/>
    </g>
   </g>
   <g id="PathCollection_1">
    <defs>
     <path id="m232c2e8a5c" d="M 0 3 
C 0.795609 3 1.55874 2.683901 2.12132 2.12132 
C 2.683901 1.55874 3 0.795609 3 0 
C 3 -0.795609 2.683901 -1.55874 2.12132 -2.12132 
C 1.55874 -2.683901 0.795609 -3 0 -3 
C -0.795609 -3 -1.55874 -2.683901 -2.12132 -2.12132 
C -2.683901 -1.55874 -3 -0.795609 -3 0 
C -3 0.795609 -2.683901 1.55874 -2.12132 2.12132 
C -1.55874 2.683901 -0.795609 3 0 3 
z
" style="stroke: #7fffd4"/>
    </defs>
    <g clip-path="url(#p603b04ab0a)">
     <use xlink:href="#m232c2e8a5c" x="146.88" y="193.536" style="fill: #7fffd4; stroke: #7fffd4"/>
     <use xlink:href="#m232c2e8a5c" x="325.44" y="193.536" style="fill: #7fffd4; stroke: #7fffd4"/>
    </g>
   </g>
   <g id="legend_1">
    <g id="patch_7">
     <path d="M 301.32 81.172 
L 407.72 81.172 
Q 409.72 81.172 409.72 79.172 
L 409.72 48.472 
Q 409.72 46.472 407.72 46.472 
L 301.32 46.472 
Q 299.32 46.472 299.32 48.472 
L 299.32 79.172 
Q 299.32 81.172 301.32 81.172 
z
" style="fill: #ffffff; opacity: 0.8; stroke: #cccccc; stroke-linejoin: miter"/>
    </g>
    <g id="line2d_20">
     <path d="M 303.32 55.392312 
L 313.32 55.392312 
L 323.32 55.392312 
" style="fill: none; stroke: #00ced1; stroke-width: 1.5; stroke-linecap: square"/>
    </g>
    <g id="text_22">
     <!-- $f(x) = x^{2} - 3$ -->
     <g transform="translate(331.32 58.892312) scale(0.1 -0.1)">
      <defs>
       <path id="DejaVuSans-Oblique-66" d="M 3059 4863 
L 2969 4384 
L 2419 4384 
Q 2106 4384 1964 4261 
Q 1822 4138 1753 3809 
L 1691 3500 
L 2638 3500 
L 2553 3053 
L 1606 3053 
L 1013 0 
L 434 0 
L 1031 3053 
L 481 3053 
L 563 3500 
L 1113 3500 
L 1159 3744 
Q 1278 4363 1576 4613 
Q 1875 4863 2516 4863 
L 3059 4863 
z
" transform="scale(0.015625)"/>
       <path id="DejaVuSans-Oblique-78" d="M 3841 3500 
L 2234 1784 
L 3219 0 
L 2559 0 
L 1819 1388 
L 531 0 
L -166 0 
L 1556 1844 
L 641 3500 
L 1300 3500 
L 1972 2234 
L 3144 3500 
L 3841 3500 
z
" transform="scale(0.015625)"/>
      </defs>
      <use xlink:href="#DejaVuSans-Oblique-66" transform="translate(0 0.765625)"/>
      <use xlink:href="#DejaVuSans-28" transform="translate(35.205078 0.765625)"/>
      <use xlink:href="#DejaVuSans-Oblique-78" transform="translate(74.21875 0.765625)"/>
      <use xlink:href="#DejaVuSans-29" transform="translate(133.398438 0.765625)"/>
      <use xlink:href="#DejaVuSans-3d" transform="translate(191.894531 0.765625)"/>
      <use xlink:href="#DejaVuSans-Oblique-78" transform="translate(295.166016 0.765625)"/>
      <use xlink:href="#DejaVuSans-32" transform="translate(358.811849 39.046875) scale(0.7)"/>
      <use xlink:href="#DejaVuSans-2212" transform="translate(425.564779 0.765625)"/>
      <use xlink:href="#DejaVuSans-33" transform="translate(528.836263 0.765625)"/>
     </g>
    </g>
    <g id="line2d_21">
     <path d="M 303.32 71.572 
L 313.32 71.572 
L 323.32 71.572 
" style="fill: none; stroke: #dc143c; stroke-width: 1.5; stroke-linecap: square"/>
    </g>
    <g id="text_23">
     <!-- $g(x) = - x^{2} - 1$ -->
     <g transform="translate(331.32 75.072) scale(0.1 -0.1)">
      <defs>
       <path id="DejaVuSans-Oblique-67" d="M 3816 3500 
L 3219 434 
Q 3047 -456 2561 -893 
Q 2075 -1331 1253 -1331 
Q 950 -1331 690 -1286 
Q 431 -1241 206 -1147 
L 313 -588 
Q 525 -725 762 -790 
Q 1000 -856 1269 -856 
Q 1816 -856 2167 -557 
Q 2519 -259 2631 300 
L 2681 563 
Q 2441 288 2122 144 
Q 1803 0 1434 0 
Q 903 0 598 351 
Q 294 703 294 1319 
Q 294 1803 478 2267 
Q 663 2731 997 3091 
Q 1219 3328 1514 3456 
Q 1809 3584 2131 3584 
Q 2484 3584 2746 3420 
Q 3009 3256 3138 2956 
L 3238 3500 
L 3816 3500 
z
M 2950 2216 
Q 2950 2641 2750 2872 
Q 2550 3103 2181 3103 
Q 1953 3103 1747 3012 
Q 1541 2922 1394 2759 
Q 1156 2491 1023 2127 
Q 891 1763 891 1375 
Q 891 944 1092 712 
Q 1294 481 1672 481 
Q 2219 481 2584 976 
Q 2950 1472 2950 2216 
z
" transform="scale(0.015625)"/>
      </defs>
      <use xlink:href="#DejaVuSans-Oblique-67" transform="translate(0 0.765625)"/>
      <use xlink:href="#DejaVuSans-28" transform="translate(63.476562 0.765625)"/>
      <use xlink:href="#DejaVuSans-Oblique-78" transform="translate(102.490234 0.765625)"/>
      <use xlink:href="#DejaVuSans-29" transform="translate(161.669922 0.765625)"/>
      <use xlink:href="#DejaVuSans-3d" transform="translate(220.166016 0.765625)"/>
      <use xlink:href="#DejaVuSans-2212" transform="translate(342.919922 0.765625)"/>
      <use xlink:href="#DejaVuSans-Oblique-78" transform="translate(446.191406 0.765625)"/>
      <use xlink:href="#DejaVuSans-32" transform="translate(509.83724 39.046875) scale(0.7)"/>
      <use xlink:href="#DejaVuSans-2212" transform="translate(576.590169 0.765625)"/>
      <use xlink:href="#DejaVuSans-31" transform="translate(679.861654 0.765625)"/>
     </g>
    </g>
   </g>
  </g>
 </g>
 <defs>
  <clipPath id="p603b04ab0a">
   <rect x="57.6" y="41.472" width="357.12" height="266.112"/>
  </clipPath>
 </defs>
</svg>
