<?xml version="1.0" encoding="utf-8" standalone="no"?>
<!DOCTYPE svg PUBLIC "-//W3C//DTD SVG 1.1//EN"
  "http://www.w3.org/Graphics/SVG/1.1/DTD/svg11.dtd">
<svg xmlns:xlink="http://www.w3.org/1999/xlink" width="460.8pt" height="345.6pt" viewBox="0 0 460.8 345.6" xmlns="http://www.w3.org/2000/svg" version="1.1">
 <metadata>
  <rdf:RDF xmlns:dc="http://purl.org/dc/elements/1.1/" xmlns:cc="http://creativecommons.org/ns#" xmlns:rdf="http://www.w3.org/1999/02/22-rdf-syntax-ns#">
   <cc:Work>
    <dc:type rdf:resource="http://purl.org/dc/dcmitype/StillImage"/>
    <dc:date>2024-08-11T15:06:58.500933</dc:date>
    <dc:format>image/svg+xml</dc:format>
    <dc:creator>
     <cc:Agent>
      <dc:title>Matplotlib v3.8.3, https://matplotlib.org/</dc:title>
     </cc:Agent>
    </dc:creator>
   </cc:Work>
  </rdf:RDF>
 </metadata>
 <defs>
  <style type="text/css">*{stroke-linejoin: round; stroke-linecap: butt}</style>
 </defs>
 <g id="figure_1">
  <g id="patch_1">
   <path d="M 0 345.6 
L 460.8 345.6 
L 460.8 0 
L 0 0 
L 0 345.6 
z
" style="fill: none"/>
  </g>
  <g id="axes_1">
   <g id="patch_2">
    <path d="M 57.6 307.584 
L 414.72 307.584 
L 414.72 41.472 
L 57.6 41.472 
z
" style="fill: none"/>
   </g>
   <g id="LineCollection_1">
    <path d="M 57.6 254.3616 
L 414.72 254.3616 
" clip-path="url(#p81ba5f66a4)" style="fill: none; stroke: #d3d3d3; stroke-width: 1.5"/>
   </g>
   <g id="LineCollection_2">
    <path d="M 129.024 307.584 
L 129.024 41.472 
" clip-path="url(#p81ba5f66a4)" style="fill: none; stroke: #d3d3d3; stroke-width: 1.5"/>
   </g>
   <g id="matplotlib.axis_1">
    <g id="xtick_1">
     <g id="line2d_1">
      <defs>
       <path id="mcef7376f73" d="M 0 0 
L 0 3.5 
" style="stroke: #d3d3d3; stroke-width: 0.8"/>
      </defs>
      <g>
       <use xlink:href="#mcef7376f73" x="57.6" y="307.584" style="fill: #d3d3d3; stroke: #d3d3d3; stroke-width: 0.8"/>
      </g>
     </g>
     <g id="text_1">
      <!-- −0.5 -->
      <g style="fill: #d3d3d3" transform="translate(45.458594 322.182437) scale(0.1 -0.1)">
       <defs>
        <path id="DejaVuSans-2212" d="M 678 2272 
L 4684 2272 
L 4684 1741 
L 678 1741 
L 678 2272 
z
" transform="scale(0.015625)"/>
        <path id="DejaVuSans-30" d="M 2034 4250 
Q 1547 4250 1301 3770 
Q 1056 3291 1056 2328 
Q 1056 1369 1301 889 
Q 1547 409 2034 409 
Q 2525 409 2770 889 
Q 3016 1369 3016 2328 
Q 3016 3291 2770 3770 
Q 2525 4250 2034 4250 
z
M 2034 4750 
Q 2819 4750 3233 4129 
Q 3647 3509 3647 2328 
Q 3647 1150 3233 529 
Q 2819 -91 2034 -91 
Q 1250 -91 836 529 
Q 422 1150 422 2328 
Q 422 3509 836 4129 
Q 1250 4750 2034 4750 
z
" transform="scale(0.015625)"/>
        <path id="DejaVuSans-2e" d="M 684 794 
L 1344 794 
L 1344 0 
L 684 0 
L 684 794 
z
" transform="scale(0.015625)"/>
        <path id="DejaVuSans-35" d="M 691 4666 
L 3169 4666 
L 3169 4134 
L 1269 4134 
L 1269 2991 
Q 1406 3038 1543 3061 
Q 1681 3084 1819 3084 
Q 2600 3084 3056 2656 
Q 3513 2228 3513 1497 
Q 3513 744 3044 326 
Q 2575 -91 1722 -91 
Q 1428 -91 1123 -41 
Q 819 9 494 109 
L 494 744 
Q 775 591 1075 516 
Q 1375 441 1709 441 
Q 2250 441 2565 725 
Q 2881 1009 2881 1497 
Q 2881 1984 2565 2268 
Q 2250 2553 1709 2553 
Q 1456 2553 1204 2497 
Q 953 2441 691 2322 
L 691 4666 
z
" transform="scale(0.015625)"/>
       </defs>
       <use xlink:href="#DejaVuSans-2212"/>
       <use xlink:href="#DejaVuSans-30" x="83.789062"/>
       <use xlink:href="#DejaVuSans-2e" x="147.412109"/>
       <use xlink:href="#DejaVuSans-35" x="179.199219"/>
      </g>
     </g>
    </g>
    <g id="xtick_2">
     <g id="line2d_2">
      <g>
       <use xlink:href="#mcef7376f73" x="129.024" y="307.584" style="fill: #d3d3d3; stroke: #d3d3d3; stroke-width: 0.8"/>
      </g>
     </g>
     <g id="text_2">
      <!-- 0.0 -->
      <g style="fill: #d3d3d3" transform="translate(121.072438 322.182437) scale(0.1 -0.1)">
       <use xlink:href="#DejaVuSans-30"/>
       <use xlink:href="#DejaVuSans-2e" x="63.623047"/>
       <use xlink:href="#DejaVuSans-30" x="95.410156"/>
      </g>
     </g>
    </g>
    <g id="xtick_3">
     <g id="line2d_3">
      <g>
       <use xlink:href="#mcef7376f73" x="200.448" y="307.584" style="fill: #d3d3d3; stroke: #d3d3d3; stroke-width: 0.8"/>
      </g>
     </g>
     <g id="text_3">
      <!-- 0.5 -->
      <g style="fill: #d3d3d3" transform="translate(192.496438 322.182437) scale(0.1 -0.1)">
       <use xlink:href="#DejaVuSans-30"/>
       <use xlink:href="#DejaVuSans-2e" x="63.623047"/>
       <use xlink:href="#DejaVuSans-35" x="95.410156"/>
      </g>
     </g>
    </g>
    <g id="xtick_4">
     <g id="line2d_4">
      <g>
       <use xlink:href="#mcef7376f73" x="271.872" y="307.584" style="fill: #d3d3d3; stroke: #d3d3d3; stroke-width: 0.8"/>
      </g>
     </g>
     <g id="text_4">
      <!-- 1.0 -->
      <g style="fill: #d3d3d3" transform="translate(263.920437 322.182437) scale(0.1 -0.1)">
       <defs>
        <path id="DejaVuSans-31" d="M 794 531 
L 1825 531 
L 1825 4091 
L 703 3866 
L 703 4441 
L 1819 4666 
L 2450 4666 
L 2450 531 
L 3481 531 
L 3481 0 
L 794 0 
L 794 531 
z
" transform="scale(0.015625)"/>
       </defs>
       <use xlink:href="#DejaVuSans-31"/>
       <use xlink:href="#DejaVuSans-2e" x="63.623047"/>
       <use xlink:href="#DejaVuSans-30" x="95.410156"/>
      </g>
     </g>
    </g>
    <g id="xtick_5">
     <g id="line2d_5">
      <g>
       <use xlink:href="#mcef7376f73" x="343.296" y="307.584" style="fill: #d3d3d3; stroke: #d3d3d3; stroke-width: 0.8"/>
      </g>
     </g>
     <g id="text_5">
      <!-- 1.5 -->
      <g style="fill: #d3d3d3" transform="translate(335.344438 322.182437) scale(0.1 -0.1)">
       <use xlink:href="#DejaVuSans-31"/>
       <use xlink:href="#DejaVuSans-2e" x="63.623047"/>
       <use xlink:href="#DejaVuSans-35" x="95.410156"/>
      </g>
     </g>
    </g>
    <g id="xtick_6">
     <g id="line2d_6">
      <g>
       <use xlink:href="#mcef7376f73" x="414.72" y="307.584" style="fill: #d3d3d3; stroke: #d3d3d3; stroke-width: 0.8"/>
      </g>
     </g>
     <g id="text_6">
      <!-- 2.0 -->
      <g style="fill: #d3d3d3" transform="translate(406.768438 322.182437) scale(0.1 -0.1)">
       <defs>
        <path id="DejaVuSans-32" d="M 1228 531 
L 3431 531 
L 3431 0 
L 469 0 
L 469 531 
Q 828 903 1448 1529 
Q 2069 2156 2228 2338 
Q 2531 2678 2651 2914 
Q 2772 3150 2772 3378 
Q 2772 3750 2511 3984 
Q 2250 4219 1831 4219 
Q 1534 4219 1204 4116 
Q 875 4013 500 3803 
L 500 4441 
Q 881 4594 1212 4672 
Q 1544 4750 1819 4750 
Q 2544 4750 2975 4387 
Q 3406 4025 3406 3419 
Q 3406 3131 3298 2873 
Q 3191 2616 2906 2266 
Q 2828 2175 2409 1742 
Q 1991 1309 1228 531 
z
" transform="scale(0.015625)"/>
       </defs>
       <use xlink:href="#DejaVuSans-32"/>
       <use xlink:href="#DejaVuSans-2e" x="63.623047"/>
       <use xlink:href="#DejaVuSans-30" x="95.410156"/>
      </g>
     </g>
    </g>
    <g id="text_7">
     <!-- X-as -->
     <g style="fill: #d3d3d3" transform="translate(225.512344 335.860562) scale(0.1 -0.1)">
      <defs>
       <path id="DejaVuSans-58" d="M 403 4666 
L 1081 4666 
L 2241 2931 
L 3406 4666 
L 4084 4666 
L 2584 2425 
L 4184 0 
L 3506 0 
L 2194 1984 
L 872 0 
L 191 0 
L 1856 2491 
L 403 4666 
z
" transform="scale(0.015625)"/>
       <path id="DejaVuSans-2d" d="M 313 2009 
L 1997 2009 
L 1997 1497 
L 313 1497 
L 313 2009 
z
" transform="scale(0.015625)"/>
       <path id="DejaVuSans-61" d="M 2194 1759 
Q 1497 1759 1228 1600 
Q 959 1441 959 1056 
Q 959 750 1161 570 
Q 1363 391 1709 391 
Q 2188 391 2477 730 
Q 2766 1069 2766 1631 
L 2766 1759 
L 2194 1759 
z
M 3341 1997 
L 3341 0 
L 2766 0 
L 2766 531 
Q 2569 213 2275 61 
Q 1981 -91 1556 -91 
Q 1019 -91 701 211 
Q 384 513 384 1019 
Q 384 1609 779 1909 
Q 1175 2209 1959 2209 
L 2766 2209 
L 2766 2266 
Q 2766 2663 2505 2880 
Q 2244 3097 1772 3097 
Q 1472 3097 1187 3025 
Q 903 2953 641 2809 
L 641 3341 
Q 956 3463 1253 3523 
Q 1550 3584 1831 3584 
Q 2591 3584 2966 3190 
Q 3341 2797 3341 1997 
z
" transform="scale(0.015625)"/>
       <path id="DejaVuSans-73" d="M 2834 3397 
L 2834 2853 
Q 2591 2978 2328 3040 
Q 2066 3103 1784 3103 
Q 1356 3103 1142 2972 
Q 928 2841 928 2578 
Q 928 2378 1081 2264 
Q 1234 2150 1697 2047 
L 1894 2003 
Q 2506 1872 2764 1633 
Q 3022 1394 3022 966 
Q 3022 478 2636 193 
Q 2250 -91 1575 -91 
Q 1294 -91 989 -36 
Q 684 19 347 128 
L 347 722 
Q 666 556 975 473 
Q 1284 391 1588 391 
Q 1994 391 2212 530 
Q 2431 669 2431 922 
Q 2431 1156 2273 1281 
Q 2116 1406 1581 1522 
L 1381 1569 
Q 847 1681 609 1914 
Q 372 2147 372 2553 
Q 372 3047 722 3315 
Q 1072 3584 1716 3584 
Q 2034 3584 2315 3537 
Q 2597 3491 2834 3397 
z
" transform="scale(0.015625)"/>
      </defs>
      <use xlink:href="#DejaVuSans-58"/>
      <use xlink:href="#DejaVuSans-2d" x="63.505859"/>
      <use xlink:href="#DejaVuSans-61" x="99.589844"/>
      <use xlink:href="#DejaVuSans-73" x="160.869141"/>
     </g>
    </g>
   </g>
   <g id="matplotlib.axis_2">
    <g id="ytick_1">
     <g id="line2d_7">
      <defs>
       <path id="m6e36d86217" d="M 0 0 
L -3.5 0 
" style="stroke: #d3d3d3; stroke-width: 0.8"/>
      </defs>
      <g>
       <use xlink:href="#m6e36d86217" x="57.6" y="307.584" style="fill: #d3d3d3; stroke: #d3d3d3; stroke-width: 0.8"/>
      </g>
     </g>
     <g id="text_8">
      <!-- −0.5 -->
      <g style="fill: #d3d3d3" transform="translate(26.317187 311.383219) scale(0.1 -0.1)">
       <use xlink:href="#DejaVuSans-2212"/>
       <use xlink:href="#DejaVuSans-30" x="83.789062"/>
       <use xlink:href="#DejaVuSans-2e" x="147.412109"/>
       <use xlink:href="#DejaVuSans-35" x="179.199219"/>
      </g>
     </g>
    </g>
    <g id="ytick_2">
     <g id="line2d_8">
      <g>
       <use xlink:href="#m6e36d86217" x="57.6" y="254.3616" style="fill: #d3d3d3; stroke: #d3d3d3; stroke-width: 0.8"/>
      </g>
     </g>
     <g id="text_9">
      <!-- 0.0 -->
      <g style="fill: #d3d3d3" transform="translate(34.696875 258.160819) scale(0.1 -0.1)">
       <use xlink:href="#DejaVuSans-30"/>
       <use xlink:href="#DejaVuSans-2e" x="63.623047"/>
       <use xlink:href="#DejaVuSans-30" x="95.410156"/>
      </g>
     </g>
    </g>
    <g id="ytick_3">
     <g id="line2d_9">
      <g>
       <use xlink:href="#m6e36d86217" x="57.6" y="201.1392" style="fill: #d3d3d3; stroke: #d3d3d3; stroke-width: 0.8"/>
      </g>
     </g>
     <g id="text_10">
      <!-- 0.5 -->
      <g style="fill: #d3d3d3" transform="translate(34.696875 204.938419) scale(0.1 -0.1)">
       <use xlink:href="#DejaVuSans-30"/>
       <use xlink:href="#DejaVuSans-2e" x="63.623047"/>
       <use xlink:href="#DejaVuSans-35" x="95.410156"/>
      </g>
     </g>
    </g>
    <g id="ytick_4">
     <g id="line2d_10">
      <g>
       <use xlink:href="#m6e36d86217" x="57.6" y="147.9168" style="fill: #d3d3d3; stroke: #d3d3d3; stroke-width: 0.8"/>
      </g>
     </g>
     <g id="text_11">
      <!-- 1.0 -->
      <g style="fill: #d3d3d3" transform="translate(34.696875 151.716019) scale(0.1 -0.1)">
       <use xlink:href="#DejaVuSans-31"/>
       <use xlink:href="#DejaVuSans-2e" x="63.623047"/>
       <use xlink:href="#DejaVuSans-30" x="95.410156"/>
      </g>
     </g>
    </g>
    <g id="ytick_5">
     <g id="line2d_11">
      <g>
       <use xlink:href="#m6e36d86217" x="57.6" y="94.6944" style="fill: #d3d3d3; stroke: #d3d3d3; stroke-width: 0.8"/>
      </g>
     </g>
     <g id="text_12">
      <!-- 1.5 -->
      <g style="fill: #d3d3d3" transform="translate(34.696875 98.493619) scale(0.1 -0.1)">
       <use xlink:href="#DejaVuSans-31"/>
       <use xlink:href="#DejaVuSans-2e" x="63.623047"/>
       <use xlink:href="#DejaVuSans-35" x="95.410156"/>
      </g>
     </g>
    </g>
    <g id="ytick_6">
     <g id="line2d_12">
      <g>
       <use xlink:href="#m6e36d86217" x="57.6" y="41.472" style="fill: #d3d3d3; stroke: #d3d3d3; stroke-width: 0.8"/>
      </g>
     </g>
     <g id="text_13">
      <!-- 2.0 -->
      <g style="fill: #d3d3d3" transform="translate(34.696875 45.271219) scale(0.1 -0.1)">
       <use xlink:href="#DejaVuSans-32"/>
       <use xlink:href="#DejaVuSans-2e" x="63.623047"/>
       <use xlink:href="#DejaVuSans-30" x="95.410156"/>
      </g>
     </g>
    </g>
    <g id="text_14">
     <!-- Y-as -->
     <g style="fill: #d3d3d3" transform="translate(20.2375 184.460813) rotate(-90) scale(0.1 -0.1)">
      <defs>
       <path id="DejaVuSans-59" d="M -13 4666 
L 666 4666 
L 1959 2747 
L 3244 4666 
L 3922 4666 
L 2272 2222 
L 2272 0 
L 1638 0 
L 1638 2222 
L -13 4666 
z
" transform="scale(0.015625)"/>
      </defs>
      <use xlink:href="#DejaVuSans-59"/>
      <use xlink:href="#DejaVuSans-2d" x="49.208984"/>
      <use xlink:href="#DejaVuSans-61" x="85.292969"/>
      <use xlink:href="#DejaVuSans-73" x="146.572266"/>
     </g>
    </g>
   </g>
   <g id="line2d_13">
    <path d="M 129.024 254.361598 
L 130.45248 243.71712 
L 131.88096 239.308032 
L 133.30944 235.92482 
L 134.73792 233.07264 
L 136.1664 230.559819 
L 139.02336 226.198953 
L 141.88032 222.42816 
L 144.73728 219.057854 
L 147.59424 215.982382 
L 151.87968 211.78368 
L 156.16512 207.963387 
L 160.45056 204.434563 
L 166.16448 200.085189 
L 171.8784 196.059382 
L 177.59232 192.294149 
L 184.73472 187.886844 
L 191.87712 183.754108 
L 200.448 179.09376 
L 209.01888 174.705606 
L 217.58976 170.546881 
L 227.58912 165.941908 
L 237.58848 161.565175 
L 249.01632 156.803329 
L 261.87264 151.709952 
L 274.72896 146.857622 
L 289.01376 141.711012 
L 304.72704 136.308606 
L 320.44032 131.142836 
L 337.58208 125.743859 
L 356.15232 120.139814 
L 376.15104 114.355325 
L 396.14976 108.800525 
L 413.29152 104.202731 
L 413.29152 104.202731 
" clip-path="url(#p81ba5f66a4)" style="fill: none; stroke: #00ced1; stroke-width: 1.5; stroke-linecap: square"/>
   </g>
   <g id="line2d_14">
    <path d="M 57.6 227.7504 
L 63.31392 231.83788 
L 69.02784 235.584737 
L 74.74176 238.990971 
L 79.0272 241.322112 
L 83.31264 243.461652 
L 87.59808 245.409592 
L 91.88352 247.165932 
L 96.16896 248.73067 
L 100.4544 250.103808 
L 104.73984 251.285345 
L 109.02528 252.275282 
L 113.31072 253.073618 
L 117.59616 253.680353 
L 121.8816 254.095488 
L 126.16704 254.319022 
L 130.45248 254.350956 
L 134.73792 254.191288 
L 139.02336 253.84002 
L 143.3088 253.297152 
L 147.59424 252.562683 
L 151.87968 251.636613 
L 156.16512 250.518943 
L 160.45056 249.209672 
L 164.736 247.7088 
L 169.02144 246.016328 
L 173.30688 244.132255 
L 177.59232 242.056581 
L 181.87776 239.789307 
L 186.1632 237.330432 
L 191.87712 233.753887 
L 197.59104 229.836718 
L 203.30496 225.578926 
L 209.01888 220.980511 
L 214.7328 216.041472 
L 220.44672 210.76181 
L 226.16064 205.141524 
L 231.87456 199.180616 
L 237.58848 192.879084 
L 243.3024 186.236928 
L 249.01632 179.254149 
L 254.73024 171.930747 
L 260.44416 164.266721 
L 266.15808 156.262072 
L 271.872 147.9168 
L 277.58592 139.230904 
L 283.29984 130.204385 
L 289.01376 120.837243 
L 296.15616 108.649313 
L 303.29856 95.92916 
L 310.44096 82.676782 
L 317.58336 68.89218 
L 324.72576 54.575355 
L 331.86816 39.726305 
L 339.01056 24.345032 
L 346.15296 8.431534 
L 350.276826 -1 
L 350.276826 -1 
" clip-path="url(#p81ba5f66a4)" style="fill: none; stroke: #dc143c; stroke-width: 1.5; stroke-linecap: square"/>
   </g>
   <g id="line2d_15">
    <path d="M 57.6 307.584 
L 413.29152 42.536448 
L 413.29152 42.536448 
" clip-path="url(#p81ba5f66a4)" style="fill: none; stroke: #00ff7f; stroke-width: 1.5; stroke-linecap: square"/>
   </g>
   <g id="patch_3">
    <path d="M 57.6 307.584 
L 57.6 41.472 
" style="fill: none; stroke: #d3d3d3; stroke-width: 0.8; stroke-linejoin: miter; stroke-linecap: square"/>
   </g>
   <g id="patch_4">
    <path d="M 414.72 307.584 
L 414.72 41.472 
" style="fill: none; stroke: #d3d3d3; stroke-width: 0.8; stroke-linejoin: miter; stroke-linecap: square"/>
   </g>
   <g id="patch_5">
    <path d="M 57.6 307.584 
L 414.72 307.584 
" style="fill: none; stroke: #d3d3d3; stroke-width: 0.8; stroke-linejoin: miter; stroke-linecap: square"/>
   </g>
   <g id="patch_6">
    <path d="M 57.6 41.472 
L 414.72 41.472 
" style="fill: none; stroke: #d3d3d3; stroke-width: 0.8; stroke-linejoin: miter; stroke-linecap: square"/>
   </g>
   <g id="PolyCollection_1">
    <defs>
     <path id="m4a89ee4608" d="M 129.024 -91.2384 
L 129.024 -91.2384 
L 130.45248 -92.302848 
L 131.88096 -93.367296 
L 133.30944 -94.431744 
L 134.73792 -95.496192 
L 136.1664 -96.56064 
L 137.59488 -97.625088 
L 139.02336 -98.689536 
L 140.45184 -99.753984 
L 141.88032 -100.818432 
L 143.3088 -101.88288 
L 144.73728 -102.947328 
L 146.16576 -104.011776 
L 147.59424 -105.076224 
L 149.02272 -106.140672 
L 150.4512 -107.20512 
L 151.87968 -108.269568 
L 153.30816 -109.334016 
L 154.73664 -110.398464 
L 156.16512 -111.462912 
L 157.5936 -112.52736 
L 159.02208 -113.591808 
L 160.45056 -114.656256 
L 161.87904 -115.720704 
L 163.30752 -116.785152 
L 164.736 -117.8496 
L 166.16448 -118.914048 
L 167.59296 -119.978496 
L 169.02144 -121.042944 
L 170.44992 -122.107392 
L 171.8784 -123.17184 
L 173.30688 -124.236288 
L 174.73536 -125.300736 
L 176.16384 -126.365184 
L 177.59232 -127.429632 
L 179.0208 -128.49408 
L 180.44928 -129.558528 
L 181.87776 -130.622976 
L 183.30624 -131.687424 
L 184.73472 -132.751872 
L 186.1632 -133.81632 
L 187.59168 -134.880768 
L 189.02016 -135.945216 
L 190.44864 -137.009664 
L 191.87712 -138.074112 
L 193.3056 -139.13856 
L 194.73408 -140.203008 
L 196.16256 -141.267456 
L 197.59104 -142.331904 
L 199.01952 -143.396352 
L 200.448 -144.4608 
L 201.87648 -145.525248 
L 203.30496 -146.589696 
L 204.73344 -147.654144 
L 206.16192 -148.718592 
L 207.5904 -149.78304 
L 209.01888 -150.847488 
L 210.44736 -151.911936 
L 211.87584 -152.976384 
L 213.30432 -154.040832 
L 214.7328 -155.10528 
L 216.16128 -156.169728 
L 217.58976 -157.234176 
L 219.01824 -158.298624 
L 220.44672 -159.363072 
L 221.8752 -160.42752 
L 223.30368 -161.491968 
L 224.73216 -162.556416 
L 226.16064 -163.620864 
L 227.58912 -164.685312 
L 229.0176 -165.74976 
L 230.44608 -166.814208 
L 231.87456 -167.878656 
L 233.30304 -168.943104 
L 234.73152 -170.007552 
L 236.16 -171.072 
L 237.58848 -172.136448 
L 239.01696 -173.200896 
L 240.44544 -174.265344 
L 241.87392 -175.329792 
L 243.3024 -176.39424 
L 244.73088 -177.458688 
L 246.15936 -178.523136 
L 247.58784 -179.587584 
L 249.01632 -180.652032 
L 250.4448 -181.71648 
L 251.87328 -182.780928 
L 253.30176 -183.845376 
L 254.73024 -184.909824 
L 256.15872 -185.974272 
L 257.5872 -187.03872 
L 259.01568 -188.103168 
L 260.44416 -189.167616 
L 261.87264 -190.232064 
L 263.30112 -191.296512 
L 264.7296 -192.36096 
L 266.15808 -193.425408 
L 267.58656 -194.489856 
L 269.01504 -195.554304 
L 270.44352 -196.618752 
L 270.44352 -195.564948 
L 270.44352 -195.564948 
L 269.01504 -193.467986 
L 267.58656 -191.392312 
L 266.15808 -189.337928 
L 264.7296 -187.304832 
L 263.30112 -185.293025 
L 261.87264 -183.302508 
L 260.44416 -181.333279 
L 259.01568 -179.385339 
L 257.5872 -177.458688 
L 256.15872 -175.553326 
L 254.73024 -173.669253 
L 253.30176 -171.806469 
L 251.87328 -169.964974 
L 250.4448 -168.144768 
L 249.01632 -166.345851 
L 247.58784 -164.568223 
L 246.15936 -162.811884 
L 244.73088 -161.076833 
L 243.3024 -159.363072 
L 241.87392 -157.6706 
L 240.44544 -155.999416 
L 239.01696 -154.349522 
L 237.58848 -152.720916 
L 236.16 -151.1136 
L 234.73152 -149.527572 
L 233.30304 -147.962834 
L 231.87456 -146.419384 
L 230.44608 -144.897224 
L 229.0176 -143.396352 
L 227.58912 -141.916769 
L 226.16064 -140.458476 
L 224.73216 -139.021471 
L 223.30368 -137.605755 
L 221.8752 -136.211328 
L 220.44672 -134.83819 
L 219.01824 -133.486341 
L 217.58976 -132.155781 
L 216.16128 -130.84651 
L 214.7328 -129.558528 
L 213.30432 -128.291835 
L 211.87584 -127.046431 
L 210.44736 -125.822316 
L 209.01888 -124.619489 
L 207.5904 -123.437952 
L 206.16192 -122.277704 
L 204.73344 -121.138744 
L 203.30496 -120.021074 
L 201.87648 -118.924692 
L 200.448 -117.8496 
L 199.01952 -116.795796 
L 197.59104 -115.763282 
L 196.16256 -114.752056 
L 194.73408 -113.76212 
L 193.3056 -112.793472 
L 191.87712 -111.846113 
L 190.44864 -110.920044 
L 189.02016 -110.015263 
L 187.59168 -109.131771 
L 186.1632 -108.269568 
L 184.73472 -107.428654 
L 183.30624 -106.609029 
L 181.87776 -105.810693 
L 180.44928 -105.033646 
L 179.0208 -104.277888 
L 177.59232 -103.543419 
L 176.16384 -102.830239 
L 174.73536 -102.138348 
L 173.30688 -101.467745 
L 171.8784 -100.818432 
L 170.44992 -100.190408 
L 169.02144 -99.583672 
L 167.59296 -98.998226 
L 166.16448 -98.434068 
L 164.736 -97.8912 
L 163.30752 -97.36962 
L 161.87904 -96.86933 
L 160.45056 -96.390328 
L 159.02208 -95.932616 
L 157.5936 -95.496192 
L 156.16512 -95.081057 
L 154.73664 -94.687212 
L 153.30816 -94.314655 
L 151.87968 -93.963387 
L 150.4512 -93.633408 
L 149.02272 -93.324718 
L 147.59424 -93.037317 
L 146.16576 -92.771205 
L 144.73728 -92.526382 
L 143.3088 -92.302848 
L 141.88032 -92.100603 
L 140.45184 -91.919647 
L 139.02336 -91.75998 
L 137.59488 -91.621601 
L 136.1664 -91.504512 
L 134.73792 -91.408712 
L 133.30944 -91.3342 
L 131.88096 -91.280978 
L 130.45248 -91.249044 
L 129.024 -91.2384 
z
" style="stroke: #daa520; stroke-opacity: 0.7"/>
    </defs>
    <g clip-path="url(#p81ba5f66a4)">
     <use xlink:href="#m4a89ee4608" x="0" y="345.6" style="fill: #daa520; fill-opacity: 0.7; stroke: #daa520; stroke-opacity: 0.7"/>
    </g>
   </g>
   <g id="text_15">
    <!-- $I$ -->
    <g style="fill: #ffffff" transform="translate(196.8768 222.42816) scale(0.1728 -0.1728)">
     <defs>
      <path id="DejaVuSans-Oblique-49" d="M 1081 4666 
L 1716 4666 
L 806 0 
L 172 0 
L 1081 4666 
z
" transform="scale(0.015625)"/>
     </defs>
     <use xlink:href="#DejaVuSans-Oblique-49" transform="translate(0 0.09375)"/>
    </g>
   </g>
   <g id="text_16">
    <!-- f(x) = sqrt(x); g(x) = x² (met lijn k; opp I) -->
    <g style="fill: #d3d3d3" transform="translate(112.755 35.472) scale(0.12 -0.12)">
     <defs>
      <path id="DejaVuSans-66" d="M 2375 4863 
L 2375 4384 
L 1825 4384 
Q 1516 4384 1395 4259 
Q 1275 4134 1275 3809 
L 1275 3500 
L 2222 3500 
L 2222 3053 
L 1275 3053 
L 1275 0 
L 697 0 
L 697 3053 
L 147 3053 
L 147 3500 
L 697 3500 
L 697 3744 
Q 697 4328 969 4595 
Q 1241 4863 1831 4863 
L 2375 4863 
z
" transform="scale(0.015625)"/>
      <path id="DejaVuSans-28" d="M 1984 4856 
Q 1566 4138 1362 3434 
Q 1159 2731 1159 2009 
Q 1159 1288 1364 580 
Q 1569 -128 1984 -844 
L 1484 -844 
Q 1016 -109 783 600 
Q 550 1309 550 2009 
Q 550 2706 781 3412 
Q 1013 4119 1484 4856 
L 1984 4856 
z
" transform="scale(0.015625)"/>
      <path id="DejaVuSans-78" d="M 3513 3500 
L 2247 1797 
L 3578 0 
L 2900 0 
L 1881 1375 
L 863 0 
L 184 0 
L 1544 1831 
L 300 3500 
L 978 3500 
L 1906 2253 
L 2834 3500 
L 3513 3500 
z
" transform="scale(0.015625)"/>
      <path id="DejaVuSans-29" d="M 513 4856 
L 1013 4856 
Q 1481 4119 1714 3412 
Q 1947 2706 1947 2009 
Q 1947 1309 1714 600 
Q 1481 -109 1013 -844 
L 513 -844 
Q 928 -128 1133 580 
Q 1338 1288 1338 2009 
Q 1338 2731 1133 3434 
Q 928 4138 513 4856 
z
" transform="scale(0.015625)"/>
      <path id="DejaVuSans-20" transform="scale(0.015625)"/>
      <path id="DejaVuSans-3d" d="M 678 2906 
L 4684 2906 
L 4684 2381 
L 678 2381 
L 678 2906 
z
M 678 1631 
L 4684 1631 
L 4684 1100 
L 678 1100 
L 678 1631 
z
" transform="scale(0.015625)"/>
      <path id="DejaVuSans-71" d="M 947 1747 
Q 947 1113 1208 752 
Q 1469 391 1925 391 
Q 2381 391 2643 752 
Q 2906 1113 2906 1747 
Q 2906 2381 2643 2742 
Q 2381 3103 1925 3103 
Q 1469 3103 1208 2742 
Q 947 2381 947 1747 
z
M 2906 525 
Q 2725 213 2448 61 
Q 2172 -91 1784 -91 
Q 1150 -91 751 415 
Q 353 922 353 1747 
Q 353 2572 751 3078 
Q 1150 3584 1784 3584 
Q 2172 3584 2448 3432 
Q 2725 3281 2906 2969 
L 2906 3500 
L 3481 3500 
L 3481 -1331 
L 2906 -1331 
L 2906 525 
z
" transform="scale(0.015625)"/>
      <path id="DejaVuSans-72" d="M 2631 2963 
Q 2534 3019 2420 3045 
Q 2306 3072 2169 3072 
Q 1681 3072 1420 2755 
Q 1159 2438 1159 1844 
L 1159 0 
L 581 0 
L 581 3500 
L 1159 3500 
L 1159 2956 
Q 1341 3275 1631 3429 
Q 1922 3584 2338 3584 
Q 2397 3584 2469 3576 
Q 2541 3569 2628 3553 
L 2631 2963 
z
" transform="scale(0.015625)"/>
      <path id="DejaVuSans-74" d="M 1172 4494 
L 1172 3500 
L 2356 3500 
L 2356 3053 
L 1172 3053 
L 1172 1153 
Q 1172 725 1289 603 
Q 1406 481 1766 481 
L 2356 481 
L 2356 0 
L 1766 0 
Q 1100 0 847 248 
Q 594 497 594 1153 
L 594 3053 
L 172 3053 
L 172 3500 
L 594 3500 
L 594 4494 
L 1172 4494 
z
" transform="scale(0.015625)"/>
      <path id="DejaVuSans-3b" d="M 750 3309 
L 1409 3309 
L 1409 2516 
L 750 2516 
L 750 3309 
z
M 750 794 
L 1409 794 
L 1409 256 
L 897 -744 
L 494 -744 
L 750 256 
L 750 794 
z
" transform="scale(0.015625)"/>
      <path id="DejaVuSans-67" d="M 2906 1791 
Q 2906 2416 2648 2759 
Q 2391 3103 1925 3103 
Q 1463 3103 1205 2759 
Q 947 2416 947 1791 
Q 947 1169 1205 825 
Q 1463 481 1925 481 
Q 2391 481 2648 825 
Q 2906 1169 2906 1791 
z
M 3481 434 
Q 3481 -459 3084 -895 
Q 2688 -1331 1869 -1331 
Q 1566 -1331 1297 -1286 
Q 1028 -1241 775 -1147 
L 775 -588 
Q 1028 -725 1275 -790 
Q 1522 -856 1778 -856 
Q 2344 -856 2625 -561 
Q 2906 -266 2906 331 
L 2906 616 
Q 2728 306 2450 153 
Q 2172 0 1784 0 
Q 1141 0 747 490 
Q 353 981 353 1791 
Q 353 2603 747 3093 
Q 1141 3584 1784 3584 
Q 2172 3584 2450 3431 
Q 2728 3278 2906 2969 
L 2906 3500 
L 3481 3500 
L 3481 434 
z
" transform="scale(0.015625)"/>
      <path id="DejaVuSans-b2" d="M 838 2444 
L 2163 2444 
L 2163 2088 
L 294 2088 
L 294 2431 
Q 400 2528 597 2703 
Q 1672 3656 1672 3950 
Q 1672 4156 1509 4282 
Q 1347 4409 1081 4409 
Q 919 4409 728 4354 
Q 538 4300 313 4191 
L 313 4575 
Q 553 4663 761 4706 
Q 969 4750 1147 4750 
Q 1600 4750 1872 4544 
Q 2144 4338 2144 4000 
Q 2144 3566 1109 2678 
Q 934 2528 838 2444 
z
" transform="scale(0.015625)"/>
      <path id="DejaVuSans-6d" d="M 3328 2828 
Q 3544 3216 3844 3400 
Q 4144 3584 4550 3584 
Q 5097 3584 5394 3201 
Q 5691 2819 5691 2113 
L 5691 0 
L 5113 0 
L 5113 2094 
Q 5113 2597 4934 2840 
Q 4756 3084 4391 3084 
Q 3944 3084 3684 2787 
Q 3425 2491 3425 1978 
L 3425 0 
L 2847 0 
L 2847 2094 
Q 2847 2600 2669 2842 
Q 2491 3084 2119 3084 
Q 1678 3084 1418 2786 
Q 1159 2488 1159 1978 
L 1159 0 
L 581 0 
L 581 3500 
L 1159 3500 
L 1159 2956 
Q 1356 3278 1631 3431 
Q 1906 3584 2284 3584 
Q 2666 3584 2933 3390 
Q 3200 3197 3328 2828 
z
" transform="scale(0.015625)"/>
      <path id="DejaVuSans-65" d="M 3597 1894 
L 3597 1613 
L 953 1613 
Q 991 1019 1311 708 
Q 1631 397 2203 397 
Q 2534 397 2845 478 
Q 3156 559 3463 722 
L 3463 178 
Q 3153 47 2828 -22 
Q 2503 -91 2169 -91 
Q 1331 -91 842 396 
Q 353 884 353 1716 
Q 353 2575 817 3079 
Q 1281 3584 2069 3584 
Q 2775 3584 3186 3129 
Q 3597 2675 3597 1894 
z
M 3022 2063 
Q 3016 2534 2758 2815 
Q 2500 3097 2075 3097 
Q 1594 3097 1305 2825 
Q 1016 2553 972 2059 
L 3022 2063 
z
" transform="scale(0.015625)"/>
      <path id="DejaVuSans-6c" d="M 603 4863 
L 1178 4863 
L 1178 0 
L 603 0 
L 603 4863 
z
" transform="scale(0.015625)"/>
      <path id="DejaVuSans-69" d="M 603 3500 
L 1178 3500 
L 1178 0 
L 603 0 
L 603 3500 
z
M 603 4863 
L 1178 4863 
L 1178 4134 
L 603 4134 
L 603 4863 
z
" transform="scale(0.015625)"/>
      <path id="DejaVuSans-6a" d="M 603 3500 
L 1178 3500 
L 1178 -63 
Q 1178 -731 923 -1031 
Q 669 -1331 103 -1331 
L -116 -1331 
L -116 -844 
L 38 -844 
Q 366 -844 484 -692 
Q 603 -541 603 -63 
L 603 3500 
z
M 603 4863 
L 1178 4863 
L 1178 4134 
L 603 4134 
L 603 4863 
z
" transform="scale(0.015625)"/>
      <path id="DejaVuSans-6e" d="M 3513 2113 
L 3513 0 
L 2938 0 
L 2938 2094 
Q 2938 2591 2744 2837 
Q 2550 3084 2163 3084 
Q 1697 3084 1428 2787 
Q 1159 2491 1159 1978 
L 1159 0 
L 581 0 
L 581 3500 
L 1159 3500 
L 1159 2956 
Q 1366 3272 1645 3428 
Q 1925 3584 2291 3584 
Q 2894 3584 3203 3211 
Q 3513 2838 3513 2113 
z
" transform="scale(0.015625)"/>
      <path id="DejaVuSans-6b" d="M 581 4863 
L 1159 4863 
L 1159 1991 
L 2875 3500 
L 3609 3500 
L 1753 1863 
L 3688 0 
L 2938 0 
L 1159 1709 
L 1159 0 
L 581 0 
L 581 4863 
z
" transform="scale(0.015625)"/>
      <path id="DejaVuSans-6f" d="M 1959 3097 
Q 1497 3097 1228 2736 
Q 959 2375 959 1747 
Q 959 1119 1226 758 
Q 1494 397 1959 397 
Q 2419 397 2687 759 
Q 2956 1122 2956 1747 
Q 2956 2369 2687 2733 
Q 2419 3097 1959 3097 
z
M 1959 3584 
Q 2709 3584 3137 3096 
Q 3566 2609 3566 1747 
Q 3566 888 3137 398 
Q 2709 -91 1959 -91 
Q 1206 -91 779 398 
Q 353 888 353 1747 
Q 353 2609 779 3096 
Q 1206 3584 1959 3584 
z
" transform="scale(0.015625)"/>
      <path id="DejaVuSans-70" d="M 1159 525 
L 1159 -1331 
L 581 -1331 
L 581 3500 
L 1159 3500 
L 1159 2969 
Q 1341 3281 1617 3432 
Q 1894 3584 2278 3584 
Q 2916 3584 3314 3078 
Q 3713 2572 3713 1747 
Q 3713 922 3314 415 
Q 2916 -91 2278 -91 
Q 1894 -91 1617 61 
Q 1341 213 1159 525 
z
M 3116 1747 
Q 3116 2381 2855 2742 
Q 2594 3103 2138 3103 
Q 1681 3103 1420 2742 
Q 1159 2381 1159 1747 
Q 1159 1113 1420 752 
Q 1681 391 2138 391 
Q 2594 391 2855 752 
Q 3116 1113 3116 1747 
z
" transform="scale(0.015625)"/>
      <path id="DejaVuSans-49" d="M 628 4666 
L 1259 4666 
L 1259 0 
L 628 0 
L 628 4666 
z
" transform="scale(0.015625)"/>
     </defs>
     <use xlink:href="#DejaVuSans-66"/>
     <use xlink:href="#DejaVuSans-28" x="35.205078"/>
     <use xlink:href="#DejaVuSans-78" x="74.21875"/>
     <use xlink:href="#DejaVuSans-29" x="133.398438"/>
     <use xlink:href="#DejaVuSans-20" x="172.412109"/>
     <use xlink:href="#DejaVuSans-3d" x="204.199219"/>
     <use xlink:href="#DejaVuSans-20" x="287.988281"/>
     <use xlink:href="#DejaVuSans-73" x="319.775391"/>
     <use xlink:href="#DejaVuSans-71" x="371.875"/>
     <use xlink:href="#DejaVuSans-72" x="435.351562"/>
     <use xlink:href="#DejaVuSans-74" x="476.464844"/>
     <use xlink:href="#DejaVuSans-28" x="515.673828"/>
     <use xlink:href="#DejaVuSans-78" x="554.6875"/>
     <use xlink:href="#DejaVuSans-29" x="613.867188"/>
     <use xlink:href="#DejaVuSans-3b" x="652.880859"/>
     <use xlink:href="#DejaVuSans-20" x="686.572266"/>
     <use xlink:href="#DejaVuSans-67" x="718.359375"/>
     <use xlink:href="#DejaVuSans-28" x="781.835938"/>
     <use xlink:href="#DejaVuSans-78" x="820.849609"/>
     <use xlink:href="#DejaVuSans-29" x="880.029297"/>
     <use xlink:href="#DejaVuSans-20" x="919.042969"/>
     <use xlink:href="#DejaVuSans-3d" x="950.830078"/>
     <use xlink:href="#DejaVuSans-20" x="1034.619141"/>
     <use xlink:href="#DejaVuSans-78" x="1066.40625"/>
     <use xlink:href="#DejaVuSans-b2" x="1125.585938"/>
     <use xlink:href="#DejaVuSans-20" x="1165.673828"/>
     <use xlink:href="#DejaVuSans-28" x="1197.460938"/>
     <use xlink:href="#DejaVuSans-6d" x="1236.474609"/>
     <use xlink:href="#DejaVuSans-65" x="1333.886719"/>
     <use xlink:href="#DejaVuSans-74" x="1395.410156"/>
     <use xlink:href="#DejaVuSans-20" x="1434.619141"/>
     <use xlink:href="#DejaVuSans-6c" x="1466.40625"/>
     <use xlink:href="#DejaVuSans-69" x="1494.189453"/>
     <use xlink:href="#DejaVuSans-6a" x="1521.972656"/>
     <use xlink:href="#DejaVuSans-6e" x="1549.755859"/>
     <use xlink:href="#DejaVuSans-20" x="1613.134766"/>
     <use xlink:href="#DejaVuSans-6b" x="1644.921875"/>
     <use xlink:href="#DejaVuSans-3b" x="1702.832031"/>
     <use xlink:href="#DejaVuSans-20" x="1736.523438"/>
     <use xlink:href="#DejaVuSans-6f" x="1768.310547"/>
     <use xlink:href="#DejaVuSans-70" x="1829.492188"/>
     <use xlink:href="#DejaVuSans-70" x="1892.96875"/>
     <use xlink:href="#DejaVuSans-20" x="1956.445312"/>
     <use xlink:href="#DejaVuSans-49" x="1988.232422"/>
     <use xlink:href="#DejaVuSans-29" x="2017.724609"/>
    </g>
   </g>
   <g id="PathCollection_1">
    <defs>
     <path id="m0c8509e351" d="M 0 3 
C 0.795609 3 1.55874 2.683901 2.12132 2.12132 
C 2.683901 1.55874 3 0.795609 3 0 
C 3 -0.795609 2.683901 -1.55874 2.12132 -2.12132 
C 1.55874 -2.683901 0.795609 -3 0 -3 
C -0.795609 -3 -1.55874 -2.683901 -2.12132 -2.12132 
C -2.683901 -1.55874 -3 -0.795609 -3 0 
C -3 0.795609 -2.683901 1.55874 -2.12132 2.12132 
C -1.55874 2.683901 -0.795609 3 0 3 
z
" style="stroke: #7fffd4"/>
    </defs>
    <g clip-path="url(#p81ba5f66a4)">
     <use xlink:href="#m0c8509e351" x="129.024" y="254.3616" style="fill: #7fffd4; stroke: #7fffd4"/>
     <use xlink:href="#m0c8509e351" x="271.872" y="147.9168" style="fill: #7fffd4; stroke: #7fffd4"/>
    </g>
   </g>
   <g id="legend_1">
    <g id="patch_7">
     <path d="M 331.32 95.572 
L 407.72 95.572 
Q 409.72 95.572 409.72 93.572 
L 409.72 48.472 
Q 409.72 46.472 407.72 46.472 
L 331.32 46.472 
Q 329.32 46.472 329.32 48.472 
L 329.32 93.572 
Q 329.32 95.572 331.32 95.572 
z
" style="fill: #ffffff; opacity: 0.8; stroke: #cccccc; stroke-linejoin: miter"/>
    </g>
    <g id="line2d_16">
     <path d="M 333.32 55.092312 
L 343.32 55.092312 
L 353.32 55.092312 
" style="fill: none; stroke: #00ced1; stroke-width: 1.5; stroke-linecap: square"/>
    </g>
    <g id="text_17">
     <!-- $f(x) = \sqrt{x}$ -->
     <g transform="translate(361.32 58.592312) scale(0.1 -0.1)">
      <defs>
       <path id="DejaVuSans-Oblique-66" d="M 3059 4863 
L 2969 4384 
L 2419 4384 
Q 2106 4384 1964 4261 
Q 1822 4138 1753 3809 
L 1691 3500 
L 2638 3500 
L 2553 3053 
L 1606 3053 
L 1013 0 
L 434 0 
L 1031 3053 
L 481 3053 
L 563 3500 
L 1113 3500 
L 1159 3744 
Q 1278 4363 1576 4613 
Q 1875 4863 2516 4863 
L 3059 4863 
z
" transform="scale(0.015625)"/>
       <path id="DejaVuSans-Oblique-78" d="M 3841 3500 
L 2234 1784 
L 3219 0 
L 2559 0 
L 1819 1388 
L 531 0 
L -166 0 
L 1556 1844 
L 641 3500 
L 1300 3500 
L 1972 2234 
L 3144 3500 
L 3841 3500 
z
" transform="scale(0.015625)"/>
       <path id="DejaVuSans-221a" d="M 3488 5191 
L 4078 5191 
L 4078 4891 
L 3719 4891 
L 1863 -128 
L 1656 -128 
L 659 2631 
L 269 2491 
L 191 2741 
L 1075 3047 
L 1875 831 
L 3488 5191 
z
" transform="scale(0.015625)"/>
      </defs>
      <use xlink:href="#DejaVuSans-Oblique-66" transform="translate(0 0.890625)"/>
      <use xlink:href="#DejaVuSans-28" transform="translate(35.205078 0.890625)"/>
      <use xlink:href="#DejaVuSans-Oblique-78" transform="translate(74.21875 0.890625)"/>
      <use xlink:href="#DejaVuSans-29" transform="translate(133.398438 0.890625)"/>
      <use xlink:href="#DejaVuSans-3d" transform="translate(191.894531 0.890625)"/>
      <use xlink:href="#DejaVuSans-221a" transform="translate(295.166016 0.890625)"/>
      <use xlink:href="#DejaVuSans-Oblique-78" transform="translate(371.386719 1.0625)"/>
      <path d="M 358.886719 75.5 
L 358.886719 81.75 
L 443.066406 81.75 
L 443.066406 75.5 
L 358.886719 75.5 
z
"/>
     </g>
    </g>
    <g id="line2d_17">
     <path d="M 333.32 71.272 
L 343.32 71.272 
L 353.32 71.272 
" style="fill: none; stroke: #dc143c; stroke-width: 1.5; stroke-linecap: square"/>
    </g>
    <g id="text_18">
     <!-- $g(x) = x^{2}$ -->
     <g transform="translate(361.32 74.772) scale(0.1 -0.1)">
      <defs>
       <path id="DejaVuSans-Oblique-67" d="M 3816 3500 
L 3219 434 
Q 3047 -456 2561 -893 
Q 2075 -1331 1253 -1331 
Q 950 -1331 690 -1286 
Q 431 -1241 206 -1147 
L 313 -588 
Q 525 -725 762 -790 
Q 1000 -856 1269 -856 
Q 1816 -856 2167 -557 
Q 2519 -259 2631 300 
L 2681 563 
Q 2441 288 2122 144 
Q 1803 0 1434 0 
Q 903 0 598 351 
Q 294 703 294 1319 
Q 294 1803 478 2267 
Q 663 2731 997 3091 
Q 1219 3328 1514 3456 
Q 1809 3584 2131 3584 
Q 2484 3584 2746 3420 
Q 3009 3256 3138 2956 
L 3238 3500 
L 3816 3500 
z
M 2950 2216 
Q 2950 2641 2750 2872 
Q 2550 3103 2181 3103 
Q 1953 3103 1747 3012 
Q 1541 2922 1394 2759 
Q 1156 2491 1023 2127 
Q 891 1763 891 1375 
Q 891 944 1092 712 
Q 1294 481 1672 481 
Q 2219 481 2584 976 
Q 2950 1472 2950 2216 
z
" transform="scale(0.015625)"/>
      </defs>
      <use xlink:href="#DejaVuSans-Oblique-67" transform="translate(0 0.765625)"/>
      <use xlink:href="#DejaVuSans-28" transform="translate(63.476562 0.765625)"/>
      <use xlink:href="#DejaVuSans-Oblique-78" transform="translate(102.490234 0.765625)"/>
      <use xlink:href="#DejaVuSans-29" transform="translate(161.669922 0.765625)"/>
      <use xlink:href="#DejaVuSans-3d" transform="translate(220.166016 0.765625)"/>
      <use xlink:href="#DejaVuSans-Oblique-78" transform="translate(323.4375 0.765625)"/>
      <use xlink:href="#DejaVuSans-32" transform="translate(387.083333 39.046875) scale(0.7)"/>
     </g>
    </g>
    <g id="line2d_18">
     <path d="M 333.32 85.972 
L 343.32 85.972 
L 353.32 85.972 
" style="fill: none; stroke: #00ff7f; stroke-width: 1.5; stroke-linecap: square"/>
    </g>
    <g id="text_19">
     <!-- $k \! : y = x$ -->
     <g transform="translate(361.32 89.472) scale(0.1 -0.1)">
      <defs>
       <path id="DejaVuSans-Oblique-6b" d="M 1172 4863 
L 1747 4863 
L 1197 2028 
L 3169 3500 
L 3916 3500 
L 1716 1825 
L 3322 0 
L 2625 0 
L 1131 1709 
L 800 0 
L 225 0 
L 1172 4863 
z
" transform="scale(0.015625)"/>
       <path id="DejaVuSans-3a" d="M 750 794 
L 1409 794 
L 1409 0 
L 750 0 
L 750 794 
z
M 750 3309 
L 1409 3309 
L 1409 2516 
L 750 2516 
L 750 3309 
z
" transform="scale(0.015625)"/>
       <path id="DejaVuSans-Oblique-79" d="M 1588 -325 
Q 1188 -997 936 -1164 
Q 684 -1331 294 -1331 
L -159 -1331 
L -63 -850 
L 269 -850 
Q 509 -850 678 -719 
Q 847 -588 1056 -206 
L 1234 128 
L 459 3500 
L 1069 3500 
L 1650 819 
L 3256 3500 
L 3859 3500 
L 1588 -325 
z
" transform="scale(0.015625)"/>
      </defs>
      <use xlink:href="#DejaVuSans-Oblique-6b" transform="translate(0 0.015625)"/>
      <use xlink:href="#DejaVuSans-3a" transform="translate(61.156902 0.015625)"/>
      <use xlink:href="#DejaVuSans-Oblique-79" transform="translate(114.33073 0.015625)"/>
      <use xlink:href="#DejaVuSans-3d" transform="translate(192.992839 0.015625)"/>
      <use xlink:href="#DejaVuSans-Oblique-78" transform="translate(296.264324 0.015625)"/>
     </g>
    </g>
   </g>
  </g>
 </g>
 <defs>
  <clipPath id="p81ba5f66a4">
   <rect x="57.6" y="41.472" width="357.12" height="266.112"/>
  </clipPath>
 </defs>
</svg>
