<?xml version="1.0" encoding="utf-8" standalone="no"?>
<!DOCTYPE svg PUBLIC "-//W3C//DTD SVG 1.1//EN"
  "http://www.w3.org/Graphics/SVG/1.1/DTD/svg11.dtd">
<svg xmlns:xlink="http://www.w3.org/1999/xlink" width="460.8pt" height="345.6pt" viewBox="0 0 460.8 345.6" xmlns="http://www.w3.org/2000/svg" version="1.1">
 <metadata>
  <rdf:RDF xmlns:dc="http://purl.org/dc/elements/1.1/" xmlns:cc="http://creativecommons.org/ns#" xmlns:rdf="http://www.w3.org/1999/02/22-rdf-syntax-ns#">
   <cc:Work>
    <dc:type rdf:resource="http://purl.org/dc/dcmitype/StillImage"/>
    <dc:date>2024-08-10T17:52:24.442243</dc:date>
    <dc:format>image/svg+xml</dc:format>
    <dc:creator>
     <cc:Agent>
      <dc:title>Matplotlib v3.8.3, https://matplotlib.org/</dc:title>
     </cc:Agent>
    </dc:creator>
   </cc:Work>
  </rdf:RDF>
 </metadata>
 <defs>
  <style type="text/css">*{stroke-linejoin: round; stroke-linecap: butt}</style>
 </defs>
 <g id="figure_1">
  <g id="patch_1">
   <path d="M 0 345.6 
L 460.8 345.6 
L 460.8 0 
L 0 0 
L 0 345.6 
z
" style="fill: none"/>
  </g>
  <g id="axes_1">
   <g id="patch_2">
    <path d="M 57.6 307.584 
L 414.72 307.584 
L 414.72 41.472 
L 57.6 41.472 
z
" style="fill: none"/>
   </g>
   <g id="LineCollection_1">
    <path d="M 57.6 174.528 
L 414.72 174.528 
" clip-path="url(#pc88e9be88b)" style="fill: none; stroke: #d3d3d3; stroke-width: 1.5"/>
   </g>
   <g id="LineCollection_2">
    <path d="M 108.617143 307.584 
L 108.617143 41.472 
" clip-path="url(#pc88e9be88b)" style="fill: none; stroke: #d3d3d3; stroke-width: 1.5"/>
   </g>
   <g id="matplotlib.axis_1">
    <g id="xtick_1">
     <g id="line2d_1">
      <defs>
       <path id="m035e7e9bc8" d="M 0 0 
L 0 3.5 
" style="stroke: #d3d3d3; stroke-width: 0.8"/>
      </defs>
      <g>
       <use xlink:href="#m035e7e9bc8" x="57.6" y="307.584" style="fill: #d3d3d3; stroke: #d3d3d3; stroke-width: 0.8"/>
      </g>
     </g>
     <g id="text_1">
      <!-- −1 -->
      <g style="fill: #d3d3d3" transform="translate(50.228906 322.182437) scale(0.1 -0.1)">
       <defs>
        <path id="DejaVuSans-2212" d="M 678 2272 
L 4684 2272 
L 4684 1741 
L 678 1741 
L 678 2272 
z
" transform="scale(0.015625)"/>
        <path id="DejaVuSans-31" d="M 794 531 
L 1825 531 
L 1825 4091 
L 703 3866 
L 703 4441 
L 1819 4666 
L 2450 4666 
L 2450 531 
L 3481 531 
L 3481 0 
L 794 0 
L 794 531 
z
" transform="scale(0.015625)"/>
       </defs>
       <use xlink:href="#DejaVuSans-2212"/>
       <use xlink:href="#DejaVuSans-31" x="83.789062"/>
      </g>
     </g>
    </g>
    <g id="xtick_2">
     <g id="line2d_2">
      <g>
       <use xlink:href="#m035e7e9bc8" x="108.617143" y="307.584" style="fill: #d3d3d3; stroke: #d3d3d3; stroke-width: 0.8"/>
      </g>
     </g>
     <g id="text_2">
      <!-- 0 -->
      <g style="fill: #d3d3d3" transform="translate(105.435893 322.182437) scale(0.1 -0.1)">
       <defs>
        <path id="DejaVuSans-30" d="M 2034 4250 
Q 1547 4250 1301 3770 
Q 1056 3291 1056 2328 
Q 1056 1369 1301 889 
Q 1547 409 2034 409 
Q 2525 409 2770 889 
Q 3016 1369 3016 2328 
Q 3016 3291 2770 3770 
Q 2525 4250 2034 4250 
z
M 2034 4750 
Q 2819 4750 3233 4129 
Q 3647 3509 3647 2328 
Q 3647 1150 3233 529 
Q 2819 -91 2034 -91 
Q 1250 -91 836 529 
Q 422 1150 422 2328 
Q 422 3509 836 4129 
Q 1250 4750 2034 4750 
z
" transform="scale(0.015625)"/>
       </defs>
       <use xlink:href="#DejaVuSans-30"/>
      </g>
     </g>
    </g>
    <g id="xtick_3">
     <g id="line2d_3">
      <g>
       <use xlink:href="#m035e7e9bc8" x="159.634286" y="307.584" style="fill: #d3d3d3; stroke: #d3d3d3; stroke-width: 0.8"/>
      </g>
     </g>
     <g id="text_3">
      <!-- 1 -->
      <g style="fill: #d3d3d3" transform="translate(156.453036 322.182437) scale(0.1 -0.1)">
       <use xlink:href="#DejaVuSans-31"/>
      </g>
     </g>
    </g>
    <g id="xtick_4">
     <g id="line2d_4">
      <g>
       <use xlink:href="#m035e7e9bc8" x="210.651429" y="307.584" style="fill: #d3d3d3; stroke: #d3d3d3; stroke-width: 0.8"/>
      </g>
     </g>
     <g id="text_4">
      <!-- 2 -->
      <g style="fill: #d3d3d3" transform="translate(207.470179 322.182437) scale(0.1 -0.1)">
       <defs>
        <path id="DejaVuSans-32" d="M 1228 531 
L 3431 531 
L 3431 0 
L 469 0 
L 469 531 
Q 828 903 1448 1529 
Q 2069 2156 2228 2338 
Q 2531 2678 2651 2914 
Q 2772 3150 2772 3378 
Q 2772 3750 2511 3984 
Q 2250 4219 1831 4219 
Q 1534 4219 1204 4116 
Q 875 4013 500 3803 
L 500 4441 
Q 881 4594 1212 4672 
Q 1544 4750 1819 4750 
Q 2544 4750 2975 4387 
Q 3406 4025 3406 3419 
Q 3406 3131 3298 2873 
Q 3191 2616 2906 2266 
Q 2828 2175 2409 1742 
Q 1991 1309 1228 531 
z
" transform="scale(0.015625)"/>
       </defs>
       <use xlink:href="#DejaVuSans-32"/>
      </g>
     </g>
    </g>
    <g id="xtick_5">
     <g id="line2d_5">
      <g>
       <use xlink:href="#m035e7e9bc8" x="261.668571" y="307.584" style="fill: #d3d3d3; stroke: #d3d3d3; stroke-width: 0.8"/>
      </g>
     </g>
     <g id="text_5">
      <!-- 3 -->
      <g style="fill: #d3d3d3" transform="translate(258.487321 322.182437) scale(0.1 -0.1)">
       <defs>
        <path id="DejaVuSans-33" d="M 2597 2516 
Q 3050 2419 3304 2112 
Q 3559 1806 3559 1356 
Q 3559 666 3084 287 
Q 2609 -91 1734 -91 
Q 1441 -91 1130 -33 
Q 819 25 488 141 
L 488 750 
Q 750 597 1062 519 
Q 1375 441 1716 441 
Q 2309 441 2620 675 
Q 2931 909 2931 1356 
Q 2931 1769 2642 2001 
Q 2353 2234 1838 2234 
L 1294 2234 
L 1294 2753 
L 1863 2753 
Q 2328 2753 2575 2939 
Q 2822 3125 2822 3475 
Q 2822 3834 2567 4026 
Q 2313 4219 1838 4219 
Q 1578 4219 1281 4162 
Q 984 4106 628 3988 
L 628 4550 
Q 988 4650 1302 4700 
Q 1616 4750 1894 4750 
Q 2613 4750 3031 4423 
Q 3450 4097 3450 3541 
Q 3450 3153 3228 2886 
Q 3006 2619 2597 2516 
z
" transform="scale(0.015625)"/>
       </defs>
       <use xlink:href="#DejaVuSans-33"/>
      </g>
     </g>
    </g>
    <g id="xtick_6">
     <g id="line2d_6">
      <g>
       <use xlink:href="#m035e7e9bc8" x="312.685714" y="307.584" style="fill: #d3d3d3; stroke: #d3d3d3; stroke-width: 0.8"/>
      </g>
     </g>
     <g id="text_6">
      <!-- 4 -->
      <g style="fill: #d3d3d3" transform="translate(309.504464 322.182437) scale(0.1 -0.1)">
       <defs>
        <path id="DejaVuSans-34" d="M 2419 4116 
L 825 1625 
L 2419 1625 
L 2419 4116 
z
M 2253 4666 
L 3047 4666 
L 3047 1625 
L 3713 1625 
L 3713 1100 
L 3047 1100 
L 3047 0 
L 2419 0 
L 2419 1100 
L 313 1100 
L 313 1709 
L 2253 4666 
z
" transform="scale(0.015625)"/>
       </defs>
       <use xlink:href="#DejaVuSans-34"/>
      </g>
     </g>
    </g>
    <g id="xtick_7">
     <g id="line2d_7">
      <g>
       <use xlink:href="#m035e7e9bc8" x="363.702857" y="307.584" style="fill: #d3d3d3; stroke: #d3d3d3; stroke-width: 0.8"/>
      </g>
     </g>
     <g id="text_7">
      <!-- 5 -->
      <g style="fill: #d3d3d3" transform="translate(360.521607 322.182437) scale(0.1 -0.1)">
       <defs>
        <path id="DejaVuSans-35" d="M 691 4666 
L 3169 4666 
L 3169 4134 
L 1269 4134 
L 1269 2991 
Q 1406 3038 1543 3061 
Q 1681 3084 1819 3084 
Q 2600 3084 3056 2656 
Q 3513 2228 3513 1497 
Q 3513 744 3044 326 
Q 2575 -91 1722 -91 
Q 1428 -91 1123 -41 
Q 819 9 494 109 
L 494 744 
Q 775 591 1075 516 
Q 1375 441 1709 441 
Q 2250 441 2565 725 
Q 2881 1009 2881 1497 
Q 2881 1984 2565 2268 
Q 2250 2553 1709 2553 
Q 1456 2553 1204 2497 
Q 953 2441 691 2322 
L 691 4666 
z
" transform="scale(0.015625)"/>
       </defs>
       <use xlink:href="#DejaVuSans-35"/>
      </g>
     </g>
    </g>
    <g id="xtick_8">
     <g id="line2d_8">
      <g>
       <use xlink:href="#m035e7e9bc8" x="414.72" y="307.584" style="fill: #d3d3d3; stroke: #d3d3d3; stroke-width: 0.8"/>
      </g>
     </g>
     <g id="text_8">
      <!-- 6 -->
      <g style="fill: #d3d3d3" transform="translate(411.53875 322.182437) scale(0.1 -0.1)">
       <defs>
        <path id="DejaVuSans-36" d="M 2113 2584 
Q 1688 2584 1439 2293 
Q 1191 2003 1191 1497 
Q 1191 994 1439 701 
Q 1688 409 2113 409 
Q 2538 409 2786 701 
Q 3034 994 3034 1497 
Q 3034 2003 2786 2293 
Q 2538 2584 2113 2584 
z
M 3366 4563 
L 3366 3988 
Q 3128 4100 2886 4159 
Q 2644 4219 2406 4219 
Q 1781 4219 1451 3797 
Q 1122 3375 1075 2522 
Q 1259 2794 1537 2939 
Q 1816 3084 2150 3084 
Q 2853 3084 3261 2657 
Q 3669 2231 3669 1497 
Q 3669 778 3244 343 
Q 2819 -91 2113 -91 
Q 1303 -91 875 529 
Q 447 1150 447 2328 
Q 447 3434 972 4092 
Q 1497 4750 2381 4750 
Q 2619 4750 2861 4703 
Q 3103 4656 3366 4563 
z
" transform="scale(0.015625)"/>
       </defs>
       <use xlink:href="#DejaVuSans-36"/>
      </g>
     </g>
    </g>
    <g id="text_9">
     <!-- X-as -->
     <g style="fill: #d3d3d3" transform="translate(225.512344 335.860562) scale(0.1 -0.1)">
      <defs>
       <path id="DejaVuSans-58" d="M 403 4666 
L 1081 4666 
L 2241 2931 
L 3406 4666 
L 4084 4666 
L 2584 2425 
L 4184 0 
L 3506 0 
L 2194 1984 
L 872 0 
L 191 0 
L 1856 2491 
L 403 4666 
z
" transform="scale(0.015625)"/>
       <path id="DejaVuSans-2d" d="M 313 2009 
L 1997 2009 
L 1997 1497 
L 313 1497 
L 313 2009 
z
" transform="scale(0.015625)"/>
       <path id="DejaVuSans-61" d="M 2194 1759 
Q 1497 1759 1228 1600 
Q 959 1441 959 1056 
Q 959 750 1161 570 
Q 1363 391 1709 391 
Q 2188 391 2477 730 
Q 2766 1069 2766 1631 
L 2766 1759 
L 2194 1759 
z
M 3341 1997 
L 3341 0 
L 2766 0 
L 2766 531 
Q 2569 213 2275 61 
Q 1981 -91 1556 -91 
Q 1019 -91 701 211 
Q 384 513 384 1019 
Q 384 1609 779 1909 
Q 1175 2209 1959 2209 
L 2766 2209 
L 2766 2266 
Q 2766 2663 2505 2880 
Q 2244 3097 1772 3097 
Q 1472 3097 1187 3025 
Q 903 2953 641 2809 
L 641 3341 
Q 956 3463 1253 3523 
Q 1550 3584 1831 3584 
Q 2591 3584 2966 3190 
Q 3341 2797 3341 1997 
z
" transform="scale(0.015625)"/>
       <path id="DejaVuSans-73" d="M 2834 3397 
L 2834 2853 
Q 2591 2978 2328 3040 
Q 2066 3103 1784 3103 
Q 1356 3103 1142 2972 
Q 928 2841 928 2578 
Q 928 2378 1081 2264 
Q 1234 2150 1697 2047 
L 1894 2003 
Q 2506 1872 2764 1633 
Q 3022 1394 3022 966 
Q 3022 478 2636 193 
Q 2250 -91 1575 -91 
Q 1294 -91 989 -36 
Q 684 19 347 128 
L 347 722 
Q 666 556 975 473 
Q 1284 391 1588 391 
Q 1994 391 2212 530 
Q 2431 669 2431 922 
Q 2431 1156 2273 1281 
Q 2116 1406 1581 1522 
L 1381 1569 
Q 847 1681 609 1914 
Q 372 2147 372 2553 
Q 372 3047 722 3315 
Q 1072 3584 1716 3584 
Q 2034 3584 2315 3537 
Q 2597 3491 2834 3397 
z
" transform="scale(0.015625)"/>
      </defs>
      <use xlink:href="#DejaVuSans-58"/>
      <use xlink:href="#DejaVuSans-2d" x="63.505859"/>
      <use xlink:href="#DejaVuSans-61" x="99.589844"/>
      <use xlink:href="#DejaVuSans-73" x="160.869141"/>
     </g>
    </g>
   </g>
   <g id="matplotlib.axis_2">
    <g id="ytick_1">
     <g id="line2d_9">
      <defs>
       <path id="me268aed880" d="M 0 0 
L -3.5 0 
" style="stroke: #d3d3d3; stroke-width: 0.8"/>
      </defs>
      <g>
       <use xlink:href="#me268aed880" x="57.6" y="307.584" style="fill: #d3d3d3; stroke: #d3d3d3; stroke-width: 0.8"/>
      </g>
     </g>
     <g id="text_10">
      <!-- −4 -->
      <g style="fill: #d3d3d3" transform="translate(35.857813 311.383219) scale(0.1 -0.1)">
       <use xlink:href="#DejaVuSans-2212"/>
       <use xlink:href="#DejaVuSans-34" x="83.789062"/>
      </g>
     </g>
    </g>
    <g id="ytick_2">
     <g id="line2d_10">
      <g>
       <use xlink:href="#me268aed880" x="57.6" y="274.32" style="fill: #d3d3d3; stroke: #d3d3d3; stroke-width: 0.8"/>
      </g>
     </g>
     <g id="text_11">
      <!-- −3 -->
      <g style="fill: #d3d3d3" transform="translate(35.857813 278.119219) scale(0.1 -0.1)">
       <use xlink:href="#DejaVuSans-2212"/>
       <use xlink:href="#DejaVuSans-33" x="83.789062"/>
      </g>
     </g>
    </g>
    <g id="ytick_3">
     <g id="line2d_11">
      <g>
       <use xlink:href="#me268aed880" x="57.6" y="241.056" style="fill: #d3d3d3; stroke: #d3d3d3; stroke-width: 0.8"/>
      </g>
     </g>
     <g id="text_12">
      <!-- −2 -->
      <g style="fill: #d3d3d3" transform="translate(35.857813 244.855219) scale(0.1 -0.1)">
       <use xlink:href="#DejaVuSans-2212"/>
       <use xlink:href="#DejaVuSans-32" x="83.789062"/>
      </g>
     </g>
    </g>
    <g id="ytick_4">
     <g id="line2d_12">
      <g>
       <use xlink:href="#me268aed880" x="57.6" y="207.792" style="fill: #d3d3d3; stroke: #d3d3d3; stroke-width: 0.8"/>
      </g>
     </g>
     <g id="text_13">
      <!-- −1 -->
      <g style="fill: #d3d3d3" transform="translate(35.857813 211.591219) scale(0.1 -0.1)">
       <use xlink:href="#DejaVuSans-2212"/>
       <use xlink:href="#DejaVuSans-31" x="83.789062"/>
      </g>
     </g>
    </g>
    <g id="ytick_5">
     <g id="line2d_13">
      <g>
       <use xlink:href="#me268aed880" x="57.6" y="174.528" style="fill: #d3d3d3; stroke: #d3d3d3; stroke-width: 0.8"/>
      </g>
     </g>
     <g id="text_14">
      <!-- 0 -->
      <g style="fill: #d3d3d3" transform="translate(44.2375 178.327219) scale(0.1 -0.1)">
       <use xlink:href="#DejaVuSans-30"/>
      </g>
     </g>
    </g>
    <g id="ytick_6">
     <g id="line2d_14">
      <g>
       <use xlink:href="#me268aed880" x="57.6" y="141.264" style="fill: #d3d3d3; stroke: #d3d3d3; stroke-width: 0.8"/>
      </g>
     </g>
     <g id="text_15">
      <!-- 1 -->
      <g style="fill: #d3d3d3" transform="translate(44.2375 145.063219) scale(0.1 -0.1)">
       <use xlink:href="#DejaVuSans-31"/>
      </g>
     </g>
    </g>
    <g id="ytick_7">
     <g id="line2d_15">
      <g>
       <use xlink:href="#me268aed880" x="57.6" y="108" style="fill: #d3d3d3; stroke: #d3d3d3; stroke-width: 0.8"/>
      </g>
     </g>
     <g id="text_16">
      <!-- 2 -->
      <g style="fill: #d3d3d3" transform="translate(44.2375 111.799219) scale(0.1 -0.1)">
       <use xlink:href="#DejaVuSans-32"/>
      </g>
     </g>
    </g>
    <g id="ytick_8">
     <g id="line2d_16">
      <g>
       <use xlink:href="#me268aed880" x="57.6" y="74.736" style="fill: #d3d3d3; stroke: #d3d3d3; stroke-width: 0.8"/>
      </g>
     </g>
     <g id="text_17">
      <!-- 3 -->
      <g style="fill: #d3d3d3" transform="translate(44.2375 78.535219) scale(0.1 -0.1)">
       <use xlink:href="#DejaVuSans-33"/>
      </g>
     </g>
    </g>
    <g id="ytick_9">
     <g id="line2d_17">
      <g>
       <use xlink:href="#me268aed880" x="57.6" y="41.472" style="fill: #d3d3d3; stroke: #d3d3d3; stroke-width: 0.8"/>
      </g>
     </g>
     <g id="text_18">
      <!-- 4 -->
      <g style="fill: #d3d3d3" transform="translate(44.2375 45.271219) scale(0.1 -0.1)">
       <use xlink:href="#DejaVuSans-34"/>
      </g>
     </g>
    </g>
    <g id="text_19">
     <!-- Y-as -->
     <g style="fill: #d3d3d3" transform="translate(29.778125 184.460813) rotate(-90) scale(0.1 -0.1)">
      <defs>
       <path id="DejaVuSans-59" d="M -13 4666 
L 666 4666 
L 1959 2747 
L 3244 4666 
L 3922 4666 
L 2272 2222 
L 2272 0 
L 1638 0 
L 1638 2222 
L -13 4666 
z
" transform="scale(0.015625)"/>
      </defs>
      <use xlink:href="#DejaVuSans-59"/>
      <use xlink:href="#DejaVuSans-2d" x="49.208984"/>
      <use xlink:href="#DejaVuSans-61" x="85.292969"/>
      <use xlink:href="#DejaVuSans-73" x="146.572266"/>
     </g>
    </g>
   </g>
   <g id="line2d_18">
    <path d="M 57.6 240.831869 
L 100.964571 240.531612 
L 131.064686 240.110011 
L 154.0224 239.572394 
L 172.388571 238.929504 
L 188.203886 238.156681 
L 201.468343 237.295787 
L 213.202286 236.323395 
L 223.915886 235.217489 
L 233.609143 233.995783 
L 242.282057 232.687491 
L 250.4448 231.235464 
L 258.097371 229.646165 
L 265.239771 227.931565 
L 271.872 226.109521 
L 277.994057 224.203892 
L 284.116114 222.055302 
L 289.728 219.845937 
L 294.829714 217.615255 
L 299.931429 215.149971 
L 305.033143 212.42541 
L 309.624686 209.729145 
L 314.216229 206.77896 
L 318.807771 203.550945 
L 322.889143 200.427259 
L 326.970514 197.04341 
L 331.051886 193.37773 
L 335.133257 189.406747 
L 339.214629 185.105032 
L 343.296 180.44504 
L 346.8672 176.05025 
L 350.4384 171.336801 
L 354.0096 166.281589 
L 357.5808 160.859832 
L 361.152 155.044954 
L 364.7232 148.808449 
L 368.2944 142.119747 
L 371.8656 134.94606 
L 375.4368 127.252221 
L 379.008 119.000516 
L 382.5792 110.150494 
L 386.1504 100.658774 
L 389.7216 90.478827 
L 393.2928 79.56075 
L 396.864 67.851023 
L 400.4352 55.292245 
L 404.0064 41.822853 
L 407.5776 27.37682 
L 411.1488 11.883331 
L 413.938464 -1 
L 413.938464 -1 
" clip-path="url(#pc88e9be88b)" style="fill: none; stroke: #00ced1; stroke-width: 1.5; stroke-linecap: square"/>
   </g>
   <g id="line2d_19">
    <path d="M 109.117676 346.6 
L 109.127314 327.714381 
L 109.637486 304.657533 
L 110.147657 291.170142 
L 110.657829 281.600685 
L 111.678171 268.113294 
L 112.698514 258.543838 
L 113.718857 251.121191 
L 114.7392 245.056446 
L 116.269714 237.633799 
L 117.800229 231.569055 
L 119.330743 226.441387 
L 120.861257 221.999598 
L 122.901943 216.87193 
L 124.942629 212.430142 
L 126.983314 208.512207 
L 129.024 205.007495 
L 131.574857 201.08956 
L 134.125714 197.584848 
L 136.676571 194.41445 
L 139.7376 190.970273 
L 142.798629 187.849486 
L 146.369829 184.54396 
L 149.941029 181.537424 
L 154.0224 178.404381 
L 158.103771 175.541195 
L 162.695314 172.589743 
L 167.797029 169.590957 
L 173.408914 166.577342 
L 179.0208 163.814214 
L 185.142857 161.040609 
L 191.775086 158.275874 
L 198.917486 155.534936 
L 206.570057 152.829055 
L 215.242971 150.006975 
L 224.426057 147.258844 
L 234.629486 144.450087 
L 245.343086 141.73579 
L 257.077029 138.996956 
L 269.831314 136.255372 
L 283.605943 133.528115 
L 298.400914 130.828296 
L 314.7264 128.083317 
L 332.072229 125.395451 
L 350.948571 122.697877 
L 371.355429 120.008413 
L 393.2928 117.340905 
L 414.209829 114.982399 
L 414.209829 114.982399 
" clip-path="url(#pc88e9be88b)" style="fill: none; stroke: #dc143c; stroke-width: 1.5; stroke-linecap: square"/>
   </g>
   <g id="patch_3">
    <path d="M 57.6 307.584 
L 57.6 41.472 
" style="fill: none; stroke: #d3d3d3; stroke-width: 0.8; stroke-linejoin: miter; stroke-linecap: square"/>
   </g>
   <g id="patch_4">
    <path d="M 414.72 307.584 
L 414.72 41.472 
" style="fill: none; stroke: #d3d3d3; stroke-width: 0.8; stroke-linejoin: miter; stroke-linecap: square"/>
   </g>
   <g id="patch_5">
    <path d="M 57.6 307.584 
L 414.72 307.584 
" style="fill: none; stroke: #d3d3d3; stroke-width: 0.8; stroke-linejoin: miter; stroke-linecap: square"/>
   </g>
   <g id="patch_6">
    <path d="M 57.6 41.472 
L 414.72 41.472 
" style="fill: none; stroke: #d3d3d3; stroke-width: 0.8; stroke-linejoin: miter; stroke-linecap: square"/>
   </g>
   <g id="PolyCollection_1">
    <defs>
     <path id="mf6be01b055" d="M 115.759543 -105.671222 
L 115.759543 -105.244806 
L 116.269714 -105.251849 
L 116.779886 -105.258963 
L 117.290057 -105.266149 
L 117.800229 -105.273406 
L 118.3104 -105.280737 
L 118.820571 -105.288141 
L 119.330743 -105.29562 
L 119.840914 -105.303174 
L 120.351086 -105.310804 
L 120.861257 -105.31851 
L 121.371429 -105.326294 
L 121.8816 -105.334156 
L 122.391771 -105.342098 
L 122.901943 -105.350119 
L 123.412114 -105.35822 
L 123.922286 -105.366403 
L 124.432457 -105.374669 
L 124.942629 -105.383017 
L 125.4528 -105.391449 
L 125.962971 -105.399966 
L 126.473143 -105.408569 
L 126.983314 -105.417258 
L 127.493486 -105.426034 
L 128.003657 -105.434899 
L 128.513829 -105.443853 
L 129.024 -105.452896 
L 129.534171 -105.462031 
L 130.044343 -105.471257 
L 130.554514 -105.480576 
L 131.064686 -105.489989 
L 131.574857 -105.499496 
L 132.085029 -105.509099 
L 132.5952 -105.518799 
L 133.105371 -105.528596 
L 133.615543 -105.538491 
L 134.125714 -105.548486 
L 134.635886 -105.558581 
L 135.146057 -105.568778 
L 135.656229 -105.579077 
L 136.1664 -105.58948 
L 136.676571 -105.599987 
L 137.186743 -105.6106 
L 137.696914 -105.621319 
L 138.207086 -105.632146 
L 138.717257 -105.643082 
L 139.227429 -105.654128 
L 139.7376 -105.665285 
L 140.247771 -105.676555 
L 140.757943 -105.687937 
L 141.268114 -105.699434 
L 141.778286 -105.711046 
L 142.288457 -105.722775 
L 142.798629 -105.734622 
L 143.3088 -105.746588 
L 143.818971 -105.758674 
L 144.329143 -105.770882 
L 144.839314 -105.783212 
L 145.349486 -105.795666 
L 145.859657 -105.808246 
L 146.369829 -105.820952 
L 146.88 -105.833785 
L 147.390171 -105.846748 
L 147.900343 -105.859841 
L 148.410514 -105.873065 
L 148.920686 -105.886422 
L 149.430857 -105.899914 
L 149.941029 -105.913541 
L 150.4512 -105.927305 
L 150.961371 -105.941208 
L 151.471543 -105.95525 
L 151.981714 -105.969433 
L 152.491886 -105.983759 
L 153.002057 -105.998229 
L 153.512229 -106.012844 
L 154.0224 -106.027606 
L 154.532571 -106.042517 
L 155.042743 -106.057577 
L 155.552914 -106.072789 
L 156.063086 -106.088153 
L 156.573257 -106.103672 
L 157.083429 -106.119347 
L 157.5936 -106.13518 
L 158.103771 -106.151171 
L 158.613943 -106.167324 
L 159.124114 -106.183638 
L 159.634286 -106.200117 
L 160.144457 -106.216761 
L 160.654629 -106.233573 
L 161.1648 -106.250553 
L 161.674971 -106.267704 
L 162.185143 -106.285028 
L 162.695314 -106.302526 
L 163.205486 -106.320199 
L 163.715657 -106.33805 
L 164.225829 -106.356081 
L 164.736 -106.374292 
L 165.246171 -106.392687 
L 165.756343 -106.411267 
L 166.266514 -106.430033 
L 166.776686 -106.448988 
L 167.286857 -106.468133 
L 167.797029 -106.487471 
L 168.3072 -106.507004 
L 168.817371 -106.526732 
L 169.327543 -106.546659 
L 169.837714 -106.566786 
L 170.347886 -106.587115 
L 170.858057 -106.607649 
L 171.368229 -106.628389 
L 171.8784 -106.649337 
L 172.388571 -106.670496 
L 172.898743 -106.691868 
L 173.408914 -106.713454 
L 173.919086 -106.735258 
L 174.429257 -106.75728 
L 174.939429 -106.779524 
L 175.4496 -106.801992 
L 175.959771 -106.824685 
L 176.469943 -106.847606 
L 176.980114 -106.870758 
L 177.490286 -106.894142 
L 178.000457 -106.917761 
L 178.510629 -106.941618 
L 179.0208 -106.965714 
L 179.530971 -106.990053 
L 180.041143 -107.014636 
L 180.551314 -107.039467 
L 181.061486 -107.064546 
L 181.571657 -107.089878 
L 182.081829 -107.115465 
L 182.592 -107.141309 
L 183.102171 -107.167412 
L 183.612343 -107.193778 
L 184.122514 -107.220408 
L 184.632686 -107.247307 
L 185.142857 -107.274475 
L 185.653029 -107.301917 
L 186.1632 -107.329635 
L 186.673371 -107.357631 
L 187.183543 -107.385908 
L 187.693714 -107.41447 
L 188.203886 -107.443319 
L 188.714057 -107.472457 
L 189.224229 -107.501889 
L 189.7344 -107.531616 
L 190.244571 -107.561642 
L 190.754743 -107.59197 
L 191.264914 -107.622602 
L 191.775086 -107.653543 
L 192.285257 -107.684794 
L 192.795429 -107.71636 
L 193.3056 -107.748243 
L 193.815771 -107.780446 
L 194.325943 -107.812973 
L 194.836114 -107.845826 
L 195.346286 -107.87901 
L 195.856457 -107.912528 
L 196.366629 -107.946382 
L 196.8768 -107.980576 
L 197.386971 -108.015115 
L 197.897143 -108.05 
L 198.407314 -108.085236 
L 198.917486 -108.120826 
L 199.427657 -108.156773 
L 199.937829 -108.193082 
L 200.448 -108.229756 
L 200.958171 -108.266799 
L 201.468343 -108.304213 
L 201.978514 -108.342004 
L 202.488686 -108.380175 
L 202.998857 -108.418729 
L 203.509029 -108.457671 
L 204.0192 -108.497004 
L 204.529371 -108.536732 
L 205.039543 -108.57686 
L 205.549714 -108.617391 
L 206.059886 -108.658329 
L 206.570057 -108.699679 
L 207.080229 -108.741444 
L 207.5904 -108.783629 
L 208.100571 -108.826238 
L 208.610743 -108.869275 
L 209.120914 -108.912745 
L 209.631086 -108.956651 
L 210.141257 -109.000999 
L 210.651429 -109.045793 
L 211.1616 -109.091037 
L 211.671771 -109.136735 
L 212.181943 -109.182893 
L 212.692114 -109.229515 
L 213.202286 -109.276605 
L 213.712457 -109.324168 
L 214.222629 -109.37221 
L 214.7328 -109.420734 
L 215.242971 -109.469746 
L 215.753143 -109.519251 
L 216.263314 -109.569253 
L 216.773486 -109.619757 
L 217.283657 -109.670769 
L 217.793829 -109.722294 
L 218.304 -109.774337 
L 218.814171 -109.826903 
L 219.324343 -109.879997 
L 219.834514 -109.933625 
L 220.344686 -109.987791 
L 220.854857 -110.042502 
L 221.365029 -110.097763 
L 221.8752 -110.153579 
L 222.385371 -110.209957 
L 222.895543 -110.2669 
L 223.405714 -110.324416 
L 223.915886 -110.382511 
L 224.426057 -110.441189 
L 224.936229 -110.500456 
L 225.4464 -110.56032 
L 225.956571 -110.620785 
L 226.466743 -110.681857 
L 226.976914 -110.743544 
L 227.487086 -110.80585 
L 227.997257 -110.868783 
L 228.507429 -110.932348 
L 229.0176 -110.996552 
L 229.527771 -111.061401 
L 230.037943 -111.126902 
L 230.548114 -111.193062 
L 231.058286 -111.259886 
L 231.568457 -111.327382 
L 232.078629 -111.395556 
L 232.5888 -111.464415 
L 233.098971 -111.533966 
L 233.609143 -111.604217 
L 234.119314 -111.675173 
L 234.629486 -111.746842 
L 235.139657 -111.819232 
L 235.649829 -111.89235 
L 236.16 -111.966202 
L 236.670171 -112.040796 
L 237.180343 -112.11614 
L 237.690514 -112.192241 
L 238.200686 -112.269107 
L 238.710857 -112.346746 
L 239.221029 -112.425165 
L 239.7312 -112.504372 
L 240.241371 -112.584375 
L 240.751543 -112.665182 
L 241.261714 -112.746801 
L 241.771886 -112.829241 
L 242.282057 -112.912509 
L 242.792229 -112.996614 
L 243.3024 -113.081564 
L 243.812571 -113.167368 
L 244.322743 -113.254034 
L 244.832914 -113.341572 
L 245.343086 -113.429989 
L 245.853257 -113.519294 
L 246.363429 -113.609498 
L 246.8736 -113.700607 
L 247.383771 -113.792633 
L 247.893943 -113.885583 
L 248.404114 -113.979468 
L 248.914286 -114.074296 
L 249.424457 -114.170077 
L 249.934629 -114.26682 
L 250.4448 -114.364536 
L 250.954971 -114.463234 
L 251.465143 -114.562924 
L 251.975314 -114.663616 
L 252.485486 -114.76532 
L 252.995657 -114.868046 
L 253.505829 -114.971804 
L 254.016 -115.076605 
L 254.526171 -115.18246 
L 255.036343 -115.289378 
L 255.546514 -115.397371 
L 256.056686 -115.506449 
L 256.566857 -115.616624 
L 257.077029 -115.727905 
L 257.5872 -115.840306 
L 258.097371 -115.953835 
L 258.607543 -116.068506 
L 259.117714 -116.184329 
L 259.627886 -116.301317 
L 260.138057 -116.41948 
L 260.648229 -116.53883 
L 261.1584 -116.65938 
L 261.668571 -116.781142 
L 262.178743 -116.904127 
L 262.688914 -117.028348 
L 263.199086 -117.153818 
L 263.709257 -117.280549 
L 264.219429 -117.408553 
L 264.7296 -117.537844 
L 265.239771 -117.668435 
L 265.749943 -117.800337 
L 266.260114 -117.933566 
L 266.770286 -118.068133 
L 267.280457 -118.204053 
L 267.790629 -118.341339 
L 268.3008 -118.480004 
L 268.810971 -118.620064 
L 269.321143 -118.76153 
L 269.831314 -118.904419 
L 270.341486 -119.048743 
L 270.851657 -119.194519 
L 271.361829 -119.341759 
L 271.872 -119.490479 
L 272.382171 -119.640693 
L 272.892343 -119.792418 
L 273.402514 -119.945667 
L 273.912686 -120.100456 
L 274.422857 -120.256801 
L 274.933029 -120.414717 
L 275.4432 -120.574221 
L 275.953371 -120.735327 
L 276.463543 -120.898053 
L 276.973714 -121.062414 
L 277.483886 -121.228426 
L 277.994057 -121.396108 
L 278.504229 -121.565474 
L 279.0144 -121.736543 
L 279.524571 -121.909331 
L 280.034743 -122.083855 
L 280.544914 -122.260134 
L 281.055086 -122.438184 
L 281.565257 -122.618023 
L 282.075429 -122.79967 
L 282.5856 -122.983143 
L 283.095771 -123.168459 
L 283.605943 -123.355638 
L 284.116114 -123.544698 
L 284.626286 -123.735658 
L 285.136457 -123.928538 
L 285.646629 -124.123356 
L 286.1568 -124.320132 
L 286.666971 -124.518885 
L 287.177143 -124.719636 
L 287.687314 -124.922404 
L 288.197486 -125.127211 
L 288.707657 -125.334075 
L 289.217829 -125.543019 
L 289.728 -125.754063 
L 290.238171 -125.967228 
L 290.748343 -126.182535 
L 291.258514 -126.400005 
L 291.768686 -126.619662 
L 292.278857 -126.841526 
L 292.789029 -127.06562 
L 293.2992 -127.291966 
L 293.809371 -127.520587 
L 294.319543 -127.751505 
L 294.829714 -127.984745 
L 295.339886 -128.220328 
L 295.850057 -128.458279 
L 296.360229 -128.698622 
L 296.8704 -128.94138 
L 297.380571 -129.186577 
L 297.890743 -129.434239 
L 298.400914 -129.68439 
L 298.911086 -129.937055 
L 299.421257 -130.19226 
L 299.931429 -130.450029 
L 300.4416 -130.710389 
L 300.951771 -130.973366 
L 301.461943 -131.238985 
L 301.972114 -131.507274 
L 302.482286 -131.77826 
L 302.992457 -132.051969 
L 303.502629 -132.328428 
L 304.0128 -132.607666 
L 304.522971 -132.889711 
L 305.033143 -133.17459 
L 305.543314 -133.462332 
L 306.053486 -133.752966 
L 306.563657 -134.046521 
L 307.073829 -134.343027 
L 307.584 -134.642512 
L 308.094171 -134.945007 
L 308.604343 -135.250542 
L 309.114514 -135.559148 
L 309.624686 -135.870855 
L 310.134857 -136.185696 
L 310.645029 -136.5037 
L 311.1552 -136.8249 
L 311.665371 -137.149329 
L 312.175543 -137.477018 
L 312.685714 -137.808 
L 313.195886 -138.142309 
L 313.706057 -138.479977 
L 314.216229 -138.82104 
L 314.7264 -139.16553 
L 315.236571 -139.513482 
L 315.746743 -139.864931 
L 316.256914 -140.219912 
L 316.767086 -140.578461 
L 317.277257 -140.940613 
L 317.787429 -141.306405 
L 318.2976 -141.675874 
L 318.807771 -142.049055 
L 319.317943 -142.425987 
L 319.828114 -142.806708 
L 320.338286 -143.191254 
L 320.848457 -143.579666 
L 321.358629 -143.971981 
L 321.8688 -144.368238 
L 322.378971 -144.768479 
L 322.889143 -145.172741 
L 323.399314 -145.581067 
L 323.909486 -145.993496 
L 324.419657 -146.410071 
L 324.929829 -146.830832 
L 325.44 -147.255821 
L 325.950171 -147.685082 
L 326.460343 -148.118657 
L 326.970514 -148.55659 
L 327.480686 -148.998924 
L 327.990857 -149.445703 
L 328.501029 -149.896973 
L 329.0112 -150.352778 
L 329.521371 -150.813164 
L 330.031543 -151.278177 
L 330.541714 -151.747863 
L 331.051886 -152.22227 
L 331.562057 -152.701444 
L 332.072229 -153.185435 
L 332.5824 -153.674289 
L 333.092571 -154.168057 
L 333.602743 -154.666787 
L 334.112914 -155.170529 
L 334.623086 -155.679334 
L 335.133257 -156.193253 
L 335.643429 -156.712337 
L 336.1536 -157.236637 
L 336.663771 -157.766207 
L 337.173943 -158.301099 
L 337.684114 -158.841367 
L 338.194286 -159.387064 
L 338.704457 -159.938246 
L 339.214629 -160.494968 
L 339.7248 -161.057284 
L 340.234971 -161.625252 
L 340.745143 -162.198928 
L 341.255314 -162.77837 
L 341.765486 -163.363635 
L 342.275657 -163.954782 
L 342.785829 -164.551871 
L 343.296 -165.15496 
L 343.806171 -165.76411 
L 344.316343 -166.379382 
L 344.826514 -167.000838 
L 345.336686 -167.62854 
L 345.846857 -168.26255 
L 346.357029 -168.902932 
L 346.8672 -169.54975 
L 347.377371 -170.203069 
L 347.887543 -170.862953 
L 348.397714 -171.52947 
L 348.907886 -172.202685 
L 349.418057 -172.882666 
L 349.928229 -173.569481 
L 350.4384 -174.263199 
L 350.948571 -174.963889 
L 351.458743 -175.67162 
L 351.968914 -176.386465 
L 352.479086 -177.108493 
L 352.989257 -177.837779 
L 353.499429 -178.574393 
L 354.0096 -179.318411 
L 354.519771 -180.069907 
L 355.029943 -180.828955 
L 355.540114 -181.595631 
L 356.050286 -182.370013 
L 356.560457 -183.152177 
L 357.070629 -183.942203 
L 357.5808 -184.740168 
L 358.090971 -185.546153 
L 358.601143 -186.360238 
L 359.111314 -187.182505 
L 359.621486 -188.013036 
L 360.131657 -188.851913 
L 360.641829 -189.699222 
L 361.152 -190.555046 
L 361.662171 -191.419471 
L 362.172343 -192.292584 
L 362.682514 -193.174472 
L 363.192686 -194.065223 
L 363.702857 -194.964927 
L 364.213029 -195.873672 
L 364.7232 -196.791551 
L 365.233371 -197.718654 
L 365.743543 -198.655075 
L 366.253714 -199.600907 
L 366.763886 -200.556245 
L 367.274057 -201.521184 
L 367.784229 -202.495821 
L 368.2944 -203.480253 
L 368.804571 -204.474579 
L 369.314743 -205.478898 
L 369.824914 -206.49331 
L 370.335086 -207.517918 
L 370.845257 -208.552823 
L 371.355429 -209.598129 
L 371.8656 -210.65394 
L 372.375771 -211.720363 
L 372.885943 -212.797503 
L 373.396114 -213.885469 
L 373.906286 -214.984369 
L 374.416457 -216.094313 
L 374.926629 -217.215413 
L 375.4368 -218.347779 
L 375.946971 -219.491526 
L 376.457143 -220.646768 
L 376.967314 -221.81362 
L 377.477486 -222.9922 
L 377.987657 -224.182624 
L 378.497829 -225.385012 
L 378.497829 -226.483778 
L 378.497829 -226.483778 
L 377.987657 -226.420838 
L 377.477486 -226.357778 
L 376.967314 -226.294598 
L 376.457143 -226.231299 
L 375.946971 -226.167878 
L 375.4368 -226.104337 
L 374.926629 -226.040674 
L 374.416457 -225.976888 
L 373.906286 -225.912981 
L 373.396114 -225.84895 
L 372.885943 -225.784795 
L 372.375771 -225.720517 
L 371.8656 -225.656114 
L 371.355429 -225.591587 
L 370.845257 -225.526934 
L 370.335086 -225.462155 
L 369.824914 -225.397249 
L 369.314743 -225.332217 
L 368.804571 -225.267057 
L 368.2944 -225.20177 
L 367.784229 -225.136354 
L 367.274057 -225.070809 
L 366.763886 -225.005135 
L 366.253714 -224.939331 
L 365.743543 -224.873396 
L 365.233371 -224.80733 
L 364.7232 -224.741133 
L 364.213029 -224.674804 
L 363.702857 -224.608343 
L 363.192686 -224.541748 
L 362.682514 -224.47502 
L 362.172343 -224.408158 
L 361.662171 -224.341161 
L 361.152 -224.274028 
L 360.641829 -224.20676 
L 360.131657 -224.139356 
L 359.621486 -224.071815 
L 359.111314 -224.004136 
L 358.601143 -223.93632 
L 358.090971 -223.868365 
L 357.5808 -223.800271 
L 357.070629 -223.732037 
L 356.560457 -223.663663 
L 356.050286 -223.595148 
L 355.540114 -223.526491 
L 355.029943 -223.457693 
L 354.519771 -223.388752 
L 354.0096 -223.319668 
L 353.499429 -223.25044 
L 352.989257 -223.181068 
L 352.479086 -223.11155 
L 351.968914 -223.041887 
L 351.458743 -222.972078 
L 350.948571 -222.902123 
L 350.4384 -222.832019 
L 349.928229 -222.761768 
L 349.418057 -222.691368 
L 348.907886 -222.620819 
L 348.397714 -222.550119 
L 347.887543 -222.479269 
L 347.377371 -222.408268 
L 346.8672 -222.337115 
L 346.357029 -222.26581 
L 345.846857 -222.194351 
L 345.336686 -222.122739 
L 344.826514 -222.050972 
L 344.316343 -221.979049 
L 343.806171 -221.906971 
L 343.296 -221.834737 
L 342.785829 -221.762345 
L 342.275657 -221.689795 
L 341.765486 -221.617087 
L 341.255314 -221.54422 
L 340.745143 -221.471192 
L 340.234971 -221.398004 
L 339.7248 -221.324655 
L 339.214629 -221.251143 
L 338.704457 -221.177469 
L 338.194286 -221.103631 
L 337.684114 -221.029628 
L 337.173943 -220.955461 
L 336.663771 -220.881128 
L 336.1536 -220.806629 
L 335.643429 -220.731962 
L 335.133257 -220.657127 
L 334.623086 -220.582124 
L 334.112914 -220.506951 
L 333.602743 -220.431608 
L 333.092571 -220.356093 
L 332.5824 -220.280407 
L 332.072229 -220.204549 
L 331.562057 -220.128517 
L 331.051886 -220.052311 
L 330.541714 -219.975929 
L 330.031543 -219.899372 
L 329.521371 -219.822639 
L 329.0112 -219.745728 
L 328.501029 -219.668638 
L 327.990857 -219.59137 
L 327.480686 -219.513922 
L 326.970514 -219.436293 
L 326.460343 -219.358482 
L 325.950171 -219.280489 
L 325.44 -219.202313 
L 324.929829 -219.123953 
L 324.419657 -219.045407 
L 323.909486 -218.966676 
L 323.399314 -218.887758 
L 322.889143 -218.808652 
L 322.378971 -218.729357 
L 321.8688 -218.649873 
L 321.358629 -218.570199 
L 320.848457 -218.490333 
L 320.338286 -218.410276 
L 319.828114 -218.330025 
L 319.317943 -218.24958 
L 318.807771 -218.16894 
L 318.2976 -218.088104 
L 317.787429 -218.007071 
L 317.277257 -217.92584 
L 316.767086 -217.84441 
L 316.256914 -217.762781 
L 315.746743 -217.68095 
L 315.236571 -217.598918 
L 314.7264 -217.516683 
L 314.216229 -217.434245 
L 313.706057 -217.351601 
L 313.195886 -217.268752 
L 312.685714 -217.185696 
L 312.175543 -217.102432 
L 311.665371 -217.018958 
L 311.1552 -216.935275 
L 310.645029 -216.851381 
L 310.134857 -216.767275 
L 309.624686 -216.682956 
L 309.114514 -216.598422 
L 308.604343 -216.513673 
L 308.094171 -216.428707 
L 307.584 -216.343524 
L 307.073829 -216.258122 
L 306.563657 -216.172501 
L 306.053486 -216.086658 
L 305.543314 -216.000593 
L 305.033143 -215.914305 
L 304.522971 -215.827793 
L 304.0128 -215.741055 
L 303.502629 -215.65409 
L 302.992457 -215.566897 
L 302.482286 -215.479475 
L 301.972114 -215.391823 
L 301.461943 -215.303939 
L 300.951771 -215.215823 
L 300.4416 -215.127472 
L 299.931429 -215.038886 
L 299.421257 -214.950064 
L 298.911086 -214.861003 
L 298.400914 -214.771704 
L 297.890743 -214.682164 
L 297.380571 -214.592383 
L 296.8704 -214.502359 
L 296.360229 -214.41209 
L 295.850057 -214.321575 
L 295.339886 -214.230814 
L 294.829714 -214.139805 
L 294.319543 -214.048545 
L 293.809371 -213.957035 
L 293.2992 -213.865272 
L 292.789029 -213.773255 
L 292.278857 -213.680983 
L 291.768686 -213.588455 
L 291.258514 -213.495668 
L 290.748343 -213.402622 
L 290.238171 -213.309315 
L 289.728 -213.215745 
L 289.217829 -213.121911 
L 288.707657 -213.027812 
L 288.197486 -212.933446 
L 287.687314 -212.838812 
L 287.177143 -212.743907 
L 286.666971 -212.648731 
L 286.1568 -212.553282 
L 285.646629 -212.457558 
L 285.136457 -212.361558 
L 284.626286 -212.26528 
L 284.116114 -212.168723 
L 283.605943 -212.071885 
L 283.095771 -211.974763 
L 282.5856 -211.877358 
L 282.075429 -211.779666 
L 281.565257 -211.681687 
L 281.055086 -211.583418 
L 280.544914 -211.484858 
L 280.034743 -211.386005 
L 279.524571 -211.286857 
L 279.0144 -211.187413 
L 278.504229 -211.087671 
L 277.994057 -210.987629 
L 277.483886 -210.887285 
L 276.973714 -210.786637 
L 276.463543 -210.685684 
L 275.953371 -210.584424 
L 275.4432 -210.482854 
L 274.933029 -210.380973 
L 274.422857 -210.27878 
L 273.912686 -210.176271 
L 273.402514 -210.073446 
L 272.892343 -209.970302 
L 272.382171 -209.866836 
L 271.872 -209.763049 
L 271.361829 -209.658936 
L 270.851657 -209.554496 
L 270.341486 -209.449728 
L 269.831314 -209.344628 
L 269.321143 -209.239195 
L 268.810971 -209.133427 
L 268.3008 -209.027322 
L 267.790629 -208.920877 
L 267.280457 -208.81409 
L 266.770286 -208.70696 
L 266.260114 -208.599483 
L 265.749943 -208.491658 
L 265.239771 -208.383482 
L 264.7296 -208.274954 
L 264.219429 -208.16607 
L 263.709257 -208.056828 
L 263.199086 -207.947227 
L 262.688914 -207.837263 
L 262.178743 -207.726935 
L 261.668571 -207.616239 
L 261.1584 -207.505174 
L 260.648229 -207.393737 
L 260.138057 -207.281925 
L 259.627886 -207.169736 
L 259.117714 -207.057167 
L 258.607543 -206.944216 
L 258.097371 -206.830881 
L 257.5872 -206.717157 
L 257.077029 -206.603044 
L 256.566857 -206.488538 
L 256.056686 -206.373636 
L 255.546514 -206.258336 
L 255.036343 -206.142635 
L 254.526171 -206.026531 
L 254.016 -205.910019 
L 253.505829 -205.793098 
L 252.995657 -205.675765 
L 252.485486 -205.558016 
L 251.975314 -205.439849 
L 251.465143 -205.32126 
L 250.954971 -205.202248 
L 250.4448 -205.082808 
L 249.934629 -204.962937 
L 249.424457 -204.842633 
L 248.914286 -204.721893 
L 248.404114 -204.600712 
L 247.893943 -204.479089 
L 247.383771 -204.357019 
L 246.8736 -204.234499 
L 246.363429 -204.111527 
L 245.853257 -203.988098 
L 245.343086 -203.86421 
L 244.832914 -203.739858 
L 244.322743 -203.61504 
L 243.812571 -203.489752 
L 243.3024 -203.36399 
L 242.792229 -203.237751 
L 242.282057 -203.111031 
L 241.771886 -202.983826 
L 241.261714 -202.856133 
L 240.751543 -202.727948 
L 240.241371 -202.599267 
L 239.7312 -202.470086 
L 239.221029 -202.340401 
L 238.710857 -202.210209 
L 238.200686 -202.079506 
L 237.690514 -201.948287 
L 237.180343 -201.816548 
L 236.670171 -201.684286 
L 236.16 -201.551495 
L 235.649829 -201.418172 
L 235.139657 -201.284313 
L 234.629486 -201.149913 
L 234.119314 -201.014967 
L 233.609143 -200.879472 
L 233.098971 -200.743423 
L 232.5888 -200.606815 
L 232.078629 -200.469643 
L 231.568457 -200.331904 
L 231.058286 -200.193592 
L 230.548114 -200.054703 
L 230.037943 -199.915231 
L 229.527771 -199.775171 
L 229.0176 -199.63452 
L 228.507429 -199.493271 
L 227.997257 -199.351421 
L 227.487086 -199.208962 
L 226.976914 -199.065891 
L 226.466743 -198.922202 
L 225.956571 -198.777889 
L 225.4464 -198.632948 
L 224.936229 -198.487372 
L 224.426057 -198.341156 
L 223.915886 -198.194295 
L 223.405714 -198.046783 
L 222.895543 -197.898613 
L 222.385371 -197.749781 
L 221.8752 -197.600279 
L 221.365029 -197.450103 
L 220.854857 -197.299246 
L 220.344686 -197.147701 
L 219.834514 -196.995463 
L 219.324343 -196.842525 
L 218.814171 -196.68888 
L 218.304 -196.534522 
L 217.793829 -196.379445 
L 217.283657 -196.223642 
L 216.773486 -196.067105 
L 216.263314 -195.909828 
L 215.753143 -195.751804 
L 215.242971 -195.593025 
L 214.7328 -195.433486 
L 214.222629 -195.273177 
L 213.712457 -195.112092 
L 213.202286 -194.950223 
L 212.692114 -194.787562 
L 212.181943 -194.624103 
L 211.671771 -194.459836 
L 211.1616 -194.294753 
L 210.651429 -194.128848 
L 210.141257 -193.962111 
L 209.631086 -193.794533 
L 209.120914 -193.626108 
L 208.610743 -193.456825 
L 208.100571 -193.286676 
L 207.5904 -193.115653 
L 207.080229 -192.943745 
L 206.570057 -192.770945 
L 206.059886 -192.597242 
L 205.549714 -192.422628 
L 205.039543 -192.247092 
L 204.529371 -192.070624 
L 204.0192 -191.893216 
L 203.509029 -191.714856 
L 202.998857 -191.535535 
L 202.488686 -191.355242 
L 201.978514 -191.173966 
L 201.468343 -190.991697 
L 200.958171 -190.808424 
L 200.448 -190.624136 
L 199.937829 -190.43882 
L 199.427657 -190.252467 
L 198.917486 -190.065064 
L 198.407314 -189.876599 
L 197.897143 -189.68706 
L 197.386971 -189.496434 
L 196.8768 -189.304711 
L 196.366629 -189.111875 
L 195.856457 -188.917915 
L 195.346286 -188.722818 
L 194.836114 -188.52657 
L 194.325943 -188.329157 
L 193.815771 -188.130565 
L 193.3056 -187.930781 
L 192.795429 -187.729789 
L 192.285257 -187.527576 
L 191.775086 -187.324126 
L 191.264914 -187.119423 
L 190.754743 -186.913454 
L 190.244571 -186.706201 
L 189.7344 -186.497648 
L 189.224229 -186.28778 
L 188.714057 -186.076579 
L 188.203886 -185.864029 
L 187.693714 -185.650112 
L 187.183543 -185.43481 
L 186.673371 -185.218106 
L 186.1632 -184.999981 
L 185.653029 -184.780415 
L 185.142857 -184.559391 
L 184.632686 -184.336889 
L 184.122514 -184.112888 
L 183.612343 -183.887368 
L 183.102171 -183.66031 
L 182.592 -183.43169 
L 182.081829 -183.201489 
L 181.571657 -182.969683 
L 181.061486 -182.73625 
L 180.551314 -182.501168 
L 180.041143 -182.264412 
L 179.530971 -182.02596 
L 179.0208 -181.785786 
L 178.510629 -181.543864 
L 178.000457 -181.300171 
L 177.490286 -181.054679 
L 176.980114 -180.807362 
L 176.469943 -180.558192 
L 175.959771 -180.307142 
L 175.4496 -180.054183 
L 174.939429 -179.799285 
L 174.429257 -179.542419 
L 173.919086 -179.283554 
L 173.408914 -179.022658 
L 172.898743 -178.7597 
L 172.388571 -178.494647 
L 171.8784 -178.227465 
L 171.368229 -177.958119 
L 170.858057 -177.686575 
L 170.347886 -177.412796 
L 169.837714 -177.136744 
L 169.327543 -176.858383 
L 168.817371 -176.577672 
L 168.3072 -176.294573 
L 167.797029 -176.009043 
L 167.286857 -175.721041 
L 166.776686 -175.430524 
L 166.266514 -175.137447 
L 165.756343 -174.841765 
L 165.246171 -174.543432 
L 164.736 -174.242398 
L 164.225829 -173.938615 
L 163.715657 -173.632032 
L 163.205486 -173.322597 
L 162.695314 -173.010257 
L 162.185143 -172.694956 
L 161.674971 -172.376638 
L 161.1648 -172.055244 
L 160.654629 -171.730715 
L 160.144457 -171.402988 
L 159.634286 -171.072 
L 159.124114 -170.737686 
L 158.613943 -170.399977 
L 158.103771 -170.058805 
L 157.5936 -169.714097 
L 157.083429 -169.36578 
L 156.573257 -169.013777 
L 156.063086 -168.658008 
L 155.552914 -168.298394 
L 155.042743 -167.93485 
L 154.532571 -167.567288 
L 154.0224 -167.195619 
L 153.512229 -166.819751 
L 153.002057 -166.439587 
L 152.491886 -166.055027 
L 151.981714 -165.66597 
L 151.471543 -165.272309 
L 150.961371 -164.873933 
L 150.4512 -164.470728 
L 149.941029 -164.062576 
L 149.430857 -163.649353 
L 148.920686 -163.230932 
L 148.410514 -162.807181 
L 147.900343 -162.377962 
L 147.390171 -161.943133 
L 146.88 -161.502544 
L 146.369829 -161.05604 
L 145.859657 -160.603462 
L 145.349486 -160.144641 
L 144.839314 -159.679402 
L 144.329143 -159.207565 
L 143.818971 -158.728938 
L 143.3088 -158.243323 
L 142.798629 -157.750514 
L 142.288457 -157.250294 
L 141.778286 -156.742437 
L 141.268114 -156.226706 
L 140.757943 -155.702852 
L 140.247771 -155.170617 
L 139.7376 -154.629727 
L 139.227429 -154.079896 
L 138.717257 -153.520824 
L 138.207086 -152.952195 
L 137.696914 -152.373676 
L 137.186743 -151.784918 
L 136.676571 -151.18555 
L 136.1664 -150.575184 
L 135.656229 -149.953409 
L 135.146057 -149.31979 
L 134.635886 -148.673867 
L 134.125714 -148.015152 
L 133.615543 -147.343129 
L 133.105371 -146.657249 
L 132.5952 -145.956929 
L 132.085029 -145.241546 
L 131.574857 -144.51044 
L 131.064686 -143.762903 
L 130.554514 -142.99818 
L 130.044343 -142.215461 
L 129.534171 -141.41388 
L 129.024 -140.592505 
L 128.513829 -139.750334 
L 128.003657 -138.886285 
L 127.493486 -137.999192 
L 126.983314 -137.087793 
L 126.473143 -136.150717 
L 125.962971 -135.186475 
L 125.4528 -134.193446 
L 124.942629 -133.169858 
L 124.432457 -132.113769 
L 123.922286 -131.023049 
L 123.412114 -129.895347 
L 122.901943 -128.72807 
L 122.391771 -127.518336 
L 121.8816 -126.262942 
L 121.371429 -124.958304 
L 120.861257 -123.600402 
L 120.351086 -122.184699 
L 119.840914 -120.706055 
L 119.330743 -119.158613 
L 118.820571 -117.535657 
L 118.3104 -115.829437 
L 117.800229 -114.030945 
L 117.290057 -112.129628 
L 116.779886 -110.11301 
L 116.269714 -107.966201 
L 115.759543 -105.671222 
z
" style="stroke: #9400d3; stroke-opacity: 0.7"/>
    </defs>
    <g clip-path="url(#pc88e9be88b)">
     <use xlink:href="#mf6be01b055" x="0" y="345.6" style="fill: #9400d3; fill-opacity: 0.7; stroke: #9400d3; stroke-opacity: 0.7"/>
    </g>
   </g>
   <g id="text_20">
    <!-- $V$ -->
    <g style="fill: #ffffff" transform="translate(241.261714 187.8336) scale(0.1728 -0.1728)">
     <defs>
      <path id="DejaVuSans-Oblique-56" d="M 1319 0 
L 500 4666 
L 1119 4666 
L 1797 653 
L 4063 4666 
L 4750 4666 
L 2053 0 
L 1319 0 
z
" transform="scale(0.015625)"/>
     </defs>
     <use xlink:href="#DejaVuSans-Oblique-56" transform="translate(0 0.09375)"/>
    </g>
   </g>
   <g id="text_21">
    <!-- f(x) = e^(x - 4) - 2; g(x) = ln(x) -->
    <g style="fill: #d3d3d3" transform="translate(141.914062 35.472) scale(0.12 -0.12)">
     <defs>
      <path id="DejaVuSans-66" d="M 2375 4863 
L 2375 4384 
L 1825 4384 
Q 1516 4384 1395 4259 
Q 1275 4134 1275 3809 
L 1275 3500 
L 2222 3500 
L 2222 3053 
L 1275 3053 
L 1275 0 
L 697 0 
L 697 3053 
L 147 3053 
L 147 3500 
L 697 3500 
L 697 3744 
Q 697 4328 969 4595 
Q 1241 4863 1831 4863 
L 2375 4863 
z
" transform="scale(0.015625)"/>
      <path id="DejaVuSans-28" d="M 1984 4856 
Q 1566 4138 1362 3434 
Q 1159 2731 1159 2009 
Q 1159 1288 1364 580 
Q 1569 -128 1984 -844 
L 1484 -844 
Q 1016 -109 783 600 
Q 550 1309 550 2009 
Q 550 2706 781 3412 
Q 1013 4119 1484 4856 
L 1984 4856 
z
" transform="scale(0.015625)"/>
      <path id="DejaVuSans-78" d="M 3513 3500 
L 2247 1797 
L 3578 0 
L 2900 0 
L 1881 1375 
L 863 0 
L 184 0 
L 1544 1831 
L 300 3500 
L 978 3500 
L 1906 2253 
L 2834 3500 
L 3513 3500 
z
" transform="scale(0.015625)"/>
      <path id="DejaVuSans-29" d="M 513 4856 
L 1013 4856 
Q 1481 4119 1714 3412 
Q 1947 2706 1947 2009 
Q 1947 1309 1714 600 
Q 1481 -109 1013 -844 
L 513 -844 
Q 928 -128 1133 580 
Q 1338 1288 1338 2009 
Q 1338 2731 1133 3434 
Q 928 4138 513 4856 
z
" transform="scale(0.015625)"/>
      <path id="DejaVuSans-20" transform="scale(0.015625)"/>
      <path id="DejaVuSans-3d" d="M 678 2906 
L 4684 2906 
L 4684 2381 
L 678 2381 
L 678 2906 
z
M 678 1631 
L 4684 1631 
L 4684 1100 
L 678 1100 
L 678 1631 
z
" transform="scale(0.015625)"/>
      <path id="DejaVuSans-65" d="M 3597 1894 
L 3597 1613 
L 953 1613 
Q 991 1019 1311 708 
Q 1631 397 2203 397 
Q 2534 397 2845 478 
Q 3156 559 3463 722 
L 3463 178 
Q 3153 47 2828 -22 
Q 2503 -91 2169 -91 
Q 1331 -91 842 396 
Q 353 884 353 1716 
Q 353 2575 817 3079 
Q 1281 3584 2069 3584 
Q 2775 3584 3186 3129 
Q 3597 2675 3597 1894 
z
M 3022 2063 
Q 3016 2534 2758 2815 
Q 2500 3097 2075 3097 
Q 1594 3097 1305 2825 
Q 1016 2553 972 2059 
L 3022 2063 
z
" transform="scale(0.015625)"/>
      <path id="DejaVuSans-5e" d="M 2988 4666 
L 4684 2925 
L 4056 2925 
L 2681 4159 
L 1306 2925 
L 678 2925 
L 2375 4666 
L 2988 4666 
z
" transform="scale(0.015625)"/>
      <path id="DejaVuSans-3b" d="M 750 3309 
L 1409 3309 
L 1409 2516 
L 750 2516 
L 750 3309 
z
M 750 794 
L 1409 794 
L 1409 256 
L 897 -744 
L 494 -744 
L 750 256 
L 750 794 
z
" transform="scale(0.015625)"/>
      <path id="DejaVuSans-67" d="M 2906 1791 
Q 2906 2416 2648 2759 
Q 2391 3103 1925 3103 
Q 1463 3103 1205 2759 
Q 947 2416 947 1791 
Q 947 1169 1205 825 
Q 1463 481 1925 481 
Q 2391 481 2648 825 
Q 2906 1169 2906 1791 
z
M 3481 434 
Q 3481 -459 3084 -895 
Q 2688 -1331 1869 -1331 
Q 1566 -1331 1297 -1286 
Q 1028 -1241 775 -1147 
L 775 -588 
Q 1028 -725 1275 -790 
Q 1522 -856 1778 -856 
Q 2344 -856 2625 -561 
Q 2906 -266 2906 331 
L 2906 616 
Q 2728 306 2450 153 
Q 2172 0 1784 0 
Q 1141 0 747 490 
Q 353 981 353 1791 
Q 353 2603 747 3093 
Q 1141 3584 1784 3584 
Q 2172 3584 2450 3431 
Q 2728 3278 2906 2969 
L 2906 3500 
L 3481 3500 
L 3481 434 
z
" transform="scale(0.015625)"/>
      <path id="DejaVuSans-6c" d="M 603 4863 
L 1178 4863 
L 1178 0 
L 603 0 
L 603 4863 
z
" transform="scale(0.015625)"/>
      <path id="DejaVuSans-6e" d="M 3513 2113 
L 3513 0 
L 2938 0 
L 2938 2094 
Q 2938 2591 2744 2837 
Q 2550 3084 2163 3084 
Q 1697 3084 1428 2787 
Q 1159 2491 1159 1978 
L 1159 0 
L 581 0 
L 581 3500 
L 1159 3500 
L 1159 2956 
Q 1366 3272 1645 3428 
Q 1925 3584 2291 3584 
Q 2894 3584 3203 3211 
Q 3513 2838 3513 2113 
z
" transform="scale(0.015625)"/>
     </defs>
     <use xlink:href="#DejaVuSans-66"/>
     <use xlink:href="#DejaVuSans-28" x="35.205078"/>
     <use xlink:href="#DejaVuSans-78" x="74.21875"/>
     <use xlink:href="#DejaVuSans-29" x="133.398438"/>
     <use xlink:href="#DejaVuSans-20" x="172.412109"/>
     <use xlink:href="#DejaVuSans-3d" x="204.199219"/>
     <use xlink:href="#DejaVuSans-20" x="287.988281"/>
     <use xlink:href="#DejaVuSans-65" x="319.775391"/>
     <use xlink:href="#DejaVuSans-5e" x="381.298828"/>
     <use xlink:href="#DejaVuSans-28" x="465.087891"/>
     <use xlink:href="#DejaVuSans-78" x="504.101562"/>
     <use xlink:href="#DejaVuSans-20" x="563.28125"/>
     <use xlink:href="#DejaVuSans-2d" x="595.068359"/>
     <use xlink:href="#DejaVuSans-20" x="631.152344"/>
     <use xlink:href="#DejaVuSans-34" x="662.939453"/>
     <use xlink:href="#DejaVuSans-29" x="726.5625"/>
     <use xlink:href="#DejaVuSans-20" x="765.576172"/>
     <use xlink:href="#DejaVuSans-2d" x="797.363281"/>
     <use xlink:href="#DejaVuSans-20" x="833.447266"/>
     <use xlink:href="#DejaVuSans-32" x="865.234375"/>
     <use xlink:href="#DejaVuSans-3b" x="928.857422"/>
     <use xlink:href="#DejaVuSans-20" x="962.548828"/>
     <use xlink:href="#DejaVuSans-67" x="994.335938"/>
     <use xlink:href="#DejaVuSans-28" x="1057.8125"/>
     <use xlink:href="#DejaVuSans-78" x="1096.826172"/>
     <use xlink:href="#DejaVuSans-29" x="1156.005859"/>
     <use xlink:href="#DejaVuSans-20" x="1195.019531"/>
     <use xlink:href="#DejaVuSans-3d" x="1226.806641"/>
     <use xlink:href="#DejaVuSans-20" x="1310.595703"/>
     <use xlink:href="#DejaVuSans-6c" x="1342.382812"/>
     <use xlink:href="#DejaVuSans-6e" x="1370.166016"/>
     <use xlink:href="#DejaVuSans-28" x="1433.544922"/>
     <use xlink:href="#DejaVuSans-78" x="1472.558594"/>
     <use xlink:href="#DejaVuSans-29" x="1531.738281"/>
    </g>
   </g>
   <g id="PathCollection_1">
    <defs>
     <path id="mb932037e39" d="M 0 3 
C 0.795609 3 1.55874 2.683901 2.12132 2.12132 
C 2.683901 1.55874 3 0.795609 3 0 
C 3 -0.795609 2.683901 -1.55874 2.12132 -2.12132 
C 1.55874 -2.683901 0.795609 -3 0 -3 
C -0.795609 -3 -1.55874 -2.683901 -2.12132 -2.12132 
C -2.683901 -1.55874 -3 -0.795609 -3 0 
C -3 0.795609 -2.683901 1.55874 -2.12132 2.12132 
C -1.55874 2.683901 -0.795609 3 0 3 
z
" style="stroke: #7fffd4"/>
    </defs>
    <g clip-path="url(#pc88e9be88b)">
     <use xlink:href="#mb932037e39" x="115.668222" y="240.356447" style="fill: #7fffd4; stroke: #7fffd4"/>
     <use xlink:href="#mb932037e39" x="378.984532" y="119.056648" style="fill: #7fffd4; stroke: #7fffd4"/>
    </g>
   </g>
   <g id="legend_1">
    <g id="patch_7">
     <path d="M 303.42 79.572 
L 407.72 79.572 
Q 409.72 79.572 409.72 77.572 
L 409.72 48.472 
Q 409.72 46.472 407.72 46.472 
L 303.42 46.472 
Q 301.42 46.472 301.42 48.472 
L 301.42 77.572 
Q 301.42 79.572 303.42 79.572 
z
" style="fill: #ffffff; opacity: 0.8; stroke: #cccccc; stroke-linejoin: miter"/>
    </g>
    <g id="line2d_20">
     <path d="M 305.42 55.292312 
L 315.42 55.292312 
L 325.42 55.292312 
" style="fill: none; stroke: #00ced1; stroke-width: 1.5; stroke-linecap: square"/>
    </g>
    <g id="text_22">
     <!-- $f(x) = e^{x - 4} - 2$ -->
     <g transform="translate(333.42 58.792312) scale(0.1 -0.1)">
      <defs>
       <path id="DejaVuSans-Oblique-66" d="M 3059 4863 
L 2969 4384 
L 2419 4384 
Q 2106 4384 1964 4261 
Q 1822 4138 1753 3809 
L 1691 3500 
L 2638 3500 
L 2553 3053 
L 1606 3053 
L 1013 0 
L 434 0 
L 1031 3053 
L 481 3053 
L 563 3500 
L 1113 3500 
L 1159 3744 
Q 1278 4363 1576 4613 
Q 1875 4863 2516 4863 
L 3059 4863 
z
" transform="scale(0.015625)"/>
       <path id="DejaVuSans-Oblique-78" d="M 3841 3500 
L 2234 1784 
L 3219 0 
L 2559 0 
L 1819 1388 
L 531 0 
L -166 0 
L 1556 1844 
L 641 3500 
L 1300 3500 
L 1972 2234 
L 3144 3500 
L 3841 3500 
z
" transform="scale(0.015625)"/>
       <path id="DejaVuSans-Oblique-65" d="M 3078 2063 
Q 3088 2113 3092 2166 
Q 3097 2219 3097 2272 
Q 3097 2653 2873 2875 
Q 2650 3097 2266 3097 
Q 1838 3097 1509 2826 
Q 1181 2556 1013 2059 
L 3078 2063 
z
M 3578 1613 
L 903 1613 
Q 884 1494 878 1425 
Q 872 1356 872 1306 
Q 872 872 1139 634 
Q 1406 397 1894 397 
Q 2269 397 2603 481 
Q 2938 566 3225 728 
L 3116 159 
Q 2806 34 2476 -28 
Q 2147 -91 1806 -91 
Q 1078 -91 686 257 
Q 294 606 294 1247 
Q 294 1794 489 2264 
Q 684 2734 1063 3103 
Q 1306 3334 1642 3459 
Q 1978 3584 2356 3584 
Q 2950 3584 3301 3228 
Q 3653 2872 3653 2272 
Q 3653 2128 3634 1964 
Q 3616 1800 3578 1613 
z
" transform="scale(0.015625)"/>
      </defs>
      <use xlink:href="#DejaVuSans-Oblique-66" transform="translate(0 0.684375)"/>
      <use xlink:href="#DejaVuSans-28" transform="translate(35.205078 0.684375)"/>
      <use xlink:href="#DejaVuSans-Oblique-78" transform="translate(74.21875 0.684375)"/>
      <use xlink:href="#DejaVuSans-29" transform="translate(133.398438 0.684375)"/>
      <use xlink:href="#DejaVuSans-3d" transform="translate(191.894531 0.684375)"/>
      <use xlink:href="#DejaVuSans-Oblique-65" transform="translate(295.166016 0.684375)"/>
      <use xlink:href="#DejaVuSans-Oblique-78" transform="translate(361.339349 38.965625) scale(0.7)"/>
      <use xlink:href="#DejaVuSans-2212" transform="translate(416.402826 38.965625) scale(0.7)"/>
      <use xlink:href="#DejaVuSans-34" transform="translate(488.692865 38.965625) scale(0.7)"/>
      <use xlink:href="#DejaVuSans-2212" transform="translate(555.445794 0.684375)"/>
      <use xlink:href="#DejaVuSans-32" transform="translate(658.717279 0.684375)"/>
     </g>
    </g>
    <g id="line2d_21">
     <path d="M 305.42 69.972 
L 315.42 69.972 
L 325.42 69.972 
" style="fill: none; stroke: #dc143c; stroke-width: 1.5; stroke-linecap: square"/>
    </g>
    <g id="text_23">
     <!-- $g(x) = \ln \left(x \right)$ -->
     <g transform="translate(333.42 73.472) scale(0.1 -0.1)">
      <defs>
       <path id="DejaVuSans-Oblique-67" d="M 3816 3500 
L 3219 434 
Q 3047 -456 2561 -893 
Q 2075 -1331 1253 -1331 
Q 950 -1331 690 -1286 
Q 431 -1241 206 -1147 
L 313 -588 
Q 525 -725 762 -790 
Q 1000 -856 1269 -856 
Q 1816 -856 2167 -557 
Q 2519 -259 2631 300 
L 2681 563 
Q 2441 288 2122 144 
Q 1803 0 1434 0 
Q 903 0 598 351 
Q 294 703 294 1319 
Q 294 1803 478 2267 
Q 663 2731 997 3091 
Q 1219 3328 1514 3456 
Q 1809 3584 2131 3584 
Q 2484 3584 2746 3420 
Q 3009 3256 3138 2956 
L 3238 3500 
L 3816 3500 
z
M 2950 2216 
Q 2950 2641 2750 2872 
Q 2550 3103 2181 3103 
Q 1953 3103 1747 3012 
Q 1541 2922 1394 2759 
Q 1156 2491 1023 2127 
Q 891 1763 891 1375 
Q 891 944 1092 712 
Q 1294 481 1672 481 
Q 2219 481 2584 976 
Q 2950 1472 2950 2216 
z
" transform="scale(0.015625)"/>
      </defs>
      <use xlink:href="#DejaVuSans-Oblique-67" transform="translate(0 0.015625)"/>
      <use xlink:href="#DejaVuSans-28" transform="translate(63.476562 0.015625)"/>
      <use xlink:href="#DejaVuSans-Oblique-78" transform="translate(102.490234 0.015625)"/>
      <use xlink:href="#DejaVuSans-29" transform="translate(161.669922 0.015625)"/>
      <use xlink:href="#DejaVuSans-3d" transform="translate(220.166016 0.015625)"/>
      <use xlink:href="#DejaVuSans-6c" transform="translate(323.4375 0.015625)"/>
      <use xlink:href="#DejaVuSans-6e" transform="translate(351.220703 0.015625)"/>
      <use xlink:href="#DejaVuSans-28" transform="translate(430.835286 0.015625)"/>
      <use xlink:href="#DejaVuSans-Oblique-78" transform="translate(469.848958 0.015625)"/>
      <use xlink:href="#DejaVuSans-29" transform="translate(529.028645 0.015625)"/>
     </g>
    </g>
   </g>
  </g>
 </g>
 <defs>
  <clipPath id="pc88e9be88b">
   <rect x="57.6" y="41.472" width="357.12" height="266.112"/>
  </clipPath>
 </defs>
</svg>
