<?xml version="1.0" encoding="utf-8" standalone="no"?>
<!DOCTYPE svg PUBLIC "-//W3C//DTD SVG 1.1//EN"
  "http://www.w3.org/Graphics/SVG/1.1/DTD/svg11.dtd">
<svg xmlns:xlink="http://www.w3.org/1999/xlink" width="460.8pt" height="345.6pt" viewBox="0 0 460.8 345.6" xmlns="http://www.w3.org/2000/svg" version="1.1">
 <metadata>
  <rdf:RDF xmlns:dc="http://purl.org/dc/elements/1.1/" xmlns:cc="http://creativecommons.org/ns#" xmlns:rdf="http://www.w3.org/1999/02/22-rdf-syntax-ns#">
   <cc:Work>
    <dc:type rdf:resource="http://purl.org/dc/dcmitype/StillImage"/>
    <dc:date>2024-08-09T20:08:15.962819</dc:date>
    <dc:format>image/svg+xml</dc:format>
    <dc:creator>
     <cc:Agent>
      <dc:title>Matplotlib v3.8.3, https://matplotlib.org/</dc:title>
     </cc:Agent>
    </dc:creator>
   </cc:Work>
  </rdf:RDF>
 </metadata>
 <defs>
  <style type="text/css">*{stroke-linejoin: round; stroke-linecap: butt}</style>
 </defs>
 <g id="figure_1">
  <g id="patch_1">
   <path d="M 0 345.6 
L 460.8 345.6 
L 460.8 0 
L 0 0 
L 0 345.6 
z
" style="fill: none"/>
  </g>
  <g id="axes_1">
   <g id="patch_2">
    <path d="M 57.6 307.584 
L 414.72 307.584 
L 414.72 41.472 
L 57.6 41.472 
z
" style="fill: none"/>
   </g>
   <g id="LineCollection_1">
    <path d="M 57.6 269.568 
L 414.72 269.568 
" clip-path="url(#p5f28392834)" style="fill: none; stroke: #d3d3d3; stroke-width: 1.5"/>
   </g>
   <g id="LineCollection_2">
    <path d="M 117.12 307.584 
L 117.12 41.472 
" clip-path="url(#p5f28392834)" style="fill: none; stroke: #d3d3d3; stroke-width: 1.5"/>
   </g>
   <g id="matplotlib.axis_1">
    <g id="text_1">
     <!-- X-as -->
     <g style="fill: #d3d3d3" transform="translate(225.512344 319.182437) scale(0.1 -0.1)">
      <defs>
       <path id="DejaVuSans-58" d="M 403 4666 
L 1081 4666 
L 2241 2931 
L 3406 4666 
L 4084 4666 
L 2584 2425 
L 4184 0 
L 3506 0 
L 2194 1984 
L 872 0 
L 191 0 
L 1856 2491 
L 403 4666 
z
" transform="scale(0.015625)"/>
       <path id="DejaVuSans-2d" d="M 313 2009 
L 1997 2009 
L 1997 1497 
L 313 1497 
L 313 2009 
z
" transform="scale(0.015625)"/>
       <path id="DejaVuSans-61" d="M 2194 1759 
Q 1497 1759 1228 1600 
Q 959 1441 959 1056 
Q 959 750 1161 570 
Q 1363 391 1709 391 
Q 2188 391 2477 730 
Q 2766 1069 2766 1631 
L 2766 1759 
L 2194 1759 
z
M 3341 1997 
L 3341 0 
L 2766 0 
L 2766 531 
Q 2569 213 2275 61 
Q 1981 -91 1556 -91 
Q 1019 -91 701 211 
Q 384 513 384 1019 
Q 384 1609 779 1909 
Q 1175 2209 1959 2209 
L 2766 2209 
L 2766 2266 
Q 2766 2663 2505 2880 
Q 2244 3097 1772 3097 
Q 1472 3097 1187 3025 
Q 903 2953 641 2809 
L 641 3341 
Q 956 3463 1253 3523 
Q 1550 3584 1831 3584 
Q 2591 3584 2966 3190 
Q 3341 2797 3341 1997 
z
" transform="scale(0.015625)"/>
       <path id="DejaVuSans-73" d="M 2834 3397 
L 2834 2853 
Q 2591 2978 2328 3040 
Q 2066 3103 1784 3103 
Q 1356 3103 1142 2972 
Q 928 2841 928 2578 
Q 928 2378 1081 2264 
Q 1234 2150 1697 2047 
L 1894 2003 
Q 2506 1872 2764 1633 
Q 3022 1394 3022 966 
Q 3022 478 2636 193 
Q 2250 -91 1575 -91 
Q 1294 -91 989 -36 
Q 684 19 347 128 
L 347 722 
Q 666 556 975 473 
Q 1284 391 1588 391 
Q 1994 391 2212 530 
Q 2431 669 2431 922 
Q 2431 1156 2273 1281 
Q 2116 1406 1581 1522 
L 1381 1569 
Q 847 1681 609 1914 
Q 372 2147 372 2553 
Q 372 3047 722 3315 
Q 1072 3584 1716 3584 
Q 2034 3584 2315 3537 
Q 2597 3491 2834 3397 
z
" transform="scale(0.015625)"/>
      </defs>
      <use xlink:href="#DejaVuSans-58"/>
      <use xlink:href="#DejaVuSans-2d" x="63.505859"/>
      <use xlink:href="#DejaVuSans-61" x="99.589844"/>
      <use xlink:href="#DejaVuSans-73" x="160.869141"/>
     </g>
    </g>
   </g>
   <g id="matplotlib.axis_2">
    <g id="text_2">
     <!-- Y-as -->
     <g style="fill: #d3d3d3" transform="translate(51.520313 184.460813) rotate(-90) scale(0.1 -0.1)">
      <defs>
       <path id="DejaVuSans-59" d="M -13 4666 
L 666 4666 
L 1959 2747 
L 3244 4666 
L 3922 4666 
L 2272 2222 
L 2272 0 
L 1638 0 
L 1638 2222 
L -13 4666 
z
" transform="scale(0.015625)"/>
      </defs>
      <use xlink:href="#DejaVuSans-59"/>
      <use xlink:href="#DejaVuSans-2d" x="49.208984"/>
      <use xlink:href="#DejaVuSans-61" x="85.292969"/>
      <use xlink:href="#DejaVuSans-73" x="146.572266"/>
     </g>
    </g>
   </g>
   <g id="line2d_1">
    <path d="M 101.518484 -1 
L 106.4064 12.868762 
L 111.7632 27.47831 
L 117.12 41.472 
L 122.4768 54.84983 
L 127.8336 67.611802 
L 133.1904 79.757914 
L 137.952 90.03744 
L 142.7136 99.830362 
L 147.4752 109.136678 
L 152.2368 117.95639 
L 156.9984 126.289498 
L 161.76 134.136 
L 165.9264 140.602522 
L 170.0928 146.696486 
L 174.2592 152.417894 
L 178.4256 157.766746 
L 182.592 162.74304 
L 186.7584 167.346778 
L 190.9248 171.577958 
L 194.496 174.90816 
L 198.0672 177.964646 
L 201.6384 180.747418 
L 205.2096 183.256474 
L 208.7808 185.491814 
L 212.352 187.45344 
L 215.9232 189.14135 
L 219.4944 190.555546 
L 223.0656 191.696026 
L 226.6368 192.56279 
L 229.6128 193.076006 
L 232.5888 193.399142 
L 235.5648 193.532198 
L 238.5408 193.475174 
L 241.5168 193.22807 
L 244.4928 192.790886 
L 247.4688 192.163622 
L 251.04 191.16 
L 254.6112 189.882662 
L 258.1824 188.33161 
L 261.7536 186.506842 
L 265.3248 184.408358 
L 268.896 182.03616 
L 272.4672 179.390246 
L 276.0384 176.470618 
L 279.6096 173.277274 
L 283.1808 169.810214 
L 286.752 166.06944 
L 290.9184 161.359258 
L 295.0848 156.276518 
L 299.2512 150.821222 
L 303.4176 144.99337 
L 307.584 138.79296 
L 311.7504 132.219994 
L 315.9168 125.27447 
L 320.6784 116.880538 
L 325.44 108 
L 330.2016 98.632858 
L 334.9632 88.77911 
L 339.7248 78.438758 
L 344.4864 67.611802 
L 349.8432 54.84983 
L 355.2 41.472 
L 360.5568 27.47831 
L 365.9136 12.868762 
L 370.801516 -1 
L 370.801516 -1 
" clip-path="url(#p5f28392834)" style="fill: none; stroke: #00ced1; stroke-width: 1.5; stroke-linecap: square"/>
   </g>
   <g id="line2d_2">
    <path d="M 90.047435 346.6 
L 95.6928 329.237914 
L 101.6448 311.674522 
L 107.0016 296.517542 
L 112.3584 281.976422 
L 117.7152 268.051162 
L 123.072 254.74176 
L 128.4288 242.048218 
L 133.7856 229.970534 
L 138.5472 219.751834 
L 143.3088 210.019738 
L 148.0704 200.774246 
L 152.832 192.01536 
L 157.5936 183.743078 
L 162.3552 175.957402 
L 166.5216 169.544102 
L 170.688 163.50336 
L 174.8544 157.835174 
L 179.0208 152.539546 
L 183.1872 147.616474 
L 187.3536 143.065958 
L 191.52 138.888 
L 195.0912 135.603418 
L 198.6624 132.59255 
L 202.2336 129.855398 
L 205.8048 127.391962 
L 209.376 125.20224 
L 212.9472 123.286234 
L 216.5184 121.643942 
L 220.0896 120.275366 
L 223.6608 119.180506 
L 227.232 118.35936 
L 230.208 117.88416 
L 233.184 117.59904 
L 236.16 117.504 
L 239.136 117.59904 
L 242.112 117.88416 
L 245.088 118.35936 
L 248.064 119.02464 
L 251.6352 120.073882 
L 255.2064 121.396838 
L 258.7776 122.99351 
L 262.3488 124.863898 
L 265.92 127.008 
L 269.4912 129.425818 
L 273.0624 132.11735 
L 276.6336 135.082598 
L 280.2048 138.321562 
L 283.776 141.83424 
L 287.3472 145.620634 
L 291.5136 150.384038 
L 295.68 155.52 
L 299.8464 161.028518 
L 304.0128 166.909594 
L 308.1792 173.163226 
L 312.3456 179.789414 
L 317.1072 187.818394 
L 321.8688 196.333978 
L 326.6304 205.336166 
L 331.392 214.82496 
L 336.1536 224.800358 
L 340.9152 235.262362 
L 346.272 247.61376 
L 351.6288 260.581018 
L 356.9856 274.164134 
L 362.3424 288.36311 
L 367.6992 303.177946 
L 373.056 318.60864 
L 379.008 336.47616 
L 382.272565 346.6 
L 382.272565 346.6 
" clip-path="url(#p5f28392834)" style="fill: none; stroke: #dc143c; stroke-width: 1.5; stroke-linecap: square"/>
   </g>
   <g id="patch_3">
    <path d="M 57.6 307.584 
L 57.6 41.472 
" style="fill: none; stroke: #d3d3d3; stroke-width: 0.8; stroke-linejoin: miter; stroke-linecap: square"/>
   </g>
   <g id="patch_4">
    <path d="M 414.72 307.584 
L 414.72 41.472 
" style="fill: none; stroke: #d3d3d3; stroke-width: 0.8; stroke-linejoin: miter; stroke-linecap: square"/>
   </g>
   <g id="patch_5">
    <path d="M 57.6 307.584 
L 414.72 307.584 
" style="fill: none; stroke: #d3d3d3; stroke-width: 0.8; stroke-linejoin: miter; stroke-linecap: square"/>
   </g>
   <g id="patch_6">
    <path d="M 57.6 41.472 
L 414.72 41.472 
" style="fill: none; stroke: #d3d3d3; stroke-width: 0.8; stroke-linejoin: miter; stroke-linecap: square"/>
   </g>
   <g id="PolyCollection_1">
    <defs>
     <path id="m3ee7ec9e3a" d="M 176.64 -190.08 
L 176.64 -190.08 
L 177.2352 -189.323482 
L 177.8304 -188.574566 
L 178.4256 -187.833254 
L 179.0208 -187.099546 
L 179.616 -186.37344 
L 180.2112 -185.654938 
L 180.8064 -184.944038 
L 181.4016 -184.240742 
L 181.9968 -183.54505 
L 182.592 -182.85696 
L 183.1872 -182.176474 
L 183.7824 -181.50359 
L 184.3776 -180.83831 
L 184.9728 -180.180634 
L 185.568 -179.53056 
L 186.1632 -178.88809 
L 186.7584 -178.253222 
L 187.3536 -177.625958 
L 187.9488 -177.006298 
L 188.544 -176.39424 
L 189.1392 -175.789786 
L 189.7344 -175.192934 
L 190.3296 -174.603686 
L 190.9248 -174.022042 
L 191.52 -173.448 
L 192.1152 -172.881562 
L 192.7104 -172.322726 
L 193.3056 -171.771494 
L 193.9008 -171.227866 
L 194.496 -170.69184 
L 195.0912 -170.163418 
L 195.6864 -169.642598 
L 196.2816 -169.129382 
L 196.8768 -168.62377 
L 197.472 -168.12576 
L 198.0672 -167.635354 
L 198.6624 -167.15255 
L 199.2576 -166.67735 
L 199.8528 -166.209754 
L 200.448 -165.74976 
L 201.0432 -165.29737 
L 201.6384 -164.852582 
L 202.2336 -164.415398 
L 202.8288 -163.985818 
L 203.424 -163.56384 
L 204.0192 -163.149466 
L 204.6144 -162.742694 
L 205.2096 -162.343526 
L 205.8048 -161.951962 
L 206.4 -161.568 
L 206.9952 -161.191642 
L 207.5904 -160.822886 
L 208.1856 -160.461734 
L 208.7808 -160.108186 
L 209.376 -159.76224 
L 209.9712 -159.423898 
L 210.5664 -159.093158 
L 211.1616 -158.770022 
L 211.7568 -158.45449 
L 212.352 -158.14656 
L 212.9472 -157.846234 
L 213.5424 -157.55351 
L 214.1376 -157.26839 
L 214.7328 -156.990874 
L 215.328 -156.72096 
L 215.9232 -156.45865 
L 216.5184 -156.203942 
L 217.1136 -155.956838 
L 217.7088 -155.717338 
L 218.304 -155.48544 
L 218.8992 -155.261146 
L 219.4944 -155.044454 
L 220.0896 -154.835366 
L 220.6848 -154.633882 
L 221.28 -154.44 
L 221.8752 -154.253722 
L 222.4704 -154.075046 
L 223.0656 -153.903974 
L 223.6608 -153.740506 
L 224.256 -153.58464 
L 224.8512 -153.436378 
L 225.4464 -153.295718 
L 226.0416 -153.162662 
L 226.6368 -153.03721 
L 227.232 -152.91936 
L 227.8272 -152.809114 
L 228.4224 -152.70647 
L 229.0176 -152.61143 
L 229.6128 -152.523994 
L 230.208 -152.44416 
L 230.8032 -152.37193 
L 231.3984 -152.307302 
L 231.9936 -152.250278 
L 232.5888 -152.200858 
L 233.184 -152.15904 
L 233.7792 -152.124826 
L 234.3744 -152.098214 
L 234.9696 -152.079206 
L 235.5648 -152.067802 
L 236.16 -152.064 
L 236.7552 -152.067802 
L 237.3504 -152.079206 
L 237.9456 -152.098214 
L 238.5408 -152.124826 
L 239.136 -152.15904 
L 239.7312 -152.200858 
L 240.3264 -152.250278 
L 240.9216 -152.307302 
L 241.5168 -152.37193 
L 242.112 -152.44416 
L 242.7072 -152.523994 
L 243.3024 -152.61143 
L 243.8976 -152.70647 
L 244.4928 -152.809114 
L 245.088 -152.91936 
L 245.6832 -153.03721 
L 246.2784 -153.162662 
L 246.8736 -153.295718 
L 247.4688 -153.436378 
L 248.064 -153.58464 
L 248.6592 -153.740506 
L 249.2544 -153.903974 
L 249.2544 -226.256026 
L 249.2544 -226.256026 
L 248.6592 -226.419494 
L 248.064 -226.57536 
L 247.4688 -226.723622 
L 246.8736 -226.864282 
L 246.2784 -226.997338 
L 245.6832 -227.12279 
L 245.088 -227.24064 
L 244.4928 -227.350886 
L 243.8976 -227.45353 
L 243.3024 -227.54857 
L 242.7072 -227.636006 
L 242.112 -227.71584 
L 241.5168 -227.78807 
L 240.9216 -227.852698 
L 240.3264 -227.909722 
L 239.7312 -227.959142 
L 239.136 -228.00096 
L 238.5408 -228.035174 
L 237.9456 -228.061786 
L 237.3504 -228.080794 
L 236.7552 -228.092198 
L 236.16 -228.096 
L 235.5648 -228.092198 
L 234.9696 -228.080794 
L 234.3744 -228.061786 
L 233.7792 -228.035174 
L 233.184 -228.00096 
L 232.5888 -227.959142 
L 231.9936 -227.909722 
L 231.3984 -227.852698 
L 230.8032 -227.78807 
L 230.208 -227.71584 
L 229.6128 -227.636006 
L 229.0176 -227.54857 
L 228.4224 -227.45353 
L 227.8272 -227.350886 
L 227.232 -227.24064 
L 226.6368 -227.12279 
L 226.0416 -226.997338 
L 225.4464 -226.864282 
L 224.8512 -226.723622 
L 224.256 -226.57536 
L 223.6608 -226.419494 
L 223.0656 -226.256026 
L 222.4704 -226.084954 
L 221.8752 -225.906278 
L 221.28 -225.72 
L 220.6848 -225.526118 
L 220.0896 -225.324634 
L 219.4944 -225.115546 
L 218.8992 -224.898854 
L 218.304 -224.67456 
L 217.7088 -224.442662 
L 217.1136 -224.203162 
L 216.5184 -223.956058 
L 215.9232 -223.70135 
L 215.328 -223.43904 
L 214.7328 -223.169126 
L 214.1376 -222.89161 
L 213.5424 -222.60649 
L 212.9472 -222.313766 
L 212.352 -222.01344 
L 211.7568 -221.70551 
L 211.1616 -221.389978 
L 210.5664 -221.066842 
L 209.9712 -220.736102 
L 209.376 -220.39776 
L 208.7808 -220.051814 
L 208.1856 -219.698266 
L 207.5904 -219.337114 
L 206.9952 -218.968358 
L 206.4 -218.592 
L 205.8048 -218.208038 
L 205.2096 -217.816474 
L 204.6144 -217.417306 
L 204.0192 -217.010534 
L 203.424 -216.59616 
L 202.8288 -216.174182 
L 202.2336 -215.744602 
L 201.6384 -215.307418 
L 201.0432 -214.86263 
L 200.448 -214.41024 
L 199.8528 -213.950246 
L 199.2576 -213.48265 
L 198.6624 -213.00745 
L 198.0672 -212.524646 
L 197.472 -212.03424 
L 196.8768 -211.53623 
L 196.2816 -211.030618 
L 195.6864 -210.517402 
L 195.0912 -209.996582 
L 194.496 -209.46816 
L 193.9008 -208.932134 
L 193.3056 -208.388506 
L 192.7104 -207.837274 
L 192.1152 -207.278438 
L 191.52 -206.712 
L 190.9248 -206.137958 
L 190.3296 -205.556314 
L 189.7344 -204.967066 
L 189.1392 -204.370214 
L 188.544 -203.76576 
L 187.9488 -203.153702 
L 187.3536 -202.534042 
L 186.7584 -201.906778 
L 186.1632 -201.27191 
L 185.568 -200.62944 
L 184.9728 -199.979366 
L 184.3776 -199.32169 
L 183.7824 -198.65641 
L 183.1872 -197.983526 
L 182.592 -197.30304 
L 181.9968 -196.61495 
L 181.4016 -195.919258 
L 180.8064 -195.215962 
L 180.2112 -194.505062 
L 179.616 -193.78656 
L 179.0208 -193.060454 
L 178.4256 -192.326746 
L 177.8304 -191.585434 
L 177.2352 -190.836518 
L 176.64 -190.08 
z
" style="stroke: #9400d3; stroke-opacity: 0.7"/>
    </defs>
    <g clip-path="url(#p5f28392834)">
     <use xlink:href="#m3ee7ec9e3a" x="0" y="345.6" style="fill: #9400d3; fill-opacity: 0.7; stroke: #9400d3; stroke-opacity: 0.7"/>
    </g>
   </g>
   <g id="PolyCollection_2">
    <defs>
     <path id="m20a56b4701" d="M 249.8496 -226.084954 
L 249.8496 -154.075046 
L 250.4448 -154.253722 
L 251.04 -154.44 
L 251.6352 -154.633882 
L 252.2304 -154.835366 
L 252.8256 -155.044454 
L 253.4208 -155.261146 
L 254.016 -155.48544 
L 254.6112 -155.717338 
L 255.2064 -155.956838 
L 255.8016 -156.203942 
L 256.3968 -156.45865 
L 256.992 -156.72096 
L 257.5872 -156.990874 
L 258.1824 -157.26839 
L 258.7776 -157.55351 
L 259.3728 -157.846234 
L 259.968 -158.14656 
L 260.5632 -158.45449 
L 261.1584 -158.770022 
L 261.7536 -159.093158 
L 262.3488 -159.423898 
L 262.944 -159.76224 
L 263.5392 -160.108186 
L 264.1344 -160.461734 
L 264.7296 -160.822886 
L 265.3248 -161.191642 
L 265.92 -161.568 
L 266.5152 -161.951962 
L 267.1104 -162.343526 
L 267.7056 -162.742694 
L 268.3008 -163.149466 
L 268.896 -163.56384 
L 269.4912 -163.985818 
L 270.0864 -164.415398 
L 270.6816 -164.852582 
L 271.2768 -165.29737 
L 271.872 -165.74976 
L 272.4672 -166.209754 
L 273.0624 -166.67735 
L 273.6576 -167.15255 
L 274.2528 -167.635354 
L 274.848 -168.12576 
L 275.4432 -168.62377 
L 276.0384 -169.129382 
L 276.6336 -169.642598 
L 277.2288 -170.163418 
L 277.824 -170.69184 
L 278.4192 -171.227866 
L 279.0144 -171.771494 
L 279.6096 -172.322726 
L 280.2048 -172.881562 
L 280.8 -173.448 
L 281.3952 -174.022042 
L 281.9904 -174.603686 
L 282.5856 -175.192934 
L 283.1808 -175.789786 
L 283.776 -176.39424 
L 284.3712 -177.006298 
L 284.9664 -177.625958 
L 285.5616 -178.253222 
L 286.1568 -178.88809 
L 286.752 -179.53056 
L 287.3472 -180.180634 
L 287.9424 -180.83831 
L 288.5376 -181.50359 
L 289.1328 -182.176474 
L 289.728 -182.85696 
L 290.3232 -183.54505 
L 290.9184 -184.240742 
L 291.5136 -184.944038 
L 292.1088 -185.654938 
L 292.704 -186.37344 
L 293.2992 -187.099546 
L 293.8944 -187.833254 
L 294.4896 -188.574566 
L 295.0848 -189.323482 
L 295.0848 -190.836518 
L 295.0848 -190.836518 
L 294.4896 -191.585434 
L 293.8944 -192.326746 
L 293.2992 -193.060454 
L 292.704 -193.78656 
L 292.1088 -194.505062 
L 291.5136 -195.215962 
L 290.9184 -195.919258 
L 290.3232 -196.61495 
L 289.728 -197.30304 
L 289.1328 -197.983526 
L 288.5376 -198.65641 
L 287.9424 -199.32169 
L 287.3472 -199.979366 
L 286.752 -200.62944 
L 286.1568 -201.27191 
L 285.5616 -201.906778 
L 284.9664 -202.534042 
L 284.3712 -203.153702 
L 283.776 -203.76576 
L 283.1808 -204.370214 
L 282.5856 -204.967066 
L 281.9904 -205.556314 
L 281.3952 -206.137958 
L 280.8 -206.712 
L 280.2048 -207.278438 
L 279.6096 -207.837274 
L 279.0144 -208.388506 
L 278.4192 -208.932134 
L 277.824 -209.46816 
L 277.2288 -209.996582 
L 276.6336 -210.517402 
L 276.0384 -211.030618 
L 275.4432 -211.53623 
L 274.848 -212.03424 
L 274.2528 -212.524646 
L 273.6576 -213.00745 
L 273.0624 -213.48265 
L 272.4672 -213.950246 
L 271.872 -214.41024 
L 271.2768 -214.86263 
L 270.6816 -215.307418 
L 270.0864 -215.744602 
L 269.4912 -216.174182 
L 268.896 -216.59616 
L 268.3008 -217.010534 
L 267.7056 -217.417306 
L 267.1104 -217.816474 
L 266.5152 -218.208038 
L 265.92 -218.592 
L 265.3248 -218.968358 
L 264.7296 -219.337114 
L 264.1344 -219.698266 
L 263.5392 -220.051814 
L 262.944 -220.39776 
L 262.3488 -220.736102 
L 261.7536 -221.066842 
L 261.1584 -221.389978 
L 260.5632 -221.70551 
L 259.968 -222.01344 
L 259.3728 -222.313766 
L 258.7776 -222.60649 
L 258.1824 -222.89161 
L 257.5872 -223.169126 
L 256.992 -223.43904 
L 256.3968 -223.70135 
L 255.8016 -223.956058 
L 255.2064 -224.203162 
L 254.6112 -224.442662 
L 254.016 -224.67456 
L 253.4208 -224.898854 
L 252.8256 -225.115546 
L 252.2304 -225.324634 
L 251.6352 -225.526118 
L 251.04 -225.72 
L 250.4448 -225.906278 
L 249.8496 -226.084954 
z
" style="stroke: #9932cc; stroke-opacity: 0.7"/>
    </defs>
    <g clip-path="url(#p5f28392834)">
     <use xlink:href="#m20a56b4701" x="0" y="345.6" style="fill: #9932cc; fill-opacity: 0.7; stroke: #9932cc; stroke-opacity: 0.7"/>
    </g>
   </g>
   <g id="text_3">
    <!-- f(x) = x² - 4x + 6; g(x) = 4x - x² (gesplitst) -->
    <g style="fill: #d3d3d3" transform="translate(108.705938 35.472) scale(0.12 -0.12)">
     <defs>
      <path id="DejaVuSans-66" d="M 2375 4863 
L 2375 4384 
L 1825 4384 
Q 1516 4384 1395 4259 
Q 1275 4134 1275 3809 
L 1275 3500 
L 2222 3500 
L 2222 3053 
L 1275 3053 
L 1275 0 
L 697 0 
L 697 3053 
L 147 3053 
L 147 3500 
L 697 3500 
L 697 3744 
Q 697 4328 969 4595 
Q 1241 4863 1831 4863 
L 2375 4863 
z
" transform="scale(0.015625)"/>
      <path id="DejaVuSans-28" d="M 1984 4856 
Q 1566 4138 1362 3434 
Q 1159 2731 1159 2009 
Q 1159 1288 1364 580 
Q 1569 -128 1984 -844 
L 1484 -844 
Q 1016 -109 783 600 
Q 550 1309 550 2009 
Q 550 2706 781 3412 
Q 1013 4119 1484 4856 
L 1984 4856 
z
" transform="scale(0.015625)"/>
      <path id="DejaVuSans-78" d="M 3513 3500 
L 2247 1797 
L 3578 0 
L 2900 0 
L 1881 1375 
L 863 0 
L 184 0 
L 1544 1831 
L 300 3500 
L 978 3500 
L 1906 2253 
L 2834 3500 
L 3513 3500 
z
" transform="scale(0.015625)"/>
      <path id="DejaVuSans-29" d="M 513 4856 
L 1013 4856 
Q 1481 4119 1714 3412 
Q 1947 2706 1947 2009 
Q 1947 1309 1714 600 
Q 1481 -109 1013 -844 
L 513 -844 
Q 928 -128 1133 580 
Q 1338 1288 1338 2009 
Q 1338 2731 1133 3434 
Q 928 4138 513 4856 
z
" transform="scale(0.015625)"/>
      <path id="DejaVuSans-20" transform="scale(0.015625)"/>
      <path id="DejaVuSans-3d" d="M 678 2906 
L 4684 2906 
L 4684 2381 
L 678 2381 
L 678 2906 
z
M 678 1631 
L 4684 1631 
L 4684 1100 
L 678 1100 
L 678 1631 
z
" transform="scale(0.015625)"/>
      <path id="DejaVuSans-b2" d="M 838 2444 
L 2163 2444 
L 2163 2088 
L 294 2088 
L 294 2431 
Q 400 2528 597 2703 
Q 1672 3656 1672 3950 
Q 1672 4156 1509 4282 
Q 1347 4409 1081 4409 
Q 919 4409 728 4354 
Q 538 4300 313 4191 
L 313 4575 
Q 553 4663 761 4706 
Q 969 4750 1147 4750 
Q 1600 4750 1872 4544 
Q 2144 4338 2144 4000 
Q 2144 3566 1109 2678 
Q 934 2528 838 2444 
z
" transform="scale(0.015625)"/>
      <path id="DejaVuSans-34" d="M 2419 4116 
L 825 1625 
L 2419 1625 
L 2419 4116 
z
M 2253 4666 
L 3047 4666 
L 3047 1625 
L 3713 1625 
L 3713 1100 
L 3047 1100 
L 3047 0 
L 2419 0 
L 2419 1100 
L 313 1100 
L 313 1709 
L 2253 4666 
z
" transform="scale(0.015625)"/>
      <path id="DejaVuSans-2b" d="M 2944 4013 
L 2944 2272 
L 4684 2272 
L 4684 1741 
L 2944 1741 
L 2944 0 
L 2419 0 
L 2419 1741 
L 678 1741 
L 678 2272 
L 2419 2272 
L 2419 4013 
L 2944 4013 
z
" transform="scale(0.015625)"/>
      <path id="DejaVuSans-36" d="M 2113 2584 
Q 1688 2584 1439 2293 
Q 1191 2003 1191 1497 
Q 1191 994 1439 701 
Q 1688 409 2113 409 
Q 2538 409 2786 701 
Q 3034 994 3034 1497 
Q 3034 2003 2786 2293 
Q 2538 2584 2113 2584 
z
M 3366 4563 
L 3366 3988 
Q 3128 4100 2886 4159 
Q 2644 4219 2406 4219 
Q 1781 4219 1451 3797 
Q 1122 3375 1075 2522 
Q 1259 2794 1537 2939 
Q 1816 3084 2150 3084 
Q 2853 3084 3261 2657 
Q 3669 2231 3669 1497 
Q 3669 778 3244 343 
Q 2819 -91 2113 -91 
Q 1303 -91 875 529 
Q 447 1150 447 2328 
Q 447 3434 972 4092 
Q 1497 4750 2381 4750 
Q 2619 4750 2861 4703 
Q 3103 4656 3366 4563 
z
" transform="scale(0.015625)"/>
      <path id="DejaVuSans-3b" d="M 750 3309 
L 1409 3309 
L 1409 2516 
L 750 2516 
L 750 3309 
z
M 750 794 
L 1409 794 
L 1409 256 
L 897 -744 
L 494 -744 
L 750 256 
L 750 794 
z
" transform="scale(0.015625)"/>
      <path id="DejaVuSans-67" d="M 2906 1791 
Q 2906 2416 2648 2759 
Q 2391 3103 1925 3103 
Q 1463 3103 1205 2759 
Q 947 2416 947 1791 
Q 947 1169 1205 825 
Q 1463 481 1925 481 
Q 2391 481 2648 825 
Q 2906 1169 2906 1791 
z
M 3481 434 
Q 3481 -459 3084 -895 
Q 2688 -1331 1869 -1331 
Q 1566 -1331 1297 -1286 
Q 1028 -1241 775 -1147 
L 775 -588 
Q 1028 -725 1275 -790 
Q 1522 -856 1778 -856 
Q 2344 -856 2625 -561 
Q 2906 -266 2906 331 
L 2906 616 
Q 2728 306 2450 153 
Q 2172 0 1784 0 
Q 1141 0 747 490 
Q 353 981 353 1791 
Q 353 2603 747 3093 
Q 1141 3584 1784 3584 
Q 2172 3584 2450 3431 
Q 2728 3278 2906 2969 
L 2906 3500 
L 3481 3500 
L 3481 434 
z
" transform="scale(0.015625)"/>
      <path id="DejaVuSans-65" d="M 3597 1894 
L 3597 1613 
L 953 1613 
Q 991 1019 1311 708 
Q 1631 397 2203 397 
Q 2534 397 2845 478 
Q 3156 559 3463 722 
L 3463 178 
Q 3153 47 2828 -22 
Q 2503 -91 2169 -91 
Q 1331 -91 842 396 
Q 353 884 353 1716 
Q 353 2575 817 3079 
Q 1281 3584 2069 3584 
Q 2775 3584 3186 3129 
Q 3597 2675 3597 1894 
z
M 3022 2063 
Q 3016 2534 2758 2815 
Q 2500 3097 2075 3097 
Q 1594 3097 1305 2825 
Q 1016 2553 972 2059 
L 3022 2063 
z
" transform="scale(0.015625)"/>
      <path id="DejaVuSans-70" d="M 1159 525 
L 1159 -1331 
L 581 -1331 
L 581 3500 
L 1159 3500 
L 1159 2969 
Q 1341 3281 1617 3432 
Q 1894 3584 2278 3584 
Q 2916 3584 3314 3078 
Q 3713 2572 3713 1747 
Q 3713 922 3314 415 
Q 2916 -91 2278 -91 
Q 1894 -91 1617 61 
Q 1341 213 1159 525 
z
M 3116 1747 
Q 3116 2381 2855 2742 
Q 2594 3103 2138 3103 
Q 1681 3103 1420 2742 
Q 1159 2381 1159 1747 
Q 1159 1113 1420 752 
Q 1681 391 2138 391 
Q 2594 391 2855 752 
Q 3116 1113 3116 1747 
z
" transform="scale(0.015625)"/>
      <path id="DejaVuSans-6c" d="M 603 4863 
L 1178 4863 
L 1178 0 
L 603 0 
L 603 4863 
z
" transform="scale(0.015625)"/>
      <path id="DejaVuSans-69" d="M 603 3500 
L 1178 3500 
L 1178 0 
L 603 0 
L 603 3500 
z
M 603 4863 
L 1178 4863 
L 1178 4134 
L 603 4134 
L 603 4863 
z
" transform="scale(0.015625)"/>
      <path id="DejaVuSans-74" d="M 1172 4494 
L 1172 3500 
L 2356 3500 
L 2356 3053 
L 1172 3053 
L 1172 1153 
Q 1172 725 1289 603 
Q 1406 481 1766 481 
L 2356 481 
L 2356 0 
L 1766 0 
Q 1100 0 847 248 
Q 594 497 594 1153 
L 594 3053 
L 172 3053 
L 172 3500 
L 594 3500 
L 594 4494 
L 1172 4494 
z
" transform="scale(0.015625)"/>
     </defs>
     <use xlink:href="#DejaVuSans-66"/>
     <use xlink:href="#DejaVuSans-28" x="35.205078"/>
     <use xlink:href="#DejaVuSans-78" x="74.21875"/>
     <use xlink:href="#DejaVuSans-29" x="133.398438"/>
     <use xlink:href="#DejaVuSans-20" x="172.412109"/>
     <use xlink:href="#DejaVuSans-3d" x="204.199219"/>
     <use xlink:href="#DejaVuSans-20" x="287.988281"/>
     <use xlink:href="#DejaVuSans-78" x="319.775391"/>
     <use xlink:href="#DejaVuSans-b2" x="378.955078"/>
     <use xlink:href="#DejaVuSans-20" x="419.042969"/>
     <use xlink:href="#DejaVuSans-2d" x="450.830078"/>
     <use xlink:href="#DejaVuSans-20" x="486.914062"/>
     <use xlink:href="#DejaVuSans-34" x="518.701172"/>
     <use xlink:href="#DejaVuSans-78" x="582.324219"/>
     <use xlink:href="#DejaVuSans-20" x="641.503906"/>
     <use xlink:href="#DejaVuSans-2b" x="673.291016"/>
     <use xlink:href="#DejaVuSans-20" x="757.080078"/>
     <use xlink:href="#DejaVuSans-36" x="788.867188"/>
     <use xlink:href="#DejaVuSans-3b" x="852.490234"/>
     <use xlink:href="#DejaVuSans-20" x="886.181641"/>
     <use xlink:href="#DejaVuSans-67" x="917.96875"/>
     <use xlink:href="#DejaVuSans-28" x="981.445312"/>
     <use xlink:href="#DejaVuSans-78" x="1020.458984"/>
     <use xlink:href="#DejaVuSans-29" x="1079.638672"/>
     <use xlink:href="#DejaVuSans-20" x="1118.652344"/>
     <use xlink:href="#DejaVuSans-3d" x="1150.439453"/>
     <use xlink:href="#DejaVuSans-20" x="1234.228516"/>
     <use xlink:href="#DejaVuSans-34" x="1266.015625"/>
     <use xlink:href="#DejaVuSans-78" x="1329.638672"/>
     <use xlink:href="#DejaVuSans-20" x="1388.818359"/>
     <use xlink:href="#DejaVuSans-2d" x="1420.605469"/>
     <use xlink:href="#DejaVuSans-20" x="1456.689453"/>
     <use xlink:href="#DejaVuSans-78" x="1488.476562"/>
     <use xlink:href="#DejaVuSans-b2" x="1547.65625"/>
     <use xlink:href="#DejaVuSans-20" x="1587.744141"/>
     <use xlink:href="#DejaVuSans-28" x="1619.53125"/>
     <use xlink:href="#DejaVuSans-67" x="1658.544922"/>
     <use xlink:href="#DejaVuSans-65" x="1722.021484"/>
     <use xlink:href="#DejaVuSans-73" x="1783.544922"/>
     <use xlink:href="#DejaVuSans-70" x="1835.644531"/>
     <use xlink:href="#DejaVuSans-6c" x="1899.121094"/>
     <use xlink:href="#DejaVuSans-69" x="1926.904297"/>
     <use xlink:href="#DejaVuSans-74" x="1954.6875"/>
     <use xlink:href="#DejaVuSans-73" x="1993.896484"/>
     <use xlink:href="#DejaVuSans-74" x="2045.996094"/>
     <use xlink:href="#DejaVuSans-29" x="2085.205078"/>
    </g>
   </g>
   <g id="LineCollection_3">
    <path d="M 249.615907 307.584 
L 249.615907 41.472 
" clip-path="url(#p5f28392834)" style="fill: none; stroke-dasharray: 5.55,2.4; stroke-dashoffset: 0; stroke: #00ff7f; stroke-width: 1.5"/>
   </g>
   <g id="text_4">
    <!-- $I$ -->
    <g style="fill: #ffffff" transform="translate(215.328 159.3216) scale(0.1728 -0.1728)">
     <defs>
      <path id="DejaVuSans-Oblique-49" d="M 1081 4666 
L 1716 4666 
L 806 0 
L 172 0 
L 1081 4666 
z
" transform="scale(0.015625)"/>
     </defs>
     <use xlink:href="#DejaVuSans-Oblique-49" transform="translate(0 0.09375)"/>
    </g>
   </g>
   <g id="text_5">
    <!-- $II$ -->
    <g style="fill: #ffffff" transform="translate(262.944 159.3216) scale(0.1728 -0.1728)">
     <use xlink:href="#DejaVuSans-Oblique-49" transform="translate(0 0.09375)"/>
     <use xlink:href="#DejaVuSans-Oblique-49" transform="translate(29.492188 0.09375)"/>
    </g>
   </g>
   <g id="PathCollection_1">
    <defs>
     <path id="mf5d8ce821e" d="M 0 3 
C 0.795609 3 1.55874 2.683901 2.12132 2.12132 
C 2.683901 1.55874 3 0.795609 3 0 
C 3 -0.795609 2.683901 -1.55874 2.12132 -2.12132 
C 1.55874 -2.683901 0.795609 -3 0 -3 
C -0.795609 -3 -1.55874 -2.683901 -2.12132 -2.12132 
C -2.683901 -1.55874 -3 -0.795609 -3 0 
C -3 0.795609 -2.683901 1.55874 -2.12132 2.12132 
C -1.55874 2.683901 -0.795609 3 0 3 
z
" style="stroke: #7fffd4"/>
    </defs>
    <g clip-path="url(#p5f28392834)">
     <use xlink:href="#mf5d8ce821e" x="176.64" y="155.52" style="fill: #7fffd4; stroke: #7fffd4"/>
    </g>
   </g>
   <g id="PathCollection_2">
    <g clip-path="url(#p5f28392834)">
     <use xlink:href="#mf5d8ce821e" x="295.68" y="155.52" style="fill: #7fffd4; stroke: #7fffd4"/>
    </g>
   </g>
   <g id="legend_1">
    <g id="patch_7">
     <path d="M 291.82 95.870438 
L 407.72 95.870438 
Q 409.72 95.870438 409.72 93.870438 
L 409.72 48.472 
Q 409.72 46.472 407.72 46.472 
L 291.82 46.472 
Q 289.82 46.472 289.82 48.472 
L 289.82 93.870438 
Q 289.82 95.870438 291.82 95.870438 
z
" style="fill: #ffffff; opacity: 0.8; stroke: #cccccc; stroke-linejoin: miter"/>
    </g>
    <g id="line2d_3">
     <path d="M 293.82 55.392313 
L 303.82 55.392313 
L 313.82 55.392313 
" style="fill: none; stroke: #00ced1; stroke-width: 1.5; stroke-linecap: square"/>
    </g>
    <g id="text_6">
     <!-- $f(x) = x^{2} - 4 x + 6$ -->
     <g transform="translate(321.82 58.892313) scale(0.1 -0.1)">
      <defs>
       <path id="DejaVuSans-Oblique-66" d="M 3059 4863 
L 2969 4384 
L 2419 4384 
Q 2106 4384 1964 4261 
Q 1822 4138 1753 3809 
L 1691 3500 
L 2638 3500 
L 2553 3053 
L 1606 3053 
L 1013 0 
L 434 0 
L 1031 3053 
L 481 3053 
L 563 3500 
L 1113 3500 
L 1159 3744 
Q 1278 4363 1576 4613 
Q 1875 4863 2516 4863 
L 3059 4863 
z
" transform="scale(0.015625)"/>
       <path id="DejaVuSans-Oblique-78" d="M 3841 3500 
L 2234 1784 
L 3219 0 
L 2559 0 
L 1819 1388 
L 531 0 
L -166 0 
L 1556 1844 
L 641 3500 
L 1300 3500 
L 1972 2234 
L 3144 3500 
L 3841 3500 
z
" transform="scale(0.015625)"/>
       <path id="DejaVuSans-32" d="M 1228 531 
L 3431 531 
L 3431 0 
L 469 0 
L 469 531 
Q 828 903 1448 1529 
Q 2069 2156 2228 2338 
Q 2531 2678 2651 2914 
Q 2772 3150 2772 3378 
Q 2772 3750 2511 3984 
Q 2250 4219 1831 4219 
Q 1534 4219 1204 4116 
Q 875 4013 500 3803 
L 500 4441 
Q 881 4594 1212 4672 
Q 1544 4750 1819 4750 
Q 2544 4750 2975 4387 
Q 3406 4025 3406 3419 
Q 3406 3131 3298 2873 
Q 3191 2616 2906 2266 
Q 2828 2175 2409 1742 
Q 1991 1309 1228 531 
z
" transform="scale(0.015625)"/>
       <path id="DejaVuSans-2212" d="M 678 2272 
L 4684 2272 
L 4684 1741 
L 678 1741 
L 678 2272 
z
" transform="scale(0.015625)"/>
      </defs>
      <use xlink:href="#DejaVuSans-Oblique-66" transform="translate(0 0.765625)"/>
      <use xlink:href="#DejaVuSans-28" transform="translate(35.205078 0.765625)"/>
      <use xlink:href="#DejaVuSans-Oblique-78" transform="translate(74.21875 0.765625)"/>
      <use xlink:href="#DejaVuSans-29" transform="translate(133.398438 0.765625)"/>
      <use xlink:href="#DejaVuSans-3d" transform="translate(191.894531 0.765625)"/>
      <use xlink:href="#DejaVuSans-Oblique-78" transform="translate(295.166016 0.765625)"/>
      <use xlink:href="#DejaVuSans-32" transform="translate(358.811849 39.046875) scale(0.7)"/>
      <use xlink:href="#DejaVuSans-2212" transform="translate(425.564779 0.765625)"/>
      <use xlink:href="#DejaVuSans-34" transform="translate(528.836263 0.765625)"/>
      <use xlink:href="#DejaVuSans-Oblique-78" transform="translate(592.45931 0.765625)"/>
      <use xlink:href="#DejaVuSans-2b" transform="translate(671.121419 0.765625)"/>
      <use xlink:href="#DejaVuSans-36" transform="translate(774.392904 0.765625)"/>
     </g>
    </g>
    <g id="line2d_4">
     <path d="M 293.82 71.572 
L 303.82 71.572 
L 313.82 71.572 
" style="fill: none; stroke: #dc143c; stroke-width: 1.5; stroke-linecap: square"/>
    </g>
    <g id="text_7">
     <!-- $g(x) = - x^{2} + 4 x$ -->
     <g transform="translate(321.82 75.072) scale(0.1 -0.1)">
      <defs>
       <path id="DejaVuSans-Oblique-67" d="M 3816 3500 
L 3219 434 
Q 3047 -456 2561 -893 
Q 2075 -1331 1253 -1331 
Q 950 -1331 690 -1286 
Q 431 -1241 206 -1147 
L 313 -588 
Q 525 -725 762 -790 
Q 1000 -856 1269 -856 
Q 1816 -856 2167 -557 
Q 2519 -259 2631 300 
L 2681 563 
Q 2441 288 2122 144 
Q 1803 0 1434 0 
Q 903 0 598 351 
Q 294 703 294 1319 
Q 294 1803 478 2267 
Q 663 2731 997 3091 
Q 1219 3328 1514 3456 
Q 1809 3584 2131 3584 
Q 2484 3584 2746 3420 
Q 3009 3256 3138 2956 
L 3238 3500 
L 3816 3500 
z
M 2950 2216 
Q 2950 2641 2750 2872 
Q 2550 3103 2181 3103 
Q 1953 3103 1747 3012 
Q 1541 2922 1394 2759 
Q 1156 2491 1023 2127 
Q 891 1763 891 1375 
Q 891 944 1092 712 
Q 1294 481 1672 481 
Q 2219 481 2584 976 
Q 2950 1472 2950 2216 
z
" transform="scale(0.015625)"/>
      </defs>
      <use xlink:href="#DejaVuSans-Oblique-67" transform="translate(0 0.765625)"/>
      <use xlink:href="#DejaVuSans-28" transform="translate(63.476562 0.765625)"/>
      <use xlink:href="#DejaVuSans-Oblique-78" transform="translate(102.490234 0.765625)"/>
      <use xlink:href="#DejaVuSans-29" transform="translate(161.669922 0.765625)"/>
      <use xlink:href="#DejaVuSans-3d" transform="translate(220.166016 0.765625)"/>
      <use xlink:href="#DejaVuSans-2212" transform="translate(342.919922 0.765625)"/>
      <use xlink:href="#DejaVuSans-Oblique-78" transform="translate(446.191406 0.765625)"/>
      <use xlink:href="#DejaVuSans-32" transform="translate(509.83724 39.046875) scale(0.7)"/>
      <use xlink:href="#DejaVuSans-2b" transform="translate(576.590169 0.765625)"/>
      <use xlink:href="#DejaVuSans-34" transform="translate(679.861654 0.765625)"/>
      <use xlink:href="#DejaVuSans-Oblique-78" transform="translate(743.484701 0.765625)"/>
     </g>
    </g>
    <g id="line2d_5">
     <path d="M 293.82 86.270438 
L 313.82 86.270438 
" style="fill: none; stroke-dasharray: 5.55,2.4; stroke-dashoffset: 0; stroke: #00ff7f; stroke-width: 1.5"/>
    </g>
    <g id="text_8">
     <!-- $x=p$ -->
     <g transform="translate(321.82 89.770438) scale(0.1 -0.1)">
      <defs>
       <path id="DejaVuSans-Oblique-70" d="M 3175 2156 
Q 3175 2616 2975 2859 
Q 2775 3103 2400 3103 
Q 2144 3103 1911 2972 
Q 1678 2841 1497 2591 
Q 1319 2344 1212 1994 
Q 1106 1644 1106 1300 
Q 1106 863 1306 627 
Q 1506 391 1875 391 
Q 2147 391 2380 519 
Q 2613 647 2778 891 
Q 2956 1147 3065 1494 
Q 3175 1841 3175 2156 
z
M 1394 2969 
Q 1625 3272 1939 3428 
Q 2253 3584 2638 3584 
Q 3175 3584 3472 3232 
Q 3769 2881 3769 2247 
Q 3769 1728 3584 1258 
Q 3400 788 3053 416 
Q 2822 169 2531 39 
Q 2241 -91 1919 -91 
Q 1547 -91 1294 64 
Q 1041 219 916 525 
L 556 -1331 
L -19 -1331 
L 922 3500 
L 1497 3500 
L 1394 2969 
z
" transform="scale(0.015625)"/>
      </defs>
      <use xlink:href="#DejaVuSans-Oblique-78"/>
      <use xlink:href="#DejaVuSans-3d" transform="translate(78.662109 0)"/>
      <use xlink:href="#DejaVuSans-Oblique-70" transform="translate(181.933594 0)"/>
     </g>
    </g>
   </g>
  </g>
 </g>
 <defs>
  <clipPath id="p5f28392834">
   <rect x="57.6" y="41.472" width="357.12" height="266.112"/>
  </clipPath>
 </defs>
</svg>
