<?xml version="1.0" encoding="utf-8" standalone="no"?>
<!DOCTYPE svg PUBLIC "-//W3C//DTD SVG 1.1//EN"
  "http://www.w3.org/Graphics/SVG/1.1/DTD/svg11.dtd">
<svg xmlns:xlink="http://www.w3.org/1999/xlink" width="460.8pt" height="345.6pt" viewBox="0 0 460.8 345.6" xmlns="http://www.w3.org/2000/svg" version="1.1">
 <metadata>
  <rdf:RDF xmlns:dc="http://purl.org/dc/elements/1.1/" xmlns:cc="http://creativecommons.org/ns#" xmlns:rdf="http://www.w3.org/1999/02/22-rdf-syntax-ns#">
   <cc:Work>
    <dc:type rdf:resource="http://purl.org/dc/dcmitype/StillImage"/>
    <dc:date>2024-08-06T12:54:37.530178</dc:date>
    <dc:format>image/svg+xml</dc:format>
    <dc:creator>
     <cc:Agent>
      <dc:title>Matplotlib v3.8.3, https://matplotlib.org/</dc:title>
     </cc:Agent>
    </dc:creator>
   </cc:Work>
  </rdf:RDF>
 </metadata>
 <defs>
  <style type="text/css">*{stroke-linejoin: round; stroke-linecap: butt}</style>
 </defs>
 <g id="figure_1">
  <g id="patch_1">
   <path d="M 0 345.6 
L 460.8 345.6 
L 460.8 0 
L 0 0 
L 0 345.6 
z
" style="fill: none"/>
  </g>
  <g id="axes_1">
   <g id="patch_2">
    <path d="M 57.6 307.584 
L 414.72 307.584 
L 414.72 41.472 
L 57.6 41.472 
z
" style="fill: none"/>
   </g>
   <g id="LineCollection_1">
    <path d="M 57.6 174.528 
L 414.72 174.528 
" clip-path="url(#p879298aef5)" style="fill: none; stroke: #d3d3d3; stroke-width: 1.5"/>
   </g>
   <g id="LineCollection_2">
    <path d="M 236.16 307.584 
L 236.16 41.472 
" clip-path="url(#p879298aef5)" style="fill: none; stroke: #d3d3d3; stroke-width: 1.5"/>
   </g>
   <g id="matplotlib.axis_1">
    <g id="xtick_1">
     <g id="line2d_1">
      <defs>
       <path id="meb9ecd03c6" d="M 0 0 
L 0 3.5 
" style="stroke: #d3d3d3; stroke-width: 0.8"/>
      </defs>
      <g>
       <use xlink:href="#meb9ecd03c6" x="57.6" y="307.584" style="fill: #d3d3d3; stroke: #d3d3d3; stroke-width: 0.8"/>
      </g>
     </g>
     <g id="text_1">
      <!-- −4 -->
      <g style="fill: #d3d3d3" transform="translate(50.228906 322.182437) scale(0.1 -0.1)">
       <defs>
        <path id="DejaVuSans-2212" d="M 678 2272 
L 4684 2272 
L 4684 1741 
L 678 1741 
L 678 2272 
z
" transform="scale(0.015625)"/>
        <path id="DejaVuSans-34" d="M 2419 4116 
L 825 1625 
L 2419 1625 
L 2419 4116 
z
M 2253 4666 
L 3047 4666 
L 3047 1625 
L 3713 1625 
L 3713 1100 
L 3047 1100 
L 3047 0 
L 2419 0 
L 2419 1100 
L 313 1100 
L 313 1709 
L 2253 4666 
z
" transform="scale(0.015625)"/>
       </defs>
       <use xlink:href="#DejaVuSans-2212"/>
       <use xlink:href="#DejaVuSans-34" x="83.789062"/>
      </g>
     </g>
    </g>
    <g id="xtick_2">
     <g id="line2d_2">
      <g>
       <use xlink:href="#meb9ecd03c6" x="102.24" y="307.584" style="fill: #d3d3d3; stroke: #d3d3d3; stroke-width: 0.8"/>
      </g>
     </g>
     <g id="text_2">
      <!-- −3 -->
      <g style="fill: #d3d3d3" transform="translate(94.868906 322.182437) scale(0.1 -0.1)">
       <defs>
        <path id="DejaVuSans-33" d="M 2597 2516 
Q 3050 2419 3304 2112 
Q 3559 1806 3559 1356 
Q 3559 666 3084 287 
Q 2609 -91 1734 -91 
Q 1441 -91 1130 -33 
Q 819 25 488 141 
L 488 750 
Q 750 597 1062 519 
Q 1375 441 1716 441 
Q 2309 441 2620 675 
Q 2931 909 2931 1356 
Q 2931 1769 2642 2001 
Q 2353 2234 1838 2234 
L 1294 2234 
L 1294 2753 
L 1863 2753 
Q 2328 2753 2575 2939 
Q 2822 3125 2822 3475 
Q 2822 3834 2567 4026 
Q 2313 4219 1838 4219 
Q 1578 4219 1281 4162 
Q 984 4106 628 3988 
L 628 4550 
Q 988 4650 1302 4700 
Q 1616 4750 1894 4750 
Q 2613 4750 3031 4423 
Q 3450 4097 3450 3541 
Q 3450 3153 3228 2886 
Q 3006 2619 2597 2516 
z
" transform="scale(0.015625)"/>
       </defs>
       <use xlink:href="#DejaVuSans-2212"/>
       <use xlink:href="#DejaVuSans-33" x="83.789062"/>
      </g>
     </g>
    </g>
    <g id="xtick_3">
     <g id="line2d_3">
      <g>
       <use xlink:href="#meb9ecd03c6" x="146.88" y="307.584" style="fill: #d3d3d3; stroke: #d3d3d3; stroke-width: 0.8"/>
      </g>
     </g>
     <g id="text_3">
      <!-- −2 -->
      <g style="fill: #d3d3d3" transform="translate(139.508906 322.182437) scale(0.1 -0.1)">
       <defs>
        <path id="DejaVuSans-32" d="M 1228 531 
L 3431 531 
L 3431 0 
L 469 0 
L 469 531 
Q 828 903 1448 1529 
Q 2069 2156 2228 2338 
Q 2531 2678 2651 2914 
Q 2772 3150 2772 3378 
Q 2772 3750 2511 3984 
Q 2250 4219 1831 4219 
Q 1534 4219 1204 4116 
Q 875 4013 500 3803 
L 500 4441 
Q 881 4594 1212 4672 
Q 1544 4750 1819 4750 
Q 2544 4750 2975 4387 
Q 3406 4025 3406 3419 
Q 3406 3131 3298 2873 
Q 3191 2616 2906 2266 
Q 2828 2175 2409 1742 
Q 1991 1309 1228 531 
z
" transform="scale(0.015625)"/>
       </defs>
       <use xlink:href="#DejaVuSans-2212"/>
       <use xlink:href="#DejaVuSans-32" x="83.789062"/>
      </g>
     </g>
    </g>
    <g id="xtick_4">
     <g id="line2d_4">
      <g>
       <use xlink:href="#meb9ecd03c6" x="191.52" y="307.584" style="fill: #d3d3d3; stroke: #d3d3d3; stroke-width: 0.8"/>
      </g>
     </g>
     <g id="text_4">
      <!-- −1 -->
      <g style="fill: #d3d3d3" transform="translate(184.148906 322.182437) scale(0.1 -0.1)">
       <defs>
        <path id="DejaVuSans-31" d="M 794 531 
L 1825 531 
L 1825 4091 
L 703 3866 
L 703 4441 
L 1819 4666 
L 2450 4666 
L 2450 531 
L 3481 531 
L 3481 0 
L 794 0 
L 794 531 
z
" transform="scale(0.015625)"/>
       </defs>
       <use xlink:href="#DejaVuSans-2212"/>
       <use xlink:href="#DejaVuSans-31" x="83.789062"/>
      </g>
     </g>
    </g>
    <g id="xtick_5">
     <g id="line2d_5">
      <g>
       <use xlink:href="#meb9ecd03c6" x="236.16" y="307.584" style="fill: #d3d3d3; stroke: #d3d3d3; stroke-width: 0.8"/>
      </g>
     </g>
     <g id="text_5">
      <!-- 0 -->
      <g style="fill: #d3d3d3" transform="translate(232.97875 322.182437) scale(0.1 -0.1)">
       <defs>
        <path id="DejaVuSans-30" d="M 2034 4250 
Q 1547 4250 1301 3770 
Q 1056 3291 1056 2328 
Q 1056 1369 1301 889 
Q 1547 409 2034 409 
Q 2525 409 2770 889 
Q 3016 1369 3016 2328 
Q 3016 3291 2770 3770 
Q 2525 4250 2034 4250 
z
M 2034 4750 
Q 2819 4750 3233 4129 
Q 3647 3509 3647 2328 
Q 3647 1150 3233 529 
Q 2819 -91 2034 -91 
Q 1250 -91 836 529 
Q 422 1150 422 2328 
Q 422 3509 836 4129 
Q 1250 4750 2034 4750 
z
" transform="scale(0.015625)"/>
       </defs>
       <use xlink:href="#DejaVuSans-30"/>
      </g>
     </g>
    </g>
    <g id="xtick_6">
     <g id="line2d_6">
      <g>
       <use xlink:href="#meb9ecd03c6" x="280.8" y="307.584" style="fill: #d3d3d3; stroke: #d3d3d3; stroke-width: 0.8"/>
      </g>
     </g>
     <g id="text_6">
      <!-- 1 -->
      <g style="fill: #d3d3d3" transform="translate(277.61875 322.182437) scale(0.1 -0.1)">
       <use xlink:href="#DejaVuSans-31"/>
      </g>
     </g>
    </g>
    <g id="xtick_7">
     <g id="line2d_7">
      <g>
       <use xlink:href="#meb9ecd03c6" x="325.44" y="307.584" style="fill: #d3d3d3; stroke: #d3d3d3; stroke-width: 0.8"/>
      </g>
     </g>
     <g id="text_7">
      <!-- 2 -->
      <g style="fill: #d3d3d3" transform="translate(322.25875 322.182437) scale(0.1 -0.1)">
       <use xlink:href="#DejaVuSans-32"/>
      </g>
     </g>
    </g>
    <g id="xtick_8">
     <g id="line2d_8">
      <g>
       <use xlink:href="#meb9ecd03c6" x="370.08" y="307.584" style="fill: #d3d3d3; stroke: #d3d3d3; stroke-width: 0.8"/>
      </g>
     </g>
     <g id="text_8">
      <!-- 3 -->
      <g style="fill: #d3d3d3" transform="translate(366.89875 322.182437) scale(0.1 -0.1)">
       <use xlink:href="#DejaVuSans-33"/>
      </g>
     </g>
    </g>
    <g id="xtick_9">
     <g id="line2d_9">
      <g>
       <use xlink:href="#meb9ecd03c6" x="414.72" y="307.584" style="fill: #d3d3d3; stroke: #d3d3d3; stroke-width: 0.8"/>
      </g>
     </g>
     <g id="text_9">
      <!-- 4 -->
      <g style="fill: #d3d3d3" transform="translate(411.53875 322.182437) scale(0.1 -0.1)">
       <use xlink:href="#DejaVuSans-34"/>
      </g>
     </g>
    </g>
    <g id="text_10">
     <!-- X-as -->
     <g style="fill: #d3d3d3" transform="translate(225.512344 335.860562) scale(0.1 -0.1)">
      <defs>
       <path id="DejaVuSans-58" d="M 403 4666 
L 1081 4666 
L 2241 2931 
L 3406 4666 
L 4084 4666 
L 2584 2425 
L 4184 0 
L 3506 0 
L 2194 1984 
L 872 0 
L 191 0 
L 1856 2491 
L 403 4666 
z
" transform="scale(0.015625)"/>
       <path id="DejaVuSans-2d" d="M 313 2009 
L 1997 2009 
L 1997 1497 
L 313 1497 
L 313 2009 
z
" transform="scale(0.015625)"/>
       <path id="DejaVuSans-61" d="M 2194 1759 
Q 1497 1759 1228 1600 
Q 959 1441 959 1056 
Q 959 750 1161 570 
Q 1363 391 1709 391 
Q 2188 391 2477 730 
Q 2766 1069 2766 1631 
L 2766 1759 
L 2194 1759 
z
M 3341 1997 
L 3341 0 
L 2766 0 
L 2766 531 
Q 2569 213 2275 61 
Q 1981 -91 1556 -91 
Q 1019 -91 701 211 
Q 384 513 384 1019 
Q 384 1609 779 1909 
Q 1175 2209 1959 2209 
L 2766 2209 
L 2766 2266 
Q 2766 2663 2505 2880 
Q 2244 3097 1772 3097 
Q 1472 3097 1187 3025 
Q 903 2953 641 2809 
L 641 3341 
Q 956 3463 1253 3523 
Q 1550 3584 1831 3584 
Q 2591 3584 2966 3190 
Q 3341 2797 3341 1997 
z
" transform="scale(0.015625)"/>
       <path id="DejaVuSans-73" d="M 2834 3397 
L 2834 2853 
Q 2591 2978 2328 3040 
Q 2066 3103 1784 3103 
Q 1356 3103 1142 2972 
Q 928 2841 928 2578 
Q 928 2378 1081 2264 
Q 1234 2150 1697 2047 
L 1894 2003 
Q 2506 1872 2764 1633 
Q 3022 1394 3022 966 
Q 3022 478 2636 193 
Q 2250 -91 1575 -91 
Q 1294 -91 989 -36 
Q 684 19 347 128 
L 347 722 
Q 666 556 975 473 
Q 1284 391 1588 391 
Q 1994 391 2212 530 
Q 2431 669 2431 922 
Q 2431 1156 2273 1281 
Q 2116 1406 1581 1522 
L 1381 1569 
Q 847 1681 609 1914 
Q 372 2147 372 2553 
Q 372 3047 722 3315 
Q 1072 3584 1716 3584 
Q 2034 3584 2315 3537 
Q 2597 3491 2834 3397 
z
" transform="scale(0.015625)"/>
      </defs>
      <use xlink:href="#DejaVuSans-58"/>
      <use xlink:href="#DejaVuSans-2d" x="63.505859"/>
      <use xlink:href="#DejaVuSans-61" x="99.589844"/>
      <use xlink:href="#DejaVuSans-73" x="160.869141"/>
     </g>
    </g>
   </g>
   <g id="matplotlib.axis_2">
    <g id="ytick_1">
     <g id="line2d_10">
      <defs>
       <path id="m6b1443fcd7" d="M 0 0 
L -3.5 0 
" style="stroke: #d3d3d3; stroke-width: 0.8"/>
      </defs>
      <g>
       <use xlink:href="#m6b1443fcd7" x="57.6" y="307.584" style="fill: #d3d3d3; stroke: #d3d3d3; stroke-width: 0.8"/>
      </g>
     </g>
     <g id="text_11">
      <!-- −2.0 -->
      <g style="fill: #d3d3d3" transform="translate(26.317187 311.383219) scale(0.1 -0.1)">
       <defs>
        <path id="DejaVuSans-2e" d="M 684 794 
L 1344 794 
L 1344 0 
L 684 0 
L 684 794 
z
" transform="scale(0.015625)"/>
       </defs>
       <use xlink:href="#DejaVuSans-2212"/>
       <use xlink:href="#DejaVuSans-32" x="83.789062"/>
       <use xlink:href="#DejaVuSans-2e" x="147.412109"/>
       <use xlink:href="#DejaVuSans-30" x="179.199219"/>
      </g>
     </g>
    </g>
    <g id="ytick_2">
     <g id="line2d_11">
      <g>
       <use xlink:href="#m6b1443fcd7" x="57.6" y="274.32" style="fill: #d3d3d3; stroke: #d3d3d3; stroke-width: 0.8"/>
      </g>
     </g>
     <g id="text_12">
      <!-- −1.5 -->
      <g style="fill: #d3d3d3" transform="translate(26.317187 278.119219) scale(0.1 -0.1)">
       <defs>
        <path id="DejaVuSans-35" d="M 691 4666 
L 3169 4666 
L 3169 4134 
L 1269 4134 
L 1269 2991 
Q 1406 3038 1543 3061 
Q 1681 3084 1819 3084 
Q 2600 3084 3056 2656 
Q 3513 2228 3513 1497 
Q 3513 744 3044 326 
Q 2575 -91 1722 -91 
Q 1428 -91 1123 -41 
Q 819 9 494 109 
L 494 744 
Q 775 591 1075 516 
Q 1375 441 1709 441 
Q 2250 441 2565 725 
Q 2881 1009 2881 1497 
Q 2881 1984 2565 2268 
Q 2250 2553 1709 2553 
Q 1456 2553 1204 2497 
Q 953 2441 691 2322 
L 691 4666 
z
" transform="scale(0.015625)"/>
       </defs>
       <use xlink:href="#DejaVuSans-2212"/>
       <use xlink:href="#DejaVuSans-31" x="83.789062"/>
       <use xlink:href="#DejaVuSans-2e" x="147.412109"/>
       <use xlink:href="#DejaVuSans-35" x="179.199219"/>
      </g>
     </g>
    </g>
    <g id="ytick_3">
     <g id="line2d_12">
      <g>
       <use xlink:href="#m6b1443fcd7" x="57.6" y="241.056" style="fill: #d3d3d3; stroke: #d3d3d3; stroke-width: 0.8"/>
      </g>
     </g>
     <g id="text_13">
      <!-- −1.0 -->
      <g style="fill: #d3d3d3" transform="translate(26.317187 244.855219) scale(0.1 -0.1)">
       <use xlink:href="#DejaVuSans-2212"/>
       <use xlink:href="#DejaVuSans-31" x="83.789062"/>
       <use xlink:href="#DejaVuSans-2e" x="147.412109"/>
       <use xlink:href="#DejaVuSans-30" x="179.199219"/>
      </g>
     </g>
    </g>
    <g id="ytick_4">
     <g id="line2d_13">
      <g>
       <use xlink:href="#m6b1443fcd7" x="57.6" y="207.792" style="fill: #d3d3d3; stroke: #d3d3d3; stroke-width: 0.8"/>
      </g>
     </g>
     <g id="text_14">
      <!-- −0.5 -->
      <g style="fill: #d3d3d3" transform="translate(26.317187 211.591219) scale(0.1 -0.1)">
       <use xlink:href="#DejaVuSans-2212"/>
       <use xlink:href="#DejaVuSans-30" x="83.789062"/>
       <use xlink:href="#DejaVuSans-2e" x="147.412109"/>
       <use xlink:href="#DejaVuSans-35" x="179.199219"/>
      </g>
     </g>
    </g>
    <g id="ytick_5">
     <g id="line2d_14">
      <g>
       <use xlink:href="#m6b1443fcd7" x="57.6" y="174.528" style="fill: #d3d3d3; stroke: #d3d3d3; stroke-width: 0.8"/>
      </g>
     </g>
     <g id="text_15">
      <!-- 0.0 -->
      <g style="fill: #d3d3d3" transform="translate(34.696875 178.327219) scale(0.1 -0.1)">
       <use xlink:href="#DejaVuSans-30"/>
       <use xlink:href="#DejaVuSans-2e" x="63.623047"/>
       <use xlink:href="#DejaVuSans-30" x="95.410156"/>
      </g>
     </g>
    </g>
    <g id="ytick_6">
     <g id="line2d_15">
      <g>
       <use xlink:href="#m6b1443fcd7" x="57.6" y="141.264" style="fill: #d3d3d3; stroke: #d3d3d3; stroke-width: 0.8"/>
      </g>
     </g>
     <g id="text_16">
      <!-- 0.5 -->
      <g style="fill: #d3d3d3" transform="translate(34.696875 145.063219) scale(0.1 -0.1)">
       <use xlink:href="#DejaVuSans-30"/>
       <use xlink:href="#DejaVuSans-2e" x="63.623047"/>
       <use xlink:href="#DejaVuSans-35" x="95.410156"/>
      </g>
     </g>
    </g>
    <g id="ytick_7">
     <g id="line2d_16">
      <g>
       <use xlink:href="#m6b1443fcd7" x="57.6" y="108" style="fill: #d3d3d3; stroke: #d3d3d3; stroke-width: 0.8"/>
      </g>
     </g>
     <g id="text_17">
      <!-- 1.0 -->
      <g style="fill: #d3d3d3" transform="translate(34.696875 111.799219) scale(0.1 -0.1)">
       <use xlink:href="#DejaVuSans-31"/>
       <use xlink:href="#DejaVuSans-2e" x="63.623047"/>
       <use xlink:href="#DejaVuSans-30" x="95.410156"/>
      </g>
     </g>
    </g>
    <g id="ytick_8">
     <g id="line2d_17">
      <g>
       <use xlink:href="#m6b1443fcd7" x="57.6" y="74.736" style="fill: #d3d3d3; stroke: #d3d3d3; stroke-width: 0.8"/>
      </g>
     </g>
     <g id="text_18">
      <!-- 1.5 -->
      <g style="fill: #d3d3d3" transform="translate(34.696875 78.535219) scale(0.1 -0.1)">
       <use xlink:href="#DejaVuSans-31"/>
       <use xlink:href="#DejaVuSans-2e" x="63.623047"/>
       <use xlink:href="#DejaVuSans-35" x="95.410156"/>
      </g>
     </g>
    </g>
    <g id="ytick_9">
     <g id="line2d_18">
      <g>
       <use xlink:href="#m6b1443fcd7" x="57.6" y="41.472" style="fill: #d3d3d3; stroke: #d3d3d3; stroke-width: 0.8"/>
      </g>
     </g>
     <g id="text_19">
      <!-- 2.0 -->
      <g style="fill: #d3d3d3" transform="translate(34.696875 45.271219) scale(0.1 -0.1)">
       <use xlink:href="#DejaVuSans-32"/>
       <use xlink:href="#DejaVuSans-2e" x="63.623047"/>
       <use xlink:href="#DejaVuSans-30" x="95.410156"/>
      </g>
     </g>
    </g>
    <g id="text_20">
     <!-- Y-as -->
     <g style="fill: #d3d3d3" transform="translate(20.2375 184.460813) rotate(-90) scale(0.1 -0.1)">
      <defs>
       <path id="DejaVuSans-59" d="M -13 4666 
L 666 4666 
L 1959 2747 
L 3244 4666 
L 3922 4666 
L 2272 2222 
L 2272 0 
L 1638 0 
L 1638 2222 
L -13 4666 
z
" transform="scale(0.015625)"/>
      </defs>
      <use xlink:href="#DejaVuSans-59"/>
      <use xlink:href="#DejaVuSans-2d" x="49.208984"/>
      <use xlink:href="#DejaVuSans-61" x="85.292969"/>
      <use xlink:href="#DejaVuSans-73" x="146.572266"/>
     </g>
    </g>
   </g>
   <g id="line2d_19">
    <path d="M 57.6 124.179444 
L 61.1712 127.815612 
L 65.1888 132.262226 
L 69.2064 137.050962 
L 73.6704 142.725803 
L 78.5808 149.332857 
L 84.384 157.527362 
L 91.9728 168.654095 
L 108.936 193.653337 
L 114.7392 201.7522 
L 119.6496 208.251499 
L 124.1136 213.808188 
L 128.1312 218.475146 
L 132.1488 222.786373 
L 135.72 226.291654 
L 139.2912 229.465824 
L 142.416 231.955593 
L 145.5408 234.164081 
L 148.6656 236.080472 
L 151.344 237.483452 
L 154.0224 238.659861 
L 156.7008 239.605464 
L 159.3792 240.316858 
L 162.0576 240.791484 
L 164.736 241.027633 
L 167.4144 241.024454 
L 170.0928 240.781961 
L 172.7712 240.301024 
L 175.4496 239.583376 
L 178.128 238.631599 
L 180.8064 237.449118 
L 183.4848 236.040189 
L 186.6096 234.117042 
L 189.7344 231.902028 
L 192.8592 229.405997 
L 195.984 226.641173 
L 199.5552 223.16967 
L 203.1264 219.387026 
L 207.144 214.789841 
L 211.608 209.301336 
L 216.5184 202.864901 
L 221.8752 195.455484 
L 228.5712 185.783363 
L 242.856 164.58618 
L 250.4448 153.600516 
L 256.248 145.590613 
L 261.1584 139.189245 
L 265.6224 133.738562 
L 269.64 129.179937 
L 273.2112 125.434902 
L 276.7824 122.003895 
L 279.9072 119.276671 
L 283.032 116.820068 
L 286.1568 114.646118 
L 289.2816 112.765469 
L 291.96 111.393951 
L 294.6384 110.249648 
L 297.3168 109.336676 
L 299.9952 108.658324 
L 302.6736 108.217031 
L 305.352 108.014386 
L 308.0304 108.051118 
L 310.7088 108.327095 
L 313.3872 108.841324 
L 316.0656 109.591954 
L 318.744 110.576283 
L 321.4224 111.79077 
L 324.1008 113.231043 
L 327.2256 115.189771 
L 330.3504 117.439137 
L 333.4752 119.968125 
L 336.6 122.764346 
L 340.1712 126.269627 
L 343.7424 130.083597 
L 347.76 134.712845 
L 352.224 140.232725 
L 357.1344 146.698144 
L 362.4912 154.132179 
L 369.1872 163.824289 
L 392.8464 198.486735 
L 398.2032 205.744271 
L 402.6672 211.453496 
L 407.1312 216.793774 
L 411.1488 221.240388 
L 414.2736 224.43919 
L 414.2736 224.43919 
" clip-path="url(#p879298aef5)" style="fill: none; stroke: #00ced1; stroke-width: 1.5; stroke-linecap: square"/>
   </g>
   <g id="patch_3">
    <path d="M 57.6 307.584 
L 57.6 41.472 
" style="fill: none; stroke: #d3d3d3; stroke-width: 0.8; stroke-linejoin: miter; stroke-linecap: square"/>
   </g>
   <g id="patch_4">
    <path d="M 414.72 307.584 
L 414.72 41.472 
" style="fill: none; stroke: #d3d3d3; stroke-width: 0.8; stroke-linejoin: miter; stroke-linecap: square"/>
   </g>
   <g id="patch_5">
    <path d="M 57.6 307.584 
L 414.72 307.584 
" style="fill: none; stroke: #d3d3d3; stroke-width: 0.8; stroke-linejoin: miter; stroke-linecap: square"/>
   </g>
   <g id="patch_6">
    <path d="M 57.6 41.472 
L 414.72 41.472 
" style="fill: none; stroke: #d3d3d3; stroke-width: 0.8; stroke-linejoin: miter; stroke-linecap: square"/>
   </g>
   <g id="PolyCollection_1">
    <defs>
     <path id="mef38397944" d="M 95.9904 -171.072 
L 95.9904 -170.966044 
L 96.4368 -170.300781 
L 96.8832 -169.635596 
L 97.3296 -168.970554 
L 97.776 -168.305722 
L 98.2224 -167.641166 
L 98.6688 -166.976954 
L 99.1152 -166.313152 
L 99.5616 -165.649825 
L 100.008 -164.98704 
L 100.4544 -164.324864 
L 100.9008 -163.663363 
L 101.3472 -163.002602 
L 101.7936 -162.342649 
L 102.24 -161.683568 
L 102.6864 -161.025426 
L 103.1328 -160.368289 
L 103.5792 -159.712222 
L 104.0256 -159.057291 
L 104.472 -158.403562 
L 104.9184 -157.7511 
L 105.3648 -157.099969 
L 105.8112 -156.450236 
L 106.2576 -155.801965 
L 106.704 -155.155221 
L 107.1504 -154.510068 
L 107.5968 -153.866572 
L 108.0432 -153.224796 
L 108.4896 -152.584805 
L 108.936 -151.946663 
L 109.3824 -151.310433 
L 109.8288 -150.676179 
L 110.2752 -150.043965 
L 110.7216 -149.413854 
L 111.168 -148.785908 
L 111.6144 -148.160191 
L 112.0608 -147.536766 
L 112.5072 -146.915693 
L 112.9536 -146.297037 
L 113.4 -145.680858 
L 113.8464 -145.067217 
L 114.2928 -144.456178 
L 114.7392 -143.8478 
L 115.1856 -143.242144 
L 115.632 -142.639271 
L 116.0784 -142.039242 
L 116.5248 -141.442116 
L 116.9712 -140.847952 
L 117.4176 -140.256812 
L 117.864 -139.668752 
L 118.3104 -139.083833 
L 118.7568 -138.502113 
L 119.2032 -137.923649 
L 119.6496 -137.348501 
L 120.096 -136.776725 
L 120.5424 -136.208378 
L 120.9888 -135.643518 
L 121.4352 -135.0822 
L 121.8816 -134.524482 
L 122.328 -133.970418 
L 122.7744 -133.420064 
L 123.2208 -132.873475 
L 123.6672 -132.330707 
L 124.1136 -131.791812 
L 124.56 -131.256845 
L 125.0064 -130.72586 
L 125.4528 -130.198909 
L 125.8992 -129.676046 
L 126.3456 -129.157322 
L 126.792 -128.64279 
L 127.2384 -128.1325 
L 127.6848 -127.626505 
L 128.1312 -127.124854 
L 128.5776 -126.627597 
L 129.024 -126.134786 
L 129.4704 -125.646467 
L 129.9168 -125.162691 
L 130.3632 -124.683507 
L 130.8096 -124.208961 
L 131.256 -123.739101 
L 131.7024 -123.273974 
L 132.1488 -122.813627 
L 132.5952 -122.358106 
L 133.0416 -121.907457 
L 133.488 -121.461724 
L 133.9344 -121.020951 
L 134.3808 -120.585184 
L 134.8272 -120.154466 
L 135.2736 -119.728839 
L 135.72 -119.308346 
L 136.1664 -118.89303 
L 136.6128 -118.482932 
L 137.0592 -118.078092 
L 137.5056 -117.678552 
L 137.952 -117.284351 
L 138.3984 -116.895529 
L 138.8448 -116.512125 
L 139.2912 -116.134176 
L 139.7376 -115.761721 
L 140.184 -115.394797 
L 140.6304 -115.033441 
L 141.0768 -114.677689 
L 141.5232 -114.327576 
L 141.9696 -113.983137 
L 142.416 -113.644407 
L 142.8624 -113.31142 
L 143.3088 -112.984209 
L 143.7552 -112.662807 
L 144.2016 -112.347245 
L 144.648 -112.037556 
L 145.0944 -111.733771 
L 145.5408 -111.435919 
L 145.9872 -111.144031 
L 146.4336 -110.858135 
L 146.88 -110.578261 
L 147.3264 -110.304436 
L 147.7728 -110.036688 
L 148.2192 -109.775043 
L 148.6656 -109.519528 
L 149.112 -109.270168 
L 149.5584 -109.026988 
L 150.0048 -108.790013 
L 150.4512 -108.559266 
L 150.8976 -108.33477 
L 151.344 -108.116548 
L 151.7904 -107.904621 
L 152.2368 -107.699011 
L 152.6832 -107.499738 
L 153.1296 -107.306822 
L 153.576 -107.120283 
L 154.0224 -106.940139 
L 154.4688 -106.766408 
L 154.9152 -106.599108 
L 155.3616 -106.438255 
L 155.808 -106.283865 
L 156.2544 -106.135954 
L 156.7008 -105.994536 
L 157.1472 -105.859626 
L 157.5936 -105.731238 
L 158.04 -105.609383 
L 158.4864 -105.494074 
L 158.9328 -105.385324 
L 159.3792 -105.283142 
L 159.8256 -105.187538 
L 160.272 -105.098523 
L 160.7184 -105.016106 
L 161.1648 -104.940294 
L 161.6112 -104.871095 
L 162.0576 -104.808516 
L 162.504 -104.752563 
L 162.9504 -104.703243 
L 163.3968 -104.660559 
L 163.8432 -104.624516 
L 164.2896 -104.595118 
L 164.736 -104.572367 
L 165.1824 -104.556267 
L 165.6288 -104.546818 
L 166.0752 -104.544021 
L 166.5216 -104.547877 
L 166.968 -104.558386 
L 167.4144 -104.575546 
L 167.8608 -104.599355 
L 168.3072 -104.629812 
L 168.7536 -104.666912 
L 169.2 -104.710654 
L 169.6464 -104.761031 
L 170.0928 -104.818039 
L 170.5392 -104.881673 
L 170.9856 -104.951926 
L 171.432 -105.02879 
L 171.8784 -105.112259 
L 172.3248 -105.202324 
L 172.7712 -105.298976 
L 173.2176 -105.402204 
L 173.664 -105.512 
L 174.1104 -105.628352 
L 174.5568 -105.751248 
L 175.0032 -105.880676 
L 175.4496 -106.016624 
L 175.896 -106.159076 
L 176.3424 -106.30802 
L 176.7888 -106.463441 
L 177.2352 -106.625322 
L 177.6816 -106.793648 
L 178.128 -106.968401 
L 178.5744 -107.149565 
L 179.0208 -107.337121 
L 179.4672 -107.53105 
L 179.9136 -107.731334 
L 180.36 -107.937951 
L 180.8064 -108.150882 
L 181.2528 -108.370105 
L 181.6992 -108.595598 
L 182.1456 -108.827339 
L 182.592 -109.065304 
L 183.0384 -109.309469 
L 183.4848 -109.559811 
L 183.9312 -109.816304 
L 184.3776 -110.078923 
L 184.824 -110.347641 
L 185.2704 -110.622431 
L 185.7168 -110.903266 
L 186.1632 -111.190118 
L 186.6096 -111.482958 
L 187.056 -111.781757 
L 187.5024 -112.086485 
L 187.9488 -112.397111 
L 188.3952 -112.713605 
L 188.8416 -113.035934 
L 189.288 -113.364068 
L 189.7344 -113.697972 
L 190.1808 -114.037613 
L 190.6272 -114.382958 
L 191.0736 -114.733971 
L 191.52 -115.090618 
L 191.9664 -115.452864 
L 192.4128 -115.820671 
L 192.8592 -116.194003 
L 193.3056 -116.572823 
L 193.752 -116.957093 
L 194.1984 -117.346775 
L 194.6448 -117.741829 
L 195.0912 -118.142215 
L 195.5376 -118.547895 
L 195.984 -118.958827 
L 196.4304 -119.374971 
L 196.8768 -119.796284 
L 197.3232 -120.222724 
L 197.7696 -120.65425 
L 198.216 -121.090817 
L 198.6624 -121.532383 
L 199.1088 -121.978902 
L 199.5552 -122.43033 
L 200.0016 -122.886623 
L 200.448 -123.347734 
L 200.8944 -123.813617 
L 201.3408 -124.284227 
L 201.7872 -124.759515 
L 202.2336 -125.239434 
L 202.68 -125.723937 
L 203.1264 -126.212974 
L 203.5728 -126.706497 
L 204.0192 -127.204457 
L 204.4656 -127.706803 
L 204.912 -128.213486 
L 205.3584 -128.724454 
L 205.8048 -129.239658 
L 206.2512 -129.759044 
L 206.6976 -130.282562 
L 207.144 -130.810159 
L 207.5904 -131.341782 
L 208.0368 -131.877378 
L 208.4832 -132.416893 
L 208.9296 -132.960274 
L 209.376 -133.507466 
L 209.8224 -134.058414 
L 210.2688 -134.613064 
L 210.7152 -135.171359 
L 211.1616 -135.733245 
L 211.608 -136.298664 
L 212.0544 -136.867561 
L 212.5008 -137.439878 
L 212.9472 -138.015558 
L 213.3936 -138.594544 
L 213.84 -139.176778 
L 214.2864 -139.762201 
L 214.7328 -140.350755 
L 215.1792 -140.942381 
L 215.6256 -141.53702 
L 216.072 -142.134613 
L 216.5184 -142.735099 
L 216.9648 -143.338419 
L 217.4112 -143.944513 
L 217.8576 -144.553319 
L 218.304 -145.164777 
L 218.7504 -145.778825 
L 219.1968 -146.395403 
L 219.6432 -147.014449 
L 220.0896 -147.6359 
L 220.536 -148.259695 
L 220.9824 -148.885771 
L 221.4288 -149.514065 
L 221.8752 -150.144516 
L 222.3216 -150.777059 
L 222.768 -151.411632 
L 223.2144 -152.04817 
L 223.6608 -152.686611 
L 224.1072 -153.326891 
L 224.5536 -153.968945 
L 225 -154.612709 
L 225.4464 -155.25812 
L 225.8928 -155.905111 
L 226.3392 -156.55362 
L 226.7856 -157.20358 
L 227.232 -157.854927 
L 227.6784 -158.507595 
L 228.1248 -159.161521 
L 228.5712 -159.816637 
L 229.0176 -160.472878 
L 229.464 -161.13018 
L 229.9104 -161.788476 
L 230.3568 -162.4477 
L 230.8032 -163.107786 
L 231.2496 -163.768669 
L 231.696 -164.430282 
L 232.1424 -165.09256 
L 232.5888 -165.755435 
L 233.0352 -166.418842 
L 233.4816 -167.082715 
L 233.928 -167.746986 
L 234.3744 -168.41159 
L 234.8208 -169.076459 
L 235.2672 -169.741529 
L 235.7136 -170.406731 
L 236.16 -171.072 
L 236.16 -171.072 
L 236.16 -171.072 
L 235.7136 -171.072 
L 235.2672 -171.072 
L 234.8208 -171.072 
L 234.3744 -171.072 
L 233.928 -171.072 
L 233.4816 -171.072 
L 233.0352 -171.072 
L 232.5888 -171.072 
L 232.1424 -171.072 
L 231.696 -171.072 
L 231.2496 -171.072 
L 230.8032 -171.072 
L 230.3568 -171.072 
L 229.9104 -171.072 
L 229.464 -171.072 
L 229.0176 -171.072 
L 228.5712 -171.072 
L 228.1248 -171.072 
L 227.6784 -171.072 
L 227.232 -171.072 
L 226.7856 -171.072 
L 226.3392 -171.072 
L 225.8928 -171.072 
L 225.4464 -171.072 
L 225 -171.072 
L 224.5536 -171.072 
L 224.1072 -171.072 
L 223.6608 -171.072 
L 223.2144 -171.072 
L 222.768 -171.072 
L 222.3216 -171.072 
L 221.8752 -171.072 
L 221.4288 -171.072 
L 220.9824 -171.072 
L 220.536 -171.072 
L 220.0896 -171.072 
L 219.6432 -171.072 
L 219.1968 -171.072 
L 218.7504 -171.072 
L 218.304 -171.072 
L 217.8576 -171.072 
L 217.4112 -171.072 
L 216.9648 -171.072 
L 216.5184 -171.072 
L 216.072 -171.072 
L 215.6256 -171.072 
L 215.1792 -171.072 
L 214.7328 -171.072 
L 214.2864 -171.072 
L 213.84 -171.072 
L 213.3936 -171.072 
L 212.9472 -171.072 
L 212.5008 -171.072 
L 212.0544 -171.072 
L 211.608 -171.072 
L 211.1616 -171.072 
L 210.7152 -171.072 
L 210.2688 -171.072 
L 209.8224 -171.072 
L 209.376 -171.072 
L 208.9296 -171.072 
L 208.4832 -171.072 
L 208.0368 -171.072 
L 207.5904 -171.072 
L 207.144 -171.072 
L 206.6976 -171.072 
L 206.2512 -171.072 
L 205.8048 -171.072 
L 205.3584 -171.072 
L 204.912 -171.072 
L 204.4656 -171.072 
L 204.0192 -171.072 
L 203.5728 -171.072 
L 203.1264 -171.072 
L 202.68 -171.072 
L 202.2336 -171.072 
L 201.7872 -171.072 
L 201.3408 -171.072 
L 200.8944 -171.072 
L 200.448 -171.072 
L 200.0016 -171.072 
L 199.5552 -171.072 
L 199.1088 -171.072 
L 198.6624 -171.072 
L 198.216 -171.072 
L 197.7696 -171.072 
L 197.3232 -171.072 
L 196.8768 -171.072 
L 196.4304 -171.072 
L 195.984 -171.072 
L 195.5376 -171.072 
L 195.0912 -171.072 
L 194.6448 -171.072 
L 194.1984 -171.072 
L 193.752 -171.072 
L 193.3056 -171.072 
L 192.8592 -171.072 
L 192.4128 -171.072 
L 191.9664 -171.072 
L 191.52 -171.072 
L 191.0736 -171.072 
L 190.6272 -171.072 
L 190.1808 -171.072 
L 189.7344 -171.072 
L 189.288 -171.072 
L 188.8416 -171.072 
L 188.3952 -171.072 
L 187.9488 -171.072 
L 187.5024 -171.072 
L 187.056 -171.072 
L 186.6096 -171.072 
L 186.1632 -171.072 
L 185.7168 -171.072 
L 185.2704 -171.072 
L 184.824 -171.072 
L 184.3776 -171.072 
L 183.9312 -171.072 
L 183.4848 -171.072 
L 183.0384 -171.072 
L 182.592 -171.072 
L 182.1456 -171.072 
L 181.6992 -171.072 
L 181.2528 -171.072 
L 180.8064 -171.072 
L 180.36 -171.072 
L 179.9136 -171.072 
L 179.4672 -171.072 
L 179.0208 -171.072 
L 178.5744 -171.072 
L 178.128 -171.072 
L 177.6816 -171.072 
L 177.2352 -171.072 
L 176.7888 -171.072 
L 176.3424 -171.072 
L 175.896 -171.072 
L 175.4496 -171.072 
L 175.0032 -171.072 
L 174.5568 -171.072 
L 174.1104 -171.072 
L 173.664 -171.072 
L 173.2176 -171.072 
L 172.7712 -171.072 
L 172.3248 -171.072 
L 171.8784 -171.072 
L 171.432 -171.072 
L 170.9856 -171.072 
L 170.5392 -171.072 
L 170.0928 -171.072 
L 169.6464 -171.072 
L 169.2 -171.072 
L 168.7536 -171.072 
L 168.3072 -171.072 
L 167.8608 -171.072 
L 167.4144 -171.072 
L 166.968 -171.072 
L 166.5216 -171.072 
L 166.0752 -171.072 
L 165.6288 -171.072 
L 165.1824 -171.072 
L 164.736 -171.072 
L 164.2896 -171.072 
L 163.8432 -171.072 
L 163.3968 -171.072 
L 162.9504 -171.072 
L 162.504 -171.072 
L 162.0576 -171.072 
L 161.6112 -171.072 
L 161.1648 -171.072 
L 160.7184 -171.072 
L 160.272 -171.072 
L 159.8256 -171.072 
L 159.3792 -171.072 
L 158.9328 -171.072 
L 158.4864 -171.072 
L 158.04 -171.072 
L 157.5936 -171.072 
L 157.1472 -171.072 
L 156.7008 -171.072 
L 156.2544 -171.072 
L 155.808 -171.072 
L 155.3616 -171.072 
L 154.9152 -171.072 
L 154.4688 -171.072 
L 154.0224 -171.072 
L 153.576 -171.072 
L 153.1296 -171.072 
L 152.6832 -171.072 
L 152.2368 -171.072 
L 151.7904 -171.072 
L 151.344 -171.072 
L 150.8976 -171.072 
L 150.4512 -171.072 
L 150.0048 -171.072 
L 149.5584 -171.072 
L 149.112 -171.072 
L 148.6656 -171.072 
L 148.2192 -171.072 
L 147.7728 -171.072 
L 147.3264 -171.072 
L 146.88 -171.072 
L 146.4336 -171.072 
L 145.9872 -171.072 
L 145.5408 -171.072 
L 145.0944 -171.072 
L 144.648 -171.072 
L 144.2016 -171.072 
L 143.7552 -171.072 
L 143.3088 -171.072 
L 142.8624 -171.072 
L 142.416 -171.072 
L 141.9696 -171.072 
L 141.5232 -171.072 
L 141.0768 -171.072 
L 140.6304 -171.072 
L 140.184 -171.072 
L 139.7376 -171.072 
L 139.2912 -171.072 
L 138.8448 -171.072 
L 138.3984 -171.072 
L 137.952 -171.072 
L 137.5056 -171.072 
L 137.0592 -171.072 
L 136.6128 -171.072 
L 136.1664 -171.072 
L 135.72 -171.072 
L 135.2736 -171.072 
L 134.8272 -171.072 
L 134.3808 -171.072 
L 133.9344 -171.072 
L 133.488 -171.072 
L 133.0416 -171.072 
L 132.5952 -171.072 
L 132.1488 -171.072 
L 131.7024 -171.072 
L 131.256 -171.072 
L 130.8096 -171.072 
L 130.3632 -171.072 
L 129.9168 -171.072 
L 129.4704 -171.072 
L 129.024 -171.072 
L 128.5776 -171.072 
L 128.1312 -171.072 
L 127.6848 -171.072 
L 127.2384 -171.072 
L 126.792 -171.072 
L 126.3456 -171.072 
L 125.8992 -171.072 
L 125.4528 -171.072 
L 125.0064 -171.072 
L 124.56 -171.072 
L 124.1136 -171.072 
L 123.6672 -171.072 
L 123.2208 -171.072 
L 122.7744 -171.072 
L 122.328 -171.072 
L 121.8816 -171.072 
L 121.4352 -171.072 
L 120.9888 -171.072 
L 120.5424 -171.072 
L 120.096 -171.072 
L 119.6496 -171.072 
L 119.2032 -171.072 
L 118.7568 -171.072 
L 118.3104 -171.072 
L 117.864 -171.072 
L 117.4176 -171.072 
L 116.9712 -171.072 
L 116.5248 -171.072 
L 116.0784 -171.072 
L 115.632 -171.072 
L 115.1856 -171.072 
L 114.7392 -171.072 
L 114.2928 -171.072 
L 113.8464 -171.072 
L 113.4 -171.072 
L 112.9536 -171.072 
L 112.5072 -171.072 
L 112.0608 -171.072 
L 111.6144 -171.072 
L 111.168 -171.072 
L 110.7216 -171.072 
L 110.2752 -171.072 
L 109.8288 -171.072 
L 109.3824 -171.072 
L 108.936 -171.072 
L 108.4896 -171.072 
L 108.0432 -171.072 
L 107.5968 -171.072 
L 107.1504 -171.072 
L 106.704 -171.072 
L 106.2576 -171.072 
L 105.8112 -171.072 
L 105.3648 -171.072 
L 104.9184 -171.072 
L 104.472 -171.072 
L 104.0256 -171.072 
L 103.5792 -171.072 
L 103.1328 -171.072 
L 102.6864 -171.072 
L 102.24 -171.072 
L 101.7936 -171.072 
L 101.3472 -171.072 
L 100.9008 -171.072 
L 100.4544 -171.072 
L 100.008 -171.072 
L 99.5616 -171.072 
L 99.1152 -171.072 
L 98.6688 -171.072 
L 98.2224 -171.072 
L 97.776 -171.072 
L 97.3296 -171.072 
L 96.8832 -171.072 
L 96.4368 -171.072 
L 95.9904 -171.072 
z
" style="stroke: #00ff7f; stroke-opacity: 0.7"/>
    </defs>
    <g clip-path="url(#p879298aef5)">
     <use xlink:href="#mef38397944" x="0" y="345.6" style="fill: #00ff7f; fill-opacity: 0.7; stroke: #00ff7f; stroke-opacity: 0.7"/>
    </g>
   </g>
   <g id="PolyCollection_2">
    <defs>
     <path id="mad7d8e44aa" d="M 236.6064 -171.072 
L 236.6064 -171.737269 
L 237.0528 -172.402471 
L 237.4992 -173.067541 
L 237.9456 -173.73241 
L 238.392 -174.397014 
L 238.8384 -175.061285 
L 239.2848 -175.725158 
L 239.7312 -176.388565 
L 240.1776 -177.05144 
L 240.624 -177.713718 
L 241.0704 -178.375331 
L 241.5168 -179.036214 
L 241.9632 -179.6963 
L 242.4096 -180.355524 
L 242.856 -181.01382 
L 243.3024 -181.671122 
L 243.7488 -182.327363 
L 244.1952 -182.982479 
L 244.6416 -183.636405 
L 245.088 -184.289073 
L 245.5344 -184.94042 
L 245.9808 -185.59038 
L 246.4272 -186.238889 
L 246.8736 -186.88588 
L 247.32 -187.531291 
L 247.7664 -188.175055 
L 248.2128 -188.817109 
L 248.6592 -189.457389 
L 249.1056 -190.09583 
L 249.552 -190.732368 
L 249.9984 -191.366941 
L 250.4448 -191.999484 
L 250.8912 -192.629935 
L 251.3376 -193.258229 
L 251.784 -193.884305 
L 252.2304 -194.5081 
L 252.6768 -195.129551 
L 253.1232 -195.748597 
L 253.5696 -196.365175 
L 254.016 -196.979223 
L 254.4624 -197.590681 
L 254.9088 -198.199487 
L 255.3552 -198.805581 
L 255.8016 -199.408901 
L 256.248 -200.009387 
L 256.6944 -200.60698 
L 257.1408 -201.201619 
L 257.5872 -201.793245 
L 258.0336 -202.381799 
L 258.48 -202.967222 
L 258.9264 -203.549456 
L 259.3728 -204.128442 
L 259.8192 -204.704122 
L 260.2656 -205.276439 
L 260.712 -205.845336 
L 261.1584 -206.410755 
L 261.6048 -206.972641 
L 262.0512 -207.530936 
L 262.4976 -208.085586 
L 262.944 -208.636534 
L 263.3904 -209.183726 
L 263.8368 -209.727107 
L 264.2832 -210.266622 
L 264.7296 -210.802218 
L 265.176 -211.333841 
L 265.6224 -211.861438 
L 266.0688 -212.384956 
L 266.5152 -212.904342 
L 266.9616 -213.419546 
L 267.408 -213.930514 
L 267.8544 -214.437197 
L 268.3008 -214.939543 
L 268.7472 -215.437503 
L 269.1936 -215.931026 
L 269.64 -216.420063 
L 270.0864 -216.904566 
L 270.5328 -217.384485 
L 270.9792 -217.859773 
L 271.4256 -218.330383 
L 271.872 -218.796266 
L 272.3184 -219.257377 
L 272.7648 -219.71367 
L 273.2112 -220.165098 
L 273.6576 -220.611617 
L 274.104 -221.053183 
L 274.5504 -221.48975 
L 274.9968 -221.921276 
L 275.4432 -222.347716 
L 275.8896 -222.769029 
L 276.336 -223.185173 
L 276.7824 -223.596105 
L 277.2288 -224.001785 
L 277.6752 -224.402171 
L 278.1216 -224.797225 
L 278.568 -225.186907 
L 279.0144 -225.571177 
L 279.4608 -225.949997 
L 279.9072 -226.323329 
L 280.3536 -226.691136 
L 280.8 -227.053382 
L 281.2464 -227.410029 
L 281.6928 -227.761042 
L 282.1392 -228.106387 
L 282.5856 -228.446028 
L 283.032 -228.779932 
L 283.4784 -229.108066 
L 283.9248 -229.430395 
L 284.3712 -229.746889 
L 284.8176 -230.057515 
L 285.264 -230.362243 
L 285.7104 -230.661042 
L 286.1568 -230.953882 
L 286.6032 -231.240734 
L 287.0496 -231.521569 
L 287.496 -231.796359 
L 287.9424 -232.065077 
L 288.3888 -232.327696 
L 288.8352 -232.584189 
L 289.2816 -232.834531 
L 289.728 -233.078696 
L 290.1744 -233.316661 
L 290.6208 -233.548402 
L 291.0672 -233.773895 
L 291.5136 -233.993118 
L 291.96 -234.206049 
L 292.4064 -234.412666 
L 292.8528 -234.61295 
L 293.2992 -234.806879 
L 293.7456 -234.994435 
L 294.192 -235.175599 
L 294.6384 -235.350352 
L 295.0848 -235.518678 
L 295.5312 -235.680559 
L 295.9776 -235.83598 
L 296.424 -235.984924 
L 296.8704 -236.127376 
L 297.3168 -236.263324 
L 297.7632 -236.392752 
L 298.2096 -236.515648 
L 298.656 -236.632 
L 299.1024 -236.741796 
L 299.5488 -236.845024 
L 299.9952 -236.941676 
L 300.4416 -237.031741 
L 300.888 -237.11521 
L 301.3344 -237.192074 
L 301.7808 -237.262327 
L 302.2272 -237.325961 
L 302.6736 -237.382969 
L 303.12 -237.433346 
L 303.5664 -237.477088 
L 304.0128 -237.514188 
L 304.4592 -237.544645 
L 304.9056 -237.568454 
L 305.352 -237.585614 
L 305.7984 -237.596123 
L 306.2448 -237.599979 
L 306.6912 -237.597182 
L 307.1376 -237.587733 
L 307.584 -237.571633 
L 308.0304 -237.548882 
L 308.4768 -237.519484 
L 308.9232 -237.483441 
L 309.3696 -237.440757 
L 309.816 -237.391437 
L 310.2624 -237.335484 
L 310.7088 -237.272905 
L 311.1552 -237.203706 
L 311.6016 -237.127894 
L 312.048 -237.045477 
L 312.4944 -236.956462 
L 312.9408 -236.860858 
L 313.3872 -236.758676 
L 313.8336 -236.649926 
L 314.28 -236.534617 
L 314.7264 -236.412762 
L 315.1728 -236.284374 
L 315.6192 -236.149464 
L 316.0656 -236.008046 
L 316.512 -235.860135 
L 316.9584 -235.705745 
L 317.4048 -235.544892 
L 317.8512 -235.377592 
L 318.2976 -235.203861 
L 318.744 -235.023717 
L 319.1904 -234.837178 
L 319.6368 -234.644262 
L 320.0832 -234.444989 
L 320.5296 -234.239379 
L 320.976 -234.027452 
L 321.4224 -233.80923 
L 321.8688 -233.584734 
L 322.3152 -233.353987 
L 322.7616 -233.117012 
L 323.208 -232.873832 
L 323.6544 -232.624472 
L 324.1008 -232.368957 
L 324.5472 -232.107312 
L 324.9936 -231.839564 
L 325.44 -231.565739 
L 325.8864 -231.285865 
L 326.3328 -230.999969 
L 326.7792 -230.708081 
L 327.2256 -230.410229 
L 327.672 -230.106444 
L 328.1184 -229.796755 
L 328.5648 -229.481193 
L 329.0112 -229.159791 
L 329.4576 -228.83258 
L 329.904 -228.499593 
L 330.3504 -228.160863 
L 330.7968 -227.816424 
L 331.2432 -227.466311 
L 331.6896 -227.110559 
L 332.136 -226.749203 
L 332.5824 -226.382279 
L 333.0288 -226.009824 
L 333.4752 -225.631875 
L 333.9216 -225.248471 
L 334.368 -224.859649 
L 334.8144 -224.465448 
L 335.2608 -224.065908 
L 335.7072 -223.661068 
L 336.1536 -223.25097 
L 336.6 -222.835654 
L 337.0464 -222.415161 
L 337.4928 -221.989534 
L 337.9392 -221.558816 
L 338.3856 -221.123049 
L 338.832 -220.682276 
L 339.2784 -220.236543 
L 339.7248 -219.785894 
L 340.1712 -219.330373 
L 340.6176 -218.870026 
L 341.064 -218.404899 
L 341.5104 -217.935039 
L 341.9568 -217.460493 
L 342.4032 -216.981309 
L 342.8496 -216.497533 
L 343.296 -216.009214 
L 343.7424 -215.516403 
L 344.1888 -215.019146 
L 344.6352 -214.517495 
L 345.0816 -214.0115 
L 345.528 -213.50121 
L 345.9744 -212.986678 
L 346.4208 -212.467954 
L 346.8672 -211.945091 
L 347.3136 -211.41814 
L 347.76 -210.887155 
L 348.2064 -210.352188 
L 348.6528 -209.813293 
L 349.0992 -209.270525 
L 349.5456 -208.723936 
L 349.992 -208.173582 
L 350.4384 -207.619518 
L 350.8848 -207.0618 
L 351.3312 -206.500482 
L 351.7776 -205.935622 
L 352.224 -205.367275 
L 352.6704 -204.795499 
L 353.1168 -204.220351 
L 353.5632 -203.641887 
L 354.0096 -203.060167 
L 354.456 -202.475248 
L 354.9024 -201.887188 
L 355.3488 -201.296048 
L 355.7952 -200.701884 
L 356.2416 -200.104758 
L 356.688 -199.504729 
L 357.1344 -198.901856 
L 357.5808 -198.2962 
L 358.0272 -197.687822 
L 358.4736 -197.076783 
L 358.92 -196.463142 
L 359.3664 -195.846963 
L 359.8128 -195.228307 
L 360.2592 -194.607234 
L 360.7056 -193.983809 
L 361.152 -193.358092 
L 361.5984 -192.730146 
L 362.0448 -192.100035 
L 362.4912 -191.467821 
L 362.9376 -190.833567 
L 363.384 -190.197337 
L 363.8304 -189.559195 
L 364.2768 -188.919204 
L 364.7232 -188.277428 
L 365.1696 -187.633932 
L 365.616 -186.988779 
L 366.0624 -186.342035 
L 366.5088 -185.693764 
L 366.9552 -185.044031 
L 367.4016 -184.3929 
L 367.848 -183.740438 
L 368.2944 -183.086709 
L 368.7408 -182.431778 
L 369.1872 -181.775711 
L 369.6336 -181.118574 
L 370.08 -180.460432 
L 370.5264 -179.801351 
L 370.9728 -179.141398 
L 371.4192 -178.480637 
L 371.8656 -177.819136 
L 372.312 -177.15696 
L 372.7584 -176.494175 
L 373.2048 -175.830848 
L 373.6512 -175.167046 
L 374.0976 -174.502834 
L 374.544 -173.838278 
L 374.9904 -173.173446 
L 375.4368 -172.508404 
L 375.8832 -171.843219 
L 376.3296 -171.177956 
L 376.3296 -171.072 
L 376.3296 -171.072 
L 375.8832 -171.072 
L 375.4368 -171.072 
L 374.9904 -171.072 
L 374.544 -171.072 
L 374.0976 -171.072 
L 373.6512 -171.072 
L 373.2048 -171.072 
L 372.7584 -171.072 
L 372.312 -171.072 
L 371.8656 -171.072 
L 371.4192 -171.072 
L 370.9728 -171.072 
L 370.5264 -171.072 
L 370.08 -171.072 
L 369.6336 -171.072 
L 369.1872 -171.072 
L 368.7408 -171.072 
L 368.2944 -171.072 
L 367.848 -171.072 
L 367.4016 -171.072 
L 366.9552 -171.072 
L 366.5088 -171.072 
L 366.0624 -171.072 
L 365.616 -171.072 
L 365.1696 -171.072 
L 364.7232 -171.072 
L 364.2768 -171.072 
L 363.8304 -171.072 
L 363.384 -171.072 
L 362.9376 -171.072 
L 362.4912 -171.072 
L 362.0448 -171.072 
L 361.5984 -171.072 
L 361.152 -171.072 
L 360.7056 -171.072 
L 360.2592 -171.072 
L 359.8128 -171.072 
L 359.3664 -171.072 
L 358.92 -171.072 
L 358.4736 -171.072 
L 358.0272 -171.072 
L 357.5808 -171.072 
L 357.1344 -171.072 
L 356.688 -171.072 
L 356.2416 -171.072 
L 355.7952 -171.072 
L 355.3488 -171.072 
L 354.9024 -171.072 
L 354.456 -171.072 
L 354.0096 -171.072 
L 353.5632 -171.072 
L 353.1168 -171.072 
L 352.6704 -171.072 
L 352.224 -171.072 
L 351.7776 -171.072 
L 351.3312 -171.072 
L 350.8848 -171.072 
L 350.4384 -171.072 
L 349.992 -171.072 
L 349.5456 -171.072 
L 349.0992 -171.072 
L 348.6528 -171.072 
L 348.2064 -171.072 
L 347.76 -171.072 
L 347.3136 -171.072 
L 346.8672 -171.072 
L 346.4208 -171.072 
L 345.9744 -171.072 
L 345.528 -171.072 
L 345.0816 -171.072 
L 344.6352 -171.072 
L 344.1888 -171.072 
L 343.7424 -171.072 
L 343.296 -171.072 
L 342.8496 -171.072 
L 342.4032 -171.072 
L 341.9568 -171.072 
L 341.5104 -171.072 
L 341.064 -171.072 
L 340.6176 -171.072 
L 340.1712 -171.072 
L 339.7248 -171.072 
L 339.2784 -171.072 
L 338.832 -171.072 
L 338.3856 -171.072 
L 337.9392 -171.072 
L 337.4928 -171.072 
L 337.0464 -171.072 
L 336.6 -171.072 
L 336.1536 -171.072 
L 335.7072 -171.072 
L 335.2608 -171.072 
L 334.8144 -171.072 
L 334.368 -171.072 
L 333.9216 -171.072 
L 333.4752 -171.072 
L 333.0288 -171.072 
L 332.5824 -171.072 
L 332.136 -171.072 
L 331.6896 -171.072 
L 331.2432 -171.072 
L 330.7968 -171.072 
L 330.3504 -171.072 
L 329.904 -171.072 
L 329.4576 -171.072 
L 329.0112 -171.072 
L 328.5648 -171.072 
L 328.1184 -171.072 
L 327.672 -171.072 
L 327.2256 -171.072 
L 326.7792 -171.072 
L 326.3328 -171.072 
L 325.8864 -171.072 
L 325.44 -171.072 
L 324.9936 -171.072 
L 324.5472 -171.072 
L 324.1008 -171.072 
L 323.6544 -171.072 
L 323.208 -171.072 
L 322.7616 -171.072 
L 322.3152 -171.072 
L 321.8688 -171.072 
L 321.4224 -171.072 
L 320.976 -171.072 
L 320.5296 -171.072 
L 320.0832 -171.072 
L 319.6368 -171.072 
L 319.1904 -171.072 
L 318.744 -171.072 
L 318.2976 -171.072 
L 317.8512 -171.072 
L 317.4048 -171.072 
L 316.9584 -171.072 
L 316.512 -171.072 
L 316.0656 -171.072 
L 315.6192 -171.072 
L 315.1728 -171.072 
L 314.7264 -171.072 
L 314.28 -171.072 
L 313.8336 -171.072 
L 313.3872 -171.072 
L 312.9408 -171.072 
L 312.4944 -171.072 
L 312.048 -171.072 
L 311.6016 -171.072 
L 311.1552 -171.072 
L 310.7088 -171.072 
L 310.2624 -171.072 
L 309.816 -171.072 
L 309.3696 -171.072 
L 308.9232 -171.072 
L 308.4768 -171.072 
L 308.0304 -171.072 
L 307.584 -171.072 
L 307.1376 -171.072 
L 306.6912 -171.072 
L 306.2448 -171.072 
L 305.7984 -171.072 
L 305.352 -171.072 
L 304.9056 -171.072 
L 304.4592 -171.072 
L 304.0128 -171.072 
L 303.5664 -171.072 
L 303.12 -171.072 
L 302.6736 -171.072 
L 302.2272 -171.072 
L 301.7808 -171.072 
L 301.3344 -171.072 
L 300.888 -171.072 
L 300.4416 -171.072 
L 299.9952 -171.072 
L 299.5488 -171.072 
L 299.1024 -171.072 
L 298.656 -171.072 
L 298.2096 -171.072 
L 297.7632 -171.072 
L 297.3168 -171.072 
L 296.8704 -171.072 
L 296.424 -171.072 
L 295.9776 -171.072 
L 295.5312 -171.072 
L 295.0848 -171.072 
L 294.6384 -171.072 
L 294.192 -171.072 
L 293.7456 -171.072 
L 293.2992 -171.072 
L 292.8528 -171.072 
L 292.4064 -171.072 
L 291.96 -171.072 
L 291.5136 -171.072 
L 291.0672 -171.072 
L 290.6208 -171.072 
L 290.1744 -171.072 
L 289.728 -171.072 
L 289.2816 -171.072 
L 288.8352 -171.072 
L 288.3888 -171.072 
L 287.9424 -171.072 
L 287.496 -171.072 
L 287.0496 -171.072 
L 286.6032 -171.072 
L 286.1568 -171.072 
L 285.7104 -171.072 
L 285.264 -171.072 
L 284.8176 -171.072 
L 284.3712 -171.072 
L 283.9248 -171.072 
L 283.4784 -171.072 
L 283.032 -171.072 
L 282.5856 -171.072 
L 282.1392 -171.072 
L 281.6928 -171.072 
L 281.2464 -171.072 
L 280.8 -171.072 
L 280.3536 -171.072 
L 279.9072 -171.072 
L 279.4608 -171.072 
L 279.0144 -171.072 
L 278.568 -171.072 
L 278.1216 -171.072 
L 277.6752 -171.072 
L 277.2288 -171.072 
L 276.7824 -171.072 
L 276.336 -171.072 
L 275.8896 -171.072 
L 275.4432 -171.072 
L 274.9968 -171.072 
L 274.5504 -171.072 
L 274.104 -171.072 
L 273.6576 -171.072 
L 273.2112 -171.072 
L 272.7648 -171.072 
L 272.3184 -171.072 
L 271.872 -171.072 
L 271.4256 -171.072 
L 270.9792 -171.072 
L 270.5328 -171.072 
L 270.0864 -171.072 
L 269.64 -171.072 
L 269.1936 -171.072 
L 268.7472 -171.072 
L 268.3008 -171.072 
L 267.8544 -171.072 
L 267.408 -171.072 
L 266.9616 -171.072 
L 266.5152 -171.072 
L 266.0688 -171.072 
L 265.6224 -171.072 
L 265.176 -171.072 
L 264.7296 -171.072 
L 264.2832 -171.072 
L 263.8368 -171.072 
L 263.3904 -171.072 
L 262.944 -171.072 
L 262.4976 -171.072 
L 262.0512 -171.072 
L 261.6048 -171.072 
L 261.1584 -171.072 
L 260.712 -171.072 
L 260.2656 -171.072 
L 259.8192 -171.072 
L 259.3728 -171.072 
L 258.9264 -171.072 
L 258.48 -171.072 
L 258.0336 -171.072 
L 257.5872 -171.072 
L 257.1408 -171.072 
L 256.6944 -171.072 
L 256.248 -171.072 
L 255.8016 -171.072 
L 255.3552 -171.072 
L 254.9088 -171.072 
L 254.4624 -171.072 
L 254.016 -171.072 
L 253.5696 -171.072 
L 253.1232 -171.072 
L 252.6768 -171.072 
L 252.2304 -171.072 
L 251.784 -171.072 
L 251.3376 -171.072 
L 250.8912 -171.072 
L 250.4448 -171.072 
L 249.9984 -171.072 
L 249.552 -171.072 
L 249.1056 -171.072 
L 248.6592 -171.072 
L 248.2128 -171.072 
L 247.7664 -171.072 
L 247.32 -171.072 
L 246.8736 -171.072 
L 246.4272 -171.072 
L 245.9808 -171.072 
L 245.5344 -171.072 
L 245.088 -171.072 
L 244.6416 -171.072 
L 244.1952 -171.072 
L 243.7488 -171.072 
L 243.3024 -171.072 
L 242.856 -171.072 
L 242.4096 -171.072 
L 241.9632 -171.072 
L 241.5168 -171.072 
L 241.0704 -171.072 
L 240.624 -171.072 
L 240.1776 -171.072 
L 239.7312 -171.072 
L 239.2848 -171.072 
L 238.8384 -171.072 
L 238.392 -171.072 
L 237.9456 -171.072 
L 237.4992 -171.072 
L 237.0528 -171.072 
L 236.6064 -171.072 
z
" style="stroke: #00fa9a; stroke-opacity: 0.7"/>
    </defs>
    <g clip-path="url(#p879298aef5)">
     <use xlink:href="#mad7d8e44aa" x="0" y="345.6" style="fill: #00fa9a; fill-opacity: 0.7; stroke: #00fa9a; stroke-opacity: 0.7"/>
    </g>
   </g>
   <g id="text_21">
    <!-- f(x) = sin(x) -->
    <g style="fill: #d3d3d3" transform="translate(200.145 35.472) scale(0.12 -0.12)">
     <defs>
      <path id="DejaVuSans-66" d="M 2375 4863 
L 2375 4384 
L 1825 4384 
Q 1516 4384 1395 4259 
Q 1275 4134 1275 3809 
L 1275 3500 
L 2222 3500 
L 2222 3053 
L 1275 3053 
L 1275 0 
L 697 0 
L 697 3053 
L 147 3053 
L 147 3500 
L 697 3500 
L 697 3744 
Q 697 4328 969 4595 
Q 1241 4863 1831 4863 
L 2375 4863 
z
" transform="scale(0.015625)"/>
      <path id="DejaVuSans-28" d="M 1984 4856 
Q 1566 4138 1362 3434 
Q 1159 2731 1159 2009 
Q 1159 1288 1364 580 
Q 1569 -128 1984 -844 
L 1484 -844 
Q 1016 -109 783 600 
Q 550 1309 550 2009 
Q 550 2706 781 3412 
Q 1013 4119 1484 4856 
L 1984 4856 
z
" transform="scale(0.015625)"/>
      <path id="DejaVuSans-78" d="M 3513 3500 
L 2247 1797 
L 3578 0 
L 2900 0 
L 1881 1375 
L 863 0 
L 184 0 
L 1544 1831 
L 300 3500 
L 978 3500 
L 1906 2253 
L 2834 3500 
L 3513 3500 
z
" transform="scale(0.015625)"/>
      <path id="DejaVuSans-29" d="M 513 4856 
L 1013 4856 
Q 1481 4119 1714 3412 
Q 1947 2706 1947 2009 
Q 1947 1309 1714 600 
Q 1481 -109 1013 -844 
L 513 -844 
Q 928 -128 1133 580 
Q 1338 1288 1338 2009 
Q 1338 2731 1133 3434 
Q 928 4138 513 4856 
z
" transform="scale(0.015625)"/>
      <path id="DejaVuSans-20" transform="scale(0.015625)"/>
      <path id="DejaVuSans-3d" d="M 678 2906 
L 4684 2906 
L 4684 2381 
L 678 2381 
L 678 2906 
z
M 678 1631 
L 4684 1631 
L 4684 1100 
L 678 1100 
L 678 1631 
z
" transform="scale(0.015625)"/>
      <path id="DejaVuSans-69" d="M 603 3500 
L 1178 3500 
L 1178 0 
L 603 0 
L 603 3500 
z
M 603 4863 
L 1178 4863 
L 1178 4134 
L 603 4134 
L 603 4863 
z
" transform="scale(0.015625)"/>
      <path id="DejaVuSans-6e" d="M 3513 2113 
L 3513 0 
L 2938 0 
L 2938 2094 
Q 2938 2591 2744 2837 
Q 2550 3084 2163 3084 
Q 1697 3084 1428 2787 
Q 1159 2491 1159 1978 
L 1159 0 
L 581 0 
L 581 3500 
L 1159 3500 
L 1159 2956 
Q 1366 3272 1645 3428 
Q 1925 3584 2291 3584 
Q 2894 3584 3203 3211 
Q 3513 2838 3513 2113 
z
" transform="scale(0.015625)"/>
     </defs>
     <use xlink:href="#DejaVuSans-66"/>
     <use xlink:href="#DejaVuSans-28" x="35.205078"/>
     <use xlink:href="#DejaVuSans-78" x="74.21875"/>
     <use xlink:href="#DejaVuSans-29" x="133.398438"/>
     <use xlink:href="#DejaVuSans-20" x="172.412109"/>
     <use xlink:href="#DejaVuSans-3d" x="204.199219"/>
     <use xlink:href="#DejaVuSans-20" x="287.988281"/>
     <use xlink:href="#DejaVuSans-73" x="319.775391"/>
     <use xlink:href="#DejaVuSans-69" x="371.875"/>
     <use xlink:href="#DejaVuSans-6e" x="399.658203"/>
     <use xlink:href="#DejaVuSans-28" x="463.037109"/>
     <use xlink:href="#DejaVuSans-78" x="502.050781"/>
     <use xlink:href="#DejaVuSans-29" x="561.230469"/>
    </g>
   </g>
   <g id="text_22">
    <!-- $I$ -->
    <g style="fill: #ffffff" transform="translate(164.923652 207.792) scale(0.1728 -0.1728)">
     <defs>
      <path id="DejaVuSans-Oblique-49" d="M 1081 4666 
L 1716 4666 
L 806 0 
L 172 0 
L 1081 4666 
z
" transform="scale(0.015625)"/>
     </defs>
     <use xlink:href="#DejaVuSans-Oblique-49" transform="translate(0 0.09375)"/>
    </g>
   </g>
   <g id="text_23">
    <!-- $II$ -->
    <g style="fill: #ffffff" transform="translate(301.816348 147.9168) scale(0.1728 -0.1728)">
     <use xlink:href="#DejaVuSans-Oblique-49" transform="translate(0 0.09375)"/>
     <use xlink:href="#DejaVuSans-Oblique-49" transform="translate(29.492188 0.09375)"/>
    </g>
   </g>
   <g id="legend_1">
    <g id="patch_7">
     <path d="M 316.52 64.150125 
L 407.72 64.150125 
Q 409.72 64.150125 409.72 62.150125 
L 409.72 48.472 
Q 409.72 46.472 407.72 46.472 
L 316.52 46.472 
Q 314.52 46.472 314.52 48.472 
L 314.52 62.150125 
Q 314.52 64.150125 316.52 64.150125 
z
" style="fill: #ffffff; opacity: 0.8; stroke: #cccccc; stroke-linejoin: miter"/>
    </g>
    <g id="line2d_20">
     <path d="M 318.52 54.570438 
L 328.52 54.570438 
L 338.52 54.570438 
" style="fill: none; stroke: #00ced1; stroke-width: 1.5; stroke-linecap: square"/>
    </g>
    <g id="text_24">
     <!-- $f(x) = \sin{\left(x \right)}$ -->
     <g transform="translate(346.52 58.070438) scale(0.1 -0.1)">
      <defs>
       <path id="DejaVuSans-Oblique-66" d="M 3059 4863 
L 2969 4384 
L 2419 4384 
Q 2106 4384 1964 4261 
Q 1822 4138 1753 3809 
L 1691 3500 
L 2638 3500 
L 2553 3053 
L 1606 3053 
L 1013 0 
L 434 0 
L 1031 3053 
L 481 3053 
L 563 3500 
L 1113 3500 
L 1159 3744 
Q 1278 4363 1576 4613 
Q 1875 4863 2516 4863 
L 3059 4863 
z
" transform="scale(0.015625)"/>
       <path id="DejaVuSans-Oblique-78" d="M 3841 3500 
L 2234 1784 
L 3219 0 
L 2559 0 
L 1819 1388 
L 531 0 
L -166 0 
L 1556 1844 
L 641 3500 
L 1300 3500 
L 1972 2234 
L 3144 3500 
L 3841 3500 
z
" transform="scale(0.015625)"/>
      </defs>
      <use xlink:href="#DejaVuSans-Oblique-66" transform="translate(0 0.015625)"/>
      <use xlink:href="#DejaVuSans-28" transform="translate(35.205078 0.015625)"/>
      <use xlink:href="#DejaVuSans-Oblique-78" transform="translate(74.21875 0.015625)"/>
      <use xlink:href="#DejaVuSans-29" transform="translate(133.398438 0.015625)"/>
      <use xlink:href="#DejaVuSans-3d" transform="translate(191.894531 0.015625)"/>
      <use xlink:href="#DejaVuSans-73" transform="translate(295.166016 0.015625)"/>
      <use xlink:href="#DejaVuSans-69" transform="translate(347.265625 0.015625)"/>
      <use xlink:href="#DejaVuSans-6e" transform="translate(375.048828 0.015625)"/>
      <use xlink:href="#DejaVuSans-28" transform="translate(454.663411 0.015625)"/>
      <use xlink:href="#DejaVuSans-Oblique-78" transform="translate(493.677083 0.015625)"/>
      <use xlink:href="#DejaVuSans-29" transform="translate(552.85677 0.015625)"/>
     </g>
    </g>
   </g>
  </g>
 </g>
 <defs>
  <clipPath id="p879298aef5">
   <rect x="57.6" y="41.472" width="357.12" height="266.112"/>
  </clipPath>
 </defs>
</svg>
