<?xml version="1.0" encoding="utf-8" standalone="no"?>
<!DOCTYPE svg PUBLIC "-//W3C//DTD SVG 1.1//EN"
  "http://www.w3.org/Graphics/SVG/1.1/DTD/svg11.dtd">
<svg xmlns:xlink="http://www.w3.org/1999/xlink" width="460.8pt" height="345.6pt" viewBox="0 0 460.8 345.6" xmlns="http://www.w3.org/2000/svg" version="1.1">
 <metadata>
  <rdf:RDF xmlns:dc="http://purl.org/dc/elements/1.1/" xmlns:cc="http://creativecommons.org/ns#" xmlns:rdf="http://www.w3.org/1999/02/22-rdf-syntax-ns#">
   <cc:Work>
    <dc:type rdf:resource="http://purl.org/dc/dcmitype/StillImage"/>
    <dc:date>2025-03-16T18:16:41.514450</dc:date>
    <dc:format>image/svg+xml</dc:format>
    <dc:creator>
     <cc:Agent>
      <dc:title>Matplotlib v3.8.3, https://matplotlib.org/</dc:title>
     </cc:Agent>
    </dc:creator>
   </cc:Work>
  </rdf:RDF>
 </metadata>
 <defs>
  <style type="text/css">*{stroke-linejoin: round; stroke-linecap: butt}</style>
 </defs>
 <g id="figure_1">
  <g id="patch_1">
   <path d="M 0 345.6 
L 460.8 345.6 
L 460.8 0 
L 0 0 
L 0 345.6 
z
" style="fill: none"/>
  </g>
  <g id="axes_1">
   <g id="patch_2">
    <path d="M 57.6 307.584 
L 414.72 307.584 
L 414.72 41.472 
L 57.6 41.472 
L 57.6 307.584 
z
" style="fill: none"/>
   </g>
   <g id="LineCollection_1">
    <path d="M 57.6 174.528 
L 414.72 174.528 
" clip-path="url(#p63c32fa345)" style="fill: none; stroke: #d3d3d3; stroke-width: 1.5"/>
   </g>
   <g id="LineCollection_2">
    <path d="M 176.64 307.584 
L 176.64 41.472 
" clip-path="url(#p63c32fa345)" style="fill: none; stroke: #d3d3d3; stroke-width: 1.5"/>
   </g>
   <g id="matplotlib.axis_1">
    <g id="text_1">
     <!-- X-as -->
     <g style="fill: #d3d3d3" transform="translate(225.512344 319.182437) scale(0.1 -0.1)">
      <defs>
       <path id="DejaVuSans-58" d="M 403 4666 
L 1081 4666 
L 2241 2931 
L 3406 4666 
L 4084 4666 
L 2584 2425 
L 4184 0 
L 3506 0 
L 2194 1984 
L 872 0 
L 191 0 
L 1856 2491 
L 403 4666 
z
" transform="scale(0.015625)"/>
       <path id="DejaVuSans-2d" d="M 313 2009 
L 1997 2009 
L 1997 1497 
L 313 1497 
L 313 2009 
z
" transform="scale(0.015625)"/>
       <path id="DejaVuSans-61" d="M 2194 1759 
Q 1497 1759 1228 1600 
Q 959 1441 959 1056 
Q 959 750 1161 570 
Q 1363 391 1709 391 
Q 2188 391 2477 730 
Q 2766 1069 2766 1631 
L 2766 1759 
L 2194 1759 
z
M 3341 1997 
L 3341 0 
L 2766 0 
L 2766 531 
Q 2569 213 2275 61 
Q 1981 -91 1556 -91 
Q 1019 -91 701 211 
Q 384 513 384 1019 
Q 384 1609 779 1909 
Q 1175 2209 1959 2209 
L 2766 2209 
L 2766 2266 
Q 2766 2663 2505 2880 
Q 2244 3097 1772 3097 
Q 1472 3097 1187 3025 
Q 903 2953 641 2809 
L 641 3341 
Q 956 3463 1253 3523 
Q 1550 3584 1831 3584 
Q 2591 3584 2966 3190 
Q 3341 2797 3341 1997 
z
" transform="scale(0.015625)"/>
       <path id="DejaVuSans-73" d="M 2834 3397 
L 2834 2853 
Q 2591 2978 2328 3040 
Q 2066 3103 1784 3103 
Q 1356 3103 1142 2972 
Q 928 2841 928 2578 
Q 928 2378 1081 2264 
Q 1234 2150 1697 2047 
L 1894 2003 
Q 2506 1872 2764 1633 
Q 3022 1394 3022 966 
Q 3022 478 2636 193 
Q 2250 -91 1575 -91 
Q 1294 -91 989 -36 
Q 684 19 347 128 
L 347 722 
Q 666 556 975 473 
Q 1284 391 1588 391 
Q 1994 391 2212 530 
Q 2431 669 2431 922 
Q 2431 1156 2273 1281 
Q 2116 1406 1581 1522 
L 1381 1569 
Q 847 1681 609 1914 
Q 372 2147 372 2553 
Q 372 3047 722 3315 
Q 1072 3584 1716 3584 
Q 2034 3584 2315 3537 
Q 2597 3491 2834 3397 
z
" transform="scale(0.015625)"/>
      </defs>
      <use xlink:href="#DejaVuSans-58"/>
      <use xlink:href="#DejaVuSans-2d" x="63.505859"/>
      <use xlink:href="#DejaVuSans-61" x="99.589844"/>
      <use xlink:href="#DejaVuSans-73" x="160.869141"/>
     </g>
    </g>
   </g>
   <g id="matplotlib.axis_2">
    <g id="text_2">
     <!-- Y-as -->
     <g style="fill: #d3d3d3" transform="translate(51.520313 184.460813) rotate(-90) scale(0.1 -0.1)">
      <defs>
       <path id="DejaVuSans-59" d="M -13 4666 
L 666 4666 
L 1959 2747 
L 3244 4666 
L 3922 4666 
L 2272 2222 
L 2272 0 
L 1638 0 
L 1638 2222 
L -13 4666 
z
" transform="scale(0.015625)"/>
      </defs>
      <use xlink:href="#DejaVuSans-59"/>
      <use xlink:href="#DejaVuSans-2d" x="49.208984"/>
      <use xlink:href="#DejaVuSans-61" x="85.292969"/>
      <use xlink:href="#DejaVuSans-73" x="146.572266"/>
     </g>
    </g>
   </g>
   <g id="line2d_1">
    <path d="M 57.6 263.232 
L 60.576 269.554932 
L 62.9568 274.145453 
L 65.3376 278.329354 
L 67.7184 282.115152 
L 70.0992 285.511362 
L 72.48 288.5265 
L 74.8608 291.169081 
L 77.2416 293.447621 
L 79.6224 295.370635 
L 82.0032 296.946638 
L 84.384 298.184148 
L 86.1696 298.895266 
L 87.9552 299.424363 
L 89.7408 299.775032 
L 91.5264 299.950866 
L 93.312 299.955456 
L 95.6928 299.701408 
L 98.0736 299.15783 
L 100.4544 298.333237 
L 102.8352 297.236146 
L 105.216 295.875072 
L 107.5968 294.25853 
L 109.9776 292.395037 
L 112.3584 290.293107 
L 115.3344 287.343366 
L 118.3104 284.051006 
L 121.2864 280.432659 
L 124.2624 276.504957 
L 127.8336 271.406783 
L 131.4048 265.915828 
L 135.5712 259.051624 
L 139.7376 251.737558 
L 144.4992 242.886318 
L 149.2608 233.575237 
L 154.6176 222.635439 
L 161.1648 208.732795 
L 169.4976 190.4564 
L 194.496 135.209952 
L 201.0432 121.503432 
L 206.4 110.772 
L 211.1616 101.682324 
L 215.9232 93.086551 
L 220.0896 86.023961 
L 224.256 79.437312 
L 227.8272 74.205018 
L 231.3984 69.384665 
L 234.3744 65.703116 
L 237.3504 62.344229 
L 240.3264 59.324634 
L 243.3024 56.660963 
L 245.6832 54.79747 
L 248.064 53.180928 
L 250.4448 51.819854 
L 252.8256 50.722763 
L 255.2064 49.89817 
L 257.5872 49.354592 
L 259.968 49.100544 
L 261.7536 49.105134 
L 263.5392 49.280968 
L 265.3248 49.631637 
L 267.1104 50.160734 
L 268.896 50.871852 
L 270.6816 51.768583 
L 273.0624 53.259165 
L 275.4432 55.094628 
L 277.824 57.283488 
L 280.2048 59.83426 
L 282.5856 62.75546 
L 284.9664 66.055604 
L 287.3472 69.743207 
L 289.728 73.826784 
L 292.1088 78.314852 
L 294.4896 83.215925 
L 296.8704 88.53852 
L 299.8464 95.797501 
L 302.8224 103.745047 
L 305.7984 112.397789 
L 308.7744 121.77236 
L 311.7504 131.885393 
L 314.7264 142.753518 
L 317.7024 154.393367 
L 320.6784 166.821574 
L 324.2496 182.799471 
L 327.8208 199.965291 
L 331.392 218.347776 
L 334.9632 237.975665 
L 338.5344 258.877698 
L 342.1056 281.082616 
L 345.6768 304.619158 
L 349.248 329.516064 
L 351.590392 346.6 
L 351.590392 346.6 
" clip-path="url(#p63c32fa345)" style="fill: none; stroke: #00ced1; stroke-width: 1.5; stroke-linecap: square"/>
   </g>
   <g id="line2d_2">
    <path d="M 57.6 263.232 
L 412.197056 -1 
L 412.197056 -1 
" clip-path="url(#p63c32fa345)" style="fill: none; stroke: #dc143c; stroke-width: 1.5; stroke-linecap: square"/>
   </g>
   <g id="patch_3">
    <path d="M 57.6 307.584 
L 57.6 41.472 
" style="fill: none; stroke: #d3d3d3; stroke-width: 0.8; stroke-linejoin: miter; stroke-linecap: square"/>
   </g>
   <g id="patch_4">
    <path d="M 414.72 307.584 
L 414.72 41.472 
" style="fill: none; stroke: #d3d3d3; stroke-width: 0.8; stroke-linejoin: miter; stroke-linecap: square"/>
   </g>
   <g id="patch_5">
    <path d="M 57.6 307.584 
L 414.72 307.584 
" style="fill: none; stroke: #d3d3d3; stroke-width: 0.8; stroke-linejoin: miter; stroke-linecap: square"/>
   </g>
   <g id="patch_6">
    <path d="M 57.6 41.472 
L 414.72 41.472 
" style="fill: none; stroke: #d3d3d3; stroke-width: 0.8; stroke-linejoin: miter; stroke-linecap: square"/>
   </g>
   <g id="PolyCollection_1">
    <defs>
     <path id="m868a4e21b1" d="M 176.64 -171.072 
L 176.64 -171.072 
L 177.2352 -172.402538 
L 177.8304 -173.732943 
L 178.4256 -175.063081 
L 179.0208 -176.392821 
L 179.616 -177.722028 
L 180.2112 -179.05057 
L 180.8064 -180.378314 
L 181.4016 -181.705126 
L 181.9968 -183.030874 
L 182.592 -184.355424 
L 183.1872 -185.678644 
L 183.7824 -187.0004 
L 184.3776 -188.320559 
L 184.9728 -189.638989 
L 185.568 -190.955556 
L 186.1632 -192.270127 
L 186.7584 -193.582569 
L 187.3536 -194.89275 
L 187.9488 -196.200535 
L 188.544 -197.505792 
L 189.1392 -198.808388 
L 189.7344 -200.10819 
L 190.3296 -201.405065 
L 190.9248 -202.698879 
L 191.52 -203.9895 
L 192.1152 -205.276795 
L 192.7104 -206.56063 
L 193.3056 -207.840872 
L 193.9008 -209.11739 
L 194.496 -210.390048 
L 195.0912 -211.658715 
L 195.6864 -212.923257 
L 196.2816 -214.183541 
L 196.8768 -215.439434 
L 197.472 -216.690804 
L 198.0672 -217.937517 
L 198.6624 -219.179439 
L 199.2576 -220.416439 
L 199.8528 -221.648382 
L 200.448 -222.875136 
L 201.0432 -224.096568 
L 201.6384 -225.312545 
L 202.2336 -226.522933 
L 202.8288 -227.7276 
L 203.424 -228.926412 
L 204.0192 -230.119237 
L 204.6144 -231.305941 
L 205.2096 -232.486392 
L 205.8048 -233.660456 
L 206.4 -234.828 
L 206.9952 -235.988891 
L 207.5904 -237.142997 
L 208.1856 -238.290184 
L 208.7808 -239.430318 
L 209.376 -240.563268 
L 209.9712 -241.6889 
L 210.5664 -242.80708 
L 211.1616 -243.917676 
L 211.7568 -245.020555 
L 212.352 -246.115584 
L 212.9472 -247.202629 
L 213.5424 -248.281558 
L 214.1376 -249.352238 
L 214.7328 -250.414535 
L 215.328 -251.468316 
L 215.9232 -252.513449 
L 216.5184 -253.5498 
L 217.1136 -254.577236 
L 217.7088 -255.595624 
L 218.304 -256.604832 
L 218.8992 -257.604726 
L 219.4944 -258.595172 
L 220.0896 -259.576039 
L 220.6848 -260.547193 
L 221.28 -261.5085 
L 221.8752 -262.459828 
L 222.4704 -263.401044 
L 223.0656 -264.332015 
L 223.6608 -265.252607 
L 224.256 -266.162688 
L 224.8512 -267.062124 
L 225.4464 -267.950783 
L 226.0416 -268.828531 
L 226.6368 -269.695236 
L 227.232 -270.550764 
L 227.8272 -271.394982 
L 228.4224 -272.227757 
L 229.0176 -273.048957 
L 229.6128 -273.858447 
L 230.208 -274.656096 
L 230.8032 -275.44177 
L 231.3984 -276.215335 
L 231.9936 -276.976659 
L 232.5888 -277.725609 
L 233.184 -278.462052 
L 233.7792 -279.185854 
L 234.3744 -279.896884 
L 234.9696 -280.595006 
L 235.5648 -281.280089 
L 236.16 -281.952 
L 236.7552 -282.610605 
L 237.3504 -283.255771 
L 237.9456 -283.887366 
L 238.5408 -284.505256 
L 239.136 -285.109308 
L 239.7312 -285.699389 
L 240.3264 -286.275366 
L 240.9216 -286.837107 
L 241.5168 -287.384477 
L 242.112 -287.917344 
L 242.7072 -288.435575 
L 243.3024 -288.939037 
L 243.8976 -289.427596 
L 244.4928 -289.90112 
L 245.088 -290.359476 
L 245.6832 -290.80253 
L 246.2784 -291.23015 
L 246.8736 -291.642202 
L 247.4688 -292.038554 
L 248.064 -292.419072 
L 248.6592 -292.783623 
L 248.6592 -224.73792 
L 248.6592 -224.73792 
L 248.064 -224.2944 
L 247.4688 -223.85088 
L 246.8736 -223.40736 
L 246.2784 -222.96384 
L 245.6832 -222.52032 
L 245.088 -222.0768 
L 244.4928 -221.63328 
L 243.8976 -221.18976 
L 243.3024 -220.74624 
L 242.7072 -220.30272 
L 242.112 -219.8592 
L 241.5168 -219.41568 
L 240.9216 -218.97216 
L 240.3264 -218.52864 
L 239.7312 -218.08512 
L 239.136 -217.6416 
L 238.5408 -217.19808 
L 237.9456 -216.75456 
L 237.3504 -216.31104 
L 236.7552 -215.86752 
L 236.16 -215.424 
L 235.5648 -214.98048 
L 234.9696 -214.53696 
L 234.3744 -214.09344 
L 233.7792 -213.64992 
L 233.184 -213.2064 
L 232.5888 -212.76288 
L 231.9936 -212.31936 
L 231.3984 -211.87584 
L 230.8032 -211.43232 
L 230.208 -210.9888 
L 229.6128 -210.54528 
L 229.0176 -210.10176 
L 228.4224 -209.65824 
L 227.8272 -209.21472 
L 227.232 -208.7712 
L 226.6368 -208.32768 
L 226.0416 -207.88416 
L 225.4464 -207.44064 
L 224.8512 -206.99712 
L 224.256 -206.5536 
L 223.6608 -206.11008 
L 223.0656 -205.66656 
L 222.4704 -205.22304 
L 221.8752 -204.77952 
L 221.28 -204.336 
L 220.6848 -203.89248 
L 220.0896 -203.44896 
L 219.4944 -203.00544 
L 218.8992 -202.56192 
L 218.304 -202.1184 
L 217.7088 -201.67488 
L 217.1136 -201.23136 
L 216.5184 -200.78784 
L 215.9232 -200.34432 
L 215.328 -199.9008 
L 214.7328 -199.45728 
L 214.1376 -199.01376 
L 213.5424 -198.57024 
L 212.9472 -198.12672 
L 212.352 -197.6832 
L 211.7568 -197.23968 
L 211.1616 -196.79616 
L 210.5664 -196.35264 
L 209.9712 -195.90912 
L 209.376 -195.4656 
L 208.7808 -195.02208 
L 208.1856 -194.57856 
L 207.5904 -194.13504 
L 206.9952 -193.69152 
L 206.4 -193.248 
L 205.8048 -192.80448 
L 205.2096 -192.36096 
L 204.6144 -191.91744 
L 204.0192 -191.47392 
L 203.424 -191.0304 
L 202.8288 -190.58688 
L 202.2336 -190.14336 
L 201.6384 -189.69984 
L 201.0432 -189.25632 
L 200.448 -188.8128 
L 199.8528 -188.36928 
L 199.2576 -187.92576 
L 198.6624 -187.48224 
L 198.0672 -187.03872 
L 197.472 -186.5952 
L 196.8768 -186.15168 
L 196.2816 -185.70816 
L 195.6864 -185.26464 
L 195.0912 -184.82112 
L 194.496 -184.3776 
L 193.9008 -183.93408 
L 193.3056 -183.49056 
L 192.7104 -183.04704 
L 192.1152 -182.60352 
L 191.52 -182.16 
L 190.9248 -181.71648 
L 190.3296 -181.27296 
L 189.7344 -180.82944 
L 189.1392 -180.38592 
L 188.544 -179.9424 
L 187.9488 -179.49888 
L 187.3536 -179.05536 
L 186.7584 -178.61184 
L 186.1632 -178.16832 
L 185.568 -177.7248 
L 184.9728 -177.28128 
L 184.3776 -176.83776 
L 183.7824 -176.39424 
L 183.1872 -175.95072 
L 182.592 -175.5072 
L 181.9968 -175.06368 
L 181.4016 -174.62016 
L 180.8064 -174.17664 
L 180.2112 -173.73312 
L 179.616 -173.2896 
L 179.0208 -172.84608 
L 178.4256 -172.40256 
L 177.8304 -171.95904 
L 177.2352 -171.51552 
L 176.64 -171.072 
z
" style="stroke: #ba55d3; stroke-opacity: 0.7"/>
    </defs>
    <g clip-path="url(#p63c32fa345)">
     <use xlink:href="#m868a4e21b1" x="0" y="345.6" style="fill: #ba55d3; fill-opacity: 0.7; stroke: #ba55d3; stroke-opacity: 0.7"/>
    </g>
   </g>
   <g id="PolyCollection_2">
    <defs>
     <path id="ma4f833b0fb" d="M 249.2544 -225.18144 
L 249.2544 -293.132075 
L 249.8496 -293.464293 
L 250.4448 -293.780146 
L 251.04 -294.0795 
L 251.6352 -294.362222 
L 252.2304 -294.628179 
L 252.8256 -294.877237 
L 253.4208 -295.109265 
L 254.016 -295.324128 
L 254.6112 -295.521694 
L 255.2064 -295.70183 
L 255.8016 -295.864402 
L 256.3968 -296.009278 
L 256.992 -296.136324 
L 257.5872 -296.245408 
L 258.1824 -296.336396 
L 258.7776 -296.409155 
L 259.3728 -296.463553 
L 259.968 -296.499456 
L 260.5632 -296.516731 
L 261.1584 -296.515245 
L 261.7536 -296.494866 
L 262.3488 -296.455459 
L 262.944 -296.396892 
L 263.5392 -296.319032 
L 264.1344 -296.221746 
L 264.7296 -296.104901 
L 265.3248 -295.968363 
L 265.92 -295.812 
L 266.5152 -295.635679 
L 267.1104 -295.439266 
L 267.7056 -295.222628 
L 268.3008 -294.985634 
L 268.896 -294.728148 
L 269.4912 -294.450039 
L 270.0864 -294.151173 
L 270.6816 -293.831417 
L 271.2768 -293.490638 
L 271.872 -293.128704 
L 272.4672 -292.745481 
L 273.0624 -292.340835 
L 273.6576 -291.914635 
L 274.2528 -291.466746 
L 274.848 -290.997036 
L 275.4432 -290.505372 
L 276.0384 -289.991621 
L 276.6336 -289.455649 
L 277.2288 -288.897324 
L 277.824 -288.316512 
L 278.4192 -287.713081 
L 279.0144 -287.086897 
L 279.6096 -286.437828 
L 280.2048 -285.76574 
L 280.8 -285.0705 
L 281.3952 -284.351975 
L 281.9904 -283.610033 
L 282.5856 -282.84454 
L 283.1808 -282.055362 
L 283.776 -281.242368 
L 284.3712 -280.405424 
L 284.9664 -279.544396 
L 285.5616 -278.659152 
L 286.1568 -277.749559 
L 286.752 -276.815484 
L 287.3472 -275.856793 
L 287.9424 -274.873354 
L 288.5376 -273.865034 
L 289.1328 -272.831699 
L 289.728 -271.773216 
L 290.3232 -270.689453 
L 290.9184 -269.580276 
L 291.5136 -268.445552 
L 292.1088 -267.285148 
L 292.704 -266.098932 
L 293.2992 -264.88677 
L 293.8944 -263.648528 
L 294.4896 -262.384075 
L 295.0848 -261.093277 
L 295.0848 -259.33248 
L 295.0848 -259.33248 
L 294.4896 -258.88896 
L 293.8944 -258.44544 
L 293.2992 -258.00192 
L 292.704 -257.5584 
L 292.1088 -257.11488 
L 291.5136 -256.67136 
L 290.9184 -256.22784 
L 290.3232 -255.78432 
L 289.728 -255.3408 
L 289.1328 -254.89728 
L 288.5376 -254.45376 
L 287.9424 -254.01024 
L 287.3472 -253.56672 
L 286.752 -253.1232 
L 286.1568 -252.67968 
L 285.5616 -252.23616 
L 284.9664 -251.79264 
L 284.3712 -251.34912 
L 283.776 -250.9056 
L 283.1808 -250.46208 
L 282.5856 -250.01856 
L 281.9904 -249.57504 
L 281.3952 -249.13152 
L 280.8 -248.688 
L 280.2048 -248.24448 
L 279.6096 -247.80096 
L 279.0144 -247.35744 
L 278.4192 -246.91392 
L 277.824 -246.4704 
L 277.2288 -246.02688 
L 276.6336 -245.58336 
L 276.0384 -245.13984 
L 275.4432 -244.69632 
L 274.848 -244.2528 
L 274.2528 -243.80928 
L 273.6576 -243.36576 
L 273.0624 -242.92224 
L 272.4672 -242.47872 
L 271.872 -242.0352 
L 271.2768 -241.59168 
L 270.6816 -241.14816 
L 270.0864 -240.70464 
L 269.4912 -240.26112 
L 268.896 -239.8176 
L 268.3008 -239.37408 
L 267.7056 -238.93056 
L 267.1104 -238.48704 
L 266.5152 -238.04352 
L 265.92 -237.6 
L 265.3248 -237.15648 
L 264.7296 -236.71296 
L 264.1344 -236.26944 
L 263.5392 -235.82592 
L 262.944 -235.3824 
L 262.3488 -234.93888 
L 261.7536 -234.49536 
L 261.1584 -234.05184 
L 260.5632 -233.60832 
L 259.968 -233.1648 
L 259.3728 -232.72128 
L 258.7776 -232.27776 
L 258.1824 -231.83424 
L 257.5872 -231.39072 
L 256.992 -230.9472 
L 256.3968 -230.50368 
L 255.8016 -230.06016 
L 255.2064 -229.61664 
L 254.6112 -229.17312 
L 254.016 -228.7296 
L 253.4208 -228.28608 
L 252.8256 -227.84256 
L 252.2304 -227.39904 
L 251.6352 -226.95552 
L 251.04 -226.512 
L 250.4448 -226.06848 
L 249.8496 -225.62496 
L 249.2544 -225.18144 
z
" style="stroke: #8b008b; stroke-opacity: 0.7"/>
    </defs>
    <g clip-path="url(#p63c32fa345)">
     <use xlink:href="#ma4f833b0fb" x="0" y="345.6" style="fill: #8b008b; fill-opacity: 0.7; stroke: #8b008b; stroke-opacity: 0.7"/>
    </g>
   </g>
   <g id="text_3">
    <!-- f(x) = 6x - x³; g(x) = 2x (gesplitst - 2D) -->
    <g style="fill: #d3d3d3" transform="translate(118.884375 35.472) scale(0.12 -0.12)">
     <defs>
      <path id="DejaVuSans-66" d="M 2375 4863 
L 2375 4384 
L 1825 4384 
Q 1516 4384 1395 4259 
Q 1275 4134 1275 3809 
L 1275 3500 
L 2222 3500 
L 2222 3053 
L 1275 3053 
L 1275 0 
L 697 0 
L 697 3053 
L 147 3053 
L 147 3500 
L 697 3500 
L 697 3744 
Q 697 4328 969 4595 
Q 1241 4863 1831 4863 
L 2375 4863 
z
" transform="scale(0.015625)"/>
      <path id="DejaVuSans-28" d="M 1984 4856 
Q 1566 4138 1362 3434 
Q 1159 2731 1159 2009 
Q 1159 1288 1364 580 
Q 1569 -128 1984 -844 
L 1484 -844 
Q 1016 -109 783 600 
Q 550 1309 550 2009 
Q 550 2706 781 3412 
Q 1013 4119 1484 4856 
L 1984 4856 
z
" transform="scale(0.015625)"/>
      <path id="DejaVuSans-78" d="M 3513 3500 
L 2247 1797 
L 3578 0 
L 2900 0 
L 1881 1375 
L 863 0 
L 184 0 
L 1544 1831 
L 300 3500 
L 978 3500 
L 1906 2253 
L 2834 3500 
L 3513 3500 
z
" transform="scale(0.015625)"/>
      <path id="DejaVuSans-29" d="M 513 4856 
L 1013 4856 
Q 1481 4119 1714 3412 
Q 1947 2706 1947 2009 
Q 1947 1309 1714 600 
Q 1481 -109 1013 -844 
L 513 -844 
Q 928 -128 1133 580 
Q 1338 1288 1338 2009 
Q 1338 2731 1133 3434 
Q 928 4138 513 4856 
z
" transform="scale(0.015625)"/>
      <path id="DejaVuSans-20" transform="scale(0.015625)"/>
      <path id="DejaVuSans-3d" d="M 678 2906 
L 4684 2906 
L 4684 2381 
L 678 2381 
L 678 2906 
z
M 678 1631 
L 4684 1631 
L 4684 1100 
L 678 1100 
L 678 1631 
z
" transform="scale(0.015625)"/>
      <path id="DejaVuSans-36" d="M 2113 2584 
Q 1688 2584 1439 2293 
Q 1191 2003 1191 1497 
Q 1191 994 1439 701 
Q 1688 409 2113 409 
Q 2538 409 2786 701 
Q 3034 994 3034 1497 
Q 3034 2003 2786 2293 
Q 2538 2584 2113 2584 
z
M 3366 4563 
L 3366 3988 
Q 3128 4100 2886 4159 
Q 2644 4219 2406 4219 
Q 1781 4219 1451 3797 
Q 1122 3375 1075 2522 
Q 1259 2794 1537 2939 
Q 1816 3084 2150 3084 
Q 2853 3084 3261 2657 
Q 3669 2231 3669 1497 
Q 3669 778 3244 343 
Q 2819 -91 2113 -91 
Q 1303 -91 875 529 
Q 447 1150 447 2328 
Q 447 3434 972 4092 
Q 1497 4750 2381 4750 
Q 2619 4750 2861 4703 
Q 3103 4656 3366 4563 
z
" transform="scale(0.015625)"/>
      <path id="DejaVuSans-b3" d="M 1638 3500 
Q 1925 3444 2083 3273 
Q 2241 3103 2241 2847 
Q 2241 2459 1944 2250 
Q 1647 2041 1094 2041 
Q 916 2041 720 2073 
Q 525 2106 306 2169 
L 306 2547 
Q 469 2463 655 2422 
Q 841 2381 1050 2381 
Q 1391 2381 1578 2504 
Q 1766 2628 1766 2847 
Q 1766 3078 1592 3197 
Q 1419 3316 1081 3316 
L 813 3316 
L 813 3653 
L 1106 3653 
Q 1400 3653 1551 3751 
Q 1703 3850 1703 4038 
Q 1703 4219 1547 4314 
Q 1391 4409 1094 4409 
Q 969 4409 809 4381 
Q 650 4353 397 4281 
L 397 4641 
Q 625 4694 825 4722 
Q 1025 4750 1197 4750 
Q 1647 4750 1911 4565 
Q 2175 4381 2175 4072 
Q 2175 3856 2034 3706 
Q 1894 3556 1638 3500 
z
" transform="scale(0.015625)"/>
      <path id="DejaVuSans-3b" d="M 750 3309 
L 1409 3309 
L 1409 2516 
L 750 2516 
L 750 3309 
z
M 750 794 
L 1409 794 
L 1409 256 
L 897 -744 
L 494 -744 
L 750 256 
L 750 794 
z
" transform="scale(0.015625)"/>
      <path id="DejaVuSans-67" d="M 2906 1791 
Q 2906 2416 2648 2759 
Q 2391 3103 1925 3103 
Q 1463 3103 1205 2759 
Q 947 2416 947 1791 
Q 947 1169 1205 825 
Q 1463 481 1925 481 
Q 2391 481 2648 825 
Q 2906 1169 2906 1791 
z
M 3481 434 
Q 3481 -459 3084 -895 
Q 2688 -1331 1869 -1331 
Q 1566 -1331 1297 -1286 
Q 1028 -1241 775 -1147 
L 775 -588 
Q 1028 -725 1275 -790 
Q 1522 -856 1778 -856 
Q 2344 -856 2625 -561 
Q 2906 -266 2906 331 
L 2906 616 
Q 2728 306 2450 153 
Q 2172 0 1784 0 
Q 1141 0 747 490 
Q 353 981 353 1791 
Q 353 2603 747 3093 
Q 1141 3584 1784 3584 
Q 2172 3584 2450 3431 
Q 2728 3278 2906 2969 
L 2906 3500 
L 3481 3500 
L 3481 434 
z
" transform="scale(0.015625)"/>
      <path id="DejaVuSans-32" d="M 1228 531 
L 3431 531 
L 3431 0 
L 469 0 
L 469 531 
Q 828 903 1448 1529 
Q 2069 2156 2228 2338 
Q 2531 2678 2651 2914 
Q 2772 3150 2772 3378 
Q 2772 3750 2511 3984 
Q 2250 4219 1831 4219 
Q 1534 4219 1204 4116 
Q 875 4013 500 3803 
L 500 4441 
Q 881 4594 1212 4672 
Q 1544 4750 1819 4750 
Q 2544 4750 2975 4387 
Q 3406 4025 3406 3419 
Q 3406 3131 3298 2873 
Q 3191 2616 2906 2266 
Q 2828 2175 2409 1742 
Q 1991 1309 1228 531 
z
" transform="scale(0.015625)"/>
      <path id="DejaVuSans-65" d="M 3597 1894 
L 3597 1613 
L 953 1613 
Q 991 1019 1311 708 
Q 1631 397 2203 397 
Q 2534 397 2845 478 
Q 3156 559 3463 722 
L 3463 178 
Q 3153 47 2828 -22 
Q 2503 -91 2169 -91 
Q 1331 -91 842 396 
Q 353 884 353 1716 
Q 353 2575 817 3079 
Q 1281 3584 2069 3584 
Q 2775 3584 3186 3129 
Q 3597 2675 3597 1894 
z
M 3022 2063 
Q 3016 2534 2758 2815 
Q 2500 3097 2075 3097 
Q 1594 3097 1305 2825 
Q 1016 2553 972 2059 
L 3022 2063 
z
" transform="scale(0.015625)"/>
      <path id="DejaVuSans-70" d="M 1159 525 
L 1159 -1331 
L 581 -1331 
L 581 3500 
L 1159 3500 
L 1159 2969 
Q 1341 3281 1617 3432 
Q 1894 3584 2278 3584 
Q 2916 3584 3314 3078 
Q 3713 2572 3713 1747 
Q 3713 922 3314 415 
Q 2916 -91 2278 -91 
Q 1894 -91 1617 61 
Q 1341 213 1159 525 
z
M 3116 1747 
Q 3116 2381 2855 2742 
Q 2594 3103 2138 3103 
Q 1681 3103 1420 2742 
Q 1159 2381 1159 1747 
Q 1159 1113 1420 752 
Q 1681 391 2138 391 
Q 2594 391 2855 752 
Q 3116 1113 3116 1747 
z
" transform="scale(0.015625)"/>
      <path id="DejaVuSans-6c" d="M 603 4863 
L 1178 4863 
L 1178 0 
L 603 0 
L 603 4863 
z
" transform="scale(0.015625)"/>
      <path id="DejaVuSans-69" d="M 603 3500 
L 1178 3500 
L 1178 0 
L 603 0 
L 603 3500 
z
M 603 4863 
L 1178 4863 
L 1178 4134 
L 603 4134 
L 603 4863 
z
" transform="scale(0.015625)"/>
      <path id="DejaVuSans-74" d="M 1172 4494 
L 1172 3500 
L 2356 3500 
L 2356 3053 
L 1172 3053 
L 1172 1153 
Q 1172 725 1289 603 
Q 1406 481 1766 481 
L 2356 481 
L 2356 0 
L 1766 0 
Q 1100 0 847 248 
Q 594 497 594 1153 
L 594 3053 
L 172 3053 
L 172 3500 
L 594 3500 
L 594 4494 
L 1172 4494 
z
" transform="scale(0.015625)"/>
      <path id="DejaVuSans-44" d="M 1259 4147 
L 1259 519 
L 2022 519 
Q 2988 519 3436 956 
Q 3884 1394 3884 2338 
Q 3884 3275 3436 3711 
Q 2988 4147 2022 4147 
L 1259 4147 
z
M 628 4666 
L 1925 4666 
Q 3281 4666 3915 4102 
Q 4550 3538 4550 2338 
Q 4550 1131 3912 565 
Q 3275 0 1925 0 
L 628 0 
L 628 4666 
z
" transform="scale(0.015625)"/>
     </defs>
     <use xlink:href="#DejaVuSans-66"/>
     <use xlink:href="#DejaVuSans-28" x="35.205078"/>
     <use xlink:href="#DejaVuSans-78" x="74.21875"/>
     <use xlink:href="#DejaVuSans-29" x="133.398438"/>
     <use xlink:href="#DejaVuSans-20" x="172.412109"/>
     <use xlink:href="#DejaVuSans-3d" x="204.199219"/>
     <use xlink:href="#DejaVuSans-20" x="287.988281"/>
     <use xlink:href="#DejaVuSans-36" x="319.775391"/>
     <use xlink:href="#DejaVuSans-78" x="383.398438"/>
     <use xlink:href="#DejaVuSans-20" x="442.578125"/>
     <use xlink:href="#DejaVuSans-2d" x="474.365234"/>
     <use xlink:href="#DejaVuSans-20" x="510.449219"/>
     <use xlink:href="#DejaVuSans-78" x="542.236328"/>
     <use xlink:href="#DejaVuSans-b3" x="601.416016"/>
     <use xlink:href="#DejaVuSans-3b" x="641.503906"/>
     <use xlink:href="#DejaVuSans-20" x="675.195312"/>
     <use xlink:href="#DejaVuSans-67" x="706.982422"/>
     <use xlink:href="#DejaVuSans-28" x="770.458984"/>
     <use xlink:href="#DejaVuSans-78" x="809.472656"/>
     <use xlink:href="#DejaVuSans-29" x="868.652344"/>
     <use xlink:href="#DejaVuSans-20" x="907.666016"/>
     <use xlink:href="#DejaVuSans-3d" x="939.453125"/>
     <use xlink:href="#DejaVuSans-20" x="1023.242188"/>
     <use xlink:href="#DejaVuSans-32" x="1055.029297"/>
     <use xlink:href="#DejaVuSans-78" x="1118.652344"/>
     <use xlink:href="#DejaVuSans-20" x="1177.832031"/>
     <use xlink:href="#DejaVuSans-28" x="1209.619141"/>
     <use xlink:href="#DejaVuSans-67" x="1248.632812"/>
     <use xlink:href="#DejaVuSans-65" x="1312.109375"/>
     <use xlink:href="#DejaVuSans-73" x="1373.632812"/>
     <use xlink:href="#DejaVuSans-70" x="1425.732422"/>
     <use xlink:href="#DejaVuSans-6c" x="1489.208984"/>
     <use xlink:href="#DejaVuSans-69" x="1516.992188"/>
     <use xlink:href="#DejaVuSans-74" x="1544.775391"/>
     <use xlink:href="#DejaVuSans-73" x="1583.984375"/>
     <use xlink:href="#DejaVuSans-74" x="1636.083984"/>
     <use xlink:href="#DejaVuSans-20" x="1675.292969"/>
     <use xlink:href="#DejaVuSans-2d" x="1707.080078"/>
     <use xlink:href="#DejaVuSans-20" x="1743.164062"/>
     <use xlink:href="#DejaVuSans-32" x="1774.951172"/>
     <use xlink:href="#DejaVuSans-44" x="1838.574219"/>
     <use xlink:href="#DejaVuSans-29" x="1915.576172"/>
    </g>
   </g>
   <g id="LineCollection_3">
    <path d="M 249.13536 307.584 
L 249.13536 41.472 
" clip-path="url(#p63c32fa345)" style="fill: none; stroke-dasharray: 5.55,2.4; stroke-dashoffset: 0; stroke: #00ff7f; stroke-width: 1.5"/>
   </g>
   <g id="text_4">
    <!-- $I$ -->
    <g style="fill: #ffffff" transform="translate(230.208 105.7824) scale(0.1728 -0.1728)">
     <defs>
      <path id="DejaVuSans-Oblique-49" d="M 1081 4666 
L 1716 4666 
L 806 0 
L 172 0 
L 1081 4666 
z
" transform="scale(0.015625)"/>
     </defs>
     <use xlink:href="#DejaVuSans-Oblique-49" transform="translate(0 0.09375)"/>
    </g>
   </g>
   <g id="text_5">
    <!-- $II$ -->
    <g style="fill: #ffffff" transform="translate(259.968 91.368) scale(0.1728 -0.1728)">
     <use xlink:href="#DejaVuSans-Oblique-49" transform="translate(0 0.09375)"/>
     <use xlink:href="#DejaVuSans-Oblique-49" transform="translate(29.492188 0.09375)"/>
    </g>
   </g>
   <g id="PathCollection_1">
    <defs>
     <path id="m58bd0d7374" d="M 0 3 
C 0.795609 3 1.55874 2.683901 2.12132 2.12132 
C 2.683901 1.55874 3 0.795609 3 0 
C 3 -0.795609 2.683901 -1.55874 2.12132 -2.12132 
C 1.55874 -2.683901 0.795609 -3 0 -3 
C -0.795609 -3 -1.55874 -2.683901 -2.12132 -2.12132 
C -2.683901 -1.55874 -3 -0.795609 -3 0 
C -3 0.795609 -2.683901 1.55874 -2.12132 2.12132 
C -1.55874 2.683901 -0.795609 3 0 3 
z
" style="stroke: #7fffd4"/>
    </defs>
    <g clip-path="url(#p63c32fa345)">
     <use xlink:href="#m58bd0d7374" x="57.6" y="263.232" style="fill: #7fffd4; stroke: #7fffd4"/>
     <use xlink:href="#m58bd0d7374" x="176.64" y="174.528" style="fill: #7fffd4; stroke: #7fffd4"/>
     <use xlink:href="#m58bd0d7374" x="295.68" y="85.824" style="fill: #7fffd4; stroke: #7fffd4"/>
    </g>
   </g>
   <g id="legend_1">
    <g id="patch_7">
     <path d="M 298.22 94.370438 
L 407.72 94.370438 
Q 409.72 94.370438 409.72 92.370438 
L 409.72 48.472 
Q 409.72 46.472 407.72 46.472 
L 298.22 46.472 
Q 296.22 46.472 296.22 48.472 
L 296.22 92.370438 
Q 296.22 94.370438 298.22 94.370438 
z
" style="fill: #ffffff; opacity: 0.8; stroke: #cccccc; stroke-linejoin: miter"/>
    </g>
    <g id="line2d_3">
     <path d="M 300.22 55.392313 
L 310.22 55.392313 
L 320.22 55.392313 
" style="fill: none; stroke: #00ced1; stroke-width: 1.5; stroke-linecap: square"/>
    </g>
    <g id="text_6">
     <!-- $f(x) = - x^{3} + 6 x$ -->
     <g transform="translate(328.22 58.892313) scale(0.1 -0.1)">
      <defs>
       <path id="DejaVuSans-Oblique-66" d="M 3059 4863 
L 2969 4384 
L 2419 4384 
Q 2106 4384 1964 4261 
Q 1822 4138 1753 3809 
L 1691 3500 
L 2638 3500 
L 2553 3053 
L 1606 3053 
L 1013 0 
L 434 0 
L 1031 3053 
L 481 3053 
L 563 3500 
L 1113 3500 
L 1159 3744 
Q 1278 4363 1576 4613 
Q 1875 4863 2516 4863 
L 3059 4863 
z
" transform="scale(0.015625)"/>
       <path id="DejaVuSans-Oblique-78" d="M 3841 3500 
L 2234 1784 
L 3219 0 
L 2559 0 
L 1819 1388 
L 531 0 
L -166 0 
L 1556 1844 
L 641 3500 
L 1300 3500 
L 1972 2234 
L 3144 3500 
L 3841 3500 
z
" transform="scale(0.015625)"/>
       <path id="DejaVuSans-2212" d="M 678 2272 
L 4684 2272 
L 4684 1741 
L 678 1741 
L 678 2272 
z
" transform="scale(0.015625)"/>
       <path id="DejaVuSans-33" d="M 2597 2516 
Q 3050 2419 3304 2112 
Q 3559 1806 3559 1356 
Q 3559 666 3084 287 
Q 2609 -91 1734 -91 
Q 1441 -91 1130 -33 
Q 819 25 488 141 
L 488 750 
Q 750 597 1062 519 
Q 1375 441 1716 441 
Q 2309 441 2620 675 
Q 2931 909 2931 1356 
Q 2931 1769 2642 2001 
Q 2353 2234 1838 2234 
L 1294 2234 
L 1294 2753 
L 1863 2753 
Q 2328 2753 2575 2939 
Q 2822 3125 2822 3475 
Q 2822 3834 2567 4026 
Q 2313 4219 1838 4219 
Q 1578 4219 1281 4162 
Q 984 4106 628 3988 
L 628 4550 
Q 988 4650 1302 4700 
Q 1616 4750 1894 4750 
Q 2613 4750 3031 4423 
Q 3450 4097 3450 3541 
Q 3450 3153 3228 2886 
Q 3006 2619 2597 2516 
z
" transform="scale(0.015625)"/>
       <path id="DejaVuSans-2b" d="M 2944 4013 
L 2944 2272 
L 4684 2272 
L 4684 1741 
L 2944 1741 
L 2944 0 
L 2419 0 
L 2419 1741 
L 678 1741 
L 678 2272 
L 2419 2272 
L 2419 4013 
L 2944 4013 
z
" transform="scale(0.015625)"/>
      </defs>
      <use xlink:href="#DejaVuSans-Oblique-66" transform="translate(0 0.765625)"/>
      <use xlink:href="#DejaVuSans-28" transform="translate(35.205078 0.765625)"/>
      <use xlink:href="#DejaVuSans-Oblique-78" transform="translate(74.21875 0.765625)"/>
      <use xlink:href="#DejaVuSans-29" transform="translate(133.398438 0.765625)"/>
      <use xlink:href="#DejaVuSans-3d" transform="translate(191.894531 0.765625)"/>
      <use xlink:href="#DejaVuSans-2212" transform="translate(314.648438 0.765625)"/>
      <use xlink:href="#DejaVuSans-Oblique-78" transform="translate(417.919922 0.765625)"/>
      <use xlink:href="#DejaVuSans-33" transform="translate(481.565755 39.046875) scale(0.7)"/>
      <use xlink:href="#DejaVuSans-2b" transform="translate(548.318685 0.765625)"/>
      <use xlink:href="#DejaVuSans-36" transform="translate(651.590169 0.765625)"/>
      <use xlink:href="#DejaVuSans-Oblique-78" transform="translate(715.213216 0.765625)"/>
     </g>
    </g>
    <g id="line2d_4">
     <path d="M 300.22 70.072 
L 310.22 70.072 
L 320.22 70.072 
" style="fill: none; stroke: #dc143c; stroke-width: 1.5; stroke-linecap: square"/>
    </g>
    <g id="text_7">
     <!-- $g(x) = 2 x$ -->
     <g transform="translate(328.22 73.572) scale(0.1 -0.1)">
      <defs>
       <path id="DejaVuSans-Oblique-67" d="M 3816 3500 
L 3219 434 
Q 3047 -456 2561 -893 
Q 2075 -1331 1253 -1331 
Q 950 -1331 690 -1286 
Q 431 -1241 206 -1147 
L 313 -588 
Q 525 -725 762 -790 
Q 1000 -856 1269 -856 
Q 1816 -856 2167 -557 
Q 2519 -259 2631 300 
L 2681 563 
Q 2441 288 2122 144 
Q 1803 0 1434 0 
Q 903 0 598 351 
Q 294 703 294 1319 
Q 294 1803 478 2267 
Q 663 2731 997 3091 
Q 1219 3328 1514 3456 
Q 1809 3584 2131 3584 
Q 2484 3584 2746 3420 
Q 3009 3256 3138 2956 
L 3238 3500 
L 3816 3500 
z
M 2950 2216 
Q 2950 2641 2750 2872 
Q 2550 3103 2181 3103 
Q 1953 3103 1747 3012 
Q 1541 2922 1394 2759 
Q 1156 2491 1023 2127 
Q 891 1763 891 1375 
Q 891 944 1092 712 
Q 1294 481 1672 481 
Q 2219 481 2584 976 
Q 2950 1472 2950 2216 
z
" transform="scale(0.015625)"/>
      </defs>
      <use xlink:href="#DejaVuSans-Oblique-67" transform="translate(0 0.125)"/>
      <use xlink:href="#DejaVuSans-28" transform="translate(63.476562 0.125)"/>
      <use xlink:href="#DejaVuSans-Oblique-78" transform="translate(102.490234 0.125)"/>
      <use xlink:href="#DejaVuSans-29" transform="translate(161.669922 0.125)"/>
      <use xlink:href="#DejaVuSans-3d" transform="translate(220.166016 0.125)"/>
      <use xlink:href="#DejaVuSans-32" transform="translate(323.4375 0.125)"/>
      <use xlink:href="#DejaVuSans-Oblique-78" transform="translate(387.060547 0.125)"/>
     </g>
    </g>
    <g id="line2d_5">
     <path d="M 300.22 84.770438 
L 320.22 84.770438 
" style="fill: none; stroke-dasharray: 5.55,2.4; stroke-dashoffset: 0; stroke: #00ff7f; stroke-width: 1.5"/>
    </g>
    <g id="text_8">
     <!-- $x=p$ -->
     <g transform="translate(328.22 88.270438) scale(0.1 -0.1)">
      <defs>
       <path id="DejaVuSans-Oblique-70" d="M 3175 2156 
Q 3175 2616 2975 2859 
Q 2775 3103 2400 3103 
Q 2144 3103 1911 2972 
Q 1678 2841 1497 2591 
Q 1319 2344 1212 1994 
Q 1106 1644 1106 1300 
Q 1106 863 1306 627 
Q 1506 391 1875 391 
Q 2147 391 2380 519 
Q 2613 647 2778 891 
Q 2956 1147 3065 1494 
Q 3175 1841 3175 2156 
z
M 1394 2969 
Q 1625 3272 1939 3428 
Q 2253 3584 2638 3584 
Q 3175 3584 3472 3232 
Q 3769 2881 3769 2247 
Q 3769 1728 3584 1258 
Q 3400 788 3053 416 
Q 2822 169 2531 39 
Q 2241 -91 1919 -91 
Q 1547 -91 1294 64 
Q 1041 219 916 525 
L 556 -1331 
L -19 -1331 
L 922 3500 
L 1497 3500 
L 1394 2969 
z
" transform="scale(0.015625)"/>
      </defs>
      <use xlink:href="#DejaVuSans-Oblique-78"/>
      <use xlink:href="#DejaVuSans-3d" transform="translate(78.662109 0)"/>
      <use xlink:href="#DejaVuSans-Oblique-70" transform="translate(181.933594 0)"/>
     </g>
    </g>
   </g>
  </g>
 </g>
 <defs>
  <clipPath id="p63c32fa345">
   <rect x="57.6" y="41.472" width="357.12" height="266.112"/>
  </clipPath>
 </defs>
</svg>
