<svg version="1.1" id="Layer_1" xmlns="http://www.w3.org/2000/svg" xmlns:xlink="http://www.w3.org/1999/xlink" x="0px" y="0px"
	 width="100%" viewBox="0 0 865 654" enable-background="new 0 0 865 654" xml:space="preserve">
<path fill="#010101" opacity="0.000000" stroke="none" 
	d="
M866.000000,242.000000 
	C866.000000,380.000000 866.000000,517.500000 866.000000,655.000000 
	C577.666687,655.000000 289.333344,655.000000 1.000000,655.000000 
	C1.000000,437.000000 1.000000,219.000000 1.000000,1.000000 
	C289.333344,1.000000 577.666687,1.000000 866.000000,1.000000 
	C866.000000,81.166664 866.000000,161.333328 866.000000,242.000000 
M731.030518,321.528748 
	C684.785400,369.737152 638.514282,417.920715 592.362183,466.218018 
	C589.694031,469.010193 587.821838,469.270081 584.424622,467.490417 
	C568.097778,458.937592 551.606079,450.699249 535.161072,442.372650 
	C531.703552,440.621948 531.680603,440.667267 530.686340,444.610596 
	C548.935791,453.888245 567.205078,463.176025 585.990845,472.726379 
	C569.305481,490.114288 553.014893,507.090790 536.629333,524.166260 
	C536.060059,522.102417 535.716736,520.574829 535.137451,519.142639 
	C535.070740,518.977722 533.050720,519.242981 533.013184,519.479553 
	C532.373230,523.513611 531.848572,527.570007 531.511597,531.639160 
	C531.487549,531.929260 533.161438,532.745911 533.966003,532.649719 
	C536.933105,532.295227 539.904053,531.801697 542.789307,531.040894 
	C543.627686,530.819824 544.184692,529.531677 544.870667,528.732605 
	C544.141846,528.175354 543.482178,527.451294 542.663147,527.111511 
	C541.954102,526.817200 541.064087,526.958801 539.698425,526.872681 
	C556.705811,509.140839 573.168335,491.977112 589.800293,474.636627 
	C625.893555,492.963867 661.765808,511.178894 697.170532,529.156494 
	C695.941650,531.050964 695.028198,532.459106 694.114685,533.867249 
	C695.776306,534.037781 697.449524,534.416748 699.096558,534.325073 
	C701.076050,534.215027 703.180542,534.032776 704.944031,533.242004 
	C705.975220,532.779663 707.295044,530.776855 707.018066,529.971741 
	C706.000549,527.014099 704.460144,524.215820 702.899475,521.481445 
	C702.547546,520.864929 701.120789,520.281067 700.548340,520.525208 
	C699.901611,520.801086 699.381226,522.007507 699.320740,522.846375 
	C699.259521,523.694397 699.828613,524.587769 700.393127,526.270874 
	C664.108765,507.848236 628.581909,489.810211 592.716553,471.600342 
	C647.212219,414.788940 701.274658,358.429199 755.556519,301.840698 
	C754.388428,300.811066 753.488770,300.018066 752.589172,299.225067 
	C753.066772,299.863281 753.544373,300.501495 754.021973,301.139709 
	C746.524536,307.768616 739.027161,314.397522 731.030518,321.528748 
M448.258667,559.454468 
	C445.993347,558.238159 443.728027,557.021851 441.533386,555.843445 
	C439.755188,560.096802 438.451843,563.214417 437.147400,566.334656 
	C424.824860,561.028442 412.813477,562.914185 407.637543,571.347229 
	C405.505615,574.820679 404.534363,579.406616 404.305695,583.556580 
	C403.941650,590.163635 407.953735,594.910950 413.392151,598.554077 
	C403.136871,604.321289 402.587158,607.638977 410.104858,616.799316 
	C409.311310,617.140747 408.580444,617.546570 407.798004,617.778259 
	C395.991455,621.273926 397.286804,634.881470 404.550262,639.809204 
	C407.864624,642.057739 411.992493,643.640808 415.954498,644.294189 
	C425.245941,645.826477 434.603119,645.837830 443.150330,640.941772 
	C449.483704,637.313965 452.238525,630.803467 450.939362,623.433594 
	C449.897919,617.525879 445.756744,613.865845 438.167297,612.766602 
	C434.068054,612.172852 429.873138,612.251099 425.723816,611.987915 
	C423.072113,611.819763 420.169220,612.177307 417.857086,611.184998 
	C416.032379,610.401794 413.671051,607.762329 413.860657,606.234131 
	C414.065155,604.585815 416.795227,602.960510 418.743103,601.928040 
	C419.903076,601.313110 421.678101,601.860718 423.176697,601.881958 
	C431.695251,602.002747 439.211884,599.772095 443.300140,591.620605 
	C447.089722,584.064636 446.242859,576.807373 440.913666,571.619690 
	C443.511627,567.483093 445.816010,563.814026 448.258667,559.454468 
M581.342896,65.145676 
	C578.896118,63.583370 576.449341,62.021057 573.688660,60.258343 
	C575.011230,59.244247 576.042725,58.453159 577.074463,57.662354 
	C582.937378,53.168289 585.095825,47.155540 583.798584,40.035355 
	C582.522949,33.033993 578.166931,28.014095 571.400513,26.481924 
	C566.057861,25.272154 560.185974,25.117775 554.751953,25.901245 
	C547.058960,27.010405 541.851379,31.964067 540.263306,39.784363 
	C538.689941,47.532238 541.355530,53.833839 547.860535,58.443314 
	C548.639954,58.995575 549.334473,59.667679 550.240784,60.429138 
	C549.424622,60.951073 548.904480,61.336891 548.338928,61.637402 
	C538.630249,66.796722 534.734863,73.905396 536.173767,83.863579 
	C537.491943,92.986870 543.411926,99.225510 553.641052,101.115395 
	C558.463806,102.006439 563.618347,102.189896 568.476379,101.562317 
	C577.009033,100.460022 584.126282,96.537491 586.836731,87.671684 
	C589.322388,79.540779 588.425598,71.869354 581.342896,65.145676 
M538.072937,574.495972 
	C545.772339,563.468506 541.439697,549.755188 528.580750,546.288025 
	C523.630859,544.953430 517.990906,545.009094 512.864746,545.771729 
	C505.223785,546.908569 499.797638,551.574097 498.118103,559.440918 
	C496.423309,567.379150 498.993896,573.858643 505.757355,578.556519 
	C506.501678,579.073486 507.102997,579.796387 507.839294,580.488342 
	C507.177460,580.931885 506.783813,581.246460 506.347168,581.480835 
	C496.041260,587.010681 492.432678,593.810120 494.085815,604.605835 
	C495.420197,613.319702 501.773346,619.539185 512.151428,621.333557 
	C516.675415,622.115723 521.505676,622.261719 526.043823,621.617920 
	C540.682495,619.541321 548.158386,608.740845 545.129089,595.041077 
	C543.483276,587.598206 538.065491,583.773804 531.464417,580.552063 
	C533.711121,578.543579 535.661011,576.800415 538.072937,574.495972 
M412.002747,111.672638 
	C419.721558,158.280487 427.422760,204.891266 435.164551,251.495285 
	C441.761505,291.207642 448.421997,330.909424 454.992126,370.626190 
	C455.452118,373.406799 456.084808,375.187134 459.602509,373.232330 
	C443.281586,275.015106 426.958313,176.783859 410.612122,78.414742 
	C412.540375,79.105003 413.943756,79.696922 415.406311,80.025726 
	C415.605255,80.070465 416.549835,78.366478 416.391174,78.201576 
	C413.557648,75.256927 410.637054,72.391930 407.616516,69.640068 
	C407.405029,69.447380 405.937561,70.085098 405.615479,70.654282 
	C403.982880,73.539841 402.438141,76.487457 401.105682,79.520142 
	C400.837708,80.130013 401.427368,81.393082 402.002747,81.983711 
	C402.303009,82.291969 403.698883,82.046562 404.126953,81.598915 
	C404.807739,80.887016 405.092987,79.796844 405.545563,78.866661 
	C405.928894,79.205727 406.312256,79.544800 406.695587,79.883865 
	C408.433197,90.192039 410.170776,100.500214 412.002747,111.672638 
M737.113770,562.005249 
	C736.376404,565.648132 736.633362,569.968750 734.704041,572.799194 
	C730.030029,579.656128 722.019104,577.733948 715.058594,578.288452 
	C715.058594,580.871582 715.058594,583.132629 715.058594,585.990845 
	C719.629150,585.990845 723.962280,585.651062 728.221985,586.066101 
	C735.645081,586.789246 739.812439,591.266663 740.268066,598.306030 
	C740.814758,606.751282 737.560059,611.703796 729.769409,613.359619 
	C719.269287,615.591431 709.929993,612.852600 706.722717,601.690674 
	C706.593079,601.239441 706.216003,600.859192 705.800354,600.203003 
	C703.166321,601.389526 700.866455,602.425476 698.469360,603.505310 
	C701.185242,613.830811 707.227905,619.985107 717.082520,621.436890 
	C727.499512,622.971680 737.854675,622.931091 745.450684,613.700623 
	C746.584106,612.323303 747.392761,610.594543 748.030640,608.906982 
	C752.756775,596.404785 748.636719,587.525940 734.641724,580.396057 
	C736.244385,579.286987 737.756958,578.328430 739.174133,577.245117 
	C748.144470,570.388306 748.721619,557.013000 740.509033,549.832275 
	C732.250244,542.611145 709.197510,541.968079 701.634521,556.644714 
	C703.281372,558.398254 705.012024,560.241028 706.886292,562.236694 
	C708.312256,560.451355 709.324219,559.149780 710.372192,557.877808 
	C716.521606,550.414490 735.483643,550.580505 737.113770,562.005249 
M337.594452,43.507725 
	C338.320770,42.883461 339.216675,42.377380 339.746887,41.616467 
	C344.515411,34.773018 351.185974,32.309265 359.256989,33.000164 
	C366.709381,33.638119 370.665924,37.859623 371.047607,45.274361 
	C371.409454,52.303051 367.963623,57.442677 362.853485,61.551903 
	C356.370972,66.764709 349.692596,71.743004 342.969421,76.645149 
	C334.755127,82.634560 331.616943,90.603622 333.102600,100.773300 
	C348.654724,100.773300 364.233551,100.773300 379.819366,100.773300 
	C379.819366,98.377625 379.819366,96.166229 379.819366,93.456917 
	C367.126434,93.456917 354.738281,93.456917 342.350128,93.456917 
	C341.999268,93.033463 341.648376,92.610008 341.297516,92.186554 
	C343.548553,89.099678 345.349823,85.502617 348.147705,83.036041 
	C353.377258,78.425743 359.439087,74.760361 364.675781,70.157135 
	C369.250397,66.135872 373.989441,61.886459 377.198059,56.815460 
	C383.307526,47.159771 380.155823,33.985359 371.372986,28.460312 
	C358.821075,20.564238 340.086121,25.160805 331.781311,39.111202 
	C333.361511,40.330254 335.196655,41.745964 337.594452,43.507725 
M380.665070,616.214844 
	C391.268372,607.471008 391.384338,587.092224 386.368317,576.766541 
	C383.708008,571.290039 379.635315,567.328979 373.967743,565.118713 
	C356.922333,558.471252 340.810242,567.377136 337.564819,585.329102 
	C337.008606,588.405823 336.931305,591.622375 337.051819,594.758301 
	C337.448578,605.080505 340.387054,614.343506 350.432343,619.154358 
	C360.611511,624.029358 370.715302,623.342346 380.665070,616.214844 
M265.273895,492.097198 
	C236.259003,427.471680 207.244125,362.846130 178.269318,298.309906 
	C172.836227,299.202820 175.412888,302.101074 176.336609,304.160339 
	C205.212448,368.532715 234.146469,432.878937 263.068878,497.230408 
	C266.770386,505.466217 270.456848,513.708740 274.180359,522.015198 
	C272.091705,522.015198 270.619446,522.015198 269.147217,522.015198 
	C269.189087,522.916687 268.891449,524.359375 269.327271,524.632874 
	C272.406738,526.564941 275.597595,528.337402 278.865112,529.930664 
	C279.306915,530.146118 280.886536,529.220459 281.067017,528.578003 
	C281.964050,525.385498 282.672638,522.127380 283.192596,518.851807 
	C283.301788,518.164001 282.338531,517.306030 281.869415,516.526428 
	C281.109558,516.988037 280.165497,517.300781 279.639862,517.951599 
	C279.074005,518.652100 278.900452,519.669495 278.330780,521.122559 
	C273.918701,511.237610 269.792633,501.993408 265.273895,492.097198 
M191.421524,223.959274 
	C187.325836,228.970718 187.325836,228.970718 190.860046,231.055511 
	C235.069946,177.058578 279.302704,123.033714 323.586243,68.946838 
	C324.535492,70.901329 325.305939,72.487701 326.117828,74.159348 
	C327.082336,73.550980 327.589233,73.392120 327.602509,73.199242 
	C327.891022,69.014595 328.124573,64.826149 328.368713,60.638435 
	C324.547089,61.144550 320.708527,61.557076 316.919434,62.242863 
	C316.235565,62.366642 315.288727,63.634899 315.320709,64.335640 
	C315.348785,64.951340 316.495789,65.732544 317.300873,66.034218 
	C318.078247,66.325493 319.050262,66.097298 320.657684,66.097298 
	C277.435059,118.904312 234.665161,171.158249 191.421524,223.959274 
M670.744446,179.721375 
	C647.946533,148.527374 625.148621,117.333382 602.396606,86.202202 
	C604.427856,85.494148 605.836182,85.081825 607.144653,84.459625 
	C607.333618,84.369743 607.201843,82.794930 606.950928,82.711426 
	C603.093018,81.427605 599.201111,80.238205 595.274109,79.187592 
	C595.024780,79.120872 594.081055,80.353859 594.042053,81.016388 
	C593.856812,84.170166 593.763855,87.340347 593.895691,90.493912 
	C593.927795,91.261139 594.934692,91.987610 595.493347,92.732811 
	C596.271973,92.048592 597.215088,91.475052 597.774597,90.643425 
	C598.185425,90.032761 598.093567,89.083908 598.323181,87.696968 
	C633.677002,135.992661 668.537170,183.614059 703.595093,231.505478 
	C704.730225,230.581329 705.648987,229.833328 706.705872,228.972916 
	C694.685120,212.528549 682.911743,196.422653 670.744446,179.721375 
M472.191711,549.666199 
	C458.235016,576.557922 458.863159,602.854614 475.292755,628.574524 
	C477.423889,631.910645 480.003815,632.619568 483.750092,631.278625 
	C467.003876,601.394226 467.137268,571.716370 483.663177,542.150574 
	C476.568573,539.680847 475.278564,545.403564 472.191711,549.666199 
M411.084869,411.730927 
	C412.773041,407.186829 414.461212,402.642731 416.149384,398.098633 
	C416.492615,398.171844 416.835815,398.245026 417.179047,398.318237 
	C417.179047,408.845337 417.179047,419.372467 417.179047,429.818298 
	C418.925446,429.818298 420.205963,429.818298 421.639709,429.818298 
	C421.639709,416.205902 421.639709,402.807587 421.639709,389.440002 
	C414.960083,388.679565 414.970886,388.683441 412.929352,394.368439 
	C409.505707,403.902313 406.066742,413.430664 402.207397,424.146423 
	C397.692627,411.638153 393.615753,400.343048 389.615204,389.259399 
	C386.962433,389.259399 384.845581,389.259399 382.483673,389.259399 
	C382.483673,402.875610 382.483673,416.276154 382.483673,430.028076 
	C384.103271,429.921570 385.464661,429.832062 387.113983,429.723602 
	C387.113983,418.804962 387.113983,408.288544 387.113983,397.772125 
	C391.411102,407.547180 394.950378,417.481140 398.720642,427.326660 
	C399.161896,428.478943 400.866394,429.824036 402.004517,429.841736 
	C403.133545,429.859283 404.853577,428.549988 405.331421,427.410400 
	C407.382324,422.519257 409.070862,417.476227 411.084869,411.730927 
M567.591187,577.278442 
	C569.456665,596.521362 565.872314,614.610779 555.367493,631.281677 
	C561.442749,632.201721 561.442749,632.201721 564.269104,628.206543 
	C581.185181,604.295044 581.101990,568.999146 564.287720,545.053650 
	C561.997070,541.791443 559.614502,540.861938 555.487000,542.255371 
	C561.901245,552.952271 566.339172,564.114319 567.591187,577.278442 
M318.706726,611.550720 
	C318.477600,609.421021 318.056427,607.291992 318.049683,605.161560 
	C317.995453,588.024719 318.019318,570.887573 318.019318,553.750549 
	C318.019318,549.814758 318.019318,545.878906 318.019318,541.981995 
	C314.940430,541.981995 312.389984,541.981995 309.648163,541.981995 
	C309.648163,552.305847 309.625519,562.273560 309.653839,572.241150 
	C309.690277,585.050476 309.433685,597.872742 309.935638,610.664612 
	C310.319489,620.446899 320.288239,625.264282 328.924774,620.189392 
	C328.524536,618.204712 328.113525,616.166748 327.961273,615.411926 
	C324.347534,614.176331 321.695129,613.269470 318.706726,611.550720 
M416.307892,53.632645 
	C418.895477,45.191753 417.728729,42.072956 410.282684,37.526970 
	C417.958130,31.157240 417.631989,22.584650 409.595947,19.476173 
	C402.725433,16.818544 395.180634,18.763678 390.081329,24.671432 
	C391.429688,26.186943 392.799713,27.726784 394.307373,29.421352 
	C397.608643,25.144003 401.480896,23.297647 405.973358,25.392599 
	C407.327087,26.023872 408.444702,29.022856 408.249542,30.779379 
	C407.550903,37.068253 401.952820,34.444508 398.174011,35.600662 
	C398.174011,37.341225 398.174011,39.047619 398.174011,40.782265 
	C402.865173,41.526279 408.748901,39.521015 409.978882,46.465378 
	C410.513092,49.481693 409.591064,52.017849 406.279144,53.197411 
	C401.650818,54.845840 398.563354,53.364632 394.142395,47.020927 
	C392.308319,47.866116 390.446869,48.723896 388.568542,49.589470 
	C390.003235,55.720863 393.701599,58.905590 399.010376,59.666801 
	C405.355225,60.576569 411.785400,60.693550 416.307892,53.632645 
M187.596649,258.034637 
	C186.408493,260.669342 184.218506,263.332184 184.291534,265.931458 
	C184.378372,269.021454 186.410004,272.056763 187.682831,275.331665 
	C183.677246,278.419708 183.507217,279.740326 186.997162,284.576233 
	C180.180206,288.180328 179.325729,294.136261 185.085632,297.900208 
	C190.000366,301.111847 201.857407,301.187775 205.937439,297.185120 
	C207.988297,295.173187 209.615875,291.295166 209.184753,288.624176 
	C208.813919,286.326752 205.556778,283.817200 203.009613,282.738068 
	C200.418320,281.640289 197.071960,282.481049 194.177979,281.883392 
	C192.411346,281.518585 190.874435,280.041382 189.234360,279.063782 
	C190.814484,278.271698 192.395081,276.795288 193.974670,276.796356 
	C206.037064,276.804504 209.335495,267.124542 204.457504,260.078400 
	C205.739655,257.661346 206.862411,255.544769 207.985153,253.428207 
	C206.791809,252.842636 205.598450,252.257050 204.387619,251.662903 
	C203.419235,253.870178 202.707809,255.491745 202.004532,257.094788 
	C197.028107,255.235580 192.545074,254.873169 187.596649,258.034637 
M759.819458,256.360840 
	C758.588257,256.360840 757.356995,256.360840 756.132690,256.360840 
	C756.132690,266.749359 756.132690,276.829010 756.132690,287.095337 
	C757.687012,286.972595 758.946106,286.873169 760.930542,286.716461 
	C760.930542,279.839111 760.598389,273.186493 761.043823,266.586365 
	C761.355896,261.963074 764.846497,259.607971 769.300049,259.789581 
	C774.264221,259.992035 774.603027,263.538696 774.651794,267.168976 
	C774.738708,273.649353 774.676208,280.131714 774.676208,286.743713 
	C776.307251,286.743713 777.706787,286.743713 779.282776,286.743713 
	C779.282776,285.474121 779.258057,284.480743 779.286865,283.488922 
	C779.445801,278.010162 779.289795,272.496094 779.880188,267.063507 
	C780.440430,261.908112 783.640564,259.530396 788.243469,259.800049 
	C793.611389,260.114563 793.383057,264.082245 793.425354,267.772064 
	C793.497437,274.065552 793.445190,280.360474 793.445190,287.009003 
	C795.257629,286.908264 796.618164,286.832611 798.036560,286.753784 
	C798.036560,279.028473 798.213379,271.714539 797.981750,264.413574 
	C797.789062,258.337463 794.282593,254.961060 788.308289,255.778946 
	C784.823669,256.255981 781.581604,258.504761 778.044006,260.037170 
	C774.054260,254.157806 769.371765,253.762451 760.631897,259.540405 
	C760.443787,258.663513 760.284302,257.920044 759.819458,256.360840 
M36.068359,280.584381 
	C26.400702,286.520355 16.999804,282.425415 15.387776,271.328491 
	C14.895132,267.937195 15.012918,264.303650 15.648962,260.931488 
	C17.383932,251.733139 25.507982,247.407166 34.071190,251.080307 
	C36.364822,252.064148 38.196781,254.124313 40.281612,255.721710 
	C43.646599,253.583405 43.336300,251.419449 39.108776,248.394043 
	C27.968813,240.421799 11.713084,247.983444 10.092996,261.959595 
	C9.788237,264.588684 9.784951,267.292664 9.995613,269.933899 
	C10.569280,277.126434 13.035182,283.372803 20.272711,286.258453 
	C27.139833,288.996429 33.568188,288.332367 38.903111,281.738800 
	C39.008934,283.855164 39.079914,285.274689 39.166939,287.015167 
	C40.810787,286.905426 42.180794,286.813965 43.461487,286.728455 
	C43.461487,279.373322 43.461487,272.451385 43.461487,265.112427 
	C38.719875,265.112427 34.248859,264.931549 29.812445,265.243164 
	C28.740501,265.318451 27.782940,267.021942 26.772779,267.976715 
	C27.105633,268.392700 27.438486,268.808716 27.771341,269.224731 
	C31.383820,269.224731 34.996300,269.224731 39.784317,269.224731 
	C38.607235,273.252716 37.619904,276.631348 36.068359,280.584381 
M273.252197,565.850281 
	C269.739197,569.548035 269.308777,574.011353 269.806549,578.936279 
	C278.619354,578.936279 287.192902,578.936279 295.894897,578.936279 
	C295.894897,576.960938 295.894897,575.217346 295.894897,572.904724 
	C289.529541,572.904724 283.360687,572.904724 277.191864,572.904724 
	C278.483917,570.179565 280.192902,568.494507 282.017609,566.945679 
	C285.815735,563.721863 290.054810,560.923218 293.419250,557.305115 
	C298.309692,552.045837 297.101074,543.700256 291.406830,540.385437 
	C285.254669,536.804077 273.152130,537.777283 269.239777,545.605835 
	C270.541351,546.984497 271.882660,548.405212 273.694855,550.324646 
	C274.591309,549.140808 275.152466,548.086060 275.991394,547.346558 
	C279.446869,544.300781 285.578125,543.922180 287.870148,546.513977 
	C290.206848,549.156311 289.088165,553.144958 284.768799,556.729126 
	C281.186188,559.701904 277.439270,562.476685 273.252197,565.850281 
M156.972153,287.561127 
	C161.003754,286.616150 165.035370,285.671204 168.683517,284.816101 
	C169.975586,285.574158 171.623154,286.540802 173.970734,287.918121 
	C173.970734,272.507385 173.970734,258.433777 173.970734,244.178009 
	C172.455368,244.178009 171.108856,244.178009 169.097321,244.178009 
	C169.097321,249.445297 169.097321,254.416779 169.097321,258.639069 
	C165.452316,257.550842 162.276169,255.929123 159.028763,255.771042 
	C151.919525,255.424973 147.263275,260.288879 146.177719,268.268921 
	C144.828354,278.188232 148.387802,284.968353 156.972153,287.561127 
M639.172302,282.554199 
	C640.110413,279.595123 641.736267,276.663818 641.857117,273.671783 
	C642.213196,264.856415 641.977112,256.016937 641.948303,247.186996 
	C641.947327,246.894592 641.681946,246.603027 641.410889,246.046143 
	C640.125427,246.150421 638.742371,246.262604 637.079773,246.397476 
	C637.079773,255.563934 637.199829,264.377014 637.040222,273.185059 
	C636.921448,279.738525 633.498352,282.937134 627.052307,283.028198 
	C619.942017,283.128662 616.646362,279.962891 616.458252,272.203979 
	C616.249512,263.594849 616.410461,254.976761 616.410461,246.008743 
	C614.483521,246.164917 613.106323,246.276535 611.788818,246.383316 
	C611.788818,256.280731 611.636047,265.767181 611.850952,275.245270 
	C611.964539,280.253845 614.262756,284.370789 619.197266,286.154083 
	C626.157593,288.669586 632.909973,288.649811 639.172302,282.554199 
M432.717590,403.139923 
	C433.108673,404.506805 433.499756,405.873688 433.583496,406.166351 
	C437.765808,404.912048 441.214081,403.358276 444.770416,403.049622 
	C446.343231,402.913116 448.134949,405.299072 449.827301,406.539917 
	C448.504822,408.002930 447.447052,410.058167 445.799774,410.794373 
	C443.121460,411.991425 440.000122,412.148407 437.169189,413.064117 
	C432.610260,414.538818 430.567596,417.824005 431.032379,422.623749 
	C431.508667,427.542084 434.516479,430.516052 439.127136,430.428772 
	C442.941254,430.356598 446.723846,428.617157 449.901917,427.779449 
	C452.685608,428.765259 455.463348,429.748962 459.574036,431.204712 
	C458.709717,428.547577 458.459198,426.701050 458.042847,426.662872 
	C453.578491,426.253448 454.714630,422.954620 454.646729,420.359589 
	C454.555420,416.870422 454.655426,413.376709 454.616150,409.885590 
	C454.518463,401.203522 450.747223,397.603638 442.154053,398.825256 
	C439.053894,399.265961 436.180878,401.304840 432.717590,403.139923 
M230.058838,255.740463 
	C224.724335,255.296509 219.950348,256.528015 217.063599,261.352051 
	C213.074295,268.018585 213.042572,275.099274 216.851089,281.771027 
	C221.003265,289.044769 233.930389,289.809387 239.029419,283.456665 
	C241.088165,280.891754 240.648514,279.407623 237.217545,278.785339 
	C234.364517,283.652130 229.777176,284.225006 225.050705,282.708557 
	C220.707977,281.315247 219.402466,277.537781 219.616257,272.728180 
	C226.712616,272.728180 233.655457,272.728180 240.516968,272.728180 
	C241.984818,262.497894 239.134842,257.682159 230.058838,255.740463 
M500.854034,387.027710 
	C499.580872,387.027710 498.307739,387.027710 497.047485,387.027710 
	C497.047485,401.448639 497.047485,415.550385 497.047485,429.996094 
	C498.613098,429.893738 499.953247,429.806122 501.955414,429.675201 
	C501.955414,422.815277 501.573303,416.314362 502.078125,409.883087 
	C502.471405,404.872711 506.516754,402.437622 511.768127,402.821045 
	C516.856873,403.192627 517.341736,406.766083 517.377136,410.631317 
	C517.434814,416.929443 517.392700,423.228546 517.392700,429.741211 
	C519.135254,429.741211 520.491394,429.741211 522.003418,429.741211 
	C522.003418,422.328552 522.201660,415.184235 521.943909,408.056458 
	C521.716980,401.779785 518.312378,398.409729 512.050476,398.773468 
	C508.552246,398.976624 505.143646,400.724030 501.417236,401.860138 
	C501.417236,397.251038 501.417236,392.433990 500.854034,387.027710 
M291.865570,286.515839 
	C293.780701,286.776093 295.695862,287.036377 298.222900,287.379791 
	C297.841705,285.646515 297.689301,283.726440 297.372986,283.699036 
	C292.562561,283.282440 293.997772,279.699493 293.890198,277.004303 
	C293.770782,274.012817 293.846893,271.012848 293.866486,268.016724 
	C293.895203,263.625427 294.108978,258.944458 289.220123,256.863922 
	C283.842651,254.575439 278.504028,255.132629 273.640259,258.659393 
	C270.789154,260.726746 271.054321,262.441528 272.804504,263.328979 
	C277.034882,261.925293 280.165283,260.267609 283.388672,260.061066 
	C285.175415,259.946564 287.117645,262.257751 288.989777,263.475586 
	C287.552216,264.994812 286.380157,267.098175 284.616455,267.899841 
	C281.792816,269.183258 278.479248,269.345032 275.550293,270.451080 
	C271.459869,271.995697 269.769684,275.334015 270.248749,279.607880 
	C270.725830,283.863800 273.015930,287.226990 277.411377,287.209808 
	C281.544189,287.193665 285.671417,285.764923 290.374054,284.845734 
	C290.095581,284.459991 290.675934,285.263824 291.865570,286.515839 
M746.970581,267.536621 
	C744.521057,258.444519 739.475159,254.766998 730.795593,255.747894 
	C723.236084,256.602234 718.899231,261.931671 718.639099,270.805389 
	C718.590576,272.459930 718.723206,274.140106 718.967163,275.779419 
	C720.055237,283.090637 725.241211,287.583710 732.664551,287.735504 
	C740.168518,287.888947 745.868835,283.215088 746.903198,275.800446 
	C747.244873,273.350891 747.009705,270.820862 746.970581,267.536621 
M100.569649,282.989685 
	C101.626762,280.573914 103.132019,278.252136 103.661674,275.725769 
	C105.713470,265.939056 101.093452,257.462433 93.200020,255.962402 
	C85.653458,254.528275 79.641434,257.257538 76.894096,263.364777 
	C73.554398,270.788818 75.377411,280.905853 80.786659,284.966827 
	C86.326469,289.125854 94.001045,288.558411 100.569649,282.989685 
M713.808350,285.285706 
	C709.640259,280.423523 705.472229,275.561340 701.305664,270.700867 
	C705.599426,265.788513 709.483765,261.344574 714.107178,256.055054 
	C704.317871,255.837830 703.144348,265.412750 696.517517,268.375885 
	C696.517517,260.127838 696.517517,252.219299 696.517517,244.183167 
	C694.747437,244.183167 693.402283,244.183167 692.093811,244.183167 
	C692.093811,258.608398 692.093811,272.686676 692.093811,286.802246 
	C693.585388,286.802246 694.843994,286.802246 696.754517,286.802246 
	C696.754517,282.280640 696.754517,277.955048 696.754517,272.446320 
	C700.988464,277.311371 704.404236,281.103027 707.660095,285.027313 
	C709.626160,287.397003 711.654053,287.949615 713.808350,285.285706 
M137.821396,265.062195 
	C137.265503,261.069763 135.994995,257.386383 131.666107,256.231689 
	C126.167877,254.765076 121.110443,255.565475 117.432915,260.935242 
	C116.733894,255.964645 116.733894,255.964645 112.743568,256.824188 
	C112.743568,266.773987 112.743568,276.733643 112.743568,287.042603 
	C114.340797,286.921600 115.706551,286.818146 116.796211,286.735596 
	C117.171593,279.627869 117.128380,272.944977 118.002007,266.384186 
	C118.648773,261.527039 122.553734,259.387024 127.621101,259.864777 
	C132.634567,260.337372 133.114410,263.862885 133.107315,267.782898 
	C133.095901,274.076050 133.104248,280.369171 133.104248,286.703796 
	C134.930710,286.703796 136.305389,286.703796 137.871613,286.703796 
	C137.871613,279.578949 137.871613,272.767334 137.821396,265.062195 
M819.824280,255.774246 
	C818.330994,255.739471 816.826538,255.570755 815.346375,255.693832 
	C809.871338,256.149017 806.594849,258.855347 806.164124,263.144348 
	C805.729492,267.472229 808.276489,270.626709 813.635803,272.269867 
	C815.856384,272.950684 818.379944,273.061737 820.285461,274.221222 
	C821.856567,275.177216 823.742798,277.387909 823.610596,278.875580 
	C823.476501,280.384735 820.977356,282.919525 819.622314,282.851471 
	C815.645020,282.651611 811.721497,281.381470 807.776855,280.530548 
	C807.764587,279.980225 807.752258,279.429871 807.739929,278.879547 
	C806.854797,279.909332 805.969604,280.939117 805.095032,281.956635 
	C808.417419,286.838348 813.099609,287.800079 818.035034,287.667511 
	C824.305420,287.499054 828.178894,284.209381 828.634094,279.190399 
	C829.082458,274.246368 826.305420,271.081268 820.020813,269.401825 
	C819.219177,269.187592 818.370544,269.132751 817.585632,268.875824 
	C814.381775,267.827118 810.101868,267.691467 811.082764,262.539185 
	C811.595520,259.845825 816.817017,258.670807 820.756958,260.164032 
	C821.371887,260.397095 822.048950,260.674011 822.486755,261.131866 
	C824.835510,263.587982 826.041809,262.118469 827.644470,259.120972 
	C825.186951,257.987366 822.901001,256.932892 819.824280,255.774246 
M466.515259,77.885933 
	C476.919464,77.885933 487.323669,77.885933 497.667114,77.885933 
	C497.667114,75.152313 497.667114,73.062836 497.667114,70.957672 
	C482.874023,70.957672 468.341675,70.957672 453.867188,70.957672 
	C453.867188,73.369965 453.867188,75.470139 453.867188,77.885933 
	C457.943085,77.885933 461.733002,77.885933 466.515259,77.885933 
M497.921356,51.520145 
	C497.195435,50.710583 496.476593,49.202301 495.742615,49.194893 
	C481.837097,49.054565 467.929840,49.091454 453.804657,49.091454 
	C453.804657,51.648304 453.804657,53.738159 453.804657,56.057686 
	C468.522736,56.057686 483.073090,56.057686 497.758789,56.057686 
	C497.819427,54.713757 497.871307,53.563618 497.921356,51.520145 
M659.065430,590.652710 
	C645.475586,590.652710 631.885681,590.652710 618.201050,590.652710 
	C618.201050,593.197449 618.201050,595.406982 618.201050,597.672119 
	C632.898193,597.672119 647.272461,597.672119 663.126038,597.672119 
	C661.876343,594.889709 660.925598,592.772888 659.065430,590.652710 
M650.466797,576.278992 
	C654.244385,576.278992 658.022034,576.278992 661.840332,576.278992 
	C661.840332,573.674011 661.840332,571.574829 661.840332,569.287720 
	C647.194153,569.287720 632.771973,569.287720 618.205444,569.287720 
	C618.205444,571.676025 618.205444,573.868530 618.205444,576.278992 
	C628.842407,576.278992 639.160217,576.278992 650.466797,576.278992 
M476.700531,430.718872 
	C481.419464,430.698730 485.525055,429.464478 488.301300,425.239990 
	C490.183502,422.375916 489.110809,421.216156 486.280060,420.709656 
	C481.924774,426.596375 476.092285,428.044739 471.768951,424.498383 
	C467.184784,420.738068 466.593292,410.447479 470.689789,405.722900 
	C474.471863,401.360840 480.589783,402.010559 486.173126,407.367096 
	C489.571136,405.138397 489.678925,404.630432 487.291443,402.098114 
	C482.237976,396.738159 471.138916,397.600342 466.366241,403.687103 
	C460.319183,411.399261 461.813629,429.234528 476.700531,430.718872 
M542.396179,426.296539 
	C541.059692,424.702850 538.701660,423.188568 538.570496,421.501129 
	C538.101135,415.465637 538.386719,409.371429 538.386719,403.044617 
	C541.790710,403.044617 544.746399,403.044617 547.878235,403.044617 
	C547.878235,401.567505 547.878235,400.366028 547.878235,398.910767 
	C544.586548,398.910767 541.625549,398.910767 538.538391,398.910767 
	C538.410156,396.555756 538.295349,394.446686 538.178345,392.298645 
	C531.898743,391.147705 534.428955,396.123474 533.566650,398.412659 
	C532.043579,400.110657 526.831177,397.116730 528.686829,402.751434 
	C530.309875,402.935394 531.917236,403.117554 533.737488,403.323853 
	C533.737488,406.468048 533.735718,409.430878 533.737976,412.393677 
	C533.740234,415.382446 533.672424,418.373505 533.765564,421.359497 
	C534.002075,428.943085 538.983093,432.374207 546.180664,430.123474 
	C549.322937,429.140900 549.792053,427.695129 547.632996,425.315674 
	C546.097412,425.665527 544.673767,425.989899 542.396179,426.296539 
M669.737427,270.437347 
	C669.742493,273.102020 669.676392,275.769073 669.766113,278.430878 
	C670.020569,285.980835 675.139343,289.433105 682.305298,287.097168 
	C685.634216,286.011993 685.602844,284.467255 683.523376,282.242676 
	C676.129028,284.551086 674.387878,283.292328 674.345947,275.692413 
	C674.317810,270.579285 674.340576,265.465912 674.340576,259.911926 
	C677.811340,259.911926 680.895996,259.911926 684.232239,259.911926 
	C684.085571,258.349976 683.983337,257.260712 683.859558,255.941757 
	C680.642944,255.941757 677.672241,255.941757 674.542297,255.941757 
	C674.413330,253.583237 674.297729,251.469177 674.179382,249.304489 
	C667.906128,248.119476 670.425232,253.113876 669.507507,255.568497 
	C667.988159,257.038605 662.848877,254.162125 664.687988,259.744415 
	C666.338684,259.940643 667.948059,260.131989 669.737549,260.344727 
	C669.737549,263.505005 669.737549,266.481934 669.737427,270.437347 
M260.429138,256.055725 
	C258.680023,256.055725 256.930878,256.055725 254.828125,256.055725 
	C254.828125,253.244904 254.828125,251.158218 254.828125,249.219604 
	C248.460556,248.201096 251.079926,253.352493 250.090927,255.734573 
	C245.332153,256.212738 245.332153,256.212738 245.469101,259.771576 
	C247.017639,259.967102 248.594009,260.166107 250.318909,260.383881 
	C250.318909,263.653839 250.314804,266.639282 250.320068,269.624725 
	C250.325363,272.624023 250.199249,275.631775 250.378448,278.620941 
	C250.818420,285.960236 255.689667,289.207275 262.739868,287.184692 
	C266.208008,286.189728 266.636658,284.701752 264.231415,282.191772 
	C257.909027,284.192383 255.396530,283.290283 255.184021,278.588318 
	C254.908508,272.492432 255.116776,266.374695 255.116776,259.861450 
	C258.713837,259.861450 261.806824,259.861450 264.722778,259.861450 
	C265.814117,256.119659 263.842255,255.815872 260.429138,256.055725 
M838.089233,267.557495 
	C838.093567,271.222504 837.987183,274.891663 838.125488,278.551605 
	C838.406189,285.977814 843.800415,289.471222 850.888672,287.095001 
	C854.282532,285.957275 853.916016,284.371460 852.110474,282.210663 
	C845.689148,284.194763 843.192810,283.272095 843.024109,278.639496 
	C842.801758,272.535889 842.969421,266.418091 842.969421,259.873413 
	C846.516907,259.873413 849.603943,259.873413 853.204285,259.873413 
	C851.676086,252.946701 846.012939,257.936371 842.949341,255.124451 
	C842.949341,253.544327 842.949341,251.441757 842.949341,248.923996 
	C841.149536,249.205139 839.770508,249.420547 838.272705,249.654510 
	C838.146118,251.911667 838.038147,253.836411 837.930847,255.750000 
	C835.734680,256.550140 831.465393,254.687149 833.282349,259.812378 
	C834.800659,259.961060 836.363159,260.114044 838.089294,260.283051 
	C838.089294,262.613922 838.089294,264.597076 838.089233,267.557495 
M304.083405,276.334900 
	C304.089569,277.666901 304.022247,279.004028 304.114410,280.330048 
	C304.542450,286.489380 308.251190,288.779388 315.098907,286.488342 
	C314.325409,285.328705 313.573425,283.329712 312.920197,283.361511 
	C308.213593,283.590332 308.963104,280.345703 308.955139,277.595459 
	C308.924286,266.939056 308.940277,256.282471 308.917480,245.626007 
	C308.916504,245.157852 308.705566,244.690155 308.579071,244.167114 
	C307.127014,244.167114 305.750610,244.167114 304.083374,244.167114 
	C304.083374,254.778595 304.083374,265.078400 304.083405,276.334900 
M58.149311,285.210693 
	C58.158218,280.563202 58.046394,275.911652 58.201714,271.269043 
	C58.504917,262.206024 61.096390,259.929260 70.469246,260.660095 
	C70.561356,259.433624 71.116180,257.345398 70.675133,257.108093 
	C65.629730,254.393417 61.596813,256.293152 58.183815,260.746918 
	C58.031906,259.062927 57.915699,257.774689 57.787018,256.348206 
	C56.381493,256.348206 55.133472,256.348206 53.812408,256.348206 
	C53.812408,266.646362 53.812408,276.705078 53.812408,287.342316 
	C55.499931,286.868958 56.802334,286.503601 58.149311,285.210693 
M653.005676,284.243347 
	C652.772156,288.485565 655.443909,286.858673 657.534180,286.768341 
	C657.534180,276.415161 657.534180,266.363708 657.534180,256.268311 
	C655.955383,256.268311 654.691895,256.268311 653.005371,256.268311 
	C653.005371,265.409576 653.005371,274.349731 653.005676,284.243347 
M657.615906,244.612000 
	C655.912231,244.916748 654.134155,245.040222 652.569153,245.682755 
	C652.264587,245.807800 652.357178,248.494324 653.035400,249.034988 
	C653.986145,249.792938 656.479248,250.264633 656.855225,249.764130 
	C657.733948,248.594193 657.744324,246.772018 657.615906,244.612000 
z"/>
<path fill="#EFEFEF" opacity="1.000000" stroke="none" 
	d="
M731.280151,321.277588 
	C739.027161,314.397522 746.524536,307.768616 754.021973,301.139709 
	C753.544373,300.501495 753.066772,299.863281 752.589172,299.225067 
	C753.488770,300.018066 754.388428,300.811066 755.556519,301.840698 
	C701.274658,358.429199 647.212219,414.788940 592.716553,471.600342 
	C628.581909,489.810211 664.108765,507.848236 700.393127,526.270874 
	C699.828613,524.587769 699.259521,523.694397 699.320740,522.846375 
	C699.381226,522.007507 699.901611,520.801086 700.548340,520.525208 
	C701.120789,520.281067 702.547546,520.864929 702.899475,521.481445 
	C704.460144,524.215820 706.000549,527.014099 707.018066,529.971741 
	C707.295044,530.776855 705.975220,532.779663 704.944031,533.242004 
	C703.180542,534.032776 701.076050,534.215027 699.096558,534.325073 
	C697.449524,534.416748 695.776306,534.037781 694.114685,533.867249 
	C695.028198,532.459106 695.941650,531.050964 697.170532,529.156494 
	C661.765808,511.178894 625.893555,492.963867 589.800293,474.636627 
	C573.168335,491.977112 556.705811,509.140839 539.698425,526.872681 
	C541.064087,526.958801 541.954102,526.817200 542.663147,527.111511 
	C543.482178,527.451294 544.141846,528.175354 544.870667,528.732605 
	C544.184692,529.531677 543.627686,530.819824 542.789307,531.040894 
	C539.904053,531.801697 536.933105,532.295227 533.966003,532.649719 
	C533.161438,532.745911 531.487549,531.929260 531.511597,531.639160 
	C531.848572,527.570007 532.373230,523.513611 533.013184,519.479553 
	C533.050720,519.242981 535.070740,518.977722 535.137451,519.142639 
	C535.716736,520.574829 536.060059,522.102417 536.629333,524.166260 
	C553.014893,507.090790 569.305481,490.114288 585.990845,472.726379 
	C567.205078,463.176025 548.935791,453.888245 530.686340,444.610596 
	C531.680603,440.667267 531.703552,440.621948 535.161072,442.372650 
	C551.606079,450.699249 568.097778,458.937592 584.424622,467.490417 
	C587.821838,469.270081 589.694031,469.010193 592.362183,466.218018 
	C638.514282,417.920715 684.785400,369.737152 731.280151,321.277588 
z"/>
<path fill="#F6F6F6" opacity="1.000000" stroke="none" 
	d="
M448.189514,559.799683 
	C445.816010,563.814026 443.511627,567.483093 440.913666,571.619690 
	C446.242859,576.807373 447.089722,584.064636 443.300140,591.620605 
	C439.211884,599.772095 431.695251,602.002747 423.176697,601.881958 
	C421.678101,601.860718 419.903076,601.313110 418.743103,601.928040 
	C416.795227,602.960510 414.065155,604.585815 413.860657,606.234131 
	C413.671051,607.762329 416.032379,610.401794 417.857086,611.184998 
	C420.169220,612.177307 423.072113,611.819763 425.723816,611.987915 
	C429.873138,612.251099 434.068054,612.172852 438.167297,612.766602 
	C445.756744,613.865845 449.897919,617.525879 450.939362,623.433594 
	C452.238525,630.803467 449.483704,637.313965 443.150330,640.941772 
	C434.603119,645.837830 425.245941,645.826477 415.954498,644.294189 
	C411.992493,643.640808 407.864624,642.057739 404.550262,639.809204 
	C397.286804,634.881470 395.991455,621.273926 407.798004,617.778259 
	C408.580444,617.546570 409.311310,617.140747 410.104858,616.799316 
	C402.587158,607.638977 403.136871,604.321289 413.392151,598.554077 
	C407.953735,594.910950 403.941650,590.163635 404.305695,583.556580 
	C404.534363,579.406616 405.505615,574.820679 407.637543,571.347229 
	C412.813477,562.914185 424.824860,561.028442 437.147400,566.334656 
	C438.451843,563.214417 439.755188,560.096802 441.533386,555.843445 
	C443.728027,557.021851 445.993347,558.238159 448.189514,559.799683 
M442.298767,629.153748 
	C442.844513,624.983765 441.684204,621.496338 437.101410,621.069519 
	C429.835419,620.392822 422.506226,620.055054 415.212280,620.160706 
	C411.547607,620.213745 408.578827,622.341003 407.987305,626.499512 
	C407.370392,630.836548 409.027710,634.253845 413.059845,635.763489 
	C421.131073,638.785400 429.398010,638.893372 437.302002,635.264832 
	C439.300079,634.347534 440.539856,631.778503 442.298767,629.153748 
M437.107605,580.811462 
	C435.534027,572.662109 430.260803,569.370178 421.303650,570.945557 
	C416.167114,571.848938 413.223236,575.236511 412.626068,580.930908 
	C411.974091,587.147705 414.241913,591.981628 419.108063,593.543701 
	C427.689606,596.298462 438.175476,593.367554 437.107605,580.811462 
z"/>
<path fill="#F7F7F7" opacity="1.000000" stroke="none" 
	d="
M581.610779,65.383804 
	C588.425598,71.869354 589.322388,79.540779 586.836731,87.671684 
	C584.126282,96.537491 577.009033,100.460022 568.476379,101.562317 
	C563.618347,102.189896 558.463806,102.006439 553.641052,101.115395 
	C543.411926,99.225510 537.491943,92.986870 536.173767,83.863579 
	C534.734863,73.905396 538.630249,66.796722 548.338928,61.637402 
	C548.904480,61.336891 549.424622,60.951073 550.240784,60.429138 
	C549.334473,59.667679 548.639954,58.995575 547.860535,58.443314 
	C541.355530,53.833839 538.689941,47.532238 540.263306,39.784363 
	C541.851379,31.964067 547.058960,27.010405 554.751953,25.901245 
	C560.185974,25.117775 566.057861,25.272154 571.400513,26.481924 
	C578.166931,28.014095 582.522949,33.033993 583.798584,40.035355 
	C585.095825,47.155540 582.937378,53.168289 577.074463,57.662354 
	C576.042725,58.453159 575.011230,59.244247 573.688660,60.258343 
	C576.449341,62.021057 578.896118,63.583370 581.610779,65.383804 
M576.760864,72.022896 
	C572.133423,63.566666 556.237915,63.840508 550.320923,68.536392 
	C544.203552,73.391335 543.466675,84.321854 549.085022,89.891930 
	C554.067261,94.831474 565.928955,95.770340 572.484497,91.744080 
	C578.431946,88.091293 580.120422,81.098724 576.760864,72.022896 
M575.367737,45.410702 
	C575.321655,44.582634 575.336670,43.745838 575.219849,42.927879 
	C574.242004,36.083515 568.813538,31.887875 561.387634,32.211044 
	C553.716248,32.544899 548.999207,36.949894 548.679749,44.078144 
	C548.350769,51.420273 552.383179,56.341743 559.377136,57.133949 
	C568.513428,58.168812 573.816711,54.550755 575.367737,45.410702 
z"/>
<path fill="#F7F7F7" opacity="1.000000" stroke="none" 
	d="
M537.841919,574.776611 
	C535.661011,576.800415 533.711121,578.543579 531.464417,580.552063 
	C538.065491,583.773804 543.483276,587.598206 545.129089,595.041077 
	C548.158386,608.740845 540.682495,619.541321 526.043823,621.617920 
	C521.505676,622.261719 516.675415,622.115723 512.151428,621.333557 
	C501.773346,619.539185 495.420197,613.319702 494.085815,604.605835 
	C492.432678,593.810120 496.041260,587.010681 506.347168,581.480835 
	C506.783813,581.246460 507.177460,580.931885 507.839294,580.488342 
	C507.102997,579.796387 506.501678,579.073486 505.757355,578.556519 
	C498.993896,573.858643 496.423309,567.379150 498.118103,559.440918 
	C499.797638,551.574097 505.223785,546.908569 512.864746,545.771729 
	C517.990906,545.009094 523.630859,544.953430 528.580750,546.288025 
	C541.439697,549.755188 545.772339,563.468506 537.841919,574.776611 
M535.783142,604.633179 
	C536.945740,597.872681 536.704651,591.349487 529.863892,587.660278 
	C523.200073,584.066589 516.018738,584.081299 509.429535,587.863220 
	C507.080475,589.211426 505.022247,591.990173 504.014130,594.576904 
	C501.039062,602.210510 504.412933,610.015137 511.343292,612.835327 
	C520.981262,616.757385 531.377075,613.543762 535.783142,604.633179 
M514.426270,576.664856 
	C517.232300,576.805298 520.073059,577.290527 522.836731,577.011597 
	C527.969788,576.493469 531.901978,572.745605 532.921448,568.000488 
	C534.404602,561.097229 531.004272,554.934143 524.631042,552.974487 
	C517.254395,550.706360 509.579590,553.630981 507.218201,559.610046 
	C504.590973,566.262085 507.134552,572.812378 514.426270,576.664856 
z"/>
<path fill="#EFEFEF" opacity="1.000000" stroke="none" 
	d="
M411.955566,111.240509 
	C410.170776,100.500214 408.433197,90.192039 406.695587,79.883865 
	C406.312256,79.544800 405.928894,79.205727 405.545563,78.866661 
	C405.092987,79.796844 404.807739,80.887016 404.126953,81.598915 
	C403.698883,82.046562 402.303009,82.291969 402.002747,81.983711 
	C401.427368,81.393082 400.837708,80.130013 401.105682,79.520142 
	C402.438141,76.487457 403.982880,73.539841 405.615479,70.654282 
	C405.937561,70.085098 407.405029,69.447380 407.616516,69.640068 
	C410.637054,72.391930 413.557648,75.256927 416.391174,78.201576 
	C416.549835,78.366478 415.605255,80.070465 415.406311,80.025726 
	C413.943756,79.696922 412.540375,79.105003 410.612122,78.414742 
	C426.958313,176.783859 443.281586,275.015106 459.602509,373.232330 
	C456.084808,375.187134 455.452118,373.406799 454.992126,370.626190 
	C448.421997,330.909424 441.761505,291.207642 435.164551,251.495285 
	C427.422760,204.891266 419.721558,158.280487 411.955566,111.240509 
z"/>
<path fill="#F6F6F6" opacity="1.000000" stroke="none" 
	d="
M737.058228,561.587280 
	C735.483643,550.580505 716.521606,550.414490 710.372192,557.877808 
	C709.324219,559.149780 708.312256,560.451355 706.886292,562.236694 
	C705.012024,560.241028 703.281372,558.398254 701.634521,556.644714 
	C709.197510,541.968079 732.250244,542.611145 740.509033,549.832275 
	C748.721619,557.013000 748.144470,570.388306 739.174133,577.245117 
	C737.756958,578.328430 736.244385,579.286987 734.641724,580.396057 
	C748.636719,587.525940 752.756775,596.404785 748.030640,608.906982 
	C747.392761,610.594543 746.584106,612.323303 745.450684,613.700623 
	C737.854675,622.931091 727.499512,622.971680 717.082520,621.436890 
	C707.227905,619.985107 701.185242,613.830811 698.469360,603.505310 
	C700.866455,602.425476 703.166321,601.389526 705.800354,600.203003 
	C706.216003,600.859192 706.593079,601.239441 706.722717,601.690674 
	C709.929993,612.852600 719.269287,615.591431 729.769409,613.359619 
	C737.560059,611.703796 740.814758,606.751282 740.268066,598.306030 
	C739.812439,591.266663 735.645081,586.789246 728.221985,586.066101 
	C723.962280,585.651062 719.629150,585.990845 715.058594,585.990845 
	C715.058594,583.132629 715.058594,580.871582 715.058594,578.288452 
	C722.019104,577.733948 730.030029,579.656128 734.704041,572.799194 
	C736.633362,569.968750 736.376404,565.648132 737.058228,561.587280 
z"/>
<path fill="#FAFAFA" opacity="1.000000" stroke="none" 
	d="
M337.313110,43.334702 
	C335.196655,41.745964 333.361511,40.330254 331.781311,39.111202 
	C340.086121,25.160805 358.821075,20.564238 371.372986,28.460312 
	C380.155823,33.985359 383.307526,47.159771 377.198059,56.815460 
	C373.989441,61.886459 369.250397,66.135872 364.675781,70.157135 
	C359.439087,74.760361 353.377258,78.425743 348.147705,83.036041 
	C345.349823,85.502617 343.548553,89.099678 341.297516,92.186554 
	C341.648376,92.610008 341.999268,93.033463 342.350128,93.456917 
	C354.738281,93.456917 367.126434,93.456917 379.819366,93.456917 
	C379.819366,96.166229 379.819366,98.377625 379.819366,100.773300 
	C364.233551,100.773300 348.654724,100.773300 333.102600,100.773300 
	C331.616943,90.603622 334.755127,82.634560 342.969421,76.645149 
	C349.692596,71.743004 356.370972,66.764709 362.853485,61.551903 
	C367.963623,57.442677 371.409454,52.303051 371.047607,45.274361 
	C370.665924,37.859623 366.709381,33.638119 359.256989,33.000164 
	C351.185974,32.309265 344.515411,34.773018 339.746887,41.616467 
	C339.216675,42.377380 338.320770,42.883461 337.313110,43.334702 
z"/>
<path fill="#F6F6F6" opacity="1.000000" stroke="none" 
	d="
M380.399567,616.456360 
	C370.715302,623.342346 360.611511,624.029358 350.432343,619.154358 
	C340.387054,614.343506 337.448578,605.080505 337.051819,594.758301 
	C336.931305,591.622375 337.008606,588.405823 337.564819,585.329102 
	C340.810242,567.377136 356.922333,558.471252 373.967743,565.118713 
	C379.635315,567.328979 383.708008,571.290039 386.368317,576.766541 
	C391.384338,587.092224 391.268372,607.471008 380.399567,616.456360 
M370.067657,571.992126 
	C357.366577,568.410522 348.190613,573.446350 346.465729,585.815674 
	C345.680573,591.446045 346.132202,597.491211 347.282349,603.089478 
	C348.806488,610.508057 354.769379,614.313416 362.842407,614.460632 
	C371.307800,614.614990 377.474792,611.098083 378.907562,603.307678 
	C380.136383,596.626038 379.747101,589.522705 379.187317,582.678284 
	C378.788727,577.804871 375.318054,574.357666 370.067657,571.992126 
z"/>
<path fill="#EFEFEF" opacity="1.000000" stroke="none" 
	d="
M265.470215,492.423218 
	C269.792633,501.993408 273.918701,511.237610 278.330780,521.122559 
	C278.900452,519.669495 279.074005,518.652100 279.639862,517.951599 
	C280.165497,517.300781 281.109558,516.988037 281.869446,516.526489 
	C282.338531,517.306030 283.301788,518.164001 283.192596,518.851807 
	C282.672638,522.127380 281.964050,525.385498 281.067017,528.578003 
	C280.886536,529.220459 279.306915,530.146118 278.865112,529.930664 
	C275.597595,528.337402 272.406738,526.564941 269.327271,524.632874 
	C268.891449,524.359375 269.189087,522.916687 269.147217,522.015198 
	C270.619446,522.015198 272.091705,522.015198 274.180359,522.015198 
	C270.456848,513.708740 266.770386,505.466217 263.068878,497.230408 
	C234.146469,432.878937 205.212448,368.532715 176.336609,304.160339 
	C175.412888,302.101074 172.836227,299.202820 178.269318,298.309906 
	C207.244125,362.846130 236.259003,427.471680 265.470215,492.423218 
z"/>
<path fill="#EFEFEF" opacity="1.000000" stroke="none" 
	d="
M191.658386,223.685730 
	C234.665161,171.158249 277.435059,118.904312 320.657684,66.097298 
	C319.050262,66.097298 318.078247,66.325493 317.300873,66.034218 
	C316.495789,65.732544 315.348785,64.951340 315.320709,64.335640 
	C315.288727,63.634899 316.235565,62.366642 316.919434,62.242863 
	C320.708527,61.557076 324.547089,61.144550 328.368713,60.638435 
	C328.124573,64.826149 327.891022,69.014595 327.602509,73.199242 
	C327.589233,73.392120 327.082336,73.550980 326.117828,74.159348 
	C325.305939,72.487701 324.535492,70.901329 323.586243,68.946838 
	C279.302704,123.033714 235.069946,177.058578 190.860046,231.055511 
	C187.325836,228.970718 187.325836,228.970718 191.658386,223.685730 
z"/>
<path fill="#EFEFEF" opacity="1.000000" stroke="none" 
	d="
M670.941406,180.019073 
	C682.911743,196.422653 694.685120,212.528549 706.705872,228.972916 
	C705.648987,229.833328 704.730225,230.581329 703.595093,231.505478 
	C668.537170,183.614059 633.677002,135.992661 598.323181,87.696968 
	C598.093567,89.083908 598.185425,90.032761 597.774597,90.643425 
	C597.215088,91.475052 596.271973,92.048592 595.493347,92.732819 
	C594.934692,91.987610 593.927795,91.261139 593.895691,90.493912 
	C593.763855,87.340347 593.856812,84.170166 594.042053,81.016388 
	C594.081055,80.353859 595.024780,79.120872 595.274109,79.187592 
	C599.201111,80.238205 603.093018,81.427605 606.950928,82.711426 
	C607.201843,82.794930 607.333618,84.369743 607.144653,84.459625 
	C605.836182,85.081825 604.427856,85.494148 602.396606,86.202202 
	C625.148621,117.333382 647.946533,148.527374 670.941406,180.019073 
z"/>
<path fill="#F6F6F6" opacity="1.000000" stroke="none" 
	d="
M472.407776,549.374634 
	C475.278564,545.403564 476.568573,539.680847 483.663177,542.150574 
	C467.137268,571.716370 467.003876,601.394226 483.750092,631.278625 
	C480.003815,632.619568 477.423889,631.910645 475.292755,628.574524 
	C458.863159,602.854614 458.235016,576.557922 472.407776,549.374634 
z"/>
<path fill="#ECECEC" opacity="1.000000" stroke="none" 
	d="
M410.988159,412.109741 
	C409.070862,417.476227 407.382324,422.519257 405.331421,427.410400 
	C404.853577,428.549988 403.133545,429.859283 402.004517,429.841736 
	C400.866394,429.824036 399.161896,428.478943 398.720642,427.326660 
	C394.950378,417.481140 391.411102,407.547180 387.113983,397.772125 
	C387.113983,408.288544 387.113983,418.804962 387.113983,429.723602 
	C385.464661,429.832062 384.103271,429.921570 382.483673,430.028076 
	C382.483673,416.276154 382.483673,402.875610 382.483673,389.259399 
	C384.845581,389.259399 386.962433,389.259399 389.615204,389.259399 
	C393.615753,400.343048 397.692627,411.638153 402.207397,424.146423 
	C406.066742,413.430664 409.505707,403.902313 412.929352,394.368439 
	C414.970886,388.683441 414.960083,388.679565 421.639709,389.440002 
	C421.639709,402.807587 421.639709,416.205902 421.639709,429.818298 
	C420.205963,429.818298 418.925446,429.818298 417.179047,429.818298 
	C417.179047,419.372467 417.179047,408.845337 417.179047,398.318237 
	C416.835815,398.245026 416.492615,398.171844 416.149384,398.098633 
	C414.461212,402.642731 412.773041,407.186829 410.988159,412.109741 
z"/>
<path fill="#F6F6F6" opacity="1.000000" stroke="none" 
	d="
M567.508667,576.834106 
	C566.339172,564.114319 561.901245,552.952271 555.487000,542.255371 
	C559.614502,540.861938 561.997070,541.791443 564.287720,545.053650 
	C581.101990,568.999146 581.185181,604.295044 564.269104,628.206543 
	C561.442749,632.201721 561.442749,632.201721 555.367493,631.281677 
	C565.872314,614.610779 569.456665,596.521362 567.508667,576.834106 
z"/>
<path fill="#FDFDFD" opacity="1.000000" stroke="none" 
	d="
M318.874756,611.956665 
	C321.695129,613.269470 324.347534,614.176331 327.961273,615.411926 
	C328.113525,616.166748 328.524536,618.204712 328.924774,620.189392 
	C320.288239,625.264282 310.319489,620.446899 309.935638,610.664612 
	C309.433685,597.872742 309.690277,585.050476 309.653839,572.241150 
	C309.625519,562.273560 309.648163,552.305847 309.648163,541.981995 
	C312.389984,541.981995 314.940430,541.981995 318.019318,541.981995 
	C318.019318,545.878906 318.019318,549.814758 318.019318,553.750549 
	C318.019318,570.887573 317.995453,588.024719 318.049683,605.161560 
	C318.056427,607.291992 318.477600,609.421021 318.874756,611.956665 
z"/>
<path fill="#F4F4F4" opacity="1.000000" stroke="none" 
	d="
M416.146484,53.973991 
	C411.785400,60.693550 405.355225,60.576569 399.010376,59.666801 
	C393.701599,58.905590 390.003235,55.720863 388.568542,49.589470 
	C390.446869,48.723896 392.308319,47.866116 394.142395,47.020927 
	C398.563354,53.364632 401.650818,54.845840 406.279144,53.197411 
	C409.591064,52.017849 410.513092,49.481693 409.978882,46.465378 
	C408.748901,39.521015 402.865173,41.526279 398.174011,40.782265 
	C398.174011,39.047619 398.174011,37.341225 398.174011,35.600662 
	C401.952820,34.444508 407.550903,37.068253 408.249542,30.779379 
	C408.444702,29.022856 407.327087,26.023872 405.973358,25.392599 
	C401.480896,23.297647 397.608643,25.144003 394.307373,29.421352 
	C392.799713,27.726784 391.429688,26.186943 390.081329,24.671432 
	C395.180634,18.763678 402.725433,16.818544 409.595947,19.476173 
	C417.631989,22.584650 417.958130,31.157240 410.282684,37.526970 
	C417.728729,42.072956 418.895477,45.191753 416.146484,53.973991 
z"/>
<path fill="#EFEFEF" opacity="1.000000" stroke="none" 
	d="
M187.905151,257.811066 
	C192.545074,254.873169 197.028107,255.235580 202.004532,257.094788 
	C202.707809,255.491745 203.419235,253.870178 204.387619,251.662903 
	C205.598450,252.257050 206.791809,252.842636 207.985153,253.428207 
	C206.862411,255.544769 205.739655,257.661346 204.457504,260.078400 
	C209.335495,267.124542 206.037064,276.804504 193.974670,276.796356 
	C192.395081,276.795288 190.814484,278.271698 189.234360,279.063782 
	C190.874435,280.041382 192.411346,281.518585 194.177979,281.883392 
	C197.071960,282.481049 200.418320,281.640289 203.009613,282.738068 
	C205.556778,283.817200 208.813919,286.326752 209.184753,288.624176 
	C209.615875,291.295166 207.988297,295.173187 205.937439,297.185120 
	C201.857407,301.187775 190.000366,301.111847 185.085632,297.900208 
	C179.325729,294.136261 180.180206,288.180328 186.997162,284.576233 
	C183.507217,279.740326 183.677246,278.419708 187.682831,275.331665 
	C186.410004,272.056763 184.378372,269.021454 184.291534,265.931458 
	C184.218506,263.332184 186.408493,260.669342 187.905151,257.811066 
M196.880264,286.631897 
	C194.575256,286.625488 192.165527,286.206787 190.001755,286.756409 
	C188.538864,287.128052 186.467880,288.799896 186.388016,290.004181 
	C186.283859,291.574799 187.744400,294.560547 188.768906,294.667633 
	C193.218933,295.132782 197.796204,295.080231 202.230270,294.488800 
	C203.289795,294.347534 204.663116,291.377167 204.586044,289.770660 
	C204.537064,288.749573 202.156158,287.688904 200.670364,286.947998 
	C199.850082,286.538971 198.718994,286.753235 196.880264,286.631897 
M192.947647,259.956451 
	C189.079819,261.061188 188.084106,264.119141 188.966660,267.370941 
	C189.470291,269.226471 191.445816,271.647461 193.124680,271.983185 
	C195.398849,272.437927 198.854630,271.901642 200.263382,270.372040 
	C201.650177,268.866272 201.862152,265.385651 201.248749,263.137360 
	C200.300095,259.660217 196.911316,259.548431 192.947647,259.956451 
z"/>
<path fill="#F2F2F2" opacity="1.000000" stroke="none" 
	d="
M759.972107,256.768677 
	C760.284302,257.920044 760.443787,258.663513 760.631897,259.540405 
	C769.371765,253.762451 774.054260,254.157806 778.044006,260.037170 
	C781.581604,258.504761 784.823669,256.255981 788.308289,255.778946 
	C794.282593,254.961060 797.789062,258.337463 797.981750,264.413574 
	C798.213379,271.714539 798.036560,279.028473 798.036560,286.753784 
	C796.618164,286.832611 795.257629,286.908264 793.445190,287.009003 
	C793.445190,280.360474 793.497437,274.065552 793.425354,267.772064 
	C793.383057,264.082245 793.611389,260.114563 788.243469,259.800049 
	C783.640564,259.530396 780.440430,261.908112 779.880188,267.063507 
	C779.289795,272.496094 779.445801,278.010162 779.286865,283.488922 
	C779.258057,284.480743 779.282776,285.474121 779.282776,286.743713 
	C777.706787,286.743713 776.307251,286.743713 774.676208,286.743713 
	C774.676208,280.131714 774.738708,273.649353 774.651794,267.168976 
	C774.603027,263.538696 774.264221,259.992035 769.300049,259.789581 
	C764.846497,259.607971 761.355896,261.963074 761.043823,266.586365 
	C760.598389,273.186493 760.930542,279.839111 760.930542,286.716461 
	C758.946106,286.873169 757.687012,286.972595 756.132690,287.095337 
	C756.132690,276.829010 756.132690,266.749359 756.132690,256.360840 
	C757.356995,256.360840 758.588257,256.360840 759.972107,256.768677 
z"/>
<path fill="#F0F0F0" opacity="1.000000" stroke="none" 
	d="
M36.350464,280.297180 
	C37.619904,276.631348 38.607235,273.252716 39.784317,269.224731 
	C34.996300,269.224731 31.383820,269.224731 27.771341,269.224731 
	C27.438486,268.808716 27.105633,268.392700 26.772779,267.976715 
	C27.782940,267.021942 28.740501,265.318451 29.812445,265.243164 
	C34.248859,264.931549 38.719875,265.112427 43.461487,265.112427 
	C43.461487,272.451385 43.461487,279.373322 43.461487,286.728455 
	C42.180794,286.813965 40.810787,286.905426 39.166939,287.015167 
	C39.079914,285.274689 39.008934,283.855164 38.903111,281.738800 
	C33.568188,288.332367 27.139833,288.996429 20.272711,286.258453 
	C13.035182,283.372803 10.569280,277.126434 9.995613,269.933899 
	C9.784951,267.292664 9.788237,264.588684 10.092996,261.959595 
	C11.713084,247.983444 27.968813,240.421799 39.108776,248.394043 
	C43.336300,251.419449 43.646599,253.583405 40.281612,255.721710 
	C38.196781,254.124313 36.364822,252.064148 34.071190,251.080307 
	C25.507982,247.407166 17.383932,251.733139 15.648962,260.931488 
	C15.012918,264.303650 14.895132,267.937195 15.387776,271.328491 
	C16.999804,282.425415 26.400702,286.520355 36.350464,280.297180 
z"/>
<path fill="#F7F7F7" opacity="1.000000" stroke="none" 
	d="
M273.508667,565.594727 
	C277.439270,562.476685 281.186188,559.701904 284.768799,556.729126 
	C289.088165,553.144958 290.206848,549.156311 287.870148,546.513977 
	C285.578125,543.922180 279.446869,544.300781 275.991394,547.346558 
	C275.152466,548.086060 274.591309,549.140808 273.694855,550.324646 
	C271.882660,548.405212 270.541351,546.984497 269.239777,545.605835 
	C273.152130,537.777283 285.254669,536.804077 291.406830,540.385437 
	C297.101074,543.700256 298.309692,552.045837 293.419250,557.305115 
	C290.054810,560.923218 285.815735,563.721863 282.017609,566.945679 
	C280.192902,568.494507 278.483917,570.179565 277.191864,572.904724 
	C283.360687,572.904724 289.529541,572.904724 295.894897,572.904724 
	C295.894897,575.217346 295.894897,576.960938 295.894897,578.936279 
	C287.192902,578.936279 278.619354,578.936279 269.806549,578.936279 
	C269.308777,574.011353 269.739197,569.548035 273.508667,565.594727 
z"/>
<path fill="#EFEFEF" opacity="1.000000" stroke="none" 
	d="
M156.588806,287.465546 
	C148.387802,284.968353 144.828354,278.188232 146.177719,268.268921 
	C147.263275,260.288879 151.919525,255.424973 159.028763,255.771042 
	C162.276169,255.929123 165.452316,257.550842 169.097321,258.639069 
	C169.097321,254.416779 169.097321,249.445297 169.097321,244.178009 
	C171.108856,244.178009 172.455368,244.178009 173.970734,244.178009 
	C173.970734,258.433777 173.970734,272.507385 173.970734,287.918121 
	C171.623154,286.540802 169.975586,285.574158 168.683517,284.816101 
	C165.035370,285.671204 161.003754,286.616150 156.588806,287.465546 
M151.338257,267.290192 
	C151.366257,270.257843 150.976990,273.303375 151.513336,276.176117 
	C152.483749,281.373535 155.596588,283.545746 160.670532,283.289917 
	C165.574097,283.042664 168.257996,280.244232 168.993652,275.611237 
	C169.353378,273.345886 169.329636,270.972504 169.137711,268.676575 
	C168.754501,264.092560 166.571365,260.801727 161.735428,260.010345 
	C156.637009,259.175964 153.739227,261.098267 151.338257,267.290192 
z"/>
<path fill="#F6F6F6" opacity="1.000000" stroke="none" 
	d="
M638.953186,282.860870 
	C632.909973,288.649811 626.157593,288.669586 619.197266,286.154083 
	C614.262756,284.370789 611.964539,280.253845 611.850952,275.245270 
	C611.636047,265.767181 611.788818,256.280731 611.788818,246.383316 
	C613.106323,246.276535 614.483521,246.164917 616.410461,246.008743 
	C616.410461,254.976761 616.249512,263.594849 616.458252,272.203979 
	C616.646362,279.962891 619.942017,283.128662 627.052307,283.028198 
	C633.498352,282.937134 636.921448,279.738525 637.040222,273.185059 
	C637.199829,264.377014 637.079773,255.563934 637.079773,246.397476 
	C638.742371,246.262604 640.125427,246.150421 641.410889,246.046143 
	C641.681946,246.603027 641.947327,246.894592 641.948303,247.186996 
	C641.977112,256.016937 642.213196,264.856415 641.857117,273.671783 
	C641.736267,276.663818 640.110413,279.595123 638.953186,282.860870 
z"/>
<path fill="#ECECEC" opacity="1.000000" stroke="none" 
	d="
M432.960907,402.877197 
	C436.180878,401.304840 439.053894,399.265961 442.154053,398.825256 
	C450.747223,397.603638 454.518463,401.203522 454.616150,409.885590 
	C454.655426,413.376709 454.555420,416.870422 454.646729,420.359589 
	C454.714630,422.954620 453.578491,426.253448 458.042847,426.662872 
	C458.459198,426.701050 458.709717,428.547577 459.574036,431.204712 
	C455.463348,429.748962 452.685608,428.765259 449.901917,427.779449 
	C446.723846,428.617157 442.941254,430.356598 439.127136,430.428772 
	C434.516479,430.516052 431.508667,427.542084 431.032379,422.623749 
	C430.567596,417.824005 432.610260,414.538818 437.169189,413.064117 
	C440.000122,412.148407 443.121460,411.991425 445.799774,410.794373 
	C447.447052,410.058167 448.504822,408.002930 449.827301,406.539917 
	C448.134949,405.299072 446.343231,402.913116 444.770416,403.049622 
	C441.214081,403.358276 437.765808,404.912048 433.583496,406.166351 
	C433.499756,405.873688 433.108673,404.506805 432.960907,402.877197 
M447.769257,424.180786 
	C448.735260,420.904694 449.701294,417.628601 450.832764,413.791412 
	C446.294495,414.799011 442.968323,415.192810 439.934753,416.352203 
	C438.347839,416.958710 436.542664,418.737793 436.174530,420.302246 
	C435.801758,421.886353 436.526062,424.550262 437.743622,425.525970 
	C440.839111,428.006622 444.233093,427.211731 447.769257,424.180786 
z"/>
<path fill="#ECECEC" opacity="1.000000" stroke="none" 
	d="
M230.447784,255.781250 
	C239.134842,257.682159 241.984818,262.497894 240.516968,272.728180 
	C233.655457,272.728180 226.712616,272.728180 219.616257,272.728180 
	C219.402466,277.537781 220.707977,281.315247 225.050705,282.708557 
	C229.777176,284.225006 234.364517,283.652130 237.217545,278.785339 
	C240.648514,279.407623 241.088165,280.891754 239.029419,283.456665 
	C233.930389,289.809387 221.003265,289.044769 216.851089,281.771027 
	C213.042572,275.099274 213.074295,268.018585 217.063599,261.352051 
	C219.950348,256.528015 224.724335,255.296509 230.447784,255.781250 
M220.402771,264.426910 
	C220.140793,265.807190 219.878799,267.187439 219.587616,268.721558 
	C225.380859,268.721558 230.643402,268.721558 235.990677,268.721558 
	C236.519165,264.729492 235.471985,261.379944 231.630188,260.211029 
	C227.513168,258.958313 223.364563,259.269318 220.402771,264.426910 
z"/>
<path fill="#F3F3F3" opacity="1.000000" stroke="none" 
	d="
M501.135620,387.322327 
	C501.417236,392.433990 501.417236,397.251038 501.417236,401.860138 
	C505.143646,400.724030 508.552246,398.976624 512.050476,398.773468 
	C518.312378,398.409729 521.716980,401.779785 521.943909,408.056458 
	C522.201660,415.184235 522.003418,422.328552 522.003418,429.741211 
	C520.491394,429.741211 519.135254,429.741211 517.392700,429.741211 
	C517.392700,423.228546 517.434814,416.929443 517.377136,410.631317 
	C517.341736,406.766083 516.856873,403.192627 511.768127,402.821045 
	C506.516754,402.437622 502.471405,404.872711 502.078125,409.883087 
	C501.573303,416.314362 501.955414,422.815277 501.955414,429.675201 
	C499.953247,429.806122 498.613098,429.893738 497.047485,429.996094 
	C497.047485,415.550385 497.047485,401.448639 497.047485,387.027710 
	C498.307739,387.027710 499.580872,387.027710 501.135620,387.322327 
z"/>
<path fill="#EEEEEE" opacity="1.000000" stroke="none" 
	d="
M291.560913,286.291748 
	C290.675934,285.263824 290.095581,284.459991 290.374054,284.845734 
	C285.671417,285.764923 281.544189,287.193665 277.411377,287.209808 
	C273.015930,287.226990 270.725830,283.863800 270.248749,279.607880 
	C269.769684,275.334015 271.459869,271.995697 275.550293,270.451080 
	C278.479248,269.345032 281.792816,269.183258 284.616455,267.899841 
	C286.380157,267.098175 287.552216,264.994812 288.989777,263.475586 
	C287.117645,262.257751 285.175415,259.946564 283.388672,260.061066 
	C280.165283,260.267609 277.034882,261.925293 272.804504,263.328979 
	C271.054321,262.441528 270.789154,260.726746 273.640259,258.659393 
	C278.504028,255.132629 283.842651,254.575439 289.220123,256.863922 
	C294.108978,258.944458 293.895203,263.625427 293.866486,268.016724 
	C293.846893,271.012848 293.770782,274.012817 293.890198,277.004303 
	C293.997772,279.699493 292.562561,283.282440 297.372986,283.699036 
	C297.689301,283.726440 297.841705,285.646515 298.222900,287.379791 
	C295.695862,287.036377 293.780701,286.776093 291.560913,286.291748 
M289.095917,271.847992 
	C286.190948,272.218567 283.266083,272.476776 280.385956,272.987396 
	C276.556793,273.666260 274.342499,275.832458 275.195251,279.953766 
	C275.888611,283.304749 279.915344,284.865082 283.750305,283.382782 
	C288.726013,281.459534 289.246460,277.226685 289.095917,271.847992 
z"/>
<path fill="#F0F0F0" opacity="1.000000" stroke="none" 
	d="
M747.004456,267.932129 
	C747.009705,270.820862 747.244873,273.350891 746.903198,275.800446 
	C745.868835,283.215088 740.168518,287.888947 732.664551,287.735504 
	C725.241211,287.583710 720.055237,283.090637 718.967163,275.779419 
	C718.723206,274.140106 718.590576,272.459930 718.639099,270.805389 
	C718.899231,261.931671 723.236084,256.602234 730.795593,255.747894 
	C739.475159,254.766998 744.521057,258.444519 747.004456,267.932129 
M734.254211,283.240417 
	C738.757324,282.912323 741.286987,280.135803 741.833313,276.025818 
	C742.525024,270.821564 743.291260,265.302582 738.360901,261.384125 
	C737.388733,260.611420 735.984375,260.200989 734.720459,260.007294 
	C728.292969,259.022064 724.486084,262.176727 723.733215,268.967407 
	C722.678406,278.481995 725.483582,282.637329 734.254211,283.240417 
z"/>
<path fill="#EFEFEF" opacity="1.000000" stroke="none" 
	d="
M100.318619,283.265472 
	C94.001045,288.558411 86.326469,289.125854 80.786659,284.966827 
	C75.377411,280.905853 73.554398,270.788818 76.894096,263.364777 
	C79.641434,257.257538 85.653458,254.528275 93.200020,255.962402 
	C101.093452,257.462433 105.713470,265.939056 103.661674,275.725769 
	C103.132019,278.252136 101.626762,280.573914 100.318619,283.265472 
M98.212540,277.317657 
	C98.291489,273.731018 99.010483,270.013397 98.309174,266.586426 
	C97.051834,260.442352 90.570076,257.929382 85.032318,260.892700 
	C81.151405,262.969421 79.321953,268.739380 80.492096,275.068695 
	C81.234200,279.082733 82.846069,282.390381 87.347839,283.088196 
	C91.951096,283.801727 95.968201,283.016144 98.212540,277.317657 
z"/>
<path fill="#F7F7F7" opacity="1.000000" stroke="none" 
	d="
M713.985718,285.642761 
	C711.654053,287.949615 709.626160,287.397003 707.660095,285.027313 
	C704.404236,281.103027 700.988464,277.311371 696.754517,272.446320 
	C696.754517,277.955048 696.754517,282.280640 696.754517,286.802246 
	C694.843994,286.802246 693.585388,286.802246 692.093811,286.802246 
	C692.093811,272.686676 692.093811,258.608398 692.093811,244.183167 
	C693.402283,244.183167 694.747437,244.183167 696.517517,244.183167 
	C696.517517,252.219299 696.517517,260.127838 696.517517,268.375885 
	C703.144348,265.412750 704.317871,255.837830 714.107178,256.055054 
	C709.483765,261.344574 705.599426,265.788513 701.305664,270.700867 
	C705.472229,275.561340 709.640259,280.423523 713.985718,285.642761 
z"/>
<path fill="#F3F3F3" opacity="1.000000" stroke="none" 
	d="
M137.846497,265.508972 
	C137.871613,272.767334 137.871613,279.578949 137.871613,286.703796 
	C136.305389,286.703796 134.930710,286.703796 133.104248,286.703796 
	C133.104248,280.369171 133.095901,274.076050 133.107315,267.782898 
	C133.114410,263.862885 132.634567,260.337372 127.621101,259.864777 
	C122.553734,259.387024 118.648773,261.527039 118.002007,266.384186 
	C117.128380,272.944977 117.171593,279.627869 116.796211,286.735596 
	C115.706551,286.818146 114.340797,286.921600 112.743568,287.042603 
	C112.743568,276.733643 112.743568,266.773987 112.743568,256.824188 
	C116.733894,255.964645 116.733894,255.964645 117.432915,260.935242 
	C121.110443,255.565475 126.167877,254.765076 131.666107,256.231689 
	C135.994995,257.386383 137.265503,261.069763 137.846497,265.508972 
z"/>
<path fill="#EEEEEE" opacity="1.000000" stroke="none" 
	d="
M820.219604,255.826324 
	C822.901001,256.932892 825.186951,257.987366 827.644470,259.120972 
	C826.041809,262.118469 824.835510,263.587982 822.486755,261.131866 
	C822.048950,260.674011 821.371887,260.397095 820.756958,260.164032 
	C816.817017,258.670807 811.595520,259.845825 811.082764,262.539185 
	C810.101868,267.691467 814.381775,267.827118 817.585632,268.875824 
	C818.370544,269.132751 819.219177,269.187592 820.020813,269.401825 
	C826.305420,271.081268 829.082458,274.246368 828.634094,279.190399 
	C828.178894,284.209381 824.305420,287.499054 818.035034,287.667511 
	C813.099609,287.800079 808.417419,286.838348 805.095032,281.956635 
	C805.969604,280.939117 806.854797,279.909332 807.739929,278.879547 
	C807.752258,279.429871 807.764587,279.980225 807.776855,280.530548 
	C811.721497,281.381470 815.645020,282.651611 819.622314,282.851471 
	C820.977356,282.919525 823.476501,280.384735 823.610596,278.875580 
	C823.742798,277.387909 821.856567,275.177216 820.285461,274.221222 
	C818.379944,273.061737 815.856384,272.950684 813.635803,272.269867 
	C808.276489,270.626709 805.729492,267.472229 806.164124,263.144348 
	C806.594849,258.855347 809.871338,256.149017 815.346375,255.693832 
	C816.826538,255.570755 818.330994,255.739471 820.219604,255.826324 
z"/>
<path fill="#F6F6F6" opacity="1.000000" stroke="none" 
	d="
M466.019104,77.885933 
	C461.733002,77.885933 457.943085,77.885933 453.867188,77.885933 
	C453.867188,75.470139 453.867188,73.369965 453.867188,70.957672 
	C468.341675,70.957672 482.874023,70.957672 497.667114,70.957672 
	C497.667114,73.062836 497.667114,75.152313 497.667114,77.885933 
	C487.323669,77.885933 476.919464,77.885933 466.019104,77.885933 
z"/>
<path fill="#F7F7F7" opacity="1.000000" stroke="none" 
	d="
M497.922272,51.966812 
	C497.871307,53.563618 497.819427,54.713757 497.758789,56.057686 
	C483.073090,56.057686 468.522736,56.057686 453.804657,56.057686 
	C453.804657,53.738159 453.804657,51.648304 453.804657,49.091454 
	C467.929840,49.091454 481.837097,49.054565 495.742615,49.194893 
	C496.476593,49.202301 497.195435,50.710583 497.922272,51.966812 
z"/>
<path fill="#F7F7F7" opacity="1.000000" stroke="none" 
	d="
M659.520142,590.654419 
	C660.925598,592.772888 661.876343,594.889709 663.126038,597.672119 
	C647.272461,597.672119 632.898193,597.672119 618.201050,597.672119 
	C618.201050,595.406982 618.201050,593.197449 618.201050,590.652710 
	C631.885681,590.652710 645.475586,590.652710 659.520142,590.654419 
z"/>
<path fill="#FAFAFA" opacity="1.000000" stroke="none" 
	d="
M649.972412,576.278992 
	C639.160217,576.278992 628.842407,576.278992 618.205444,576.278992 
	C618.205444,573.868530 618.205444,571.676025 618.205444,569.287720 
	C632.771973,569.287720 647.194153,569.287720 661.840332,569.287720 
	C661.840332,571.574829 661.840332,573.674011 661.840332,576.278992 
	C658.022034,576.278992 654.244385,576.278992 649.972412,576.278992 
z"/>
<path fill="#EFEFEF" opacity="1.000000" stroke="none" 
	d="
M476.297455,430.683411 
	C461.813629,429.234528 460.319183,411.399261 466.366241,403.687103 
	C471.138916,397.600342 482.237976,396.738159 487.291443,402.098114 
	C489.678925,404.630432 489.571136,405.138397 486.173126,407.367096 
	C480.589783,402.010559 474.471863,401.360840 470.689789,405.722900 
	C466.593292,410.447479 467.184784,420.738068 471.768951,424.498383 
	C476.092285,428.044739 481.924774,426.596375 486.280060,420.709656 
	C489.110809,421.216156 490.183502,422.375916 488.301300,425.239990 
	C485.525055,429.464478 481.419464,430.698730 476.297455,430.683411 
z"/>
<path fill="#F3F3F3" opacity="1.000000" stroke="none" 
	d="
M542.823120,426.305389 
	C544.673767,425.989899 546.097412,425.665527 547.632996,425.315674 
	C549.792053,427.695129 549.322937,429.140900 546.180664,430.123474 
	C538.983093,432.374207 534.002075,428.943085 533.765564,421.359497 
	C533.672424,418.373505 533.740234,415.382446 533.737976,412.393677 
	C533.735718,409.430878 533.737488,406.468048 533.737488,403.323853 
	C531.917236,403.117554 530.309875,402.935394 528.686829,402.751434 
	C526.831177,397.116730 532.043579,400.110657 533.566650,398.412659 
	C534.428955,396.123474 531.898743,391.147705 538.178345,392.298645 
	C538.295349,394.446686 538.410156,396.555756 538.538391,398.910767 
	C541.625549,398.910767 544.586548,398.910767 547.878235,398.910767 
	C547.878235,400.366028 547.878235,401.567505 547.878235,403.044617 
	C544.746399,403.044617 541.790710,403.044617 538.386719,403.044617 
	C538.386719,409.371429 538.101135,415.465637 538.570496,421.501129 
	C538.701660,423.188568 541.059692,424.702850 542.823120,426.305389 
z"/>
<path fill="#F3F3F3" opacity="1.000000" stroke="none" 
	d="
M669.737488,269.948120 
	C669.737549,266.481934 669.737549,263.505005 669.737549,260.344727 
	C667.948059,260.131989 666.338684,259.940643 664.687988,259.744415 
	C662.848877,254.162125 667.988159,257.038605 669.507507,255.568497 
	C670.425232,253.113876 667.906128,248.119476 674.179382,249.304489 
	C674.297729,251.469177 674.413330,253.583237 674.542297,255.941757 
	C677.672241,255.941757 680.642944,255.941757 683.859558,255.941757 
	C683.983337,257.260712 684.085571,258.349976 684.232239,259.911926 
	C680.895996,259.911926 677.811340,259.911926 674.340576,259.911926 
	C674.340576,265.465912 674.317810,270.579285 674.345947,275.692413 
	C674.387878,283.292328 676.129028,284.551086 683.523376,282.242676 
	C685.602844,284.467255 685.634216,286.011993 682.305298,287.097168 
	C675.139343,289.433105 670.020569,285.980835 669.766113,278.430878 
	C669.676392,275.769073 669.742493,273.102020 669.737488,269.948120 
z"/>
<path fill="#EAEAEA" opacity="1.000000" stroke="none" 
	d="
M260.889282,256.055756 
	C263.842255,255.815872 265.814117,256.119659 264.722778,259.861450 
	C261.806824,259.861450 258.713837,259.861450 255.116776,259.861450 
	C255.116776,266.374695 254.908508,272.492432 255.184021,278.588318 
	C255.396530,283.290283 257.909027,284.192383 264.231415,282.191772 
	C266.636658,284.701752 266.208008,286.189728 262.739868,287.184692 
	C255.689667,289.207275 250.818420,285.960236 250.378448,278.620941 
	C250.199249,275.631775 250.325363,272.624023 250.320068,269.624725 
	C250.314804,266.639282 250.318909,263.653839 250.318909,260.383881 
	C248.594009,260.166107 247.017639,259.967102 245.469101,259.771576 
	C245.332153,256.212738 245.332153,256.212738 250.090927,255.734573 
	C251.079926,253.352493 248.460556,248.201096 254.828125,249.219604 
	C254.828125,251.158218 254.828125,253.244904 254.828125,256.055725 
	C256.930878,256.055725 258.680023,256.055725 260.889282,256.055756 
z"/>
<path fill="#ECECEC" opacity="1.000000" stroke="none" 
	d="
M838.089233,267.068878 
	C838.089294,264.597076 838.089294,262.613922 838.089294,260.283051 
	C836.363159,260.114044 834.800659,259.961060 833.282349,259.812378 
	C831.465393,254.687149 835.734680,256.550140 837.930847,255.750000 
	C838.038147,253.836411 838.146118,251.911667 838.272705,249.654510 
	C839.770508,249.420547 841.149536,249.205139 842.949341,248.923996 
	C842.949341,251.441757 842.949341,253.544327 842.949341,255.124451 
	C846.012939,257.936371 851.676086,252.946701 853.204285,259.873413 
	C849.603943,259.873413 846.516907,259.873413 842.969421,259.873413 
	C842.969421,266.418091 842.801758,272.535889 843.024109,278.639496 
	C843.192810,283.272095 845.689148,284.194763 852.110474,282.210663 
	C853.916016,284.371460 854.282532,285.957275 850.888672,287.095001 
	C843.800415,289.471222 838.406189,285.977814 838.125488,278.551605 
	C837.987183,274.891663 838.093567,271.222504 838.089233,267.068878 
z"/>
<path fill="#EAEAEA" opacity="1.000000" stroke="none" 
	d="
M304.083374,275.856567 
	C304.083374,265.078400 304.083374,254.778595 304.083374,244.167114 
	C305.750610,244.167114 307.127014,244.167114 308.579071,244.167114 
	C308.705566,244.690155 308.916504,245.157852 308.917480,245.626007 
	C308.940277,256.282471 308.924286,266.939056 308.955139,277.595459 
	C308.963104,280.345703 308.213593,283.590332 312.920197,283.361511 
	C313.573425,283.329712 314.325409,285.328705 315.098907,286.488342 
	C308.251190,288.779388 304.542450,286.489380 304.114410,280.330048 
	C304.022247,279.004028 304.089569,277.666901 304.083374,275.856567 
z"/>
<path fill="#F7F7F7" opacity="1.000000" stroke="none" 
	d="
M58.127022,285.674500 
	C56.802334,286.503601 55.499931,286.868958 53.812408,287.342316 
	C53.812408,276.705078 53.812408,266.646362 53.812408,256.348206 
	C55.133472,256.348206 56.381493,256.348206 57.787018,256.348206 
	C57.915699,257.774689 58.031906,259.062927 58.183815,260.746918 
	C61.596813,256.293152 65.629730,254.393417 70.675133,257.108093 
	C71.116180,257.345398 70.561356,259.433624 70.469246,260.660095 
	C61.096390,259.929260 58.504917,262.206024 58.201714,271.269043 
	C58.046394,275.911652 58.158218,280.563202 58.127022,285.674500 
z"/>
<path fill="#EAEAEA" opacity="1.000000" stroke="none" 
	d="
M653.005493,283.766602 
	C653.005371,274.349731 653.005371,265.409576 653.005371,256.268311 
	C654.691895,256.268311 655.955383,256.268311 657.534180,256.268311 
	C657.534180,266.363708 657.534180,276.415161 657.534180,286.768341 
	C655.443909,286.858673 652.772156,288.485565 653.005493,283.766602 
z"/>
<path fill="#EAEAEA" opacity="1.000000" stroke="none" 
	d="
M657.861145,244.912994 
	C657.744324,246.772018 657.733948,248.594193 656.855225,249.764130 
	C656.479248,250.264633 653.986145,249.792938 653.035400,249.034988 
	C652.357178,248.494324 652.264587,245.807800 652.569153,245.682755 
	C654.134155,245.040222 655.912231,244.916748 657.861145,244.912994 
z"/>
<path fill="#050505" opacity="0.000000" stroke="none" 
	d="
M442.213409,629.561157 
	C440.539856,631.778503 439.300079,634.347534 437.302002,635.264832 
	C429.398010,638.893372 421.131073,638.785400 413.059845,635.763489 
	C409.027710,634.253845 407.370392,630.836548 407.987305,626.499512 
	C408.578827,622.341003 411.547607,620.213745 415.212280,620.160706 
	C422.506226,620.055054 429.835419,620.392822 437.101410,621.069519 
	C441.684204,621.496338 442.844513,624.983765 442.213409,629.561157 
z"/>
<path fill="#040404" opacity="0.000000" stroke="none" 
	d="
M437.130981,581.237183 
	C438.175476,593.367554 427.689606,596.298462 419.108063,593.543701 
	C414.241913,591.981628 411.974091,587.147705 412.626068,580.930908 
	C413.223236,575.236511 416.167114,571.848938 421.303650,570.945557 
	C430.260803,569.370178 435.534027,572.662109 437.130981,581.237183 
z"/>
<path fill="#040404" opacity="0.000000" stroke="none" 
	d="
M576.918579,72.375267 
	C580.120422,81.098724 578.431946,88.091293 572.484497,91.744080 
	C565.928955,95.770340 554.067261,94.831474 549.085022,89.891930 
	C543.466675,84.321854 544.203552,73.391335 550.320923,68.536392 
	C556.237915,63.840508 572.133423,63.566666 576.918579,72.375267 
z"/>
<path fill="#040404" opacity="0.000000" stroke="none" 
	d="
M575.334106,45.840603 
	C573.816711,54.550755 568.513428,58.168812 559.377136,57.133949 
	C552.383179,56.341743 548.350769,51.420273 548.679749,44.078144 
	C548.999207,36.949894 553.716248,32.544899 561.387634,32.211044 
	C568.813538,31.887875 574.242004,36.083515 575.219849,42.927879 
	C575.336670,43.745838 575.321655,44.582634 575.334106,45.840603 
z"/>
<path fill="#040404" opacity="0.000000" stroke="none" 
	d="
M535.612610,605.009521 
	C531.377075,613.543762 520.981262,616.757385 511.343292,612.835327 
	C504.412933,610.015137 501.039062,602.210510 504.014130,594.576904 
	C505.022247,591.990173 507.080475,589.211426 509.429535,587.863220 
	C516.018738,584.081299 523.200073,584.066589 529.863892,587.660278 
	C536.704651,591.349487 536.945740,597.872681 535.612610,605.009521 
z"/>
<path fill="#050505" opacity="0.000000" stroke="none" 
	d="
M514.060303,576.476196 
	C507.134552,572.812378 504.590973,566.262085 507.218201,559.610046 
	C509.579590,553.630981 517.254395,550.706360 524.631042,552.974487 
	C531.004272,554.934143 534.404602,561.097229 532.921448,568.000488 
	C531.901978,572.745605 527.969788,576.493469 522.836731,577.011597 
	C520.073059,577.290527 517.232300,576.805298 514.060303,576.476196 
z"/>
<path fill="#030303" opacity="0.000000" stroke="none" 
	d="
M370.448425,572.107239 
	C375.318054,574.357666 378.788727,577.804871 379.187317,582.678284 
	C379.747101,589.522705 380.136383,596.626038 378.907562,603.307678 
	C377.474792,611.098083 371.307800,614.614990 362.842407,614.460632 
	C354.769379,614.313416 348.806488,610.508057 347.282349,603.089478 
	C346.132202,597.491211 345.680573,591.446045 346.465729,585.815674 
	C348.190613,573.446350 357.366577,568.410522 370.448425,572.107239 
z"/>
<path fill="#0A0A0A" opacity="1.000000" stroke="none" 
	d="
M197.304138,286.659180 
	C198.718994,286.753235 199.850082,286.538971 200.670364,286.947998 
	C202.156158,287.688904 204.537064,288.749573 204.586044,289.770660 
	C204.663116,291.377167 203.289795,294.347534 202.230270,294.488800 
	C197.796204,295.080231 193.218933,295.132782 188.768906,294.667633 
	C187.744400,294.560547 186.283859,291.574799 186.388016,290.004181 
	C186.467880,288.799896 188.538864,287.128052 190.001755,286.756409 
	C192.165527,286.206787 194.575256,286.625488 197.304138,286.659180 
z"/>
<path fill="#0A0A0A" opacity="1.000000" stroke="none" 
	d="
M193.363464,259.897095 
	C196.911316,259.548431 200.300095,259.660217 201.248749,263.137360 
	C201.862152,265.385651 201.650177,268.866272 200.263382,270.372040 
	C198.854630,271.901642 195.398849,272.437927 193.124680,271.983185 
	C191.445816,271.647461 189.470291,269.226471 188.966660,267.370941 
	C188.084106,264.119141 189.079819,261.061188 193.363464,259.897095 
z"/>
<path fill="#040404" opacity="0.000000" stroke="none" 
	d="
M151.460388,266.893127 
	C153.739227,261.098267 156.637009,259.175964 161.735428,260.010345 
	C166.571365,260.801727 168.754501,264.092560 169.137711,268.676575 
	C169.329636,270.972504 169.353378,273.345886 168.993652,275.611237 
	C168.257996,280.244232 165.574097,283.042664 160.670532,283.289917 
	C155.596588,283.545746 152.483749,281.373535 151.513336,276.176117 
	C150.976990,273.303375 151.366257,270.257843 151.460388,266.893127 
z"/>
<path fill="#0A0A0A" opacity="0.000000" stroke="none" 
	d="
M447.497559,424.467041 
	C444.233093,427.211731 440.839111,428.006622 437.743622,425.525970 
	C436.526062,424.550262 435.801758,421.886353 436.174530,420.302246 
	C436.542664,418.737793 438.347839,416.958710 439.934753,416.352203 
	C442.968323,415.192810 446.294495,414.799011 450.832764,413.791412 
	C449.701294,417.628601 448.735260,420.904694 447.497559,424.467041 
z"/>
<path fill="#0A0A0A" opacity="0.000000" stroke="none" 
	d="
M220.618195,264.068604 
	C223.364563,259.269318 227.513168,258.958313 231.630188,260.211029 
	C235.471985,261.379944 236.519165,264.729492 235.990677,268.721558 
	C230.643402,268.721558 225.380859,268.721558 219.587616,268.721558 
	C219.878799,267.187439 220.140793,265.807190 220.618195,264.068604 
z"/>
<path fill="#0A0A0A" opacity="0.000000" stroke="none" 
	d="
M289.114624,272.276184 
	C289.246460,277.226685 288.726013,281.459534 283.750305,283.382782 
	C279.915344,284.865082 275.888611,283.304749 275.195251,279.953766 
	C274.342499,275.832458 276.556793,273.666260 280.385956,272.987396 
	C283.266083,272.476776 286.190948,272.218567 289.114624,272.276184 
z"/>
<path fill="#040404" opacity="0.000000" stroke="none" 
	d="
M733.836548,283.277679 
	C725.483582,282.637329 722.678406,278.481995 723.733215,268.967407 
	C724.486084,262.176727 728.292969,259.022064 734.720459,260.007294 
	C735.984375,260.200989 737.388733,260.611420 738.360901,261.384125 
	C743.291260,265.302582 742.525024,270.821564 741.833313,276.025818 
	C741.286987,280.135803 738.757324,282.912323 733.836548,283.277679 
z"/>
<path fill="#050505" opacity="0.000000" stroke="none" 
	d="
M98.102219,277.710541 
	C95.968201,283.016144 91.951096,283.801727 87.347839,283.088196 
	C82.846069,282.390381 81.234200,279.082733 80.492096,275.068695 
	C79.321953,268.739380 81.151405,262.969421 85.032318,260.892700 
	C90.570076,257.929382 97.051834,260.442352 98.309174,266.586426 
	C99.010483,270.013397 98.291489,273.731018 98.102219,277.710541 
z"/>
</svg>