<svg version="1.1" id="Layer_1" xmlns="http://www.w3.org/2000/svg" xmlns:xlink="http://www.w3.org/1999/xlink" x="0px" y="0px"
	 width="100%" viewBox="0 0 1080 1080" enable-background="new 0 0 1080 1080" xml:space="preserve">
<path fill="#000000" opacity="0.000000" stroke="none" 
	d="
M711.000000,1081.000000 
	C474.027283,1081.000000 237.554581,1081.000000 1.040936,1081.000000 
	C1.040936,721.068848 1.040936,361.137665 1.040936,1.103249 
	C360.889587,1.103249 720.779175,1.103249 1080.834473,1.103249 
	C1080.834473,360.999939 1080.834473,720.999939 1080.834473,1081.000000 
	C957.803894,1081.000000 834.651917,1081.000000 711.000000,1081.000000 
M745.879272,218.500031 
	C745.879272,208.720093 745.879272,198.940155 745.879272,189.938950 
	C742.161255,188.407532 739.090088,187.142548 735.518127,185.671310 
	C550.721313,402.063965 365.568207,618.873718 181.041367,834.950195 
	C182.656403,838.578186 183.921204,841.419434 185.405426,844.753540 
	C369.706696,844.753540 554.800781,844.753540 740.000854,844.753540 
	C740.157776,843.082275 740.307739,841.484192 740.464233,839.816956 
	C742.383179,839.545227 743.991211,839.317566 745.879272,839.050293 
	C745.879272,632.436523 745.879272,425.968292 745.879272,218.500031 
M490.498566,943.719543 
	C487.107117,943.719543 483.715668,943.719543 480.324219,943.719543 
	C479.982361,943.195129 479.640533,942.670715 479.298676,942.146362 
	C481.558990,939.065369 483.374298,935.479004 486.175751,933.012695 
	C491.404755,928.409302 497.461334,924.746338 502.693329,920.145874 
	C507.263824,916.127136 512.005188,911.881226 515.199768,906.809021 
	C521.399841,896.965088 518.053345,883.605408 508.972198,878.194214 
	C496.349854,870.672913 478.154083,875.283325 470.237518,888.278015 
	C472.029510,889.996582 473.885620,891.776672 475.935699,893.742798 
	C476.591644,893.010986 477.202057,892.469299 477.644958,891.814270 
	C482.309601,884.916870 488.931396,882.357788 497.020996,882.984375 
	C504.721985,883.580872 508.749969,887.854187 509.052856,895.525330 
	C509.338989,902.771362 505.540649,907.865112 500.301849,912.040955 
	C493.671082,917.326355 486.845947,922.370789 480.045624,927.439941 
	C472.119232,933.348572 469.789642,941.325684 471.077423,950.762817 
	C486.749268,950.762817 502.308746,950.762817 517.794800,950.762817 
	C517.794800,948.272705 517.794800,946.037231 517.794800,943.719604 
	C508.803986,943.719604 500.151001,943.719604 490.498566,943.719543 
M813.705261,393.978760 
	C804.097107,394.581146 796.783203,398.910431 792.217712,406.085571 
	C794.242737,408.697906 795.809570,410.719116 797.582153,413.005768 
	C803.684082,403.351379 811.891235,400.118073 822.320862,402.765350 
	C826.797913,403.901703 829.278992,406.940247 830.155457,411.470490 
	C831.648376,419.187561 828.752625,425.278198 822.961365,429.989502 
	C815.867371,435.760498 808.516968,441.220001 801.208618,446.722809 
	C793.466919,452.551849 791.487549,460.478088 792.330444,469.643097 
	C808.297119,469.643097 823.998962,469.643097 839.487305,469.643097 
	C839.487305,467.184418 839.487305,465.101105 839.487305,462.510468 
	C826.793945,462.510468 814.401794,462.510468 802.009644,462.510468 
	C801.643982,462.095093 801.278381,461.679718 800.912720,461.264313 
	C802.875977,458.383179 804.386475,455.001007 806.900330,452.729218 
	C811.574341,448.505310 816.985474,445.108765 821.804993,441.031158 
	C826.479858,437.076019 831.355286,433.143890 835.141785,428.402344 
	C840.935669,421.147095 841.294128,412.705444 837.200439,404.437195 
	C833.363220,396.686859 826.224487,394.294525 818.130127,393.968781 
	C816.966614,393.921967 815.800110,393.949982 813.705261,393.978760 
M348.803589,433.689850 
	C356.531067,442.142548 366.181183,443.700287 376.688507,440.909943 
	C383.931610,438.986420 388.394989,433.919800 390.643097,426.627350 
	C388.405640,425.355591 386.573639,424.314270 384.751434,423.278534 
	C384.181915,423.920685 383.783356,424.246216 383.540283,424.662506 
	C378.734772,432.892273 373.897247,435.405670 365.196716,434.166138 
	C358.065643,433.150238 353.045959,428.214630 351.566498,419.623199 
	C350.816467,415.267975 350.745819,410.591583 351.443481,406.232513 
	C353.038422,396.266663 359.130127,391.132690 368.137329,390.903046 
	C375.329437,390.719727 380.513184,393.862274 383.812408,400.403931 
	C386.343597,398.567078 388.308014,397.141541 390.261200,395.724152 
	C385.532135,385.838318 377.316254,383.037384 367.776093,383.250061 
	C357.482819,383.479553 349.212677,387.879578 345.096832,397.607910 
	C339.918549,409.847595 340.374908,421.932983 348.803589,433.689850 
z"/>
<path fill="#FBFBFB" opacity="1.000000" stroke="none" 
	d="
M745.879272,219.000046 
	C745.879272,425.968292 745.879272,632.436523 745.879272,839.050293 
	C743.991211,839.317566 742.383179,839.545227 740.464233,839.816956 
	C740.307739,841.484192 740.157776,843.082275 740.000854,844.753540 
	C554.800781,844.753540 369.706696,844.753540 185.405426,844.753540 
	C183.921204,841.419434 182.656403,838.578186 181.041367,834.950195 
	C365.568207,618.873718 550.721313,402.063965 735.518127,185.671310 
	C739.090088,187.142548 742.161255,188.407532 745.879272,189.938950 
	C745.879272,198.940155 745.879272,208.720093 745.879272,219.000046 
M548.331238,421.848114 
	C431.159241,559.001160 313.987274,696.154236 196.542755,833.626282 
	C345.034271,833.626282 492.586060,833.626282 640.451294,833.626282 
	C640.451294,824.499939 640.451294,815.720398 640.451294,806.712463 
	C644.152283,806.712463 647.537048,806.712463 651.373779,806.712463 
	C651.373779,815.901306 651.373779,824.802002 651.373779,833.672241 
	C679.407166,833.672241 706.984985,833.672241 734.380127,833.672241 
	C734.380127,623.896484 734.380127,414.423035 734.380127,204.055588 
	C672.112427,276.960754 610.462402,349.142700 548.331238,421.848114 
z"/>
<path fill="#FAFAFA" opacity="1.000000" stroke="none" 
	d="
M490.998291,943.719604 
	C500.151001,943.719604 508.803986,943.719604 517.794800,943.719604 
	C517.794800,946.037231 517.794800,948.272705 517.794800,950.762817 
	C502.308746,950.762817 486.749268,950.762817 471.077423,950.762817 
	C469.789642,941.325684 472.119232,933.348572 480.045624,927.439941 
	C486.845947,922.370789 493.671082,917.326355 500.301849,912.040955 
	C505.540649,907.865112 509.338989,902.771362 509.052856,895.525330 
	C508.749969,887.854187 504.721985,883.580872 497.020996,882.984375 
	C488.931396,882.357788 482.309601,884.916870 477.644958,891.814270 
	C477.202057,892.469299 476.591644,893.010986 475.935699,893.742798 
	C473.885620,891.776672 472.029510,889.996582 470.237518,888.278015 
	C478.154083,875.283325 496.349854,870.672913 508.972198,878.194214 
	C518.053345,883.605408 521.399841,896.965088 515.199768,906.809021 
	C512.005188,911.881226 507.263824,916.127136 502.693329,920.145874 
	C497.461334,924.746338 491.404755,928.409302 486.175751,933.012695 
	C483.374298,935.479004 481.558990,939.065369 479.298676,942.146362 
	C479.640533,942.670715 479.982361,943.195129 480.324219,943.719543 
	C483.715668,943.719543 487.107117,943.719543 490.998291,943.719604 
z"/>
<path fill="#F8F8F8" opacity="1.000000" stroke="none" 
	d="
M814.170105,393.961060 
	C815.800110,393.949982 816.966614,393.921967 818.130127,393.968781 
	C826.224487,394.294525 833.363220,396.686859 837.200439,404.437195 
	C841.294128,412.705444 840.935669,421.147095 835.141785,428.402344 
	C831.355286,433.143890 826.479858,437.076019 821.804993,441.031158 
	C816.985474,445.108765 811.574341,448.505310 806.900330,452.729218 
	C804.386475,455.001007 802.875977,458.383179 800.912720,461.264313 
	C801.278381,461.679718 801.643982,462.095093 802.009644,462.510468 
	C814.401794,462.510468 826.793945,462.510468 839.487305,462.510468 
	C839.487305,465.101105 839.487305,467.184418 839.487305,469.643097 
	C823.998962,469.643097 808.297119,469.643097 792.330444,469.643097 
	C791.487549,460.478088 793.466919,452.551849 801.208618,446.722809 
	C808.516968,441.220001 815.867371,435.760498 822.961365,429.989502 
	C828.752625,425.278198 831.648376,419.187561 830.155457,411.470490 
	C829.278992,406.940247 826.797913,403.901703 822.320862,402.765350 
	C811.891235,400.118073 803.684082,403.351379 797.582153,413.005768 
	C795.809570,410.719116 794.242737,408.697906 792.217712,406.085571 
	C796.783203,398.910431 804.097107,394.581146 814.170105,393.961060 
z"/>
<path fill="#F6F6F6" opacity="1.000000" stroke="none" 
	d="
M348.569977,433.421265 
	C340.374908,421.932983 339.918549,409.847595 345.096832,397.607910 
	C349.212677,387.879578 357.482819,383.479553 367.776093,383.250061 
	C377.316254,383.037384 385.532135,385.838318 390.261200,395.724152 
	C388.308014,397.141541 386.343597,398.567078 383.812408,400.403931 
	C380.513184,393.862274 375.329437,390.719727 368.137329,390.903046 
	C359.130127,391.132690 353.038422,396.266663 351.443481,406.232513 
	C350.745819,410.591583 350.816467,415.267975 351.566498,419.623199 
	C353.045959,428.214630 358.065643,433.150238 365.196716,434.166138 
	C373.897247,435.405670 378.734772,432.892273 383.540283,424.662506 
	C383.783356,424.246216 384.181915,423.920685 384.751434,423.278534 
	C386.573639,424.314270 388.405640,425.355591 390.643097,426.627350 
	C388.394989,433.919800 383.931610,438.986420 376.688507,440.909943 
	C366.181183,443.700287 356.531067,442.142548 348.569977,433.421265 
z"/>
<path fill="#000000" opacity="0.000000" stroke="none" 
	d="
M548.571777,421.586365 
	C610.462402,349.142700 672.112427,276.960754 734.380127,204.055588 
	C734.380127,414.423035 734.380127,623.896484 734.380127,833.672241 
	C706.984985,833.672241 679.407166,833.672241 651.373779,833.672241 
	C651.373779,824.802002 651.373779,815.901306 651.373779,806.712463 
	C647.537048,806.712463 644.152283,806.712463 640.451294,806.712463 
	C640.451294,815.720398 640.451294,824.499939 640.451294,833.626282 
	C492.586060,833.626282 345.034271,833.626282 196.542755,833.626282 
	C313.987274,696.154236 431.159241,559.001160 548.571777,421.586365 
M676.124207,737.290039 
	C666.197571,737.290039 656.270935,737.290039 646.279419,737.290039 
	C645.980774,739.384888 645.735657,741.104370 645.503906,742.729736 
	C643.597290,742.919617 642.020935,743.076599 640.440186,743.234009 
	C640.440186,746.064331 640.440186,748.495789 640.440186,751.752991 
	C644.174133,751.355774 647.678223,751.166077 651.102051,750.538635 
	C652.726807,750.240967 654.180420,748.502136 655.742554,748.455505 
	C663.343506,748.228455 670.955017,748.352844 679.906372,748.352844 
	C678.838928,744.224609 677.943909,740.763245 676.124207,737.290039 
M647.259705,762.397217 
	C645.004456,762.397217 642.749207,762.397217 640.419067,762.397217 
	C640.419067,773.719971 640.419067,784.294128 640.419067,795.087769 
	C644.103271,795.087769 647.606201,795.087769 651.300171,795.087769 
	C651.300171,784.926025 651.231262,775.147400 651.347656,765.370850 
	C651.377502,762.872253 650.394653,762.090515 647.259705,762.397217 
M704.505615,737.288757 
	C699.740601,737.288757 694.975525,737.288757 690.158447,737.288757 
	C690.158447,741.246826 690.158447,744.649231 690.158447,748.122986 
	C701.168152,748.122986 711.910217,748.122986 722.634888,748.122986 
	C722.634888,744.484741 722.634888,741.079834 722.634888,737.288757 
	C716.729187,737.288757 711.116089,737.288757 704.505615,737.288757 
z"/>
<path fill="#F6F6F6" opacity="1.000000" stroke="none" 
	d="
M676.586548,737.296021 
	C677.943909,740.763245 678.838928,744.224609 679.906372,748.352844 
	C670.955017,748.352844 663.343506,748.228455 655.742554,748.455505 
	C654.180420,748.502136 652.726807,750.240967 651.102051,750.538635 
	C647.678223,751.166077 644.174133,751.355774 640.440186,751.752991 
	C640.440186,748.495789 640.440186,746.064331 640.440186,743.234009 
	C642.020935,743.076599 643.597290,742.919617 645.503906,742.729736 
	C645.735657,741.104370 645.980774,739.384888 646.279419,737.290039 
	C656.270935,737.290039 666.197571,737.290039 676.586548,737.296021 
z"/>
<path fill="#F6F6F6" opacity="1.000000" stroke="none" 
	d="
M647.690430,762.397339 
	C650.394653,762.090515 651.377502,762.872253 651.347656,765.370850 
	C651.231262,775.147400 651.300171,784.926025 651.300171,795.087769 
	C647.606201,795.087769 644.103271,795.087769 640.419067,795.087769 
	C640.419067,784.294128 640.419067,773.719971 640.419067,762.397217 
	C642.749207,762.397217 645.004456,762.397217 647.690430,762.397339 
z"/>
<path fill="#F6F6F6" opacity="1.000000" stroke="none" 
	d="
M705.004272,737.288757 
	C711.116089,737.288757 716.729187,737.288757 722.634888,737.288757 
	C722.634888,741.079834 722.634888,744.484741 722.634888,748.122986 
	C711.910217,748.122986 701.168152,748.122986 690.158447,748.122986 
	C690.158447,744.649231 690.158447,741.246826 690.158447,737.288757 
	C694.975525,737.288757 699.740601,737.288757 705.004272,737.288757 
z"/>
</svg>