<?xml version="1.0" encoding="UTF-8"?>
<!DOCTYPE svg PUBLIC "-//W3C//DTD SVG 1.1//EN" "http://www.w3.org/Graphics/SVG/1.1/DTD/svg11.dtd">
<svg xmlns="http://www.w3.org/2000/svg" version="1.1" width="891px" height="693px" style="shape-rendering:geometricPrecision; text-rendering:geometricPrecision; image-rendering:optimizeQuality; fill-rule:evenodd; clip-rule:evenodd" xmlns:xlink="http://www.w3.org/1999/xlink">
<g><path style="opacity:0" fill="#fefefe" d="M -0.5,-0.5 C 296.5,-0.5 593.5,-0.5 890.5,-0.5C 890.5,230.5 890.5,461.5 890.5,692.5C 593.5,692.5 296.5,692.5 -0.5,692.5C -0.5,461.5 -0.5,230.5 -0.5,-0.5 Z"/></g>
<g><path style="opacity:1" fill="#040404" d="M 484.5,123.5 C 483.089,122.092 481.423,121.092 479.5,120.5C 477.239,121.648 474.905,122.148 472.5,122C 475.303,119.778 475.137,117.945 472,116.5C 468.655,117.719 467.821,119.886 469.5,123C 468.287,125.326 466.954,125.659 465.5,124C 466.167,122.333 466.833,120.667 467.5,119C 467.167,118.5 466.833,118 466.5,117.5C 464.681,119.128 463.347,121.128 462.5,123.5C 461.232,124.428 459.899,124.595 458.5,124C 460.202,121.765 461.202,119.265 461.5,116.5C 459.738,116.357 458.071,116.691 456.5,117.5C 455.304,117.154 455.304,116.654 456.5,116C 453.617,115.205 452.117,116.371 452,119.5C 450.867,121.211 449.367,121.711 447.5,121C 452.048,114.215 450.382,111.882 442.5,114C 440.787,115.378 439.453,117.045 438.5,119C 432.455,122.209 428.789,120.543 427.5,114C 428.949,108.558 431.949,104.224 436.5,101C 438.134,100.506 439.801,100.34 441.5,100.5C 442.041,103.652 441.041,106.152 438.5,108C 441.713,108.304 443.713,106.804 444.5,103.5C 443.182,98.9218 440.182,97.4218 435.5,99C 426.735,103.358 423.568,110.191 426,119.5C 429.989,123.122 434.323,123.455 439,120.5C 442.451,122.784 446.118,123.451 450,122.5C 450.308,123.308 450.808,123.975 451.5,124.5C 453.139,122.194 455.139,120.194 457.5,118.5C 457.833,118.667 458.167,118.833 458.5,119C 456.887,121.228 456.22,123.728 456.5,126.5C 458.401,126.567 460.234,126.233 462,125.5C 463,126.167 464,126.833 465,127.5C 467.437,126.2 469.937,125.2 472.5,124.5C 472.343,125.873 472.51,127.207 473,128.5C 474.859,129.579 476.359,130.912 477.5,132.5C 472.959,138.915 469.459,145.915 467,153.5C 465.264,168.192 463.264,182.859 461,197.5C 454.084,232.806 434.584,242.306 402.5,226C 392.636,217.413 388.803,206.58 391,193.5C 395.375,174 400.375,154.667 406,135.5C 408.172,113.769 410.839,92.1026 414,70.5C 424.011,37.1563 445.511,14.9896 478.5,4C 484.917,3.13044 491.251,3.46377 497.5,5C 507.504,11.487 513.671,20.6537 516,32.5C 519.735,67.9504 509.235,98.2837 484.5,123.5 Z"/></g>
<g><path style="opacity:1" fill="#e6e6e6" d="M 472.5,60.5 C 477.297,60.6504 481.464,62.3171 485,65.5C 486.957,71.348 485.124,75.348 479.5,77.5C 484.112,83.7077 483.112,88.8743 476.5,93C 467.297,94.418 462.297,90.5847 461.5,81.5C 462.5,81.5 463.5,81.5 464.5,81.5C 465.682,88.2668 469.682,90.7668 476.5,89C 480.341,82.7196 478.674,78.7196 471.5,77C 470.269,75.8173 470.269,74.6507 471.5,73.5C 478.931,76.5501 482.098,74.2167 481,66.5C 477.264,63.9107 473.598,63.9107 470,66.5C 469.5,65.5 469,64.5 468.5,63.5C 469.901,62.4793 471.235,61.4793 472.5,60.5 Z"/></g>
<g><path style="opacity:1" fill="#e9e9e9" d="M 455.5,54.5 C 457.117,55.038 458.784,55.3713 460.5,55.5C 458.099,62.3722 456.099,69.3722 454.5,76.5C 456.308,76.4914 457.975,76.9914 459.5,78C 459.043,78.414 458.709,78.914 458.5,79.5C 456.674,79.9202 454.674,79.9202 452.5,79.5C 452.167,81.5 451.833,83.5 451.5,85.5C 450.022,85.762 448.689,85.4287 447.5,84.5C 448.167,82.5 448.833,80.5 449.5,78.5C 444.882,76.5713 440.216,74.738 435.5,73C 441.71,66.288 448.377,60.1214 455.5,54.5 Z"/></g>
<g><path style="opacity:1" fill="#111111" d="M 454.5,59.5 C 455.043,59.56 455.376,59.8933 455.5,60.5C 453.927,65.0553 452.26,69.5553 450.5,74C 447.303,74.1043 444.303,73.271 441.5,71.5C 445.854,67.4781 450.187,63.4781 454.5,59.5 Z"/></g>
<g><path style="opacity:1" fill="#040404" d="M 291.5,128.5 C 287.675,125.788 284.009,126.122 280.5,129.5C 280.251,128.418 280.085,127.085 280,125.5C 278.667,124.167 277.333,124.167 276,125.5C 275.626,127.898 275.626,130.231 276,132.5C 275.333,133.167 274.667,133.833 274,134.5C 273.231,131.901 273.398,129.401 274.5,127C 272.892,126.342 271.725,126.842 271,128.5C 270.667,130.167 270.333,131.833 270,133.5C 268.817,134.731 267.651,134.731 266.5,133.5C 267.167,131.5 267.833,129.5 268.5,127.5C 266.389,126.152 264.555,126.485 263,128.5C 262.29,127.027 261.124,126.36 259.5,126.5C 259.663,129.686 258.663,132.353 256.5,134.5C 255.294,132.516 255.294,130.516 256.5,128.5C 254.124,126.046 251.457,125.879 248.5,128C 247.132,134.681 243.132,137.347 236.5,136C 234.703,134.406 233.703,132.406 233.5,130C 234.424,125.154 236.424,120.82 239.5,117C 241.044,115.813 242.711,115.48 244.5,116C 245.293,118.758 245.293,121.258 244.5,123.5C 247.566,121.291 248.232,118.457 246.5,115C 240.26,113.537 235.76,115.703 233,121.5C 228.998,128.158 229.832,133.991 235.5,139C 239.676,139.586 243.342,138.419 246.5,135.5C 250.889,136.328 255.222,136.662 259.5,136.5C 260.726,133.984 262.226,131.651 264,129.5C 262.36,136.519 264.693,138.186 271,134.5C 271.388,135.428 272.055,136.095 273,136.5C 275.298,135.039 277.465,133.372 279.5,131.5C 280.281,132.729 280.781,134.062 281,135.5C 283.326,135.88 285.159,136.88 286.5,138.5C 283.388,145.995 281.722,153.828 281.5,162C 282.238,172.548 283.405,183.048 285,193.5C 285.667,203.5 285.667,213.5 285,223.5C 283.737,229.476 281.237,234.809 277.5,239.5C 262.681,226.169 248.681,212.669 235.5,199C 229.631,192.964 223.631,187.13 217.5,181.5C 217.667,169.829 217.5,158.162 217,146.5C 214.755,131.536 212.755,116.536 211,101.5C 209.625,67.5996 222.125,40.0996 248.5,19C 272.267,2.9047 290.1,8.07136 302,34.5C 312.866,67.5404 309.366,98.8737 291.5,128.5 Z"/></g>
<g><path style="opacity:1" fill="#e5e5e5" d="M 242.5,61.5 C 247.081,60.9231 251.248,61.9231 255,64.5C 257.311,69.1117 256.477,73.1117 252.5,76.5C 258.262,81.0009 258.929,86.1676 254.5,92C 246.663,96.4631 240.663,94.7965 236.5,87C 237.009,85.8315 237.842,84.9981 239,84.5C 241.477,90.4503 245.643,91.9503 251.5,89C 254.167,86 254.167,83 251.5,80C 248.607,78.8512 245.607,78.3512 242.5,78.5C 242.5,77.5 242.5,76.5 242.5,75.5C 247.803,76.5239 251.136,74.5239 252.5,69.5C 251.872,66.216 249.872,64.8826 246.5,65.5C 243.493,65.7741 240.826,66.6074 238.5,68C 237.549,67.2825 237.383,66.4491 238,65.5C 239.397,63.9297 240.897,62.5964 242.5,61.5 Z"/></g>
<g><path style="opacity:1" fill="#dedede" d="M 261.5,61.5 C 267.833,61.5 274.167,61.5 280.5,61.5C 277.596,72.3731 273.596,82.8731 268.5,93C 267.552,93.4828 266.552,93.6495 265.5,93.5C 268.464,84.0685 272.131,74.9018 276.5,66C 271.177,65.5006 265.844,65.334 260.5,65.5C 260.433,64.0413 260.766,62.7079 261.5,61.5 Z"/></g>
<g><path style="opacity:1" fill="#050505" d="M 108.5,140.5 C 107.636,139.312 106.636,138.145 105.5,137C 102.8,136.747 100.133,136.747 97.5,137C 100.303,134.778 100.137,132.945 97,131.5C 95.7387,131.759 94.7387,132.426 94,133.5C 93.7978,135.256 93.2978,136.922 92.5,138.5C 91.3914,139.59 90.3914,139.59 89.5,138.5C 90.3802,136.571 91.3802,134.737 92.5,133C 92.1667,132.5 91.8333,132 91.5,131.5C 89.5446,133.761 87.378,135.761 85,137.5C 84.5,137.167 84,136.833 83.5,136.5C 85.3435,134.018 86.6769,131.351 87.5,128.5C 85.7376,128.357 84.0709,128.691 82.5,129.5C 82.598,128.384 82.098,127.384 81,126.5C 78.9527,129.045 76.4527,131.045 73.5,132.5C 72.4063,131.132 72.7397,129.965 74.5,129C 72.1489,129.14 69.8155,129.64 67.5,130.5C 67.8526,126.457 69.8526,124.79 73.5,125.5C 73.2907,126.086 72.9574,126.586 72.5,127C 73.7932,127.49 75.1266,127.657 76.5,127.5C 76.4869,124.305 74.8202,122.638 71.5,122.5C 67.8344,124.36 64.3344,126.36 61,128.5C 55.3917,127.893 53.3917,124.893 55,119.5C 58.1551,113.008 63.3218,109.675 70.5,109.5C 70.8721,112.923 69.5388,115.423 66.5,117C 72.2878,117.213 73.9545,114.546 71.5,109C 62.479,106.634 55.979,109.8 52,118.5C 50.7728,122.591 51.6061,126.091 54.5,129C 58.1667,129.333 61.8333,129.667 65.5,130C 68.7683,132.2 72.2683,134.034 76,135.5C 77.7144,134.924 78.8811,133.757 79.5,132C 85.3803,129.734 85.8803,130.568 81,134.5C 80.3333,135.5 80.3333,136.5 81,137.5C 83.0408,138.423 85.2075,138.756 87.5,138.5C 87.5,139.5 87.5,140.5 87.5,141.5C 90.4261,140.539 93.4261,139.873 96.5,139.5C 96.3398,141.199 96.5065,142.866 97,144.5C 98.7286,144.974 99.8953,145.974 100.5,147.5C 92.5082,154.668 86.6749,163.335 83,173.5C 79.3796,188.991 74.3796,203.991 68,218.5C 54.091,241.849 35.9243,245.682 13.5,230C 3.34283,221.498 -0.490506,210.665 2,197.5C 10.8621,176.11 20.5287,155.11 31,134.5C 36.2033,115.351 41.87,96.3514 48,77.5C 61.2129,50.2917 82.3796,32.4583 111.5,24C 133.297,16.9822 147.797,24.1489 155,45.5C 157.125,86.0368 141.625,117.703 108.5,140.5 Z"/></g>
<g><path style="opacity:1" fill="#e7e7e7" d="M 108.5,79.5 C 119.37,78.8679 124.204,83.8679 123,94.5C 121.727,101.908 117.894,107.408 111.5,111C 102.736,112.064 98.0695,108.231 97.5,99.5C 98.8333,99.5 100.167,99.5 101.5,99.5C 101.589,106.063 104.922,108.563 111.5,107C 114.528,104.74 116.362,101.906 117,98.5C 110.37,102.029 105.37,100.362 102,93.5C 101.264,87.4252 103.43,82.7586 108.5,79.5 Z"/></g>
<g><path style="opacity:1" fill="#070707" d="M 109.5,83.5 C 116.87,82.395 120.037,85.395 119,92.5C 115.902,98.3189 111.902,98.9856 107,94.5C 105.946,90.3445 106.78,86.6779 109.5,83.5 Z"/></g>
<g><path style="opacity:1" fill="#e2e2e2" d="M 84.5,68.5 C 89.7009,68.3535 94.2009,70.0202 98,73.5C 100.178,79.9511 98.0112,84.1177 91.5,86C 96.145,92.4112 94.8117,97.4112 87.5,101C 78.5207,101.52 73.5207,97.3537 72.5,88.5C 73.8333,88.5 75.1667,88.5 76.5,88.5C 76.3029,93.9728 78.9696,96.9728 84.5,97.5C 89.1786,96.3405 91.0119,93.3405 90,88.5C 87.586,86.7093 85.086,85.0426 82.5,83.5C 82.8333,82.5 83.5,81.8333 84.5,81.5C 91.9312,84.5501 95.0979,82.2167 94,74.5C 90.3767,72.1789 86.5434,71.8456 82.5,73.5C 82.3915,71.4862 83.0582,69.8195 84.5,68.5 Z"/></g>
<g><path style="opacity:1" fill="#000000" d="M 484.5,123.5 C 481.914,126.358 479.58,129.358 477.5,132.5C 476.359,130.912 474.859,129.579 473,128.5C 472.51,127.207 472.343,125.873 472.5,124.5C 469.937,125.2 467.437,126.2 465,127.5C 464,126.833 463,126.167 462,125.5C 460.234,126.233 458.401,126.567 456.5,126.5C 456.22,123.728 456.887,121.228 458.5,119C 458.167,118.833 457.833,118.667 457.5,118.5C 455.139,120.194 453.139,122.194 451.5,124.5C 450.808,123.975 450.308,123.308 450,122.5C 446.118,123.451 442.451,122.784 439,120.5C 434.323,123.455 429.989,123.122 426,119.5C 423.568,110.191 426.735,103.358 435.5,99C 440.182,97.4218 443.182,98.9218 444.5,103.5C 443.713,106.804 441.713,108.304 438.5,108C 441.041,106.152 442.041,103.652 441.5,100.5C 439.801,100.34 438.134,100.506 436.5,101C 431.949,104.224 428.949,108.558 427.5,114C 428.789,120.543 432.455,122.209 438.5,119C 439.453,117.045 440.787,115.378 442.5,114C 450.382,111.882 452.048,114.215 447.5,121C 449.367,121.711 450.867,121.211 452,119.5C 452.117,116.371 453.617,115.205 456.5,116C 455.304,116.654 455.304,117.154 456.5,117.5C 458.071,116.691 459.738,116.357 461.5,116.5C 461.202,119.265 460.202,121.765 458.5,124C 459.899,124.595 461.232,124.428 462.5,123.5C 463.347,121.128 464.681,119.128 466.5,117.5C 466.833,118 467.167,118.5 467.5,119C 466.833,120.667 466.167,122.333 465.5,124C 466.954,125.659 468.287,125.326 469.5,123C 467.821,119.886 468.655,117.719 472,116.5C 475.137,117.945 475.303,119.778 472.5,122C 474.905,122.148 477.239,121.648 479.5,120.5C 481.423,121.092 483.089,122.092 484.5,123.5 Z"/></g>
<g><path style="opacity:1" fill="#040404" d="M 444.5,114.5 C 445.675,114.281 446.675,114.614 447.5,115.5C 446.876,117.754 445.543,119.421 443.5,120.5C 442.23,118.243 442.564,116.243 444.5,114.5 Z"/></g>
<g><path style="opacity:1" fill="#080808" d="M 477.5,122.5 C 478.5,122.5 479.5,122.5 480.5,122.5C 480.236,125.757 478.57,127.757 475.5,128.5C 475.253,126.142 475.919,124.142 477.5,122.5 Z"/></g>
<g><path style="opacity:1" fill="#000000" d="M 108.5,140.5 C 108.167,141.5 107.5,142.167 106.5,142.5C 104.525,144.137 102.525,145.804 100.5,147.5C 99.8953,145.974 98.7286,144.974 97,144.5C 96.5065,142.866 96.3398,141.199 96.5,139.5C 93.4261,139.873 90.4261,140.539 87.5,141.5C 87.5,140.5 87.5,139.5 87.5,138.5C 85.2075,138.756 83.0408,138.423 81,137.5C 80.3333,136.5 80.3333,135.5 81,134.5C 85.8803,130.568 85.3803,129.734 79.5,132C 78.8811,133.757 77.7144,134.924 76,135.5C 72.2683,134.034 68.7683,132.2 65.5,130C 61.8333,129.667 58.1667,129.333 54.5,129C 51.6061,126.091 50.7728,122.591 52,118.5C 55.979,109.8 62.479,106.634 71.5,109C 73.9545,114.546 72.2878,117.213 66.5,117C 69.5388,115.423 70.8721,112.923 70.5,109.5C 63.3218,109.675 58.1551,113.008 55,119.5C 53.3917,124.893 55.3917,127.893 61,128.5C 64.3344,126.36 67.8344,124.36 71.5,122.5C 74.8202,122.638 76.4869,124.305 76.5,127.5C 75.1266,127.657 73.7932,127.49 72.5,127C 72.9574,126.586 73.2907,126.086 73.5,125.5C 69.8526,124.79 67.8526,126.457 67.5,130.5C 69.8155,129.64 72.1489,129.14 74.5,129C 72.7397,129.965 72.4063,131.132 73.5,132.5C 76.4527,131.045 78.9527,129.045 81,126.5C 82.098,127.384 82.598,128.384 82.5,129.5C 84.0709,128.691 85.7376,128.357 87.5,128.5C 86.6769,131.351 85.3435,134.018 83.5,136.5C 84,136.833 84.5,137.167 85,137.5C 87.378,135.761 89.5446,133.761 91.5,131.5C 91.8333,132 92.1667,132.5 92.5,133C 91.3802,134.737 90.3802,136.571 89.5,138.5C 90.3914,139.59 91.3914,139.59 92.5,138.5C 93.2978,136.922 93.7978,135.256 94,133.5C 94.7387,132.426 95.7387,131.759 97,131.5C 100.137,132.945 100.303,134.778 97.5,137C 100.133,136.747 102.8,136.747 105.5,137C 106.636,138.145 107.636,139.312 108.5,140.5 Z"/></g>
<g><path style="opacity:1" fill="#000000" d="M 291.5,128.5 C 289.442,131.697 287.775,135.03 286.5,138.5C 285.159,136.88 283.326,135.88 281,135.5C 280.781,134.062 280.281,132.729 279.5,131.5C 277.465,133.372 275.298,135.039 273,136.5C 272.055,136.095 271.388,135.428 271,134.5C 264.693,138.186 262.36,136.519 264,129.5C 262.226,131.651 260.726,133.984 259.5,136.5C 255.222,136.662 250.889,136.328 246.5,135.5C 243.342,138.419 239.676,139.586 235.5,139C 229.832,133.991 228.998,128.158 233,121.5C 235.76,115.703 240.26,113.537 246.5,115C 248.232,118.457 247.566,121.291 244.5,123.5C 245.293,121.258 245.293,118.758 244.5,116C 242.711,115.48 241.044,115.813 239.5,117C 236.424,120.82 234.424,125.154 233.5,130C 233.703,132.406 234.703,134.406 236.5,136C 243.132,137.347 247.132,134.681 248.5,128C 251.457,125.879 254.124,126.046 256.5,128.5C 255.294,130.516 255.294,132.516 256.5,134.5C 258.663,132.353 259.663,129.686 259.5,126.5C 261.124,126.36 262.29,127.027 263,128.5C 264.555,126.485 266.389,126.152 268.5,127.5C 267.833,129.5 267.167,131.5 266.5,133.5C 267.651,134.731 268.817,134.731 270,133.5C 270.333,131.833 270.667,130.167 271,128.5C 271.725,126.842 272.892,126.342 274.5,127C 273.398,129.401 273.231,131.901 274,134.5C 274.667,133.833 275.333,133.167 276,132.5C 275.626,130.231 275.626,127.898 276,125.5C 277.333,124.167 278.667,124.167 280,125.5C 280.085,127.085 280.251,128.418 280.5,129.5C 284.009,126.122 287.675,125.788 291.5,128.5 Z"/></g>
<g><path style="opacity:1" fill="#040404" d="M 795.5,182.5 C 795.489,180.983 794.823,179.816 793.5,179C 790.8,178.747 788.133,178.747 785.5,179C 786.99,176.8 786.657,174.966 784.5,173.5C 782.06,175.109 780.893,177.443 781,180.5C 780,181.167 779,181.833 778,182.5C 777.79,179.731 778.623,177.231 780.5,175C 779.5,174.333 778.5,174.333 777.5,175C 776.733,177.053 775.4,178.553 773.5,179.5C 772.833,179.167 772.167,178.833 771.5,178.5C 772.711,176.578 774.044,174.745 775.5,173C 773.798,171.282 771.965,171.115 770,172.5C 769.751,171.376 769.251,170.376 768.5,169.5C 766.545,171.761 764.378,173.761 762,175.5C 761.5,175.167 761,174.833 760.5,174.5C 765.43,168.43 764.097,165.93 756.5,167C 754.183,168.32 752.183,169.986 750.5,172C 741.149,172.067 738.983,167.9 744,159.5C 747.355,155.63 751.521,153.297 756.5,152.5C 748.195,150.915 742.361,154.248 739,162.5C 737.814,172.979 742.147,176.312 752,172.5C 752.374,173.416 752.874,174.25 753.5,175C 756.726,176.372 760.059,177.538 763.5,178.5C 765.555,176.445 767.888,174.779 770.5,173.5C 770.833,173.667 771.167,173.833 771.5,174C 769.253,175.995 768.253,178.495 768.5,181.5C 771.488,181.439 774.321,182.105 777,183.5C 779.472,182.678 781.972,182.011 784.5,181.5C 783.774,185.307 785.107,187.974 788.5,189.5C 782.71,196.138 777.877,203.471 774,211.5C 770.406,229.277 765.406,246.61 759,263.5C 745.659,286.106 727.826,290.272 705.5,276C 694.281,266.297 690.447,254.131 694,239.5C 701.448,219.938 709.448,200.605 718,181.5C 722.196,162.384 726.862,143.384 732,124.5C 744.488,92.6652 767.321,72.4985 800.5,64C 821.119,59.9544 833.952,68.1211 839,88.5C 841.871,128.123 827.371,159.456 795.5,182.5 Z"/></g>
<g><path style="opacity:1" fill="#ebebeb" d="M 796.5,112.5 C 806.066,111.245 810.566,115.245 810,124.5C 808.533,126.993 806.367,128.66 803.5,129.5C 807.613,137.115 805.613,142.115 797.5,144.5C 787.378,143.262 783.545,137.928 786,128.5C 787.883,125.976 790.383,124.642 793.5,124.5C 792.737,121.859 792.57,119.192 793,116.5C 794.376,115.295 795.542,113.962 796.5,112.5 Z"/></g>
<g><path style="opacity:1" fill="#121212" d="M 798.5,115.5 C 805.357,115.508 807.69,118.675 805.5,125C 800.601,127.55 797.267,126.216 795.5,121C 796.124,118.915 797.124,117.082 798.5,115.5 Z"/></g>
<g><path style="opacity:1" fill="#e7e7e7" d="M 771.5,101.5 C 777.386,100.343 782.219,102.01 786,106.5C 787.864,113.286 785.364,117.119 778.5,118C 782.618,122.88 782.284,127.547 777.5,132C 766.931,134.606 761.265,130.439 760.5,119.5C 761.833,119.5 763.167,119.5 764.5,119.5C 763.748,125.251 766.248,128.584 772,129.5C 777.004,128.501 778.67,125.501 777,120.5C 774.704,118.943 772.538,117.276 770.5,115.5C 770.833,114.5 771.5,113.833 772.5,113.5C 779.316,117.178 782.483,115.178 782,107.5C 778.639,104.328 774.805,103.662 770.5,105.5C 770.433,104.041 770.766,102.708 771.5,101.5 Z"/></g>
<g><path style="opacity:1" fill="#0f0f0f" d="M 251.5,127.5 C 252.586,127.62 253.253,128.287 253.5,129.5C 253.247,131.956 252.247,133.956 250.5,135.5C 249.102,132.565 249.435,129.898 251.5,127.5 Z"/></g>
<g><path style="opacity:1" fill="#111111" d="M 285.5,127.5 C 286.756,127.461 287.756,127.961 288.5,129C 287.435,131.406 286.102,133.573 284.5,135.5C 283.102,132.565 283.435,129.898 285.5,127.5 Z"/></g>
<g><path style="opacity:1" fill="#0d0d0d" d="M 790.5,128.5 C 795.223,127.553 799.056,128.886 802,132.5C 802.621,138.878 799.788,141.378 793.5,140C 788.133,137.338 787.133,133.504 790.5,128.5 Z"/></g>
<g><path style="opacity:1" fill="#151515" d="M 106.5,142.5 C 103.951,142.387 101.618,143.054 99.5,144.5C 98.271,141.029 99.6043,139.029 103.5,138.5C 104.455,139.872 105.455,141.205 106.5,142.5 Z"/></g>
<g><path style="opacity:1" fill="#000000" d="M 756.5,152.5 C 757.496,152.414 758.329,152.748 759,153.5C 760.097,158.546 758.263,160.879 753.5,160.5C 756.807,158.574 757.807,155.907 756.5,152.5 Z"/></g>
<g><path style="opacity:1" fill="#000000" d="M 756.5,152.5 C 751.521,153.297 747.355,155.63 744,159.5C 738.983,167.9 741.149,172.067 750.5,172C 752.183,169.986 754.183,168.32 756.5,167C 764.097,165.93 765.43,168.43 760.5,174.5C 761,174.833 761.5,175.167 762,175.5C 764.378,173.761 766.545,171.761 768.5,169.5C 769.251,170.376 769.751,171.376 770,172.5C 771.965,171.115 773.798,171.282 775.5,173C 774.044,174.745 772.711,176.578 771.5,178.5C 772.167,178.833 772.833,179.167 773.5,179.5C 775.4,178.553 776.733,177.053 777.5,175C 778.5,174.333 779.5,174.333 780.5,175C 778.623,177.231 777.79,179.731 778,182.5C 779,181.833 780,181.167 781,180.5C 780.893,177.443 782.06,175.109 784.5,173.5C 786.657,174.966 786.99,176.8 785.5,179C 788.133,178.747 790.8,178.747 793.5,179C 794.823,179.816 795.489,180.983 795.5,182.5C 793.5,185.167 791.167,187.5 788.5,189.5C 785.107,187.974 783.774,185.307 784.5,181.5C 781.972,182.011 779.472,182.678 777,183.5C 774.321,182.105 771.488,181.439 768.5,181.5C 768.253,178.495 769.253,175.995 771.5,174C 771.167,173.833 770.833,173.667 770.5,173.5C 767.888,174.779 765.555,176.445 763.5,178.5C 760.059,177.538 756.726,176.372 753.5,175C 752.874,174.25 752.374,173.416 752,172.5C 742.147,176.312 737.814,172.979 739,162.5C 742.361,154.248 748.195,150.915 756.5,152.5 Z"/></g>
<g><path style="opacity:1" fill="#121212" d="M 758.5,167.5 C 759.756,167.461 760.756,167.961 761.5,169C 760.333,171.5 758.5,173.333 756,174.5C 755.308,173.975 754.808,173.308 754.5,172.5C 755.16,170.185 756.493,168.519 758.5,167.5 Z"/></g>
<g><path style="opacity:1" fill="#131313" d="M 788.5,180.5 C 793.167,180.894 793.501,182.728 789.5,186C 788.552,186.483 787.552,186.649 786.5,186.5C 786.253,184.142 786.919,182.142 788.5,180.5 Z"/></g>
<g><path style="opacity:1" fill="#030303" d="M 275.5,241.5 C 263.55,249.95 250.55,251.784 236.5,247C 225.115,241.417 218.781,232.251 217.5,219.5C 217.333,207.495 217.5,195.495 218,183.5C 237.368,202.701 256.535,222.035 275.5,241.5 Z"/></g>
<g><path style="opacity:1" fill="#0a0a0a" d="M 585.5,192.5 C 586.341,197.386 587.341,202.22 588.5,207C 599.131,205.577 609.797,204.077 620.5,202.5C 620.622,198.162 620.955,197.828 621.5,201.5C 627.167,201.664 627.5,201.997 622.5,202.5C 623.781,212.189 625.281,221.855 627,231.5C 627.199,233.402 628.033,234.902 629.5,236C 628.333,236.5 627.5,237.333 627,238.5C 626.586,238.043 626.086,237.709 625.5,237.5C 624.828,238.949 624.161,240.282 623.5,241.5C 622.758,232.441 617.758,228.441 608.5,229.5C 608.5,230.5 608.5,231.5 608.5,232.5C 615.577,231.77 619.41,234.77 620,241.5C 617.336,244.39 614.003,245.724 610,245.5C 604.466,244.327 598.966,244.327 593.5,245.5C 593.719,244.325 593.386,243.325 592.5,242.5C 589.697,243.776 587.03,243.776 584.5,242.5C 586.463,241.04 588.296,239.373 590,237.5C 591.264,239.607 593.097,240.607 595.5,240.5C 595.142,238.08 594.309,236.08 593,234.5C 597.133,229.366 601.633,224.532 606.5,220C 605.182,218.092 603.348,217.258 601,217.5C 597.17,218.25 593.337,218.917 589.5,219.5C 588.454,216.272 587.788,212.939 587.5,209.5C 576.348,210.747 565.348,212.747 554.5,215.5C 556.823,226.44 558.823,237.44 560.5,248.5C 549.832,250.167 539.165,251.834 528.5,253.5C 536.549,232.56 549.549,215.394 567.5,202C 573.122,198.023 579.122,194.857 585.5,192.5 Z"/></g>
<g><path style="opacity:1" fill="#000000" d="M 217.5,181.5 C 223.631,187.13 229.631,192.964 235.5,199C 248.681,212.669 262.681,226.169 277.5,239.5C 277.167,240.5 276.5,241.167 275.5,241.5C 256.535,222.035 237.368,202.701 218,183.5C 217.5,195.495 217.333,207.495 217.5,219.5C 216.179,206.931 216.179,194.265 217.5,181.5 Z"/></g>
<g><path style="opacity:1" fill="#030303" d="M 590.5,298.5 C 588.886,294.681 585.886,292.848 581.5,293C 584.416,288.076 583.082,286.576 577.5,288.5C 577.53,287.503 577.03,286.836 576,286.5C 574.225,287.27 572.725,288.437 571.5,290C 570.056,290.781 568.723,290.614 567.5,289.5C 568.973,287.605 570.64,285.939 572.5,284.5C 570.104,283.209 567.937,281.542 566,279.5C 564.093,283.01 561.26,284.176 557.5,283C 558.509,280.828 560.176,279.662 562.5,279.5C 562.436,275.938 560.603,274.271 557,274.5C 554.652,274.258 552.818,275.092 551.5,277C 542.752,278.254 539.919,274.754 543,266.5C 547.52,261.824 553.02,259.824 559.5,260.5C 559.805,264.201 558.138,266.534 554.5,267.5C 560.584,268.542 562.584,266.042 560.5,260C 552.426,256.562 545.592,258.395 540,265.5C 536.168,270.666 537.002,274.833 542.5,278C 545.226,278.182 547.893,278.682 550.5,279.5C 553.459,282.282 556.626,284.949 560,287.5C 562.216,285.634 564.716,284.8 567.5,285C 563.05,289.604 564.05,292.104 570.5,292.5C 570.5,293.5 570.5,294.5 570.5,295.5C 573.588,294.932 576.588,294.932 579.5,295.5C 577.773,299.289 578.773,301.955 582.5,303.5C 575.28,308.212 568.78,313.878 563,320.5C 554.744,336.688 545.744,352.355 536,367.5C 514.95,388.431 495.283,387.098 477,363.5C 471.915,354.476 471.248,345.143 475,335.5C 477.161,330.508 479.828,325.841 483,321.5C 494,306.833 505,292.167 516,277.5C 520.28,269.443 524.446,261.443 528.5,253.5C 539.165,251.834 549.832,250.167 560.5,248.5C 558.823,237.44 556.823,226.44 554.5,215.5C 565.348,212.747 576.348,210.747 587.5,209.5C 587.788,212.939 588.454,216.272 589.5,219.5C 586.678,220.507 583.678,221.34 580.5,222C 578.884,222.615 577.551,223.615 576.5,225C 580.466,227.964 584.133,231.297 587.5,235C 585.649,236.684 583.982,238.517 582.5,240.5C 582.855,241.522 583.522,242.189 584.5,242.5C 587.03,243.776 589.697,243.776 592.5,242.5C 593.386,243.325 593.719,244.325 593.5,245.5C 592.2,246.601 591.7,247.934 592,249.5C 596.348,254.015 600.848,258.349 605.5,262.5C 607.101,261.965 607.601,260.965 607,259.5C 603.093,255.947 599.76,252.281 597,248.5C 604.08,248.295 611.247,248.129 618.5,248C 621.493,246.841 623.16,244.675 623.5,241.5C 624.161,240.282 624.828,238.949 625.5,237.5C 626.086,237.709 626.586,238.043 627,238.5C 627.5,237.333 628.333,236.5 629.5,236C 628.033,234.902 627.199,233.402 627,231.5C 625.281,221.855 623.781,212.189 622.5,202.5C 627.5,201.997 627.167,201.664 621.5,201.5C 620.955,197.828 620.622,198.162 620.5,202.5C 609.797,204.077 599.131,205.577 588.5,207C 587.341,202.22 586.341,197.386 585.5,192.5C 601.457,185.515 618.124,183.681 635.5,187C 649.107,192.181 655.44,202.181 654.5,217C 648.373,256.078 627.04,283.244 590.5,298.5 Z"/></g>
<g><path style="opacity:1" fill="#eaeaea" d="M 623.5,241.5 C 623.16,244.675 621.493,246.841 618.5,248C 611.247,248.129 604.08,248.295 597,248.5C 599.76,252.281 603.093,255.947 607,259.5C 607.601,260.965 607.101,261.965 605.5,262.5C 600.848,258.349 596.348,254.015 592,249.5C 591.7,247.934 592.2,246.601 593.5,245.5C 598.966,244.327 604.466,244.327 610,245.5C 614.003,245.724 617.336,244.39 620,241.5C 619.41,234.77 615.577,231.77 608.5,232.5C 608.5,231.5 608.5,230.5 608.5,229.5C 617.758,228.441 622.758,232.441 623.5,241.5 Z"/></g>
<g><path style="opacity:1" fill="#e7e7e7" d="M 584.5,242.5 C 583.522,242.189 582.855,241.522 582.5,240.5C 583.982,238.517 585.649,236.684 587.5,235C 584.133,231.297 580.466,227.964 576.5,225C 577.551,223.615 578.884,222.615 580.5,222C 583.678,221.34 586.678,220.507 589.5,219.5C 593.337,218.917 597.17,218.25 601,217.5C 603.348,217.258 605.182,218.092 606.5,220C 601.633,224.532 597.133,229.366 593,234.5C 594.309,236.08 595.142,238.08 595.5,240.5C 593.097,240.607 591.264,239.607 590,237.5C 588.296,239.373 586.463,241.04 584.5,242.5 Z"/></g>
<g><path style="opacity:1" fill="#0f0f0f" d="M 596.5,221.5 C 597.552,221.351 598.552,221.517 599.5,222C 595.984,225.349 592.651,228.849 589.5,232.5C 587.016,230.517 584.683,228.35 582.5,226C 587.274,224.481 591.941,222.981 596.5,221.5 Z"/></g>
<g><path style="opacity:1" fill="#000000" d="M 577.5,288.5 C 583.082,286.576 584.416,288.076 581.5,293C 585.886,292.848 588.886,294.681 590.5,298.5C 588.206,300.653 585.54,302.32 582.5,303.5C 578.773,301.955 577.773,299.289 579.5,295.5C 576.588,294.932 573.588,294.932 570.5,295.5C 570.5,294.5 570.5,293.5 570.5,292.5C 564.05,292.104 563.05,289.604 567.5,285C 564.716,284.8 562.216,285.634 560,287.5C 556.626,284.949 553.459,282.282 550.5,279.5C 547.893,278.682 545.226,278.182 542.5,278C 537.002,274.833 536.168,270.666 540,265.5C 545.592,258.395 552.426,256.562 560.5,260C 562.584,266.042 560.584,268.542 554.5,267.5C 558.138,266.534 559.805,264.201 559.5,260.5C 553.02,259.824 547.52,261.824 543,266.5C 539.919,274.754 542.752,278.254 551.5,277C 552.818,275.092 554.652,274.258 557,274.5C 560.603,274.271 562.436,275.938 562.5,279.5C 560.176,279.662 558.509,280.828 557.5,283C 561.26,284.176 564.093,283.01 566,279.5C 567.937,281.542 570.104,283.209 572.5,284.5C 570.64,285.939 568.973,287.605 567.5,289.5C 568.723,290.614 570.056,290.781 571.5,290C 572.725,288.437 574.225,287.27 576,286.5C 577.03,286.836 577.53,287.503 577.5,288.5 Z"/></g>
<g><path style="opacity:1" fill="#0e0e0e" d="M 556.5,275.5 C 558.103,275.312 559.437,275.812 560.5,277C 558.641,278.692 556.641,280.192 554.5,281.5C 553.021,278.743 553.687,276.743 556.5,275.5 Z"/></g>
<g><path style="opacity:1" fill="#080808" d="M 577.5,288.5 C 576.962,290.117 576.629,291.784 576.5,293.5C 575.325,293.719 574.325,293.386 573.5,292.5C 574.521,290.812 575.855,289.479 577.5,288.5 Z"/></g>
<g><path style="opacity:1" fill="#0d0d0d" d="M 583.5,295.5 C 587.795,295.279 588.462,296.612 585.5,299.5C 583.802,300.681 582.135,300.681 580.5,299.5C 581.524,298.148 582.524,296.815 583.5,295.5 Z"/></g>
<g><path style="opacity:1" fill="#040404" d="M 417.5,366.5 C 417.5,367.5 417.5,368.5 417.5,369.5C 412.944,369.554 410.444,371.888 410,376.5C 408.585,373.782 406.585,373.115 404,374.5C 404.071,377.308 405.237,379.641 407.5,381.5C 407.167,382.167 406.833,382.833 406.5,383.5C 401.736,375.63 400.736,376.297 403.5,385.5C 403.444,386.737 402.944,387.737 402,388.5C 400.097,386.559 399.264,384.226 399.5,381.5C 396.5,381.167 395.167,382.5 395.5,385.5C 394.022,385.238 392.689,385.571 391.5,386.5C 393.408,389.023 393.741,391.69 392.5,394.5C 391.735,393.388 390.735,392.721 389.5,392.5C 391,390.491 390.5,389.158 388,388.5C 383.462,391.121 382.295,394.955 384.5,400C 382.225,408.385 378.058,409.551 372,403.5C 369.149,397.937 368.982,392.437 371.5,387C 372.5,386.333 373.5,386.333 374.5,387C 375.717,388.648 376.55,390.481 377,392.5C 379.443,388.405 378.276,385.738 373.5,384.5C 367.612,387.294 365.445,391.961 367,398.5C 368.13,407.677 372.963,411.177 381.5,409C 383.782,406.603 385.116,403.769 385.5,400.5C 386.873,400.657 388.207,400.49 389.5,400C 391.545,398.333 393.378,396.5 395,394.5C 395.667,395.833 396.333,395.833 397,394.5C 396.631,391.21 396.631,387.877 397,384.5C 397.683,387.424 399.183,389.758 401.5,391.5C 402.974,390.564 403.974,389.23 404.5,387.5C 405.833,386.833 407.167,386.167 408.5,385.5C 409.025,383.012 409.858,380.679 411,378.5C 413.83,381.101 416.663,381.101 419.5,378.5C 422.05,386.286 425.216,393.953 429,401.5C 439.667,413.5 450.333,425.5 461,437.5C 469.177,447.368 472.51,458.701 471,471.5C 467.74,481.763 461.24,489.263 451.5,494C 448.072,495.94 444.406,497.106 440.5,497.5C 435.807,497.46 431.141,497.127 426.5,496.5C 419.296,494.637 413.462,490.637 409,484.5C 397.172,468.18 385.839,451.513 375,434.5C 360.633,419.801 346.633,404.801 333,389.5C 313.157,359.466 310.157,327.8 324,294.5C 331.708,280.737 343.208,276.237 358.5,281C 371.838,285.66 383.004,293.494 392,304.5C 407.428,322.275 415.928,342.942 417.5,366.5 Z"/></g>
<g><path style="opacity:1" fill="#e8e8e8" d="M 345.5,329.5 C 346.376,329.369 347.043,329.702 347.5,330.5C 350.06,336.621 352.894,342.621 356,348.5C 357.584,347.139 359.418,346.472 361.5,346.5C 361.264,348.973 359.931,350.64 357.5,351.5C 358.5,353.5 359.5,355.5 360.5,357.5C 359.672,358.415 358.672,359.081 357.5,359.5C 356.703,356.877 355.203,354.877 353,353.5C 349.333,355.167 345.667,356.833 342,358.5C 341.228,358.355 340.561,358.022 340,357.5C 339.964,348.744 340.964,340.078 343,331.5C 343.995,330.934 344.828,330.267 345.5,329.5 Z"/></g>
<g><path style="opacity:1" fill="#141414" d="M 345.5,336.5 C 348.059,340.612 350.392,344.946 352.5,349.5C 349.749,351.293 346.916,352.959 344,354.5C 343.729,348.45 344.229,342.45 345.5,336.5 Z"/></g>
<g><path style="opacity:1" fill="#ebebeb" d="M 367.5,318.5 C 376.744,318.217 382.91,322.55 386,331.5C 389.367,344.802 384.2,350.636 370.5,349C 362.203,342.769 359.036,334.602 361,324.5C 363.063,322.266 365.229,320.266 367.5,318.5 Z"/></g>
<g><path style="opacity:1" fill="#0b0b0b" d="M 369.5,321.5 C 373.548,321.441 376.715,323.108 379,326.5C 382.98,331.735 383.98,337.402 382,343.5C 376.572,348.014 371.905,347.347 368,341.5C 365.216,336.825 363.883,331.825 364,326.5C 365.73,324.598 367.563,322.931 369.5,321.5 Z"/></g>
<g><path style="opacity:1" fill="#000000" d="M 417.5,366.5 C 418.482,370.316 419.149,374.316 419.5,378.5C 416.663,381.101 413.83,381.101 411,378.5C 409.858,380.679 409.025,383.012 408.5,385.5C 407.167,386.167 405.833,386.833 404.5,387.5C 403.974,389.23 402.974,390.564 401.5,391.5C 399.183,389.758 397.683,387.424 397,384.5C 396.631,387.877 396.631,391.21 397,394.5C 396.333,395.833 395.667,395.833 395,394.5C 393.378,396.5 391.545,398.333 389.5,400C 388.207,400.49 386.873,400.657 385.5,400.5C 385.116,403.769 383.782,406.603 381.5,409C 372.963,411.177 368.13,407.677 367,398.5C 365.445,391.961 367.612,387.294 373.5,384.5C 378.276,385.738 379.443,388.405 377,392.5C 376.55,390.481 375.717,388.648 374.5,387C 373.5,386.333 372.5,386.333 371.5,387C 368.982,392.437 369.149,397.937 372,403.5C 378.058,409.551 382.225,408.385 384.5,400C 382.295,394.955 383.462,391.121 388,388.5C 390.5,389.158 391,390.491 389.5,392.5C 390.735,392.721 391.735,393.388 392.5,394.5C 393.741,391.69 393.408,389.023 391.5,386.5C 392.689,385.571 394.022,385.238 395.5,385.5C 395.167,382.5 396.5,381.167 399.5,381.5C 399.264,384.226 400.097,386.559 402,388.5C 402.944,387.737 403.444,386.737 403.5,385.5C 400.736,376.297 401.736,375.63 406.5,383.5C 406.833,382.833 407.167,382.167 407.5,381.5C 405.237,379.641 404.071,377.308 404,374.5C 406.585,373.115 408.585,373.782 410,376.5C 410.444,371.888 412.944,369.554 417.5,369.5C 417.5,368.5 417.5,367.5 417.5,366.5 Z"/></g>
<g><path style="opacity:1" fill="#060606" d="M 413.5,371.5 C 414.75,371.577 415.583,372.244 416,373.5C 416.23,379.886 415.063,380.053 412.5,374C 412.743,373.098 413.077,372.265 413.5,371.5 Z"/></g>
<g><path style="opacity:1" fill="#0e0e0e" d="M 389.5,392.5 C 389.5,394.5 389.5,396.5 389.5,398.5C 386.512,398.845 385.179,397.512 385.5,394.5C 385.833,393.5 386.167,392.5 386.5,391.5C 387.417,392.127 388.417,392.461 389.5,392.5 Z"/></g>
<g><path style="opacity:1" fill="#040404" d="M 837.5,417.5 C 832.908,416.916 830.075,418.916 829,423.5C 827.809,421.153 825.976,420.32 823.5,421C 822.663,422.011 822.33,423.178 822.5,424.5C 821.351,424.791 820.684,425.624 820.5,427C 821.536,429.408 821.536,431.741 820.5,434C 820.167,434.167 819.833,434.333 819.5,434.5C 818.65,432.096 817.65,429.763 816.5,427.5C 814.803,428.364 813.637,429.697 813,431.5C 811.455,430.179 810.289,430.512 809.5,432.5C 811.396,434.881 811.729,437.381 810.5,440C 809.517,440.591 808.85,440.257 808.5,439C 807.852,437.56 807.519,436.06 807.5,434.5C 800.997,434.812 798.997,438.146 801.5,444.5C 797.453,453.315 792.953,453.648 788,445.5C 786,440.833 786,436.167 788,431.5C 789.667,428.833 791.333,428.833 793,431.5C 793.333,433.5 793.667,435.5 794,437.5C 797.226,431.226 795.393,428.393 788.5,429C 781.41,437.95 782.077,446.283 790.5,454C 796.544,454.652 800.544,451.985 802.5,446C 806.819,444.627 810.819,442.794 814.5,440.5C 813.014,437.1 813.18,433.767 815,430.5C 815.871,438.291 818.704,439.291 823.5,433.5C 824.906,434.668 826.072,434.335 827,432.5C 827.019,429.692 828.019,427.359 830,425.5C 830.479,427.646 831.812,428.646 834,428.5C 835.607,427.926 837.107,427.26 838.5,426.5C 839.823,435.968 842.656,444.968 847,453.5C 858.653,468.135 869.319,483.469 879,499.5C 886.26,523.147 878.093,538.647 854.5,546C 840.722,549.963 829.222,546.463 820,535.5C 808.811,516.456 798.145,497.123 788,477.5C 777,463.5 766,449.5 755,435.5C 735.337,403.926 733.337,371.26 749,337.5C 758.88,320.94 772.714,316.773 790.5,325C 822.948,347.059 838.614,377.892 837.5,417.5 Z"/></g>
<g><path style="opacity:1" fill="#e5e5e5" d="M 773.5,375.5 C 774.978,375.238 776.311,375.571 777.5,376.5C 779.444,382.667 781.777,388.667 784.5,394.5C 786.198,393.319 787.865,393.319 789.5,394.5C 788.167,395.833 786.833,397.167 785.5,398.5C 786.548,400.456 787.048,402.456 787,404.5C 785.989,405.337 784.822,405.67 783.5,405.5C 783.633,402.412 782.3,400.412 779.5,399.5C 775.839,400.832 772.172,402.165 768.5,403.5C 767.914,403.291 767.414,402.957 767,402.5C 767.837,395.472 769.17,388.472 771,381.5C 771.236,379.189 772.069,377.189 773.5,375.5 Z"/></g>
<g><path style="opacity:1" fill="#0f0f0f" d="M 774.5,381.5 C 776.67,385.984 778.67,390.65 780.5,395.5C 777.578,396.798 774.578,397.798 771.5,398.5C 772.34,392.807 773.34,387.14 774.5,381.5 Z"/></g>
<g><path style="opacity:1" fill="#e7e7e7" d="M 794.5,367.5 C 795.5,367.5 796.5,367.5 797.5,367.5C 800.026,375.91 802.859,384.243 806,392.5C 806.561,393.022 807.228,393.355 808,393.5C 810.047,392.391 812.213,391.724 814.5,391.5C 814.67,392.822 814.337,393.989 813.5,395C 807.794,397.069 802.128,399.235 796.5,401.5C 795.571,400.311 795.238,398.978 795.5,397.5C 798.573,397.547 800.906,396.381 802.5,394C 800.118,387.015 797.451,380.181 794.5,373.5C 792.772,375.226 790.772,376.559 788.5,377.5C 788.167,376.833 787.833,376.167 787.5,375.5C 789.827,372.839 792.16,370.172 794.5,367.5 Z"/></g>
<g><path style="opacity:1" fill="#040404" d="M 150.5,462.5 C 146.941,459.555 142.941,458.721 138.5,460C 140.527,458.604 140.86,456.938 139.5,455C 137.505,454.387 135.838,454.887 134.5,456.5C 133.749,455.427 132.749,455.26 131.5,456C 130.228,457.307 129.228,458.807 128.5,460.5C 127.109,461.645 125.776,461.645 124.5,460.5C 125.441,458.228 126.774,456.228 128.5,454.5C 125.968,453.881 123.635,452.881 121.5,451.5C 119.639,452.528 118.305,454.028 117.5,456C 116.167,456.667 114.833,456.667 113.5,456C 118.171,449 116.504,446.667 108.5,449C 105.572,453.216 101.572,454.549 96.5,453C 94.718,450.757 94.218,448.257 95,445.5C 97.7181,438.745 102.551,435.245 109.5,435C 110.77,438.142 109.77,440.475 106.5,442C 111.496,442.664 113.33,440.498 112,435.5C 108.923,432.191 105.423,431.691 101.5,434C 94.2387,437.693 91.0721,443.527 92,451.5C 95.4751,455.572 99.8084,456.572 105,454.5C 106.169,455.009 107.002,455.842 107.5,457C 110.933,457.482 114.1,458.649 117,460.5C 119.047,457.955 121.547,455.955 124.5,454.5C 124.833,454.667 125.167,454.833 125.5,455C 122.743,456.819 121.743,459.152 122.5,462C 125.449,462.427 128.283,463.261 131,464.5C 133.468,463.497 135.968,462.997 138.5,463C 137.253,464.458 137.253,465.958 138.5,467.5C 140.332,468.057 141.665,469.057 142.5,470.5C 136.702,477.144 131.868,484.477 128,492.5C 124.71,511.329 119.71,529.662 113,547.5C 102.211,565.985 87.0448,570.818 67.5,562C 51.6563,554.483 45.1563,541.983 48,524.5C 55.1996,503.575 63.1996,482.908 72,462.5C 75.9983,444.504 79.9983,426.504 84,408.5C 96.1248,374.043 119.958,352.543 155.5,344C 175.072,341.556 186.906,350.056 191,369.5C 193.851,407.826 180.351,438.826 150.5,462.5 Z"/></g>
<g><path style="opacity:1" fill="#ebebeb" d="M 157.5,397.5 C 159.714,397.291 161.381,398.124 162.5,400C 159.833,405.667 157.167,411.333 154.5,417C 155.613,418.394 156.947,419.561 158.5,420.5C 156.882,422.836 155.048,422.836 153,420.5C 151.414,422.67 150.08,425.004 149,427.5C 147.842,427.002 147.009,426.169 146.5,425C 147.791,422.95 148.291,420.783 148,418.5C 143.896,416.699 140.063,414.532 136.5,412C 136.759,410.739 137.426,409.739 138.5,409C 145.004,405.303 151.338,401.47 157.5,397.5 Z"/></g>
<g><path style="opacity:1" fill="#131313" d="M 156.5,401.5 C 157.043,401.56 157.376,401.893 157.5,402.5C 155.493,407.189 152.993,411.522 150,415.5C 147.278,414.556 144.778,413.223 142.5,411.5C 147.196,408.157 151.863,404.824 156.5,401.5 Z"/></g>
<g><path style="opacity:1" fill="#e9e9e9" d="M 133.5,385.5 C 135.948,385.01 137.615,385.843 138.5,388C 135.696,393.774 133.03,399.607 130.5,405.5C 132.931,406.36 134.264,408.027 134.5,410.5C 132.418,410.528 130.584,409.861 129,408.5C 127.92,410.996 126.586,413.33 125,415.5C 123.842,415.002 123.009,414.169 122.5,413C 123.791,410.95 124.291,408.783 124,406.5C 119.881,404.529 116.047,402.196 112.5,399.5C 119.357,394.575 126.357,389.908 133.5,385.5 Z"/></g>
<g><path style="opacity:1" fill="#0e0e0e" d="M 131.5,390.5 C 132.239,390.369 132.906,390.536 133.5,391C 131.366,395.444 128.866,399.611 126,403.5C 123.278,402.556 120.778,401.223 118.5,399.5C 123.074,396.724 127.407,393.724 131.5,390.5 Z"/></g>
<g><path style="opacity:1" fill="#000000" d="M 837.5,417.5 C 838.477,420.287 838.81,423.287 838.5,426.5C 837.107,427.26 835.607,427.926 834,428.5C 831.812,428.646 830.479,427.646 830,425.5C 828.019,427.359 827.019,429.692 827,432.5C 826.072,434.335 824.906,434.668 823.5,433.5C 818.704,439.291 815.871,438.291 815,430.5C 813.18,433.767 813.014,437.1 814.5,440.5C 810.819,442.794 806.819,444.627 802.5,446C 800.544,451.985 796.544,454.652 790.5,454C 782.077,446.283 781.41,437.95 788.5,429C 795.393,428.393 797.226,431.226 794,437.5C 793.667,435.5 793.333,433.5 793,431.5C 791.333,428.833 789.667,428.833 788,431.5C 786,436.167 786,440.833 788,445.5C 792.953,453.648 797.453,453.315 801.5,444.5C 798.997,438.146 800.997,434.812 807.5,434.5C 807.519,436.06 807.852,437.56 808.5,439C 808.85,440.257 809.517,440.591 810.5,440C 811.729,437.381 811.396,434.881 809.5,432.5C 810.289,430.512 811.455,430.179 813,431.5C 813.637,429.697 814.803,428.364 816.5,427.5C 817.65,429.763 818.65,432.096 819.5,434.5C 819.833,434.333 820.167,434.167 820.5,434C 821.536,431.741 821.536,429.408 820.5,427C 820.684,425.624 821.351,424.791 822.5,424.5C 822.33,423.178 822.663,422.011 823.5,421C 825.976,420.32 827.809,421.153 829,423.5C 830.075,418.916 832.908,416.916 837.5,417.5 Z"/></g>
<g><path style="opacity:1" fill="#121212" d="M 822.5,424.5 C 825.467,425.737 826.467,427.737 825.5,430.5C 823.022,429.278 822.022,427.278 822.5,424.5 Z"/></g>
<g><path style="opacity:1" fill="#111111" d="M 833.5,418.5 C 834.922,418.75 835.922,419.583 836.5,421C 835.633,427.801 833.966,428.134 831.5,422C 831.978,420.697 832.645,419.531 833.5,418.5 Z"/></g>
<g><path style="opacity:1" fill="#000000" d="M 134.5,456.5 C 135.838,454.887 137.505,454.387 139.5,455C 140.86,456.938 140.527,458.604 138.5,460C 142.941,458.721 146.941,459.555 150.5,462.5C 147.791,465.175 145.124,467.842 142.5,470.5C 141.665,469.057 140.332,468.057 138.5,467.5C 137.253,465.958 137.253,464.458 138.5,463C 135.968,462.997 133.468,463.497 131,464.5C 128.283,463.261 125.449,462.427 122.5,462C 121.743,459.152 122.743,456.819 125.5,455C 125.167,454.833 124.833,454.667 124.5,454.5C 121.547,455.955 119.047,457.955 117,460.5C 114.1,458.649 110.933,457.482 107.5,457C 107.002,455.842 106.169,455.009 105,454.5C 99.8084,456.572 95.4751,455.572 92,451.5C 91.0721,443.527 94.2387,437.693 101.5,434C 105.423,431.691 108.923,432.191 112,435.5C 113.33,440.498 111.496,442.664 106.5,442C 109.77,440.475 110.77,438.142 109.5,435C 102.551,435.245 97.7181,438.745 95,445.5C 94.218,448.257 94.718,450.757 96.5,453C 101.572,454.549 105.572,453.216 108.5,449C 116.504,446.667 118.171,449 113.5,456C 114.833,456.667 116.167,456.667 117.5,456C 118.305,454.028 119.639,452.528 121.5,451.5C 123.635,452.881 125.968,453.881 128.5,454.5C 126.774,456.228 125.441,458.228 124.5,460.5C 125.776,461.645 127.109,461.645 128.5,460.5C 129.228,458.807 130.228,457.307 131.5,456C 132.749,455.26 133.749,455.427 134.5,456.5 Z"/></g>
<g><path style="opacity:1" fill="#0e0e0e" d="M 802.5,436.5 C 803.675,436.281 804.675,436.614 805.5,437.5C 806.348,439.409 806.682,441.409 806.5,443.5C 805.178,443.67 804.011,443.337 803,442.5C 802.505,440.527 802.338,438.527 802.5,436.5 Z"/></g>
<g><path style="opacity:1" fill="#040404" d="M 636.5,491.5 C 632.828,488.943 629.162,488.943 625.5,491.5C 625.08,489.674 625.08,487.674 625.5,485.5C 623.856,485.286 622.356,485.62 621,486.5C 621.012,489.651 620.012,492.318 618,494.5C 617.747,491.8 617.747,489.133 618,486.5C 616.516,489.347 614.516,491.68 612,493.5C 611.5,493.167 611,492.833 610.5,492.5C 611.5,490.5 612.5,488.5 613.5,486.5C 611.865,485.319 610.198,485.319 608.5,486.5C 607.476,485.147 606.143,484.48 604.5,484.5C 604.506,487.825 603.006,490.159 600,491.5C 599.781,490.062 599.281,488.729 598.5,487.5C 597.305,489.297 595.638,490.297 593.5,490.5C 593.032,487.1 594.365,484.767 597.5,483.5C 599.271,484.035 599.604,484.869 598.5,486C 599.448,486.483 600.448,486.649 601.5,486.5C 601.845,483.512 600.512,482.179 597.5,482.5C 593.832,483.326 591.165,485.492 589.5,489C 583.317,492.078 579.984,490.245 579.5,483.5C 580.655,475.84 584.989,471.173 592.5,469.5C 592.945,472.365 592.278,474.865 590.5,477C 594.977,477.165 596.477,474.998 595,470.5C 591.692,468.007 588.192,467.841 584.5,470C 576.155,475.352 574.155,482.352 578.5,491C 582.959,493.175 587.126,492.675 591,489.5C 591.374,490.416 591.874,491.25 592.5,492C 595.9,491.802 599.4,492.302 603,493.5C 604.554,491.062 606.554,489.062 609,487.5C 609.004,489.368 608.504,491.202 607.5,493C 608.615,495.702 610.449,496.202 613,494.5C 614.092,495.296 615.259,495.963 616.5,496.5C 618.944,494.946 621.611,493.946 624.5,493.5C 624.343,494.873 624.51,496.207 625,497.5C 627.026,497.915 628.526,498.915 629.5,500.5C 624.646,507.878 621.146,515.878 619,524.5C 617.839,541.939 615.839,559.272 613,576.5C 605.675,600.776 589.841,608.942 565.5,601C 548.904,593.903 542.07,581.403 545,563.5C 548.876,542.994 553.543,522.661 559,502.5C 559.769,481.753 561.436,461.086 564,440.5C 573.164,406.004 594.664,383.17 628.5,372C 637.01,370.232 644.676,371.899 651.5,377C 660.516,385.534 665.349,396.034 666,408.5C 668.344,440.643 658.511,468.309 636.5,491.5 Z"/></g>
<g><path style="opacity:1" fill="#eaeaea" d="M 625.5,424.5 C 631.676,423.776 636.676,425.776 640.5,430.5C 640.113,431.72 639.28,432.387 638,432.5C 628.953,424.856 623.286,426.856 621,438.5C 626.209,434.356 631.209,434.689 636,439.5C 638.363,445.422 637.196,450.588 632.5,455C 626.505,457.618 621.338,456.451 617,451.5C 613.732,440.474 616.565,431.474 625.5,424.5 Z"/></g>
<g><path style="opacity:1" fill="#0d0d0d" d="M 623.5,438.5 C 632.137,437.79 634.97,441.457 632,449.5C 623.421,455.169 619.421,452.836 620,442.5C 621.032,440.973 622.199,439.64 623.5,438.5 Z"/></g>
<g><path style="opacity:1" fill="#e9e9e9" d="M 597.5,416.5 C 603.243,415.803 608.076,417.47 612,421.5C 613.673,427.495 611.507,431.328 605.5,433C 609.212,435.513 610.378,439.013 609,443.5C 608.215,445.286 607.049,446.786 605.5,448C 599.684,449.409 594.517,448.242 590,444.5C 588.798,442.323 588.298,439.989 588.5,437.5C 589.833,437.5 591.167,437.5 592.5,437.5C 592.997,443.596 596.331,446.096 602.5,445C 607.385,439.012 606.052,435.012 598.5,433C 597.663,431.989 597.33,430.822 597.5,429.5C 600.526,430.577 603.526,430.577 606.5,429.5C 610.083,423.947 608.583,420.614 602,419.5C 599.914,420.418 597.747,421.085 595.5,421.5C 595.392,419.486 596.058,417.82 597.5,416.5 Z"/></g>
<g><path style="opacity:1" fill="#0d0d0d" d="M 110.5,449.5 C 115.278,449.763 115.612,451.43 111.5,454.5C 110.675,455.386 109.675,455.719 108.5,455.5C 108.253,453.142 108.919,451.142 110.5,449.5 Z"/></g>
<g><path style="opacity:1" fill="#0f0f0f" d="M 134.5,456.5 C 134.286,458.144 134.62,459.644 135.5,461C 133.911,462.543 132.577,462.543 131.5,461C 131.899,459.019 132.899,457.519 134.5,456.5 Z"/></g>
<g><path style="opacity:1" fill="#050505" d="M 142.5,461.5 C 143.873,461.343 145.207,461.51 146.5,462C 141.689,469.33 140.356,469.164 142.5,461.5 Z"/></g>
<g><path style="opacity:1" fill="#080808" d="M 291.5,540.5 C 278.976,534.405 266.642,528.072 254.5,521.5C 265.486,522.347 269.986,517.347 268,506.5C 265.185,500.831 260.685,498.998 254.5,501C 253.333,502.167 252.167,503.333 251,504.5C 249.818,501.144 249.651,497.81 250.5,494.5C 254.155,493.668 257.821,492.835 261.5,492C 262.337,490.989 262.67,489.822 262.5,488.5C 256.808,489.372 251.141,490.372 245.5,491.5C 246.037,497.516 246.703,503.516 247.5,509.5C 248.833,509.5 250.167,509.5 251.5,509.5C 251.848,505.655 254.015,503.655 258,503.5C 264.093,505.24 266.093,509.24 264,515.5C 259.254,519.793 254.921,519.459 251,514.5C 250.167,515.333 249.333,516.167 248.5,517C 249.381,517.708 250.047,518.542 250.5,519.5C 248.94,519.481 247.44,519.148 246,518.5C 244.989,519.056 244.156,519.722 243.5,520.5C 244.406,514.138 241.74,510.305 235.5,509C 239.115,505.341 239.448,501.341 236.5,497C 229.526,493.855 224.192,495.522 220.5,502C 220.63,503.059 221.13,503.892 222,504.5C 225.371,499.257 229.704,498.257 235,501.5C 235.877,507.128 233.377,509.794 227.5,509.5C 223.476,507.068 219.31,504.734 215,502.5C 210.167,512.167 205.333,521.833 200.5,531.5C 209.941,537.554 219.941,542.554 230.5,546.5C 226.62,556.591 221.954,566.258 216.5,575.5C 209.697,564.218 204.197,552.218 200,539.5C 192.584,506.104 200.417,476.937 223.5,452C 234.819,443.682 246.485,443.349 258.5,451C 269.767,460.022 278.267,471.189 284,484.5C 292.042,502.417 294.542,521.084 291.5,540.5 Z"/></g>
<g><path style="opacity:1" fill="#000000" d="M 636.5,491.5 C 636.167,492.5 635.5,493.167 634.5,493.5C 632.058,493.881 631.391,493.214 632.5,491.5C 628.382,490.946 626.382,492.946 626.5,497.5C 629.01,496.217 631.677,495.217 634.5,494.5C 632.804,496.525 631.137,498.525 629.5,500.5C 628.526,498.915 627.026,497.915 625,497.5C 624.51,496.207 624.343,494.873 624.5,493.5C 621.611,493.946 618.944,494.946 616.5,496.5C 615.259,495.963 614.092,495.296 613,494.5C 610.449,496.202 608.615,495.702 607.5,493C 608.504,491.202 609.004,489.368 609,487.5C 606.554,489.062 604.554,491.062 603,493.5C 599.4,492.302 595.9,491.802 592.5,492C 591.874,491.25 591.374,490.416 591,489.5C 587.126,492.675 582.959,493.175 578.5,491C 574.155,482.352 576.155,475.352 584.5,470C 588.192,467.841 591.692,468.007 595,470.5C 596.477,474.998 594.977,477.165 590.5,477C 592.278,474.865 592.945,472.365 592.5,469.5C 584.989,471.173 580.655,475.84 579.5,483.5C 579.984,490.245 583.317,492.078 589.5,489C 591.165,485.492 593.832,483.326 597.5,482.5C 600.512,482.179 601.845,483.512 601.5,486.5C 600.448,486.649 599.448,486.483 598.5,486C 599.604,484.869 599.271,484.035 597.5,483.5C 594.365,484.767 593.032,487.1 593.5,490.5C 595.638,490.297 597.305,489.297 598.5,487.5C 599.281,488.729 599.781,490.062 600,491.5C 603.006,490.159 604.506,487.825 604.5,484.5C 606.143,484.48 607.476,485.147 608.5,486.5C 610.198,485.319 611.865,485.319 613.5,486.5C 612.5,488.5 611.5,490.5 610.5,492.5C 611,492.833 611.5,493.167 612,493.5C 614.516,491.68 616.516,489.347 618,486.5C 617.747,489.133 617.747,491.8 618,494.5C 620.012,492.318 621.012,489.651 621,486.5C 622.356,485.62 623.856,485.286 625.5,485.5C 625.08,487.674 625.08,489.674 625.5,491.5C 629.162,488.943 632.828,488.943 636.5,491.5 Z"/></g>
<g><path style="opacity:1" fill="#141414" d="M 634.5,493.5 C 634.5,493.833 634.5,494.167 634.5,494.5C 631.677,495.217 629.01,496.217 626.5,497.5C 626.382,492.946 628.382,490.946 632.5,491.5C 631.391,493.214 632.058,493.881 634.5,493.5 Z"/></g>
<g><path style="opacity:1" fill="#eaeaea" d="M 243.5,520.5 C 242.797,522.716 241.464,524.549 239.5,526C 233.956,528.42 228.789,527.92 224,524.5C 223.316,523.216 223.483,522.049 224.5,521C 226.926,522.033 229.426,523.2 232,524.5C 238.855,524.153 241.021,520.82 238.5,514.5C 237.975,513.808 237.308,513.308 236.5,513C 233.469,512.505 230.469,512.671 227.5,513.5C 227.5,512.167 227.5,510.833 227.5,509.5C 233.377,509.794 235.877,507.128 235,501.5C 229.704,498.257 225.371,499.257 222,504.5C 221.13,503.892 220.63,503.059 220.5,502C 224.192,495.522 229.526,493.855 236.5,497C 239.448,501.341 239.115,505.341 235.5,509C 241.74,510.305 244.406,514.138 243.5,520.5 Z"/></g>
<g><path style="opacity:1" fill="#000000" d="M 426.5,496.5 C 431.141,497.127 435.807,497.46 440.5,497.5C 438.866,498.161 437.033,498.494 435,498.5C 431.85,498.64 429.017,497.973 426.5,496.5 Z"/></g>
<g><path style="opacity:1" fill="#eaeaea" d="M 254.5,521.5 C 252.847,521.34 251.514,520.674 250.5,519.5C 250.047,518.542 249.381,517.708 248.5,517C 249.333,516.167 250.167,515.333 251,514.5C 254.921,519.459 259.254,519.793 264,515.5C 266.093,509.24 264.093,505.24 258,503.5C 254.015,503.655 251.848,505.655 251.5,509.5C 250.167,509.5 248.833,509.5 247.5,509.5C 246.703,503.516 246.037,497.516 245.5,491.5C 251.141,490.372 256.808,489.372 262.5,488.5C 262.67,489.822 262.337,490.989 261.5,492C 257.821,492.835 254.155,493.668 250.5,494.5C 249.651,497.81 249.818,501.144 251,504.5C 252.167,503.333 253.333,502.167 254.5,501C 260.685,498.998 265.185,500.831 268,506.5C 269.986,517.347 265.486,522.347 254.5,521.5 Z"/></g>
<g><path style="opacity:1" fill="#000000" d="M 289.5,552.5 C 289.037,555.482 288.704,558.482 288.5,561.5C 284.835,564.542 282.002,563.876 280,559.5C 278.319,561.548 276.819,563.715 275.5,566C 274.216,566.684 273.049,566.517 272,565.5C 266.582,571.149 264.249,569.816 265,561.5C 263.419,564.751 262.086,568.085 261,571.5C 260.667,571.167 260.333,570.833 260,570.5C 257.422,571.981 254.756,573.314 252,574.5C 251.228,574.355 250.561,574.022 250,573.5C 246.865,579.989 242.032,581.823 235.5,579C 232.611,573.879 231.777,568.379 233,562.5C 234.652,557.153 238.152,554.653 243.5,555C 246.24,557.979 246.073,560.812 243,563.5C 243.195,561.874 243.195,560.207 243,558.5C 239.298,555.527 236.965,556.527 236,561.5C 235.333,565.5 235.333,569.5 236,573.5C 239.829,579.956 243.829,579.956 248,573.5C 247.611,569.119 249.111,565.619 252.5,563C 253.784,562.316 254.951,562.483 256,563.5C 256.14,566.043 256.806,568.377 258,570.5C 259,567.167 260,563.833 261,560.5C 261.414,560.957 261.914,561.291 262.5,561.5C 263.833,560.5 265.167,559.5 266.5,558.5C 267.167,561.167 267.833,563.833 268.5,566.5C 271.626,565.082 272.293,562.916 270.5,560C 270.509,558.596 271.009,557.43 272,556.5C 272.438,559.376 273.438,562.043 275,564.5C 277.007,561.854 276.84,559.354 274.5,557C 274.667,556.5 274.833,556 275,555.5C 275.535,557.271 276.369,557.604 277.5,556.5C 276.91,555.201 275.91,554.368 274.5,554C 275.275,552.77 276.275,552.437 277.5,553C 278.46,554.419 279.293,555.919 280,557.5C 281.805,552.798 284.972,551.132 289.5,552.5 Z"/></g>
<g><path style="opacity:1" fill="#0f0f0f" d="M 284.5,553.5 C 285.725,554.152 286.392,555.319 286.5,557C 285.862,562.805 284.529,562.972 282.5,557.5C 282.752,555.927 283.418,554.594 284.5,553.5 Z"/></g>
<g><path style="opacity:1" fill="#030303" d="M 227.5,509.5 C 227.5,510.833 227.5,512.167 227.5,513.5C 230.469,512.671 233.469,512.505 236.5,513C 237.308,513.308 237.975,513.808 238.5,514.5C 241.021,520.82 238.855,524.153 232,524.5C 229.426,523.2 226.926,522.033 224.5,521C 223.483,522.049 223.316,523.216 224,524.5C 228.789,527.92 233.956,528.42 239.5,526C 241.464,524.549 242.797,522.716 243.5,520.5C 244.156,519.722 244.989,519.056 246,518.5C 247.44,519.148 248.94,519.481 250.5,519.5C 251.514,520.674 252.847,521.34 254.5,521.5C 266.642,528.072 278.976,534.405 291.5,540.5C 290.833,544.5 290.167,548.5 289.5,552.5C 284.972,551.132 281.805,552.798 280,557.5C 279.293,555.919 278.46,554.419 277.5,553C 276.275,552.437 275.275,552.77 274.5,554C 275.91,554.368 276.91,555.201 277.5,556.5C 276.369,557.604 275.535,557.271 275,555.5C 274.833,556 274.667,556.5 274.5,557C 276.84,559.354 277.007,561.854 275,564.5C 273.438,562.043 272.438,559.376 272,556.5C 271.009,557.43 270.509,558.596 270.5,560C 272.293,562.916 271.626,565.082 268.5,566.5C 267.833,563.833 267.167,561.167 266.5,558.5C 265.167,559.5 263.833,560.5 262.5,561.5C 261.914,561.291 261.414,560.957 261,560.5C 260,563.833 259,567.167 258,570.5C 256.806,568.377 256.14,566.043 256,563.5C 254.951,562.483 253.784,562.316 252.5,563C 249.111,565.619 247.611,569.119 248,573.5C 243.829,579.956 239.829,579.956 236,573.5C 235.333,569.5 235.333,565.5 236,561.5C 236.965,556.527 239.298,555.527 243,558.5C 243.195,560.207 243.195,561.874 243,563.5C 246.073,560.812 246.24,557.979 243.5,555C 238.152,554.653 234.652,557.153 233,562.5C 231.777,568.379 232.611,573.879 235.5,579C 242.032,581.823 246.865,579.989 250,573.5C 250.561,574.022 251.228,574.355 252,574.5C 254.756,573.314 257.422,571.981 260,570.5C 260.333,570.833 260.667,571.167 261,571.5C 262.086,568.085 263.419,564.751 265,561.5C 264.249,569.816 266.582,571.149 272,565.5C 273.049,566.517 274.216,566.684 275.5,566C 276.819,563.715 278.319,561.548 280,559.5C 282.002,563.876 284.835,564.542 288.5,561.5C 288.295,569.214 288.795,576.881 290,584.5C 297.269,600.038 304.269,615.705 311,631.5C 320.701,658.269 311.868,675.103 284.5,682C 271.012,684.67 260.178,680.504 252,669.5C 242.933,647.299 235.267,624.633 229,601.5C 224.549,592.933 220.383,584.267 216.5,575.5C 221.954,566.258 226.62,556.591 230.5,546.5C 219.941,542.554 209.941,537.554 200.5,531.5C 205.333,521.833 210.167,512.167 215,502.5C 219.31,504.734 223.476,507.068 227.5,509.5 Z"/></g>
<g><path style="opacity:1" fill="#0e0e0e" d="M 252.5,564.5 C 253.922,564.75 254.922,565.583 255.5,567C 255.012,569.176 254.012,571.009 252.5,572.5C 249.848,569.799 249.848,567.132 252.5,564.5 Z"/></g>
</svg>
