<?xml version="1.0" encoding="utf-8" standalone="no"?>
<!DOCTYPE svg PUBLIC "-//W3C//DTD SVG 1.1//EN"
  "http://www.w3.org/Graphics/SVG/1.1/DTD/svg11.dtd">
<svg xmlns:xlink="http://www.w3.org/1999/xlink" width="460.8pt" height="345.6pt" viewBox="0 0 460.8 345.6" xmlns="http://www.w3.org/2000/svg" version="1.1">
 <metadata>
  <rdf:RDF xmlns:dc="http://purl.org/dc/elements/1.1/" xmlns:cc="http://creativecommons.org/ns#" xmlns:rdf="http://www.w3.org/1999/02/22-rdf-syntax-ns#">
   <cc:Work>
    <dc:type rdf:resource="http://purl.org/dc/dcmitype/StillImage"/>
    <dc:date>2024-03-10T20:02:23.008621</dc:date>
    <dc:format>image/svg+xml</dc:format>
    <dc:creator>
     <cc:Agent>
      <dc:title>Matplotlib v3.5.2, https://matplotlib.org/</dc:title>
     </cc:Agent>
    </dc:creator>
   </cc:Work>
  </rdf:RDF>
 </metadata>
 <defs>
  <style type="text/css">*{stroke-linejoin: round; stroke-linecap: butt}</style>
 </defs>
 <g id="figure_1">
  <g id="patch_1">
   <path d="M 0 345.6 
L 460.8 345.6 
L 460.8 0 
L 0 0 
z
" style="fill: none"/>
  </g>
  <g id="axes_1">
   <g id="patch_2">
    <path d="M 57.6 307.584 
L 414.72 307.584 
L 414.72 41.472 
L 57.6 41.472 
z
" style="fill: none"/>
   </g>
   <g id="PathCollection_1">
    <defs>
     <path id="m0b2afae31f" d="M 0 1 
C 0.265203 1 0.51958 0.894634 0.707107 0.707107 
C 0.894634 0.51958 1 0.265203 1 0 
C 1 -0.265203 0.894634 -0.51958 0.707107 -0.707107 
C 0.51958 -0.894634 0.265203 -1 0 -1 
C -0.265203 -1 -0.51958 -0.894634 -0.707107 -0.707107 
C -0.894634 -0.51958 -1 -0.265203 -1 0 
C -1 0.265203 -0.894634 0.51958 -0.707107 0.707107 
C -0.51958 0.894634 -0.265203 1 0 1 
z
" style="stroke: #00bfff"/>
    </defs>
    <g clip-path="url(#pa04fb844ae)">
     <use xlink:href="#m0b2afae31f" x="73.832727" y="114.833455" style="fill: #00bfff; stroke: #00bfff"/>
     <use xlink:href="#m0b2afae31f" x="84.654545" y="59.851636" style="fill: #00bfff; stroke: #00bfff"/>
     <use xlink:href="#m0b2afae31f" x="95.476364" y="66.135273" style="fill: #00bfff; stroke: #00bfff"/>
     <use xlink:href="#m0b2afae31f" x="106.298182" y="105.408" style="fill: #00bfff; stroke: #00bfff"/>
     <use xlink:href="#m0b2afae31f" x="117.12" y="86.557091" style="fill: #00bfff; stroke: #00bfff"/>
     <use xlink:href="#m0b2afae31f" x="127.941818" y="89.698909" style="fill: #00bfff; stroke: #00bfff"/>
     <use xlink:href="#m0b2afae31f" x="138.763636" y="75.560727" style="fill: #00bfff; stroke: #00bfff"/>
     <use xlink:href="#m0b2afae31f" x="149.585455" y="64.564364" style="fill: #00bfff; stroke: #00bfff"/>
     <use xlink:href="#m0b2afae31f" x="160.407273" y="116.404364" style="fill: #00bfff; stroke: #00bfff"/>
     <use xlink:href="#m0b2afae31f" x="171.229091" y="122.688" style="fill: #00bfff; stroke: #00bfff"/>
     <use xlink:href="#m0b2afae31f" x="182.050909" y="61.422545" style="fill: #00bfff; stroke: #00bfff"/>
     <use xlink:href="#m0b2afae31f" x="192.872727" y="91.269818" style="fill: #00bfff; stroke: #00bfff"/>
     <use xlink:href="#m0b2afae31f" x="203.694545" y="66.135273" style="fill: #00bfff; stroke: #00bfff"/>
     <use xlink:href="#m0b2afae31f" x="214.516364" y="124.258909" style="fill: #00bfff; stroke: #00bfff"/>
     <use xlink:href="#m0b2afae31f" x="225.338182" y="91.269818" style="fill: #00bfff; stroke: #00bfff"/>
     <use xlink:href="#m0b2afae31f" x="236.16" y="69.277091" style="fill: #00bfff; stroke: #00bfff"/>
     <use xlink:href="#m0b2afae31f" x="246.981818" y="106.978909" style="fill: #00bfff; stroke: #00bfff"/>
     <use xlink:href="#m0b2afae31f" x="257.803636" y="53.568" style="fill: #00bfff; stroke: #00bfff"/>
     <use xlink:href="#m0b2afae31f" x="268.625455" y="56.709818" style="fill: #00bfff; stroke: #00bfff"/>
     <use xlink:href="#m0b2afae31f" x="279.447273" y="122.688" style="fill: #00bfff; stroke: #00bfff"/>
     <use xlink:href="#m0b2afae31f" x="290.269091" y="122.688" style="fill: #00bfff; stroke: #00bfff"/>
     <use xlink:href="#m0b2afae31f" x="301.090909" y="83.415273" style="fill: #00bfff; stroke: #00bfff"/>
     <use xlink:href="#m0b2afae31f" x="311.912727" y="53.568" style="fill: #00bfff; stroke: #00bfff"/>
     <use xlink:href="#m0b2afae31f" x="322.734545" y="95.982545" style="fill: #00bfff; stroke: #00bfff"/>
     <use xlink:href="#m0b2afae31f" x="333.556364" y="108.549818" style="fill: #00bfff; stroke: #00bfff"/>
     <use xlink:href="#m0b2afae31f" x="344.378182" y="92.840727" style="fill: #00bfff; stroke: #00bfff"/>
     <use xlink:href="#m0b2afae31f" x="355.2" y="122.688" style="fill: #00bfff; stroke: #00bfff"/>
     <use xlink:href="#m0b2afae31f" x="366.021818" y="106.978909" style="fill: #00bfff; stroke: #00bfff"/>
     <use xlink:href="#m0b2afae31f" x="376.843636" y="91.269818" style="fill: #00bfff; stroke: #00bfff"/>
     <use xlink:href="#m0b2afae31f" x="387.665455" y="86.557091" style="fill: #00bfff; stroke: #00bfff"/>
     <use xlink:href="#m0b2afae31f" x="398.487273" y="106.978909" style="fill: #00bfff; stroke: #00bfff"/>
    </g>
   </g>
   <g id="PathCollection_2">
    <defs>
     <path id="mc1f5ab0f9e" d="M 0 1 
C 0.265203 1 0.51958 0.894634 0.707107 0.707107 
C 0.894634 0.51958 1 0.265203 1 0 
C 1 -0.265203 0.894634 -0.51958 0.707107 -0.707107 
C 0.51958 -0.894634 0.265203 -1 0 -1 
C -0.265203 -1 -0.51958 -0.894634 -0.707107 -0.707107 
C -0.894634 -0.51958 -1 -0.265203 -1 0 
C -1 0.265203 -0.894634 0.51958 -0.707107 0.707107 
C -0.51958 0.894634 -0.265203 1 0 1 
z
" style="stroke: #00ff7f"/>
    </defs>
    <g clip-path="url(#pa04fb844ae)">
     <use xlink:href="#mc1f5ab0f9e" x="73.832727" y="279.778909" style="fill: #00ff7f; stroke: #00ff7f"/>
     <use xlink:href="#mc1f5ab0f9e" x="84.654545" y="279.778909" style="fill: #00ff7f; stroke: #00ff7f"/>
     <use xlink:href="#mc1f5ab0f9e" x="95.476364" y="262.498909" style="fill: #00ff7f; stroke: #00ff7f"/>
     <use xlink:href="#mc1f5ab0f9e" x="106.298182" y="275.066182" style="fill: #00ff7f; stroke: #00ff7f"/>
     <use xlink:href="#mc1f5ab0f9e" x="117.12" y="295.488" style="fill: #00ff7f; stroke: #00ff7f"/>
     <use xlink:href="#mc1f5ab0f9e" x="127.941818" y="234.222545" style="fill: #00ff7f; stroke: #00ff7f"/>
     <use xlink:href="#mc1f5ab0f9e" x="138.763636" y="254.644364" style="fill: #00ff7f; stroke: #00ff7f"/>
     <use xlink:href="#mc1f5ab0f9e" x="149.585455" y="248.360727" style="fill: #00ff7f; stroke: #00ff7f"/>
     <use xlink:href="#mc1f5ab0f9e" x="160.407273" y="282.920727" style="fill: #00ff7f; stroke: #00ff7f"/>
     <use xlink:href="#mc1f5ab0f9e" x="171.229091" y="221.655273" style="fill: #00ff7f; stroke: #00ff7f"/>
     <use xlink:href="#mc1f5ab0f9e" x="182.050909" y="232.651636" style="fill: #00ff7f; stroke: #00ff7f"/>
     <use xlink:href="#mc1f5ab0f9e" x="192.872727" y="287.633455" style="fill: #00ff7f; stroke: #00ff7f"/>
     <use xlink:href="#mc1f5ab0f9e" x="203.694545" y="271.924364" style="fill: #00ff7f; stroke: #00ff7f"/>
     <use xlink:href="#mc1f5ab0f9e" x="214.516364" y="242.077091" style="fill: #00ff7f; stroke: #00ff7f"/>
     <use xlink:href="#mc1f5ab0f9e" x="225.338182" y="243.648" style="fill: #00ff7f; stroke: #00ff7f"/>
     <use xlink:href="#mc1f5ab0f9e" x="236.16" y="226.368" style="fill: #00ff7f; stroke: #00ff7f"/>
     <use xlink:href="#mc1f5ab0f9e" x="246.981818" y="265.640727" style="fill: #00ff7f; stroke: #00ff7f"/>
     <use xlink:href="#mc1f5ab0f9e" x="257.803636" y="234.222545" style="fill: #00ff7f; stroke: #00ff7f"/>
     <use xlink:href="#mc1f5ab0f9e" x="268.625455" y="246.789818" style="fill: #00ff7f; stroke: #00ff7f"/>
     <use xlink:href="#mc1f5ab0f9e" x="279.447273" y="273.495273" style="fill: #00ff7f; stroke: #00ff7f"/>
     <use xlink:href="#mc1f5ab0f9e" x="290.269091" y="253.073455" style="fill: #00ff7f; stroke: #00ff7f"/>
     <use xlink:href="#mc1f5ab0f9e" x="301.090909" y="231.080727" style="fill: #00ff7f; stroke: #00ff7f"/>
     <use xlink:href="#mc1f5ab0f9e" x="311.912727" y="232.651636" style="fill: #00ff7f; stroke: #00ff7f"/>
     <use xlink:href="#mc1f5ab0f9e" x="322.734545" y="259.357091" style="fill: #00ff7f; stroke: #00ff7f"/>
     <use xlink:href="#mc1f5ab0f9e" x="333.556364" y="253.073455" style="fill: #00ff7f; stroke: #00ff7f"/>
     <use xlink:href="#mc1f5ab0f9e" x="344.378182" y="293.917091" style="fill: #00ff7f; stroke: #00ff7f"/>
     <use xlink:href="#mc1f5ab0f9e" x="355.2" y="278.208" style="fill: #00ff7f; stroke: #00ff7f"/>
     <use xlink:href="#mc1f5ab0f9e" x="366.021818" y="237.364364" style="fill: #00ff7f; stroke: #00ff7f"/>
     <use xlink:href="#mc1f5ab0f9e" x="376.843636" y="265.640727" style="fill: #00ff7f; stroke: #00ff7f"/>
     <use xlink:href="#mc1f5ab0f9e" x="387.665455" y="284.491636" style="fill: #00ff7f; stroke: #00ff7f"/>
     <use xlink:href="#mc1f5ab0f9e" x="398.487273" y="256.215273" style="fill: #00ff7f; stroke: #00ff7f"/>
    </g>
   </g>
   <g id="matplotlib.axis_1">
    <g id="xtick_1">
     <g id="line2d_1">
      <defs>
       <path id="maff81f6031" d="M 0 0 
L 0 3.5 
" style="stroke: #d3d3d3; stroke-width: 0.8"/>
      </defs>
      <g>
       <use xlink:href="#maff81f6031" x="63.010909" y="307.584" style="fill: #d3d3d3; stroke: #d3d3d3; stroke-width: 0.8"/>
      </g>
     </g>
     <g id="text_1">
      <!-- 0 -->
      <g style="fill: #d3d3d3" transform="translate(59.829659 322.182437)scale(0.1 -0.1)">
       <defs>
        <path id="DejaVuSans-30" d="M 2034 4250 
Q 1547 4250 1301 3770 
Q 1056 3291 1056 2328 
Q 1056 1369 1301 889 
Q 1547 409 2034 409 
Q 2525 409 2770 889 
Q 3016 1369 3016 2328 
Q 3016 3291 2770 3770 
Q 2525 4250 2034 4250 
z
M 2034 4750 
Q 2819 4750 3233 4129 
Q 3647 3509 3647 2328 
Q 3647 1150 3233 529 
Q 2819 -91 2034 -91 
Q 1250 -91 836 529 
Q 422 1150 422 2328 
Q 422 3509 836 4129 
Q 1250 4750 2034 4750 
z
" transform="scale(0.015625)"/>
       </defs>
       <use xlink:href="#DejaVuSans-30"/>
      </g>
     </g>
    </g>
    <g id="xtick_2">
     <g id="line2d_2">
      <g>
       <use xlink:href="#maff81f6031" x="117.12" y="307.584" style="fill: #d3d3d3; stroke: #d3d3d3; stroke-width: 0.8"/>
      </g>
     </g>
     <g id="text_2">
      <!-- 5 -->
      <g style="fill: #d3d3d3" transform="translate(113.93875 322.182437)scale(0.1 -0.1)">
       <defs>
        <path id="DejaVuSans-35" d="M 691 4666 
L 3169 4666 
L 3169 4134 
L 1269 4134 
L 1269 2991 
Q 1406 3038 1543 3061 
Q 1681 3084 1819 3084 
Q 2600 3084 3056 2656 
Q 3513 2228 3513 1497 
Q 3513 744 3044 326 
Q 2575 -91 1722 -91 
Q 1428 -91 1123 -41 
Q 819 9 494 109 
L 494 744 
Q 775 591 1075 516 
Q 1375 441 1709 441 
Q 2250 441 2565 725 
Q 2881 1009 2881 1497 
Q 2881 1984 2565 2268 
Q 2250 2553 1709 2553 
Q 1456 2553 1204 2497 
Q 953 2441 691 2322 
L 691 4666 
z
" transform="scale(0.015625)"/>
       </defs>
       <use xlink:href="#DejaVuSans-35"/>
      </g>
     </g>
    </g>
    <g id="xtick_3">
     <g id="line2d_3">
      <g>
       <use xlink:href="#maff81f6031" x="171.229091" y="307.584" style="fill: #d3d3d3; stroke: #d3d3d3; stroke-width: 0.8"/>
      </g>
     </g>
     <g id="text_3">
      <!-- 10 -->
      <g style="fill: #d3d3d3" transform="translate(164.866591 322.182437)scale(0.1 -0.1)">
       <defs>
        <path id="DejaVuSans-31" d="M 794 531 
L 1825 531 
L 1825 4091 
L 703 3866 
L 703 4441 
L 1819 4666 
L 2450 4666 
L 2450 531 
L 3481 531 
L 3481 0 
L 794 0 
L 794 531 
z
" transform="scale(0.015625)"/>
       </defs>
       <use xlink:href="#DejaVuSans-31"/>
       <use xlink:href="#DejaVuSans-30" x="63.623047"/>
      </g>
     </g>
    </g>
    <g id="xtick_4">
     <g id="line2d_4">
      <g>
       <use xlink:href="#maff81f6031" x="225.338182" y="307.584" style="fill: #d3d3d3; stroke: #d3d3d3; stroke-width: 0.8"/>
      </g>
     </g>
     <g id="text_4">
      <!-- 15 -->
      <g style="fill: #d3d3d3" transform="translate(218.975682 322.182437)scale(0.1 -0.1)">
       <use xlink:href="#DejaVuSans-31"/>
       <use xlink:href="#DejaVuSans-35" x="63.623047"/>
      </g>
     </g>
    </g>
    <g id="xtick_5">
     <g id="line2d_5">
      <g>
       <use xlink:href="#maff81f6031" x="279.447273" y="307.584" style="fill: #d3d3d3; stroke: #d3d3d3; stroke-width: 0.8"/>
      </g>
     </g>
     <g id="text_5">
      <!-- 20 -->
      <g style="fill: #d3d3d3" transform="translate(273.084773 322.182437)scale(0.1 -0.1)">
       <defs>
        <path id="DejaVuSans-32" d="M 1228 531 
L 3431 531 
L 3431 0 
L 469 0 
L 469 531 
Q 828 903 1448 1529 
Q 2069 2156 2228 2338 
Q 2531 2678 2651 2914 
Q 2772 3150 2772 3378 
Q 2772 3750 2511 3984 
Q 2250 4219 1831 4219 
Q 1534 4219 1204 4116 
Q 875 4013 500 3803 
L 500 4441 
Q 881 4594 1212 4672 
Q 1544 4750 1819 4750 
Q 2544 4750 2975 4387 
Q 3406 4025 3406 3419 
Q 3406 3131 3298 2873 
Q 3191 2616 2906 2266 
Q 2828 2175 2409 1742 
Q 1991 1309 1228 531 
z
" transform="scale(0.015625)"/>
       </defs>
       <use xlink:href="#DejaVuSans-32"/>
       <use xlink:href="#DejaVuSans-30" x="63.623047"/>
      </g>
     </g>
    </g>
    <g id="xtick_6">
     <g id="line2d_6">
      <g>
       <use xlink:href="#maff81f6031" x="333.556364" y="307.584" style="fill: #d3d3d3; stroke: #d3d3d3; stroke-width: 0.8"/>
      </g>
     </g>
     <g id="text_6">
      <!-- 25 -->
      <g style="fill: #d3d3d3" transform="translate(327.193864 322.182437)scale(0.1 -0.1)">
       <use xlink:href="#DejaVuSans-32"/>
       <use xlink:href="#DejaVuSans-35" x="63.623047"/>
      </g>
     </g>
    </g>
    <g id="xtick_7">
     <g id="line2d_7">
      <g>
       <use xlink:href="#maff81f6031" x="387.665455" y="307.584" style="fill: #d3d3d3; stroke: #d3d3d3; stroke-width: 0.8"/>
      </g>
     </g>
     <g id="text_7">
      <!-- 30 -->
      <g style="fill: #d3d3d3" transform="translate(381.302955 322.182437)scale(0.1 -0.1)">
       <defs>
        <path id="DejaVuSans-33" d="M 2597 2516 
Q 3050 2419 3304 2112 
Q 3559 1806 3559 1356 
Q 3559 666 3084 287 
Q 2609 -91 1734 -91 
Q 1441 -91 1130 -33 
Q 819 25 488 141 
L 488 750 
Q 750 597 1062 519 
Q 1375 441 1716 441 
Q 2309 441 2620 675 
Q 2931 909 2931 1356 
Q 2931 1769 2642 2001 
Q 2353 2234 1838 2234 
L 1294 2234 
L 1294 2753 
L 1863 2753 
Q 2328 2753 2575 2939 
Q 2822 3125 2822 3475 
Q 2822 3834 2567 4026 
Q 2313 4219 1838 4219 
Q 1578 4219 1281 4162 
Q 984 4106 628 3988 
L 628 4550 
Q 988 4650 1302 4700 
Q 1616 4750 1894 4750 
Q 2613 4750 3031 4423 
Q 3450 4097 3450 3541 
Q 3450 3153 3228 2886 
Q 3006 2619 2597 2516 
z
" transform="scale(0.015625)"/>
       </defs>
       <use xlink:href="#DejaVuSans-33"/>
       <use xlink:href="#DejaVuSans-30" x="63.623047"/>
      </g>
     </g>
    </g>
    <g id="text_8">
     <!-- Dag -->
     <g style="fill: #d3d3d3" transform="translate(226.071719 335.860562)scale(0.1 -0.1)">
      <defs>
       <path id="DejaVuSans-44" d="M 1259 4147 
L 1259 519 
L 2022 519 
Q 2988 519 3436 956 
Q 3884 1394 3884 2338 
Q 3884 3275 3436 3711 
Q 2988 4147 2022 4147 
L 1259 4147 
z
M 628 4666 
L 1925 4666 
Q 3281 4666 3915 4102 
Q 4550 3538 4550 2338 
Q 4550 1131 3912 565 
Q 3275 0 1925 0 
L 628 0 
L 628 4666 
z
" transform="scale(0.015625)"/>
       <path id="DejaVuSans-61" d="M 2194 1759 
Q 1497 1759 1228 1600 
Q 959 1441 959 1056 
Q 959 750 1161 570 
Q 1363 391 1709 391 
Q 2188 391 2477 730 
Q 2766 1069 2766 1631 
L 2766 1759 
L 2194 1759 
z
M 3341 1997 
L 3341 0 
L 2766 0 
L 2766 531 
Q 2569 213 2275 61 
Q 1981 -91 1556 -91 
Q 1019 -91 701 211 
Q 384 513 384 1019 
Q 384 1609 779 1909 
Q 1175 2209 1959 2209 
L 2766 2209 
L 2766 2266 
Q 2766 2663 2505 2880 
Q 2244 3097 1772 3097 
Q 1472 3097 1187 3025 
Q 903 2953 641 2809 
L 641 3341 
Q 956 3463 1253 3523 
Q 1550 3584 1831 3584 
Q 2591 3584 2966 3190 
Q 3341 2797 3341 1997 
z
" transform="scale(0.015625)"/>
       <path id="DejaVuSans-67" d="M 2906 1791 
Q 2906 2416 2648 2759 
Q 2391 3103 1925 3103 
Q 1463 3103 1205 2759 
Q 947 2416 947 1791 
Q 947 1169 1205 825 
Q 1463 481 1925 481 
Q 2391 481 2648 825 
Q 2906 1169 2906 1791 
z
M 3481 434 
Q 3481 -459 3084 -895 
Q 2688 -1331 1869 -1331 
Q 1566 -1331 1297 -1286 
Q 1028 -1241 775 -1147 
L 775 -588 
Q 1028 -725 1275 -790 
Q 1522 -856 1778 -856 
Q 2344 -856 2625 -561 
Q 2906 -266 2906 331 
L 2906 616 
Q 2728 306 2450 153 
Q 2172 0 1784 0 
Q 1141 0 747 490 
Q 353 981 353 1791 
Q 353 2603 747 3093 
Q 1141 3584 1784 3584 
Q 2172 3584 2450 3431 
Q 2728 3278 2906 2969 
L 2906 3500 
L 3481 3500 
L 3481 434 
z
" transform="scale(0.015625)"/>
      </defs>
      <use xlink:href="#DejaVuSans-44"/>
      <use xlink:href="#DejaVuSans-61" x="77.001953"/>
      <use xlink:href="#DejaVuSans-67" x="138.28125"/>
     </g>
    </g>
   </g>
   <g id="matplotlib.axis_2">
    <g id="ytick_1">
     <g id="line2d_8">
      <path d="M 57.6 298.629818 
L 414.72 298.629818 
" clip-path="url(#pa04fb844ae)" style="fill: none; stroke: #b0b0b0; stroke-width: 0.8; stroke-linecap: square"/>
     </g>
     <g id="line2d_9">
      <defs>
       <path id="ma8fd236318" d="M 0 0 
L -3.5 0 
" style="stroke: #d3d3d3; stroke-width: 0.8"/>
      </defs>
      <g>
       <use xlink:href="#ma8fd236318" x="57.6" y="298.629818" style="fill: #d3d3d3; stroke: #d3d3d3; stroke-width: 0.8"/>
      </g>
     </g>
     <g id="text_9">
      <!-- 18 -->
      <g style="fill: #d3d3d3" transform="translate(37.875 302.429037)scale(0.1 -0.1)">
       <defs>
        <path id="DejaVuSans-38" d="M 2034 2216 
Q 1584 2216 1326 1975 
Q 1069 1734 1069 1313 
Q 1069 891 1326 650 
Q 1584 409 2034 409 
Q 2484 409 2743 651 
Q 3003 894 3003 1313 
Q 3003 1734 2745 1975 
Q 2488 2216 2034 2216 
z
M 1403 2484 
Q 997 2584 770 2862 
Q 544 3141 544 3541 
Q 544 4100 942 4425 
Q 1341 4750 2034 4750 
Q 2731 4750 3128 4425 
Q 3525 4100 3525 3541 
Q 3525 3141 3298 2862 
Q 3072 2584 2669 2484 
Q 3125 2378 3379 2068 
Q 3634 1759 3634 1313 
Q 3634 634 3220 271 
Q 2806 -91 2034 -91 
Q 1263 -91 848 271 
Q 434 634 434 1313 
Q 434 1759 690 2068 
Q 947 2378 1403 2484 
z
M 1172 3481 
Q 1172 3119 1398 2916 
Q 1625 2713 2034 2713 
Q 2441 2713 2670 2916 
Q 2900 3119 2900 3481 
Q 2900 3844 2670 4047 
Q 2441 4250 2034 4250 
Q 1625 4250 1398 4047 
Q 1172 3844 1172 3481 
z
" transform="scale(0.015625)"/>
       </defs>
       <use xlink:href="#DejaVuSans-31"/>
       <use xlink:href="#DejaVuSans-38" x="63.623047"/>
      </g>
     </g>
    </g>
    <g id="ytick_2">
     <g id="line2d_10">
      <path d="M 57.6 267.211636 
L 414.72 267.211636 
" clip-path="url(#pa04fb844ae)" style="fill: none; stroke: #b0b0b0; stroke-width: 0.8; stroke-linecap: square"/>
     </g>
     <g id="line2d_11">
      <g>
       <use xlink:href="#ma8fd236318" x="57.6" y="267.211636" style="fill: #d3d3d3; stroke: #d3d3d3; stroke-width: 0.8"/>
      </g>
     </g>
     <g id="text_10">
      <!-- 20 -->
      <g style="fill: #d3d3d3" transform="translate(37.875 271.010855)scale(0.1 -0.1)">
       <use xlink:href="#DejaVuSans-32"/>
       <use xlink:href="#DejaVuSans-30" x="63.623047"/>
      </g>
     </g>
    </g>
    <g id="ytick_3">
     <g id="line2d_12">
      <path d="M 57.6 235.793455 
L 414.72 235.793455 
" clip-path="url(#pa04fb844ae)" style="fill: none; stroke: #b0b0b0; stroke-width: 0.8; stroke-linecap: square"/>
     </g>
     <g id="line2d_13">
      <g>
       <use xlink:href="#ma8fd236318" x="57.6" y="235.793455" style="fill: #d3d3d3; stroke: #d3d3d3; stroke-width: 0.8"/>
      </g>
     </g>
     <g id="text_11">
      <!-- 22 -->
      <g style="fill: #d3d3d3" transform="translate(37.875 239.592673)scale(0.1 -0.1)">
       <use xlink:href="#DejaVuSans-32"/>
       <use xlink:href="#DejaVuSans-32" x="63.623047"/>
      </g>
     </g>
    </g>
    <g id="ytick_4">
     <g id="line2d_14">
      <path d="M 57.6 204.375273 
L 414.72 204.375273 
" clip-path="url(#pa04fb844ae)" style="fill: none; stroke: #b0b0b0; stroke-width: 0.8; stroke-linecap: square"/>
     </g>
     <g id="line2d_15">
      <g>
       <use xlink:href="#ma8fd236318" x="57.6" y="204.375273" style="fill: #d3d3d3; stroke: #d3d3d3; stroke-width: 0.8"/>
      </g>
     </g>
     <g id="text_12">
      <!-- 24 -->
      <g style="fill: #d3d3d3" transform="translate(37.875 208.174491)scale(0.1 -0.1)">
       <defs>
        <path id="DejaVuSans-34" d="M 2419 4116 
L 825 1625 
L 2419 1625 
L 2419 4116 
z
M 2253 4666 
L 3047 4666 
L 3047 1625 
L 3713 1625 
L 3713 1100 
L 3047 1100 
L 3047 0 
L 2419 0 
L 2419 1100 
L 313 1100 
L 313 1709 
L 2253 4666 
z
" transform="scale(0.015625)"/>
       </defs>
       <use xlink:href="#DejaVuSans-32"/>
       <use xlink:href="#DejaVuSans-34" x="63.623047"/>
      </g>
     </g>
    </g>
    <g id="ytick_5">
     <g id="line2d_16">
      <path d="M 57.6 172.957091 
L 414.72 172.957091 
" clip-path="url(#pa04fb844ae)" style="fill: none; stroke: #b0b0b0; stroke-width: 0.8; stroke-linecap: square"/>
     </g>
     <g id="line2d_17">
      <g>
       <use xlink:href="#ma8fd236318" x="57.6" y="172.957091" style="fill: #d3d3d3; stroke: #d3d3d3; stroke-width: 0.8"/>
      </g>
     </g>
     <g id="text_13">
      <!-- 26 -->
      <g style="fill: #d3d3d3" transform="translate(37.875 176.75631)scale(0.1 -0.1)">
       <defs>
        <path id="DejaVuSans-36" d="M 2113 2584 
Q 1688 2584 1439 2293 
Q 1191 2003 1191 1497 
Q 1191 994 1439 701 
Q 1688 409 2113 409 
Q 2538 409 2786 701 
Q 3034 994 3034 1497 
Q 3034 2003 2786 2293 
Q 2538 2584 2113 2584 
z
M 3366 4563 
L 3366 3988 
Q 3128 4100 2886 4159 
Q 2644 4219 2406 4219 
Q 1781 4219 1451 3797 
Q 1122 3375 1075 2522 
Q 1259 2794 1537 2939 
Q 1816 3084 2150 3084 
Q 2853 3084 3261 2657 
Q 3669 2231 3669 1497 
Q 3669 778 3244 343 
Q 2819 -91 2113 -91 
Q 1303 -91 875 529 
Q 447 1150 447 2328 
Q 447 3434 972 4092 
Q 1497 4750 2381 4750 
Q 2619 4750 2861 4703 
Q 3103 4656 3366 4563 
z
" transform="scale(0.015625)"/>
       </defs>
       <use xlink:href="#DejaVuSans-32"/>
       <use xlink:href="#DejaVuSans-36" x="63.623047"/>
      </g>
     </g>
    </g>
    <g id="ytick_6">
     <g id="line2d_18">
      <path d="M 57.6 141.538909 
L 414.72 141.538909 
" clip-path="url(#pa04fb844ae)" style="fill: none; stroke: #b0b0b0; stroke-width: 0.8; stroke-linecap: square"/>
     </g>
     <g id="line2d_19">
      <g>
       <use xlink:href="#ma8fd236318" x="57.6" y="141.538909" style="fill: #d3d3d3; stroke: #d3d3d3; stroke-width: 0.8"/>
      </g>
     </g>
     <g id="text_14">
      <!-- 28 -->
      <g style="fill: #d3d3d3" transform="translate(37.875 145.338128)scale(0.1 -0.1)">
       <use xlink:href="#DejaVuSans-32"/>
       <use xlink:href="#DejaVuSans-38" x="63.623047"/>
      </g>
     </g>
    </g>
    <g id="ytick_7">
     <g id="line2d_20">
      <path d="M 57.6 110.120727 
L 414.72 110.120727 
" clip-path="url(#pa04fb844ae)" style="fill: none; stroke: #b0b0b0; stroke-width: 0.8; stroke-linecap: square"/>
     </g>
     <g id="line2d_21">
      <g>
       <use xlink:href="#ma8fd236318" x="57.6" y="110.120727" style="fill: #d3d3d3; stroke: #d3d3d3; stroke-width: 0.8"/>
      </g>
     </g>
     <g id="text_15">
      <!-- 30 -->
      <g style="fill: #d3d3d3" transform="translate(37.875 113.919946)scale(0.1 -0.1)">
       <use xlink:href="#DejaVuSans-33"/>
       <use xlink:href="#DejaVuSans-30" x="63.623047"/>
      </g>
     </g>
    </g>
    <g id="ytick_8">
     <g id="line2d_22">
      <path d="M 57.6 78.702545 
L 414.72 78.702545 
" clip-path="url(#pa04fb844ae)" style="fill: none; stroke: #b0b0b0; stroke-width: 0.8; stroke-linecap: square"/>
     </g>
     <g id="line2d_23">
      <g>
       <use xlink:href="#ma8fd236318" x="57.6" y="78.702545" style="fill: #d3d3d3; stroke: #d3d3d3; stroke-width: 0.8"/>
      </g>
     </g>
     <g id="text_16">
      <!-- 32 -->
      <g style="fill: #d3d3d3" transform="translate(37.875 82.501764)scale(0.1 -0.1)">
       <use xlink:href="#DejaVuSans-33"/>
       <use xlink:href="#DejaVuSans-32" x="63.623047"/>
      </g>
     </g>
    </g>
    <g id="ytick_9">
     <g id="line2d_24">
      <path d="M 57.6 47.284364 
L 414.72 47.284364 
" clip-path="url(#pa04fb844ae)" style="fill: none; stroke: #b0b0b0; stroke-width: 0.8; stroke-linecap: square"/>
     </g>
     <g id="line2d_25">
      <g>
       <use xlink:href="#ma8fd236318" x="57.6" y="47.284364" style="fill: #d3d3d3; stroke: #d3d3d3; stroke-width: 0.8"/>
      </g>
     </g>
     <g id="text_17">
      <!-- 34 -->
      <g style="fill: #d3d3d3" transform="translate(37.875 51.083582)scale(0.1 -0.1)">
       <use xlink:href="#DejaVuSans-33"/>
       <use xlink:href="#DejaVuSans-34" x="63.623047"/>
      </g>
     </g>
    </g>
    <g id="text_18">
     <!-- Temperatuur ($^{\circ}C)$ -->
     <g style="fill: #d3d3d3" transform="translate(31.775 218.628)rotate(-90)scale(0.1 -0.1)">
      <defs>
       <path id="DejaVuSans-54" d="M -19 4666 
L 3928 4666 
L 3928 4134 
L 2272 4134 
L 2272 0 
L 1638 0 
L 1638 4134 
L -19 4134 
L -19 4666 
z
" transform="scale(0.015625)"/>
       <path id="DejaVuSans-65" d="M 3597 1894 
L 3597 1613 
L 953 1613 
Q 991 1019 1311 708 
Q 1631 397 2203 397 
Q 2534 397 2845 478 
Q 3156 559 3463 722 
L 3463 178 
Q 3153 47 2828 -22 
Q 2503 -91 2169 -91 
Q 1331 -91 842 396 
Q 353 884 353 1716 
Q 353 2575 817 3079 
Q 1281 3584 2069 3584 
Q 2775 3584 3186 3129 
Q 3597 2675 3597 1894 
z
M 3022 2063 
Q 3016 2534 2758 2815 
Q 2500 3097 2075 3097 
Q 1594 3097 1305 2825 
Q 1016 2553 972 2059 
L 3022 2063 
z
" transform="scale(0.015625)"/>
       <path id="DejaVuSans-6d" d="M 3328 2828 
Q 3544 3216 3844 3400 
Q 4144 3584 4550 3584 
Q 5097 3584 5394 3201 
Q 5691 2819 5691 2113 
L 5691 0 
L 5113 0 
L 5113 2094 
Q 5113 2597 4934 2840 
Q 4756 3084 4391 3084 
Q 3944 3084 3684 2787 
Q 3425 2491 3425 1978 
L 3425 0 
L 2847 0 
L 2847 2094 
Q 2847 2600 2669 2842 
Q 2491 3084 2119 3084 
Q 1678 3084 1418 2786 
Q 1159 2488 1159 1978 
L 1159 0 
L 581 0 
L 581 3500 
L 1159 3500 
L 1159 2956 
Q 1356 3278 1631 3431 
Q 1906 3584 2284 3584 
Q 2666 3584 2933 3390 
Q 3200 3197 3328 2828 
z
" transform="scale(0.015625)"/>
       <path id="DejaVuSans-70" d="M 1159 525 
L 1159 -1331 
L 581 -1331 
L 581 3500 
L 1159 3500 
L 1159 2969 
Q 1341 3281 1617 3432 
Q 1894 3584 2278 3584 
Q 2916 3584 3314 3078 
Q 3713 2572 3713 1747 
Q 3713 922 3314 415 
Q 2916 -91 2278 -91 
Q 1894 -91 1617 61 
Q 1341 213 1159 525 
z
M 3116 1747 
Q 3116 2381 2855 2742 
Q 2594 3103 2138 3103 
Q 1681 3103 1420 2742 
Q 1159 2381 1159 1747 
Q 1159 1113 1420 752 
Q 1681 391 2138 391 
Q 2594 391 2855 752 
Q 3116 1113 3116 1747 
z
" transform="scale(0.015625)"/>
       <path id="DejaVuSans-72" d="M 2631 2963 
Q 2534 3019 2420 3045 
Q 2306 3072 2169 3072 
Q 1681 3072 1420 2755 
Q 1159 2438 1159 1844 
L 1159 0 
L 581 0 
L 581 3500 
L 1159 3500 
L 1159 2956 
Q 1341 3275 1631 3429 
Q 1922 3584 2338 3584 
Q 2397 3584 2469 3576 
Q 2541 3569 2628 3553 
L 2631 2963 
z
" transform="scale(0.015625)"/>
       <path id="DejaVuSans-74" d="M 1172 4494 
L 1172 3500 
L 2356 3500 
L 2356 3053 
L 1172 3053 
L 1172 1153 
Q 1172 725 1289 603 
Q 1406 481 1766 481 
L 2356 481 
L 2356 0 
L 1766 0 
Q 1100 0 847 248 
Q 594 497 594 1153 
L 594 3053 
L 172 3053 
L 172 3500 
L 594 3500 
L 594 4494 
L 1172 4494 
z
" transform="scale(0.015625)"/>
       <path id="DejaVuSans-75" d="M 544 1381 
L 544 3500 
L 1119 3500 
L 1119 1403 
Q 1119 906 1312 657 
Q 1506 409 1894 409 
Q 2359 409 2629 706 
Q 2900 1003 2900 1516 
L 2900 3500 
L 3475 3500 
L 3475 0 
L 2900 0 
L 2900 538 
Q 2691 219 2414 64 
Q 2138 -91 1772 -91 
Q 1169 -91 856 284 
Q 544 659 544 1381 
z
M 1991 3584 
L 1991 3584 
z
" transform="scale(0.015625)"/>
       <path id="DejaVuSans-20" transform="scale(0.015625)"/>
       <path id="DejaVuSans-28" d="M 1984 4856 
Q 1566 4138 1362 3434 
Q 1159 2731 1159 2009 
Q 1159 1288 1364 580 
Q 1569 -128 1984 -844 
L 1484 -844 
Q 1016 -109 783 600 
Q 550 1309 550 2009 
Q 550 2706 781 3412 
Q 1013 4119 1484 4856 
L 1984 4856 
z
" transform="scale(0.015625)"/>
       <path id="DejaVuSans-2218" d="M 2003 2603 
Q 1753 2603 1581 2429 
Q 1409 2256 1409 2006 
Q 1409 1759 1581 1589 
Q 1753 1419 2003 1419 
Q 2253 1419 2425 1589 
Q 2597 1759 2597 2006 
Q 2597 2253 2423 2428 
Q 2250 2603 2003 2603 
z
M 2003 3006 
Q 2203 3006 2387 2929 
Q 2572 2853 2706 2709 
Q 2850 2569 2922 2390 
Q 2994 2212 2994 2006 
Q 2994 1594 2705 1308 
Q 2416 1022 1997 1022 
Q 1575 1022 1294 1303 
Q 1013 1584 1013 2006 
Q 1013 2425 1300 2715 
Q 1588 3006 2003 3006 
z
" transform="scale(0.015625)"/>
       <path id="DejaVuSans-Oblique-43" d="M 4447 4306 
L 4319 3641 
Q 4019 3944 3683 4091 
Q 3347 4238 2956 4238 
Q 2422 4238 2017 3981 
Q 1613 3725 1319 3200 
Q 1131 2863 1032 2486 
Q 934 2109 934 1728 
Q 934 1091 1264 756 
Q 1594 422 2222 422 
Q 2656 422 3056 561 
Q 3456 700 3834 978 
L 3688 231 
Q 3316 72 2936 -9 
Q 2556 -91 2175 -91 
Q 1278 -91 773 396 
Q 269 884 269 1753 
Q 269 2309 461 2846 
Q 653 3384 1013 3828 
Q 1394 4300 1883 4525 
Q 2372 4750 3022 4750 
Q 3422 4750 3780 4639 
Q 4138 4528 4447 4306 
z
" transform="scale(0.015625)"/>
       <path id="DejaVuSans-29" d="M 513 4856 
L 1013 4856 
Q 1481 4119 1714 3412 
Q 1947 2706 1947 2009 
Q 1947 1309 1714 600 
Q 1481 -109 1013 -844 
L 513 -844 
Q 928 -128 1133 580 
Q 1338 1288 1338 2009 
Q 1338 2731 1133 3434 
Q 928 4138 513 4856 
z
" transform="scale(0.015625)"/>
      </defs>
      <use xlink:href="#DejaVuSans-54" transform="translate(0 0.125)"/>
      <use xlink:href="#DejaVuSans-65" transform="translate(61.083984 0.125)"/>
      <use xlink:href="#DejaVuSans-6d" transform="translate(122.607422 0.125)"/>
      <use xlink:href="#DejaVuSans-70" transform="translate(220.019531 0.125)"/>
      <use xlink:href="#DejaVuSans-65" transform="translate(283.496094 0.125)"/>
      <use xlink:href="#DejaVuSans-72" transform="translate(345.019531 0.125)"/>
      <use xlink:href="#DejaVuSans-61" transform="translate(386.132812 0.125)"/>
      <use xlink:href="#DejaVuSans-74" transform="translate(447.412109 0.125)"/>
      <use xlink:href="#DejaVuSans-75" transform="translate(486.621094 0.125)"/>
      <use xlink:href="#DejaVuSans-75" transform="translate(550 0.125)"/>
      <use xlink:href="#DejaVuSans-72" transform="translate(613.378906 0.125)"/>
      <use xlink:href="#DejaVuSans-20" transform="translate(654.492188 0.125)"/>
      <use xlink:href="#DejaVuSans-28" transform="translate(686.279297 0.125)"/>
      <use xlink:href="#DejaVuSans-2218" transform="translate(726.25 38.40625)scale(0.7)"/>
      <use xlink:href="#DejaVuSans-Oblique-43" transform="translate(772.802734 0.125)"/>
      <use xlink:href="#DejaVuSans-29" transform="translate(842.626953 0.125)"/>
     </g>
    </g>
   </g>
   <g id="line2d_26">
    <path d="M 73.832727 114.833455 
L 84.654545 59.851636 
L 95.476364 66.135273 
L 106.298182 105.408 
L 117.12 86.557091 
L 127.941818 89.698909 
L 138.763636 75.560727 
L 149.585455 64.564364 
L 160.407273 116.404364 
L 171.229091 122.688 
L 182.050909 61.422545 
L 192.872727 91.269818 
L 203.694545 66.135273 
L 214.516364 124.258909 
L 225.338182 91.269818 
L 236.16 69.277091 
L 246.981818 106.978909 
L 257.803636 53.568 
L 268.625455 56.709818 
L 279.447273 122.688 
L 290.269091 122.688 
L 301.090909 83.415273 
L 311.912727 53.568 
L 322.734545 95.982545 
L 333.556364 108.549818 
L 344.378182 92.840727 
L 355.2 122.688 
L 366.021818 106.978909 
L 376.843636 91.269818 
L 387.665455 86.557091 
L 398.487273 106.978909 
" clip-path="url(#pa04fb844ae)" style="fill: none; stroke: #00bfff; stroke-width: 1.5; stroke-linecap: square"/>
   </g>
   <g id="line2d_27">
    <path d="M 73.832727 279.778909 
L 84.654545 279.778909 
L 95.476364 262.498909 
L 106.298182 275.066182 
L 117.12 295.488 
L 127.941818 234.222545 
L 138.763636 254.644364 
L 149.585455 248.360727 
L 160.407273 282.920727 
L 171.229091 221.655273 
L 182.050909 232.651636 
L 192.872727 287.633455 
L 203.694545 271.924364 
L 214.516364 242.077091 
L 225.338182 243.648 
L 236.16 226.368 
L 246.981818 265.640727 
L 257.803636 234.222545 
L 268.625455 246.789818 
L 279.447273 273.495273 
L 290.269091 253.073455 
L 301.090909 231.080727 
L 311.912727 232.651636 
L 322.734545 259.357091 
L 333.556364 253.073455 
L 344.378182 293.917091 
L 355.2 278.208 
L 366.021818 237.364364 
L 376.843636 265.640727 
L 387.665455 284.491636 
L 398.487273 256.215273 
" clip-path="url(#pa04fb844ae)" style="fill: none; stroke: #00ff7f; stroke-width: 1.5; stroke-linecap: square"/>
   </g>
   <g id="patch_3">
    <path d="M 57.6 307.584 
L 57.6 41.472 
" style="fill: none; stroke: #d3d3d3; stroke-width: 0.8; stroke-linejoin: miter; stroke-linecap: square"/>
   </g>
   <g id="patch_4">
    <path d="M 414.72 307.584 
L 414.72 41.472 
" style="fill: none; stroke: #d3d3d3; stroke-width: 0.8; stroke-linejoin: miter; stroke-linecap: square"/>
   </g>
   <g id="patch_5">
    <path d="M 57.6 307.584 
L 414.72 307.584 
" style="fill: none; stroke: #d3d3d3; stroke-width: 0.8; stroke-linejoin: miter; stroke-linecap: square"/>
   </g>
   <g id="patch_6">
    <path d="M 57.6 41.472 
L 414.72 41.472 
" style="fill: none; stroke: #d3d3d3; stroke-width: 0.8; stroke-linejoin: miter; stroke-linecap: square"/>
   </g>
   <g id="text_19">
    <!-- Temperatuur in de maand Juli -->
    <g style="fill: #d3d3d3" transform="translate(147.597188 35.472)scale(0.12 -0.12)">
     <defs>
      <path id="DejaVuSans-69" d="M 603 3500 
L 1178 3500 
L 1178 0 
L 603 0 
L 603 3500 
z
M 603 4863 
L 1178 4863 
L 1178 4134 
L 603 4134 
L 603 4863 
z
" transform="scale(0.015625)"/>
      <path id="DejaVuSans-6e" d="M 3513 2113 
L 3513 0 
L 2938 0 
L 2938 2094 
Q 2938 2591 2744 2837 
Q 2550 3084 2163 3084 
Q 1697 3084 1428 2787 
Q 1159 2491 1159 1978 
L 1159 0 
L 581 0 
L 581 3500 
L 1159 3500 
L 1159 2956 
Q 1366 3272 1645 3428 
Q 1925 3584 2291 3584 
Q 2894 3584 3203 3211 
Q 3513 2838 3513 2113 
z
" transform="scale(0.015625)"/>
      <path id="DejaVuSans-64" d="M 2906 2969 
L 2906 4863 
L 3481 4863 
L 3481 0 
L 2906 0 
L 2906 525 
Q 2725 213 2448 61 
Q 2172 -91 1784 -91 
Q 1150 -91 751 415 
Q 353 922 353 1747 
Q 353 2572 751 3078 
Q 1150 3584 1784 3584 
Q 2172 3584 2448 3432 
Q 2725 3281 2906 2969 
z
M 947 1747 
Q 947 1113 1208 752 
Q 1469 391 1925 391 
Q 2381 391 2643 752 
Q 2906 1113 2906 1747 
Q 2906 2381 2643 2742 
Q 2381 3103 1925 3103 
Q 1469 3103 1208 2742 
Q 947 2381 947 1747 
z
" transform="scale(0.015625)"/>
      <path id="DejaVuSans-4a" d="M 628 4666 
L 1259 4666 
L 1259 325 
Q 1259 -519 939 -900 
Q 619 -1281 -91 -1281 
L -331 -1281 
L -331 -750 
L -134 -750 
Q 284 -750 456 -515 
Q 628 -281 628 325 
L 628 4666 
z
" transform="scale(0.015625)"/>
      <path id="DejaVuSans-6c" d="M 603 4863 
L 1178 4863 
L 1178 0 
L 603 0 
L 603 4863 
z
" transform="scale(0.015625)"/>
     </defs>
     <use xlink:href="#DejaVuSans-54"/>
     <use xlink:href="#DejaVuSans-65" x="44.083984"/>
     <use xlink:href="#DejaVuSans-6d" x="105.607422"/>
     <use xlink:href="#DejaVuSans-70" x="203.019531"/>
     <use xlink:href="#DejaVuSans-65" x="266.496094"/>
     <use xlink:href="#DejaVuSans-72" x="328.019531"/>
     <use xlink:href="#DejaVuSans-61" x="369.132812"/>
     <use xlink:href="#DejaVuSans-74" x="430.412109"/>
     <use xlink:href="#DejaVuSans-75" x="469.621094"/>
     <use xlink:href="#DejaVuSans-75" x="533"/>
     <use xlink:href="#DejaVuSans-72" x="596.378906"/>
     <use xlink:href="#DejaVuSans-20" x="637.492188"/>
     <use xlink:href="#DejaVuSans-69" x="669.279297"/>
     <use xlink:href="#DejaVuSans-6e" x="697.0625"/>
     <use xlink:href="#DejaVuSans-20" x="760.441406"/>
     <use xlink:href="#DejaVuSans-64" x="792.228516"/>
     <use xlink:href="#DejaVuSans-65" x="855.705078"/>
     <use xlink:href="#DejaVuSans-20" x="917.228516"/>
     <use xlink:href="#DejaVuSans-6d" x="949.015625"/>
     <use xlink:href="#DejaVuSans-61" x="1046.427734"/>
     <use xlink:href="#DejaVuSans-61" x="1107.707031"/>
     <use xlink:href="#DejaVuSans-6e" x="1168.986328"/>
     <use xlink:href="#DejaVuSans-64" x="1232.365234"/>
     <use xlink:href="#DejaVuSans-20" x="1295.841797"/>
     <use xlink:href="#DejaVuSans-4a" x="1327.628906"/>
     <use xlink:href="#DejaVuSans-75" x="1357.121094"/>
     <use xlink:href="#DejaVuSans-6c" x="1420.5"/>
     <use xlink:href="#DejaVuSans-69" x="1448.283203"/>
    </g>
   </g>
   <g id="legend_1">
    <g id="patch_7">
     <path d="M 325.704375 78.82825 
L 407.72 78.82825 
Q 409.72 78.82825 409.72 76.82825 
L 409.72 48.472 
Q 409.72 46.472 407.72 46.472 
L 325.704375 46.472 
Q 323.704375 46.472 323.704375 48.472 
L 323.704375 76.82825 
Q 323.704375 78.82825 325.704375 78.82825 
z
" style="fill: #ffffff; opacity: 0.8; stroke: #cccccc; stroke-linejoin: miter"/>
    </g>
    <g id="line2d_28">
     <path d="M 327.704375 54.570437 
L 337.704375 54.570437 
L 347.704375 54.570437 
" style="fill: none; stroke: #00bfff; stroke-width: 1.5; stroke-linecap: square"/>
    </g>
    <g id="text_20">
     <!-- Max temp -->
     <g transform="translate(355.704375 58.070437)scale(0.1 -0.1)">
      <defs>
       <path id="DejaVuSans-4d" d="M 628 4666 
L 1569 4666 
L 2759 1491 
L 3956 4666 
L 4897 4666 
L 4897 0 
L 4281 0 
L 4281 4097 
L 3078 897 
L 2444 897 
L 1241 4097 
L 1241 0 
L 628 0 
L 628 4666 
z
" transform="scale(0.015625)"/>
       <path id="DejaVuSans-78" d="M 3513 3500 
L 2247 1797 
L 3578 0 
L 2900 0 
L 1881 1375 
L 863 0 
L 184 0 
L 1544 1831 
L 300 3500 
L 978 3500 
L 1906 2253 
L 2834 3500 
L 3513 3500 
z
" transform="scale(0.015625)"/>
      </defs>
      <use xlink:href="#DejaVuSans-4d"/>
      <use xlink:href="#DejaVuSans-61" x="86.279297"/>
      <use xlink:href="#DejaVuSans-78" x="147.558594"/>
      <use xlink:href="#DejaVuSans-20" x="206.738281"/>
      <use xlink:href="#DejaVuSans-74" x="238.525391"/>
      <use xlink:href="#DejaVuSans-65" x="277.734375"/>
      <use xlink:href="#DejaVuSans-6d" x="339.257812"/>
      <use xlink:href="#DejaVuSans-70" x="436.669922"/>
     </g>
    </g>
    <g id="line2d_29">
     <path d="M 327.704375 69.248562 
L 337.704375 69.248562 
L 347.704375 69.248562 
" style="fill: none; stroke: #00ff7f; stroke-width: 1.5; stroke-linecap: square"/>
    </g>
    <g id="text_21">
     <!-- Min temp -->
     <g transform="translate(355.704375 72.748562)scale(0.1 -0.1)">
      <use xlink:href="#DejaVuSans-4d"/>
      <use xlink:href="#DejaVuSans-69" x="86.279297"/>
      <use xlink:href="#DejaVuSans-6e" x="114.0625"/>
      <use xlink:href="#DejaVuSans-20" x="177.441406"/>
      <use xlink:href="#DejaVuSans-74" x="209.228516"/>
      <use xlink:href="#DejaVuSans-65" x="248.4375"/>
      <use xlink:href="#DejaVuSans-6d" x="309.960938"/>
      <use xlink:href="#DejaVuSans-70" x="407.373047"/>
     </g>
    </g>
   </g>
  </g>
 </g>
 <defs>
  <clipPath id="pa04fb844ae">
   <rect x="57.6" y="41.472" width="357.12" height="266.112"/>
  </clipPath>
 </defs>
</svg>
