<svg version="1.1" id="Layer_1" xmlns="http://www.w3.org/2000/svg" xmlns:xlink="http://www.w3.org/1999/xlink" x="0px" y="0px"
	 width="100%" viewBox="0 0 1080 1080" enable-background="new 0 0 1080 1080" xml:space="preserve">
<path fill="#000000" opacity="0.000000" stroke="none" 
	d="
M605.000000,1081.000000 
	C403.356537,1081.000000 202.213089,1081.000000 1.034820,1081.000000 
	C1.034820,721.064758 1.034820,361.129517 1.034820,1.097133 
	C360.893707,1.097133 720.787415,1.097133 1080.840576,1.097133 
	C1080.840576,360.999939 1080.840576,720.999939 1080.840576,1081.000000 
	C922.462402,1081.000000 763.981201,1081.000000 605.000000,1081.000000 
M134.546814,847.731445 
	C378.450500,847.731445 622.354187,847.731445 866.351501,847.731445 
	C866.606812,845.039307 866.803040,842.970337 866.998413,840.910645 
	C869.285400,840.762085 871.227234,840.635986 873.389648,840.495483 
	C873.389648,605.674866 873.389648,371.134521 873.389648,135.687805 
	C868.021606,137.894974 864.729492,134.823410 861.702942,131.295059 
	C614.086975,366.207153 366.890015,600.721741 120.438156,834.529480 
	C122.244026,839.109558 123.800499,843.057190 125.643494,847.731445 
	C127.633781,847.731445 130.601028,847.731445 134.546814,847.731445 
M946.276855,892.599243 
	C950.552002,879.651978 945.121704,867.438293 932.396240,865.634766 
	C918.558716,863.673462 904.369324,864.194397 890.380493,863.635010 
	C890.380493,893.486633 890.380493,922.179871 890.380493,950.960510 
	C903.366150,950.960510 916.013611,951.169006 928.651123,950.903870 
	C942.248230,950.618652 951.050293,943.417542 953.097717,931.856750 
	C955.525208,918.150146 949.702209,907.310059 936.859741,904.012329 
	C936.543396,903.931152 936.342468,903.400330 936.619080,903.749023 
	C939.912109,900.088440 942.956299,896.704529 946.276855,892.599243 
M568.318726,981.124939 
	C568.318726,978.671021 568.318726,976.217102 568.318726,973.391602 
	C559.652832,973.391602 551.527466,973.391602 543.402100,973.391602 
	C535.302795,973.391602 527.203491,973.391602 518.910706,973.391602 
	C518.971863,967.066223 522.187866,963.047913 526.254700,959.782715 
	C533.125916,954.265747 540.580688,949.441467 547.188782,943.640869 
	C553.379883,938.206360 560.054321,932.664490 564.299500,925.799255 
	C575.319763,907.977539 564.880493,887.076233 544.276550,884.294067 
	C540.350830,883.763977 536.258362,883.734680 532.320007,884.171082 
	C520.741455,885.453857 511.955200,891.237427 506.149506,900.511230 
	C508.744049,903.481689 510.892944,905.941956 513.231934,908.619873 
	C514.164673,907.557800 514.854126,906.892456 515.404907,906.127258 
	C522.563965,896.183167 532.674927,892.330688 544.680054,894.999146 
	C551.131409,896.433167 555.019348,900.709717 556.130066,907.243958 
	C558.053223,918.557617 552.595947,926.494873 544.294067,932.988831 
	C535.909302,939.547729 527.358093,945.896851 518.800110,952.230225 
	C508.453674,959.887207 505.443390,970.328430 506.920929,982.761414 
	C507.567902,982.846619 508.192871,983.000427 508.817932,983.000854 
	C527.635254,983.014282 546.452576,983.027954 565.269714,982.970581 
	C566.270508,982.967529 567.269470,982.344666 568.318726,981.124939 
M945.266968,428.109589 
	C926.019775,423.651703 908.662292,431.215698 903.061523,443.766418 
	C905.314758,446.491486 907.393738,449.005798 909.322876,451.338989 
	C910.191101,450.978363 910.577576,450.930145 910.778320,450.711426 
	C911.222412,450.227509 911.587585,449.667694 911.959717,449.121674 
	C918.721436,439.201721 928.198792,435.892242 939.750427,437.813477 
	C947.960999,439.178986 952.296631,444.019348 952.968140,452.286804 
	C953.461365,458.359589 952.149292,464.021637 948.068970,468.556671 
	C944.641113,472.366577 940.809204,475.885895 936.793640,479.077789 
	C929.759827,484.668854 922.476257,489.948517 915.246155,495.289368 
	C904.907898,502.926178 901.988525,513.402405 903.313416,525.732971 
	C923.865295,525.732971 944.259033,525.732971 964.610474,525.732971 
	C964.610474,522.547607 964.610474,519.651978 964.610474,516.247681 
	C948.072815,516.247681 931.840271,516.247681 915.581909,516.247681 
	C916.046692,510.136932 917.080017,507.510559 922.448975,503.099121 
	C929.774292,497.080170 937.754944,491.843994 944.937256,485.670288 
	C950.566711,480.831390 956.185059,475.627014 960.440552,469.616547 
	C969.023010,457.494904 966.355225,433.908478 945.266968,428.109589 
M119.751793,936.900208 
	C120.547523,939.237244 121.343246,941.574219 122.100143,943.797241 
	C125.836250,943.797241 129.271759,943.797241 133.057526,943.797241 
	C122.906464,914.714294 112.860825,885.933411 102.811813,857.142822 
	C99.729805,857.142822 97.032455,857.424316 94.417717,857.079468 
	C90.068565,856.505798 88.164032,858.071716 86.727226,862.390625 
	C80.178436,882.075806 73.131767,901.595032 66.292244,921.183777 
	C63.689255,928.638855 61.161667,936.120300 58.455296,944.010742 
	C60.592636,944.010742 62.127171,943.773315 63.559879,944.054565 
	C68.091751,944.944275 70.019135,942.880676 71.096298,938.649963 
	C72.362350,933.677368 74.466446,928.924133 75.920319,923.991211 
	C76.741943,921.203613 77.948425,919.949951 81.095772,920.124512 
	C86.573990,920.428406 92.082291,920.141479 97.576004,920.227966 
	C103.027313,920.313782 109.900871,918.612305 113.526611,921.271973 
	C117.172798,923.946655 117.586121,931.028503 119.751793,936.900208 
M904.482117,48.206932 
	C914.847351,48.455841 923.292480,52.051540 927.835144,62.650639 
	C930.755920,60.688545 933.045288,59.150570 935.439514,57.542183 
	C933.091919,50.823364 928.865601,46.131153 922.868958,43.028839 
	C900.286316,31.345976 873.120544,42.867702 866.555420,67.310944 
	C864.856567,73.636238 864.143494,80.520599 864.522400,87.058647 
	C866.155518,115.239006 883.095703,130.434830 909.368286,127.973000 
	C923.052734,126.690720 934.530273,116.400337 935.780457,104.059143 
	C933.370605,102.971169 930.893066,101.852638 928.248718,100.658798 
	C925.677795,107.397339 922.795715,113.086571 916.494995,116.249557 
	C901.547180,123.753448 883.504333,116.740952 878.021606,101.002861 
	C874.653076,91.333679 874.539551,81.339226 876.628113,71.419739 
	C879.823914,56.241322 887.974792,49.376839 904.482117,48.206932 
z"/>
<path fill="#F9F9F9" opacity="1.000000" stroke="none" 
	d="
M134.057541,847.731445 
	C130.601028,847.731445 127.633781,847.731445 125.643494,847.731445 
	C123.800499,843.057190 122.244026,839.109558 120.438156,834.529480 
	C366.890015,600.721741 614.086975,366.207153 861.702942,131.295059 
	C864.729492,134.823410 868.021606,137.894974 873.389648,135.687805 
	C873.389648,371.134521 873.389648,605.674866 873.389648,840.495483 
	C871.227234,840.635986 869.285400,840.762085 866.998413,840.910645 
	C866.803040,842.970337 866.606812,845.039307 866.351501,847.731445 
	C622.354187,847.731445 378.450500,847.731445 134.057541,847.731445 
M304.149719,679.638367 
	C283.504883,699.245544 262.860077,718.852783 242.083191,738.585388 
	C259.363129,747.687683 269.970093,762.403076 274.869110,780.344971 
	C279.706726,798.062256 282.135132,816.469360 269.263702,833.389038 
	C442.482819,833.389038 614.803467,833.389038 787.647339,833.389038 
	C787.647339,821.025146 787.647339,808.948364 787.647339,796.797852 
	C792.570679,796.797852 796.965942,796.797852 801.829224,796.797852 
	C801.829224,809.225647 801.829224,821.322632 801.829224,833.414490 
	C821.224731,833.414490 840.145569,833.414490 859.327148,833.414490 
	C859.327148,808.768555 859.327148,784.398804 859.327148,759.567139 
	C854.763367,759.567139 850.498962,759.567139 846.081787,759.567139 
	C846.081787,754.699341 846.081787,750.297302 846.081787,745.420654 
	C850.606384,745.420654 854.869934,745.420654 859.313293,745.420654 
	C859.313293,547.983643 859.313293,351.023438 859.313293,153.167923 
	C857.033264,155.250717 855.333252,156.753372 853.688110,158.313828 
	C767.254700,240.298325 680.825256,322.286987 594.396912,404.276825 
	C497.814758,495.899048 401.233978,587.522766 304.149719,679.638367 
M262.359344,778.321777 
	C257.570953,767.159912 248.914566,759.378784 239.509781,752.272339 
	C238.890747,751.804626 237.916550,751.523438 237.144028,751.588501 
	C232.225220,752.002747 227.470215,752.197876 223.406769,756.117676 
	C204.232712,774.613953 184.806808,792.848999 165.480682,811.187744 
	C157.918610,818.363525 150.382782,825.566956 142.112152,833.446472 
	C144.693741,833.559631 146.272308,833.688599 147.850906,833.689148 
	C180.989731,833.700806 214.128983,833.617981 247.266907,833.790649 
	C251.839020,833.814453 254.963165,833.404785 256.334412,828.161987 
	C257.087494,825.282715 259.915161,823.007996 261.400513,820.242188 
	C263.183807,816.921509 265.423126,813.487122 265.903442,809.893250 
	C267.302460,799.425964 266.620605,788.993835 262.359344,778.321777 
z"/>
<path fill="#F9F9F9" opacity="1.000000" stroke="none" 
	d="
M946.138672,892.959961 
	C942.956299,896.704529 939.912109,900.088440 936.619080,903.749023 
	C936.342468,903.400330 936.543396,903.931152 936.859741,904.012329 
	C949.702209,907.310059 955.525208,918.150146 953.097717,931.856750 
	C951.050293,943.417542 942.248230,950.618652 928.651123,950.903870 
	C916.013611,951.169006 903.366150,950.960510 890.380493,950.960510 
	C890.380493,922.179871 890.380493,893.486633 890.380493,863.635010 
	C904.369324,864.194397 918.558716,863.673462 932.396240,865.634766 
	C945.121704,867.438293 950.552002,879.651978 946.138672,892.959961 
M930.503784,909.765381 
	C920.602966,909.765381 910.702209,909.765381 900.608093,909.765381 
	C900.608093,920.411377 900.608093,931.256348 900.608093,942.268250 
	C910.014648,942.268250 919.132751,942.631226 928.208618,942.166565 
	C937.357727,941.698181 942.321838,936.680725 943.022156,928.426392 
	C943.895935,918.128540 940.440735,912.655090 930.503784,909.765381 
M908.617188,900.720032 
	C914.750610,900.517273 920.939026,900.753357 927.002625,899.993530 
	C933.621948,899.164185 937.339417,894.033813 937.527344,886.922424 
	C937.722229,879.548950 934.436035,874.076477 927.720093,873.483093 
	C918.746094,872.690247 909.649231,873.287048 900.562256,873.287048 
	C900.562256,882.428284 900.562256,891.322754 900.562256,900.720093 
	C903.096313,900.720093 905.375671,900.720093 908.617188,900.720032 
z"/>
<path fill="#F8F8F8" opacity="1.000000" stroke="none" 
	d="
M568.293945,981.567688 
	C567.269470,982.344666 566.270508,982.967529 565.269714,982.970581 
	C546.452576,983.027954 527.635254,983.014282 508.817932,983.000854 
	C508.192871,983.000427 507.567902,982.846619 506.920929,982.761414 
	C505.443390,970.328430 508.453674,959.887207 518.800110,952.230225 
	C527.358093,945.896851 535.909302,939.547729 544.294067,932.988831 
	C552.595947,926.494873 558.053223,918.557617 556.130066,907.243958 
	C555.019348,900.709717 551.131409,896.433167 544.680054,894.999146 
	C532.674927,892.330688 522.563965,896.183167 515.404907,906.127258 
	C514.854126,906.892456 514.164673,907.557800 513.231934,908.619873 
	C510.892944,905.941956 508.744049,903.481689 506.149506,900.511230 
	C511.955200,891.237427 520.741455,885.453857 532.320007,884.171082 
	C536.258362,883.734680 540.350830,883.763977 544.276550,884.294067 
	C564.880493,887.076233 575.319763,907.977539 564.299500,925.799255 
	C560.054321,932.664490 553.379883,938.206360 547.188782,943.640869 
	C540.580688,949.441467 533.125916,954.265747 526.254700,959.782715 
	C522.187866,963.047913 518.971863,967.066223 518.910706,973.391602 
	C527.203491,973.391602 535.302795,973.391602 543.402100,973.391602 
	C551.527466,973.391602 559.652832,973.391602 568.318726,973.391602 
	C568.318726,976.217102 568.318726,978.671021 568.293945,981.567688 
z"/>
<path fill="#F8F8F8" opacity="1.000000" stroke="none" 
	d="
M945.664673,428.210510 
	C966.355225,433.908478 969.023010,457.494904 960.440552,469.616547 
	C956.185059,475.627014 950.566711,480.831390 944.937256,485.670288 
	C937.754944,491.843994 929.774292,497.080170 922.448975,503.099121 
	C917.080017,507.510559 916.046692,510.136932 915.581909,516.247681 
	C931.840271,516.247681 948.072815,516.247681 964.610474,516.247681 
	C964.610474,519.651978 964.610474,522.547607 964.610474,525.732971 
	C944.259033,525.732971 923.865295,525.732971 903.313416,525.732971 
	C901.988525,513.402405 904.907898,502.926178 915.246155,495.289368 
	C922.476257,489.948517 929.759827,484.668854 936.793640,479.077789 
	C940.809204,475.885895 944.641113,472.366577 948.068970,468.556671 
	C952.149292,464.021637 953.461365,458.359589 952.968140,452.286804 
	C952.296631,444.019348 947.960999,439.178986 939.750427,437.813477 
	C928.198792,435.892242 918.721436,439.201721 911.959717,449.121674 
	C911.587585,449.667694 911.222412,450.227509 910.778320,450.711426 
	C910.577576,450.930145 910.191101,450.978363 909.322876,451.338989 
	C907.393738,449.005798 905.314758,446.491486 903.061523,443.766418 
	C908.662292,431.215698 926.019775,423.651703 945.664673,428.210510 
z"/>
<path fill="#F9F9F9" opacity="1.000000" stroke="none" 
	d="
M119.583954,936.539673 
	C117.586121,931.028503 117.172798,923.946655 113.526611,921.271973 
	C109.900871,918.612305 103.027313,920.313782 97.576004,920.227966 
	C92.082291,920.141479 86.573990,920.428406 81.095772,920.124512 
	C77.948425,919.949951 76.741943,921.203613 75.920319,923.991211 
	C74.466446,928.924133 72.362350,933.677368 71.096298,938.649963 
	C70.019135,942.880676 68.091751,944.944275 63.559879,944.054565 
	C62.127171,943.773315 60.592636,944.010742 58.455296,944.010742 
	C61.161667,936.120300 63.689255,928.638855 66.292244,921.183777 
	C73.131767,901.595032 80.178436,882.075806 86.727226,862.390625 
	C88.164032,858.071716 90.068565,856.505798 94.417717,857.079468 
	C97.032455,857.424316 99.729805,857.142822 102.811813,857.142822 
	C112.860825,885.933411 122.906464,914.714294 133.057526,943.797241 
	C129.271759,943.797241 125.836250,943.797241 122.100143,943.797241 
	C121.343246,941.574219 120.547523,939.237244 119.583954,936.539673 
M82.386589,911.683044 
	C91.787766,911.683044 101.188950,911.683044 111.190926,911.683044 
	C106.119812,896.708496 101.226265,882.258240 96.075348,867.047974 
	C95.125847,868.382874 94.632408,868.827820 94.444618,869.377197 
	C89.947792,882.532166 85.460464,895.690491 81.071777,908.881714 
	C80.810776,909.666260 81.388412,910.729858 82.386589,911.683044 
z"/>
<path fill="#F8F8F8" opacity="1.000000" stroke="none" 
	d="
M904.007202,48.197525 
	C887.974792,49.376839 879.823914,56.241322 876.628113,71.419739 
	C874.539551,81.339226 874.653076,91.333679 878.021606,101.002861 
	C883.504333,116.740952 901.547180,123.753448 916.494995,116.249557 
	C922.795715,113.086571 925.677795,107.397339 928.248718,100.658798 
	C930.893066,101.852638 933.370605,102.971169 935.780457,104.059143 
	C934.530273,116.400337 923.052734,126.690720 909.368286,127.973000 
	C883.095703,130.434830 866.155518,115.239006 864.522400,87.058647 
	C864.143494,80.520599 864.856567,73.636238 866.555420,67.310944 
	C873.120544,42.867702 900.286316,31.345976 922.868958,43.028839 
	C928.865601,46.131153 933.091919,50.823364 935.439514,57.542183 
	C933.045288,59.150570 930.755920,60.688545 927.835144,62.650639 
	C923.292480,52.051540 914.847351,48.455841 904.007202,48.197525 
z"/>
<path fill="#010101" opacity="0.000000" stroke="none" 
	d="
M304.401184,679.392090 
	C401.233978,587.522766 497.814758,495.899048 594.396912,404.276825 
	C680.825256,322.286987 767.254700,240.298325 853.688110,158.313828 
	C855.333252,156.753372 857.033264,155.250717 859.313293,153.167923 
	C859.313293,351.023438 859.313293,547.983643 859.313293,745.420654 
	C854.869934,745.420654 850.606384,745.420654 846.081787,745.420654 
	C846.081787,750.297302 846.081787,754.699341 846.081787,759.567139 
	C850.498962,759.567139 854.763367,759.567139 859.327148,759.567139 
	C859.327148,784.398804 859.327148,808.768555 859.327148,833.414490 
	C840.145569,833.414490 821.224731,833.414490 801.829224,833.414490 
	C801.829224,821.322632 801.829224,809.225647 801.829224,796.797852 
	C796.965942,796.797852 792.570679,796.797852 787.647339,796.797852 
	C787.647339,808.948364 787.647339,821.025146 787.647339,833.389038 
	C614.803467,833.389038 442.482819,833.389038 269.263702,833.389038 
	C282.135132,816.469360 279.706726,798.062256 274.869110,780.344971 
	C269.970093,762.403076 259.363129,747.687683 242.083191,738.585388 
	C262.860077,718.852783 283.504883,699.245544 304.401184,679.392090 
M302.037903,783.381531 
	C307.638123,792.468140 316.175110,794.987427 326.150604,793.921326 
	C335.527679,792.919128 342.037720,787.570435 344.949280,778.912292 
	C347.253662,772.059753 348.694183,764.757874 349.360626,757.548523 
	C350.517548,745.033142 349.692169,732.565308 344.323700,720.875916 
	C339.811707,711.051392 332.018158,706.495972 321.208740,706.712708 
	C310.440399,706.928650 303.154907,712.273560 299.402008,721.986694 
	C297.391205,727.191040 296.136475,732.869324 295.619019,738.434021 
	C294.207581,753.612244 294.112000,768.740356 302.037903,783.381531 
M799.020386,782.514709 
	C802.334229,782.759521 801.675354,780.348389 801.683716,778.458435 
	C801.711304,772.211792 801.694092,765.964905 801.694092,759.273376 
	C812.174988,759.273376 821.911682,759.273376 831.607788,759.273376 
	C831.607788,754.534241 831.607788,750.267151 831.607788,745.763428 
	C817.654968,745.763428 803.937134,745.763428 790.302612,745.763428 
	C785.231323,757.796509 788.721497,770.093384 787.519775,782.516785 
	C791.526245,782.516785 794.826050,782.516785 799.020386,782.514709 
z"/>
<path fill="#030303" opacity="0.000000" stroke="none" 
	d="
M262.560730,778.648376 
	C266.620605,788.993835 267.302460,799.425964 265.903442,809.893250 
	C265.423126,813.487122 263.183807,816.921509 261.400513,820.242188 
	C259.915161,823.007996 257.087494,825.282715 256.334412,828.161987 
	C254.963165,833.404785 251.839020,833.814453 247.266907,833.790649 
	C214.128983,833.617981 180.989731,833.700806 147.850906,833.689148 
	C146.272308,833.688599 144.693741,833.559631 142.112152,833.446472 
	C150.382782,825.566956 157.918610,818.363525 165.480682,811.187744 
	C184.806808,792.848999 204.232712,774.613953 223.406769,756.117676 
	C227.470215,752.197876 232.225220,752.002747 237.144028,751.588501 
	C237.916550,751.523438 238.890747,751.804626 239.509781,752.272339 
	C248.914566,759.378784 257.570953,767.159912 262.560730,778.648376 
z"/>
<path fill="#070707" opacity="0.000000" stroke="none" 
	d="
M930.916260,909.834045 
	C940.440735,912.655090 943.895935,918.128540 943.022156,928.426392 
	C942.321838,936.680725 937.357727,941.698181 928.208618,942.166565 
	C919.132751,942.631226 910.014648,942.268250 900.608093,942.268250 
	C900.608093,931.256348 900.608093,920.411377 900.608093,909.765381 
	C910.702209,909.765381 920.602966,909.765381 930.916260,909.834045 
z"/>
<path fill="#060606" opacity="0.000000" stroke="none" 
	d="
M908.136108,900.720093 
	C905.375671,900.720093 903.096313,900.720093 900.562256,900.720093 
	C900.562256,891.322754 900.562256,882.428284 900.562256,873.287048 
	C909.649231,873.287048 918.746094,872.690247 927.720093,873.483093 
	C934.436035,874.076477 937.722229,879.548950 937.527344,886.922424 
	C937.339417,894.033813 933.621948,899.164185 927.002625,899.993530 
	C920.939026,900.753357 914.750610,900.517273 908.136108,900.720093 
z"/>
<path fill="#080808" opacity="0.000000" stroke="none" 
	d="
M81.981194,911.673340 
	C81.388412,910.729858 80.810776,909.666260 81.071777,908.881714 
	C85.460464,895.690491 89.947792,882.532166 94.444618,869.377197 
	C94.632408,868.827820 95.125847,868.382874 96.075348,867.047974 
	C101.226265,882.258240 106.119812,896.708496 111.190926,911.683044 
	C101.188950,911.683044 91.787766,911.683044 81.981194,911.673340 
z"/>
<path fill="#F8F8F8" opacity="1.000000" stroke="none" 
	d="
M301.855865,783.065308 
	C294.112000,768.740356 294.207581,753.612244 295.619019,738.434021 
	C296.136475,732.869324 297.391205,727.191040 299.402008,721.986694 
	C303.154907,712.273560 310.440399,706.928650 321.208740,706.712708 
	C332.018158,706.495972 339.811707,711.051392 344.323700,720.875916 
	C349.692169,732.565308 350.517548,745.033142 349.360626,757.548523 
	C348.694183,764.757874 347.253662,772.059753 344.949280,778.912292 
	C342.037720,787.570435 335.527679,792.919128 326.150604,793.921326 
	C316.175110,794.987427 307.638123,792.468140 301.855865,783.065308 
M337.836975,770.066223 
	C338.476105,764.697510 339.115204,759.328735 339.786865,753.686646 
	C327.764740,753.686646 316.540680,753.686646 304.635223,753.686646 
	C305.345276,759.238647 305.700592,764.536743 306.748932,769.693970 
	C308.997406,780.755188 313.507690,785.567444 321.329163,785.957092 
	C329.471344,786.362732 334.370331,781.819580 337.836975,770.066223 
M306.220947,733.015686 
	C305.796814,736.911133 305.372650,740.806519 304.941315,744.768250 
	C316.733887,744.768250 327.969788,744.768250 340.520233,744.768250 
	C338.523438,736.992432 337.197968,729.629578 334.673157,722.703918 
	C332.695801,717.279846 327.812622,714.849548 321.874634,714.928345 
	C316.114288,715.004761 311.952759,717.676636 309.573303,722.771973 
	C308.181885,725.751526 307.451080,729.039612 306.220947,733.015686 
z"/>
<path fill="#F8F8F8" opacity="1.000000" stroke="none" 
	d="
M798.573120,782.515747 
	C794.826050,782.516785 791.526245,782.516785 787.519775,782.516785 
	C788.721497,770.093384 785.231323,757.796509 790.302612,745.763428 
	C803.937134,745.763428 817.654968,745.763428 831.607788,745.763428 
	C831.607788,750.267151 831.607788,754.534241 831.607788,759.273376 
	C821.911682,759.273376 812.174988,759.273376 801.694092,759.273376 
	C801.694092,765.964905 801.711304,772.211792 801.683716,778.458435 
	C801.675354,780.348389 802.334229,782.759521 798.573120,782.515747 
z"/>
<path fill="#070707" opacity="0.000000" stroke="none" 
	d="
M337.721466,770.464355 
	C334.370331,781.819580 329.471344,786.362732 321.329163,785.957092 
	C313.507690,785.567444 308.997406,780.755188 306.748932,769.693970 
	C305.700592,764.536743 305.345276,759.238647 304.635223,753.686646 
	C316.540680,753.686646 327.764740,753.686646 339.786865,753.686646 
	C339.115204,759.328735 338.476105,764.697510 337.721466,770.464355 
z"/>
<path fill="#030303" opacity="0.000000" stroke="none" 
	d="
M306.322021,732.602295 
	C307.451080,729.039612 308.181885,725.751526 309.573303,722.771973 
	C311.952759,717.676636 316.114288,715.004761 321.874634,714.928345 
	C327.812622,714.849548 332.695801,717.279846 334.673157,722.703918 
	C337.197968,729.629578 338.523438,736.992432 340.520233,744.768250 
	C327.969788,744.768250 316.733887,744.768250 304.941315,744.768250 
	C305.372650,740.806519 305.796814,736.911133 306.322021,732.602295 
z"/>
</svg>