<svg version="1.1" id="Layer_1" xmlns="http://www.w3.org/2000/svg" xmlns:xlink="http://www.w3.org/1999/xlink" x="0px" y="0px"
	 width="100%" viewBox="0 0 1080 1080" enable-background="new 0 0 1080 1080" xml:space="preserve">
<path fill="#000000" opacity="0.000000" stroke="none" 
	d="
M572.000000,1081.000000 
	C381.355286,1081.000000 191.210556,1081.000000 1.032916,1081.000000 
	C1.032916,721.063477 1.032916,361.126984 1.032916,1.095229 
	C360.894958,1.095229 720.789917,1.095229 1080.842529,1.095229 
	C1080.842529,360.999939 1080.842529,720.999939 1080.842529,1081.000000 
	C911.459900,1081.000000 741.979919,1081.000000 572.000000,1081.000000 
M139.010605,815.441650 
	C132.269089,824.829163 125.527580,834.216614 119.574532,842.506165 
	C121.399910,846.290710 122.738220,849.065369 124.332443,852.370667 
	C308.511719,852.370667 493.610779,852.370667 678.834656,852.370667 
	C678.988342,850.559692 679.124573,848.954102 679.270874,847.229858 
	C681.074585,847.076965 682.678162,846.940979 684.463623,846.789612 
	C684.463623,589.499573 684.463623,332.407959 684.463623,75.871574 
	C680.917786,74.695251 677.721313,73.634811 674.177063,72.459007 
	C673.617371,73.207619 672.713257,74.378304 671.849304,75.577896 
	C636.444519,124.737419 601.043640,173.899750 565.641724,223.061356 
	C437.295044,401.292664 308.948486,579.524048 180.600754,757.754639 
	C166.887375,776.797852 153.166534,795.835754 139.010605,815.441650 
M722.478943,938.018860 
	C725.311096,937.987122 728.154846,938.109436 730.973267,937.896484 
	C742.030884,937.060913 748.632690,930.295166 748.913513,919.649719 
	C749.161072,910.268494 744.486694,904.408325 735.095154,901.494446 
	C736.405701,900.562073 737.168030,900.008118 737.942017,899.470947 
	C743.533752,895.589233 745.175171,890.158081 743.994385,883.710266 
	C742.886597,877.661316 739.037048,873.225403 733.280396,872.562378 
	C722.337708,871.302063 711.252319,871.280701 700.290771,870.747925 
	C700.290771,893.909058 700.290771,915.831909 700.290771,938.018860 
	C707.538757,938.018860 714.512146,938.018860 722.478943,938.018860 
M429.500122,956.013916 
	C438.241150,956.013916 446.982147,956.013916 455.469757,956.013916 
	C455.469757,953.142944 455.469757,951.067444 455.469757,948.487549 
	C442.768280,948.487549 430.385223,948.487549 418.002136,948.487549 
	C417.618408,948.027405 417.234650,947.567322 416.850922,947.107178 
	C419.211334,943.936340 421.113068,940.236755 424.029388,937.706665 
	C429.796661,932.703430 436.423737,928.682739 442.123352,923.612915 
	C446.401550,919.807312 450.668854,915.481384 453.384735,910.533020 
	C459.076782,900.161926 454.784393,886.546875 444.719452,882.373352 
	C434.079224,877.961243 423.509308,878.639160 414.048340,885.841675 
	C411.519989,887.766541 409.600891,890.491577 407.535065,892.706665 
	C409.706879,895.208740 411.321686,897.069031 413.181885,899.212036 
	C414.499207,897.526184 415.373444,896.360168 416.296265,895.234009 
	C421.614838,888.743530 430.317352,886.236450 438.394012,888.746277 
	C442.808899,890.118225 445.302216,893.006470 446.166138,897.532288 
	C447.684235,905.485107 444.491882,911.582764 438.549896,916.366577 
	C431.556549,921.996887 424.342468,927.355652 417.168518,932.758362 
	C409.429199,938.586853 407.498657,946.525940 408.362305,956.013916 
	C415.247101,956.013916 421.873627,956.013916 429.500122,956.013916 
M113.293282,927.712158 
	C115.995872,927.712158 118.698471,927.712158 121.707321,927.712158 
	C114.170296,906.149414 106.716599,885.004700 99.420654,863.805786 
	C97.896332,859.376770 94.484741,861.695190 91.891701,861.283203 
	C89.641663,860.925720 87.558861,860.869080 86.538536,864.094482 
	C83.534355,873.591370 80.082703,882.946899 76.795738,892.354126 
	C72.694839,904.091064 68.583572,915.824341 64.396271,927.789185 
	C67.510490,927.789185 70.116829,927.789185 72.710403,927.789185 
	C74.503021,922.552551 76.085861,917.469482 78.048141,912.537354 
	C78.506638,911.385010 80.233444,910.015625 81.408508,909.985474 
	C89.887650,909.767761 98.374985,909.868713 107.086029,909.868713 
	C109.081764,915.685913 111.016136,921.324219 113.293282,927.712158 
M738.006714,93.768509 
	C749.947876,90.999100 756.184509,85.257523 757.738098,75.383141 
	C755.914124,74.549072 754.030762,73.687828 752.152283,72.828835 
	C751.631836,73.650551 751.307678,74.036949 751.117798,74.480812 
	C747.307373,83.386414 741.955872,86.998314 732.750977,86.855141 
	C723.712524,86.714561 716.951416,82.315231 713.839417,73.974220 
	C710.280823,64.436211 710.345886,54.709957 713.915833,45.194653 
	C716.816589,37.462994 722.663879,33.348118 730.952576,32.707863 
	C739.953308,32.012604 747.400696,34.428837 751.709839,43.510479 
	C753.900818,42.038101 755.643250,40.867168 757.434326,39.663528 
	C755.111938,33.083672 750.607361,29.191017 744.490540,27.092958 
	C725.178772,20.469069 707.225769,30.763409 703.718872,50.984921 
	C699.276367,76.601753 712.486816,96.043571 738.006714,93.768509 
z"/>
<path fill="#F7F7F7" opacity="1.000000" stroke="none" 
	d="
M139.229874,815.158875 
	C153.166534,795.835754 166.887375,776.797852 180.600754,757.754639 
	C308.948486,579.524048 437.295044,401.292664 565.641724,223.061356 
	C601.043640,173.899750 636.444519,124.737419 671.849304,75.577896 
	C672.713257,74.378304 673.617371,73.207619 674.177063,72.459007 
	C677.721313,73.634811 680.917786,74.695251 684.463623,75.871574 
	C684.463623,332.407959 684.463623,589.499573 684.463623,846.789612 
	C682.678162,846.940979 681.074585,847.076965 679.270874,847.229858 
	C679.124573,848.954102 678.988342,850.559692 678.834656,852.370667 
	C493.610779,852.370667 308.511719,852.370667 124.332443,852.370667 
	C122.738220,849.065369 121.399910,846.290710 119.574532,842.506165 
	C125.527580,834.216614 132.269089,824.829163 139.229874,815.158875 
M207.136505,743.460876 
	C210.104553,743.046753 213.060715,742.421997 216.042633,742.253601 
	C232.158493,741.343628 246.104355,744.949890 254.053940,760.843628 
	C254.708130,762.151489 255.689392,763.442078 256.834686,764.335632 
	C269.934540,774.556030 272.026978,790.074463 274.752197,804.570557 
	C277.007233,816.565430 277.058502,829.260498 271.701874,841.353149 
	C374.408722,841.353149 476.508789,841.353149 579.047607,841.353149 
	C579.047607,832.275574 579.047607,823.350586 579.047607,814.217346 
	C582.889282,814.217346 586.293213,814.217346 590.148071,814.217346 
	C590.148071,823.318298 590.148071,832.239502 590.148071,841.140686 
	C618.161011,841.140686 645.722473,841.140686 673.606384,841.140686 
	C673.606384,716.252930 673.606384,591.743469 673.606384,467.234039 
	C673.606384,342.802277 673.606384,218.370499 673.606384,93.938736 
	C664.804077,104.315872 657.230469,114.826111 649.659851,125.338547 
	C529.149780,292.677094 408.634216,460.011627 288.134979,627.357910 
	C260.515259,665.715454 232.952240,704.113892 205.049118,742.954041 
	C205.085327,743.181885 205.121552,743.409729 205.157761,743.637573 
	C205.536819,743.524109 205.915878,743.410645 207.136505,743.460876 
M255.926926,835.391174 
	C262.488953,833.602600 262.410675,827.963318 262.736389,822.937439 
	C263.265564,814.771179 261.084595,806.955994 259.622528,798.954895 
	C257.324615,786.379456 251.107880,776.292236 243.733978,766.724182 
	C237.450546,758.571106 229.263809,752.923462 218.035233,754.178040 
	C214.564911,754.565857 210.974197,754.378845 207.621078,755.200134 
	C202.013184,756.573547 195.556976,755.813171 191.496826,761.482239 
	C173.280502,786.916870 154.982956,812.293274 136.726898,837.699463 
	C135.999680,838.711487 135.396088,839.812317 134.326767,841.525696 
	C136.880051,841.525696 138.669601,841.525696 140.459167,841.525696 
	C174.115341,841.525696 207.771576,841.491943 241.427597,841.560486 
	C246.754684,841.571350 252.341599,842.682007 254.843292,836.028931 
	C254.886536,835.913940 255.127274,835.873169 255.926926,835.391174 
z"/>
<path fill="#F5F5F5" opacity="1.000000" stroke="none" 
	d="
M721.982178,938.018860 
	C714.512146,938.018860 707.538757,938.018860 700.290771,938.018860 
	C700.290771,915.831909 700.290771,893.909058 700.290771,870.747925 
	C711.252319,871.280701 722.337708,871.302063 733.280396,872.562378 
	C739.037048,873.225403 742.886597,877.661316 743.994385,883.710266 
	C745.175171,890.158081 743.533752,895.589233 737.942017,899.470947 
	C737.168030,900.008118 736.405701,900.562073 735.095154,901.494446 
	C744.486694,904.408325 749.161072,910.268494 748.913513,919.649719 
	C748.632690,930.295166 742.030884,937.060913 730.973267,937.896484 
	C728.154846,938.109436 725.311096,937.987122 721.982178,938.018860 
M723.383850,905.931458 
	C718.300049,905.931458 713.216187,905.931458 708.307373,905.931458 
	C708.307373,914.824158 708.307373,923.059509 708.307373,931.414795 
	C714.301453,931.414795 719.960999,931.425049 725.620483,931.406433 
	C726.784363,931.402649 727.950928,931.326477 729.111023,931.223755 
	C736.924927,930.532349 740.900635,926.223755 740.835510,918.540894 
	C740.771484,910.990479 736.559204,906.572815 728.835510,906.012329 
	C727.343262,905.904053 725.839539,905.954407 723.383850,905.931458 
M719.450562,877.945496 
	C715.688843,877.945496 711.927124,877.945496 708.200195,877.945496 
	C708.200195,885.314087 708.200195,892.074158 708.200195,899.149780 
	C714.202393,899.149780 719.991760,899.289429 725.771484,899.113647 
	C732.634705,898.904907 736.381775,895.062378 736.430969,888.564453 
	C736.481445,881.901550 732.933960,878.313293 725.912964,877.988159 
	C724.085083,877.903564 722.250854,877.955994 719.450562,877.945496 
z"/>
<path fill="#F8F8F8" opacity="1.000000" stroke="none" 
	d="
M429.000153,956.013916 
	C421.873627,956.013916 415.247101,956.013916 408.362305,956.013916 
	C407.498657,946.525940 409.429199,938.586853 417.168518,932.758362 
	C424.342468,927.355652 431.556549,921.996887 438.549896,916.366577 
	C444.491882,911.582764 447.684235,905.485107 446.166138,897.532288 
	C445.302216,893.006470 442.808899,890.118225 438.394012,888.746277 
	C430.317352,886.236450 421.614838,888.743530 416.296265,895.234009 
	C415.373444,896.360168 414.499207,897.526184 413.181885,899.212036 
	C411.321686,897.069031 409.706879,895.208740 407.535065,892.706665 
	C409.600891,890.491577 411.519989,887.766541 414.048340,885.841675 
	C423.509308,878.639160 434.079224,877.961243 444.719452,882.373352 
	C454.784393,886.546875 459.076782,900.161926 453.384735,910.533020 
	C450.668854,915.481384 446.401550,919.807312 442.123352,923.612915 
	C436.423737,928.682739 429.796661,932.703430 424.029388,937.706665 
	C421.113068,940.236755 419.211334,943.936340 416.850922,947.107178 
	C417.234650,947.567322 417.618408,948.027405 418.002136,948.487549 
	C430.385223,948.487549 442.768280,948.487549 455.469757,948.487549 
	C455.469757,951.067444 455.469757,953.142944 455.469757,956.013916 
	C446.982147,956.013916 438.241150,956.013916 429.000153,956.013916 
z"/>
<path fill="#F5F5F5" opacity="1.000000" stroke="none" 
	d="
M113.121887,927.337402 
	C111.016136,921.324219 109.081764,915.685913 107.086029,909.868713 
	C98.374985,909.868713 89.887650,909.767761 81.408508,909.985474 
	C80.233444,910.015625 78.506638,911.385010 78.048141,912.537354 
	C76.085861,917.469482 74.503021,922.552551 72.710403,927.789185 
	C70.116829,927.789185 67.510490,927.789185 64.396271,927.789185 
	C68.583572,915.824341 72.694839,904.091064 76.795738,892.354126 
	C80.082703,882.946899 83.534355,873.591370 86.538536,864.094482 
	C87.558861,860.869080 89.641663,860.925720 91.891701,861.283203 
	C94.484741,861.695190 97.896332,859.376770 99.420654,863.805786 
	C106.716599,885.004700 114.170296,906.149414 121.707321,927.712158 
	C118.698471,927.712158 115.995872,927.712158 113.121887,927.337402 
M96.712799,878.791809 
	C95.623741,875.781067 94.534683,872.770325 93.445625,869.759583 
	C93.093742,869.763000 92.741859,869.766418 92.389984,869.769836 
	C88.681137,880.731628 84.972290,891.693420 81.188591,902.876465 
	C89.329964,902.876465 96.750046,902.876465 104.717346,902.876465 
	C102.050018,894.872559 99.495705,887.207764 96.712799,878.791809 
z"/>
<path fill="#F5F5F5" opacity="1.000000" stroke="none" 
	d="
M737.563232,93.818146 
	C712.486816,96.043571 699.276367,76.601753 703.718872,50.984921 
	C707.225769,30.763409 725.178772,20.469069 744.490540,27.092958 
	C750.607361,29.191017 755.111938,33.083672 757.434326,39.663528 
	C755.643250,40.867168 753.900818,42.038101 751.709839,43.510479 
	C747.400696,34.428837 739.953308,32.012604 730.952576,32.707863 
	C722.663879,33.348118 716.816589,37.462994 713.915833,45.194653 
	C710.345886,54.709957 710.280823,64.436211 713.839417,73.974220 
	C716.951416,82.315231 723.712524,86.714561 732.750977,86.855141 
	C741.955872,86.998314 747.307373,83.386414 751.117798,74.480812 
	C751.307678,74.036949 751.631836,73.650551 752.152283,72.828835 
	C754.030762,73.687828 755.914124,74.549072 757.738098,75.383141 
	C756.184509,85.257523 749.947876,90.999100 737.563232,93.818146 
z"/>
<path fill="#010101" opacity="0.000000" stroke="none" 
	d="
M205.363144,742.493469 
	C232.952240,704.113892 260.515259,665.715454 288.134979,627.357910 
	C408.634216,460.011627 529.149780,292.677094 649.659851,125.338547 
	C657.230469,114.826111 664.804077,104.315872 673.606384,93.938736 
	C673.606384,218.370499 673.606384,342.802277 673.606384,467.234039 
	C673.606384,591.743469 673.606384,716.252930 673.606384,841.140686 
	C645.722473,841.140686 618.161011,841.140686 590.148071,841.140686 
	C590.148071,832.239502 590.148071,823.318298 590.148071,814.217346 
	C586.293213,814.217346 582.889282,814.217346 579.047607,814.217346 
	C579.047607,823.350586 579.047607,832.275574 579.047607,841.353149 
	C476.508789,841.353149 374.408722,841.353149 271.701874,841.353149 
	C277.058502,829.260498 277.007233,816.565430 274.752197,804.570557 
	C272.026978,790.074463 269.934540,774.556030 256.834686,764.335632 
	C255.689392,763.442078 254.708130,762.151489 254.053940,760.843628 
	C246.104355,744.949890 232.158493,741.343628 216.042633,742.253601 
	C213.060715,742.421997 210.104553,743.046753 206.487274,743.172852 
	C205.679733,742.754456 205.521439,742.623962 205.363144,742.493469 
M281.326782,711.979980 
	C279.328827,724.434326 278.789459,736.840698 283.566467,748.838379 
	C286.888336,757.181335 292.783600,761.033508 301.191650,760.935242 
	C309.573334,760.837219 315.962341,756.824890 318.738647,748.675476 
	C323.543915,734.570190 323.679108,720.198486 318.626648,706.127686 
	C315.313629,696.901123 308.545258,693.124329 298.717773,693.859253 
	C289.760742,694.529053 284.415741,699.941650 281.326782,711.979980 
M412.121796,698.133667 
	C395.332031,695.065857 385.168274,701.249207 381.542725,717.013733 
	C379.496521,725.911011 379.590118,734.899048 382.089355,743.705383 
	C384.286224,751.446350 388.570801,757.559509 396.767456,759.975403 
	C413.175476,764.811523 425.618622,753.936829 424.022003,736.186584 
	C423.266296,727.784851 418.583252,721.857727 411.021149,719.732117 
	C402.466522,717.327576 394.992615,719.907654 389.947418,726.975037 
	C389.483276,727.625183 388.861694,728.162964 387.739502,729.370056 
	C388.325958,719.956787 387.919861,710.885254 396.573242,705.906006 
	C404.083649,701.584534 411.305817,703.737122 417.898010,709.653992 
	C419.272217,707.777405 420.475708,706.133972 422.231232,703.736633 
	C418.806244,701.772156 415.848419,700.075623 412.121796,698.133667 
M475.024323,702.431641 
	C463.485901,693.994019 448.936157,695.859558 441.626770,706.713745 
	C434.038177,717.982544 434.050293,740.140869 441.651276,751.451355 
	C449.951385,763.802246 468.979248,764.120178 478.114807,752.402039 
	C486.306519,741.894531 486.910553,712.652039 475.024323,702.431641 
M516.551208,698.730103 
	C514.969910,698.244873 513.419739,697.561035 511.802124,697.307495 
	C502.982819,695.925842 495.553192,701.489014 494.300385,710.307373 
	C493.073822,718.941101 498.399445,726.141602 507.048889,727.543945 
	C514.122070,728.690735 520.846191,725.200623 523.469116,719.020996 
	C526.623779,711.588501 524.234314,703.898438 516.551208,698.730103 
M594.544006,744.969788 
	C591.400574,744.969788 588.257202,744.969788 584.994141,744.969788 
	C584.799194,746.815735 584.631714,748.401917 584.455383,750.071716 
	C582.587036,750.318787 580.986389,750.530457 579.319214,750.750916 
	C579.319214,753.532654 579.319214,756.101685 579.319214,759.152405 
	C582.989014,758.964722 588.730835,759.843384 589.380005,758.412170 
	C591.137939,754.536255 593.743652,756.142029 595.877258,756.072693 
	C603.093323,755.838013 610.321716,755.983154 617.519043,755.983154 
	C617.519043,751.967957 617.519043,748.705078 617.519043,744.969788 
	C610.049927,744.969788 602.791016,744.969788 594.544006,744.969788 
M661.066101,745.167053 
	C650.325562,745.167053 639.584961,745.167053 629.044556,745.167053 
	C629.044556,748.968262 629.044556,752.366455 629.044556,755.636597 
	C640.079773,755.636597 650.781860,755.636597 661.660034,755.636597 
	C661.660034,752.155823 661.660034,749.019592 661.066101,745.167053 
M579.075806,788.495544 
	C579.075806,793.256592 579.075806,798.017639 579.075806,802.728638 
	C583.071899,802.728638 586.477417,802.728638 589.811646,802.728638 
	C589.811646,791.711060 589.811646,780.985962 589.811646,770.305420 
	C586.126953,770.305420 582.729553,770.305420 579.075806,770.305420 
	C579.075806,776.233643 579.075806,781.865601 579.075806,788.495544 
M363.322693,734.982910 
	C353.036896,734.982910 342.751129,734.982910 332.373505,734.982910 
	C332.373505,737.143372 332.373505,738.859070 332.373505,740.674316 
	C344.563782,740.674316 356.472107,740.674316 368.501648,740.674316 
	C368.501648,738.700378 368.501648,736.990845 368.501648,734.982910 
	C366.900452,734.982910 365.587830,734.982910 363.322693,734.982910 
M339.574097,723.151855 
	C349.184540,723.151855 358.794983,723.151855 368.491089,723.151855 
	C368.491089,720.941467 368.491089,719.231628 368.491089,717.421509 
	C356.267609,717.421509 344.367279,717.421509 332.377472,717.421509 
	C332.377472,719.418091 332.377472,721.135010 332.377472,723.151855 
	C334.646240,723.151855 336.621307,723.151855 339.574097,723.151855 
z"/>
<path fill="#030303" opacity="0.000000" stroke="none" 
	d="
M255.601379,835.594482 
	C255.127274,835.873169 254.886536,835.913940 254.843292,836.028931 
	C252.341599,842.682007 246.754684,841.571350 241.427597,841.560486 
	C207.771576,841.491943 174.115341,841.525696 140.459167,841.525696 
	C138.669601,841.525696 136.880051,841.525696 134.326767,841.525696 
	C135.396088,839.812317 135.999680,838.711487 136.726898,837.699463 
	C154.982956,812.293274 173.280502,786.916870 191.496826,761.482239 
	C195.556976,755.813171 202.013184,756.573547 207.621078,755.200134 
	C210.974197,754.378845 214.564911,754.565857 218.035233,754.178040 
	C229.263809,752.923462 237.450546,758.571106 243.733978,766.724182 
	C251.107880,776.292236 257.324615,786.379456 259.622528,798.954895 
	C261.084595,806.955994 263.265564,814.771179 262.736389,822.937439 
	C262.410675,827.963318 262.488953,833.602600 255.601379,835.594482 
z"/>
<path fill="#010101" opacity="0.000000" stroke="none" 
	d="
M206.066483,743.091064 
	C205.915878,743.410645 205.536819,743.524109 205.157761,743.637573 
	C205.121552,743.409729 205.085327,743.181885 205.206131,742.723755 
	C205.521439,742.623962 205.679733,742.754456 206.066483,743.091064 
z"/>
<path fill="#030303" opacity="0.000000" stroke="none" 
	d="
M723.862427,905.931519 
	C725.839539,905.954407 727.343262,905.904053 728.835510,906.012329 
	C736.559204,906.572815 740.771484,910.990479 740.835510,918.540894 
	C740.900635,926.223755 736.924927,930.532349 729.111023,931.223755 
	C727.950928,931.326477 726.784363,931.402649 725.620483,931.406433 
	C719.960999,931.425049 714.301453,931.414795 708.307373,931.414795 
	C708.307373,923.059509 708.307373,914.824158 708.307373,905.931458 
	C713.216187,905.931458 718.300049,905.931458 723.862427,905.931519 
z"/>
<path fill="#010101" opacity="0.000000" stroke="none" 
	d="
M719.935059,877.945496 
	C722.250854,877.955994 724.085083,877.903564 725.912964,877.988159 
	C732.933960,878.313293 736.481445,881.901550 736.430969,888.564453 
	C736.381775,895.062378 732.634705,898.904907 725.771484,899.113647 
	C719.991760,899.289429 714.202393,899.149780 708.200195,899.149780 
	C708.200195,892.074158 708.200195,885.314087 708.200195,877.945496 
	C711.927124,877.945496 715.688843,877.945496 719.935059,877.945496 
z"/>
<path fill="#060606" opacity="0.000000" stroke="none" 
	d="
M96.827087,879.167358 
	C99.495705,887.207764 102.050018,894.872559 104.717346,902.876465 
	C96.750046,902.876465 89.329964,902.876465 81.188591,902.876465 
	C84.972290,891.693420 88.681137,880.731628 92.389984,869.769836 
	C92.741859,869.766418 93.093742,869.763000 93.445625,869.759583 
	C94.534683,872.770325 95.623741,875.781067 96.827087,879.167358 
z"/>
<path fill="#F4F4F4" opacity="1.000000" stroke="none" 
	d="
M281.462555,711.587646 
	C284.415741,699.941650 289.760742,694.529053 298.717773,693.859253 
	C308.545258,693.124329 315.313629,696.901123 318.626648,706.127686 
	C323.679108,720.198486 323.543915,734.570190 318.738647,748.675476 
	C315.962341,756.824890 309.573334,760.837219 301.191650,760.935242 
	C292.783600,761.033508 286.888336,757.181335 283.566467,748.838379 
	C278.789459,736.840698 279.328827,724.434326 281.462555,711.587646 
M313.993530,735.166626 
	C313.993530,733.422485 313.993530,731.678406 313.993530,729.949341 
	C305.089844,729.949341 296.696808,729.949341 287.042206,729.949341 
	C288.340607,736.106873 289.254822,741.910217 290.844025,747.522400 
	C292.155090,752.152222 295.837341,754.388916 300.635254,754.503174 
	C305.438446,754.617615 309.143372,752.449524 310.837952,748.022705 
	C312.300049,744.203003 312.935608,740.066833 313.993530,735.166626 
M290.672455,723.113953 
	C298.418365,723.113953 306.164276,723.113953 315.108582,723.113953 
	C313.442657,716.811340 312.369293,711.150452 310.399628,705.820801 
	C308.907959,701.784729 305.182037,699.998474 300.802734,700.021790 
	C296.393524,700.045227 292.720673,701.995178 291.344696,706.031250 
	C289.659454,710.974365 288.978088,716.267517 288.028961,721.439880 
	C287.948486,721.878479 289.122589,722.547180 290.672455,723.113953 
z"/>
<path fill="#F4F4F4" opacity="1.000000" stroke="none" 
	d="
M412.506195,698.256348 
	C415.848419,700.075623 418.806244,701.772156 422.231232,703.736633 
	C420.475708,706.133972 419.272217,707.777405 417.898010,709.653992 
	C411.305817,703.737122 404.083649,701.584534 396.573242,705.906006 
	C387.919861,710.885254 388.325958,719.956787 387.739502,729.370056 
	C388.861694,728.162964 389.483276,727.625183 389.947418,726.975037 
	C394.992615,719.907654 402.466522,717.327576 411.021149,719.732117 
	C418.583252,721.857727 423.266296,727.784851 424.022003,736.186584 
	C425.618622,753.936829 413.175476,764.811523 396.767456,759.975403 
	C388.570801,757.559509 384.286224,751.446350 382.089355,743.705383 
	C379.590118,734.899048 379.496521,725.911011 381.542725,717.013733 
	C385.168274,701.249207 395.332031,695.065857 412.506195,698.256348 
M410.620605,752.467468 
	C416.187927,748.885254 416.785522,743.368896 416.281921,737.530579 
	C415.604156,729.672607 410.911011,725.373474 403.303528,725.425049 
	C395.666382,725.476868 390.532959,730.331909 389.982544,738.023621 
	C389.082245,750.604004 397.780365,757.076721 410.620605,752.467468 
z"/>
<path fill="#F5F5F5" opacity="1.000000" stroke="none" 
	d="
M475.281830,702.686523 
	C486.910553,712.652039 486.306519,741.894531 478.114807,752.402039 
	C468.979248,764.120178 449.951385,763.802246 441.651276,751.451355 
	C434.050293,740.140869 434.038177,717.982544 441.626770,706.713745 
	C448.936157,695.859558 463.485901,693.994019 475.281830,702.686523 
M444.092590,722.002930 
	C444.661682,729.249390 444.466248,736.663574 446.009460,743.696289 
	C447.634583,751.102478 452.905029,754.134216 460.474243,754.046448 
	C467.473785,753.965271 472.655518,750.458984 474.601257,743.629028 
	C477.342255,734.007385 477.353058,724.193237 474.613922,714.568970 
	C472.667999,707.731689 467.456848,704.144531 460.532837,704.021667 
	C453.133423,703.890442 448.323914,707.209900 445.856506,714.356201 
	C445.101898,716.541809 444.730011,718.859558 444.092590,722.002930 
z"/>
<path fill="#F4F4F4" opacity="1.000000" stroke="none" 
	d="
M516.903198,698.876465 
	C524.234314,703.898438 526.623779,711.588501 523.469116,719.020996 
	C520.846191,725.200623 514.122070,728.690735 507.048889,727.543945 
	C498.399445,726.141602 493.073822,718.941101 494.300385,710.307373 
	C495.553192,701.489014 502.982819,695.925842 511.802124,697.307495 
	C513.419739,697.561035 514.969910,698.244873 516.903198,698.876465 
M511.912628,721.865906 
	C517.321899,719.298889 519.078918,715.901611 517.999451,709.856323 
	C517.318604,706.043274 515.138245,703.577576 511.199463,702.970703 
	C505.412292,702.079102 501.378937,705.212769 500.890625,710.910034 
	C500.237274,718.532898 503.392334,721.949646 511.912628,721.865906 
z"/>
<path fill="#FBFBFB" opacity="1.000000" stroke="none" 
	d="
M595.038086,744.969788 
	C602.791016,744.969788 610.049927,744.969788 617.519043,744.969788 
	C617.519043,748.705078 617.519043,751.967957 617.519043,755.983154 
	C610.321716,755.983154 603.093323,755.838013 595.877258,756.072693 
	C593.743652,756.142029 591.137939,754.536255 589.380005,758.412170 
	C588.730835,759.843384 582.989014,758.964722 579.319214,759.152405 
	C579.319214,756.101685 579.319214,753.532654 579.319214,750.750916 
	C580.986389,750.530457 582.587036,750.318787 584.455383,750.071716 
	C584.631714,748.401917 584.799194,746.815735 584.994141,744.969788 
	C588.257202,744.969788 591.400574,744.969788 595.038086,744.969788 
z"/>
<path fill="#FBFBFB" opacity="1.000000" stroke="none" 
	d="
M661.363037,745.525269 
	C661.660034,749.019592 661.660034,752.155823 661.660034,755.636597 
	C650.781860,755.636597 640.079773,755.636597 629.044556,755.636597 
	C629.044556,752.366455 629.044556,748.968262 629.044556,745.167053 
	C639.584961,745.167053 650.325562,745.167053 661.363037,745.525269 
z"/>
<path fill="#FBFBFB" opacity="1.000000" stroke="none" 
	d="
M579.075806,787.996582 
	C579.075806,781.865601 579.075806,776.233643 579.075806,770.305420 
	C582.729553,770.305420 586.126953,770.305420 589.811646,770.305420 
	C589.811646,780.985962 589.811646,791.711060 589.811646,802.728638 
	C586.477417,802.728638 583.071899,802.728638 579.075806,802.728638 
	C579.075806,798.017639 579.075806,793.256592 579.075806,787.996582 
z"/>
<path fill="#F5F5F5" opacity="1.000000" stroke="none" 
	d="
M363.798950,734.982910 
	C365.587830,734.982910 366.900452,734.982910 368.501648,734.982910 
	C368.501648,736.990845 368.501648,738.700378 368.501648,740.674316 
	C356.472107,740.674316 344.563782,740.674316 332.373505,740.674316 
	C332.373505,738.859070 332.373505,737.143372 332.373505,734.982910 
	C342.751129,734.982910 353.036896,734.982910 363.798950,734.982910 
z"/>
<path fill="#F0F0F0" opacity="1.000000" stroke="none" 
	d="
M339.085266,723.151855 
	C336.621307,723.151855 334.646240,723.151855 332.377472,723.151855 
	C332.377472,721.135010 332.377472,719.418091 332.377472,717.421509 
	C344.367279,717.421509 356.267609,717.421509 368.491089,717.421509 
	C368.491089,719.231628 368.491089,720.941467 368.491089,723.151855 
	C358.794983,723.151855 349.184540,723.151855 339.085266,723.151855 
z"/>
<path fill="#030303" opacity="0.000000" stroke="none" 
	d="
M313.965088,735.618652 
	C312.935608,740.066833 312.300049,744.203003 310.837952,748.022705 
	C309.143372,752.449524 305.438446,754.617615 300.635254,754.503174 
	C295.837341,754.388916 292.155090,752.152222 290.844025,747.522400 
	C289.254822,741.910217 288.340607,736.106873 287.042206,729.949341 
	C296.696808,729.949341 305.089844,729.949341 313.993530,729.949341 
	C313.993530,731.678406 313.993530,733.422485 313.965088,735.618652 
z"/>
<path fill="#030303" opacity="0.000000" stroke="none" 
	d="
M290.193146,723.111450 
	C289.122589,722.547180 287.948486,721.878479 288.028961,721.439880 
	C288.978088,716.267517 289.659454,710.974365 291.344696,706.031250 
	C292.720673,701.995178 296.393524,700.045227 300.802734,700.021790 
	C305.182037,699.998474 308.907959,701.784729 310.399628,705.820801 
	C312.369293,711.150452 313.442657,716.811340 315.108582,723.113953 
	C306.164276,723.113953 298.418365,723.113953 290.193146,723.111450 
z"/>
<path fill="#040404" opacity="0.000000" stroke="none" 
	d="
M410.279846,752.670898 
	C397.780365,757.076721 389.082245,750.604004 389.982544,738.023621 
	C390.532959,730.331909 395.666382,725.476868 403.303528,725.425049 
	C410.911011,725.373474 415.604156,729.672607 416.281921,737.530579 
	C416.785522,743.368896 416.187927,748.885254 410.279846,752.670898 
z"/>
<path fill="#030303" opacity="0.000000" stroke="none" 
	d="
M444.137695,721.559814 
	C444.730011,718.859558 445.101898,716.541809 445.856506,714.356201 
	C448.323914,707.209900 453.133423,703.890442 460.532837,704.021667 
	C467.456848,704.144531 472.667999,707.731689 474.613922,714.568970 
	C477.353058,724.193237 477.342255,734.007385 474.601257,743.629028 
	C472.655518,750.458984 467.473785,753.965271 460.474243,754.046448 
	C452.905029,754.134216 447.634583,751.102478 446.009460,743.696289 
	C444.466248,736.663574 444.661682,729.249390 444.137695,721.559814 
z"/>
<path fill="#040404" opacity="0.000000" stroke="none" 
	d="
M511.511841,721.922119 
	C503.392334,721.949646 500.237274,718.532898 500.890625,710.910034 
	C501.378937,705.212769 505.412292,702.079102 511.199463,702.970703 
	C515.138245,703.577576 517.318604,706.043274 517.999451,709.856323 
	C519.078918,715.901611 517.321899,719.298889 511.511841,721.922119 
z"/>
</svg>