<svg version="1.1" id="Layer_1" xmlns="http://www.w3.org/2000/svg" xmlns:xlink="http://www.w3.org/1999/xlink" x="0px" y="0px"
	 width="100%" viewBox="0 0 1080 766" enable-background="new 0 0 1080 766" xml:space="preserve">
<path fill="#000000" opacity="0.000000" stroke="none" 
	d="
M795.000000,767.000000 
	C530.000000,767.000000 265.500031,767.000000 1.000036,767.000000 
	C1.000024,511.666687 1.000024,256.333405 1.000012,1.000070 
	C360.999969,1.000046 720.999939,1.000046 1081.000000,1.000023 
	C1081.000000,256.333282 1081.000000,511.666534 1081.000000,766.999878 
	C985.833313,767.000000 890.666687,767.000000 795.000000,767.000000 
M162.499374,609.221313 
	C171.545242,609.791077 180.590668,610.367798 189.637863,610.915710 
	C190.280350,610.954651 190.940445,610.812134 191.584045,610.704407 
	C194.460464,610.222595 197.333923,609.290405 200.208374,609.290771 
	C476.530304,609.324524 752.852234,609.428772 1029.174194,609.528320 
	C1031.284058,609.529114 1033.393921,609.528381 1034.225708,609.528381 
	C1036.256470,605.300110 1037.792358,602.102051 1039.518799,598.507385 
	C905.289978,437.087555 770.593933,275.105835 635.823608,113.034752 
	C634.103027,114.409683 632.749084,115.491669 631.250122,116.689545 
	C629.802246,115.151329 628.596863,113.870712 627.174500,112.359596 
	C432.227661,274.535278 237.501923,436.527039 43.296741,598.085754 
	C44.709991,601.928833 45.924381,605.231201 47.391644,609.221191 
	C84.913612,609.221191 123.206474,609.221191 162.499374,609.221313 
M327.089478,295.583923 
	C322.594849,290.933105 318.100250,286.282288 313.409149,281.428101 
	C313.705872,281.190643 314.966431,280.180237 316.228638,279.171906 
	C322.740173,273.970001 325.688446,267.359436 324.354004,258.976013 
	C322.990845,250.412109 318.164490,244.349030 309.997986,242.154984 
	C304.210022,240.599945 297.807098,240.013641 291.861298,240.664169 
	C282.026764,241.740173 274.633362,247.111908 272.347565,257.292572 
	C270.097198,267.315643 273.721619,275.273651 282.407288,280.828278 
	C283.088135,281.263702 283.953857,281.410065 285.533600,281.978760 
	C282.803375,283.390900 281.787964,283.922791 280.766785,284.443329 
	C270.956360,289.443970 266.406891,297.447571 267.177704,308.421631 
	C267.941101,319.289948 273.851135,327.344574 284.656067,330.174957 
	C290.801331,331.784698 297.501923,332.241028 303.869751,331.854523 
	C323.461212,330.665283 333.604401,314.991821 327.089478,295.583923 
M888.360657,252.851624 
	C891.296204,250.068695 888.758057,248.578934 886.923828,247.014038 
	C869.781311,232.388870 841.603760,240.950027 834.025208,263.139404 
	C830.285217,274.089935 830.395264,285.382172 831.585083,296.710541 
	C832.464111,305.080627 834.683533,313.028748 839.555542,320.041504 
	C846.780212,330.440704 859.508545,334.861755 873.216187,331.773224 
	C884.961121,329.126923 892.867737,320.600372 894.482544,307.687531 
	C895.109497,302.674316 894.715759,297.333649 893.715393,292.357513 
	C891.488342,281.278442 883.426392,273.841003 872.892395,272.175323 
	C860.408325,270.201263 850.840698,274.330658 844.574158,284.365356 
	C843.974548,285.325562 843.225342,286.192352 842.545532,287.102509 
	C842.046387,286.919647 841.547241,286.736786 841.048096,286.553894 
	C842.081482,279.534149 842.474854,272.343048 844.297607,265.534607 
	C847.064392,255.199860 854.786743,250.077698 865.377563,249.885834 
	C872.785156,249.751648 878.905151,252.539749 884.511292,257.985962 
	C885.844666,256.232452 886.909607,254.832001 888.360657,252.851624 
M1062.510742,677.958496 
	C1071.149170,666.042725 1066.293945,650.394104 1052.190308,648.542236 
	C1039.692261,646.901184 1026.808594,648.198181 1013.956421,648.198181 
	C1013.956421,674.146912 1013.956421,700.434937 1013.956421,726.873718 
	C1026.434448,726.873718 1038.767944,727.326660 1051.052368,726.744324 
	C1062.980347,726.178894 1070.515747,718.956360 1071.875244,708.264587 
	C1073.457520,695.821411 1068.967041,688.501709 1057.014404,683.997559 
	C1056.650024,683.860291 1056.373413,683.490112 1055.967651,683.155762 
	C1058.119873,681.488281 1060.061768,679.983765 1062.510742,677.958496 
M32.986195,696.152832 
	C41.474609,696.152649 49.976562,696.437317 58.445850,696.034729 
	C62.836651,695.826111 65.001678,697.003052 66.112846,701.403076 
	C67.520966,706.979004 69.706459,712.358643 71.550995,717.806091 
	C74.933372,717.806091 78.024574,717.806091 81.663986,717.806091 
	C72.327019,691.033203 63.114567,664.617371 53.908585,638.220093 
	C50.786434,638.220093 48.086323,638.512207 45.476814,638.150574 
	C41.709366,637.628418 40.321598,639.408630 39.223133,642.696960 
	C34.597218,656.544861 29.728828,670.311768 24.934393,684.103210 
	C21.048981,695.279846 17.142471,706.449158 13.145899,717.906738 
	C16.756294,717.906738 19.736820,717.906738 23.037828,717.906738 
	C25.046116,711.980408 26.966690,705.990356 29.149740,700.097473 
	C29.695589,698.624023 31.086399,697.463623 32.986195,696.152832 
M686.666321,25.836607 
	C696.957703,25.248426 705.344604,28.375023 710.194092,38.812366 
	C712.850525,37.102051 714.997620,35.719639 718.378296,33.543053 
	C714.499084,29.389421 711.626282,24.919838 707.574890,22.216728 
	C690.075684,10.541335 664.564819,18.260283 655.903931,37.392479 
	C652.006775,46.001469 651.419983,55.085049 652.149353,64.282600 
	C654.119934,89.133293 674.187683,103.952431 697.719910,98.027603 
	C708.569275,95.296028 714.958130,88.139175 717.994995,77.258842 
	C715.518982,76.043098 713.218140,74.913383 710.672424,73.663437 
	C708.144653,80.172318 705.289978,85.697128 698.986633,88.525398 
	C684.711853,94.930450 668.557983,87.869286 664.047913,72.944496 
	C661.089966,63.155807 661.131470,53.206978 664.046631,43.409168 
	C667.241943,32.670055 674.640198,26.860271 686.666321,25.836607 
z"/>
<path fill="#F9F9F9" opacity="1.000000" stroke="none" 
	d="
M161.999359,609.221252 
	C123.206474,609.221191 84.913612,609.221191 47.391644,609.221191 
	C45.924381,605.231201 44.709991,601.928833 43.296741,598.085754 
	C237.501923,436.527039 432.227661,274.535278 627.174500,112.359596 
	C628.596863,113.870712 629.802246,115.151329 631.250122,116.689545 
	C632.749084,115.491669 634.103027,114.409683 635.823608,113.034752 
	C770.593933,275.105835 905.289978,437.087555 1039.518799,598.507385 
	C1037.792358,602.102051 1036.256470,605.300110 1034.225708,609.528381 
	C1033.393921,609.528381 1031.284058,609.529114 1029.174194,609.528320 
	C752.852234,609.428772 476.530304,609.324524 200.208374,609.290771 
	C197.333923,609.290405 194.460464,610.222595 191.584045,610.704407 
	C190.940445,610.812134 190.280350,610.954651 189.637863,610.915710 
	C180.590668,610.367798 171.545242,609.791077 161.999359,609.221252 
M618.627258,135.099136 
	C601.293640,149.547287 583.959961,163.995438 566.525330,178.527786 
	C569.125244,181.750015 571.376770,184.540497 573.761536,187.496170 
	C570.469238,190.193207 567.564758,192.572540 564.587158,195.011749 
	C561.984985,191.955231 559.661011,189.225418 557.152954,186.279495 
	C422.676971,298.151672 288.601715,409.690460 154.007477,521.661011 
	C170.005096,526.148804 181.288773,535.870789 189.087799,548.762817 
	C197.906555,563.340515 204.162979,579.124817 198.522583,597.031250 
	C473.269531,597.031250 747.552124,597.031250 1022.577637,597.031250 
	C904.653625,455.217987 787.235596,314.013092 669.666626,172.626785 
	C661.250671,179.587219 653.075439,186.348602 644.741150,193.241516 
	C642.128479,190.063736 639.743469,187.162933 637.148010,184.006012 
	C645.565613,176.965210 653.646423,170.206161 661.906738,163.296936 
	C651.266602,150.512726 640.883789,138.037643 630.375305,125.411537 
	C626.354004,128.744141 622.775024,131.710205 618.627258,135.099136 
M173.321655,546.185303 
	C168.696991,541.852783 163.170486,539.259094 157.519836,536.433716 
	C152.730804,534.039124 149.420425,534.034363 145.132874,536.017395 
	C142.294159,537.330261 139.264633,538.233276 136.312149,539.296570 
	C134.288376,540.025452 131.842163,540.216919 130.280914,541.497375 
	C112.525681,556.059692 94.900963,570.781189 77.250366,585.471008 
	C72.885574,589.103699 68.553154,592.775269 63.313969,597.178528 
	C103.730400,597.178528 142.830917,597.191162 181.931259,597.110107 
	C182.976929,597.107910 184.732269,596.290222 184.950882,595.513489 
	C186.504471,589.993591 189.233170,584.261108 188.780533,578.830261 
	C187.758728,566.569824 183.539307,555.192017 173.321655,546.185303 
z"/>
<path fill="#F9F9F9" opacity="1.000000" stroke="none" 
	d="
M327.249481,295.935242 
	C333.604401,314.991821 323.461212,330.665283 303.869751,331.854523 
	C297.501923,332.241028 290.801331,331.784698 284.656067,330.174957 
	C273.851135,327.344574 267.941101,319.289948 267.177704,308.421631 
	C266.406891,297.447571 270.956360,289.443970 280.766785,284.443329 
	C281.787964,283.922791 282.803375,283.390900 285.533600,281.978760 
	C283.953857,281.410065 283.088135,281.263702 282.407288,280.828278 
	C273.721619,275.273651 270.097198,267.315643 272.347565,257.292572 
	C274.633362,247.111908 282.026764,241.740173 291.861298,240.664169 
	C297.807098,240.013641 304.210022,240.599945 309.997986,242.154984 
	C318.164490,244.349030 322.990845,250.412109 324.354004,258.976013 
	C325.688446,267.359436 322.740173,273.970001 316.228638,279.171906 
	C314.966431,280.180237 313.705872,281.190643 313.409149,281.428101 
	C318.100250,286.282288 322.594849,290.933105 327.249481,295.935242 
M281.862885,294.486450 
	C274.661072,305.328735 278.220734,318.846069 289.662994,321.605011 
	C295.083405,322.911987 301.245453,322.672119 306.774994,321.601532 
	C313.347656,320.329010 317.143463,315.244781 317.912689,308.484192 
	C318.736206,301.246460 317.031555,294.899902 310.232239,290.957794 
	C301.988617,286.178314 289.586090,287.534790 281.862885,294.486450 
M311.221893,254.457413 
	C305.676941,248.855362 297.656250,247.130524 290.637848,250.155487 
	C285.215088,252.492706 282.487823,256.841858 282.112335,262.609222 
	C281.729706,268.486267 283.525940,273.476990 288.851929,276.638336 
	C295.153625,280.378906 304.863770,279.478271 309.883850,274.776154 
	C314.936798,270.043243 315.639374,262.500977 311.221893,254.457413 
z"/>
<path fill="#F8F8F8" opacity="1.000000" stroke="none" 
	d="
M888.167603,253.141586 
	C886.909607,254.832001 885.844666,256.232452 884.511292,257.985962 
	C878.905151,252.539749 872.785156,249.751648 865.377563,249.885834 
	C854.786743,250.077698 847.064392,255.199860 844.297607,265.534607 
	C842.474854,272.343048 842.081482,279.534149 841.048096,286.553894 
	C841.547241,286.736786 842.046387,286.919647 842.545532,287.102509 
	C843.225342,286.192352 843.974548,285.325562 844.574158,284.365356 
	C850.840698,274.330658 860.408325,270.201263 872.892395,272.175323 
	C883.426392,273.841003 891.488342,281.278442 893.715393,292.357513 
	C894.715759,297.333649 895.109497,302.674316 894.482544,307.687531 
	C892.867737,320.600372 884.961121,329.126923 873.216187,331.773224 
	C859.508545,334.861755 846.780212,330.440704 839.555542,320.041504 
	C834.683533,313.028748 832.464111,305.080627 831.585083,296.710541 
	C830.395264,285.382172 830.285217,274.089935 834.025208,263.139404 
	C841.603760,240.950027 869.781311,232.388870 886.923828,247.014038 
	C888.758057,248.578934 891.296204,250.068695 888.167603,253.141586 
M854.948669,320.875854 
	C866.655212,325.492554 877.705566,322.510406 881.680237,313.264587 
	C884.988953,305.568085 885.146790,297.400482 880.892944,290.197266 
	C878.827759,286.700287 874.719360,283.485016 870.846008,282.161804 
	C860.973328,278.789124 850.910461,283.197723 847.134216,291.547699 
	C843.007874,300.671936 844.798401,315.387665 854.948669,320.875854 
z"/>
<path fill="#F8F8F8" opacity="1.000000" stroke="none" 
	d="
M1062.257202,678.218872 
	C1060.061768,679.983765 1058.119873,681.488281 1055.967651,683.155762 
	C1056.373413,683.490112 1056.650024,683.860291 1057.014404,683.997559 
	C1068.967041,688.501709 1073.457520,695.821411 1071.875244,708.264587 
	C1070.515747,718.956360 1062.980347,726.178894 1051.052368,726.744324 
	C1038.767944,727.326660 1026.434448,726.873718 1013.956421,726.873718 
	C1013.956421,700.434937 1013.956421,674.146912 1013.956421,648.198181 
	C1026.808594,648.198181 1039.692261,646.901184 1052.190308,648.542236 
	C1066.293945,650.394104 1071.149170,666.042725 1062.257202,678.218872 
M1033.518555,688.685547 
	C1030.224976,688.685547 1026.931396,688.685547 1023.394409,688.685547 
	C1023.394409,698.977783 1023.394409,708.861572 1023.394409,718.938293 
	C1032.421021,718.938293 1041.231689,719.400085 1049.970459,718.805115 
	C1058.281494,718.239258 1062.487671,712.536499 1062.392334,703.661804 
	C1062.297729,694.838013 1057.890991,689.635010 1049.474609,688.966553 
	C1044.511597,688.572327 1039.502319,688.759705 1033.518555,688.685547 
M1034.505737,655.094421 
	C1030.769165,655.094421 1027.032593,655.094421 1023.455566,655.094421 
	C1023.455566,664.078857 1023.455566,672.305237 1023.455566,680.156494 
	C1031.869263,680.156494 1040.015869,680.745483 1048.029907,679.968872 
	C1054.361816,679.355347 1057.381226,674.265320 1057.229370,667.254578 
	C1057.084717,660.577026 1054.308472,656.828613 1047.875977,655.753357 
	C1043.822876,655.075867 1039.621582,655.283691 1034.505737,655.094421 
z"/>
<path fill="#F7F7F7" opacity="1.000000" stroke="none" 
	d="
M32.537529,696.156128 
	C31.086399,697.463623 29.695589,698.624023 29.149740,700.097473 
	C26.966690,705.990356 25.046116,711.980408 23.037828,717.906738 
	C19.736820,717.906738 16.756294,717.906738 13.145899,717.906738 
	C17.142471,706.449158 21.048981,695.279846 24.934393,684.103210 
	C29.728828,670.311768 34.597218,656.544861 39.223133,642.696960 
	C40.321598,639.408630 41.709366,637.628418 45.476814,638.150574 
	C48.086323,638.512207 50.786434,638.220093 53.908585,638.220093 
	C63.114567,664.617371 72.327019,691.033203 81.663986,717.806091 
	C78.024574,717.806091 74.933372,717.806091 71.550995,717.806091 
	C69.706459,712.358643 67.520966,706.979004 66.112846,701.403076 
	C65.001678,697.003052 62.836651,695.826111 58.445850,696.034729 
	C49.976562,696.437317 41.474609,696.152649 32.537529,696.156128 
M53.428471,688.174500 
	C55.898979,688.174500 58.369488,688.174500 61.511044,688.174500 
	C56.863708,674.427246 52.390682,661.195557 47.917660,647.963928 
	C47.536884,647.939087 47.156109,647.914185 46.775337,647.889282 
	C42.282116,661.159363 37.788898,674.429443 33.134853,688.174500 
	C40.182922,688.174500 46.316181,688.174500 53.428471,688.174500 
z"/>
<path fill="#F7F7F7" opacity="1.000000" stroke="none" 
	d="
M686.216553,25.856567 
	C674.640198,26.860271 667.241943,32.670055 664.046631,43.409168 
	C661.131470,53.206978 661.089966,63.155807 664.047913,72.944496 
	C668.557983,87.869286 684.711853,94.930450 698.986633,88.525398 
	C705.289978,85.697128 708.144653,80.172318 710.672424,73.663437 
	C713.218140,74.913383 715.518982,76.043098 717.994995,77.258842 
	C714.958130,88.139175 708.569275,95.296028 697.719910,98.027603 
	C674.187683,103.952431 654.119934,89.133293 652.149353,64.282600 
	C651.419983,55.085049 652.006775,46.001469 655.903931,37.392479 
	C664.564819,18.260283 690.075684,10.541335 707.574890,22.216728 
	C711.626282,24.919838 714.499084,29.389421 718.378296,33.543053 
	C714.997620,35.719639 712.850525,37.102051 710.194092,38.812366 
	C705.344604,28.375023 696.957703,25.248426 686.216553,25.856567 
z"/>
<path fill="#000000" opacity="0.000000" stroke="none" 
	d="
M618.911621,134.887711 
	C622.775024,131.710205 626.354004,128.744141 630.375305,125.411537 
	C640.883789,138.037643 651.266602,150.512726 661.906738,163.296936 
	C653.646423,170.206161 645.565613,176.965210 637.148010,184.006012 
	C639.743469,187.162933 642.128479,190.063736 644.741150,193.241516 
	C653.075439,186.348602 661.250671,179.587219 669.666626,172.626785 
	C787.235596,314.013092 904.653625,455.217987 1022.577637,597.031250 
	C747.552124,597.031250 473.269531,597.031250 198.522583,597.031250 
	C204.162979,579.124817 197.906555,563.340515 189.087799,548.762817 
	C181.288773,535.870789 170.005096,526.148804 154.007477,521.661011 
	C288.601715,409.690460 422.676971,298.151672 557.152954,186.279495 
	C559.661011,189.225418 561.984985,191.955231 564.587158,195.011749 
	C567.564758,192.572540 570.469238,190.193207 573.761536,187.496170 
	C571.376770,184.540497 569.125244,181.750015 566.525330,178.527786 
	C583.959961,163.995438 601.293640,149.547287 618.911621,134.887711 
M241.586288,485.774017 
	C228.415588,482.525116 217.979950,486.734833 213.741577,498.498810 
	C207.398438,516.104919 207.407639,534.063171 214.150253,551.691284 
	C216.433868,557.661682 220.694565,562.046570 227.047516,564.015686 
	C239.606689,567.908569 251.511719,562.691895 255.787888,550.288879 
	C261.537872,533.611023 261.470428,516.584717 255.707977,499.841949 
	C253.475555,493.355743 249.253265,488.231964 241.586288,485.774017 
M621.500061,197.019684 
	C614.502197,202.849716 607.504333,208.679749 600.250671,214.722916 
	C602.849060,217.893875 605.230286,220.799820 607.855347,224.003311 
	C617.167358,216.272308 626.195129,208.777298 635.539001,201.019882 
	C632.821716,197.774368 630.333252,194.802185 627.830627,191.813095 
	C625.641174,193.611450 623.842957,195.088501 621.500061,197.019684 
M583.443054,199.049301 
	C582.302246,198.671844 580.706604,197.621735 580.098999,198.032700 
	C577.380493,199.871124 574.943604,202.125992 572.289062,204.326736 
	C580.074768,213.692841 587.615479,222.764206 595.277405,231.981308 
	C598.415344,229.354797 601.304993,226.936157 604.494934,224.266129 
	C597.516296,215.901398 590.709595,207.742752 583.443054,199.049301 
z"/>
<path fill="#010101" opacity="0.000000" stroke="none" 
	d="
M173.580276,546.428955 
	C183.539307,555.192017 187.758728,566.569824 188.780533,578.830261 
	C189.233170,584.261108 186.504471,589.993591 184.950882,595.513489 
	C184.732269,596.290222 182.976929,597.107910 181.931259,597.110107 
	C142.830917,597.191162 103.730400,597.178528 63.313969,597.178528 
	C68.553154,592.775269 72.885574,589.103699 77.250366,585.471008 
	C94.900963,570.781189 112.525681,556.059692 130.280914,541.497375 
	C131.842163,540.216919 134.288376,540.025452 136.312149,539.296570 
	C139.264633,538.233276 142.294159,537.330261 145.132874,536.017395 
	C149.420425,534.034363 152.730804,534.039124 157.519836,536.433716 
	C163.170486,539.259094 168.696991,541.852783 173.580276,546.428955 
z"/>
<path fill="#040404" opacity="0.000000" stroke="none" 
	d="
M282.097778,294.198364 
	C289.586090,287.534790 301.988617,286.178314 310.232239,290.957794 
	C317.031555,294.899902 318.736206,301.246460 317.912689,308.484192 
	C317.143463,315.244781 313.347656,320.329010 306.774994,321.601532 
	C301.245453,322.672119 295.083405,322.911987 289.662994,321.605011 
	C278.220734,318.846069 274.661072,305.328735 282.097778,294.198364 
z"/>
<path fill="#030303" opacity="0.000000" stroke="none" 
	d="
M311.471954,254.750366 
	C315.639374,262.500977 314.936798,270.043243 309.883850,274.776154 
	C304.863770,279.478271 295.153625,280.378906 288.851929,276.638336 
	C283.525940,273.476990 281.729706,268.486267 282.112335,262.609222 
	C282.487823,256.841858 285.215088,252.492706 290.637848,250.155487 
	C297.656250,247.130524 305.676941,248.855362 311.471954,254.750366 
z"/>
<path fill="#030303" opacity="0.000000" stroke="none" 
	d="
M854.619385,320.683472 
	C844.798401,315.387665 843.007874,300.671936 847.134216,291.547699 
	C850.910461,283.197723 860.973328,278.789124 870.846008,282.161804 
	C874.719360,283.485016 878.827759,286.700287 880.892944,290.197266 
	C885.146790,297.400482 884.988953,305.568085 881.680237,313.264587 
	C877.705566,322.510406 866.655212,325.492554 854.619385,320.683472 
z"/>
<path fill="#020202" opacity="0.000000" stroke="none" 
	d="
M1034.016235,688.685547 
	C1039.502319,688.759705 1044.511597,688.572327 1049.474609,688.966553 
	C1057.890991,689.635010 1062.297729,694.838013 1062.392334,703.661804 
	C1062.487671,712.536499 1058.281494,718.239258 1049.970459,718.805115 
	C1041.231689,719.400085 1032.421021,718.938293 1023.394409,718.938293 
	C1023.394409,708.861572 1023.394409,698.977783 1023.394409,688.685547 
	C1026.931396,688.685547 1030.224976,688.685547 1034.016235,688.685547 
z"/>
<path fill="#060606" opacity="0.000000" stroke="none" 
	d="
M1034.996338,655.094421 
	C1039.621582,655.283691 1043.822876,655.075867 1047.875977,655.753357 
	C1054.308472,656.828613 1057.084717,660.577026 1057.229370,667.254578 
	C1057.381226,674.265320 1054.361816,679.355347 1048.029907,679.968872 
	C1040.015869,680.745483 1031.869263,680.156494 1023.455566,680.156494 
	C1023.455566,672.305237 1023.455566,664.078857 1023.455566,655.094421 
	C1027.032593,655.094421 1030.769165,655.094421 1034.996338,655.094421 
z"/>
<path fill="#050505" opacity="0.000000" stroke="none" 
	d="
M52.938953,688.174500 
	C46.316181,688.174500 40.182922,688.174500 33.134853,688.174500 
	C37.788898,674.429443 42.282116,661.159363 46.775337,647.889282 
	C47.156109,647.914185 47.536884,647.939087 47.917660,647.963928 
	C52.390682,661.195557 56.863708,674.427246 61.511044,688.174500 
	C58.369488,688.174500 55.898979,688.174500 52.938953,688.174500 
z"/>
<path fill="#F6F6F6" opacity="1.000000" stroke="none" 
	d="
M241.966202,485.875183 
	C249.253265,488.231964 253.475555,493.355743 255.707977,499.841949 
	C261.470428,516.584717 261.537872,533.611023 255.787888,550.288879 
	C251.511719,562.691895 239.606689,567.908569 227.047516,564.015686 
	C220.694565,562.046570 216.433868,557.661682 214.150253,551.691284 
	C207.407639,534.063171 207.398438,516.104919 213.741577,498.498810 
	C217.979950,486.734833 228.415588,482.525116 241.966202,485.875183 
M220.193634,542.980591 
	C220.615707,544.411194 220.975739,545.863647 221.470367,547.268677 
	C223.890198,554.142273 227.801407,557.289368 234.033218,557.436401 
	C240.499771,557.589111 245.024384,554.659729 247.173569,547.476379 
	C249.028320,541.277222 249.749039,534.738708 251.023987,528.073853 
	C239.532104,528.073853 229.325775,528.073853 218.536362,528.073853 
	C219.065506,532.990234 219.558411,537.570007 220.193634,542.980591 
M223.550461,498.196960 
	C219.836304,504.905151 218.968231,512.175537 218.939850,519.757019 
	C229.541336,519.757019 239.774353,519.757019 251.019577,519.757019 
	C249.618576,513.354187 248.955048,507.175903 246.880280,501.514832 
	C242.935852,490.752350 231.638229,489.022461 223.550461,498.196960 
z"/>
<path fill="#F9F9F9" opacity="1.000000" stroke="none" 
	d="
M621.772339,196.792618 
	C623.842957,195.088501 625.641174,193.611450 627.830627,191.813095 
	C630.333252,194.802185 632.821716,197.774368 635.539001,201.019882 
	C626.195129,208.777298 617.167358,216.272308 607.855347,224.003311 
	C605.230286,220.799820 602.849060,217.893875 600.250671,214.722916 
	C607.504333,208.679749 614.502197,202.849716 621.772339,196.792618 
z"/>
<path fill="#F9F9F9" opacity="1.000000" stroke="none" 
	d="
M583.672974,199.316711 
	C590.709595,207.742752 597.516296,215.901398 604.494934,224.266129 
	C601.304993,226.936157 598.415344,229.354797 595.277405,231.981308 
	C587.615479,222.764206 580.074768,213.692841 572.289062,204.326736 
	C574.943604,202.125992 577.380493,199.871124 580.098999,198.032700 
	C580.706604,197.621735 582.302246,198.671844 583.672974,199.316711 
z"/>
<path fill="#030303" opacity="0.000000" stroke="none" 
	d="
M220.122482,542.565186 
	C219.558411,537.570007 219.065506,532.990234 218.536362,528.073853 
	C229.325775,528.073853 239.532104,528.073853 251.023987,528.073853 
	C249.749039,534.738708 249.028320,541.277222 247.173569,547.476379 
	C245.024384,554.659729 240.499771,557.589111 234.033218,557.436401 
	C227.801407,557.289368 223.890198,554.142273 221.470367,547.268677 
	C220.975739,545.863647 220.615707,544.411194 220.122482,542.565186 
z"/>
<path fill="#030303" opacity="0.000000" stroke="none" 
	d="
M223.759445,497.883179 
	C231.638229,489.022461 242.935852,490.752350 246.880280,501.514832 
	C248.955048,507.175903 249.618576,513.354187 251.019577,519.757019 
	C239.774353,519.757019 229.541336,519.757019 218.939850,519.757019 
	C218.968231,512.175537 219.836304,504.905151 223.759445,497.883179 
z"/>
</svg>