<svg version="1.1" id="Layer_1" xmlns="http://www.w3.org/2000/svg" xmlns:xlink="http://www.w3.org/1999/xlink" x="0px" y="0px"
	 width="100%" viewBox="0 0 1080 1080" enable-background="new 0 0 1080 1080" xml:space="preserve">
<path fill="#000000" opacity="0.000000" stroke="none" 
	d="
M714.000000,1081.000000 
	C476.027405,1081.000000 238.554810,1081.000000 1.041109,1081.000000 
	C1.041109,721.068970 1.041109,361.137909 1.041109,1.103423 
	C360.889496,1.103423 720.779053,1.103423 1080.834229,1.103423 
	C1080.834229,360.999939 1080.834229,720.999939 1080.834229,1081.000000 
	C958.804138,1081.000000 836.652039,1081.000000 714.000000,1081.000000 
M313.593658,573.027344 
	C248.672531,663.172180 183.751404,753.317078 119.455078,842.594360 
	C121.231270,846.163513 122.672546,849.059631 124.282875,852.295410 
	C308.641022,852.295410 493.709839,852.295410 678.856445,852.295410 
	C679.019470,850.414062 679.157959,848.815918 679.293030,847.258057 
	C681.203003,847.066284 682.792236,846.906677 684.384827,846.746704 
	C684.384827,589.376526 684.384827,332.314240 684.384827,75.912811 
	C680.752808,74.679520 677.579224,73.601906 674.106995,72.422859 
	C554.230225,238.880096 434.120789,405.660370 313.593658,573.027344 
M391.045746,952.603394 
	C390.538605,951.352905 390.031433,950.102478 389.524261,948.852051 
	C391.258331,948.205322 392.988342,947.023987 394.727142,947.010864 
	C400.196381,946.969604 405.101318,945.894653 407.974945,940.778259 
	C410.665771,935.987305 409.936981,931.310608 406.705505,927.631714 
	C408.595398,924.776611 410.237915,922.295166 412.228485,919.288025 
	C409.753418,918.647095 408.366882,918.288025 406.925049,917.914612 
	C406.010590,920.115051 405.212402,922.035645 404.347992,924.115662 
	C397.148315,921.480896 390.511780,921.067566 385.494293,927.425781 
	C381.634827,932.316650 382.609436,937.526978 388.108521,944.852295 
	C382.823669,949.059814 382.610168,950.681274 386.625916,956.112061 
	C378.840179,960.368164 377.892944,967.420227 384.521515,971.778748 
	C390.011505,975.388611 403.528839,975.010376 408.927063,971.125977 
	C412.792419,968.344543 413.809998,964.444458 412.864532,960.091492 
	C411.973663,955.989868 408.840118,954.133057 404.864899,953.768372 
	C400.562683,953.373718 396.241852,953.182007 391.045746,952.603394 
M444.541840,929.150146 
	C444.548309,928.032227 444.170898,926.708435 444.637878,925.837402 
	C445.753815,923.755981 447.267670,921.887878 449.028351,919.345154 
	C446.584381,918.700989 445.083649,918.305481 443.677155,917.934753 
	C442.680176,920.275208 441.864746,922.189453 441.066559,924.063110 
	C431.931519,921.090271 425.219666,922.535950 421.844940,927.956116 
	C418.470978,933.375061 419.648560,939.077209 425.306244,944.716736 
	C419.672241,948.832886 419.383179,950.568970 422.648712,955.217163 
	C420.576111,958.210938 417.496704,960.739319 417.320312,963.456177 
	C417.145630,966.146667 419.242859,969.842957 421.500946,971.659058 
	C426.628632,975.783020 440.459076,975.003418 445.746643,971.050354 
	C449.309418,968.386780 450.618073,964.749268 449.743042,960.498535 
	C448.854004,956.179504 445.732880,954.182251 441.538147,953.741882 
	C438.895630,953.464355 436.213165,953.498047 433.592285,953.102783 
	C430.800354,952.681702 426.079376,954.558167 426.256927,949.705566 
	C426.417938,945.303772 430.852173,947.120667 433.529694,946.981201 
	C443.402679,946.466919 448.404236,939.028381 444.541840,929.150146 
M700.689636,450.263306 
	C697.564209,457.428833 697.433105,464.839813 699.254639,472.279083 
	C701.645020,482.041138 709.599548,487.928040 719.819763,487.821747 
	C730.114929,487.714691 737.989319,481.842133 739.869385,471.814301 
	C740.829529,466.693481 740.933777,461.167603 740.152771,456.017731 
	C738.696045,446.412689 732.631104,440.494507 724.235535,439.075958 
	C713.886536,437.327332 706.293579,440.750366 700.689636,450.263306 
M1062.761841,482.266388 
	C1062.761841,467.193146 1062.761841,452.119873 1062.761841,436.923584 
	C1060.608032,436.923584 1059.022949,436.923584 1056.895508,436.923584 
	C1056.895508,443.204865 1056.895508,449.215179 1056.895508,455.766327 
	C1047.759277,446.262360 1032.411865,449.640991 1030.465332,463.500183 
	C1029.773071,468.428650 1030.171387,473.927521 1031.672974,478.657684 
	C1034.550659,487.722015 1045.721558,490.672150 1053.389771,485.043396 
	C1054.541870,484.197815 1055.567749,483.180542 1056.946045,481.988342 
	C1057.076782,483.883026 1057.174561,485.301514 1057.275513,486.765167 
	C1060.410400,487.192993 1063.485962,488.027618 1062.761841,482.266388 
M542.865417,924.187622 
	C534.495056,930.127808 534.046204,938.603088 535.872742,947.465088 
	C538.426147,959.853516 550.555420,963.800476 560.263977,955.652039 
	C560.732361,955.258972 561.292847,954.975525 561.920532,954.569885 
	C562.283752,956.212097 562.585693,957.577087 562.868530,958.856079 
	C564.654968,958.856079 566.111023,958.856079 567.683350,958.856079 
	C567.683350,942.116821 567.683350,925.554993 567.683350,908.645203 
	C565.816223,908.731995 564.237122,908.805420 562.258057,908.897400 
	C562.258057,915.177673 562.258057,921.076050 562.258057,927.845947 
	C556.398071,922.025391 550.318542,920.935547 542.865417,924.187622 
M251.038147,949.479614 
	C252.158829,952.693970 253.279526,955.908325 254.400818,959.124390 
	C256.629425,958.986755 258.324921,958.882019 260.300385,958.760010 
	C255.007782,943.510986 249.974915,928.765991 244.661194,914.122986 
	C244.190308,912.825439 241.908707,911.478088 240.431625,911.436157 
	C238.685608,911.386475 235.754929,912.310486 235.305725,913.534607 
	C229.828598,928.460876 224.713516,943.520020 219.403122,958.837158 
	C221.588943,958.837158 223.366592,958.837158 226.202988,958.837158 
	C225.138916,944.109375 235.281601,945.442078 244.939880,946.002197 
	C245.768875,946.050293 246.758789,945.721741 247.401581,946.070435 
	C248.647034,946.745972 249.698502,947.779175 251.038147,949.479614 
M201.236496,405.278381 
	C198.183090,404.487640 195.063126,403.888458 192.093582,402.856445 
	C188.582611,401.636230 186.657349,399.019196 187.083359,395.177429 
	C187.519363,391.245422 190.218430,389.510193 193.831879,388.989990 
	C199.493530,388.174957 204.657257,389.272247 208.986069,393.881012 
	C210.153305,392.143951 211.021576,390.851807 211.844040,389.627838 
	C206.957550,384.715271 203.012817,383.378693 195.232468,383.804443 
	C187.207214,384.243530 182.095261,388.271606 181.310211,394.774750 
	C180.522568,401.299377 184.537933,406.502533 192.213348,408.772125 
	C195.553940,409.759979 198.980530,410.468262 202.293762,411.534424 
	C206.477188,412.880585 208.529587,415.846436 207.965347,420.294037 
	C207.428223,424.528076 204.747208,426.567169 200.661407,427.232330 
	C193.428223,428.409912 187.726486,425.933655 183.365875,419.778046 
	C182.053986,421.390686 181.032532,422.646301 180.106277,423.784912 
	C183.436020,432.455505 200.337311,436.138458 208.714981,429.470245 
	C211.270050,427.436554 213.170486,423.564117 213.735840,420.254517 
	C214.984253,412.946259 210.909546,408.385101 201.236496,405.278381 
M463.044800,957.618958 
	C469.680725,960.617432 476.245789,961.043762 482.366364,956.515503 
	C483.969849,955.329102 484.973969,953.332642 486.477234,951.424011 
	C484.707489,950.470032 483.497864,949.817993 482.368866,949.209412 
	C478.010956,954.599854 473.633087,956.045349 468.169922,954.154785 
	C463.491913,952.535828 461.542236,949.183533 461.553406,942.225220 
	C469.773224,942.225220 478.013458,942.225220 486.516174,942.225220 
	C486.678558,935.258667 486.886688,928.722351 480.589722,924.791565 
	C474.766754,921.156555 468.464203,921.297791 462.662079,924.970154 
	C452.830414,931.192810 452.798309,949.319763 463.044800,957.618958 
M972.838440,458.810638 
	C973.543823,462.795807 970.895386,464.085358 967.824524,464.941986 
	C964.159668,465.964386 960.357666,466.596436 956.814148,467.927521 
	C952.114746,469.692841 950.594055,473.625183 951.059875,478.398102 
	C951.510498,483.015625 953.879456,486.039551 958.499207,487.245270 
	C964.378296,488.779572 969.280029,487.272766 973.154907,482.529388 
	C976.223206,487.406250 977.050720,487.733917 983.768250,486.540588 
	C983.186523,485.197662 982.672974,482.951477 982.139709,482.946777 
	C977.385681,482.904999 978.540466,479.421814 978.457458,476.860931 
	C978.306763,472.209045 978.457825,467.548248 978.405457,462.892059 
	C978.299744,453.498993 973.395203,448.901001 964.126648,450.600311 
	C960.145203,451.330261 956.542786,454.141449 952.786987,456.044403 
	C952.600037,456.139160 952.594177,456.591400 952.407043,457.184296 
	C953.183533,458.156738 954.070374,459.267365 954.960938,460.382690 
	C962.698975,453.939331 967.714050,453.337982 972.838440,458.810638 
M915.802124,455.982605 
	C916.370300,457.472229 916.938416,458.961853 917.154419,459.528137 
	C921.626465,457.862366 925.267944,456.003937 929.126831,455.231018 
	C932.093323,454.636810 935.365112,455.640289 935.876587,459.491272 
	C936.370422,463.209045 933.451294,464.182678 930.641663,464.979340 
	C926.820557,466.062897 922.824585,466.708893 919.191467,468.230164 
	C914.781250,470.076813 913.572205,474.082001 914.075012,478.601257 
	C914.563904,482.994324 916.845825,485.930328 921.220093,487.178711 
	C927.280701,488.908386 932.284058,487.167023 936.447693,482.368652 
	C938.329590,487.715210 942.010254,487.737915 947.018005,486.526306 
	C946.177429,485.045288 945.566956,482.978821 944.902527,482.961304 
	C940.873718,482.855225 941.485962,479.997437 941.442566,477.619019 
	C941.351562,472.627808 941.469055,467.633026 941.401794,462.641052 
	C941.281250,453.697479 936.725220,449.234406 927.846863,450.521332 
	C923.811768,451.106201 920.072632,453.733459 915.802124,455.982605 
M790.639771,457.261200 
	C786.998901,463.211151 787.049194,469.675812 788.505432,476.113373 
	C790.081299,483.079834 794.917664,486.726471 801.897949,487.684265 
	C809.092712,488.671478 814.515625,486.187775 817.962097,480.260132 
	C818.098633,480.025269 817.979492,479.641785 817.979492,479.105927 
	C816.942993,478.490540 815.836365,477.833527 814.757385,477.192902 
	C810.055847,482.747650 805.281555,484.239655 799.794189,481.977844 
	C795.444946,480.185211 793.547424,476.381073 794.196716,470.233093 
	C802.244141,470.233093 810.348572,470.233093 818.376160,470.233093 
	C819.745667,460.862854 817.258118,454.645782 811.255859,451.848206 
	C804.339111,448.624420 796.516785,450.474762 790.639771,457.261200 
M260.757935,424.360565 
	C260.757935,426.817810 260.757935,429.275055 260.757935,431.710876 
	C262.734528,431.710876 264.292419,431.710876 266.049194,431.710876 
	C266.049194,430.597595 266.025879,429.779572 266.052856,428.963226 
	C266.283173,421.991333 266.035370,414.957825 266.911560,408.067444 
	C267.629791,402.418823 272.724579,399.405273 278.307159,400.121460 
	C282.930878,400.714600 284.741272,403.260101 284.820068,409.641846 
	C284.906464,416.635864 284.849670,423.631653 284.893188,430.626404 
	C284.895874,431.060059 285.229187,431.491699 285.344360,431.769287 
	C286.946411,431.769287 288.376312,431.769287 289.963806,431.769287 
	C289.963806,422.907928 290.216766,414.273346 289.878418,405.661987 
	C289.636719,399.511383 286.285034,396.466949 280.184753,395.532013 
	C274.662231,394.685669 270.235168,396.727722 265.968994,401.707062 
	C265.968994,394.346008 265.968994,388.139282 265.968994,381.603851 
	C263.941956,381.756073 262.401123,381.871796 260.757965,381.995178 
	C260.757965,396.103790 260.757965,409.750946 260.757935,424.360565 
M275.879883,938.291931 
	C275.087891,938.541016 274.284698,938.759460 273.505646,939.044006 
	C267.166962,941.358398 264.835358,945.322388 266.008026,951.763245 
	C266.940430,956.884460 271.450500,960.420044 277.533936,959.655823 
	C281.197937,959.195557 284.663483,957.155579 288.575623,955.691772 
	C289.864197,959.465393 293.524231,959.874573 298.634949,958.553223 
	C297.842346,957.174805 297.241791,955.055908 296.485596,954.998779 
	C292.953400,954.732117 293.139740,952.381165 293.125397,950.016663 
	C293.089142,944.032715 293.128113,938.047852 293.039764,932.064819 
	C292.973083,927.549927 290.637512,924.538696 286.409943,923.136536 
	C279.541321,920.858459 271.977722,923.116882 267.030579,928.904175 
	C267.861694,930.011292 268.723053,931.158691 269.896240,932.721497 
	C273.634644,928.241394 278.181671,925.959351 283.633148,927.557800 
	C285.267700,928.037170 287.160492,930.231506 287.439728,931.891663 
	C287.651794,933.152527 285.797333,935.425476 284.322357,936.152649 
	C282.008698,937.293335 279.239655,937.510437 275.879883,938.291931 
M330.794861,959.012817 
	C332.073944,959.012817 333.353058,959.012817 334.884552,959.012817 
	C334.884552,950.169739 335.206207,941.699036 334.789398,933.264771 
	C334.411682,925.621765 329.254486,921.321777 321.659119,922.489014 
	C317.885559,923.068909 314.388000,925.444458 310.844879,926.973450 
	C310.776154,926.222168 310.644440,924.782410 310.480316,922.988586 
	C308.633209,923.098022 307.099304,923.188843 305.525574,923.282043 
	C305.525574,935.340332 305.525574,946.942200 305.525574,958.673340 
	C307.401062,958.673340 309.076569,958.673340 311.109802,958.673340 
	C311.109802,951.177429 310.742554,944.013611 311.219055,936.906311 
	C311.646393,930.531982 316.319336,926.806824 322.245331,927.097778 
	C327.603882,927.360840 329.318024,929.834717 329.457458,937.382446 
	C329.589020,944.504639 329.766418,951.625916 330.794861,959.012817 
M330.304626,426.254089 
	C330.304626,416.295013 330.304626,406.335938 330.304626,396.246216 
	C328.403748,396.246216 326.836029,396.246216 324.958282,396.246216 
	C324.958282,397.282990 324.980072,398.091553 324.954865,398.898682 
	C324.737488,405.859009 324.988739,412.877625 324.143250,419.761353 
	C323.414520,425.694611 318.598663,428.715546 313.047577,427.925354 
	C308.531555,427.282562 306.927216,424.785034 306.904510,418.222748 
	C306.879333,410.944153 306.898743,403.665375 306.898743,396.251282 
	C304.867706,396.251282 303.292084,396.251282 301.610626,396.251282 
	C301.610626,405.255768 301.220215,414.050323 301.739014,422.790955 
	C302.126526,429.319153 306.104736,432.997559 312.610107,432.577423 
	C316.819794,432.305481 320.893860,429.934387 325.038116,428.500671 
	C325.059418,428.766571 325.181396,430.289429 325.305145,431.834473 
	C327.146240,431.834473 328.600677,431.834473 330.304596,431.834473 
	C330.304596,430.158478 330.304596,428.672211 330.304626,426.254089 
M360.753601,420.465363 
	C360.753601,424.233459 360.753601,428.001587 360.753601,432.068451 
	C362.816589,431.950043 364.361572,431.861389 365.666077,431.786530 
	C366.063690,423.574493 365.985687,415.741974 366.967621,408.044678 
	C367.687378,402.402466 372.841797,399.385406 378.374786,400.133514 
	C382.963135,400.753906 384.748871,403.294586 384.817261,409.695190 
	C384.895386,417.002899 384.835358,424.312073 384.835358,431.800476 
	C386.643616,431.800476 388.215942,431.800476 389.973724,431.800476 
	C389.973724,422.977600 390.216797,414.352997 389.891876,405.749847 
	C389.658752,399.577484 386.360413,396.527252 380.303009,395.545532 
	C374.574646,394.617096 370.048462,396.747009 366.216888,401.510162 
	C365.948944,399.276825 365.762604,397.723755 365.553375,395.980011 
	C363.803864,396.084320 362.377075,396.169373 360.753662,396.266174 
	C360.753662,404.192535 360.753662,411.834808 360.753601,420.465363 
M500.166534,923.065979 
	C498.891022,923.065979 497.615479,923.065979 496.183655,923.065979 
	C496.183655,935.205811 496.183655,946.971008 496.183655,958.740479 
	C497.949951,958.740479 499.506897,958.740479 501.301483,958.740479 
	C501.301483,957.486267 501.276062,956.495544 501.305664,955.506409 
	C501.504639,948.856750 501.325867,942.165344 502.040558,935.570923 
	C502.654663,929.904846 507.490356,926.629822 513.090820,927.086487 
	C518.033264,927.489502 519.969116,930.117920 520.009155,936.684448 
	C520.053711,943.987915 520.019348,951.291809 520.019348,958.800354 
	C521.927673,958.800354 523.503479,958.800354 525.106140,958.800354 
	C525.106140,949.828186 525.405090,941.011902 525.002197,932.227905 
	C524.728760,926.265625 521.442627,923.482910 515.486450,922.533630 
	C509.758850,921.620605 505.247803,923.781555 501.262054,928.778564 
	C501.109039,926.406433 501.015961,924.962830 500.166534,923.065979 
M990.988708,476.476471 
	C990.988708,479.937653 990.988708,483.398834 990.988708,487.106049 
	C993.023804,486.958130 994.578125,486.845184 996.301514,486.719910 
	C996.301514,485.195923 996.270508,484.036346 996.306519,482.878876 
	C996.508179,476.400024 996.329468,469.876678 997.057861,463.456726 
	C997.694946,457.842041 1002.619812,454.576721 1008.197449,455.091278 
	C1013.101746,455.543701 1014.973572,458.153717 1015.010437,464.783051 
	C1015.050964,472.077789 1015.019653,479.372925 1015.019653,486.782349 
	C1016.970642,486.782349 1018.542114,486.782349 1020.160034,486.782349 
	C1020.160034,477.921143 1020.451294,469.273865 1020.064270,460.657074 
	C1019.774963,454.216461 1016.365479,451.265320 1009.935913,450.449524 
	C1004.406555,449.747925 1000.107910,452.038849 996.237793,456.725037 
	C996.073059,454.284607 995.968994,452.743347 995.871643,451.301880 
	C994.050415,451.301880 992.650269,451.301880 990.988708,451.301880 
	C990.988708,459.540314 990.988708,467.510925 990.988708,476.476471 
M868.743469,471.485809 
	C872.080017,472.340515 874.789429,473.815155 874.158447,477.912170 
	C873.492065,482.239471 869.892639,483.243011 866.650757,482.711517 
	C862.805298,482.081085 859.181641,480.097717 854.927917,478.500153 
	C851.994995,480.983459 851.892029,482.215210 855.689087,484.681396 
	C860.528076,487.824432 865.846802,488.595123 871.460632,487.123108 
	C876.776917,485.729156 879.718689,482.335175 879.894226,477.369019 
	C880.069763,472.403290 877.346924,468.732330 872.101746,467.138245 
	C869.243591,466.269623 866.063110,466.114441 863.494507,464.755646 
	C861.622192,463.765228 860.512390,461.333344 859.062683,459.544037 
	C860.963257,458.032227 862.834290,455.317291 864.770752,455.269684 
	C868.337402,455.182068 871.942505,456.661987 876.460632,457.702667 
	C876.512756,457.647125 877.483276,456.612213 878.432068,455.600525 
	C873.379578,449.904572 863.687927,448.550507 857.783203,452.488525 
	C852.040649,456.318420 852.311218,464.919617 858.547058,468.208832 
	C861.422058,469.725372 864.819092,470.252319 868.743469,471.485809 
M225.904678,427.569427 
	C233.748444,434.784454 245.217880,434.459412 250.496597,426.925842 
	C252.581268,423.950714 252.683487,421.821503 248.254425,421.033142 
	C247.932953,421.516235 247.528244,422.025848 247.228088,422.591034 
	C244.862030,427.046448 240.942871,428.417572 236.289688,427.697357 
	C231.724808,426.990845 228.599350,424.130737 227.952545,419.581635 
	C227.427048,415.885559 227.444580,411.987000 227.999664,408.295227 
	C228.649475,403.973450 231.633026,401.262909 236.019058,400.484650 
	C240.236710,399.736237 243.944931,400.683075 246.687469,404.259857 
	C247.164856,404.882477 247.738586,405.431213 248.340332,406.093903 
	C249.676361,405.032593 250.809769,404.132233 251.906357,403.261108 
	C248.436768,397.074707 243.388321,394.581207 236.410690,395.402496 
	C229.202621,396.250916 224.293335,400.140198 222.344452,407.050110 
	C220.372940,414.040222 220.856491,420.916870 225.904678,427.569427 
M767.466248,474.858337 
	C766.700500,476.751953 765.934814,478.645599 764.805542,481.438263 
	C761.220886,471.948883 757.887329,463.642822 754.977722,455.190765 
	C753.639893,451.304565 751.742188,449.924683 747.638977,451.695831 
	C751.419250,461.591553 755.583191,471.206604 758.699707,481.149963 
	C760.463379,486.776947 763.316284,488.142242 768.704651,486.594757 
	C773.090759,475.014771 777.544067,463.257507 781.999329,451.495056 
	C777.851135,450.039612 775.896301,451.408844 774.663818,455.471008 
	C772.741638,461.806305 770.123230,467.930420 767.466248,474.858337 
M896.185120,476.268188 
	C896.185120,469.516205 896.185120,462.764221 896.185120,455.537842 
	C900.286682,455.537842 903.883789,455.537842 907.636841,455.537842 
	C907.636841,453.821777 907.636841,452.592133 907.636841,451.053680 
	C903.793030,451.053680 900.167786,451.053680 896.385986,451.053680 
	C896.242920,448.183716 896.114868,445.614624 895.969543,442.699646 
	C894.028748,443.007385 892.507751,443.248566 891.030518,443.482788 
	C890.901733,446.281891 890.797058,448.555725 890.690063,450.880920 
	C888.558044,450.978973 886.776672,451.060883 884.567444,451.162506 
	C884.725891,452.794281 884.855774,454.132019 884.968872,455.296997 
	C887.261597,455.525421 888.992004,455.697784 890.877747,455.885651 
	C890.877747,462.750885 890.841003,469.221191 890.885986,475.690948 
	C890.961060,486.486176 898.157959,490.860748 907.801880,485.987640 
	C908.198914,485.787018 908.451111,485.299530 908.910950,484.790527 
	C908.326416,483.650024 907.752869,482.531036 907.197815,481.448029 
	C899.553223,484.033447 897.831909,483.337341 896.185120,476.268188 
M833.951660,484.225342 
	C833.956787,479.076965 833.902405,473.927673 833.979553,468.780365 
	C834.139893,458.087372 837.171082,455.379791 847.943604,456.330811 
	C848.324890,454.971100 848.713745,453.584290 849.200500,451.848419 
	C843.258850,449.788422 838.313721,450.397736 834.271667,455.666168 
	C833.831787,453.769135 833.521301,452.429932 833.170105,450.915253 
	C831.465149,451.048096 830.043884,451.158844 828.572998,451.273468 
	C828.572998,463.312286 828.572998,475.039459 828.572998,488.036377 
	C830.830139,486.829346 832.388916,485.995728 833.951660,484.225342 
M346.888062,927.500549 
	C346.889740,935.141357 346.819061,942.783020 346.913269,950.422668 
	C347.008667,958.160889 351.009766,961.018860 360.311310,958.493774 
	C358.326965,956.877747 356.973785,956.003113 355.915039,954.856689 
	C354.540497,953.368347 352.435394,951.724487 352.329376,950.041382 
	C351.912567,943.423401 352.156128,936.763794 352.155548,930.119629 
	C352.154907,923.057129 352.155426,915.994568 352.155426,908.918335 
	C350.077667,908.918335 348.644531,908.918335 346.888062,908.918335 
	C346.888062,914.928833 346.888062,920.714844 346.888062,927.500549 
M367.745514,923.015076 
	C367.293060,923.416321 366.447876,923.815186 366.445404,924.219238 
	C366.374451,935.748474 366.388184,947.278259 366.388184,958.761353 
	C368.518860,958.761353 370.091583,958.761353 371.951141,958.761353 
	C371.951141,947.569580 371.869812,936.657776 372.008087,925.748840 
	C372.042816,923.007080 370.677277,922.798401 367.745514,923.015076 
M342.993652,424.434753 
	C342.993652,426.877716 342.993652,429.320648 342.993652,432.055420 
	C345.084717,431.949249 346.639862,431.870300 348.095886,431.796387 
	C348.095886,419.723114 348.095886,408.115143 348.095886,396.301910 
	C346.362061,396.301910 344.825714,396.301910 342.993652,396.301910 
	C342.993652,405.526917 342.993652,414.489319 342.993652,424.434753 
M371.516815,909.307922 
	C369.548920,909.867004 367.469513,910.220215 365.714142,911.171448 
	C365.390991,911.346619 365.931396,914.543274 366.887451,915.261475 
	C367.905548,916.026306 370.971802,916.020996 371.247253,915.444946 
	C372.019806,913.829285 371.815186,911.746338 371.516815,909.307922 
M343.219238,388.397430 
	C345.176727,387.955750 347.253204,387.751984 348.995697,386.880432 
	C349.363525,386.696472 348.993866,383.496735 348.082825,382.719788 
	C347.122955,381.901123 344.082611,381.733490 343.751343,382.312042 
	C342.868225,383.854492 342.952118,385.950592 343.219238,388.397430 
z"/>
<path fill="#F7F7F7" opacity="1.000000" stroke="none" 
	d="
M313.802521,572.734009 
	C434.120789,405.660370 554.230225,238.880096 674.106995,72.422859 
	C677.579224,73.601906 680.752808,74.679520 684.384827,75.912811 
	C684.384827,332.314240 684.384827,589.376526 684.384827,846.746704 
	C682.792236,846.906677 681.203003,847.066284 679.293030,847.258057 
	C679.157959,848.815918 679.019470,850.414062 678.856445,852.295410 
	C493.709839,852.295410 308.641022,852.295410 124.282875,852.295410 
	C122.672546,849.059631 121.231270,846.163513 119.455078,842.594360 
	C183.751404,753.317078 248.672531,663.172180 313.802521,572.734009 
M207.135803,743.460449 
	C210.103699,743.046387 213.059692,742.421265 216.041458,742.253479 
	C232.155563,741.346436 246.105240,744.944824 254.053558,760.842102 
	C254.707520,762.150085 255.688477,763.441101 256.833771,764.334534 
	C269.934570,774.554321 272.026245,790.073059 274.752350,804.568848 
	C277.008148,816.563965 277.058380,829.259277 271.702606,841.353210 
	C374.407959,841.353210 476.507965,841.353210 579.046631,841.353210 
	C579.046631,832.276306 579.046631,823.351318 579.046631,814.217590 
	C582.888184,814.217590 586.292175,814.217590 590.147339,814.217590 
	C590.147339,823.316833 590.147339,832.237915 590.147339,841.140503 
	C618.160339,841.140503 645.721558,841.140503 673.085205,841.140503 
	C673.085205,591.821960 673.085205,342.881989 673.085205,92.821083 
	C664.803650,104.316895 657.229919,114.827103 649.659363,125.339554 
	C529.149597,292.677765 408.634216,460.011932 288.135254,627.357910 
	C260.515594,665.715393 232.952637,704.113708 205.049759,742.953491 
	C205.085953,743.181396 205.122162,743.409241 205.158340,743.637085 
	C205.536942,743.523621 205.915527,743.410156 207.135803,743.460449 
M169.099854,792.619019 
	C157.585175,808.628540 146.070480,824.638000 134.107986,841.270142 
	C173.973801,841.270142 212.871094,841.270142 251.073578,841.270142 
	C252.684448,839.155212 253.631470,836.551392 255.276398,835.989136 
	C262.203064,833.621155 262.514160,827.945190 262.774750,822.268311 
	C263.134766,814.425293 261.056519,806.938293 259.690735,799.273315 
	C257.481567,786.875000 251.464630,776.866455 244.243469,767.364380 
	C237.906769,759.026123 229.804764,753.036316 218.351196,754.178894 
	C214.709885,754.542053 211.048691,754.720337 207.414764,755.140381 
	C199.074844,756.104492 192.158615,758.755310 187.438568,766.816650 
	C182.247742,775.681946 175.569580,783.676514 169.099854,792.619019 
z"/>
<path fill="#F0F0F0" opacity="1.000000" stroke="none" 
	d="
M391.487427,952.752563 
	C396.241852,953.182007 400.562683,953.373718 404.864899,953.768372 
	C408.840118,954.133057 411.973663,955.989868 412.864532,960.091492 
	C413.809998,964.444458 412.792419,968.344543 408.927063,971.125977 
	C403.528839,975.010376 390.011505,975.388611 384.521515,971.778748 
	C377.892944,967.420227 378.840179,960.368164 386.625916,956.112061 
	C382.610168,950.681274 382.823669,949.059814 388.108521,944.852295 
	C382.609436,937.526978 381.634827,932.316650 385.494293,927.425781 
	C390.511780,921.067566 397.148315,921.480896 404.347992,924.115662 
	C405.212402,922.035645 406.010590,920.115051 406.925049,917.914612 
	C408.366882,918.288025 409.753418,918.647095 412.228485,919.288025 
	C410.237915,922.295166 408.595398,924.776611 406.705505,927.631714 
	C409.936981,931.310608 410.665771,935.987305 407.974945,940.778259 
	C405.101318,945.894653 400.196381,946.969604 394.727142,947.010864 
	C392.988342,947.023987 391.258331,948.205322 389.524261,948.852051 
	C390.031433,950.102478 390.538605,951.352905 391.487427,952.752563 
M399.731049,969.352600 
	C401.464447,968.839722 403.649506,968.800537 404.813660,967.690491 
	C406.179749,966.388000 407.169464,964.194275 407.315247,962.309204 
	C407.393005,961.304199 405.453125,959.344177 404.240509,959.181458 
	C399.825317,958.588806 395.287048,958.116333 390.891479,958.557617 
	C389.077332,958.739807 386.107117,961.403137 386.161926,962.842773 
	C386.239319,964.875732 388.231354,967.735168 390.139618,968.578247 
	C392.700684,969.709717 395.963287,969.253357 399.731049,969.352600 
M390.424866,939.977966 
	C392.051239,940.675293 393.623291,941.745422 395.315369,941.992004 
	C398.794586,942.498962 402.617706,941.831055 403.421875,938.086365 
	C404.028992,935.259033 403.584717,930.730286 401.753052,929.241760 
	C399.634552,927.520020 395.248962,927.421265 392.272186,928.213318 
	C388.431915,929.235046 387.839447,933.753784 390.424866,939.977966 
z"/>
<path fill="#F2F2F2" opacity="1.000000" stroke="none" 
	d="
M444.739929,929.455200 
	C448.404236,939.028381 443.402679,946.466919 433.529694,946.981201 
	C430.852173,947.120667 426.417938,945.303772 426.256927,949.705566 
	C426.079376,954.558167 430.800354,952.681702 433.592285,953.102783 
	C436.213165,953.498047 438.895630,953.464355 441.538147,953.741882 
	C445.732880,954.182251 448.854004,956.179504 449.743042,960.498535 
	C450.618073,964.749268 449.309418,968.386780 445.746643,971.050354 
	C440.459076,975.003418 426.628632,975.783020 421.500946,971.659058 
	C419.242859,969.842957 417.145630,966.146667 417.320312,963.456177 
	C417.496704,960.739319 420.576111,958.210938 422.648712,955.217163 
	C419.383179,950.568970 419.672241,948.832886 425.306244,944.716736 
	C419.648560,939.077209 418.470978,933.375061 421.844940,927.956116 
	C425.219666,922.535950 431.931519,921.090271 441.066559,924.063110 
	C441.864746,922.189453 442.680176,920.275208 443.677155,917.934753 
	C445.083649,918.305481 446.584381,918.700989 449.028351,919.345154 
	C447.267670,921.887878 445.753815,923.755981 444.637878,925.837402 
	C444.170898,926.708435 444.548309,928.032227 444.739929,929.455200 
M424.079742,959.695618 
	C421.573273,962.673035 421.858124,965.502747 424.877075,967.808960 
	C428.312531,970.433533 438.846222,970.338867 441.985748,967.444641 
	C443.235748,966.292297 444.044098,964.048401 444.003143,962.326355 
	C443.976379,961.201538 442.107574,959.231995 440.983337,959.172974 
	C435.589600,958.889587 430.168488,959.128296 424.079742,959.695618 
M441.019287,935.354858 
	C440.511688,929.015991 437.092224,926.094482 431.406036,927.141602 
	C426.751617,927.998657 424.457733,931.983215 425.692566,936.939575 
	C426.600281,940.582886 429.090302,941.979797 432.609955,942.108398 
	C436.935608,942.266479 440.044769,940.770081 441.019287,935.354858 
z"/>
<path fill="#F3F3F3" opacity="1.000000" stroke="none" 
	d="
M700.831665,449.913055 
	C706.293579,440.750366 713.886536,437.327332 724.235535,439.075958 
	C732.631104,440.494507 738.696045,446.412689 740.152771,456.017731 
	C740.933777,461.167603 740.829529,466.693481 739.869385,471.814301 
	C737.989319,481.842133 730.114929,487.714691 719.819763,487.821747 
	C709.599548,487.928040 701.645020,482.041138 699.254639,472.279083 
	C697.433105,464.839813 697.564209,457.428833 700.831665,449.913055 
M734.793518,466.976593 
	C734.618164,463.510590 734.785645,459.985504 734.200317,456.590179 
	C732.700195,447.888855 727.645691,443.822754 719.119629,443.990692 
	C711.028259,444.150055 706.057251,448.505219 704.940918,457.048553 
	C704.431946,460.943359 704.380676,465.009705 704.876404,468.902130 
	C706.130859,478.751862 711.844666,483.116058 721.643921,482.248566 
	C729.211548,481.578674 732.712280,477.711761 734.793518,466.976593 
z"/>
<path fill="#EEEEEE" opacity="1.000000" stroke="none" 
	d="
M1062.761841,482.734436 
	C1063.485962,488.027618 1060.410400,487.192993 1057.275513,486.765167 
	C1057.174561,485.301514 1057.076782,483.883026 1056.946045,481.988342 
	C1055.567749,483.180542 1054.541870,484.197815 1053.389771,485.043396 
	C1045.721558,490.672150 1034.550659,487.722015 1031.672974,478.657684 
	C1030.171387,473.927521 1029.773071,468.428650 1030.465332,463.500183 
	C1032.411865,449.640991 1047.759277,446.262360 1056.895508,455.766327 
	C1056.895508,449.215179 1056.895508,443.204865 1056.895508,436.923584 
	C1059.022949,436.923584 1060.608032,436.923584 1062.761841,436.923584 
	C1062.761841,452.119873 1062.761841,467.193146 1062.761841,482.734436 
M1039.270996,457.728302 
	C1034.459839,463.098999 1035.210815,469.453033 1036.525024,475.654358 
	C1037.542969,480.457855 1041.189453,482.807648 1046.039062,482.838623 
	C1050.803955,482.869080 1054.551147,480.795380 1055.955078,476.074127 
	C1056.787598,473.274323 1057.080322,470.195953 1056.991699,467.261658 
	C1056.680542,456.951416 1049.165649,452.625122 1039.270996,457.728302 
z"/>
<path fill="#EEEEEE" opacity="1.000000" stroke="none" 
	d="
M543.213745,924.046875 
	C550.318542,920.935547 556.398071,922.025391 562.258057,927.845947 
	C562.258057,921.076050 562.258057,915.177673 562.258057,908.897400 
	C564.237122,908.805420 565.816223,908.731995 567.683350,908.645203 
	C567.683350,925.554993 567.683350,942.116821 567.683350,958.856079 
	C566.111023,958.856079 564.654968,958.856079 562.868530,958.856079 
	C562.585693,957.577087 562.283752,956.212097 561.920532,954.569885 
	C561.292847,954.975525 560.732361,955.258972 560.263977,955.652039 
	C550.555420,963.800476 538.426147,959.853516 535.872742,947.465088 
	C534.046204,938.603088 534.495056,930.127808 543.213745,924.046875 
M554.595093,954.378601 
	C561.675293,951.315857 564.506897,943.176636 561.516418,934.483948 
	C559.923584,929.853882 556.113342,927.144043 551.312317,927.226746 
	C546.344360,927.312317 542.848389,929.888184 541.658813,934.952148 
	C541.024353,937.653076 540.903931,940.549011 541.018616,943.337708 
	C541.361877,951.683777 545.450684,955.188599 554.595093,954.378601 
z"/>
<path fill="#F2F2F2" opacity="1.000000" stroke="none" 
	d="
M250.934265,949.071899 
	C249.698502,947.779175 248.647034,946.745972 247.401581,946.070435 
	C246.758789,945.721741 245.768875,946.050293 244.939880,946.002197 
	C235.281601,945.442078 225.138916,944.109375 226.202988,958.837158 
	C223.366592,958.837158 221.588943,958.837158 219.403122,958.837158 
	C224.713516,943.520020 229.828598,928.460876 235.305725,913.534607 
	C235.754929,912.310486 238.685608,911.386475 240.431625,911.436157 
	C241.908707,911.478088 244.190308,912.825439 244.661194,914.122986 
	C249.974915,928.765991 255.007782,943.510986 260.300385,958.760010 
	C258.324921,958.882019 256.629425,958.986755 254.400818,959.124390 
	C253.279526,955.908325 252.158829,952.693970 250.934265,949.071899 
M239.043716,918.440857 
	C236.564133,925.797241 234.084549,933.153625 231.477524,940.888123 
	C237.258209,940.888123 242.492020,940.888123 248.577911,940.888123 
	C245.439865,932.927856 242.446320,925.334167 239.043716,918.440857 
z"/>
<path fill="#F2F2F2" opacity="1.000000" stroke="none" 
	d="
M201.600555,405.428589 
	C210.909546,408.385101 214.984253,412.946259 213.735840,420.254517 
	C213.170486,423.564117 211.270050,427.436554 208.714981,429.470245 
	C200.337311,436.138458 183.436020,432.455505 180.106277,423.784912 
	C181.032532,422.646301 182.053986,421.390686 183.365875,419.778046 
	C187.726486,425.933655 193.428223,428.409912 200.661407,427.232330 
	C204.747208,426.567169 207.428223,424.528076 207.965347,420.294037 
	C208.529587,415.846436 206.477188,412.880585 202.293762,411.534424 
	C198.980530,410.468262 195.553940,409.759979 192.213348,408.772125 
	C184.537933,406.502533 180.522568,401.299377 181.310211,394.774750 
	C182.095261,388.271606 187.207214,384.243530 195.232468,383.804443 
	C203.012817,383.378693 206.957550,384.715271 211.844040,389.627838 
	C211.021576,390.851807 210.153305,392.143951 208.986069,393.881012 
	C204.657257,389.272247 199.493530,388.174957 193.831879,388.989990 
	C190.218430,389.510193 187.519363,391.245422 187.083359,395.177429 
	C186.657349,399.019196 188.582611,401.636230 192.093582,402.856445 
	C195.063126,403.888458 198.183090,404.487640 201.600555,405.428589 
z"/>
<path fill="#F3F3F3" opacity="1.000000" stroke="none" 
	d="
M462.740662,957.402588 
	C452.798309,949.319763 452.830414,931.192810 462.662079,924.970154 
	C468.464203,921.297791 474.766754,921.156555 480.589722,924.791565 
	C486.886688,928.722351 486.678558,935.258667 486.516174,942.225220 
	C478.013458,942.225220 469.773224,942.225220 461.553406,942.225220 
	C461.542236,949.183533 463.491913,952.535828 468.169922,954.154785 
	C473.633087,956.045349 478.010956,954.599854 482.368866,949.209412 
	C483.497864,949.817993 484.707489,950.470032 486.477234,951.424011 
	C484.973969,953.332642 483.969849,955.329102 482.366364,956.515503 
	C476.245789,961.043762 469.680725,960.617432 462.740662,957.402588 
M473.419556,937.861877 
	C475.890472,937.861877 478.361389,937.861877 480.823395,937.861877 
	C480.918701,930.279724 477.758911,926.786194 471.346527,926.985229 
	C465.132294,927.178223 461.704865,931.082214 461.980042,937.861877 
	C465.464111,937.861877 468.957397,937.861877 473.419556,937.861877 
z"/>
<path fill="#F2F2F2" opacity="1.000000" stroke="none" 
	d="
M972.694763,458.444000 
	C967.714050,453.337982 962.698975,453.939331 954.960938,460.382690 
	C954.070374,459.267365 953.183533,458.156738 952.407043,457.184296 
	C952.594177,456.591400 952.600037,456.139160 952.786987,456.044403 
	C956.542786,454.141449 960.145203,451.330261 964.126648,450.600311 
	C973.395203,448.901001 978.299744,453.498993 978.405457,462.892059 
	C978.457825,467.548248 978.306763,472.209045 978.457458,476.860931 
	C978.540466,479.421814 977.385681,482.904999 982.139709,482.946777 
	C982.672974,482.951477 983.186523,485.197662 983.768250,486.540588 
	C977.050720,487.733917 976.223206,487.406250 973.154907,482.529388 
	C969.280029,487.272766 964.378296,488.779572 958.499207,487.245270 
	C953.879456,486.039551 951.510498,483.015625 951.059875,478.398102 
	C950.594055,473.625183 952.114746,469.692841 956.814148,467.927521 
	C960.357666,466.596436 964.159668,465.964386 967.824524,464.941986 
	C970.895386,464.085358 973.543823,462.795807 972.694763,458.444000 
M964.818298,470.143250 
	C962.182312,471.781403 958.685364,472.857483 957.147644,475.212738 
	C955.547424,477.663879 956.584106,481.095581 959.909180,482.681183 
	C963.471680,484.380035 969.182922,483.175171 970.892761,479.584412 
	C972.508606,476.190918 972.872742,472.201385 973.916931,467.945984 
	C970.388977,468.838409 968.010864,469.439941 964.818298,470.143250 
z"/>
<path fill="#F2F2F2" opacity="1.000000" stroke="none" 
	d="
M916.000671,455.708435 
	C920.072632,453.733459 923.811768,451.106201 927.846863,450.521332 
	C936.725220,449.234406 941.281250,453.697479 941.401794,462.641052 
	C941.469055,467.633026 941.351562,472.627808 941.442566,477.619019 
	C941.485962,479.997437 940.873718,482.855225 944.902527,482.961304 
	C945.566956,482.978821 946.177429,485.045288 947.018005,486.526306 
	C942.010254,487.737915 938.329590,487.715210 936.447693,482.368652 
	C932.284058,487.167023 927.280701,488.908386 921.220093,487.178711 
	C916.845825,485.930328 914.563904,482.994324 914.075012,478.601257 
	C913.572205,474.082001 914.781250,470.076813 919.191467,468.230164 
	C922.824585,466.708893 926.820557,466.062897 930.641663,464.979340 
	C933.451294,464.182678 936.370422,463.209045 935.876587,459.491272 
	C935.365112,455.640289 932.093323,454.636810 929.126831,455.231018 
	C925.267944,456.003937 921.626465,457.862366 917.154419,459.528137 
	C916.938416,458.961853 916.370300,457.472229 916.000671,455.708435 
M922.406982,471.849426 
	C919.017822,473.934082 918.769897,477.390198 920.458557,480.044525 
	C921.576477,481.801636 924.765503,483.050812 927.057556,483.099335 
	C933.951538,483.245300 937.209778,477.193848 935.536926,468.333038 
	C931.394897,469.363129 927.248779,470.394226 922.406982,471.849426 
z"/>
<path fill="#F3F3F3" opacity="1.000000" stroke="none" 
	d="
M790.832947,456.947357 
	C796.516785,450.474762 804.339111,448.624420 811.255859,451.848206 
	C817.258118,454.645782 819.745667,460.862854 818.376160,470.233093 
	C810.348572,470.233093 802.244141,470.233093 794.196716,470.233093 
	C793.547424,476.381073 795.444946,480.185211 799.794189,481.977844 
	C805.281555,484.239655 810.055847,482.747650 814.757385,477.192902 
	C815.836365,477.833527 816.942993,478.490540 817.979492,479.105927 
	C817.979492,479.641785 818.098633,480.025269 817.962097,480.260132 
	C814.515625,486.187775 809.092712,488.671478 801.897949,487.684265 
	C794.917664,486.726471 790.081299,483.079834 788.505432,476.113373 
	C787.049194,469.675812 786.998901,463.211151 790.832947,456.947357 
M809.084290,456.129791 
	C800.040955,453.012665 793.410645,457.319550 794.418396,465.861816 
	C797.523010,465.861816 800.651428,465.861847 803.779907,465.861847 
	C806.862915,465.861847 809.945862,465.861816 814.691284,465.861816 
	C812.663025,462.046326 811.206970,459.307220 809.084290,456.129791 
z"/>
<path fill="#FBFBFB" opacity="1.000000" stroke="none" 
	d="
M260.757935,423.879333 
	C260.757965,409.750946 260.757965,396.103790 260.757965,381.995178 
	C262.401123,381.871796 263.941956,381.756073 265.968994,381.603851 
	C265.968994,388.139282 265.968994,394.346008 265.968994,401.707062 
	C270.235168,396.727722 274.662231,394.685669 280.184753,395.532013 
	C286.285034,396.466949 289.636719,399.511383 289.878418,405.661987 
	C290.216766,414.273346 289.963806,422.907928 289.963806,431.769287 
	C288.376312,431.769287 286.946411,431.769287 285.344360,431.769287 
	C285.229187,431.491699 284.895874,431.060059 284.893188,430.626404 
	C284.849670,423.631653 284.906464,416.635864 284.820068,409.641846 
	C284.741272,403.260101 282.930878,400.714600 278.307159,400.121460 
	C272.724579,399.405273 267.629791,402.418823 266.911560,408.067444 
	C266.035370,414.957825 266.283173,421.991333 266.052856,428.963226 
	C266.025879,429.779572 266.049194,430.597595 266.049194,431.710876 
	C264.292419,431.710876 262.734528,431.710876 260.757935,431.710876 
	C260.757935,429.275055 260.757935,426.817810 260.757935,423.879333 
z"/>
<path fill="#F3F3F3" opacity="1.000000" stroke="none" 
	d="
M276.271667,938.205322 
	C279.239655,937.510437 282.008698,937.293335 284.322357,936.152649 
	C285.797333,935.425476 287.651794,933.152527 287.439728,931.891663 
	C287.160492,930.231506 285.267700,928.037170 283.633148,927.557800 
	C278.181671,925.959351 273.634644,928.241394 269.896240,932.721497 
	C268.723053,931.158691 267.861694,930.011292 267.030579,928.904175 
	C271.977722,923.116882 279.541321,920.858459 286.409943,923.136536 
	C290.637512,924.538696 292.973083,927.549927 293.039764,932.064819 
	C293.128113,938.047852 293.089142,944.032715 293.125397,950.016663 
	C293.139740,952.381165 292.953400,954.732117 296.485596,954.998779 
	C297.241791,955.055908 297.842346,957.174805 298.634949,958.553223 
	C293.524231,959.874573 289.864197,959.465393 288.575623,955.691772 
	C284.663483,957.155579 281.197937,959.195557 277.533936,959.655823 
	C271.450500,960.420044 266.940430,956.884460 266.008026,951.763245 
	C264.835358,945.322388 267.166962,941.358398 273.505646,939.044006 
	C274.284698,938.759460 275.087891,938.541016 276.271667,938.205322 
M273.746948,954.137024 
	C283.858368,958.526123 289.741333,949.683228 287.653381,940.302734 
	C284.278564,941.079529 280.890167,941.796753 277.534943,942.645081 
	C271.057983,944.282715 269.734253,947.625183 273.746948,954.137024 
z"/>
<path fill="#EEEEEE" opacity="1.000000" stroke="none" 
	d="
M330.359253,958.880249 
	C329.766418,951.625916 329.589020,944.504639 329.457458,937.382446 
	C329.318024,929.834717 327.603882,927.360840 322.245331,927.097778 
	C316.319336,926.806824 311.646393,930.531982 311.219055,936.906311 
	C310.742554,944.013611 311.109802,951.177429 311.109802,958.673340 
	C309.076569,958.673340 307.401062,958.673340 305.525574,958.673340 
	C305.525574,946.942200 305.525574,935.340332 305.525574,923.282043 
	C307.099304,923.188843 308.633209,923.098022 310.480316,922.988586 
	C310.644440,924.782410 310.776154,926.222168 310.844879,926.973450 
	C314.388000,925.444458 317.885559,923.068909 321.659119,922.489014 
	C329.254486,921.321777 334.411682,925.621765 334.789398,933.264771 
	C335.206207,941.699036 334.884552,950.169739 334.884552,959.012817 
	C333.353058,959.012817 332.073944,959.012817 330.359253,958.880249 
z"/>
<path fill="#F2F2F2" opacity="1.000000" stroke="none" 
	d="
M330.304626,426.720001 
	C330.304596,428.672211 330.304596,430.158478 330.304596,431.834473 
	C328.600677,431.834473 327.146240,431.834473 325.305145,431.834473 
	C325.181396,430.289429 325.059418,428.766571 325.038116,428.500671 
	C320.893860,429.934387 316.819794,432.305481 312.610107,432.577423 
	C306.104736,432.997559 302.126526,429.319153 301.739014,422.790955 
	C301.220215,414.050323 301.610626,405.255768 301.610626,396.251282 
	C303.292084,396.251282 304.867706,396.251282 306.898743,396.251282 
	C306.898743,403.665375 306.879333,410.944153 306.904510,418.222748 
	C306.927216,424.785034 308.531555,427.282562 313.047577,427.925354 
	C318.598663,428.715546 323.414520,425.694611 324.143250,419.761353 
	C324.988739,412.877625 324.737488,405.859009 324.954865,398.898682 
	C324.980072,398.091553 324.958282,397.282990 324.958282,396.246216 
	C326.836029,396.246216 328.403748,396.246216 330.304626,396.246216 
	C330.304626,406.335938 330.304626,416.295013 330.304626,426.720001 
z"/>
<path fill="#F9F9F9" opacity="1.000000" stroke="none" 
	d="
M360.753632,419.971222 
	C360.753662,411.834808 360.753662,404.192535 360.753662,396.266174 
	C362.377075,396.169373 363.803864,396.084320 365.553375,395.980011 
	C365.762604,397.723755 365.948944,399.276825 366.216888,401.510162 
	C370.048462,396.747009 374.574646,394.617096 380.303009,395.545532 
	C386.360413,396.527252 389.658752,399.577484 389.891876,405.749847 
	C390.216797,414.352997 389.973724,422.977600 389.973724,431.800476 
	C388.215942,431.800476 386.643616,431.800476 384.835358,431.800476 
	C384.835358,424.312073 384.895386,417.002899 384.817261,409.695190 
	C384.748871,403.294586 382.963135,400.753906 378.374786,400.133514 
	C372.841797,399.385406 367.687378,402.402466 366.967621,408.044678 
	C365.985687,415.741974 366.063690,423.574493 365.666077,431.786530 
	C364.361572,431.861389 362.816589,431.950043 360.753601,432.068451 
	C360.753601,428.001587 360.753601,424.233459 360.753632,419.971222 
z"/>
<path fill="#F9F9F9" opacity="1.000000" stroke="none" 
	d="
M500.544678,923.292603 
	C501.015961,924.962830 501.109039,926.406433 501.262054,928.778564 
	C505.247803,923.781555 509.758850,921.620605 515.486450,922.533630 
	C521.442627,923.482910 524.728760,926.265625 525.002197,932.227905 
	C525.405090,941.011902 525.106140,949.828186 525.106140,958.800354 
	C523.503479,958.800354 521.927673,958.800354 520.019348,958.800354 
	C520.019348,951.291809 520.053711,943.987915 520.009155,936.684448 
	C519.969116,930.117920 518.033264,927.489502 513.090820,927.086487 
	C507.490356,926.629822 502.654663,929.904846 502.040558,935.570923 
	C501.325867,942.165344 501.504639,948.856750 501.305664,955.506409 
	C501.276062,956.495544 501.301483,957.486267 501.301483,958.740479 
	C499.506897,958.740479 497.949951,958.740479 496.183655,958.740479 
	C496.183655,946.971008 496.183655,935.205811 496.183655,923.065979 
	C497.615479,923.065979 498.891022,923.065979 500.544678,923.292603 
z"/>
<path fill="#F9F9F9" opacity="1.000000" stroke="none" 
	d="
M990.988708,475.979004 
	C990.988708,467.510925 990.988708,459.540314 990.988708,451.301880 
	C992.650269,451.301880 994.050415,451.301880 995.871643,451.301880 
	C995.968994,452.743347 996.073059,454.284607 996.237793,456.725037 
	C1000.107910,452.038849 1004.406555,449.747925 1009.935913,450.449524 
	C1016.365479,451.265320 1019.774963,454.216461 1020.064270,460.657074 
	C1020.451294,469.273865 1020.160034,477.921143 1020.160034,486.782349 
	C1018.542114,486.782349 1016.970642,486.782349 1015.019653,486.782349 
	C1015.019653,479.372925 1015.050964,472.077789 1015.010437,464.783051 
	C1014.973572,458.153717 1013.101746,455.543701 1008.197449,455.091278 
	C1002.619812,454.576721 997.694946,457.842041 997.057861,463.456726 
	C996.329468,469.876678 996.508179,476.400024 996.306519,482.878876 
	C996.270508,484.036346 996.301514,485.195923 996.301514,486.719910 
	C994.578125,486.845184 993.023804,486.958130 990.988708,487.106049 
	C990.988708,483.398834 990.988708,479.937653 990.988708,475.979004 
z"/>
<path fill="#F0F0F0" opacity="1.000000" stroke="none" 
	d="
M868.361450,471.356873 
	C864.819092,470.252319 861.422058,469.725372 858.547058,468.208832 
	C852.311218,464.919617 852.040649,456.318420 857.783203,452.488525 
	C863.687927,448.550507 873.379578,449.904572 878.432068,455.600525 
	C877.483276,456.612213 876.512756,457.647125 876.460632,457.702667 
	C871.942505,456.661987 868.337402,455.182068 864.770752,455.269684 
	C862.834290,455.317291 860.963257,458.032227 859.062683,459.544067 
	C860.512390,461.333344 861.622192,463.765228 863.494507,464.755646 
	C866.063110,466.114441 869.243591,466.269623 872.101746,467.138245 
	C877.346924,468.732330 880.069763,472.403290 879.894226,477.369019 
	C879.718689,482.335175 876.776917,485.729156 871.460632,487.123108 
	C865.846802,488.595123 860.528076,487.824432 855.689087,484.681396 
	C851.892029,482.215210 851.994995,480.983459 854.927917,478.500153 
	C859.181641,480.097717 862.805298,482.081085 866.650757,482.711517 
	C869.892639,483.243011 873.492065,482.239471 874.158447,477.912170 
	C874.789429,473.815155 872.080017,472.340515 868.361450,471.356873 
z"/>
<path fill="#F0F0F0" opacity="1.000000" stroke="none" 
	d="
M225.663239,427.299622 
	C220.856491,420.916870 220.372940,414.040222 222.344452,407.050110 
	C224.293335,400.140198 229.202621,396.250916 236.410690,395.402496 
	C243.388321,394.581207 248.436768,397.074707 251.906357,403.261108 
	C250.809769,404.132233 249.676361,405.032593 248.340332,406.093903 
	C247.738586,405.431213 247.164856,404.882477 246.687469,404.259857 
	C243.944931,400.683075 240.236710,399.736237 236.019058,400.484650 
	C231.633026,401.262909 228.649475,403.973450 227.999664,408.295227 
	C227.444580,411.987000 227.427048,415.885559 227.952545,419.581635 
	C228.599350,424.130737 231.724808,426.990845 236.289688,427.697357 
	C240.942871,428.417572 244.862030,427.046448 247.228088,422.591034 
	C247.528244,422.025848 247.932953,421.516235 248.254425,421.033142 
	C252.683487,421.821503 252.581268,423.950714 250.496597,426.925842 
	C245.217880,434.459412 233.748444,434.784454 225.663239,427.299622 
z"/>
<path fill="#F2F2F2" opacity="1.000000" stroke="none" 
	d="
M767.633057,474.501190 
	C770.123230,467.930420 772.741638,461.806305 774.663818,455.471008 
	C775.896301,451.408844 777.851135,450.039612 781.999329,451.495056 
	C777.544067,463.257507 773.090759,475.014771 768.704651,486.594757 
	C763.316284,488.142242 760.463379,486.776947 758.699707,481.149963 
	C755.583191,471.206604 751.419250,461.591553 747.638977,451.695831 
	C751.742188,449.924683 753.639893,451.304565 754.977722,455.190765 
	C757.887329,463.642822 761.220886,471.948883 764.805542,481.438263 
	C765.934814,478.645599 766.700500,476.751953 767.633057,474.501190 
z"/>
<path fill="#F7F7F7" opacity="1.000000" stroke="none" 
	d="
M896.201233,476.733582 
	C897.831909,483.337341 899.553223,484.033447 907.197815,481.448029 
	C907.752869,482.531036 908.326416,483.650024 908.910950,484.790527 
	C908.451111,485.299530 908.198914,485.787018 907.801880,485.987640 
	C898.157959,490.860748 890.961060,486.486176 890.885986,475.690948 
	C890.841003,469.221191 890.877747,462.750885 890.877747,455.885651 
	C888.992004,455.697784 887.261597,455.525421 884.968872,455.296997 
	C884.855774,454.132019 884.725891,452.794281 884.567444,451.162506 
	C886.776672,451.060883 888.558044,450.978973 890.690063,450.880920 
	C890.797058,448.555725 890.901733,446.281891 891.030518,443.482788 
	C892.507751,443.248566 894.028748,443.007385 895.969543,442.699646 
	C896.114868,445.614624 896.242920,448.183716 896.385986,451.053680 
	C900.167786,451.053680 903.793030,451.053680 907.636841,451.053680 
	C907.636841,452.592133 907.636841,453.821777 907.636841,455.537842 
	C903.883789,455.537842 900.286682,455.537842 896.185120,455.537842 
	C896.185120,462.764221 896.185120,469.516205 896.201233,476.733582 
z"/>
<path fill="#E7E7E7" opacity="1.000000" stroke="none" 
	d="
M833.949707,484.693726 
	C832.388916,485.995728 830.830139,486.829346 828.572998,488.036377 
	C828.572998,475.039459 828.572998,463.312286 828.572998,451.273468 
	C830.043884,451.158844 831.465149,451.048096 833.170105,450.915253 
	C833.521301,452.429932 833.831787,453.769135 834.271667,455.666168 
	C838.313721,450.397736 843.258850,449.788422 849.200500,451.848419 
	C848.713745,453.584290 848.324890,454.971100 847.943604,456.330811 
	C837.171082,455.379791 834.139893,458.087372 833.979553,468.780365 
	C833.902405,473.927673 833.956787,479.076965 833.949707,484.693726 
z"/>
<path fill="#FCFCFC" opacity="1.000000" stroke="none" 
	d="
M346.888062,927.000732 
	C346.888062,920.714844 346.888062,914.928833 346.888062,908.918335 
	C348.644531,908.918335 350.077667,908.918335 352.155426,908.918335 
	C352.155426,915.994568 352.154907,923.057129 352.155548,930.119629 
	C352.156128,936.763794 351.912567,943.423401 352.329376,950.041382 
	C352.435394,951.724487 354.540497,953.368347 355.915039,954.856689 
	C356.973785,956.003113 358.326965,956.877747 360.311310,958.493774 
	C351.009766,961.018860 347.008667,958.160889 346.913269,950.422668 
	C346.819061,942.783020 346.889740,935.141357 346.888062,927.000732 
z"/>
<path fill="#E7E7E7" opacity="1.000000" stroke="none" 
	d="
M368.196594,923.004578 
	C370.677277,922.798401 372.042816,923.007080 372.008087,925.748840 
	C371.869812,936.657776 371.951141,947.569580 371.951141,958.761353 
	C370.091583,958.761353 368.518860,958.761353 366.388184,958.761353 
	C366.388184,947.278259 366.374451,935.748474 366.445404,924.219238 
	C366.447876,923.815186 367.293060,923.416321 368.196594,923.004578 
z"/>
<path fill="#FCFCFC" opacity="1.000000" stroke="none" 
	d="
M342.993652,423.943237 
	C342.993652,414.489319 342.993652,405.526917 342.993652,396.301910 
	C344.825714,396.301910 346.362061,396.301910 348.095886,396.301910 
	C348.095886,408.115143 348.095886,419.723114 348.095886,431.796387 
	C346.639862,431.870300 345.084717,431.949249 342.993652,432.055420 
	C342.993652,429.320648 342.993652,426.877716 342.993652,423.943237 
z"/>
<path fill="#EEEEEE" opacity="1.000000" stroke="none" 
	d="
M371.756439,909.577820 
	C371.815186,911.746338 372.019806,913.829285 371.247253,915.444946 
	C370.971802,916.020996 367.905548,916.026306 366.887451,915.261475 
	C365.931396,914.543274 365.390991,911.346619 365.714142,911.171448 
	C367.469513,910.220215 369.548920,909.867004 371.756439,909.577820 
z"/>
<path fill="#F2F2F2" opacity="1.000000" stroke="none" 
	d="
M342.935425,388.112000 
	C342.952118,385.950592 342.868225,383.854492 343.751343,382.312042 
	C344.082611,381.733490 347.122955,381.901123 348.082825,382.719788 
	C348.993866,383.496735 349.363525,386.696472 348.995697,386.880432 
	C347.253204,387.751984 345.176727,387.955750 342.935425,388.112000 
z"/>
<path fill="#010101" opacity="0.000000" stroke="none" 
	d="
M205.363602,742.493286 
	C232.952637,704.113708 260.515594,665.715393 288.135254,627.357910 
	C408.634216,460.011932 529.149597,292.677765 649.659363,125.339554 
	C657.229919,114.827103 664.803650,104.316895 673.085205,92.821083 
	C673.085205,342.881989 673.085205,591.821960 673.085205,841.140503 
	C645.721558,841.140503 618.160339,841.140503 590.147339,841.140503 
	C590.147339,832.237915 590.147339,823.316833 590.147339,814.217590 
	C586.292175,814.217590 582.888184,814.217590 579.046631,814.217590 
	C579.046631,823.351318 579.046631,832.276306 579.046631,841.353210 
	C476.507965,841.353210 374.407959,841.353210 271.702606,841.353210 
	C277.058380,829.259277 277.008148,816.563965 274.752350,804.568848 
	C272.026245,790.073059 269.934570,774.554321 256.833771,764.334534 
	C255.688477,763.441101 254.707520,762.150085 254.053558,760.842102 
	C246.105240,744.944824 232.155563,741.346436 216.041458,742.253479 
	C213.059692,742.421265 210.103699,743.046387 206.486893,743.172485 
	C205.679855,742.754028 205.521744,742.623657 205.363602,742.493286 
M324.244202,739.451599 
	C322.805420,730.649353 322.351746,721.533813 319.676758,713.124817 
	C316.386292,702.781128 308.195435,698.221863 297.701416,698.566101 
	C287.410461,698.903687 280.239227,703.821045 276.928680,714.200317 
	C271.631683,730.807312 271.459106,747.671021 277.121674,764.241577 
	C280.954437,775.457581 288.400909,780.256348 299.803558,780.027039 
	C310.128906,779.819336 317.786896,774.403442 320.825104,763.400940 
	C322.879120,755.962708 323.155396,748.033569 324.244202,739.451599 
M579.073853,754.618713 
	C579.156921,756.035522 579.239929,757.452332 579.347290,759.282837 
	C583.183960,758.982910 588.743347,759.800171 589.540100,758.218384 
	C591.071777,755.177612 592.889587,756.076843 594.652222,756.044434 
	C602.232117,755.905090 609.816040,755.984985 617.425720,755.984985 
	C617.425720,751.995117 617.425720,748.606079 617.425720,745.250427 
	C606.398254,745.250427 595.685852,745.250427 584.904907,745.250427 
	C584.754517,746.974854 584.627991,748.425720 584.512146,749.753845 
	C582.592041,751.192322 578.183899,748.859314 579.073853,754.618713 
M590.090210,800.344360 
	C590.090210,790.273560 590.090210,780.202820 590.090210,770.370605 
	C586.003296,770.370605 582.606873,770.370605 579.435730,770.370605 
	C579.435730,781.460449 579.435730,792.182556 579.435730,803.018555 
	C581.623474,803.018555 583.487427,803.239746 585.270020,802.953857 
	C586.920349,802.689148 588.483704,801.882019 590.090210,800.344360 
M628.715027,751.468018 
	C628.782288,752.888794 628.849487,754.309631 628.913757,755.667969 
	C640.024048,755.667969 650.723938,755.667969 661.407532,755.667969 
	C661.407532,751.956604 661.407532,748.569031 661.407532,745.255798 
	C650.345642,745.255798 639.613647,745.255798 628.714966,745.255798 
	C628.714966,747.188721 628.714966,748.838257 628.715027,751.468018 
z"/>
<path fill="#030303" opacity="0.000000" stroke="none" 
	d="
M169.319641,792.334717 
	C175.569580,783.676514 182.247742,775.681946 187.438568,766.816650 
	C192.158615,758.755310 199.074844,756.104492 207.414764,755.140381 
	C211.048691,754.720337 214.709885,754.542053 218.351196,754.178894 
	C229.804764,753.036316 237.906769,759.026123 244.243469,767.364380 
	C251.464630,776.866455 257.481567,786.875000 259.690735,799.273315 
	C261.056519,806.938293 263.134766,814.425293 262.774750,822.268311 
	C262.514160,827.945190 262.203064,833.621155 255.276398,835.989136 
	C253.631470,836.551392 252.684448,839.155212 251.073578,841.270142 
	C212.871094,841.270142 173.973801,841.270142 134.107986,841.270142 
	C146.070480,824.638000 157.585175,808.628540 169.319641,792.334717 
z"/>
<path fill="#010101" opacity="0.000000" stroke="none" 
	d="
M206.066040,743.090576 
	C205.915527,743.410156 205.536942,743.523621 205.158356,743.637085 
	C205.122162,743.409241 205.085953,743.181396 205.206696,742.723389 
	C205.521744,742.623657 205.679855,742.754028 206.066040,743.090576 
z"/>
<path fill="#0A0A0A" opacity="0.000000" stroke="none" 
	d="
M399.327881,969.415649 
	C395.963287,969.253357 392.700684,969.709717 390.139618,968.578247 
	C388.231354,967.735168 386.239319,964.875732 386.161926,962.842773 
	C386.107117,961.403137 389.077332,958.739807 390.891479,958.557617 
	C395.287048,958.116333 399.825317,958.588806 404.240509,959.181458 
	C405.453125,959.344177 407.393005,961.304199 407.315247,962.309204 
	C407.169464,964.194275 406.179749,966.388000 404.813660,967.690491 
	C403.649506,968.800537 401.464447,968.839722 399.327881,969.415649 
z"/>
<path fill="#070707" opacity="0.000000" stroke="none" 
	d="
M390.178711,939.643799 
	C387.839447,933.753784 388.431915,929.235046 392.272186,928.213318 
	C395.248962,927.421265 399.634552,927.520020 401.753052,929.241760 
	C403.584717,930.730286 404.028992,935.259033 403.421875,938.086365 
	C402.617706,941.831055 398.794586,942.498962 395.315369,941.992004 
	C393.623291,941.745422 392.051239,940.675293 390.178711,939.643799 
z"/>
<path fill="#0A0A0A" opacity="0.000000" stroke="none" 
	d="
M424.418396,959.438599 
	C430.168488,959.128296 435.589600,958.889587 440.983337,959.172974 
	C442.107574,959.231995 443.976379,961.201538 444.003143,962.326355 
	C444.044098,964.048401 443.235748,966.292297 441.985748,967.444641 
	C438.846222,970.338867 428.312531,970.433533 424.877075,967.808960 
	C421.858124,965.502747 421.573273,962.673035 424.418396,959.438599 
z"/>
<path fill="#070707" opacity="0.000000" stroke="none" 
	d="
M440.992981,935.761230 
	C440.044769,940.770081 436.935608,942.266479 432.609955,942.108398 
	C429.090302,941.979797 426.600281,940.582886 425.692566,936.939575 
	C424.457733,931.983215 426.751617,927.998657 431.406036,927.141602 
	C437.092224,926.094482 440.511688,929.015991 440.992981,935.761230 
z"/>
<path fill="#040404" opacity="0.000000" stroke="none" 
	d="
M734.742310,467.406586 
	C732.712280,477.711761 729.211548,481.578674 721.643921,482.248566 
	C711.844666,483.116058 706.130859,478.751862 704.876404,468.902130 
	C704.380676,465.009705 704.431946,460.943359 704.940918,457.048553 
	C706.057251,448.505219 711.028259,444.150055 719.119629,443.990692 
	C727.645691,443.822754 732.700195,447.888855 734.200317,456.590179 
	C734.785645,459.985504 734.618164,463.510590 734.742310,467.406586 
z"/>
<path fill="#040404" opacity="0.000000" stroke="none" 
	d="
M1039.568115,457.473328 
	C1049.165649,452.625122 1056.680542,456.951416 1056.991699,467.261658 
	C1057.080322,470.195953 1056.787598,473.274323 1055.955078,476.074127 
	C1054.551147,480.795380 1050.803955,482.869080 1046.039062,482.838623 
	C1041.189453,482.807648 1037.542969,480.457855 1036.525024,475.654358 
	C1035.210815,469.453033 1034.459839,463.098999 1039.568115,457.473328 
z"/>
<path fill="#040404" opacity="0.000000" stroke="none" 
	d="
M554.222412,954.510254 
	C545.450684,955.188599 541.361877,951.683777 541.018616,943.337708 
	C540.903931,940.549011 541.024353,937.653076 541.658813,934.952148 
	C542.848389,929.888184 546.344360,927.312317 551.312317,927.226746 
	C556.113342,927.144043 559.923584,929.853882 561.516418,934.483948 
	C564.506897,943.176636 561.675293,951.315857 554.222412,954.510254 
z"/>
<path fill="#070707" opacity="0.000000" stroke="none" 
	d="
M239.248260,918.090698 
	C242.446320,925.334167 245.439865,932.927856 248.577911,940.888123 
	C242.492020,940.888123 237.258209,940.888123 231.477524,940.888123 
	C234.084549,933.153625 236.564133,925.797241 239.248260,918.090698 
z"/>
<path fill="#0A0A0A" opacity="0.000000" stroke="none" 
	d="
M472.935120,937.861877 
	C468.957397,937.861877 465.464111,937.861877 461.980042,937.861877 
	C461.704865,931.082214 465.132294,927.178223 471.346527,926.985229 
	C477.758911,926.786194 480.918701,930.279724 480.823395,937.861877 
	C478.361389,937.861877 475.890472,937.861877 472.935120,937.861877 
z"/>
<path fill="#070707" opacity="0.000000" stroke="none" 
	d="
M965.225525,470.092377 
	C968.010864,469.439941 970.388977,468.838409 973.916931,467.945984 
	C972.872742,472.201385 972.508606,476.190918 970.892761,479.584412 
	C969.182922,483.175171 963.471680,484.380035 959.909180,482.681183 
	C956.584106,481.095581 955.547424,477.663879 957.147644,475.212738 
	C958.685364,472.857483 962.182312,471.781403 965.225525,470.092377 
z"/>
<path fill="#070707" opacity="0.000000" stroke="none" 
	d="
M922.754822,471.637390 
	C927.248779,470.394226 931.394897,469.363129 935.536926,468.333038 
	C937.209778,477.193848 933.951538,483.245300 927.057556,483.099335 
	C924.765503,483.050812 921.576477,481.801636 920.458557,480.044525 
	C918.769897,477.390198 919.017822,473.934082 922.754822,471.637390 
z"/>
<path fill="#0A0A0A" opacity="0.000000" stroke="none" 
	d="
M809.417603,456.348969 
	C811.206970,459.307220 812.663025,462.046326 814.691284,465.861816 
	C809.945862,465.861816 806.862915,465.861847 803.779907,465.861847 
	C800.651428,465.861847 797.523010,465.861816 794.418396,465.861816 
	C793.410645,457.319550 800.040955,453.012665 809.417603,456.348969 
z"/>
<path fill="#070707" opacity="0.000000" stroke="none" 
	d="
M273.417908,953.910095 
	C269.734253,947.625183 271.057983,944.282715 277.534943,942.645081 
	C280.890167,941.796753 284.278564,941.079529 287.653381,940.302734 
	C289.741333,949.683228 283.858368,958.526123 273.417908,953.910095 
z"/>
<path fill="#F7F7F7" opacity="1.000000" stroke="none" 
	d="
M324.235535,739.887817 
	C323.155396,748.033569 322.879120,755.962708 320.825104,763.400940 
	C317.786896,774.403442 310.128906,779.819336 299.803558,780.027039 
	C288.400909,780.256348 280.954437,775.457581 277.121674,764.241577 
	C271.459106,747.671021 271.631683,730.807312 276.928680,714.200317 
	C280.239227,703.821045 287.410461,698.903687 297.701416,698.566101 
	C308.195435,698.221863 316.386292,702.781128 319.676758,713.124817 
	C322.351746,721.533813 322.805420,730.649353 324.235535,739.887817 
M314.448700,748.872131 
	C314.597961,746.763794 314.747223,744.655396 314.903534,742.447205 
	C304.003448,742.447205 293.486053,742.447205 281.784363,742.447205 
	C283.310120,749.958008 284.264679,757.030823 286.270508,763.791748 
	C287.919891,769.351501 292.322418,772.292480 298.399170,772.344788 
	C304.424713,772.396606 308.825470,769.644104 310.843353,764.176697 
	C312.545227,759.565430 313.210541,754.571594 314.448700,748.872131 
M307.712036,709.721313 
	C299.074554,703.267517 289.602386,705.568787 286.088715,715.566162 
	C284.055939,721.350098 283.401764,727.618530 282.056763,734.002930 
	C293.694519,734.002930 304.073212,734.002930 314.751434,734.002930 
	C313.989136,725.480774 313.769531,717.166809 307.712036,709.721313 
z"/>
<path fill="#FBFBFB" opacity="1.000000" stroke="none" 
	d="
M579.073914,754.163696 
	C578.183899,748.859314 582.592041,751.192322 584.512146,749.753845 
	C584.627991,748.425720 584.754517,746.974854 584.904907,745.250427 
	C595.685852,745.250427 606.398254,745.250427 617.425720,745.250427 
	C617.425720,748.606079 617.425720,751.995117 617.425720,755.984985 
	C609.816040,755.984985 602.232117,755.905090 594.652222,756.044434 
	C592.889587,756.076843 591.071777,755.177612 589.540100,758.218384 
	C588.743347,759.800171 583.183960,758.982910 579.347290,759.282837 
	C579.239929,757.452332 579.156921,756.035522 579.073914,754.163696 
z"/>
<path fill="#FCFCFC" opacity="1.000000" stroke="none" 
	d="
M590.087769,800.829102 
	C588.483704,801.882019 586.920349,802.689148 585.270020,802.953857 
	C583.487427,803.239746 581.623474,803.018555 579.435730,803.018555 
	C579.435730,792.182556 579.435730,781.460449 579.435730,770.370605 
	C582.606873,770.370605 586.003296,770.370605 590.090210,770.370605 
	C590.090210,780.202820 590.090210,790.273560 590.087769,800.829102 
z"/>
<path fill="#FCFCFC" opacity="1.000000" stroke="none" 
	d="
M628.714966,750.977905 
	C628.714966,748.838257 628.714966,747.188721 628.714966,745.255798 
	C639.613647,745.255798 650.345642,745.255798 661.407532,745.255798 
	C661.407532,748.569031 661.407532,751.956604 661.407532,755.667969 
	C650.723938,755.667969 640.024048,755.667969 628.913757,755.667969 
	C628.849487,754.309631 628.782288,752.888794 628.714966,750.977905 
z"/>
<path fill="#040404" opacity="0.000000" stroke="none" 
	d="
M314.391663,749.309631 
	C313.210541,754.571594 312.545227,759.565430 310.843353,764.176697 
	C308.825470,769.644104 304.424713,772.396606 298.399170,772.344788 
	C292.322418,772.292480 287.919891,769.351501 286.270508,763.791748 
	C284.264679,757.030823 283.310120,749.958008 281.784363,742.447205 
	C293.486053,742.447205 304.003448,742.447205 314.903534,742.447205 
	C314.747223,744.655396 314.597961,746.763794 314.391663,749.309631 
z"/>
<path fill="#030303" opacity="0.000000" stroke="none" 
	d="
M307.969818,709.992554 
	C313.769531,717.166809 313.989136,725.480774 314.751434,734.002930 
	C304.073212,734.002930 293.694519,734.002930 282.056763,734.002930 
	C283.401764,727.618530 284.055939,721.350098 286.088715,715.566162 
	C289.602386,705.568787 299.074554,703.267517 307.969818,709.992554 
z"/>
</svg>