<?xml version="1.0" encoding="utf-8" standalone="no"?>
<!DOCTYPE svg PUBLIC "-//W3C//DTD SVG 1.1//EN"
  "http://www.w3.org/Graphics/SVG/1.1/DTD/svg11.dtd">
<svg xmlns:xlink="http://www.w3.org/1999/xlink" width="460.8pt" height="345.6pt" viewBox="0 0 460.8 345.6" xmlns="http://www.w3.org/2000/svg" version="1.1">
 <metadata>
  <rdf:RDF xmlns:dc="http://purl.org/dc/elements/1.1/" xmlns:cc="http://creativecommons.org/ns#" xmlns:rdf="http://www.w3.org/1999/02/22-rdf-syntax-ns#">
   <cc:Work>
    <dc:type rdf:resource="http://purl.org/dc/dcmitype/StillImage"/>
    <dc:date>2024-08-06T16:07:08.794630</dc:date>
    <dc:format>image/svg+xml</dc:format>
    <dc:creator>
     <cc:Agent>
      <dc:title>Matplotlib v3.8.3, https://matplotlib.org/</dc:title>
     </cc:Agent>
    </dc:creator>
   </cc:Work>
  </rdf:RDF>
 </metadata>
 <defs>
  <style type="text/css">*{stroke-linejoin: round; stroke-linecap: butt}</style>
 </defs>
 <g id="figure_1">
  <g id="patch_1">
   <path d="M 0 345.6 
L 460.8 345.6 
L 460.8 0 
L 0 0 
L 0 345.6 
z
" style="fill: none"/>
  </g>
  <g id="axes_1">
   <g id="patch_2">
    <path d="M 57.6 307.584 
L 414.72 307.584 
L 414.72 41.472 
L 57.6 41.472 
z
" style="fill: none"/>
   </g>
   <g id="LineCollection_1">
    <path d="M 57.6 241.056 
L 414.72 241.056 
" clip-path="url(#pd42ff7b489)" style="fill: none; stroke: #d3d3d3; stroke-width: 1.5"/>
   </g>
   <g id="LineCollection_2">
    <path d="M 117.12 307.584 
L 117.12 41.472 
" clip-path="url(#pd42ff7b489)" style="fill: none; stroke: #d3d3d3; stroke-width: 1.5"/>
   </g>
   <g id="matplotlib.axis_1">
    <g id="xtick_1">
     <g id="line2d_1">
      <defs>
       <path id="mb00dc0b6cb" d="M 0 0 
L 0 3.5 
" style="stroke: #d3d3d3; stroke-width: 0.8"/>
      </defs>
      <g>
       <use xlink:href="#mb00dc0b6cb" x="57.6" y="307.584" style="fill: #d3d3d3; stroke: #d3d3d3; stroke-width: 0.8"/>
      </g>
     </g>
     <g id="text_1">
      <!-- −1 -->
      <g style="fill: #d3d3d3" transform="translate(50.228906 322.182437) scale(0.1 -0.1)">
       <defs>
        <path id="DejaVuSans-2212" d="M 678 2272 
L 4684 2272 
L 4684 1741 
L 678 1741 
L 678 2272 
z
" transform="scale(0.015625)"/>
        <path id="DejaVuSans-31" d="M 794 531 
L 1825 531 
L 1825 4091 
L 703 3866 
L 703 4441 
L 1819 4666 
L 2450 4666 
L 2450 531 
L 3481 531 
L 3481 0 
L 794 0 
L 794 531 
z
" transform="scale(0.015625)"/>
       </defs>
       <use xlink:href="#DejaVuSans-2212"/>
       <use xlink:href="#DejaVuSans-31" x="83.789062"/>
      </g>
     </g>
    </g>
    <g id="xtick_2">
     <g id="line2d_2">
      <g>
       <use xlink:href="#mb00dc0b6cb" x="117.12" y="307.584" style="fill: #d3d3d3; stroke: #d3d3d3; stroke-width: 0.8"/>
      </g>
     </g>
     <g id="text_2">
      <!-- 0 -->
      <g style="fill: #d3d3d3" transform="translate(113.93875 322.182437) scale(0.1 -0.1)">
       <defs>
        <path id="DejaVuSans-30" d="M 2034 4250 
Q 1547 4250 1301 3770 
Q 1056 3291 1056 2328 
Q 1056 1369 1301 889 
Q 1547 409 2034 409 
Q 2525 409 2770 889 
Q 3016 1369 3016 2328 
Q 3016 3291 2770 3770 
Q 2525 4250 2034 4250 
z
M 2034 4750 
Q 2819 4750 3233 4129 
Q 3647 3509 3647 2328 
Q 3647 1150 3233 529 
Q 2819 -91 2034 -91 
Q 1250 -91 836 529 
Q 422 1150 422 2328 
Q 422 3509 836 4129 
Q 1250 4750 2034 4750 
z
" transform="scale(0.015625)"/>
       </defs>
       <use xlink:href="#DejaVuSans-30"/>
      </g>
     </g>
    </g>
    <g id="xtick_3">
     <g id="line2d_3">
      <g>
       <use xlink:href="#mb00dc0b6cb" x="176.64" y="307.584" style="fill: #d3d3d3; stroke: #d3d3d3; stroke-width: 0.8"/>
      </g>
     </g>
     <g id="text_3">
      <!-- 1 -->
      <g style="fill: #d3d3d3" transform="translate(173.45875 322.182437) scale(0.1 -0.1)">
       <use xlink:href="#DejaVuSans-31"/>
      </g>
     </g>
    </g>
    <g id="xtick_4">
     <g id="line2d_4">
      <g>
       <use xlink:href="#mb00dc0b6cb" x="236.16" y="307.584" style="fill: #d3d3d3; stroke: #d3d3d3; stroke-width: 0.8"/>
      </g>
     </g>
     <g id="text_4">
      <!-- 2 -->
      <g style="fill: #d3d3d3" transform="translate(232.97875 322.182437) scale(0.1 -0.1)">
       <defs>
        <path id="DejaVuSans-32" d="M 1228 531 
L 3431 531 
L 3431 0 
L 469 0 
L 469 531 
Q 828 903 1448 1529 
Q 2069 2156 2228 2338 
Q 2531 2678 2651 2914 
Q 2772 3150 2772 3378 
Q 2772 3750 2511 3984 
Q 2250 4219 1831 4219 
Q 1534 4219 1204 4116 
Q 875 4013 500 3803 
L 500 4441 
Q 881 4594 1212 4672 
Q 1544 4750 1819 4750 
Q 2544 4750 2975 4387 
Q 3406 4025 3406 3419 
Q 3406 3131 3298 2873 
Q 3191 2616 2906 2266 
Q 2828 2175 2409 1742 
Q 1991 1309 1228 531 
z
" transform="scale(0.015625)"/>
       </defs>
       <use xlink:href="#DejaVuSans-32"/>
      </g>
     </g>
    </g>
    <g id="xtick_5">
     <g id="line2d_5">
      <g>
       <use xlink:href="#mb00dc0b6cb" x="295.68" y="307.584" style="fill: #d3d3d3; stroke: #d3d3d3; stroke-width: 0.8"/>
      </g>
     </g>
     <g id="text_5">
      <!-- 3 -->
      <g style="fill: #d3d3d3" transform="translate(292.49875 322.182437) scale(0.1 -0.1)">
       <defs>
        <path id="DejaVuSans-33" d="M 2597 2516 
Q 3050 2419 3304 2112 
Q 3559 1806 3559 1356 
Q 3559 666 3084 287 
Q 2609 -91 1734 -91 
Q 1441 -91 1130 -33 
Q 819 25 488 141 
L 488 750 
Q 750 597 1062 519 
Q 1375 441 1716 441 
Q 2309 441 2620 675 
Q 2931 909 2931 1356 
Q 2931 1769 2642 2001 
Q 2353 2234 1838 2234 
L 1294 2234 
L 1294 2753 
L 1863 2753 
Q 2328 2753 2575 2939 
Q 2822 3125 2822 3475 
Q 2822 3834 2567 4026 
Q 2313 4219 1838 4219 
Q 1578 4219 1281 4162 
Q 984 4106 628 3988 
L 628 4550 
Q 988 4650 1302 4700 
Q 1616 4750 1894 4750 
Q 2613 4750 3031 4423 
Q 3450 4097 3450 3541 
Q 3450 3153 3228 2886 
Q 3006 2619 2597 2516 
z
" transform="scale(0.015625)"/>
       </defs>
       <use xlink:href="#DejaVuSans-33"/>
      </g>
     </g>
    </g>
    <g id="xtick_6">
     <g id="line2d_6">
      <g>
       <use xlink:href="#mb00dc0b6cb" x="355.2" y="307.584" style="fill: #d3d3d3; stroke: #d3d3d3; stroke-width: 0.8"/>
      </g>
     </g>
     <g id="text_6">
      <!-- 4 -->
      <g style="fill: #d3d3d3" transform="translate(352.01875 322.182437) scale(0.1 -0.1)">
       <defs>
        <path id="DejaVuSans-34" d="M 2419 4116 
L 825 1625 
L 2419 1625 
L 2419 4116 
z
M 2253 4666 
L 3047 4666 
L 3047 1625 
L 3713 1625 
L 3713 1100 
L 3047 1100 
L 3047 0 
L 2419 0 
L 2419 1100 
L 313 1100 
L 313 1709 
L 2253 4666 
z
" transform="scale(0.015625)"/>
       </defs>
       <use xlink:href="#DejaVuSans-34"/>
      </g>
     </g>
    </g>
    <g id="xtick_7">
     <g id="line2d_7">
      <g>
       <use xlink:href="#mb00dc0b6cb" x="414.72" y="307.584" style="fill: #d3d3d3; stroke: #d3d3d3; stroke-width: 0.8"/>
      </g>
     </g>
     <g id="text_7">
      <!-- 5 -->
      <g style="fill: #d3d3d3" transform="translate(411.53875 322.182437) scale(0.1 -0.1)">
       <defs>
        <path id="DejaVuSans-35" d="M 691 4666 
L 3169 4666 
L 3169 4134 
L 1269 4134 
L 1269 2991 
Q 1406 3038 1543 3061 
Q 1681 3084 1819 3084 
Q 2600 3084 3056 2656 
Q 3513 2228 3513 1497 
Q 3513 744 3044 326 
Q 2575 -91 1722 -91 
Q 1428 -91 1123 -41 
Q 819 9 494 109 
L 494 744 
Q 775 591 1075 516 
Q 1375 441 1709 441 
Q 2250 441 2565 725 
Q 2881 1009 2881 1497 
Q 2881 1984 2565 2268 
Q 2250 2553 1709 2553 
Q 1456 2553 1204 2497 
Q 953 2441 691 2322 
L 691 4666 
z
" transform="scale(0.015625)"/>
       </defs>
       <use xlink:href="#DejaVuSans-35"/>
      </g>
     </g>
    </g>
    <g id="text_8">
     <!-- X-as -->
     <g style="fill: #d3d3d3" transform="translate(225.512344 335.860562) scale(0.1 -0.1)">
      <defs>
       <path id="DejaVuSans-58" d="M 403 4666 
L 1081 4666 
L 2241 2931 
L 3406 4666 
L 4084 4666 
L 2584 2425 
L 4184 0 
L 3506 0 
L 2194 1984 
L 872 0 
L 191 0 
L 1856 2491 
L 403 4666 
z
" transform="scale(0.015625)"/>
       <path id="DejaVuSans-2d" d="M 313 2009 
L 1997 2009 
L 1997 1497 
L 313 1497 
L 313 2009 
z
" transform="scale(0.015625)"/>
       <path id="DejaVuSans-61" d="M 2194 1759 
Q 1497 1759 1228 1600 
Q 959 1441 959 1056 
Q 959 750 1161 570 
Q 1363 391 1709 391 
Q 2188 391 2477 730 
Q 2766 1069 2766 1631 
L 2766 1759 
L 2194 1759 
z
M 3341 1997 
L 3341 0 
L 2766 0 
L 2766 531 
Q 2569 213 2275 61 
Q 1981 -91 1556 -91 
Q 1019 -91 701 211 
Q 384 513 384 1019 
Q 384 1609 779 1909 
Q 1175 2209 1959 2209 
L 2766 2209 
L 2766 2266 
Q 2766 2663 2505 2880 
Q 2244 3097 1772 3097 
Q 1472 3097 1187 3025 
Q 903 2953 641 2809 
L 641 3341 
Q 956 3463 1253 3523 
Q 1550 3584 1831 3584 
Q 2591 3584 2966 3190 
Q 3341 2797 3341 1997 
z
" transform="scale(0.015625)"/>
       <path id="DejaVuSans-73" d="M 2834 3397 
L 2834 2853 
Q 2591 2978 2328 3040 
Q 2066 3103 1784 3103 
Q 1356 3103 1142 2972 
Q 928 2841 928 2578 
Q 928 2378 1081 2264 
Q 1234 2150 1697 2047 
L 1894 2003 
Q 2506 1872 2764 1633 
Q 3022 1394 3022 966 
Q 3022 478 2636 193 
Q 2250 -91 1575 -91 
Q 1294 -91 989 -36 
Q 684 19 347 128 
L 347 722 
Q 666 556 975 473 
Q 1284 391 1588 391 
Q 1994 391 2212 530 
Q 2431 669 2431 922 
Q 2431 1156 2273 1281 
Q 2116 1406 1581 1522 
L 1381 1569 
Q 847 1681 609 1914 
Q 372 2147 372 2553 
Q 372 3047 722 3315 
Q 1072 3584 1716 3584 
Q 2034 3584 2315 3537 
Q 2597 3491 2834 3397 
z
" transform="scale(0.015625)"/>
      </defs>
      <use xlink:href="#DejaVuSans-58"/>
      <use xlink:href="#DejaVuSans-2d" x="63.505859"/>
      <use xlink:href="#DejaVuSans-61" x="99.589844"/>
      <use xlink:href="#DejaVuSans-73" x="160.869141"/>
     </g>
    </g>
   </g>
   <g id="matplotlib.axis_2">
    <g id="ytick_1">
     <g id="line2d_8">
      <defs>
       <path id="m4b2f05e237" d="M 0 0 
L -3.5 0 
" style="stroke: #d3d3d3; stroke-width: 0.8"/>
      </defs>
      <g>
       <use xlink:href="#m4b2f05e237" x="57.6" y="307.584" style="fill: #d3d3d3; stroke: #d3d3d3; stroke-width: 0.8"/>
      </g>
     </g>
     <g id="text_9">
      <!-- −1.0 -->
      <g style="fill: #d3d3d3" transform="translate(26.317187 311.383219) scale(0.1 -0.1)">
       <defs>
        <path id="DejaVuSans-2e" d="M 684 794 
L 1344 794 
L 1344 0 
L 684 0 
L 684 794 
z
" transform="scale(0.015625)"/>
       </defs>
       <use xlink:href="#DejaVuSans-2212"/>
       <use xlink:href="#DejaVuSans-31" x="83.789062"/>
       <use xlink:href="#DejaVuSans-2e" x="147.412109"/>
       <use xlink:href="#DejaVuSans-30" x="179.199219"/>
      </g>
     </g>
    </g>
    <g id="ytick_2">
     <g id="line2d_9">
      <g>
       <use xlink:href="#m4b2f05e237" x="57.6" y="274.32" style="fill: #d3d3d3; stroke: #d3d3d3; stroke-width: 0.8"/>
      </g>
     </g>
     <g id="text_10">
      <!-- −0.5 -->
      <g style="fill: #d3d3d3" transform="translate(26.317187 278.119219) scale(0.1 -0.1)">
       <use xlink:href="#DejaVuSans-2212"/>
       <use xlink:href="#DejaVuSans-30" x="83.789062"/>
       <use xlink:href="#DejaVuSans-2e" x="147.412109"/>
       <use xlink:href="#DejaVuSans-35" x="179.199219"/>
      </g>
     </g>
    </g>
    <g id="ytick_3">
     <g id="line2d_10">
      <g>
       <use xlink:href="#m4b2f05e237" x="57.6" y="241.056" style="fill: #d3d3d3; stroke: #d3d3d3; stroke-width: 0.8"/>
      </g>
     </g>
     <g id="text_11">
      <!-- 0.0 -->
      <g style="fill: #d3d3d3" transform="translate(34.696875 244.855219) scale(0.1 -0.1)">
       <use xlink:href="#DejaVuSans-30"/>
       <use xlink:href="#DejaVuSans-2e" x="63.623047"/>
       <use xlink:href="#DejaVuSans-30" x="95.410156"/>
      </g>
     </g>
    </g>
    <g id="ytick_4">
     <g id="line2d_11">
      <g>
       <use xlink:href="#m4b2f05e237" x="57.6" y="207.792" style="fill: #d3d3d3; stroke: #d3d3d3; stroke-width: 0.8"/>
      </g>
     </g>
     <g id="text_12">
      <!-- 0.5 -->
      <g style="fill: #d3d3d3" transform="translate(34.696875 211.591219) scale(0.1 -0.1)">
       <use xlink:href="#DejaVuSans-30"/>
       <use xlink:href="#DejaVuSans-2e" x="63.623047"/>
       <use xlink:href="#DejaVuSans-35" x="95.410156"/>
      </g>
     </g>
    </g>
    <g id="ytick_5">
     <g id="line2d_12">
      <g>
       <use xlink:href="#m4b2f05e237" x="57.6" y="174.528" style="fill: #d3d3d3; stroke: #d3d3d3; stroke-width: 0.8"/>
      </g>
     </g>
     <g id="text_13">
      <!-- 1.0 -->
      <g style="fill: #d3d3d3" transform="translate(34.696875 178.327219) scale(0.1 -0.1)">
       <use xlink:href="#DejaVuSans-31"/>
       <use xlink:href="#DejaVuSans-2e" x="63.623047"/>
       <use xlink:href="#DejaVuSans-30" x="95.410156"/>
      </g>
     </g>
    </g>
    <g id="ytick_6">
     <g id="line2d_13">
      <g>
       <use xlink:href="#m4b2f05e237" x="57.6" y="141.264" style="fill: #d3d3d3; stroke: #d3d3d3; stroke-width: 0.8"/>
      </g>
     </g>
     <g id="text_14">
      <!-- 1.5 -->
      <g style="fill: #d3d3d3" transform="translate(34.696875 145.063219) scale(0.1 -0.1)">
       <use xlink:href="#DejaVuSans-31"/>
       <use xlink:href="#DejaVuSans-2e" x="63.623047"/>
       <use xlink:href="#DejaVuSans-35" x="95.410156"/>
      </g>
     </g>
    </g>
    <g id="ytick_7">
     <g id="line2d_14">
      <g>
       <use xlink:href="#m4b2f05e237" x="57.6" y="108" style="fill: #d3d3d3; stroke: #d3d3d3; stroke-width: 0.8"/>
      </g>
     </g>
     <g id="text_15">
      <!-- 2.0 -->
      <g style="fill: #d3d3d3" transform="translate(34.696875 111.799219) scale(0.1 -0.1)">
       <use xlink:href="#DejaVuSans-32"/>
       <use xlink:href="#DejaVuSans-2e" x="63.623047"/>
       <use xlink:href="#DejaVuSans-30" x="95.410156"/>
      </g>
     </g>
    </g>
    <g id="ytick_8">
     <g id="line2d_15">
      <g>
       <use xlink:href="#m4b2f05e237" x="57.6" y="74.736" style="fill: #d3d3d3; stroke: #d3d3d3; stroke-width: 0.8"/>
      </g>
     </g>
     <g id="text_16">
      <!-- 2.5 -->
      <g style="fill: #d3d3d3" transform="translate(34.696875 78.535219) scale(0.1 -0.1)">
       <use xlink:href="#DejaVuSans-32"/>
       <use xlink:href="#DejaVuSans-2e" x="63.623047"/>
       <use xlink:href="#DejaVuSans-35" x="95.410156"/>
      </g>
     </g>
    </g>
    <g id="ytick_9">
     <g id="line2d_16">
      <g>
       <use xlink:href="#m4b2f05e237" x="57.6" y="41.472" style="fill: #d3d3d3; stroke: #d3d3d3; stroke-width: 0.8"/>
      </g>
     </g>
     <g id="text_17">
      <!-- 3.0 -->
      <g style="fill: #d3d3d3" transform="translate(34.696875 45.271219) scale(0.1 -0.1)">
       <use xlink:href="#DejaVuSans-33"/>
       <use xlink:href="#DejaVuSans-2e" x="63.623047"/>
       <use xlink:href="#DejaVuSans-30" x="95.410156"/>
      </g>
     </g>
    </g>
    <g id="text_18">
     <!-- Y-as -->
     <g style="fill: #d3d3d3" transform="translate(20.2375 184.460813) rotate(-90) scale(0.1 -0.1)">
      <defs>
       <path id="DejaVuSans-59" d="M -13 4666 
L 666 4666 
L 1959 2747 
L 3244 4666 
L 3922 4666 
L 2272 2222 
L 2272 0 
L 1638 0 
L 1638 2222 
L -13 4666 
z
" transform="scale(0.015625)"/>
      </defs>
      <use xlink:href="#DejaVuSans-59"/>
      <use xlink:href="#DejaVuSans-2d" x="49.208984"/>
      <use xlink:href="#DejaVuSans-61" x="85.292969"/>
      <use xlink:href="#DejaVuSans-73" x="146.572266"/>
     </g>
    </g>
   </g>
   <g id="line2d_17">
    <path d="M 117.12 241.055998 
L 117.7152 234.4032 
L 118.3104 231.64752 
L 119.5008 227.7504 
L 120.6912 224.760035 
L 122.4768 221.0976 
L 124.2624 218.010025 
L 126.6432 214.4448 
L 129.024 211.303774 
L 132 207.792 
L 134.976 204.617114 
L 138.5472 201.1392 
L 142.7136 197.430673 
L 146.88 194.0136 
L 151.6416 190.389785 
L 156.9984 186.600485 
L 162.9504 182.677917 
L 169.4976 178.647204 
L 176.64 174.528 
L 184.3776 170.335766 
L 192.7104 166.082752 
L 201.6384 161.778738 
L 211.1616 157.431601 
L 221.8752 152.796634 
L 233.184 148.154704 
L 245.088 143.506803 
L 258.1824 138.637446 
L 271.872 133.782823 
L 286.752 128.74381 
L 302.8224 123.544123 
L 319.488 118.384429 
L 337.344 113.086837 
L 356.3904 107.667775 
L 376.6272 102.141458 
L 398.0544 96.520188 
L 414.1248 92.443705 
L 414.1248 92.443705 
" clip-path="url(#pd42ff7b489)" style="fill: none; stroke: #00ced1; stroke-width: 1.5; stroke-linecap: square"/>
   </g>
   <g id="patch_3">
    <path d="M 57.6 307.584 
L 57.6 41.472 
" style="fill: none; stroke: #d3d3d3; stroke-width: 0.8; stroke-linejoin: miter; stroke-linecap: square"/>
   </g>
   <g id="patch_4">
    <path d="M 414.72 307.584 
L 414.72 41.472 
" style="fill: none; stroke: #d3d3d3; stroke-width: 0.8; stroke-linejoin: miter; stroke-linecap: square"/>
   </g>
   <g id="patch_5">
    <path d="M 57.6 307.584 
L 414.72 307.584 
" style="fill: none; stroke: #d3d3d3; stroke-width: 0.8; stroke-linejoin: miter; stroke-linecap: square"/>
   </g>
   <g id="patch_6">
    <path d="M 57.6 41.472 
L 414.72 41.472 
" style="fill: none; stroke: #d3d3d3; stroke-width: 0.8; stroke-linejoin: miter; stroke-linecap: square"/>
   </g>
   <g id="PolyCollection_1">
    <defs>
     <path id="m31826533c8" d="M 117.12 -104.544 
L 117.12 -104.544002 
L 117.7152 -111.1968 
L 118.3104 -113.95248 
L 118.9056 -116.066988 
L 119.5008 -117.8496 
L 120.096 -119.420113 
L 120.6912 -120.839965 
L 121.2864 -122.145654 
L 121.8816 -123.36096 
L 122.4768 -124.5024 
L 123.072 -125.582001 
L 123.6672 -126.608841 
L 124.2624 -127.589975 
L 124.8576 -128.531012 
L 125.4528 -129.436498 
L 126.048 -130.310184 
L 126.6432 -131.1552 
L 127.2384 -131.974197 
L 127.8336 -132.76944 
L 128.4288 -133.542883 
L 129.024 -134.296226 
L 129.6192 -135.03096 
L 130.2144 -135.748398 
L 130.8096 -136.449708 
L 131.4048 -137.135931 
L 132 -137.808 
L 132.5952 -138.466757 
L 133.1904 -139.112963 
L 133.7856 -139.747309 
L 134.3808 -140.370424 
L 134.976 -140.982886 
L 135.5712 -141.585223 
L 136.1664 -142.17792 
L 136.7616 -142.761426 
L 137.3568 -143.336157 
L 137.952 -143.902496 
L 138.5472 -144.4608 
L 139.1424 -145.011403 
L 139.7376 -145.554613 
L 140.3328 -146.090723 
L 140.928 -146.620002 
L 141.5232 -147.142705 
L 142.1184 -147.659072 
L 142.7136 -148.169327 
L 143.3088 -148.673683 
L 143.904 -149.172339 
L 144.4992 -149.665485 
L 145.0944 -150.153299 
L 145.6896 -150.63595 
L 146.2848 -151.1136 
L 146.88 -151.5864 
L 147.4752 -152.054495 
L 148.0704 -152.518023 
L 148.6656 -152.977115 
L 149.2608 -153.431896 
L 149.856 -153.882485 
L 150.4512 -154.328997 
L 151.0464 -154.771539 
L 151.6416 -155.210215 
L 152.2368 -155.645126 
L 152.832 -156.076367 
L 153.4272 -156.504029 
L 154.0224 -156.9282 
L 154.6176 -157.348963 
L 155.2128 -157.7664 
L 155.808 -158.180588 
L 156.4032 -158.591603 
L 156.9984 -158.999515 
L 157.5936 -159.404394 
L 158.1888 -159.806307 
L 158.784 -160.205318 
L 159.3792 -160.601489 
L 159.9744 -160.99488 
L 160.5696 -161.385548 
L 161.1648 -161.77355 
L 161.76 -162.158938 
L 162.3552 -162.541766 
L 162.9504 -162.922083 
L 163.5456 -163.299939 
L 164.1408 -163.67538 
L 164.736 -164.048452 
L 165.3312 -164.4192 
L 165.9264 -164.787666 
L 166.5216 -165.153893 
L 167.1168 -165.517919 
L 167.712 -165.879785 
L 168.3072 -166.239529 
L 168.9024 -166.597187 
L 169.4976 -166.952796 
L 170.0928 -167.30639 
L 170.688 -167.658002 
L 171.2832 -168.007667 
L 171.8784 -168.355416 
L 172.4736 -168.70128 
L 173.0688 -169.045289 
L 173.664 -169.387473 
L 174.2592 -169.727861 
L 174.8544 -170.066481 
L 175.4496 -170.40336 
L 176.0448 -170.738524 
L 176.64 -171.072 
L 177.2352 -171.403813 
L 177.8304 -171.733986 
L 178.4256 -172.062546 
L 179.0208 -172.389514 
L 179.616 -172.714914 
L 180.2112 -173.038768 
L 180.8064 -173.361098 
L 181.4016 -173.681926 
L 181.9968 -174.001271 
L 182.592 -174.319155 
L 183.1872 -174.635597 
L 183.7824 -174.950617 
L 184.3776 -175.264234 
L 184.9728 -175.576466 
L 185.568 -175.887332 
L 186.1632 -176.196849 
L 186.7584 -176.505035 
L 187.3536 -176.811906 
L 187.9488 -177.11748 
L 188.544 -177.421773 
L 189.1392 -177.7248 
L 189.7344 -178.026578 
L 190.3296 -178.327121 
L 190.9248 -178.626446 
L 191.52 -178.924565 
L 192.1152 -179.221495 
L 192.7104 -179.517248 
L 193.3056 -179.81184 
L 193.9008 -180.105283 
L 194.496 -180.397591 
L 195.0912 -180.688776 
L 195.6864 -180.978853 
L 196.2816 -181.267832 
L 196.8768 -181.555728 
L 197.472 -181.842551 
L 198.0672 -182.128314 
L 198.6624 -182.413028 
L 199.2576 -182.696704 
L 199.8528 -182.979355 
L 200.448 -183.260991 
L 201.0432 -183.541623 
L 201.6384 -183.821262 
L 202.2336 -184.099917 
L 202.8288 -184.3776 
L 203.424 -184.65432 
L 204.0192 -184.930088 
L 204.6144 -185.204913 
L 205.2096 -185.478805 
L 205.8048 -185.751773 
L 206.4 -186.023827 
L 206.9952 -186.294975 
L 207.5904 -186.565227 
L 208.1856 -186.834591 
L 208.7808 -187.103077 
L 209.376 -187.370692 
L 209.9712 -187.637445 
L 210.5664 -187.903345 
L 211.1616 -188.168399 
L 211.1616 -104.544 
L 211.1616 -104.544 
L 210.5664 -104.544 
L 209.9712 -104.544 
L 209.376 -104.544 
L 208.7808 -104.544 
L 208.1856 -104.544 
L 207.5904 -104.544 
L 206.9952 -104.544 
L 206.4 -104.544 
L 205.8048 -104.544 
L 205.2096 -104.544 
L 204.6144 -104.544 
L 204.0192 -104.544 
L 203.424 -104.544 
L 202.8288 -104.544 
L 202.2336 -104.544 
L 201.6384 -104.544 
L 201.0432 -104.544 
L 200.448 -104.544 
L 199.8528 -104.544 
L 199.2576 -104.544 
L 198.6624 -104.544 
L 198.0672 -104.544 
L 197.472 -104.544 
L 196.8768 -104.544 
L 196.2816 -104.544 
L 195.6864 -104.544 
L 195.0912 -104.544 
L 194.496 -104.544 
L 193.9008 -104.544 
L 193.3056 -104.544 
L 192.7104 -104.544 
L 192.1152 -104.544 
L 191.52 -104.544 
L 190.9248 -104.544 
L 190.3296 -104.544 
L 189.7344 -104.544 
L 189.1392 -104.544 
L 188.544 -104.544 
L 187.9488 -104.544 
L 187.3536 -104.544 
L 186.7584 -104.544 
L 186.1632 -104.544 
L 185.568 -104.544 
L 184.9728 -104.544 
L 184.3776 -104.544 
L 183.7824 -104.544 
L 183.1872 -104.544 
L 182.592 -104.544 
L 181.9968 -104.544 
L 181.4016 -104.544 
L 180.8064 -104.544 
L 180.2112 -104.544 
L 179.616 -104.544 
L 179.0208 -104.544 
L 178.4256 -104.544 
L 177.8304 -104.544 
L 177.2352 -104.544 
L 176.64 -104.544 
L 176.0448 -104.544 
L 175.4496 -104.544 
L 174.8544 -104.544 
L 174.2592 -104.544 
L 173.664 -104.544 
L 173.0688 -104.544 
L 172.4736 -104.544 
L 171.8784 -104.544 
L 171.2832 -104.544 
L 170.688 -104.544 
L 170.0928 -104.544 
L 169.4976 -104.544 
L 168.9024 -104.544 
L 168.3072 -104.544 
L 167.712 -104.544 
L 167.1168 -104.544 
L 166.5216 -104.544 
L 165.9264 -104.544 
L 165.3312 -104.544 
L 164.736 -104.544 
L 164.1408 -104.544 
L 163.5456 -104.544 
L 162.9504 -104.544 
L 162.3552 -104.544 
L 161.76 -104.544 
L 161.1648 -104.544 
L 160.5696 -104.544 
L 159.9744 -104.544 
L 159.3792 -104.544 
L 158.784 -104.544 
L 158.1888 -104.544 
L 157.5936 -104.544 
L 156.9984 -104.544 
L 156.4032 -104.544 
L 155.808 -104.544 
L 155.2128 -104.544 
L 154.6176 -104.544 
L 154.0224 -104.544 
L 153.4272 -104.544 
L 152.832 -104.544 
L 152.2368 -104.544 
L 151.6416 -104.544 
L 151.0464 -104.544 
L 150.4512 -104.544 
L 149.856 -104.544 
L 149.2608 -104.544 
L 148.6656 -104.544 
L 148.0704 -104.544 
L 147.4752 -104.544 
L 146.88 -104.544 
L 146.2848 -104.544 
L 145.6896 -104.544 
L 145.0944 -104.544 
L 144.4992 -104.544 
L 143.904 -104.544 
L 143.3088 -104.544 
L 142.7136 -104.544 
L 142.1184 -104.544 
L 141.5232 -104.544 
L 140.928 -104.544 
L 140.3328 -104.544 
L 139.7376 -104.544 
L 139.1424 -104.544 
L 138.5472 -104.544 
L 137.952 -104.544 
L 137.3568 -104.544 
L 136.7616 -104.544 
L 136.1664 -104.544 
L 135.5712 -104.544 
L 134.976 -104.544 
L 134.3808 -104.544 
L 133.7856 -104.544 
L 133.1904 -104.544 
L 132.5952 -104.544 
L 132 -104.544 
L 131.4048 -104.544 
L 130.8096 -104.544 
L 130.2144 -104.544 
L 129.6192 -104.544 
L 129.024 -104.544 
L 128.4288 -104.544 
L 127.8336 -104.544 
L 127.2384 -104.544 
L 126.6432 -104.544 
L 126.048 -104.544 
L 125.4528 -104.544 
L 124.8576 -104.544 
L 124.2624 -104.544 
L 123.6672 -104.544 
L 123.072 -104.544 
L 122.4768 -104.544 
L 121.8816 -104.544 
L 121.2864 -104.544 
L 120.6912 -104.544 
L 120.096 -104.544 
L 119.5008 -104.544 
L 118.9056 -104.544 
L 118.3104 -104.544 
L 117.7152 -104.544 
L 117.12 -104.544 
z
" style="stroke: #00ff7f; stroke-opacity: 0.7"/>
    </defs>
    <g clip-path="url(#pd42ff7b489)">
     <use xlink:href="#m31826533c8" x="0" y="345.6" style="fill: #00ff7f; fill-opacity: 0.7; stroke: #00ff7f; stroke-opacity: 0.7"/>
    </g>
   </g>
   <g id="PolyCollection_2">
    <defs>
     <path id="md1625371fe" d="M 236.16 -104.544 
L 236.16 -198.6288 
L 236.7552 -198.863719 
L 237.3504 -199.098054 
L 237.9456 -199.331809 
L 238.5408 -199.56499 
L 239.136 -199.7976 
L 239.7312 -200.029643 
L 240.3264 -200.261124 
L 240.9216 -200.492046 
L 241.5168 -200.722414 
L 242.112 -200.952231 
L 242.7072 -201.181502 
L 243.3024 -201.41023 
L 243.8976 -201.638419 
L 244.4928 -201.866074 
L 245.088 -202.093197 
L 245.6832 -202.319792 
L 246.2784 -202.545864 
L 246.8736 -202.771415 
L 247.4688 -202.996449 
L 248.064 -203.220971 
L 248.6592 -203.444982 
L 249.2544 -203.668487 
L 249.8496 -203.89149 
L 250.4448 -204.113993 
L 251.04 -204.336 
L 251.6352 -204.557514 
L 252.2304 -204.778539 
L 252.8256 -204.999077 
L 253.4208 -205.219132 
L 254.016 -205.438708 
L 254.6112 -205.657806 
L 255.2064 -205.876431 
L 255.8016 -206.094585 
L 256.3968 -206.312271 
L 256.992 -206.529493 
L 257.5872 -206.746253 
L 258.1824 -206.962554 
L 258.7776 -207.1784 
L 259.3728 -207.393792 
L 259.968 -207.608734 
L 260.5632 -207.823229 
L 261.1584 -208.03728 
L 261.7536 -208.250889 
L 262.3488 -208.464058 
L 262.944 -208.676791 
L 263.5392 -208.889091 
L 264.1344 -209.100959 
L 264.7296 -209.312399 
L 265.3248 -209.523413 
L 265.92 -209.734004 
L 266.5152 -209.944174 
L 267.1104 -210.153926 
L 267.7056 -210.363262 
L 268.3008 -210.572185 
L 268.896 -210.780697 
L 269.4912 -210.9888 
L 270.0864 -211.196497 
L 270.6816 -211.403791 
L 271.2768 -211.610683 
L 271.872 -211.817177 
L 272.4672 -212.023273 
L 273.0624 -212.228975 
L 273.6576 -212.434285 
L 274.2528 -212.639205 
L 274.848 -212.843738 
L 275.4432 -213.047884 
L 276.0384 -213.251648 
L 276.6336 -213.45503 
L 277.2288 -213.658033 
L 277.824 -213.860659 
L 278.4192 -214.06291 
L 279.0144 -214.264788 
L 279.6096 -214.466296 
L 280.2048 -214.667435 
L 280.8 -214.868207 
L 281.3952 -215.068614 
L 281.9904 -215.268659 
L 282.5856 -215.468343 
L 283.1808 -215.667668 
L 283.776 -215.866636 
L 284.3712 -216.06525 
L 284.9664 -216.26351 
L 285.5616 -216.461419 
L 286.1568 -216.658978 
L 286.752 -216.85619 
L 287.3472 -217.053057 
L 287.9424 -217.249579 
L 288.5376 -217.44576 
L 289.1328 -217.6416 
L 289.728 -217.837102 
L 290.3232 -218.032266 
L 290.9184 -218.227096 
L 291.5136 -218.421593 
L 292.1088 -218.615758 
L 292.704 -218.809592 
L 293.2992 -219.003099 
L 293.8944 -219.196279 
L 294.4896 -219.389134 
L 295.0848 -219.581666 
L 295.68 -219.773876 
L 296.2752 -219.965766 
L 296.8704 -220.157338 
L 297.4656 -220.348592 
L 298.0608 -220.539532 
L 298.656 -220.730157 
L 299.2512 -220.92047 
L 299.8464 -221.110473 
L 300.4416 -221.300166 
L 301.0368 -221.489552 
L 301.632 -221.678631 
L 302.2272 -221.867406 
L 302.8224 -222.055877 
L 303.4176 -222.244047 
L 304.0128 -222.431916 
L 304.608 -222.619487 
L 305.2032 -222.80676 
L 305.7984 -222.993736 
L 305.7984 -104.544 
L 305.7984 -104.544 
L 305.2032 -104.544 
L 304.608 -104.544 
L 304.0128 -104.544 
L 303.4176 -104.544 
L 302.8224 -104.544 
L 302.2272 -104.544 
L 301.632 -104.544 
L 301.0368 -104.544 
L 300.4416 -104.544 
L 299.8464 -104.544 
L 299.2512 -104.544 
L 298.656 -104.544 
L 298.0608 -104.544 
L 297.4656 -104.544 
L 296.8704 -104.544 
L 296.2752 -104.544 
L 295.68 -104.544 
L 295.0848 -104.544 
L 294.4896 -104.544 
L 293.8944 -104.544 
L 293.2992 -104.544 
L 292.704 -104.544 
L 292.1088 -104.544 
L 291.5136 -104.544 
L 290.9184 -104.544 
L 290.3232 -104.544 
L 289.728 -104.544 
L 289.1328 -104.544 
L 288.5376 -104.544 
L 287.9424 -104.544 
L 287.3472 -104.544 
L 286.752 -104.544 
L 286.1568 -104.544 
L 285.5616 -104.544 
L 284.9664 -104.544 
L 284.3712 -104.544 
L 283.776 -104.544 
L 283.1808 -104.544 
L 282.5856 -104.544 
L 281.9904 -104.544 
L 281.3952 -104.544 
L 280.8 -104.544 
L 280.2048 -104.544 
L 279.6096 -104.544 
L 279.0144 -104.544 
L 278.4192 -104.544 
L 277.824 -104.544 
L 277.2288 -104.544 
L 276.6336 -104.544 
L 276.0384 -104.544 
L 275.4432 -104.544 
L 274.848 -104.544 
L 274.2528 -104.544 
L 273.6576 -104.544 
L 273.0624 -104.544 
L 272.4672 -104.544 
L 271.872 -104.544 
L 271.2768 -104.544 
L 270.6816 -104.544 
L 270.0864 -104.544 
L 269.4912 -104.544 
L 268.896 -104.544 
L 268.3008 -104.544 
L 267.7056 -104.544 
L 267.1104 -104.544 
L 266.5152 -104.544 
L 265.92 -104.544 
L 265.3248 -104.544 
L 264.7296 -104.544 
L 264.1344 -104.544 
L 263.5392 -104.544 
L 262.944 -104.544 
L 262.3488 -104.544 
L 261.7536 -104.544 
L 261.1584 -104.544 
L 260.5632 -104.544 
L 259.968 -104.544 
L 259.3728 -104.544 
L 258.7776 -104.544 
L 258.1824 -104.544 
L 257.5872 -104.544 
L 256.992 -104.544 
L 256.3968 -104.544 
L 255.8016 -104.544 
L 255.2064 -104.544 
L 254.6112 -104.544 
L 254.016 -104.544 
L 253.4208 -104.544 
L 252.8256 -104.544 
L 252.2304 -104.544 
L 251.6352 -104.544 
L 251.04 -104.544 
L 250.4448 -104.544 
L 249.8496 -104.544 
L 249.2544 -104.544 
L 248.6592 -104.544 
L 248.064 -104.544 
L 247.4688 -104.544 
L 246.8736 -104.544 
L 246.2784 -104.544 
L 245.6832 -104.544 
L 245.088 -104.544 
L 244.4928 -104.544 
L 243.8976 -104.544 
L 243.3024 -104.544 
L 242.7072 -104.544 
L 242.112 -104.544 
L 241.5168 -104.544 
L 240.9216 -104.544 
L 240.3264 -104.544 
L 239.7312 -104.544 
L 239.136 -104.544 
L 238.5408 -104.544 
L 237.9456 -104.544 
L 237.3504 -104.544 
L 236.7552 -104.544 
L 236.16 -104.544 
z
" style="stroke: #00fa9a; stroke-opacity: 0.7"/>
    </defs>
    <g clip-path="url(#pd42ff7b489)">
     <use xlink:href="#md1625371fe" x="0" y="345.6" style="fill: #00fa9a; fill-opacity: 0.7; stroke: #00fa9a; stroke-opacity: 0.7"/>
    </g>
   </g>
   <g id="text_19">
    <!-- f(x) = sqrt(x) -->
    <g style="fill: #d3d3d3" transform="translate(196.986562 35.472) scale(0.12 -0.12)">
     <defs>
      <path id="DejaVuSans-66" d="M 2375 4863 
L 2375 4384 
L 1825 4384 
Q 1516 4384 1395 4259 
Q 1275 4134 1275 3809 
L 1275 3500 
L 2222 3500 
L 2222 3053 
L 1275 3053 
L 1275 0 
L 697 0 
L 697 3053 
L 147 3053 
L 147 3500 
L 697 3500 
L 697 3744 
Q 697 4328 969 4595 
Q 1241 4863 1831 4863 
L 2375 4863 
z
" transform="scale(0.015625)"/>
      <path id="DejaVuSans-28" d="M 1984 4856 
Q 1566 4138 1362 3434 
Q 1159 2731 1159 2009 
Q 1159 1288 1364 580 
Q 1569 -128 1984 -844 
L 1484 -844 
Q 1016 -109 783 600 
Q 550 1309 550 2009 
Q 550 2706 781 3412 
Q 1013 4119 1484 4856 
L 1984 4856 
z
" transform="scale(0.015625)"/>
      <path id="DejaVuSans-78" d="M 3513 3500 
L 2247 1797 
L 3578 0 
L 2900 0 
L 1881 1375 
L 863 0 
L 184 0 
L 1544 1831 
L 300 3500 
L 978 3500 
L 1906 2253 
L 2834 3500 
L 3513 3500 
z
" transform="scale(0.015625)"/>
      <path id="DejaVuSans-29" d="M 513 4856 
L 1013 4856 
Q 1481 4119 1714 3412 
Q 1947 2706 1947 2009 
Q 1947 1309 1714 600 
Q 1481 -109 1013 -844 
L 513 -844 
Q 928 -128 1133 580 
Q 1338 1288 1338 2009 
Q 1338 2731 1133 3434 
Q 928 4138 513 4856 
z
" transform="scale(0.015625)"/>
      <path id="DejaVuSans-20" transform="scale(0.015625)"/>
      <path id="DejaVuSans-3d" d="M 678 2906 
L 4684 2906 
L 4684 2381 
L 678 2381 
L 678 2906 
z
M 678 1631 
L 4684 1631 
L 4684 1100 
L 678 1100 
L 678 1631 
z
" transform="scale(0.015625)"/>
      <path id="DejaVuSans-71" d="M 947 1747 
Q 947 1113 1208 752 
Q 1469 391 1925 391 
Q 2381 391 2643 752 
Q 2906 1113 2906 1747 
Q 2906 2381 2643 2742 
Q 2381 3103 1925 3103 
Q 1469 3103 1208 2742 
Q 947 2381 947 1747 
z
M 2906 525 
Q 2725 213 2448 61 
Q 2172 -91 1784 -91 
Q 1150 -91 751 415 
Q 353 922 353 1747 
Q 353 2572 751 3078 
Q 1150 3584 1784 3584 
Q 2172 3584 2448 3432 
Q 2725 3281 2906 2969 
L 2906 3500 
L 3481 3500 
L 3481 -1331 
L 2906 -1331 
L 2906 525 
z
" transform="scale(0.015625)"/>
      <path id="DejaVuSans-72" d="M 2631 2963 
Q 2534 3019 2420 3045 
Q 2306 3072 2169 3072 
Q 1681 3072 1420 2755 
Q 1159 2438 1159 1844 
L 1159 0 
L 581 0 
L 581 3500 
L 1159 3500 
L 1159 2956 
Q 1341 3275 1631 3429 
Q 1922 3584 2338 3584 
Q 2397 3584 2469 3576 
Q 2541 3569 2628 3553 
L 2631 2963 
z
" transform="scale(0.015625)"/>
      <path id="DejaVuSans-74" d="M 1172 4494 
L 1172 3500 
L 2356 3500 
L 2356 3053 
L 1172 3053 
L 1172 1153 
Q 1172 725 1289 603 
Q 1406 481 1766 481 
L 2356 481 
L 2356 0 
L 1766 0 
Q 1100 0 847 248 
Q 594 497 594 1153 
L 594 3053 
L 172 3053 
L 172 3500 
L 594 3500 
L 594 4494 
L 1172 4494 
z
" transform="scale(0.015625)"/>
     </defs>
     <use xlink:href="#DejaVuSans-66"/>
     <use xlink:href="#DejaVuSans-28" x="35.205078"/>
     <use xlink:href="#DejaVuSans-78" x="74.21875"/>
     <use xlink:href="#DejaVuSans-29" x="133.398438"/>
     <use xlink:href="#DejaVuSans-20" x="172.412109"/>
     <use xlink:href="#DejaVuSans-3d" x="204.199219"/>
     <use xlink:href="#DejaVuSans-20" x="287.988281"/>
     <use xlink:href="#DejaVuSans-73" x="319.775391"/>
     <use xlink:href="#DejaVuSans-71" x="371.875"/>
     <use xlink:href="#DejaVuSans-72" x="435.351562"/>
     <use xlink:href="#DejaVuSans-74" x="476.464844"/>
     <use xlink:href="#DejaVuSans-28" x="515.673828"/>
     <use xlink:href="#DejaVuSans-78" x="554.6875"/>
     <use xlink:href="#DejaVuSans-29" x="613.867188"/>
    </g>
   </g>
   <g id="text_20">
    <!-- $V$ -->
    <g style="fill: #ffffff" transform="translate(164.736 217.7712) scale(0.1728 -0.1728)">
     <defs>
      <path id="DejaVuSans-Oblique-56" d="M 1319 0 
L 500 4666 
L 1119 4666 
L 1797 653 
L 4063 4666 
L 4750 4666 
L 2053 0 
L 1319 0 
z
" transform="scale(0.015625)"/>
     </defs>
     <use xlink:href="#DejaVuSans-Oblique-56" transform="translate(0 0.09375)"/>
    </g>
   </g>
   <g id="text_21">
    <!-- $W$ -->
    <g style="fill: #ffffff" transform="translate(262.944 201.1392) scale(0.1728 -0.1728)">
     <defs>
      <path id="DejaVuSans-Oblique-57" d="M 616 4666 
L 1228 4666 
L 1453 697 
L 3213 4666 
L 3916 4666 
L 4147 697 
L 5888 4666 
L 6528 4666 
L 4453 0 
L 3659 0 
L 3444 3891 
L 1697 0 
L 903 0 
L 616 4666 
z
" transform="scale(0.015625)"/>
     </defs>
     <use xlink:href="#DejaVuSans-Oblique-57" transform="translate(0 0.09375)"/>
    </g>
   </g>
   <g id="legend_1">
    <g id="patch_7">
     <path d="M 331.32 64.672 
L 407.72 64.672 
Q 409.72 64.672 409.72 62.672 
L 409.72 48.472 
Q 409.72 46.472 407.72 46.472 
L 331.32 46.472 
Q 329.32 46.472 329.32 48.472 
L 329.32 62.672 
Q 329.32 64.672 331.32 64.672 
z
" style="fill: #ffffff; opacity: 0.8; stroke: #cccccc; stroke-linejoin: miter"/>
    </g>
    <g id="line2d_18">
     <path d="M 333.32 55.092312 
L 343.32 55.092312 
L 353.32 55.092312 
" style="fill: none; stroke: #00ced1; stroke-width: 1.5; stroke-linecap: square"/>
    </g>
    <g id="text_22">
     <!-- $f(x) = \sqrt{x}$ -->
     <g transform="translate(361.32 58.592312) scale(0.1 -0.1)">
      <defs>
       <path id="DejaVuSans-Oblique-66" d="M 3059 4863 
L 2969 4384 
L 2419 4384 
Q 2106 4384 1964 4261 
Q 1822 4138 1753 3809 
L 1691 3500 
L 2638 3500 
L 2553 3053 
L 1606 3053 
L 1013 0 
L 434 0 
L 1031 3053 
L 481 3053 
L 563 3500 
L 1113 3500 
L 1159 3744 
Q 1278 4363 1576 4613 
Q 1875 4863 2516 4863 
L 3059 4863 
z
" transform="scale(0.015625)"/>
       <path id="DejaVuSans-Oblique-78" d="M 3841 3500 
L 2234 1784 
L 3219 0 
L 2559 0 
L 1819 1388 
L 531 0 
L -166 0 
L 1556 1844 
L 641 3500 
L 1300 3500 
L 1972 2234 
L 3144 3500 
L 3841 3500 
z
" transform="scale(0.015625)"/>
       <path id="DejaVuSans-221a" d="M 3488 5191 
L 4078 5191 
L 4078 4891 
L 3719 4891 
L 1863 -128 
L 1656 -128 
L 659 2631 
L 269 2491 
L 191 2741 
L 1075 3047 
L 1875 831 
L 3488 5191 
z
" transform="scale(0.015625)"/>
      </defs>
      <use xlink:href="#DejaVuSans-Oblique-66" transform="translate(0 0.890625)"/>
      <use xlink:href="#DejaVuSans-28" transform="translate(35.205078 0.890625)"/>
      <use xlink:href="#DejaVuSans-Oblique-78" transform="translate(74.21875 0.890625)"/>
      <use xlink:href="#DejaVuSans-29" transform="translate(133.398438 0.890625)"/>
      <use xlink:href="#DejaVuSans-3d" transform="translate(191.894531 0.890625)"/>
      <use xlink:href="#DejaVuSans-221a" transform="translate(295.166016 0.890625)"/>
      <use xlink:href="#DejaVuSans-Oblique-78" transform="translate(371.386719 1.0625)"/>
      <path d="M 358.886719 75.5 
L 358.886719 81.75 
L 443.066406 81.75 
L 443.066406 75.5 
L 358.886719 75.5 
z
"/>
     </g>
    </g>
   </g>
  </g>
 </g>
 <defs>
  <clipPath id="pd42ff7b489">
   <rect x="57.6" y="41.472" width="357.12" height="266.112"/>
  </clipPath>
 </defs>
</svg>
