<?xml version="1.0" encoding="utf-8" standalone="no"?>
<!DOCTYPE svg PUBLIC "-//W3C//DTD SVG 1.1//EN"
  "http://www.w3.org/Graphics/SVG/1.1/DTD/svg11.dtd">
<svg xmlns:xlink="http://www.w3.org/1999/xlink" width="460.8pt" height="345.6pt" viewBox="0 0 460.8 345.6" xmlns="http://www.w3.org/2000/svg" version="1.1">
 <metadata>
  <rdf:RDF xmlns:dc="http://purl.org/dc/elements/1.1/" xmlns:cc="http://creativecommons.org/ns#" xmlns:rdf="http://www.w3.org/1999/02/22-rdf-syntax-ns#">
   <cc:Work>
    <dc:type rdf:resource="http://purl.org/dc/dcmitype/StillImage"/>
    <dc:date>2024-08-05T18:07:30.995254</dc:date>
    <dc:format>image/svg+xml</dc:format>
    <dc:creator>
     <cc:Agent>
      <dc:title>Matplotlib v3.8.3, https://matplotlib.org/</dc:title>
     </cc:Agent>
    </dc:creator>
   </cc:Work>
  </rdf:RDF>
 </metadata>
 <defs>
  <style type="text/css">*{stroke-linejoin: round; stroke-linecap: butt}</style>
 </defs>
 <g id="figure_1">
  <g id="patch_1">
   <path d="M 0 345.6 
L 460.8 345.6 
L 460.8 0 
L 0 0 
L 0 345.6 
z
" style="fill: none"/>
  </g>
  <g id="axes_1">
   <g id="patch_2">
    <path d="M 57.6 307.584 
L 414.72 307.584 
L 414.72 41.472 
L 57.6 41.472 
L 57.6 307.584 
z
" style="fill: none"/>
   </g>
   <g id="LineCollection_1">
    <path d="M 57.6 254.3616 
L 414.72 254.3616 
" clip-path="url(#pe8bc71ed34)" style="fill: none; stroke: #d3d3d3; stroke-width: 1.5"/>
   </g>
   <g id="LineCollection_2">
    <path d="M 236.16 307.584 
L 236.16 41.472 
" clip-path="url(#pe8bc71ed34)" style="fill: none; stroke: #d3d3d3; stroke-width: 1.5"/>
   </g>
   <g id="matplotlib.axis_1">
    <g id="xtick_1">
     <g id="line2d_1">
      <defs>
       <path id="mbdf113fbf8" d="M 0 0 
L 0 3.5 
" style="stroke: #d3d3d3; stroke-width: 0.8"/>
      </defs>
      <g>
       <use xlink:href="#mbdf113fbf8" x="57.6" y="307.584" style="fill: #d3d3d3; stroke: #d3d3d3; stroke-width: 0.8"/>
      </g>
     </g>
     <g id="text_1">
      <!-- −2.0 -->
      <g style="fill: #d3d3d3" transform="translate(45.458594 322.182437) scale(0.1 -0.1)">
       <defs>
        <path id="DejaVuSans-2212" d="M 678 2272 
L 4684 2272 
L 4684 1741 
L 678 1741 
L 678 2272 
z
" transform="scale(0.015625)"/>
        <path id="DejaVuSans-32" d="M 1228 531 
L 3431 531 
L 3431 0 
L 469 0 
L 469 531 
Q 828 903 1448 1529 
Q 2069 2156 2228 2338 
Q 2531 2678 2651 2914 
Q 2772 3150 2772 3378 
Q 2772 3750 2511 3984 
Q 2250 4219 1831 4219 
Q 1534 4219 1204 4116 
Q 875 4013 500 3803 
L 500 4441 
Q 881 4594 1212 4672 
Q 1544 4750 1819 4750 
Q 2544 4750 2975 4387 
Q 3406 4025 3406 3419 
Q 3406 3131 3298 2873 
Q 3191 2616 2906 2266 
Q 2828 2175 2409 1742 
Q 1991 1309 1228 531 
z
" transform="scale(0.015625)"/>
        <path id="DejaVuSans-2e" d="M 684 794 
L 1344 794 
L 1344 0 
L 684 0 
L 684 794 
z
" transform="scale(0.015625)"/>
        <path id="DejaVuSans-30" d="M 2034 4250 
Q 1547 4250 1301 3770 
Q 1056 3291 1056 2328 
Q 1056 1369 1301 889 
Q 1547 409 2034 409 
Q 2525 409 2770 889 
Q 3016 1369 3016 2328 
Q 3016 3291 2770 3770 
Q 2525 4250 2034 4250 
z
M 2034 4750 
Q 2819 4750 3233 4129 
Q 3647 3509 3647 2328 
Q 3647 1150 3233 529 
Q 2819 -91 2034 -91 
Q 1250 -91 836 529 
Q 422 1150 422 2328 
Q 422 3509 836 4129 
Q 1250 4750 2034 4750 
z
" transform="scale(0.015625)"/>
       </defs>
       <use xlink:href="#DejaVuSans-2212"/>
       <use xlink:href="#DejaVuSans-32" x="83.789062"/>
       <use xlink:href="#DejaVuSans-2e" x="147.412109"/>
       <use xlink:href="#DejaVuSans-30" x="179.199219"/>
      </g>
     </g>
    </g>
    <g id="xtick_2">
     <g id="line2d_2">
      <g>
       <use xlink:href="#mbdf113fbf8" x="102.24" y="307.584" style="fill: #d3d3d3; stroke: #d3d3d3; stroke-width: 0.8"/>
      </g>
     </g>
     <g id="text_2">
      <!-- −1.5 -->
      <g style="fill: #d3d3d3" transform="translate(90.098594 322.182437) scale(0.1 -0.1)">
       <defs>
        <path id="DejaVuSans-31" d="M 794 531 
L 1825 531 
L 1825 4091 
L 703 3866 
L 703 4441 
L 1819 4666 
L 2450 4666 
L 2450 531 
L 3481 531 
L 3481 0 
L 794 0 
L 794 531 
z
" transform="scale(0.015625)"/>
        <path id="DejaVuSans-35" d="M 691 4666 
L 3169 4666 
L 3169 4134 
L 1269 4134 
L 1269 2991 
Q 1406 3038 1543 3061 
Q 1681 3084 1819 3084 
Q 2600 3084 3056 2656 
Q 3513 2228 3513 1497 
Q 3513 744 3044 326 
Q 2575 -91 1722 -91 
Q 1428 -91 1123 -41 
Q 819 9 494 109 
L 494 744 
Q 775 591 1075 516 
Q 1375 441 1709 441 
Q 2250 441 2565 725 
Q 2881 1009 2881 1497 
Q 2881 1984 2565 2268 
Q 2250 2553 1709 2553 
Q 1456 2553 1204 2497 
Q 953 2441 691 2322 
L 691 4666 
z
" transform="scale(0.015625)"/>
       </defs>
       <use xlink:href="#DejaVuSans-2212"/>
       <use xlink:href="#DejaVuSans-31" x="83.789062"/>
       <use xlink:href="#DejaVuSans-2e" x="147.412109"/>
       <use xlink:href="#DejaVuSans-35" x="179.199219"/>
      </g>
     </g>
    </g>
    <g id="xtick_3">
     <g id="line2d_3">
      <g>
       <use xlink:href="#mbdf113fbf8" x="146.88" y="307.584" style="fill: #d3d3d3; stroke: #d3d3d3; stroke-width: 0.8"/>
      </g>
     </g>
     <g id="text_3">
      <!-- −1.0 -->
      <g style="fill: #d3d3d3" transform="translate(134.738594 322.182437) scale(0.1 -0.1)">
       <use xlink:href="#DejaVuSans-2212"/>
       <use xlink:href="#DejaVuSans-31" x="83.789062"/>
       <use xlink:href="#DejaVuSans-2e" x="147.412109"/>
       <use xlink:href="#DejaVuSans-30" x="179.199219"/>
      </g>
     </g>
    </g>
    <g id="xtick_4">
     <g id="line2d_4">
      <g>
       <use xlink:href="#mbdf113fbf8" x="191.52" y="307.584" style="fill: #d3d3d3; stroke: #d3d3d3; stroke-width: 0.8"/>
      </g>
     </g>
     <g id="text_4">
      <!-- −0.5 -->
      <g style="fill: #d3d3d3" transform="translate(179.378594 322.182437) scale(0.1 -0.1)">
       <use xlink:href="#DejaVuSans-2212"/>
       <use xlink:href="#DejaVuSans-30" x="83.789062"/>
       <use xlink:href="#DejaVuSans-2e" x="147.412109"/>
       <use xlink:href="#DejaVuSans-35" x="179.199219"/>
      </g>
     </g>
    </g>
    <g id="xtick_5">
     <g id="line2d_5">
      <g>
       <use xlink:href="#mbdf113fbf8" x="236.16" y="307.584" style="fill: #d3d3d3; stroke: #d3d3d3; stroke-width: 0.8"/>
      </g>
     </g>
     <g id="text_5">
      <!-- 0.0 -->
      <g style="fill: #d3d3d3" transform="translate(228.208438 322.182437) scale(0.1 -0.1)">
       <use xlink:href="#DejaVuSans-30"/>
       <use xlink:href="#DejaVuSans-2e" x="63.623047"/>
       <use xlink:href="#DejaVuSans-30" x="95.410156"/>
      </g>
     </g>
    </g>
    <g id="xtick_6">
     <g id="line2d_6">
      <g>
       <use xlink:href="#mbdf113fbf8" x="280.8" y="307.584" style="fill: #d3d3d3; stroke: #d3d3d3; stroke-width: 0.8"/>
      </g>
     </g>
     <g id="text_6">
      <!-- 0.5 -->
      <g style="fill: #d3d3d3" transform="translate(272.848437 322.182437) scale(0.1 -0.1)">
       <use xlink:href="#DejaVuSans-30"/>
       <use xlink:href="#DejaVuSans-2e" x="63.623047"/>
       <use xlink:href="#DejaVuSans-35" x="95.410156"/>
      </g>
     </g>
    </g>
    <g id="xtick_7">
     <g id="line2d_7">
      <g>
       <use xlink:href="#mbdf113fbf8" x="325.44" y="307.584" style="fill: #d3d3d3; stroke: #d3d3d3; stroke-width: 0.8"/>
      </g>
     </g>
     <g id="text_7">
      <!-- 1.0 -->
      <g style="fill: #d3d3d3" transform="translate(317.488437 322.182437) scale(0.1 -0.1)">
       <use xlink:href="#DejaVuSans-31"/>
       <use xlink:href="#DejaVuSans-2e" x="63.623047"/>
       <use xlink:href="#DejaVuSans-30" x="95.410156"/>
      </g>
     </g>
    </g>
    <g id="xtick_8">
     <g id="line2d_8">
      <g>
       <use xlink:href="#mbdf113fbf8" x="370.08" y="307.584" style="fill: #d3d3d3; stroke: #d3d3d3; stroke-width: 0.8"/>
      </g>
     </g>
     <g id="text_8">
      <!-- 1.5 -->
      <g style="fill: #d3d3d3" transform="translate(362.128438 322.182437) scale(0.1 -0.1)">
       <use xlink:href="#DejaVuSans-31"/>
       <use xlink:href="#DejaVuSans-2e" x="63.623047"/>
       <use xlink:href="#DejaVuSans-35" x="95.410156"/>
      </g>
     </g>
    </g>
    <g id="xtick_9">
     <g id="line2d_9">
      <g>
       <use xlink:href="#mbdf113fbf8" x="414.72" y="307.584" style="fill: #d3d3d3; stroke: #d3d3d3; stroke-width: 0.8"/>
      </g>
     </g>
     <g id="text_9">
      <!-- 2.0 -->
      <g style="fill: #d3d3d3" transform="translate(406.768438 322.182437) scale(0.1 -0.1)">
       <use xlink:href="#DejaVuSans-32"/>
       <use xlink:href="#DejaVuSans-2e" x="63.623047"/>
       <use xlink:href="#DejaVuSans-30" x="95.410156"/>
      </g>
     </g>
    </g>
    <g id="text_10">
     <!-- X-as -->
     <g style="fill: #d3d3d3" transform="translate(225.512344 335.860562) scale(0.1 -0.1)">
      <defs>
       <path id="DejaVuSans-58" d="M 403 4666 
L 1081 4666 
L 2241 2931 
L 3406 4666 
L 4084 4666 
L 2584 2425 
L 4184 0 
L 3506 0 
L 2194 1984 
L 872 0 
L 191 0 
L 1856 2491 
L 403 4666 
z
" transform="scale(0.015625)"/>
       <path id="DejaVuSans-2d" d="M 313 2009 
L 1997 2009 
L 1997 1497 
L 313 1497 
L 313 2009 
z
" transform="scale(0.015625)"/>
       <path id="DejaVuSans-61" d="M 2194 1759 
Q 1497 1759 1228 1600 
Q 959 1441 959 1056 
Q 959 750 1161 570 
Q 1363 391 1709 391 
Q 2188 391 2477 730 
Q 2766 1069 2766 1631 
L 2766 1759 
L 2194 1759 
z
M 3341 1997 
L 3341 0 
L 2766 0 
L 2766 531 
Q 2569 213 2275 61 
Q 1981 -91 1556 -91 
Q 1019 -91 701 211 
Q 384 513 384 1019 
Q 384 1609 779 1909 
Q 1175 2209 1959 2209 
L 2766 2209 
L 2766 2266 
Q 2766 2663 2505 2880 
Q 2244 3097 1772 3097 
Q 1472 3097 1187 3025 
Q 903 2953 641 2809 
L 641 3341 
Q 956 3463 1253 3523 
Q 1550 3584 1831 3584 
Q 2591 3584 2966 3190 
Q 3341 2797 3341 1997 
z
" transform="scale(0.015625)"/>
       <path id="DejaVuSans-73" d="M 2834 3397 
L 2834 2853 
Q 2591 2978 2328 3040 
Q 2066 3103 1784 3103 
Q 1356 3103 1142 2972 
Q 928 2841 928 2578 
Q 928 2378 1081 2264 
Q 1234 2150 1697 2047 
L 1894 2003 
Q 2506 1872 2764 1633 
Q 3022 1394 3022 966 
Q 3022 478 2636 193 
Q 2250 -91 1575 -91 
Q 1294 -91 989 -36 
Q 684 19 347 128 
L 347 722 
Q 666 556 975 473 
Q 1284 391 1588 391 
Q 1994 391 2212 530 
Q 2431 669 2431 922 
Q 2431 1156 2273 1281 
Q 2116 1406 1581 1522 
L 1381 1569 
Q 847 1681 609 1914 
Q 372 2147 372 2553 
Q 372 3047 722 3315 
Q 1072 3584 1716 3584 
Q 2034 3584 2315 3537 
Q 2597 3491 2834 3397 
z
" transform="scale(0.015625)"/>
      </defs>
      <use xlink:href="#DejaVuSans-58"/>
      <use xlink:href="#DejaVuSans-2d" x="63.505859"/>
      <use xlink:href="#DejaVuSans-61" x="99.589844"/>
      <use xlink:href="#DejaVuSans-73" x="160.869141"/>
     </g>
    </g>
   </g>
   <g id="matplotlib.axis_2">
    <g id="ytick_1">
     <g id="line2d_10">
      <defs>
       <path id="me51db7239a" d="M 0 0 
L -3.5 0 
" style="stroke: #d3d3d3; stroke-width: 0.8"/>
      </defs>
      <g>
       <use xlink:href="#me51db7239a" x="57.6" y="307.584" style="fill: #d3d3d3; stroke: #d3d3d3; stroke-width: 0.8"/>
      </g>
     </g>
     <g id="text_11">
      <!-- −2 -->
      <g style="fill: #d3d3d3" transform="translate(35.857813 311.383219) scale(0.1 -0.1)">
       <use xlink:href="#DejaVuSans-2212"/>
       <use xlink:href="#DejaVuSans-32" x="83.789062"/>
      </g>
     </g>
    </g>
    <g id="ytick_2">
     <g id="line2d_11">
      <g>
       <use xlink:href="#me51db7239a" x="57.6" y="254.3616" style="fill: #d3d3d3; stroke: #d3d3d3; stroke-width: 0.8"/>
      </g>
     </g>
     <g id="text_12">
      <!-- 0 -->
      <g style="fill: #d3d3d3" transform="translate(44.2375 258.160819) scale(0.1 -0.1)">
       <use xlink:href="#DejaVuSans-30"/>
      </g>
     </g>
    </g>
    <g id="ytick_3">
     <g id="line2d_12">
      <g>
       <use xlink:href="#me51db7239a" x="57.6" y="201.1392" style="fill: #d3d3d3; stroke: #d3d3d3; stroke-width: 0.8"/>
      </g>
     </g>
     <g id="text_13">
      <!-- 2 -->
      <g style="fill: #d3d3d3" transform="translate(44.2375 204.938419) scale(0.1 -0.1)">
       <use xlink:href="#DejaVuSans-32"/>
      </g>
     </g>
    </g>
    <g id="ytick_4">
     <g id="line2d_13">
      <g>
       <use xlink:href="#me51db7239a" x="57.6" y="147.9168" style="fill: #d3d3d3; stroke: #d3d3d3; stroke-width: 0.8"/>
      </g>
     </g>
     <g id="text_14">
      <!-- 4 -->
      <g style="fill: #d3d3d3" transform="translate(44.2375 151.716019) scale(0.1 -0.1)">
       <defs>
        <path id="DejaVuSans-34" d="M 2419 4116 
L 825 1625 
L 2419 1625 
L 2419 4116 
z
M 2253 4666 
L 3047 4666 
L 3047 1625 
L 3713 1625 
L 3713 1100 
L 3047 1100 
L 3047 0 
L 2419 0 
L 2419 1100 
L 313 1100 
L 313 1709 
L 2253 4666 
z
" transform="scale(0.015625)"/>
       </defs>
       <use xlink:href="#DejaVuSans-34"/>
      </g>
     </g>
    </g>
    <g id="ytick_5">
     <g id="line2d_14">
      <g>
       <use xlink:href="#me51db7239a" x="57.6" y="94.6944" style="fill: #d3d3d3; stroke: #d3d3d3; stroke-width: 0.8"/>
      </g>
     </g>
     <g id="text_15">
      <!-- 6 -->
      <g style="fill: #d3d3d3" transform="translate(44.2375 98.493619) scale(0.1 -0.1)">
       <defs>
        <path id="DejaVuSans-36" d="M 2113 2584 
Q 1688 2584 1439 2293 
Q 1191 2003 1191 1497 
Q 1191 994 1439 701 
Q 1688 409 2113 409 
Q 2538 409 2786 701 
Q 3034 994 3034 1497 
Q 3034 2003 2786 2293 
Q 2538 2584 2113 2584 
z
M 3366 4563 
L 3366 3988 
Q 3128 4100 2886 4159 
Q 2644 4219 2406 4219 
Q 1781 4219 1451 3797 
Q 1122 3375 1075 2522 
Q 1259 2794 1537 2939 
Q 1816 3084 2150 3084 
Q 2853 3084 3261 2657 
Q 3669 2231 3669 1497 
Q 3669 778 3244 343 
Q 2819 -91 2113 -91 
Q 1303 -91 875 529 
Q 447 1150 447 2328 
Q 447 3434 972 4092 
Q 1497 4750 2381 4750 
Q 2619 4750 2861 4703 
Q 3103 4656 3366 4563 
z
" transform="scale(0.015625)"/>
       </defs>
       <use xlink:href="#DejaVuSans-36"/>
      </g>
     </g>
    </g>
    <g id="ytick_6">
     <g id="line2d_15">
      <g>
       <use xlink:href="#me51db7239a" x="57.6" y="41.472" style="fill: #d3d3d3; stroke: #d3d3d3; stroke-width: 0.8"/>
      </g>
     </g>
     <g id="text_16">
      <!-- 8 -->
      <g style="fill: #d3d3d3" transform="translate(44.2375 45.271219) scale(0.1 -0.1)">
       <defs>
        <path id="DejaVuSans-38" d="M 2034 2216 
Q 1584 2216 1326 1975 
Q 1069 1734 1069 1313 
Q 1069 891 1326 650 
Q 1584 409 2034 409 
Q 2484 409 2743 651 
Q 3003 894 3003 1313 
Q 3003 1734 2745 1975 
Q 2488 2216 2034 2216 
z
M 1403 2484 
Q 997 2584 770 2862 
Q 544 3141 544 3541 
Q 544 4100 942 4425 
Q 1341 4750 2034 4750 
Q 2731 4750 3128 4425 
Q 3525 4100 3525 3541 
Q 3525 3141 3298 2862 
Q 3072 2584 2669 2484 
Q 3125 2378 3379 2068 
Q 3634 1759 3634 1313 
Q 3634 634 3220 271 
Q 2806 -91 2034 -91 
Q 1263 -91 848 271 
Q 434 634 434 1313 
Q 434 1759 690 2068 
Q 947 2378 1403 2484 
z
M 1172 3481 
Q 1172 3119 1398 2916 
Q 1625 2713 2034 2713 
Q 2441 2713 2670 2916 
Q 2900 3119 2900 3481 
Q 2900 3844 2670 4047 
Q 2441 4250 2034 4250 
Q 1625 4250 1398 4047 
Q 1172 3844 1172 3481 
z
" transform="scale(0.015625)"/>
       </defs>
       <use xlink:href="#DejaVuSans-38"/>
      </g>
     </g>
    </g>
    <g id="text_17">
     <!-- Y-as -->
     <g style="fill: #d3d3d3" transform="translate(29.778125 184.460813) rotate(-90) scale(0.1 -0.1)">
      <defs>
       <path id="DejaVuSans-59" d="M -13 4666 
L 666 4666 
L 1959 2747 
L 3244 4666 
L 3922 4666 
L 2272 2222 
L 2272 0 
L 1638 0 
L 1638 2222 
L -13 4666 
z
" transform="scale(0.015625)"/>
      </defs>
      <use xlink:href="#DejaVuSans-59"/>
      <use xlink:href="#DejaVuSans-2d" x="49.208984"/>
      <use xlink:href="#DejaVuSans-61" x="85.292969"/>
      <use xlink:href="#DejaVuSans-73" x="146.572266"/>
     </g>
    </g>
   </g>
   <g id="line2d_16">
    <path d="M 123.253032 -1 
L 128.1312 20.592852 
L 133.488 43.201728 
L 137.952 61.164288 
L 142.416 78.328512 
L 146.88 94.6944 
L 151.344 110.261952 
L 155.808 125.031168 
L 160.272 139.002048 
L 164.736 152.174592 
L 169.2 164.5488 
L 172.7712 173.873364 
L 176.3424 182.686994 
L 179.9136 190.989688 
L 183.4848 198.781448 
L 187.056 206.062272 
L 190.6272 212.832161 
L 194.1984 219.091116 
L 197.7696 224.839135 
L 201.3408 230.076219 
L 204.0192 233.668731 
L 206.6976 236.973842 
L 209.376 239.991552 
L 212.0544 242.721861 
L 214.7328 245.164769 
L 217.4112 247.320276 
L 220.0896 249.188383 
L 222.768 250.769088 
L 225.4464 252.062392 
L 228.1248 253.068296 
L 230.8032 253.786798 
L 233.4816 254.2179 
L 236.16 254.3616 
L 238.8384 254.2179 
L 241.5168 253.786798 
L 244.1952 253.068296 
L 246.8736 252.062392 
L 249.552 250.769088 
L 252.2304 249.188383 
L 254.9088 247.320276 
L 257.5872 245.164769 
L 260.2656 242.721861 
L 262.944 239.991552 
L 265.6224 236.973842 
L 268.3008 233.668731 
L 270.9792 230.076219 
L 274.5504 224.839135 
L 278.1216 219.091116 
L 281.6928 212.832161 
L 285.264 206.062272 
L 288.8352 198.781448 
L 292.4064 190.989688 
L 295.9776 182.686994 
L 299.5488 173.873364 
L 303.12 164.5488 
L 307.584 152.174592 
L 312.048 139.002048 
L 316.512 125.031168 
L 320.976 110.261952 
L 325.44 94.6944 
L 329.904 78.328512 
L 334.368 61.164288 
L 338.832 43.201728 
L 343.296 24.440832 
L 348.6528 0.873953 
L 349.066968 -1 
L 349.066968 -1 
" clip-path="url(#pe8bc71ed34)" style="fill: none; stroke: #00ced1; stroke-width: 1.5; stroke-linecap: square"/>
   </g>
   <g id="patch_3">
    <path d="M 57.6 307.584 
L 57.6 41.472 
" style="fill: none; stroke: #d3d3d3; stroke-width: 0.8; stroke-linejoin: miter; stroke-linecap: square"/>
   </g>
   <g id="patch_4">
    <path d="M 414.72 307.584 
L 414.72 41.472 
" style="fill: none; stroke: #d3d3d3; stroke-width: 0.8; stroke-linejoin: miter; stroke-linecap: square"/>
   </g>
   <g id="patch_5">
    <path d="M 57.6 307.584 
L 414.72 307.584 
" style="fill: none; stroke: #d3d3d3; stroke-width: 0.8; stroke-linejoin: miter; stroke-linecap: square"/>
   </g>
   <g id="patch_6">
    <path d="M 57.6 41.472 
L 414.72 41.472 
" style="fill: none; stroke: #d3d3d3; stroke-width: 0.8; stroke-linejoin: miter; stroke-linecap: square"/>
   </g>
   <g id="PolyCollection_1">
    <defs>
     <path id="m06c7a1c2f8" d="M 236.16 -91.2384 
L 236.16 -91.2384 
L 237.0528 -91.254367 
L 237.9456 -91.302267 
L 238.8384 -91.3821 
L 239.7312 -91.493868 
L 240.624 -91.637568 
L 241.5168 -91.813202 
L 242.4096 -92.020769 
L 243.3024 -92.26027 
L 244.1952 -92.531704 
L 245.088 -92.835072 
L 245.9808 -93.170373 
L 246.8736 -93.537608 
L 247.7664 -93.936776 
L 248.6592 -94.367877 
L 249.552 -94.830912 
L 250.4448 -95.32588 
L 251.3376 -95.852782 
L 252.2304 -96.411617 
L 253.1232 -97.002386 
L 254.016 -97.625088 
L 254.9088 -98.279724 
L 255.8016 -98.966292 
L 256.6944 -99.684795 
L 257.5872 -100.435231 
L 258.48 -101.2176 
L 259.3728 -102.031903 
L 260.2656 -102.878139 
L 261.1584 -103.756308 
L 262.0512 -104.666412 
L 262.944 -105.608448 
L 263.8368 -106.582418 
L 264.7296 -107.588321 
L 265.6224 -108.626158 
L 266.5152 -109.695928 
L 267.408 -110.797632 
L 268.3008 -111.931269 
L 269.1936 -113.09684 
L 270.0864 -114.294344 
L 270.9792 -115.523781 
L 271.872 -116.785152 
L 272.7648 -118.078456 
L 273.6576 -119.403694 
L 274.5504 -120.760865 
L 275.4432 -122.14997 
L 276.336 -123.571008 
L 277.2288 -125.02398 
L 278.1216 -126.508884 
L 279.0144 -128.025723 
L 279.9072 -129.574495 
L 280.8 -131.1552 
L 281.6928 -132.767839 
L 282.5856 -134.412411 
L 283.4784 -136.088916 
L 284.3712 -137.797356 
L 285.264 -139.537728 
L 286.1568 -141.310034 
L 287.0496 -143.114273 
L 287.9424 -144.950446 
L 288.8352 -146.818552 
L 289.728 -148.718592 
L 290.6208 -150.650565 
L 291.5136 -152.614472 
L 292.4064 -154.610312 
L 293.2992 -156.638085 
L 294.192 -158.697792 
L 295.0848 -160.789432 
L 295.9776 -162.913006 
L 296.8704 -165.068513 
L 297.7632 -167.255954 
L 298.656 -169.475328 
L 299.5488 -171.726636 
L 300.4416 -174.009876 
L 301.3344 -176.325051 
L 302.2272 -178.672159 
L 303.12 -181.0512 
L 304.0128 -183.462175 
L 304.9056 -185.905083 
L 305.7984 -188.379924 
L 306.6912 -190.8867 
L 307.584 -193.425408 
L 308.4768 -195.99605 
L 309.3696 -198.598625 
L 310.2624 -201.233134 
L 311.1552 -203.899576 
L 312.048 -206.597952 
L 312.9408 -209.328261 
L 313.8336 -212.090504 
L 314.7264 -214.88468 
L 315.6192 -217.710789 
L 316.512 -220.568832 
L 317.4048 -223.458808 
L 318.2976 -226.380718 
L 319.1904 -229.334561 
L 320.0832 -232.320338 
L 320.976 -235.338048 
L 321.8688 -238.387692 
L 322.7616 -241.469268 
L 323.6544 -244.582779 
L 324.5472 -247.728223 
L 324.5472 -91.2384 
L 324.5472 -91.2384 
L 323.6544 -91.2384 
L 322.7616 -91.2384 
L 321.8688 -91.2384 
L 320.976 -91.2384 
L 320.0832 -91.2384 
L 319.1904 -91.2384 
L 318.2976 -91.2384 
L 317.4048 -91.2384 
L 316.512 -91.2384 
L 315.6192 -91.2384 
L 314.7264 -91.2384 
L 313.8336 -91.2384 
L 312.9408 -91.2384 
L 312.048 -91.2384 
L 311.1552 -91.2384 
L 310.2624 -91.2384 
L 309.3696 -91.2384 
L 308.4768 -91.2384 
L 307.584 -91.2384 
L 306.6912 -91.2384 
L 305.7984 -91.2384 
L 304.9056 -91.2384 
L 304.0128 -91.2384 
L 303.12 -91.2384 
L 302.2272 -91.2384 
L 301.3344 -91.2384 
L 300.4416 -91.2384 
L 299.5488 -91.2384 
L 298.656 -91.2384 
L 297.7632 -91.2384 
L 296.8704 -91.2384 
L 295.9776 -91.2384 
L 295.0848 -91.2384 
L 294.192 -91.2384 
L 293.2992 -91.2384 
L 292.4064 -91.2384 
L 291.5136 -91.2384 
L 290.6208 -91.2384 
L 289.728 -91.2384 
L 288.8352 -91.2384 
L 287.9424 -91.2384 
L 287.0496 -91.2384 
L 286.1568 -91.2384 
L 285.264 -91.2384 
L 284.3712 -91.2384 
L 283.4784 -91.2384 
L 282.5856 -91.2384 
L 281.6928 -91.2384 
L 280.8 -91.2384 
L 279.9072 -91.2384 
L 279.0144 -91.2384 
L 278.1216 -91.2384 
L 277.2288 -91.2384 
L 276.336 -91.2384 
L 275.4432 -91.2384 
L 274.5504 -91.2384 
L 273.6576 -91.2384 
L 272.7648 -91.2384 
L 271.872 -91.2384 
L 270.9792 -91.2384 
L 270.0864 -91.2384 
L 269.1936 -91.2384 
L 268.3008 -91.2384 
L 267.408 -91.2384 
L 266.5152 -91.2384 
L 265.6224 -91.2384 
L 264.7296 -91.2384 
L 263.8368 -91.2384 
L 262.944 -91.2384 
L 262.0512 -91.2384 
L 261.1584 -91.2384 
L 260.2656 -91.2384 
L 259.3728 -91.2384 
L 258.48 -91.2384 
L 257.5872 -91.2384 
L 256.6944 -91.2384 
L 255.8016 -91.2384 
L 254.9088 -91.2384 
L 254.016 -91.2384 
L 253.1232 -91.2384 
L 252.2304 -91.2384 
L 251.3376 -91.2384 
L 250.4448 -91.2384 
L 249.552 -91.2384 
L 248.6592 -91.2384 
L 247.7664 -91.2384 
L 246.8736 -91.2384 
L 245.9808 -91.2384 
L 245.088 -91.2384 
L 244.1952 -91.2384 
L 243.3024 -91.2384 
L 242.4096 -91.2384 
L 241.5168 -91.2384 
L 240.624 -91.2384 
L 239.7312 -91.2384 
L 238.8384 -91.2384 
L 237.9456 -91.2384 
L 237.0528 -91.2384 
L 236.16 -91.2384 
z
" style="stroke: #00ff7f; stroke-opacity: 0.7"/>
    </defs>
    <g clip-path="url(#pe8bc71ed34)">
     <use xlink:href="#m06c7a1c2f8" x="0" y="345.6" style="fill: #00ff7f; fill-opacity: 0.7; stroke: #00ff7f; stroke-opacity: 0.7"/>
    </g>
   </g>
   <g id="text_18">
    <!-- f(x) = 6x² -->
    <g style="fill: #d3d3d3" transform="translate(207.19875 35.472) scale(0.12 -0.12)">
     <defs>
      <path id="DejaVuSans-66" d="M 2375 4863 
L 2375 4384 
L 1825 4384 
Q 1516 4384 1395 4259 
Q 1275 4134 1275 3809 
L 1275 3500 
L 2222 3500 
L 2222 3053 
L 1275 3053 
L 1275 0 
L 697 0 
L 697 3053 
L 147 3053 
L 147 3500 
L 697 3500 
L 697 3744 
Q 697 4328 969 4595 
Q 1241 4863 1831 4863 
L 2375 4863 
z
" transform="scale(0.015625)"/>
      <path id="DejaVuSans-28" d="M 1984 4856 
Q 1566 4138 1362 3434 
Q 1159 2731 1159 2009 
Q 1159 1288 1364 580 
Q 1569 -128 1984 -844 
L 1484 -844 
Q 1016 -109 783 600 
Q 550 1309 550 2009 
Q 550 2706 781 3412 
Q 1013 4119 1484 4856 
L 1984 4856 
z
" transform="scale(0.015625)"/>
      <path id="DejaVuSans-78" d="M 3513 3500 
L 2247 1797 
L 3578 0 
L 2900 0 
L 1881 1375 
L 863 0 
L 184 0 
L 1544 1831 
L 300 3500 
L 978 3500 
L 1906 2253 
L 2834 3500 
L 3513 3500 
z
" transform="scale(0.015625)"/>
      <path id="DejaVuSans-29" d="M 513 4856 
L 1013 4856 
Q 1481 4119 1714 3412 
Q 1947 2706 1947 2009 
Q 1947 1309 1714 600 
Q 1481 -109 1013 -844 
L 513 -844 
Q 928 -128 1133 580 
Q 1338 1288 1338 2009 
Q 1338 2731 1133 3434 
Q 928 4138 513 4856 
z
" transform="scale(0.015625)"/>
      <path id="DejaVuSans-20" transform="scale(0.015625)"/>
      <path id="DejaVuSans-3d" d="M 678 2906 
L 4684 2906 
L 4684 2381 
L 678 2381 
L 678 2906 
z
M 678 1631 
L 4684 1631 
L 4684 1100 
L 678 1100 
L 678 1631 
z
" transform="scale(0.015625)"/>
      <path id="DejaVuSans-b2" d="M 838 2444 
L 2163 2444 
L 2163 2088 
L 294 2088 
L 294 2431 
Q 400 2528 597 2703 
Q 1672 3656 1672 3950 
Q 1672 4156 1509 4282 
Q 1347 4409 1081 4409 
Q 919 4409 728 4354 
Q 538 4300 313 4191 
L 313 4575 
Q 553 4663 761 4706 
Q 969 4750 1147 4750 
Q 1600 4750 1872 4544 
Q 2144 4338 2144 4000 
Q 2144 3566 1109 2678 
Q 934 2528 838 2444 
z
" transform="scale(0.015625)"/>
     </defs>
     <use xlink:href="#DejaVuSans-66"/>
     <use xlink:href="#DejaVuSans-28" x="35.205078"/>
     <use xlink:href="#DejaVuSans-78" x="74.21875"/>
     <use xlink:href="#DejaVuSans-29" x="133.398438"/>
     <use xlink:href="#DejaVuSans-20" x="172.412109"/>
     <use xlink:href="#DejaVuSans-3d" x="204.199219"/>
     <use xlink:href="#DejaVuSans-20" x="287.988281"/>
     <use xlink:href="#DejaVuSans-36" x="319.775391"/>
     <use xlink:href="#DejaVuSans-78" x="383.398438"/>
     <use xlink:href="#DejaVuSans-b2" x="442.578125"/>
    </g>
   </g>
   <g id="text_19">
    <!-- $V$ -->
    <g style="fill: #ffffff" transform="translate(300.4416 207.792) scale(0.1728 -0.1728)">
     <defs>
      <path id="DejaVuSans-Oblique-56" d="M 1319 0 
L 500 4666 
L 1119 4666 
L 1797 653 
L 4063 4666 
L 4750 4666 
L 2053 0 
L 1319 0 
z
" transform="scale(0.015625)"/>
     </defs>
     <use xlink:href="#DejaVuSans-Oblique-56" transform="translate(0 0.09375)"/>
    </g>
   </g>
  </g>
 </g>
 <defs>
  <clipPath id="pe8bc71ed34">
   <rect x="57.6" y="41.472" width="357.12" height="266.112"/>
  </clipPath>
 </defs>
</svg>
