<?xml version="1.0" encoding="utf-8" standalone="no"?>
<!DOCTYPE svg PUBLIC "-//W3C//DTD SVG 1.1//EN"
  "http://www.w3.org/Graphics/SVG/1.1/DTD/svg11.dtd">
<svg xmlns:xlink="http://www.w3.org/1999/xlink" width="460.8pt" height="345.6pt" viewBox="0 0 460.8 345.6" xmlns="http://www.w3.org/2000/svg" version="1.1">
 <metadata>
  <rdf:RDF xmlns:dc="http://purl.org/dc/elements/1.1/" xmlns:cc="http://creativecommons.org/ns#" xmlns:rdf="http://www.w3.org/1999/02/22-rdf-syntax-ns#">
   <cc:Work>
    <dc:type rdf:resource="http://purl.org/dc/dcmitype/StillImage"/>
    <dc:date>2024-08-10T20:04:27.076682</dc:date>
    <dc:format>image/svg+xml</dc:format>
    <dc:creator>
     <cc:Agent>
      <dc:title>Matplotlib v3.8.3, https://matplotlib.org/</dc:title>
     </cc:Agent>
    </dc:creator>
   </cc:Work>
  </rdf:RDF>
 </metadata>
 <defs>
  <style type="text/css">*{stroke-linejoin: round; stroke-linecap: butt}</style>
 </defs>
 <g id="figure_1">
  <g id="patch_1">
   <path d="M 0 345.6 
L 460.8 345.6 
L 460.8 0 
L 0 0 
L 0 345.6 
z
" style="fill: none"/>
  </g>
  <g id="axes_1">
   <g id="patch_2">
    <path d="M 57.6 307.584 
L 414.72 307.584 
L 414.72 41.472 
L 57.6 41.472 
z
" style="fill: none"/>
   </g>
   <g id="LineCollection_1">
    <path d="M 57.6 241.056 
L 414.72 241.056 
" clip-path="url(#pbd8a711f98)" style="fill: none; stroke: #d3d3d3; stroke-width: 1.5"/>
   </g>
   <g id="LineCollection_2">
    <path d="M 146.88 307.584 
L 146.88 41.472 
" clip-path="url(#pbd8a711f98)" style="fill: none; stroke: #d3d3d3; stroke-width: 1.5"/>
   </g>
   <g id="matplotlib.axis_1">
    <g id="text_1">
     <!-- X-as -->
     <g style="fill: #d3d3d3" transform="translate(225.512344 319.182437) scale(0.1 -0.1)">
      <defs>
       <path id="DejaVuSans-58" d="M 403 4666 
L 1081 4666 
L 2241 2931 
L 3406 4666 
L 4084 4666 
L 2584 2425 
L 4184 0 
L 3506 0 
L 2194 1984 
L 872 0 
L 191 0 
L 1856 2491 
L 403 4666 
z
" transform="scale(0.015625)"/>
       <path id="DejaVuSans-2d" d="M 313 2009 
L 1997 2009 
L 1997 1497 
L 313 1497 
L 313 2009 
z
" transform="scale(0.015625)"/>
       <path id="DejaVuSans-61" d="M 2194 1759 
Q 1497 1759 1228 1600 
Q 959 1441 959 1056 
Q 959 750 1161 570 
Q 1363 391 1709 391 
Q 2188 391 2477 730 
Q 2766 1069 2766 1631 
L 2766 1759 
L 2194 1759 
z
M 3341 1997 
L 3341 0 
L 2766 0 
L 2766 531 
Q 2569 213 2275 61 
Q 1981 -91 1556 -91 
Q 1019 -91 701 211 
Q 384 513 384 1019 
Q 384 1609 779 1909 
Q 1175 2209 1959 2209 
L 2766 2209 
L 2766 2266 
Q 2766 2663 2505 2880 
Q 2244 3097 1772 3097 
Q 1472 3097 1187 3025 
Q 903 2953 641 2809 
L 641 3341 
Q 956 3463 1253 3523 
Q 1550 3584 1831 3584 
Q 2591 3584 2966 3190 
Q 3341 2797 3341 1997 
z
" transform="scale(0.015625)"/>
       <path id="DejaVuSans-73" d="M 2834 3397 
L 2834 2853 
Q 2591 2978 2328 3040 
Q 2066 3103 1784 3103 
Q 1356 3103 1142 2972 
Q 928 2841 928 2578 
Q 928 2378 1081 2264 
Q 1234 2150 1697 2047 
L 1894 2003 
Q 2506 1872 2764 1633 
Q 3022 1394 3022 966 
Q 3022 478 2636 193 
Q 2250 -91 1575 -91 
Q 1294 -91 989 -36 
Q 684 19 347 128 
L 347 722 
Q 666 556 975 473 
Q 1284 391 1588 391 
Q 1994 391 2212 530 
Q 2431 669 2431 922 
Q 2431 1156 2273 1281 
Q 2116 1406 1581 1522 
L 1381 1569 
Q 847 1681 609 1914 
Q 372 2147 372 2553 
Q 372 3047 722 3315 
Q 1072 3584 1716 3584 
Q 2034 3584 2315 3537 
Q 2597 3491 2834 3397 
z
" transform="scale(0.015625)"/>
      </defs>
      <use xlink:href="#DejaVuSans-58"/>
      <use xlink:href="#DejaVuSans-2d" x="63.505859"/>
      <use xlink:href="#DejaVuSans-61" x="99.589844"/>
      <use xlink:href="#DejaVuSans-73" x="160.869141"/>
     </g>
    </g>
   </g>
   <g id="matplotlib.axis_2">
    <g id="text_2">
     <!-- Y-as -->
     <g style="fill: #d3d3d3" transform="translate(51.520313 184.460813) rotate(-90) scale(0.1 -0.1)">
      <defs>
       <path id="DejaVuSans-59" d="M -13 4666 
L 666 4666 
L 1959 2747 
L 3244 4666 
L 3922 4666 
L 2272 2222 
L 2272 0 
L 1638 0 
L 1638 2222 
L -13 4666 
z
" transform="scale(0.015625)"/>
      </defs>
      <use xlink:href="#DejaVuSans-59"/>
      <use xlink:href="#DejaVuSans-2d" x="49.208984"/>
      <use xlink:href="#DejaVuSans-61" x="85.292969"/>
      <use xlink:href="#DejaVuSans-73" x="146.572266"/>
     </g>
    </g>
   </g>
   <g id="line2d_1">
    <path d="M 146.88 241.055997 
L 148.6656 227.7504 
L 150.4512 222.23904 
L 152.2368 218.010025 
L 154.0224 214.4448 
L 155.808 211.303774 
L 157.5936 208.464069 
L 161.1648 203.42208 
L 164.736 198.979998 
L 168.3072 194.96405 
L 171.8784 191.271003 
L 175.4496 187.8336 
L 180.8064 183.058234 
L 186.1632 178.647204 
L 191.52 174.528 
L 196.8768 170.649383 
L 204.0192 165.78816 
L 211.1616 161.2224 
L 218.304 156.903997 
L 227.232 151.799322 
L 236.16 146.9712 
L 245.088 142.379029 
L 255.8016 137.135942 
L 266.5152 132.14497 
L 279.0144 126.596901 
L 291.5136 121.3056 
L 304.0128 116.238408 
L 318.2976 110.688277 
L 332.5824 105.364972 
L 348.6528 99.615532 
L 364.7232 94.090844 
L 382.5792 88.186295 
L 402.2208 81.944166 
L 412.9344 78.640454 
L 412.9344 78.640454 
" clip-path="url(#pbd8a711f98)" style="fill: none; stroke: #00ced1; stroke-width: 1.5; stroke-linecap: square"/>
   </g>
   <g id="line2d_2">
    <path d="M 57.6 207.792 
L 62.9568 211.66393 
L 68.3136 215.296358 
L 73.6704 218.689286 
L 79.0272 221.842714 
L 84.384 224.75664 
L 89.7408 227.431066 
L 95.0976 229.86599 
L 100.4544 232.061414 
L 105.8112 234.017338 
L 111.168 235.73376 
L 116.5248 237.210682 
L 121.8816 238.448102 
L 127.2384 239.446022 
L 132.5952 240.204442 
L 137.952 240.72336 
L 143.3088 241.002778 
L 148.6656 241.042694 
L 154.0224 240.84311 
L 159.3792 240.404026 
L 164.736 239.72544 
L 170.0928 238.807354 
L 175.4496 237.649766 
L 180.8064 236.252678 
L 186.1632 234.61609 
L 191.52 232.74 
L 196.8768 230.62441 
L 202.2336 228.269318 
L 207.5904 225.674726 
L 212.9472 222.840634 
L 218.304 219.76704 
L 223.6608 216.453946 
L 229.0176 212.90135 
L 234.3744 209.109254 
L 239.7312 205.077658 
L 245.088 200.80656 
L 250.4448 196.295962 
L 255.8016 191.545862 
L 261.1584 186.556262 
L 266.5152 181.327162 
L 271.872 175.85856 
L 279.0144 168.194534 
L 286.1568 160.10473 
L 293.2992 151.589146 
L 300.4416 142.647782 
L 307.584 133.28064 
L 314.7264 123.487718 
L 321.8688 113.269018 
L 329.0112 102.624538 
L 336.1536 91.554278 
L 343.296 80.05824 
L 350.4384 68.136422 
L 357.5808 55.788826 
L 364.7232 43.01545 
L 371.8656 29.816294 
L 379.008 16.19136 
L 386.1504 2.140646 
L 387.717211 -1 
L 387.717211 -1 
" clip-path="url(#pbd8a711f98)" style="fill: none; stroke: #dc143c; stroke-width: 1.5; stroke-linecap: square"/>
   </g>
   <g id="patch_3">
    <path d="M 57.6 307.584 
L 57.6 41.472 
" style="fill: none; stroke: #d3d3d3; stroke-width: 0.8; stroke-linejoin: miter; stroke-linecap: square"/>
   </g>
   <g id="patch_4">
    <path d="M 414.72 307.584 
L 414.72 41.472 
" style="fill: none; stroke: #d3d3d3; stroke-width: 0.8; stroke-linejoin: miter; stroke-linecap: square"/>
   </g>
   <g id="patch_5">
    <path d="M 57.6 307.584 
L 414.72 307.584 
" style="fill: none; stroke: #d3d3d3; stroke-width: 0.8; stroke-linejoin: miter; stroke-linecap: square"/>
   </g>
   <g id="patch_6">
    <path d="M 57.6 41.472 
L 414.72 41.472 
" style="fill: none; stroke: #d3d3d3; stroke-width: 0.8; stroke-linejoin: miter; stroke-linecap: square"/>
   </g>
   <g id="PolyCollection_1">
    <defs>
     <path id="m993c34182e" d="M 146.88 -104.544 
L 146.88 -104.544003 
L 148.6656 -117.8496 
L 150.4512 -123.36096 
L 152.2368 -127.589975 
L 154.0224 -131.1552 
L 155.808 -134.296226 
L 157.5936 -137.135931 
L 159.3792 -139.747309 
L 161.1648 -142.17792 
L 162.9504 -144.4608 
L 164.736 -146.620002 
L 166.5216 -148.673683 
L 168.3072 -150.63595 
L 170.0928 -152.518023 
L 171.8784 -154.328997 
L 173.664 -156.076367 
L 175.4496 -157.7664 
L 177.2352 -159.404394 
L 179.0208 -160.99488 
L 180.8064 -162.541766 
L 182.592 -164.048452 
L 184.3776 -165.517919 
L 186.1632 -166.952796 
L 187.9488 -168.355416 
L 189.7344 -169.727861 
L 191.52 -171.072 
L 193.3056 -172.389514 
L 195.0912 -173.681926 
L 196.8768 -174.950617 
L 198.6624 -176.196849 
L 200.448 -177.421773 
L 202.2336 -178.626446 
L 204.0192 -179.81184 
L 205.8048 -180.978853 
L 207.5904 -182.128314 
L 209.376 -183.260991 
L 211.1616 -184.3776 
L 212.9472 -185.478805 
L 214.7328 -186.565227 
L 216.5184 -187.637445 
L 218.304 -188.696003 
L 220.0896 -189.74141 
L 221.8752 -190.774143 
L 223.6608 -191.794654 
L 225.4464 -192.803366 
L 227.232 -193.800678 
L 229.0176 -194.78697 
L 230.8032 -195.762598 
L 232.5888 -196.727901 
L 234.3744 -197.6832 
L 236.16 -198.6288 
L 237.9456 -199.56499 
L 239.7312 -200.492046 
L 241.5168 -201.41023 
L 243.3024 -202.319792 
L 245.088 -203.220971 
L 246.8736 -204.113993 
L 248.6592 -204.999077 
L 250.4448 -205.876431 
L 252.2304 -206.746253 
L 254.016 -207.608734 
L 255.8016 -208.464058 
L 257.5872 -209.312399 
L 259.3728 -210.153926 
L 261.1584 -210.9888 
L 262.944 -211.817177 
L 264.7296 -212.639205 
L 266.5152 -213.45503 
L 268.3008 -214.264788 
L 270.0864 -215.068614 
L 271.872 -215.866636 
L 273.6576 -216.658978 
L 275.4432 -217.44576 
L 277.2288 -218.227096 
L 279.0144 -219.003099 
L 280.8 -219.773876 
L 282.5856 -220.539532 
L 284.3712 -221.300166 
L 286.1568 -222.055877 
L 287.9424 -222.80676 
L 289.728 -223.552904 
L 291.5136 -224.2944 
L 293.2992 -225.031332 
L 295.0848 -225.763785 
L 296.8704 -226.491838 
L 298.656 -227.215571 
L 300.4416 -227.935058 
L 302.2272 -228.650375 
L 304.0128 -229.361592 
L 305.7984 -230.068779 
L 307.584 -230.772005 
L 309.3696 -231.471334 
L 311.1552 -232.166832 
L 312.9408 -232.85856 
L 314.7264 -233.546578 
L 316.512 -234.230947 
L 318.2976 -234.911723 
L 320.0832 -235.588962 
L 321.8688 -236.26272 
L 323.6544 -236.933048 
L 323.6544 -234.952186 
L 323.6544 -234.952186 
L 321.8688 -232.330982 
L 320.0832 -229.73639 
L 318.2976 -227.16841 
L 316.512 -224.62704 
L 314.7264 -222.112282 
L 312.9408 -219.624134 
L 311.1552 -217.162598 
L 309.3696 -214.727674 
L 307.584 -212.31936 
L 305.7984 -209.937658 
L 304.0128 -207.582566 
L 302.2272 -205.254086 
L 300.4416 -202.952218 
L 298.656 -200.67696 
L 296.8704 -198.428314 
L 295.0848 -196.206278 
L 293.2992 -194.010854 
L 291.5136 -191.842042 
L 289.728 -189.69984 
L 287.9424 -187.58425 
L 286.1568 -185.49527 
L 284.3712 -183.432902 
L 282.5856 -181.397146 
L 280.8 -179.388 
L 279.0144 -177.405466 
L 277.2288 -175.449542 
L 275.4432 -173.52023 
L 273.6576 -171.61753 
L 271.872 -169.74144 
L 270.0864 -167.891962 
L 268.3008 -166.069094 
L 266.5152 -164.272838 
L 264.7296 -162.503194 
L 262.944 -160.76016 
L 261.1584 -159.043738 
L 259.3728 -157.353926 
L 257.5872 -155.690726 
L 255.8016 -154.054138 
L 254.016 -152.44416 
L 252.2304 -150.860794 
L 250.4448 -149.304038 
L 248.6592 -147.773894 
L 246.8736 -146.270362 
L 245.088 -144.79344 
L 243.3024 -143.34313 
L 241.5168 -141.91943 
L 239.7312 -140.522342 
L 237.9456 -139.151866 
L 236.16 -137.808 
L 234.3744 -136.490746 
L 232.5888 -135.200102 
L 230.8032 -133.93607 
L 229.0176 -132.69865 
L 227.232 -131.48784 
L 225.4464 -130.303642 
L 223.6608 -129.146054 
L 221.8752 -128.015078 
L 220.0896 -126.910714 
L 218.304 -125.83296 
L 216.5184 -124.781818 
L 214.7328 -123.757286 
L 212.9472 -122.759366 
L 211.1616 -121.788058 
L 209.376 -120.84336 
L 207.5904 -119.925274 
L 205.8048 -119.033798 
L 204.0192 -118.168934 
L 202.2336 -117.330682 
L 200.448 -116.51904 
L 198.6624 -115.73401 
L 196.8768 -114.97559 
L 195.0912 -114.243782 
L 193.3056 -113.538586 
L 191.52 -112.86 
L 189.7344 -112.208026 
L 187.9488 -111.582662 
L 186.1632 -110.98391 
L 184.3776 -110.41177 
L 182.592 -109.86624 
L 180.8064 -109.347322 
L 179.0208 -108.855014 
L 177.2352 -108.389318 
L 175.4496 -107.950234 
L 173.664 -107.53776 
L 171.8784 -107.151898 
L 170.0928 -106.792646 
L 168.3072 -106.460006 
L 166.5216 -106.153978 
L 164.736 -105.87456 
L 162.9504 -105.621754 
L 161.1648 -105.395558 
L 159.3792 -105.195974 
L 157.5936 -105.023002 
L 155.808 -104.87664 
L 154.0224 -104.75689 
L 152.2368 -104.66375 
L 150.4512 -104.597222 
L 148.6656 -104.557306 
L 146.88 -104.544 
z
" style="stroke: #9400d3; stroke-opacity: 0.7"/>
    </defs>
    <g clip-path="url(#pbd8a711f98)">
     <use xlink:href="#m993c34182e" x="0" y="345.6" style="fill: #9400d3; fill-opacity: 0.7; stroke: #9400d3; stroke-opacity: 0.7"/>
    </g>
   </g>
   <g id="text_3">
    <!-- $V$ -->
    <g style="fill: #ffffff" transform="translate(218.304 187.8336) scale(0.1728 -0.1728)">
     <defs>
      <path id="DejaVuSans-Oblique-56" d="M 1319 0 
L 500 4666 
L 1119 4666 
L 1797 653 
L 4063 4666 
L 4750 4666 
L 2053 0 
L 1319 0 
z
" transform="scale(0.015625)"/>
     </defs>
     <use xlink:href="#DejaVuSans-Oblique-56" transform="translate(0 0.09375)"/>
    </g>
   </g>
   <g id="text_4">
    <!-- f(x) = sqrt(x); g(x) = x² -->
    <g style="fill: #d3d3d3" transform="translate(166.217812 35.472) scale(0.12 -0.12)">
     <defs>
      <path id="DejaVuSans-66" d="M 2375 4863 
L 2375 4384 
L 1825 4384 
Q 1516 4384 1395 4259 
Q 1275 4134 1275 3809 
L 1275 3500 
L 2222 3500 
L 2222 3053 
L 1275 3053 
L 1275 0 
L 697 0 
L 697 3053 
L 147 3053 
L 147 3500 
L 697 3500 
L 697 3744 
Q 697 4328 969 4595 
Q 1241 4863 1831 4863 
L 2375 4863 
z
" transform="scale(0.015625)"/>
      <path id="DejaVuSans-28" d="M 1984 4856 
Q 1566 4138 1362 3434 
Q 1159 2731 1159 2009 
Q 1159 1288 1364 580 
Q 1569 -128 1984 -844 
L 1484 -844 
Q 1016 -109 783 600 
Q 550 1309 550 2009 
Q 550 2706 781 3412 
Q 1013 4119 1484 4856 
L 1984 4856 
z
" transform="scale(0.015625)"/>
      <path id="DejaVuSans-78" d="M 3513 3500 
L 2247 1797 
L 3578 0 
L 2900 0 
L 1881 1375 
L 863 0 
L 184 0 
L 1544 1831 
L 300 3500 
L 978 3500 
L 1906 2253 
L 2834 3500 
L 3513 3500 
z
" transform="scale(0.015625)"/>
      <path id="DejaVuSans-29" d="M 513 4856 
L 1013 4856 
Q 1481 4119 1714 3412 
Q 1947 2706 1947 2009 
Q 1947 1309 1714 600 
Q 1481 -109 1013 -844 
L 513 -844 
Q 928 -128 1133 580 
Q 1338 1288 1338 2009 
Q 1338 2731 1133 3434 
Q 928 4138 513 4856 
z
" transform="scale(0.015625)"/>
      <path id="DejaVuSans-20" transform="scale(0.015625)"/>
      <path id="DejaVuSans-3d" d="M 678 2906 
L 4684 2906 
L 4684 2381 
L 678 2381 
L 678 2906 
z
M 678 1631 
L 4684 1631 
L 4684 1100 
L 678 1100 
L 678 1631 
z
" transform="scale(0.015625)"/>
      <path id="DejaVuSans-71" d="M 947 1747 
Q 947 1113 1208 752 
Q 1469 391 1925 391 
Q 2381 391 2643 752 
Q 2906 1113 2906 1747 
Q 2906 2381 2643 2742 
Q 2381 3103 1925 3103 
Q 1469 3103 1208 2742 
Q 947 2381 947 1747 
z
M 2906 525 
Q 2725 213 2448 61 
Q 2172 -91 1784 -91 
Q 1150 -91 751 415 
Q 353 922 353 1747 
Q 353 2572 751 3078 
Q 1150 3584 1784 3584 
Q 2172 3584 2448 3432 
Q 2725 3281 2906 2969 
L 2906 3500 
L 3481 3500 
L 3481 -1331 
L 2906 -1331 
L 2906 525 
z
" transform="scale(0.015625)"/>
      <path id="DejaVuSans-72" d="M 2631 2963 
Q 2534 3019 2420 3045 
Q 2306 3072 2169 3072 
Q 1681 3072 1420 2755 
Q 1159 2438 1159 1844 
L 1159 0 
L 581 0 
L 581 3500 
L 1159 3500 
L 1159 2956 
Q 1341 3275 1631 3429 
Q 1922 3584 2338 3584 
Q 2397 3584 2469 3576 
Q 2541 3569 2628 3553 
L 2631 2963 
z
" transform="scale(0.015625)"/>
      <path id="DejaVuSans-74" d="M 1172 4494 
L 1172 3500 
L 2356 3500 
L 2356 3053 
L 1172 3053 
L 1172 1153 
Q 1172 725 1289 603 
Q 1406 481 1766 481 
L 2356 481 
L 2356 0 
L 1766 0 
Q 1100 0 847 248 
Q 594 497 594 1153 
L 594 3053 
L 172 3053 
L 172 3500 
L 594 3500 
L 594 4494 
L 1172 4494 
z
" transform="scale(0.015625)"/>
      <path id="DejaVuSans-3b" d="M 750 3309 
L 1409 3309 
L 1409 2516 
L 750 2516 
L 750 3309 
z
M 750 794 
L 1409 794 
L 1409 256 
L 897 -744 
L 494 -744 
L 750 256 
L 750 794 
z
" transform="scale(0.015625)"/>
      <path id="DejaVuSans-67" d="M 2906 1791 
Q 2906 2416 2648 2759 
Q 2391 3103 1925 3103 
Q 1463 3103 1205 2759 
Q 947 2416 947 1791 
Q 947 1169 1205 825 
Q 1463 481 1925 481 
Q 2391 481 2648 825 
Q 2906 1169 2906 1791 
z
M 3481 434 
Q 3481 -459 3084 -895 
Q 2688 -1331 1869 -1331 
Q 1566 -1331 1297 -1286 
Q 1028 -1241 775 -1147 
L 775 -588 
Q 1028 -725 1275 -790 
Q 1522 -856 1778 -856 
Q 2344 -856 2625 -561 
Q 2906 -266 2906 331 
L 2906 616 
Q 2728 306 2450 153 
Q 2172 0 1784 0 
Q 1141 0 747 490 
Q 353 981 353 1791 
Q 353 2603 747 3093 
Q 1141 3584 1784 3584 
Q 2172 3584 2450 3431 
Q 2728 3278 2906 2969 
L 2906 3500 
L 3481 3500 
L 3481 434 
z
" transform="scale(0.015625)"/>
      <path id="DejaVuSans-b2" d="M 838 2444 
L 2163 2444 
L 2163 2088 
L 294 2088 
L 294 2431 
Q 400 2528 597 2703 
Q 1672 3656 1672 3950 
Q 1672 4156 1509 4282 
Q 1347 4409 1081 4409 
Q 919 4409 728 4354 
Q 538 4300 313 4191 
L 313 4575 
Q 553 4663 761 4706 
Q 969 4750 1147 4750 
Q 1600 4750 1872 4544 
Q 2144 4338 2144 4000 
Q 2144 3566 1109 2678 
Q 934 2528 838 2444 
z
" transform="scale(0.015625)"/>
     </defs>
     <use xlink:href="#DejaVuSans-66"/>
     <use xlink:href="#DejaVuSans-28" x="35.205078"/>
     <use xlink:href="#DejaVuSans-78" x="74.21875"/>
     <use xlink:href="#DejaVuSans-29" x="133.398438"/>
     <use xlink:href="#DejaVuSans-20" x="172.412109"/>
     <use xlink:href="#DejaVuSans-3d" x="204.199219"/>
     <use xlink:href="#DejaVuSans-20" x="287.988281"/>
     <use xlink:href="#DejaVuSans-73" x="319.775391"/>
     <use xlink:href="#DejaVuSans-71" x="371.875"/>
     <use xlink:href="#DejaVuSans-72" x="435.351562"/>
     <use xlink:href="#DejaVuSans-74" x="476.464844"/>
     <use xlink:href="#DejaVuSans-28" x="515.673828"/>
     <use xlink:href="#DejaVuSans-78" x="554.6875"/>
     <use xlink:href="#DejaVuSans-29" x="613.867188"/>
     <use xlink:href="#DejaVuSans-3b" x="652.880859"/>
     <use xlink:href="#DejaVuSans-20" x="686.572266"/>
     <use xlink:href="#DejaVuSans-67" x="718.359375"/>
     <use xlink:href="#DejaVuSans-28" x="781.835938"/>
     <use xlink:href="#DejaVuSans-78" x="820.849609"/>
     <use xlink:href="#DejaVuSans-29" x="880.029297"/>
     <use xlink:href="#DejaVuSans-20" x="919.042969"/>
     <use xlink:href="#DejaVuSans-3d" x="950.830078"/>
     <use xlink:href="#DejaVuSans-20" x="1034.619141"/>
     <use xlink:href="#DejaVuSans-78" x="1066.40625"/>
     <use xlink:href="#DejaVuSans-b2" x="1125.585938"/>
    </g>
   </g>
   <g id="PathCollection_1">
    <defs>
     <path id="mead59da6ca" d="M 0 3 
C 0.795609 3 1.55874 2.683901 2.12132 2.12132 
C 2.683901 1.55874 3 0.795609 3 0 
C 3 -0.795609 2.683901 -1.55874 2.12132 -2.12132 
C 1.55874 -2.683901 0.795609 -3 0 -3 
C -0.795609 -3 -1.55874 -2.683901 -2.12132 -2.12132 
C -2.683901 -1.55874 -3 -0.795609 -3 0 
C -3 0.795609 -2.683901 1.55874 -2.12132 2.12132 
C -1.55874 2.683901 -0.795609 3 0 3 
z
" style="stroke: #7fffd4"/>
    </defs>
    <g clip-path="url(#pbd8a711f98)">
     <use xlink:href="#mead59da6ca" x="146.88" y="241.056" style="fill: #7fffd4; stroke: #7fffd4"/>
     <use xlink:href="#mead59da6ca" x="325.44" y="108" style="fill: #7fffd4; stroke: #7fffd4"/>
    </g>
   </g>
   <g id="legend_1">
    <g id="patch_7">
     <path d="M 331.32 80.872 
L 407.72 80.872 
Q 409.72 80.872 409.72 78.872 
L 409.72 48.472 
Q 409.72 46.472 407.72 46.472 
L 331.32 46.472 
Q 329.32 46.472 329.32 48.472 
L 329.32 78.872 
Q 329.32 80.872 331.32 80.872 
z
" style="fill: #ffffff; opacity: 0.8; stroke: #cccccc; stroke-linejoin: miter"/>
    </g>
    <g id="line2d_3">
     <path d="M 333.32 55.092312 
L 343.32 55.092312 
L 353.32 55.092312 
" style="fill: none; stroke: #00ced1; stroke-width: 1.5; stroke-linecap: square"/>
    </g>
    <g id="text_5">
     <!-- $f(x) = \sqrt{x}$ -->
     <g transform="translate(361.32 58.592312) scale(0.1 -0.1)">
      <defs>
       <path id="DejaVuSans-Oblique-66" d="M 3059 4863 
L 2969 4384 
L 2419 4384 
Q 2106 4384 1964 4261 
Q 1822 4138 1753 3809 
L 1691 3500 
L 2638 3500 
L 2553 3053 
L 1606 3053 
L 1013 0 
L 434 0 
L 1031 3053 
L 481 3053 
L 563 3500 
L 1113 3500 
L 1159 3744 
Q 1278 4363 1576 4613 
Q 1875 4863 2516 4863 
L 3059 4863 
z
" transform="scale(0.015625)"/>
       <path id="DejaVuSans-Oblique-78" d="M 3841 3500 
L 2234 1784 
L 3219 0 
L 2559 0 
L 1819 1388 
L 531 0 
L -166 0 
L 1556 1844 
L 641 3500 
L 1300 3500 
L 1972 2234 
L 3144 3500 
L 3841 3500 
z
" transform="scale(0.015625)"/>
       <path id="DejaVuSans-221a" d="M 3488 5191 
L 4078 5191 
L 4078 4891 
L 3719 4891 
L 1863 -128 
L 1656 -128 
L 659 2631 
L 269 2491 
L 191 2741 
L 1075 3047 
L 1875 831 
L 3488 5191 
z
" transform="scale(0.015625)"/>
      </defs>
      <use xlink:href="#DejaVuSans-Oblique-66" transform="translate(0 0.890625)"/>
      <use xlink:href="#DejaVuSans-28" transform="translate(35.205078 0.890625)"/>
      <use xlink:href="#DejaVuSans-Oblique-78" transform="translate(74.21875 0.890625)"/>
      <use xlink:href="#DejaVuSans-29" transform="translate(133.398438 0.890625)"/>
      <use xlink:href="#DejaVuSans-3d" transform="translate(191.894531 0.890625)"/>
      <use xlink:href="#DejaVuSans-221a" transform="translate(295.166016 0.890625)"/>
      <use xlink:href="#DejaVuSans-Oblique-78" transform="translate(371.386719 1.0625)"/>
      <path d="M 358.886719 75.5 
L 358.886719 81.75 
L 443.066406 81.75 
L 443.066406 75.5 
L 358.886719 75.5 
z
"/>
     </g>
    </g>
    <g id="line2d_4">
     <path d="M 333.32 71.272 
L 343.32 71.272 
L 353.32 71.272 
" style="fill: none; stroke: #dc143c; stroke-width: 1.5; stroke-linecap: square"/>
    </g>
    <g id="text_6">
     <!-- $g(x) = x^{2}$ -->
     <g transform="translate(361.32 74.772) scale(0.1 -0.1)">
      <defs>
       <path id="DejaVuSans-Oblique-67" d="M 3816 3500 
L 3219 434 
Q 3047 -456 2561 -893 
Q 2075 -1331 1253 -1331 
Q 950 -1331 690 -1286 
Q 431 -1241 206 -1147 
L 313 -588 
Q 525 -725 762 -790 
Q 1000 -856 1269 -856 
Q 1816 -856 2167 -557 
Q 2519 -259 2631 300 
L 2681 563 
Q 2441 288 2122 144 
Q 1803 0 1434 0 
Q 903 0 598 351 
Q 294 703 294 1319 
Q 294 1803 478 2267 
Q 663 2731 997 3091 
Q 1219 3328 1514 3456 
Q 1809 3584 2131 3584 
Q 2484 3584 2746 3420 
Q 3009 3256 3138 2956 
L 3238 3500 
L 3816 3500 
z
M 2950 2216 
Q 2950 2641 2750 2872 
Q 2550 3103 2181 3103 
Q 1953 3103 1747 3012 
Q 1541 2922 1394 2759 
Q 1156 2491 1023 2127 
Q 891 1763 891 1375 
Q 891 944 1092 712 
Q 1294 481 1672 481 
Q 2219 481 2584 976 
Q 2950 1472 2950 2216 
z
" transform="scale(0.015625)"/>
       <path id="DejaVuSans-32" d="M 1228 531 
L 3431 531 
L 3431 0 
L 469 0 
L 469 531 
Q 828 903 1448 1529 
Q 2069 2156 2228 2338 
Q 2531 2678 2651 2914 
Q 2772 3150 2772 3378 
Q 2772 3750 2511 3984 
Q 2250 4219 1831 4219 
Q 1534 4219 1204 4116 
Q 875 4013 500 3803 
L 500 4441 
Q 881 4594 1212 4672 
Q 1544 4750 1819 4750 
Q 2544 4750 2975 4387 
Q 3406 4025 3406 3419 
Q 3406 3131 3298 2873 
Q 3191 2616 2906 2266 
Q 2828 2175 2409 1742 
Q 1991 1309 1228 531 
z
" transform="scale(0.015625)"/>
      </defs>
      <use xlink:href="#DejaVuSans-Oblique-67" transform="translate(0 0.765625)"/>
      <use xlink:href="#DejaVuSans-28" transform="translate(63.476562 0.765625)"/>
      <use xlink:href="#DejaVuSans-Oblique-78" transform="translate(102.490234 0.765625)"/>
      <use xlink:href="#DejaVuSans-29" transform="translate(161.669922 0.765625)"/>
      <use xlink:href="#DejaVuSans-3d" transform="translate(220.166016 0.765625)"/>
      <use xlink:href="#DejaVuSans-Oblique-78" transform="translate(323.4375 0.765625)"/>
      <use xlink:href="#DejaVuSans-32" transform="translate(387.083333 39.046875) scale(0.7)"/>
     </g>
    </g>
   </g>
  </g>
 </g>
 <defs>
  <clipPath id="pbd8a711f98">
   <rect x="57.6" y="41.472" width="357.12" height="266.112"/>
  </clipPath>
 </defs>
</svg>
