<?xml version="1.0" encoding="utf-8" standalone="no"?>
<!DOCTYPE svg PUBLIC "-//W3C//DTD SVG 1.1//EN"
  "http://www.w3.org/Graphics/SVG/1.1/DTD/svg11.dtd">
<svg xmlns:xlink="http://www.w3.org/1999/xlink" width="460.8pt" height="345.6pt" viewBox="0 0 460.8 345.6" xmlns="http://www.w3.org/2000/svg" version="1.1">
 <metadata>
  <rdf:RDF xmlns:dc="http://purl.org/dc/elements/1.1/" xmlns:cc="http://creativecommons.org/ns#" xmlns:rdf="http://www.w3.org/1999/02/22-rdf-syntax-ns#">
   <cc:Work>
    <dc:type rdf:resource="http://purl.org/dc/dcmitype/StillImage"/>
    <dc:date>2024-08-31T15:17:49.095100</dc:date>
    <dc:format>image/svg+xml</dc:format>
    <dc:creator>
     <cc:Agent>
      <dc:title>Matplotlib v3.8.3, https://matplotlib.org/</dc:title>
     </cc:Agent>
    </dc:creator>
   </cc:Work>
  </rdf:RDF>
 </metadata>
 <defs>
  <style type="text/css">*{stroke-linejoin: round; stroke-linecap: butt}</style>
 </defs>
 <g id="figure_1">
  <g id="patch_1">
   <path d="M 0 345.6 
L 460.8 345.6 
L 460.8 0 
L 0 0 
L 0 345.6 
z
" style="fill: none"/>
  </g>
  <g id="axes_1">
   <g id="patch_2">
    <path d="M 57.6 307.584 
L 414.72 307.584 
L 414.72 41.472 
L 57.6 41.472 
L 57.6 307.584 
z
" style="fill: none"/>
   </g>
   <g id="LineCollection_1">
    <path d="M 57.6 254.3616 
L 414.72 254.3616 
" clip-path="url(#p3f1c7ffa12)" style="fill: none; stroke: #d3d3d3; stroke-width: 1.5"/>
   </g>
   <g id="LineCollection_2">
    <path clip-path="url(#p3f1c7ffa12)" style="fill: none; stroke: #d3d3d3; stroke-width: 1.5"/>
   </g>
   <g id="matplotlib.axis_1">
    <g id="xtick_1">
     <g id="line2d_1">
      <defs>
       <path id="m7f808b12b7" d="M 0 0 
L 0 3.5 
" style="stroke: #d3d3d3; stroke-width: 0.8"/>
      </defs>
      <g>
       <use xlink:href="#m7f808b12b7" x="57.6" y="307.584" style="fill: #d3d3d3; stroke: #d3d3d3; stroke-width: 0.8"/>
      </g>
     </g>
     <g id="text_1">
      <!-- 8 -->
      <g style="fill: #d3d3d3" transform="translate(54.41875 322.182437) scale(0.1 -0.1)">
       <defs>
        <path id="DejaVuSans-38" d="M 2034 2216 
Q 1584 2216 1326 1975 
Q 1069 1734 1069 1313 
Q 1069 891 1326 650 
Q 1584 409 2034 409 
Q 2484 409 2743 651 
Q 3003 894 3003 1313 
Q 3003 1734 2745 1975 
Q 2488 2216 2034 2216 
z
M 1403 2484 
Q 997 2584 770 2862 
Q 544 3141 544 3541 
Q 544 4100 942 4425 
Q 1341 4750 2034 4750 
Q 2731 4750 3128 4425 
Q 3525 4100 3525 3541 
Q 3525 3141 3298 2862 
Q 3072 2584 2669 2484 
Q 3125 2378 3379 2068 
Q 3634 1759 3634 1313 
Q 3634 634 3220 271 
Q 2806 -91 2034 -91 
Q 1263 -91 848 271 
Q 434 634 434 1313 
Q 434 1759 690 2068 
Q 947 2378 1403 2484 
z
M 1172 3481 
Q 1172 3119 1398 2916 
Q 1625 2713 2034 2713 
Q 2441 2713 2670 2916 
Q 2900 3119 2900 3481 
Q 2900 3844 2670 4047 
Q 2441 4250 2034 4250 
Q 1625 4250 1398 4047 
Q 1172 3844 1172 3481 
z
" transform="scale(0.015625)"/>
       </defs>
       <use xlink:href="#DejaVuSans-38"/>
      </g>
     </g>
    </g>
    <g id="xtick_2">
     <g id="line2d_2">
      <g>
       <use xlink:href="#m7f808b12b7" x="117.12" y="307.584" style="fill: #d3d3d3; stroke: #d3d3d3; stroke-width: 0.8"/>
      </g>
     </g>
     <g id="text_2">
      <!-- 9 -->
      <g style="fill: #d3d3d3" transform="translate(113.93875 322.182437) scale(0.1 -0.1)">
       <defs>
        <path id="DejaVuSans-39" d="M 703 97 
L 703 672 
Q 941 559 1184 500 
Q 1428 441 1663 441 
Q 2288 441 2617 861 
Q 2947 1281 2994 2138 
Q 2813 1869 2534 1725 
Q 2256 1581 1919 1581 
Q 1219 1581 811 2004 
Q 403 2428 403 3163 
Q 403 3881 828 4315 
Q 1253 4750 1959 4750 
Q 2769 4750 3195 4129 
Q 3622 3509 3622 2328 
Q 3622 1225 3098 567 
Q 2575 -91 1691 -91 
Q 1453 -91 1209 -44 
Q 966 3 703 97 
z
M 1959 2075 
Q 2384 2075 2632 2365 
Q 2881 2656 2881 3163 
Q 2881 3666 2632 3958 
Q 2384 4250 1959 4250 
Q 1534 4250 1286 3958 
Q 1038 3666 1038 3163 
Q 1038 2656 1286 2365 
Q 1534 2075 1959 2075 
z
" transform="scale(0.015625)"/>
       </defs>
       <use xlink:href="#DejaVuSans-39"/>
      </g>
     </g>
    </g>
    <g id="xtick_3">
     <g id="line2d_3">
      <g>
       <use xlink:href="#m7f808b12b7" x="176.64" y="307.584" style="fill: #d3d3d3; stroke: #d3d3d3; stroke-width: 0.8"/>
      </g>
     </g>
     <g id="text_3">
      <!-- 10 -->
      <g style="fill: #d3d3d3" transform="translate(170.2775 322.182437) scale(0.1 -0.1)">
       <defs>
        <path id="DejaVuSans-31" d="M 794 531 
L 1825 531 
L 1825 4091 
L 703 3866 
L 703 4441 
L 1819 4666 
L 2450 4666 
L 2450 531 
L 3481 531 
L 3481 0 
L 794 0 
L 794 531 
z
" transform="scale(0.015625)"/>
        <path id="DejaVuSans-30" d="M 2034 4250 
Q 1547 4250 1301 3770 
Q 1056 3291 1056 2328 
Q 1056 1369 1301 889 
Q 1547 409 2034 409 
Q 2525 409 2770 889 
Q 3016 1369 3016 2328 
Q 3016 3291 2770 3770 
Q 2525 4250 2034 4250 
z
M 2034 4750 
Q 2819 4750 3233 4129 
Q 3647 3509 3647 2328 
Q 3647 1150 3233 529 
Q 2819 -91 2034 -91 
Q 1250 -91 836 529 
Q 422 1150 422 2328 
Q 422 3509 836 4129 
Q 1250 4750 2034 4750 
z
" transform="scale(0.015625)"/>
       </defs>
       <use xlink:href="#DejaVuSans-31"/>
       <use xlink:href="#DejaVuSans-30" x="63.623047"/>
      </g>
     </g>
    </g>
    <g id="xtick_4">
     <g id="line2d_4">
      <g>
       <use xlink:href="#m7f808b12b7" x="236.16" y="307.584" style="fill: #d3d3d3; stroke: #d3d3d3; stroke-width: 0.8"/>
      </g>
     </g>
     <g id="text_4">
      <!-- 11 -->
      <g style="fill: #d3d3d3" transform="translate(229.7975 322.182437) scale(0.1 -0.1)">
       <use xlink:href="#DejaVuSans-31"/>
       <use xlink:href="#DejaVuSans-31" x="63.623047"/>
      </g>
     </g>
    </g>
    <g id="xtick_5">
     <g id="line2d_5">
      <g>
       <use xlink:href="#m7f808b12b7" x="295.68" y="307.584" style="fill: #d3d3d3; stroke: #d3d3d3; stroke-width: 0.8"/>
      </g>
     </g>
     <g id="text_5">
      <!-- 12 -->
      <g style="fill: #d3d3d3" transform="translate(289.3175 322.182437) scale(0.1 -0.1)">
       <defs>
        <path id="DejaVuSans-32" d="M 1228 531 
L 3431 531 
L 3431 0 
L 469 0 
L 469 531 
Q 828 903 1448 1529 
Q 2069 2156 2228 2338 
Q 2531 2678 2651 2914 
Q 2772 3150 2772 3378 
Q 2772 3750 2511 3984 
Q 2250 4219 1831 4219 
Q 1534 4219 1204 4116 
Q 875 4013 500 3803 
L 500 4441 
Q 881 4594 1212 4672 
Q 1544 4750 1819 4750 
Q 2544 4750 2975 4387 
Q 3406 4025 3406 3419 
Q 3406 3131 3298 2873 
Q 3191 2616 2906 2266 
Q 2828 2175 2409 1742 
Q 1991 1309 1228 531 
z
" transform="scale(0.015625)"/>
       </defs>
       <use xlink:href="#DejaVuSans-31"/>
       <use xlink:href="#DejaVuSans-32" x="63.623047"/>
      </g>
     </g>
    </g>
    <g id="xtick_6">
     <g id="line2d_6">
      <g>
       <use xlink:href="#m7f808b12b7" x="355.2" y="307.584" style="fill: #d3d3d3; stroke: #d3d3d3; stroke-width: 0.8"/>
      </g>
     </g>
     <g id="text_6">
      <!-- 13 -->
      <g style="fill: #d3d3d3" transform="translate(348.8375 322.182437) scale(0.1 -0.1)">
       <defs>
        <path id="DejaVuSans-33" d="M 2597 2516 
Q 3050 2419 3304 2112 
Q 3559 1806 3559 1356 
Q 3559 666 3084 287 
Q 2609 -91 1734 -91 
Q 1441 -91 1130 -33 
Q 819 25 488 141 
L 488 750 
Q 750 597 1062 519 
Q 1375 441 1716 441 
Q 2309 441 2620 675 
Q 2931 909 2931 1356 
Q 2931 1769 2642 2001 
Q 2353 2234 1838 2234 
L 1294 2234 
L 1294 2753 
L 1863 2753 
Q 2328 2753 2575 2939 
Q 2822 3125 2822 3475 
Q 2822 3834 2567 4026 
Q 2313 4219 1838 4219 
Q 1578 4219 1281 4162 
Q 984 4106 628 3988 
L 628 4550 
Q 988 4650 1302 4700 
Q 1616 4750 1894 4750 
Q 2613 4750 3031 4423 
Q 3450 4097 3450 3541 
Q 3450 3153 3228 2886 
Q 3006 2619 2597 2516 
z
" transform="scale(0.015625)"/>
       </defs>
       <use xlink:href="#DejaVuSans-31"/>
       <use xlink:href="#DejaVuSans-33" x="63.623047"/>
      </g>
     </g>
    </g>
    <g id="xtick_7">
     <g id="line2d_7">
      <g>
       <use xlink:href="#m7f808b12b7" x="414.72" y="307.584" style="fill: #d3d3d3; stroke: #d3d3d3; stroke-width: 0.8"/>
      </g>
     </g>
     <g id="text_7">
      <!-- 14 -->
      <g style="fill: #d3d3d3" transform="translate(408.3575 322.182437) scale(0.1 -0.1)">
       <defs>
        <path id="DejaVuSans-34" d="M 2419 4116 
L 825 1625 
L 2419 1625 
L 2419 4116 
z
M 2253 4666 
L 3047 4666 
L 3047 1625 
L 3713 1625 
L 3713 1100 
L 3047 1100 
L 3047 0 
L 2419 0 
L 2419 1100 
L 313 1100 
L 313 1709 
L 2253 4666 
z
" transform="scale(0.015625)"/>
       </defs>
       <use xlink:href="#DejaVuSans-31"/>
       <use xlink:href="#DejaVuSans-34" x="63.623047"/>
      </g>
     </g>
    </g>
    <g id="text_8">
     <!-- X-as -->
     <g style="fill: #d3d3d3" transform="translate(225.512344 335.860562) scale(0.1 -0.1)">
      <defs>
       <path id="DejaVuSans-58" d="M 403 4666 
L 1081 4666 
L 2241 2931 
L 3406 4666 
L 4084 4666 
L 2584 2425 
L 4184 0 
L 3506 0 
L 2194 1984 
L 872 0 
L 191 0 
L 1856 2491 
L 403 4666 
z
" transform="scale(0.015625)"/>
       <path id="DejaVuSans-2d" d="M 313 2009 
L 1997 2009 
L 1997 1497 
L 313 1497 
L 313 2009 
z
" transform="scale(0.015625)"/>
       <path id="DejaVuSans-61" d="M 2194 1759 
Q 1497 1759 1228 1600 
Q 959 1441 959 1056 
Q 959 750 1161 570 
Q 1363 391 1709 391 
Q 2188 391 2477 730 
Q 2766 1069 2766 1631 
L 2766 1759 
L 2194 1759 
z
M 3341 1997 
L 3341 0 
L 2766 0 
L 2766 531 
Q 2569 213 2275 61 
Q 1981 -91 1556 -91 
Q 1019 -91 701 211 
Q 384 513 384 1019 
Q 384 1609 779 1909 
Q 1175 2209 1959 2209 
L 2766 2209 
L 2766 2266 
Q 2766 2663 2505 2880 
Q 2244 3097 1772 3097 
Q 1472 3097 1187 3025 
Q 903 2953 641 2809 
L 641 3341 
Q 956 3463 1253 3523 
Q 1550 3584 1831 3584 
Q 2591 3584 2966 3190 
Q 3341 2797 3341 1997 
z
" transform="scale(0.015625)"/>
       <path id="DejaVuSans-73" d="M 2834 3397 
L 2834 2853 
Q 2591 2978 2328 3040 
Q 2066 3103 1784 3103 
Q 1356 3103 1142 2972 
Q 928 2841 928 2578 
Q 928 2378 1081 2264 
Q 1234 2150 1697 2047 
L 1894 2003 
Q 2506 1872 2764 1633 
Q 3022 1394 3022 966 
Q 3022 478 2636 193 
Q 2250 -91 1575 -91 
Q 1294 -91 989 -36 
Q 684 19 347 128 
L 347 722 
Q 666 556 975 473 
Q 1284 391 1588 391 
Q 1994 391 2212 530 
Q 2431 669 2431 922 
Q 2431 1156 2273 1281 
Q 2116 1406 1581 1522 
L 1381 1569 
Q 847 1681 609 1914 
Q 372 2147 372 2553 
Q 372 3047 722 3315 
Q 1072 3584 1716 3584 
Q 2034 3584 2315 3537 
Q 2597 3491 2834 3397 
z
" transform="scale(0.015625)"/>
      </defs>
      <use xlink:href="#DejaVuSans-58"/>
      <use xlink:href="#DejaVuSans-2d" x="63.505859"/>
      <use xlink:href="#DejaVuSans-61" x="99.589844"/>
      <use xlink:href="#DejaVuSans-73" x="160.869141"/>
     </g>
    </g>
   </g>
   <g id="matplotlib.axis_2">
    <g id="ytick_1">
     <g id="line2d_8">
      <defs>
       <path id="m25418f009a" d="M 0 0 
L -3.5 0 
" style="stroke: #d3d3d3; stroke-width: 0.8"/>
      </defs>
      <g>
       <use xlink:href="#m25418f009a" x="57.6" y="307.584" style="fill: #d3d3d3; stroke: #d3d3d3; stroke-width: 0.8"/>
      </g>
     </g>
     <g id="text_9">
      <!-- −2 -->
      <g style="fill: #d3d3d3" transform="translate(35.857813 311.383219) scale(0.1 -0.1)">
       <defs>
        <path id="DejaVuSans-2212" d="M 678 2272 
L 4684 2272 
L 4684 1741 
L 678 1741 
L 678 2272 
z
" transform="scale(0.015625)"/>
       </defs>
       <use xlink:href="#DejaVuSans-2212"/>
       <use xlink:href="#DejaVuSans-32" x="83.789062"/>
      </g>
     </g>
    </g>
    <g id="ytick_2">
     <g id="line2d_9">
      <g>
       <use xlink:href="#m25418f009a" x="57.6" y="254.3616" style="fill: #d3d3d3; stroke: #d3d3d3; stroke-width: 0.8"/>
      </g>
     </g>
     <g id="text_10">
      <!-- 0 -->
      <g style="fill: #d3d3d3" transform="translate(44.2375 258.160819) scale(0.1 -0.1)">
       <use xlink:href="#DejaVuSans-30"/>
      </g>
     </g>
    </g>
    <g id="ytick_3">
     <g id="line2d_10">
      <g>
       <use xlink:href="#m25418f009a" x="57.6" y="201.1392" style="fill: #d3d3d3; stroke: #d3d3d3; stroke-width: 0.8"/>
      </g>
     </g>
     <g id="text_11">
      <!-- 2 -->
      <g style="fill: #d3d3d3" transform="translate(44.2375 204.938419) scale(0.1 -0.1)">
       <use xlink:href="#DejaVuSans-32"/>
      </g>
     </g>
    </g>
    <g id="ytick_4">
     <g id="line2d_11">
      <g>
       <use xlink:href="#m25418f009a" x="57.6" y="147.9168" style="fill: #d3d3d3; stroke: #d3d3d3; stroke-width: 0.8"/>
      </g>
     </g>
     <g id="text_12">
      <!-- 4 -->
      <g style="fill: #d3d3d3" transform="translate(44.2375 151.716019) scale(0.1 -0.1)">
       <use xlink:href="#DejaVuSans-34"/>
      </g>
     </g>
    </g>
    <g id="ytick_5">
     <g id="line2d_12">
      <g>
       <use xlink:href="#m25418f009a" x="57.6" y="94.6944" style="fill: #d3d3d3; stroke: #d3d3d3; stroke-width: 0.8"/>
      </g>
     </g>
     <g id="text_13">
      <!-- 6 -->
      <g style="fill: #d3d3d3" transform="translate(44.2375 98.493619) scale(0.1 -0.1)">
       <defs>
        <path id="DejaVuSans-36" d="M 2113 2584 
Q 1688 2584 1439 2293 
Q 1191 2003 1191 1497 
Q 1191 994 1439 701 
Q 1688 409 2113 409 
Q 2538 409 2786 701 
Q 3034 994 3034 1497 
Q 3034 2003 2786 2293 
Q 2538 2584 2113 2584 
z
M 3366 4563 
L 3366 3988 
Q 3128 4100 2886 4159 
Q 2644 4219 2406 4219 
Q 1781 4219 1451 3797 
Q 1122 3375 1075 2522 
Q 1259 2794 1537 2939 
Q 1816 3084 2150 3084 
Q 2853 3084 3261 2657 
Q 3669 2231 3669 1497 
Q 3669 778 3244 343 
Q 2819 -91 2113 -91 
Q 1303 -91 875 529 
Q 447 1150 447 2328 
Q 447 3434 972 4092 
Q 1497 4750 2381 4750 
Q 2619 4750 2861 4703 
Q 3103 4656 3366 4563 
z
" transform="scale(0.015625)"/>
       </defs>
       <use xlink:href="#DejaVuSans-36"/>
      </g>
     </g>
    </g>
    <g id="ytick_6">
     <g id="line2d_13">
      <g>
       <use xlink:href="#m25418f009a" x="57.6" y="41.472" style="fill: #d3d3d3; stroke: #d3d3d3; stroke-width: 0.8"/>
      </g>
     </g>
     <g id="text_14">
      <!-- 8 -->
      <g style="fill: #d3d3d3" transform="translate(44.2375 45.271219) scale(0.1 -0.1)">
       <use xlink:href="#DejaVuSans-38"/>
      </g>
     </g>
    </g>
    <g id="text_15">
     <!-- Y-as -->
     <g style="fill: #d3d3d3" transform="translate(29.778125 184.460813) rotate(-90) scale(0.1 -0.1)">
      <defs>
       <path id="DejaVuSans-59" d="M -13 4666 
L 666 4666 
L 1959 2747 
L 3244 4666 
L 3922 4666 
L 2272 2222 
L 2272 0 
L 1638 0 
L 1638 2222 
L -13 4666 
z
" transform="scale(0.015625)"/>
      </defs>
      <use xlink:href="#DejaVuSans-59"/>
      <use xlink:href="#DejaVuSans-2d" x="49.208984"/>
      <use xlink:href="#DejaVuSans-61" x="85.292969"/>
      <use xlink:href="#DejaVuSans-73" x="146.572266"/>
     </g>
    </g>
   </g>
   <g id="line2d_14">
    <path d="M 57.6 178.39993 
L 70.0992 183.803202 
L 79.0272 187.426407 
L 86.7648 190.334975 
L 93.9072 192.78408 
L 100.4544 194.799226 
L 107.0016 196.569337 
L 112.9536 197.94783 
L 118.9056 199.092319 
L 124.8576 199.99137 
L 130.2144 200.58319 
L 135.5712 200.964105 
L 140.928 201.131031 
L 146.2848 201.082619 
L 151.6416 200.81926 
L 156.9984 200.343085 
L 162.3552 199.657948 
L 168.3072 198.658409 
L 174.2592 197.417767 
L 180.2112 195.948418 
L 186.7584 194.085565 
L 193.3056 191.986303 
L 200.448 189.456464 
L 208.1856 186.474727 
L 217.1136 182.787117 
L 228.4224 177.860907 
L 256.992 165.292534 
L 265.92 161.66668 
L 273.6576 158.755141 
L 280.8 156.302779 
L 287.3472 154.284258 
L 293.8944 152.510439 
L 299.8464 151.128325 
L 305.7984 149.980012 
L 311.7504 149.076975 
L 317.1072 148.481462 
L 322.464 148.096783 
L 327.8208 147.926052 
L 333.1776 147.970652 
L 338.5344 148.230221 
L 343.8912 148.702659 
L 349.248 149.384141 
L 355.2 150.379752 
L 361.152 151.616645 
L 367.104 153.082461 
L 373.6512 154.941719 
L 380.1984 157.037732 
L 387.3408 159.564469 
L 395.0784 162.543417 
L 404.0064 166.228604 
L 414.1248 170.625832 
L 414.1248 170.625832 
" clip-path="url(#p3f1c7ffa12)" style="fill: none; stroke: #00ced1; stroke-width: 1.5; stroke-linecap: square"/>
   </g>
   <g id="patch_3">
    <path d="M 57.6 307.584 
L 57.6 41.472 
" style="fill: none; stroke: #d3d3d3; stroke-width: 0.8; stroke-linejoin: miter; stroke-linecap: square"/>
   </g>
   <g id="patch_4">
    <path d="M 414.72 307.584 
L 414.72 41.472 
" style="fill: none; stroke: #d3d3d3; stroke-width: 0.8; stroke-linejoin: miter; stroke-linecap: square"/>
   </g>
   <g id="patch_5">
    <path d="M 57.6 307.584 
L 414.72 307.584 
" style="fill: none; stroke: #d3d3d3; stroke-width: 0.8; stroke-linejoin: miter; stroke-linecap: square"/>
   </g>
   <g id="patch_6">
    <path d="M 57.6 41.472 
L 414.72 41.472 
" style="fill: none; stroke: #d3d3d3; stroke-width: 0.8; stroke-linejoin: miter; stroke-linecap: square"/>
   </g>
   <g id="PolyCollection_1">
    <defs>
     <path id="m45fe69d9fc" d="M 117.7152 -91.2384 
L 117.7152 -146.717275 
L 118.3104 -146.611255 
L 118.9056 -146.507681 
L 119.5008 -146.406563 
L 120.096 -146.307912 
L 120.6912 -146.211737 
L 121.2864 -146.118049 
L 121.8816 -146.026855 
L 122.4768 -145.938166 
L 123.072 -145.851991 
L 123.6672 -145.768337 
L 124.2624 -145.687214 
L 124.8576 -145.60863 
L 125.4528 -145.532591 
L 126.048 -145.459107 
L 126.6432 -145.388184 
L 127.2384 -145.319829 
L 127.8336 -145.254049 
L 128.4288 -145.190851 
L 129.024 -145.130241 
L 129.6192 -145.072226 
L 130.2144 -145.01681 
L 130.8096 -144.964 
L 131.4048 -144.913801 
L 132 -144.866217 
L 132.5952 -144.821254 
L 133.1904 -144.778916 
L 133.7856 -144.739207 
L 134.3808 -144.702132 
L 134.976 -144.667693 
L 135.5712 -144.635895 
L 136.1664 -144.606741 
L 136.7616 -144.580233 
L 137.3568 -144.556374 
L 137.952 -144.535167 
L 138.5472 -144.516613 
L 139.1424 -144.500715 
L 139.7376 -144.487474 
L 140.3328 -144.476892 
L 140.928 -144.468969 
L 141.5232 -144.463706 
L 142.1184 -144.461104 
L 142.7136 -144.461163 
L 143.3088 -144.463883 
L 143.904 -144.469264 
L 144.4992 -144.477305 
L 145.0944 -144.488006 
L 145.6896 -144.501365 
L 146.2848 -144.517381 
L 146.88 -144.536052 
L 147.4752 -144.557377 
L 148.0704 -144.581354 
L 148.6656 -144.607979 
L 149.2608 -144.637251 
L 149.856 -144.669167 
L 150.4512 -144.703722 
L 151.0464 -144.740915 
L 151.6416 -144.78074 
L 152.2368 -144.823195 
L 152.832 -144.868275 
L 153.4272 -144.915974 
L 154.0224 -144.96629 
L 154.6176 -145.019216 
L 155.2128 -145.074747 
L 155.808 -145.132878 
L 156.4032 -145.193603 
L 156.9984 -145.256915 
L 157.5936 -145.32281 
L 158.1888 -145.391279 
L 158.784 -145.462316 
L 159.3792 -145.535914 
L 159.9744 -145.612065 
L 160.5696 -145.690763 
L 161.1648 -145.771999 
L 161.76 -145.855764 
L 162.3552 -145.942052 
L 162.9504 -146.030852 
L 163.5456 -146.122156 
L 164.1408 -146.215955 
L 164.736 -146.31224 
L 165.3312 -146.411001 
L 165.9264 -146.512228 
L 166.5216 -146.615911 
L 167.1168 -146.72204 
L 167.712 -146.830603 
L 168.3072 -146.941591 
L 168.9024 -147.054991 
L 169.4976 -147.170793 
L 170.0928 -147.288986 
L 170.688 -147.409556 
L 171.2832 -147.532493 
L 171.8784 -147.657784 
L 172.4736 -147.785416 
L 173.0688 -147.915377 
L 173.664 -148.047654 
L 174.2592 -148.182233 
L 174.8544 -148.3191 
L 175.4496 -148.458244 
L 176.0448 -148.599648 
L 176.64 -148.7433 
L 177.2352 -148.889184 
L 177.8304 -149.037287 
L 178.4256 -149.187593 
L 179.0208 -149.340088 
L 179.616 -149.494756 
L 180.2112 -149.651582 
L 180.8064 -149.810549 
L 181.4016 -149.971643 
L 181.9968 -150.134847 
L 182.592 -150.300144 
L 183.1872 -150.467519 
L 183.7824 -150.636954 
L 184.3776 -150.808432 
L 184.9728 -150.981937 
L 185.568 -151.157451 
L 186.1632 -151.334956 
L 186.7584 -151.514435 
L 187.3536 -151.69587 
L 187.9488 -151.879242 
L 188.544 -152.064534 
L 189.1392 -152.251726 
L 189.7344 -152.440801 
L 190.3296 -152.631738 
L 190.9248 -152.824519 
L 191.52 -153.019126 
L 192.1152 -153.215537 
L 192.7104 -153.413734 
L 193.3056 -153.613697 
L 193.9008 -153.815406 
L 194.496 -154.01884 
L 195.0912 -154.22398 
L 195.6864 -154.430804 
L 196.2816 -154.639293 
L 196.8768 -154.849424 
L 197.472 -155.061179 
L 198.0672 -155.274534 
L 198.6624 -155.489468 
L 199.2576 -155.705962 
L 199.8528 -155.923991 
L 200.448 -156.143536 
L 201.0432 -156.364573 
L 201.6384 -156.587081 
L 202.2336 -156.811038 
L 202.8288 -157.03642 
L 203.424 -157.263206 
L 204.0192 -157.491373 
L 204.6144 -157.720898 
L 205.2096 -157.951759 
L 205.8048 -158.183931 
L 206.4 -158.417392 
L 206.9952 -158.652118 
L 207.5904 -158.888087 
L 208.1856 -159.125273 
L 208.7808 -159.363655 
L 209.376 -159.603207 
L 209.9712 -159.843906 
L 210.5664 -160.085728 
L 211.1616 -160.328649 
L 211.7568 -160.572644 
L 212.352 -160.817688 
L 212.9472 -161.063759 
L 213.5424 -161.31083 
L 214.1376 -161.558877 
L 214.7328 -161.807875 
L 215.328 -162.0578 
L 215.9232 -162.308626 
L 216.5184 -162.560329 
L 217.1136 -162.812883 
L 217.7088 -163.066262 
L 218.304 -163.320443 
L 218.8992 -163.575398 
L 219.4944 -163.831103 
L 220.0896 -164.087532 
L 220.6848 -164.34466 
L 221.28 -164.60246 
L 221.8752 -164.860907 
L 222.4704 -165.119976 
L 223.0656 -165.379639 
L 223.6608 -165.639872 
L 224.256 -165.900648 
L 224.8512 -166.161941 
L 225.4464 -166.423725 
L 226.0416 -166.685974 
L 226.6368 -166.948662 
L 227.232 -167.211762 
L 227.8272 -167.475247 
L 228.4224 -167.739093 
L 229.0176 -168.003272 
L 229.6128 -168.267758 
L 230.208 -168.532524 
L 230.8032 -168.797544 
L 231.3984 -169.062791 
L 231.9936 -169.32824 
L 232.5888 -169.593863 
L 233.184 -169.859633 
L 233.7792 -170.125525 
L 234.3744 -170.391512 
L 234.9696 -170.657566 
L 235.5648 -170.923662 
L 236.16 -171.189773 
L 236.7552 -171.455872 
L 237.3504 -171.721933 
L 237.9456 -171.987929 
L 238.5408 -172.253833 
L 239.136 -172.519619 
L 239.7312 -172.78526 
L 240.3264 -173.05073 
L 240.9216 -173.316002 
L 241.5168 -173.581049 
L 242.112 -173.845846 
L 242.7072 -174.110365 
L 243.3024 -174.37458 
L 243.8976 -174.638466 
L 244.4928 -174.901994 
L 245.088 -175.16514 
L 245.6832 -175.427876 
L 246.2784 -175.690177 
L 246.8736 -175.952015 
L 247.4688 -176.213366 
L 248.064 -176.474203 
L 248.6592 -176.7345 
L 249.2544 -176.99423 
L 249.8496 -177.253368 
L 250.4448 -177.511888 
L 251.04 -177.769764 
L 251.6352 -178.02697 
L 252.2304 -178.28348 
L 252.8256 -178.53927 
L 253.4208 -178.794313 
L 254.016 -179.048583 
L 254.6112 -179.302056 
L 255.2064 -179.554706 
L 255.8016 -179.806508 
L 256.3968 -180.057436 
L 256.992 -180.307466 
L 257.5872 -180.556572 
L 258.1824 -180.804729 
L 258.7776 -181.051914 
L 259.3728 -181.2981 
L 259.968 -181.543264 
L 260.5632 -181.787381 
L 261.1584 -182.030426 
L 261.7536 -182.272375 
L 262.3488 -182.513205 
L 262.944 -182.75289 
L 263.5392 -182.991407 
L 264.1344 -183.228732 
L 264.7296 -183.464842 
L 265.3248 -183.699712 
L 265.92 -183.93332 
L 266.5152 -184.165641 
L 267.1104 -184.396653 
L 267.7056 -184.626333 
L 268.3008 -184.854657 
L 268.896 -185.081603 
L 269.4912 -185.307148 
L 270.0864 -185.531269 
L 270.6816 -185.753945 
L 271.2768 -185.975152 
L 271.872 -186.194869 
L 272.4672 -186.413074 
L 273.0624 -186.629744 
L 273.6576 -186.844859 
L 274.2528 -187.058397 
L 274.848 -187.270336 
L 275.4432 -187.480655 
L 276.0384 -187.689334 
L 276.6336 -187.89635 
L 277.2288 -188.101684 
L 277.824 -188.305316 
L 278.4192 -188.507224 
L 279.0144 -188.707388 
L 279.6096 -188.905789 
L 280.2048 -189.102407 
L 280.8 -189.297221 
L 281.3952 -189.490213 
L 281.9904 -189.681363 
L 282.5856 -189.870653 
L 283.1808 -190.058062 
L 283.776 -190.243573 
L 284.3712 -190.427166 
L 284.9664 -190.608825 
L 285.5616 -190.788529 
L 286.1568 -190.966262 
L 286.752 -191.142006 
L 287.3472 -191.315742 
L 287.9424 -191.487454 
L 288.5376 -191.657125 
L 289.1328 -191.824737 
L 289.728 -191.990274 
L 290.3232 -192.153719 
L 290.9184 -192.315056 
L 291.5136 -192.474268 
L 292.1088 -192.631341 
L 292.704 -192.786257 
L 293.2992 -192.939002 
L 293.8944 -193.089561 
L 294.4896 -193.237917 
L 295.0848 -193.384058 
L 295.68 -193.527966 
L 296.2752 -193.66963 
L 296.8704 -193.809033 
L 297.4656 -193.946163 
L 298.0608 -194.081006 
L 298.656 -194.213547 
L 299.2512 -194.343775 
L 299.8464 -194.471675 
L 300.4416 -194.597236 
L 301.0368 -194.720443 
L 301.632 -194.841286 
L 302.2272 -194.959753 
L 302.8224 -195.07583 
L 303.4176 -195.189507 
L 304.0128 -195.300772 
L 304.608 -195.409615 
L 305.2032 -195.516023 
L 305.7984 -195.619988 
L 306.3936 -195.721497 
L 306.9888 -195.820542 
L 307.584 -195.917112 
L 308.1792 -196.011197 
L 308.7744 -196.102788 
L 309.3696 -196.191877 
L 309.9648 -196.278453 
L 310.56 -196.362509 
L 311.1552 -196.444035 
L 311.7504 -196.523025 
L 312.3456 -196.599469 
L 312.9408 -196.673361 
L 313.536 -196.744693 
L 314.1312 -196.813457 
L 314.7264 -196.879647 
L 315.3216 -196.943257 
L 315.9168 -197.004279 
L 316.512 -197.062708 
L 317.1072 -197.118538 
L 317.7024 -197.171764 
L 318.2976 -197.222379 
L 318.8928 -197.27038 
L 319.488 -197.315761 
L 320.0832 -197.358517 
L 320.6784 -197.398645 
L 321.2736 -197.43614 
L 321.8688 -197.470998 
L 322.464 -197.503217 
L 323.0592 -197.532793 
L 323.6544 -197.559723 
L 324.2496 -197.584003 
L 324.8448 -197.605633 
L 325.44 -197.62461 
L 326.0352 -197.640931 
L 326.6304 -197.654595 
L 327.2256 -197.665601 
L 327.8208 -197.673948 
L 328.416 -197.679634 
L 329.0112 -197.68266 
L 329.6064 -197.683025 
L 330.2016 -197.680728 
L 330.7968 -197.675771 
L 331.392 -197.668154 
L 331.9872 -197.657876 
L 332.5824 -197.644941 
L 333.1776 -197.629348 
L 333.7728 -197.611099 
L 334.368 -197.590197 
L 334.9632 -197.566642 
L 335.5584 -197.540438 
L 336.1536 -197.511588 
L 336.7488 -197.480093 
L 337.344 -197.445958 
L 337.9392 -197.409185 
L 338.5344 -197.369779 
L 339.1296 -197.327742 
L 339.7248 -197.283081 
L 340.32 -197.235798 
L 340.9152 -197.185899 
L 341.5104 -197.133388 
L 342.1056 -197.078271 
L 342.7008 -197.020554 
L 343.296 -196.960242 
L 343.8912 -196.897341 
L 344.4864 -196.831858 
L 345.0816 -196.763798 
L 345.6768 -196.69317 
L 346.272 -196.619979 
L 346.8672 -196.544234 
L 347.4624 -196.465941 
L 348.0576 -196.385109 
L 348.6528 -196.301746 
L 349.248 -196.215859 
L 349.8432 -196.127459 
L 350.4384 -196.036553 
L 351.0336 -195.94315 
L 351.6288 -195.84726 
L 352.224 -195.748893 
L 352.8192 -195.648058 
L 353.4144 -195.544766 
L 354.0096 -195.439026 
L 354.6048 -195.33085 
L 355.2 -195.220248 
L 355.2 -91.2384 
L 355.2 -91.2384 
L 354.6048 -91.2384 
L 354.0096 -91.2384 
L 353.4144 -91.2384 
L 352.8192 -91.2384 
L 352.224 -91.2384 
L 351.6288 -91.2384 
L 351.0336 -91.2384 
L 350.4384 -91.2384 
L 349.8432 -91.2384 
L 349.248 -91.2384 
L 348.6528 -91.2384 
L 348.0576 -91.2384 
L 347.4624 -91.2384 
L 346.8672 -91.2384 
L 346.272 -91.2384 
L 345.6768 -91.2384 
L 345.0816 -91.2384 
L 344.4864 -91.2384 
L 343.8912 -91.2384 
L 343.296 -91.2384 
L 342.7008 -91.2384 
L 342.1056 -91.2384 
L 341.5104 -91.2384 
L 340.9152 -91.2384 
L 340.32 -91.2384 
L 339.7248 -91.2384 
L 339.1296 -91.2384 
L 338.5344 -91.2384 
L 337.9392 -91.2384 
L 337.344 -91.2384 
L 336.7488 -91.2384 
L 336.1536 -91.2384 
L 335.5584 -91.2384 
L 334.9632 -91.2384 
L 334.368 -91.2384 
L 333.7728 -91.2384 
L 333.1776 -91.2384 
L 332.5824 -91.2384 
L 331.9872 -91.2384 
L 331.392 -91.2384 
L 330.7968 -91.2384 
L 330.2016 -91.2384 
L 329.6064 -91.2384 
L 329.0112 -91.2384 
L 328.416 -91.2384 
L 327.8208 -91.2384 
L 327.2256 -91.2384 
L 326.6304 -91.2384 
L 326.0352 -91.2384 
L 325.44 -91.2384 
L 324.8448 -91.2384 
L 324.2496 -91.2384 
L 323.6544 -91.2384 
L 323.0592 -91.2384 
L 322.464 -91.2384 
L 321.8688 -91.2384 
L 321.2736 -91.2384 
L 320.6784 -91.2384 
L 320.0832 -91.2384 
L 319.488 -91.2384 
L 318.8928 -91.2384 
L 318.2976 -91.2384 
L 317.7024 -91.2384 
L 317.1072 -91.2384 
L 316.512 -91.2384 
L 315.9168 -91.2384 
L 315.3216 -91.2384 
L 314.7264 -91.2384 
L 314.1312 -91.2384 
L 313.536 -91.2384 
L 312.9408 -91.2384 
L 312.3456 -91.2384 
L 311.7504 -91.2384 
L 311.1552 -91.2384 
L 310.56 -91.2384 
L 309.9648 -91.2384 
L 309.3696 -91.2384 
L 308.7744 -91.2384 
L 308.1792 -91.2384 
L 307.584 -91.2384 
L 306.9888 -91.2384 
L 306.3936 -91.2384 
L 305.7984 -91.2384 
L 305.2032 -91.2384 
L 304.608 -91.2384 
L 304.0128 -91.2384 
L 303.4176 -91.2384 
L 302.8224 -91.2384 
L 302.2272 -91.2384 
L 301.632 -91.2384 
L 301.0368 -91.2384 
L 300.4416 -91.2384 
L 299.8464 -91.2384 
L 299.2512 -91.2384 
L 298.656 -91.2384 
L 298.0608 -91.2384 
L 297.4656 -91.2384 
L 296.8704 -91.2384 
L 296.2752 -91.2384 
L 295.68 -91.2384 
L 295.0848 -91.2384 
L 294.4896 -91.2384 
L 293.8944 -91.2384 
L 293.2992 -91.2384 
L 292.704 -91.2384 
L 292.1088 -91.2384 
L 291.5136 -91.2384 
L 290.9184 -91.2384 
L 290.3232 -91.2384 
L 289.728 -91.2384 
L 289.1328 -91.2384 
L 288.5376 -91.2384 
L 287.9424 -91.2384 
L 287.3472 -91.2384 
L 286.752 -91.2384 
L 286.1568 -91.2384 
L 285.5616 -91.2384 
L 284.9664 -91.2384 
L 284.3712 -91.2384 
L 283.776 -91.2384 
L 283.1808 -91.2384 
L 282.5856 -91.2384 
L 281.9904 -91.2384 
L 281.3952 -91.2384 
L 280.8 -91.2384 
L 280.2048 -91.2384 
L 279.6096 -91.2384 
L 279.0144 -91.2384 
L 278.4192 -91.2384 
L 277.824 -91.2384 
L 277.2288 -91.2384 
L 276.6336 -91.2384 
L 276.0384 -91.2384 
L 275.4432 -91.2384 
L 274.848 -91.2384 
L 274.2528 -91.2384 
L 273.6576 -91.2384 
L 273.0624 -91.2384 
L 272.4672 -91.2384 
L 271.872 -91.2384 
L 271.2768 -91.2384 
L 270.6816 -91.2384 
L 270.0864 -91.2384 
L 269.4912 -91.2384 
L 268.896 -91.2384 
L 268.3008 -91.2384 
L 267.7056 -91.2384 
L 267.1104 -91.2384 
L 266.5152 -91.2384 
L 265.92 -91.2384 
L 265.3248 -91.2384 
L 264.7296 -91.2384 
L 264.1344 -91.2384 
L 263.5392 -91.2384 
L 262.944 -91.2384 
L 262.3488 -91.2384 
L 261.7536 -91.2384 
L 261.1584 -91.2384 
L 260.5632 -91.2384 
L 259.968 -91.2384 
L 259.3728 -91.2384 
L 258.7776 -91.2384 
L 258.1824 -91.2384 
L 257.5872 -91.2384 
L 256.992 -91.2384 
L 256.3968 -91.2384 
L 255.8016 -91.2384 
L 255.2064 -91.2384 
L 254.6112 -91.2384 
L 254.016 -91.2384 
L 253.4208 -91.2384 
L 252.8256 -91.2384 
L 252.2304 -91.2384 
L 251.6352 -91.2384 
L 251.04 -91.2384 
L 250.4448 -91.2384 
L 249.8496 -91.2384 
L 249.2544 -91.2384 
L 248.6592 -91.2384 
L 248.064 -91.2384 
L 247.4688 -91.2384 
L 246.8736 -91.2384 
L 246.2784 -91.2384 
L 245.6832 -91.2384 
L 245.088 -91.2384 
L 244.4928 -91.2384 
L 243.8976 -91.2384 
L 243.3024 -91.2384 
L 242.7072 -91.2384 
L 242.112 -91.2384 
L 241.5168 -91.2384 
L 240.9216 -91.2384 
L 240.3264 -91.2384 
L 239.7312 -91.2384 
L 239.136 -91.2384 
L 238.5408 -91.2384 
L 237.9456 -91.2384 
L 237.3504 -91.2384 
L 236.7552 -91.2384 
L 236.16 -91.2384 
L 235.5648 -91.2384 
L 234.9696 -91.2384 
L 234.3744 -91.2384 
L 233.7792 -91.2384 
L 233.184 -91.2384 
L 232.5888 -91.2384 
L 231.9936 -91.2384 
L 231.3984 -91.2384 
L 230.8032 -91.2384 
L 230.208 -91.2384 
L 229.6128 -91.2384 
L 229.0176 -91.2384 
L 228.4224 -91.2384 
L 227.8272 -91.2384 
L 227.232 -91.2384 
L 226.6368 -91.2384 
L 226.0416 -91.2384 
L 225.4464 -91.2384 
L 224.8512 -91.2384 
L 224.256 -91.2384 
L 223.6608 -91.2384 
L 223.0656 -91.2384 
L 222.4704 -91.2384 
L 221.8752 -91.2384 
L 221.28 -91.2384 
L 220.6848 -91.2384 
L 220.0896 -91.2384 
L 219.4944 -91.2384 
L 218.8992 -91.2384 
L 218.304 -91.2384 
L 217.7088 -91.2384 
L 217.1136 -91.2384 
L 216.5184 -91.2384 
L 215.9232 -91.2384 
L 215.328 -91.2384 
L 214.7328 -91.2384 
L 214.1376 -91.2384 
L 213.5424 -91.2384 
L 212.9472 -91.2384 
L 212.352 -91.2384 
L 211.7568 -91.2384 
L 211.1616 -91.2384 
L 210.5664 -91.2384 
L 209.9712 -91.2384 
L 209.376 -91.2384 
L 208.7808 -91.2384 
L 208.1856 -91.2384 
L 207.5904 -91.2384 
L 206.9952 -91.2384 
L 206.4 -91.2384 
L 205.8048 -91.2384 
L 205.2096 -91.2384 
L 204.6144 -91.2384 
L 204.0192 -91.2384 
L 203.424 -91.2384 
L 202.8288 -91.2384 
L 202.2336 -91.2384 
L 201.6384 -91.2384 
L 201.0432 -91.2384 
L 200.448 -91.2384 
L 199.8528 -91.2384 
L 199.2576 -91.2384 
L 198.6624 -91.2384 
L 198.0672 -91.2384 
L 197.472 -91.2384 
L 196.8768 -91.2384 
L 196.2816 -91.2384 
L 195.6864 -91.2384 
L 195.0912 -91.2384 
L 194.496 -91.2384 
L 193.9008 -91.2384 
L 193.3056 -91.2384 
L 192.7104 -91.2384 
L 192.1152 -91.2384 
L 191.52 -91.2384 
L 190.9248 -91.2384 
L 190.3296 -91.2384 
L 189.7344 -91.2384 
L 189.1392 -91.2384 
L 188.544 -91.2384 
L 187.9488 -91.2384 
L 187.3536 -91.2384 
L 186.7584 -91.2384 
L 186.1632 -91.2384 
L 185.568 -91.2384 
L 184.9728 -91.2384 
L 184.3776 -91.2384 
L 183.7824 -91.2384 
L 183.1872 -91.2384 
L 182.592 -91.2384 
L 181.9968 -91.2384 
L 181.4016 -91.2384 
L 180.8064 -91.2384 
L 180.2112 -91.2384 
L 179.616 -91.2384 
L 179.0208 -91.2384 
L 178.4256 -91.2384 
L 177.8304 -91.2384 
L 177.2352 -91.2384 
L 176.64 -91.2384 
L 176.0448 -91.2384 
L 175.4496 -91.2384 
L 174.8544 -91.2384 
L 174.2592 -91.2384 
L 173.664 -91.2384 
L 173.0688 -91.2384 
L 172.4736 -91.2384 
L 171.8784 -91.2384 
L 171.2832 -91.2384 
L 170.688 -91.2384 
L 170.0928 -91.2384 
L 169.4976 -91.2384 
L 168.9024 -91.2384 
L 168.3072 -91.2384 
L 167.712 -91.2384 
L 167.1168 -91.2384 
L 166.5216 -91.2384 
L 165.9264 -91.2384 
L 165.3312 -91.2384 
L 164.736 -91.2384 
L 164.1408 -91.2384 
L 163.5456 -91.2384 
L 162.9504 -91.2384 
L 162.3552 -91.2384 
L 161.76 -91.2384 
L 161.1648 -91.2384 
L 160.5696 -91.2384 
L 159.9744 -91.2384 
L 159.3792 -91.2384 
L 158.784 -91.2384 
L 158.1888 -91.2384 
L 157.5936 -91.2384 
L 156.9984 -91.2384 
L 156.4032 -91.2384 
L 155.808 -91.2384 
L 155.2128 -91.2384 
L 154.6176 -91.2384 
L 154.0224 -91.2384 
L 153.4272 -91.2384 
L 152.832 -91.2384 
L 152.2368 -91.2384 
L 151.6416 -91.2384 
L 151.0464 -91.2384 
L 150.4512 -91.2384 
L 149.856 -91.2384 
L 149.2608 -91.2384 
L 148.6656 -91.2384 
L 148.0704 -91.2384 
L 147.4752 -91.2384 
L 146.88 -91.2384 
L 146.2848 -91.2384 
L 145.6896 -91.2384 
L 145.0944 -91.2384 
L 144.4992 -91.2384 
L 143.904 -91.2384 
L 143.3088 -91.2384 
L 142.7136 -91.2384 
L 142.1184 -91.2384 
L 141.5232 -91.2384 
L 140.928 -91.2384 
L 140.3328 -91.2384 
L 139.7376 -91.2384 
L 139.1424 -91.2384 
L 138.5472 -91.2384 
L 137.952 -91.2384 
L 137.3568 -91.2384 
L 136.7616 -91.2384 
L 136.1664 -91.2384 
L 135.5712 -91.2384 
L 134.976 -91.2384 
L 134.3808 -91.2384 
L 133.7856 -91.2384 
L 133.1904 -91.2384 
L 132.5952 -91.2384 
L 132 -91.2384 
L 131.4048 -91.2384 
L 130.8096 -91.2384 
L 130.2144 -91.2384 
L 129.6192 -91.2384 
L 129.024 -91.2384 
L 128.4288 -91.2384 
L 127.8336 -91.2384 
L 127.2384 -91.2384 
L 126.6432 -91.2384 
L 126.048 -91.2384 
L 125.4528 -91.2384 
L 124.8576 -91.2384 
L 124.2624 -91.2384 
L 123.6672 -91.2384 
L 123.072 -91.2384 
L 122.4768 -91.2384 
L 121.8816 -91.2384 
L 121.2864 -91.2384 
L 120.6912 -91.2384 
L 120.096 -91.2384 
L 119.5008 -91.2384 
L 118.9056 -91.2384 
L 118.3104 -91.2384 
L 117.7152 -91.2384 
z
" style="stroke: #00ff7f; stroke-opacity: 0.7"/>
    </defs>
    <g clip-path="url(#p3f1c7ffa12)">
     <use xlink:href="#m45fe69d9fc" x="0" y="345.6" style="fill: #00ff7f; fill-opacity: 0.7; stroke: #00ff7f; stroke-opacity: 0.7"/>
    </g>
   </g>
   <g id="text_16">
    <!-- Oppervlakte onder de grafiek - herhaling (met 100 rechthoeken) -->
    <g style="fill: #d3d3d3" transform="translate(42.289688 35.472) scale(0.12 -0.12)">
     <defs>
      <path id="DejaVuSans-4f" d="M 2522 4238 
Q 1834 4238 1429 3725 
Q 1025 3213 1025 2328 
Q 1025 1447 1429 934 
Q 1834 422 2522 422 
Q 3209 422 3611 934 
Q 4013 1447 4013 2328 
Q 4013 3213 3611 3725 
Q 3209 4238 2522 4238 
z
M 2522 4750 
Q 3503 4750 4090 4092 
Q 4678 3434 4678 2328 
Q 4678 1225 4090 567 
Q 3503 -91 2522 -91 
Q 1538 -91 948 565 
Q 359 1222 359 2328 
Q 359 3434 948 4092 
Q 1538 4750 2522 4750 
z
" transform="scale(0.015625)"/>
      <path id="DejaVuSans-70" d="M 1159 525 
L 1159 -1331 
L 581 -1331 
L 581 3500 
L 1159 3500 
L 1159 2969 
Q 1341 3281 1617 3432 
Q 1894 3584 2278 3584 
Q 2916 3584 3314 3078 
Q 3713 2572 3713 1747 
Q 3713 922 3314 415 
Q 2916 -91 2278 -91 
Q 1894 -91 1617 61 
Q 1341 213 1159 525 
z
M 3116 1747 
Q 3116 2381 2855 2742 
Q 2594 3103 2138 3103 
Q 1681 3103 1420 2742 
Q 1159 2381 1159 1747 
Q 1159 1113 1420 752 
Q 1681 391 2138 391 
Q 2594 391 2855 752 
Q 3116 1113 3116 1747 
z
" transform="scale(0.015625)"/>
      <path id="DejaVuSans-65" d="M 3597 1894 
L 3597 1613 
L 953 1613 
Q 991 1019 1311 708 
Q 1631 397 2203 397 
Q 2534 397 2845 478 
Q 3156 559 3463 722 
L 3463 178 
Q 3153 47 2828 -22 
Q 2503 -91 2169 -91 
Q 1331 -91 842 396 
Q 353 884 353 1716 
Q 353 2575 817 3079 
Q 1281 3584 2069 3584 
Q 2775 3584 3186 3129 
Q 3597 2675 3597 1894 
z
M 3022 2063 
Q 3016 2534 2758 2815 
Q 2500 3097 2075 3097 
Q 1594 3097 1305 2825 
Q 1016 2553 972 2059 
L 3022 2063 
z
" transform="scale(0.015625)"/>
      <path id="DejaVuSans-72" d="M 2631 2963 
Q 2534 3019 2420 3045 
Q 2306 3072 2169 3072 
Q 1681 3072 1420 2755 
Q 1159 2438 1159 1844 
L 1159 0 
L 581 0 
L 581 3500 
L 1159 3500 
L 1159 2956 
Q 1341 3275 1631 3429 
Q 1922 3584 2338 3584 
Q 2397 3584 2469 3576 
Q 2541 3569 2628 3553 
L 2631 2963 
z
" transform="scale(0.015625)"/>
      <path id="DejaVuSans-76" d="M 191 3500 
L 800 3500 
L 1894 563 
L 2988 3500 
L 3597 3500 
L 2284 0 
L 1503 0 
L 191 3500 
z
" transform="scale(0.015625)"/>
      <path id="DejaVuSans-6c" d="M 603 4863 
L 1178 4863 
L 1178 0 
L 603 0 
L 603 4863 
z
" transform="scale(0.015625)"/>
      <path id="DejaVuSans-6b" d="M 581 4863 
L 1159 4863 
L 1159 1991 
L 2875 3500 
L 3609 3500 
L 1753 1863 
L 3688 0 
L 2938 0 
L 1159 1709 
L 1159 0 
L 581 0 
L 581 4863 
z
" transform="scale(0.015625)"/>
      <path id="DejaVuSans-74" d="M 1172 4494 
L 1172 3500 
L 2356 3500 
L 2356 3053 
L 1172 3053 
L 1172 1153 
Q 1172 725 1289 603 
Q 1406 481 1766 481 
L 2356 481 
L 2356 0 
L 1766 0 
Q 1100 0 847 248 
Q 594 497 594 1153 
L 594 3053 
L 172 3053 
L 172 3500 
L 594 3500 
L 594 4494 
L 1172 4494 
z
" transform="scale(0.015625)"/>
      <path id="DejaVuSans-20" transform="scale(0.015625)"/>
      <path id="DejaVuSans-6f" d="M 1959 3097 
Q 1497 3097 1228 2736 
Q 959 2375 959 1747 
Q 959 1119 1226 758 
Q 1494 397 1959 397 
Q 2419 397 2687 759 
Q 2956 1122 2956 1747 
Q 2956 2369 2687 2733 
Q 2419 3097 1959 3097 
z
M 1959 3584 
Q 2709 3584 3137 3096 
Q 3566 2609 3566 1747 
Q 3566 888 3137 398 
Q 2709 -91 1959 -91 
Q 1206 -91 779 398 
Q 353 888 353 1747 
Q 353 2609 779 3096 
Q 1206 3584 1959 3584 
z
" transform="scale(0.015625)"/>
      <path id="DejaVuSans-6e" d="M 3513 2113 
L 3513 0 
L 2938 0 
L 2938 2094 
Q 2938 2591 2744 2837 
Q 2550 3084 2163 3084 
Q 1697 3084 1428 2787 
Q 1159 2491 1159 1978 
L 1159 0 
L 581 0 
L 581 3500 
L 1159 3500 
L 1159 2956 
Q 1366 3272 1645 3428 
Q 1925 3584 2291 3584 
Q 2894 3584 3203 3211 
Q 3513 2838 3513 2113 
z
" transform="scale(0.015625)"/>
      <path id="DejaVuSans-64" d="M 2906 2969 
L 2906 4863 
L 3481 4863 
L 3481 0 
L 2906 0 
L 2906 525 
Q 2725 213 2448 61 
Q 2172 -91 1784 -91 
Q 1150 -91 751 415 
Q 353 922 353 1747 
Q 353 2572 751 3078 
Q 1150 3584 1784 3584 
Q 2172 3584 2448 3432 
Q 2725 3281 2906 2969 
z
M 947 1747 
Q 947 1113 1208 752 
Q 1469 391 1925 391 
Q 2381 391 2643 752 
Q 2906 1113 2906 1747 
Q 2906 2381 2643 2742 
Q 2381 3103 1925 3103 
Q 1469 3103 1208 2742 
Q 947 2381 947 1747 
z
" transform="scale(0.015625)"/>
      <path id="DejaVuSans-67" d="M 2906 1791 
Q 2906 2416 2648 2759 
Q 2391 3103 1925 3103 
Q 1463 3103 1205 2759 
Q 947 2416 947 1791 
Q 947 1169 1205 825 
Q 1463 481 1925 481 
Q 2391 481 2648 825 
Q 2906 1169 2906 1791 
z
M 3481 434 
Q 3481 -459 3084 -895 
Q 2688 -1331 1869 -1331 
Q 1566 -1331 1297 -1286 
Q 1028 -1241 775 -1147 
L 775 -588 
Q 1028 -725 1275 -790 
Q 1522 -856 1778 -856 
Q 2344 -856 2625 -561 
Q 2906 -266 2906 331 
L 2906 616 
Q 2728 306 2450 153 
Q 2172 0 1784 0 
Q 1141 0 747 490 
Q 353 981 353 1791 
Q 353 2603 747 3093 
Q 1141 3584 1784 3584 
Q 2172 3584 2450 3431 
Q 2728 3278 2906 2969 
L 2906 3500 
L 3481 3500 
L 3481 434 
z
" transform="scale(0.015625)"/>
      <path id="DejaVuSans-66" d="M 2375 4863 
L 2375 4384 
L 1825 4384 
Q 1516 4384 1395 4259 
Q 1275 4134 1275 3809 
L 1275 3500 
L 2222 3500 
L 2222 3053 
L 1275 3053 
L 1275 0 
L 697 0 
L 697 3053 
L 147 3053 
L 147 3500 
L 697 3500 
L 697 3744 
Q 697 4328 969 4595 
Q 1241 4863 1831 4863 
L 2375 4863 
z
" transform="scale(0.015625)"/>
      <path id="DejaVuSans-69" d="M 603 3500 
L 1178 3500 
L 1178 0 
L 603 0 
L 603 3500 
z
M 603 4863 
L 1178 4863 
L 1178 4134 
L 603 4134 
L 603 4863 
z
" transform="scale(0.015625)"/>
      <path id="DejaVuSans-68" d="M 3513 2113 
L 3513 0 
L 2938 0 
L 2938 2094 
Q 2938 2591 2744 2837 
Q 2550 3084 2163 3084 
Q 1697 3084 1428 2787 
Q 1159 2491 1159 1978 
L 1159 0 
L 581 0 
L 581 4863 
L 1159 4863 
L 1159 2956 
Q 1366 3272 1645 3428 
Q 1925 3584 2291 3584 
Q 2894 3584 3203 3211 
Q 3513 2838 3513 2113 
z
" transform="scale(0.015625)"/>
      <path id="DejaVuSans-28" d="M 1984 4856 
Q 1566 4138 1362 3434 
Q 1159 2731 1159 2009 
Q 1159 1288 1364 580 
Q 1569 -128 1984 -844 
L 1484 -844 
Q 1016 -109 783 600 
Q 550 1309 550 2009 
Q 550 2706 781 3412 
Q 1013 4119 1484 4856 
L 1984 4856 
z
" transform="scale(0.015625)"/>
      <path id="DejaVuSans-6d" d="M 3328 2828 
Q 3544 3216 3844 3400 
Q 4144 3584 4550 3584 
Q 5097 3584 5394 3201 
Q 5691 2819 5691 2113 
L 5691 0 
L 5113 0 
L 5113 2094 
Q 5113 2597 4934 2840 
Q 4756 3084 4391 3084 
Q 3944 3084 3684 2787 
Q 3425 2491 3425 1978 
L 3425 0 
L 2847 0 
L 2847 2094 
Q 2847 2600 2669 2842 
Q 2491 3084 2119 3084 
Q 1678 3084 1418 2786 
Q 1159 2488 1159 1978 
L 1159 0 
L 581 0 
L 581 3500 
L 1159 3500 
L 1159 2956 
Q 1356 3278 1631 3431 
Q 1906 3584 2284 3584 
Q 2666 3584 2933 3390 
Q 3200 3197 3328 2828 
z
" transform="scale(0.015625)"/>
      <path id="DejaVuSans-63" d="M 3122 3366 
L 3122 2828 
Q 2878 2963 2633 3030 
Q 2388 3097 2138 3097 
Q 1578 3097 1268 2742 
Q 959 2388 959 1747 
Q 959 1106 1268 751 
Q 1578 397 2138 397 
Q 2388 397 2633 464 
Q 2878 531 3122 666 
L 3122 134 
Q 2881 22 2623 -34 
Q 2366 -91 2075 -91 
Q 1284 -91 818 406 
Q 353 903 353 1747 
Q 353 2603 823 3093 
Q 1294 3584 2113 3584 
Q 2378 3584 2631 3529 
Q 2884 3475 3122 3366 
z
" transform="scale(0.015625)"/>
      <path id="DejaVuSans-29" d="M 513 4856 
L 1013 4856 
Q 1481 4119 1714 3412 
Q 1947 2706 1947 2009 
Q 1947 1309 1714 600 
Q 1481 -109 1013 -844 
L 513 -844 
Q 928 -128 1133 580 
Q 1338 1288 1338 2009 
Q 1338 2731 1133 3434 
Q 928 4138 513 4856 
z
" transform="scale(0.015625)"/>
     </defs>
     <use xlink:href="#DejaVuSans-4f"/>
     <use xlink:href="#DejaVuSans-70" x="78.710938"/>
     <use xlink:href="#DejaVuSans-70" x="142.1875"/>
     <use xlink:href="#DejaVuSans-65" x="205.664062"/>
     <use xlink:href="#DejaVuSans-72" x="267.1875"/>
     <use xlink:href="#DejaVuSans-76" x="308.300781"/>
     <use xlink:href="#DejaVuSans-6c" x="367.480469"/>
     <use xlink:href="#DejaVuSans-61" x="395.263672"/>
     <use xlink:href="#DejaVuSans-6b" x="456.542969"/>
     <use xlink:href="#DejaVuSans-74" x="514.453125"/>
     <use xlink:href="#DejaVuSans-65" x="553.662109"/>
     <use xlink:href="#DejaVuSans-20" x="615.185547"/>
     <use xlink:href="#DejaVuSans-6f" x="646.972656"/>
     <use xlink:href="#DejaVuSans-6e" x="708.154297"/>
     <use xlink:href="#DejaVuSans-64" x="771.533203"/>
     <use xlink:href="#DejaVuSans-65" x="835.009766"/>
     <use xlink:href="#DejaVuSans-72" x="896.533203"/>
     <use xlink:href="#DejaVuSans-20" x="937.646484"/>
     <use xlink:href="#DejaVuSans-64" x="969.433594"/>
     <use xlink:href="#DejaVuSans-65" x="1032.910156"/>
     <use xlink:href="#DejaVuSans-20" x="1094.433594"/>
     <use xlink:href="#DejaVuSans-67" x="1126.220703"/>
     <use xlink:href="#DejaVuSans-72" x="1189.697266"/>
     <use xlink:href="#DejaVuSans-61" x="1230.810547"/>
     <use xlink:href="#DejaVuSans-66" x="1292.089844"/>
     <use xlink:href="#DejaVuSans-69" x="1327.294922"/>
     <use xlink:href="#DejaVuSans-65" x="1355.078125"/>
     <use xlink:href="#DejaVuSans-6b" x="1416.601562"/>
     <use xlink:href="#DejaVuSans-20" x="1474.511719"/>
     <use xlink:href="#DejaVuSans-2d" x="1506.298828"/>
     <use xlink:href="#DejaVuSans-20" x="1542.382812"/>
     <use xlink:href="#DejaVuSans-68" x="1574.169922"/>
     <use xlink:href="#DejaVuSans-65" x="1637.548828"/>
     <use xlink:href="#DejaVuSans-72" x="1699.072266"/>
     <use xlink:href="#DejaVuSans-68" x="1738.435547"/>
     <use xlink:href="#DejaVuSans-61" x="1801.814453"/>
     <use xlink:href="#DejaVuSans-6c" x="1863.09375"/>
     <use xlink:href="#DejaVuSans-69" x="1890.876953"/>
     <use xlink:href="#DejaVuSans-6e" x="1918.660156"/>
     <use xlink:href="#DejaVuSans-67" x="1982.039062"/>
     <use xlink:href="#DejaVuSans-20" x="2045.515625"/>
     <use xlink:href="#DejaVuSans-28" x="2077.302734"/>
     <use xlink:href="#DejaVuSans-6d" x="2116.316406"/>
     <use xlink:href="#DejaVuSans-65" x="2213.728516"/>
     <use xlink:href="#DejaVuSans-74" x="2275.251953"/>
     <use xlink:href="#DejaVuSans-20" x="2314.460938"/>
     <use xlink:href="#DejaVuSans-31" x="2346.248047"/>
     <use xlink:href="#DejaVuSans-30" x="2409.871094"/>
     <use xlink:href="#DejaVuSans-30" x="2473.494141"/>
     <use xlink:href="#DejaVuSans-20" x="2537.117188"/>
     <use xlink:href="#DejaVuSans-72" x="2568.904297"/>
     <use xlink:href="#DejaVuSans-65" x="2607.767578"/>
     <use xlink:href="#DejaVuSans-63" x="2669.291016"/>
     <use xlink:href="#DejaVuSans-68" x="2724.271484"/>
     <use xlink:href="#DejaVuSans-74" x="2787.650391"/>
     <use xlink:href="#DejaVuSans-68" x="2826.859375"/>
     <use xlink:href="#DejaVuSans-6f" x="2890.238281"/>
     <use xlink:href="#DejaVuSans-65" x="2951.419922"/>
     <use xlink:href="#DejaVuSans-6b" x="3012.943359"/>
     <use xlink:href="#DejaVuSans-65" x="3067.228516"/>
     <use xlink:href="#DejaVuSans-6e" x="3128.751953"/>
     <use xlink:href="#DejaVuSans-29" x="3192.130859"/>
    </g>
   </g>
   <g id="patch_7">
    <path d="M 117.12 254.3616 
L 119.5008 254.3616 
L 119.5008 198.77427 
L 117.12 198.77427 
z
" clip-path="url(#p3f1c7ffa12)" style="fill: #000080; opacity: 0.5; stroke: #0000ff; stroke-linejoin: miter"/>
   </g>
   <g id="patch_8">
    <path d="M 119.5008 254.3616 
L 121.8816 254.3616 
L 121.8816 199.193437 
L 119.5008 199.193437 
z
" clip-path="url(#p3f1c7ffa12)" style="fill: #000080; opacity: 0.5; stroke: #0000ff; stroke-linejoin: miter"/>
   </g>
   <g id="patch_9">
    <path d="M 121.8816 254.3616 
L 124.2624 254.3616 
L 124.2624 199.573145 
L 121.8816 199.573145 
z
" clip-path="url(#p3f1c7ffa12)" style="fill: #000080; opacity: 0.5; stroke: #0000ff; stroke-linejoin: miter"/>
   </g>
   <g id="patch_10">
    <path d="M 124.2624 254.3616 
L 126.6432 254.3616 
L 126.6432 199.912786 
L 124.2624 199.912786 
z
" clip-path="url(#p3f1c7ffa12)" style="fill: #000080; opacity: 0.5; stroke: #0000ff; stroke-linejoin: miter"/>
   </g>
   <g id="patch_11">
    <path d="M 126.6432 254.3616 
L 129.024 254.3616 
L 129.024 200.211816 
L 126.6432 200.211816 
z
" clip-path="url(#p3f1c7ffa12)" style="fill: #000080; opacity: 0.5; stroke: #0000ff; stroke-linejoin: miter"/>
   </g>
   <g id="patch_12">
    <path d="M 129.024 254.3616 
L 131.4048 254.3616 
L 131.4048 200.469759 
L 129.024 200.469759 
z
" clip-path="url(#p3f1c7ffa12)" style="fill: #000080; opacity: 0.5; stroke: #0000ff; stroke-linejoin: miter"/>
   </g>
   <g id="patch_13">
    <path d="M 131.4048 254.3616 
L 133.7856 254.3616 
L 133.7856 200.686199 
L 131.4048 200.686199 
z
" clip-path="url(#p3f1c7ffa12)" style="fill: #000080; opacity: 0.5; stroke: #0000ff; stroke-linejoin: miter"/>
   </g>
   <g id="patch_14">
    <path d="M 133.7856 254.3616 
L 136.1664 254.3616 
L 136.1664 200.860793 
L 133.7856 200.860793 
z
" clip-path="url(#p3f1c7ffa12)" style="fill: #000080; opacity: 0.5; stroke: #0000ff; stroke-linejoin: miter"/>
   </g>
   <g id="patch_15">
    <path d="M 136.1664 254.3616 
L 138.5472 254.3616 
L 138.5472 200.993259 
L 136.1664 200.993259 
z
" clip-path="url(#p3f1c7ffa12)" style="fill: #000080; opacity: 0.5; stroke: #0000ff; stroke-linejoin: miter"/>
   </g>
   <g id="patch_16">
    <path d="M 138.5472 254.3616 
L 140.928 254.3616 
L 140.928 201.083387 
L 138.5472 201.083387 
z
" clip-path="url(#p3f1c7ffa12)" style="fill: #000080; opacity: 0.5; stroke: #0000ff; stroke-linejoin: miter"/>
   </g>
   <g id="patch_17">
    <path d="M 140.928 254.3616 
L 143.3088 254.3616 
L 143.3088 201.131031 
L 140.928 201.131031 
z
" clip-path="url(#p3f1c7ffa12)" style="fill: #000080; opacity: 0.5; stroke: #0000ff; stroke-linejoin: miter"/>
   </g>
   <g id="patch_18">
    <path d="M 143.3088 254.3616 
L 145.6896 254.3616 
L 145.6896 201.136117 
L 143.3088 201.136117 
z
" clip-path="url(#p3f1c7ffa12)" style="fill: #000080; opacity: 0.5; stroke: #0000ff; stroke-linejoin: miter"/>
   </g>
   <g id="patch_19">
    <path d="M 145.6896 254.3616 
L 148.0704 254.3616 
L 148.0704 201.098635 
L 145.6896 201.098635 
z
" clip-path="url(#p3f1c7ffa12)" style="fill: #000080; opacity: 0.5; stroke: #0000ff; stroke-linejoin: miter"/>
   </g>
   <g id="patch_20">
    <path d="M 148.0704 254.3616 
L 150.4512 254.3616 
L 150.4512 201.018646 
L 148.0704 201.018646 
z
" clip-path="url(#p3f1c7ffa12)" style="fill: #000080; opacity: 0.5; stroke: #0000ff; stroke-linejoin: miter"/>
   </g>
   <g id="patch_21">
    <path d="M 150.4512 254.3616 
L 152.832 254.3616 
L 152.832 200.896278 
L 150.4512 200.896278 
z
" clip-path="url(#p3f1c7ffa12)" style="fill: #000080; opacity: 0.5; stroke: #0000ff; stroke-linejoin: miter"/>
   </g>
   <g id="patch_22">
    <path d="M 152.832 254.3616 
L 155.2128 254.3616 
L 155.2128 200.731725 
L 152.832 200.731725 
z
" clip-path="url(#p3f1c7ffa12)" style="fill: #000080; opacity: 0.5; stroke: #0000ff; stroke-linejoin: miter"/>
   </g>
   <g id="patch_23">
    <path d="M 155.2128 254.3616 
L 157.5936 254.3616 
L 157.5936 200.525253 
L 155.2128 200.525253 
z
" clip-path="url(#p3f1c7ffa12)" style="fill: #000080; opacity: 0.5; stroke: #0000ff; stroke-linejoin: miter"/>
   </g>
   <g id="patch_24">
    <path d="M 157.5936 254.3616 
L 159.9744 254.3616 
L 159.9744 200.27719 
L 157.5936 200.27719 
z
" clip-path="url(#p3f1c7ffa12)" style="fill: #000080; opacity: 0.5; stroke: #0000ff; stroke-linejoin: miter"/>
   </g>
   <g id="patch_25">
    <path d="M 159.9744 254.3616 
L 162.3552 254.3616 
L 162.3552 199.987935 
L 159.9744 199.987935 
z
" clip-path="url(#p3f1c7ffa12)" style="fill: #000080; opacity: 0.5; stroke: #0000ff; stroke-linejoin: miter"/>
   </g>
   <g id="patch_26">
    <path d="M 162.3552 254.3616 
L 164.736 254.3616 
L 164.736 199.657948 
L 162.3552 199.657948 
z
" clip-path="url(#p3f1c7ffa12)" style="fill: #000080; opacity: 0.5; stroke: #0000ff; stroke-linejoin: miter"/>
   </g>
   <g id="patch_27">
    <path d="M 164.736 254.3616 
L 167.1168 254.3616 
L 167.1168 199.28776 
L 164.736 199.28776 
z
" clip-path="url(#p3f1c7ffa12)" style="fill: #000080; opacity: 0.5; stroke: #0000ff; stroke-linejoin: miter"/>
   </g>
   <g id="patch_28">
    <path d="M 167.1168 254.3616 
L 169.4976 254.3616 
L 169.4976 198.87796 
L 167.1168 198.87796 
z
" clip-path="url(#p3f1c7ffa12)" style="fill: #000080; opacity: 0.5; stroke: #0000ff; stroke-linejoin: miter"/>
   </g>
   <g id="patch_29">
    <path d="M 169.4976 254.3616 
L 171.8784 254.3616 
L 171.8784 198.429207 
L 169.4976 198.429207 
z
" clip-path="url(#p3f1c7ffa12)" style="fill: #000080; opacity: 0.5; stroke: #0000ff; stroke-linejoin: miter"/>
   </g>
   <g id="patch_30">
    <path d="M 171.8784 254.3616 
L 174.2592 254.3616 
L 174.2592 197.942216 
L 171.8784 197.942216 
z
" clip-path="url(#p3f1c7ffa12)" style="fill: #000080; opacity: 0.5; stroke: #0000ff; stroke-linejoin: miter"/>
   </g>
   <g id="patch_31">
    <path d="M 174.2592 254.3616 
L 176.64 254.3616 
L 176.64 197.417767 
L 174.2592 197.417767 
z
" clip-path="url(#p3f1c7ffa12)" style="fill: #000080; opacity: 0.5; stroke: #0000ff; stroke-linejoin: miter"/>
   </g>
   <g id="patch_32">
    <path d="M 176.64 254.3616 
L 179.0208 254.3616 
L 179.0208 196.8567 
L 176.64 196.8567 
z
" clip-path="url(#p3f1c7ffa12)" style="fill: #000080; opacity: 0.5; stroke: #0000ff; stroke-linejoin: miter"/>
   </g>
   <g id="patch_33">
    <path d="M 179.0208 254.3616 
L 181.4016 254.3616 
L 181.4016 196.259912 
L 179.0208 196.259912 
z
" clip-path="url(#p3f1c7ffa12)" style="fill: #000080; opacity: 0.5; stroke: #0000ff; stroke-linejoin: miter"/>
   </g>
   <g id="patch_34">
    <path d="M 181.4016 254.3616 
L 183.7824 254.3616 
L 183.7824 195.628357 
L 181.4016 195.628357 
z
" clip-path="url(#p3f1c7ffa12)" style="fill: #000080; opacity: 0.5; stroke: #0000ff; stroke-linejoin: miter"/>
   </g>
   <g id="patch_35">
    <path d="M 183.7824 254.3616 
L 186.1632 254.3616 
L 186.1632 194.963046 
L 183.7824 194.963046 
z
" clip-path="url(#p3f1c7ffa12)" style="fill: #000080; opacity: 0.5; stroke: #0000ff; stroke-linejoin: miter"/>
   </g>
   <g id="patch_36">
    <path d="M 186.1632 254.3616 
L 188.544 254.3616 
L 188.544 194.265044 
L 186.1632 194.265044 
z
" clip-path="url(#p3f1c7ffa12)" style="fill: #000080; opacity: 0.5; stroke: #0000ff; stroke-linejoin: miter"/>
   </g>
   <g id="patch_37">
    <path d="M 188.544 254.3616 
L 190.9248 254.3616 
L 190.9248 193.535466 
L 188.544 193.535466 
z
" clip-path="url(#p3f1c7ffa12)" style="fill: #000080; opacity: 0.5; stroke: #0000ff; stroke-linejoin: miter"/>
   </g>
   <g id="patch_38">
    <path d="M 190.9248 254.3616 
L 193.3056 254.3616 
L 193.3056 192.775481 
L 190.9248 192.775481 
z
" clip-path="url(#p3f1c7ffa12)" style="fill: #000080; opacity: 0.5; stroke: #0000ff; stroke-linejoin: miter"/>
   </g>
   <g id="patch_39">
    <path d="M 193.3056 254.3616 
L 195.6864 254.3616 
L 195.6864 191.986303 
L 193.3056 191.986303 
z
" clip-path="url(#p3f1c7ffa12)" style="fill: #000080; opacity: 0.5; stroke: #0000ff; stroke-linejoin: miter"/>
   </g>
   <g id="patch_40">
    <path d="M 195.6864 254.3616 
L 198.0672 254.3616 
L 198.0672 191.169196 
L 195.6864 191.169196 
z
" clip-path="url(#p3f1c7ffa12)" style="fill: #000080; opacity: 0.5; stroke: #0000ff; stroke-linejoin: miter"/>
   </g>
   <g id="patch_41">
    <path d="M 198.0672 254.3616 
L 200.448 254.3616 
L 200.448 190.325466 
L 198.0672 190.325466 
z
" clip-path="url(#p3f1c7ffa12)" style="fill: #000080; opacity: 0.5; stroke: #0000ff; stroke-linejoin: miter"/>
   </g>
   <g id="patch_42">
    <path d="M 200.448 254.3616 
L 202.8288 254.3616 
L 202.8288 189.456464 
L 200.448 189.456464 
z
" clip-path="url(#p3f1c7ffa12)" style="fill: #000080; opacity: 0.5; stroke: #0000ff; stroke-linejoin: miter"/>
   </g>
   <g id="patch_43">
    <path d="M 202.8288 254.3616 
L 205.2096 254.3616 
L 205.2096 188.56358 
L 202.8288 188.56358 
z
" clip-path="url(#p3f1c7ffa12)" style="fill: #000080; opacity: 0.5; stroke: #0000ff; stroke-linejoin: miter"/>
   </g>
   <g id="patch_44">
    <path d="M 205.2096 254.3616 
L 207.5904 254.3616 
L 207.5904 187.648241 
L 205.2096 187.648241 
z
" clip-path="url(#p3f1c7ffa12)" style="fill: #000080; opacity: 0.5; stroke: #0000ff; stroke-linejoin: miter"/>
   </g>
   <g id="patch_45">
    <path d="M 207.5904 254.3616 
L 209.9712 254.3616 
L 209.9712 186.711913 
L 207.5904 186.711913 
z
" clip-path="url(#p3f1c7ffa12)" style="fill: #000080; opacity: 0.5; stroke: #0000ff; stroke-linejoin: miter"/>
   </g>
   <g id="patch_46">
    <path d="M 209.9712 254.3616 
L 212.352 254.3616 
L 212.352 185.756094 
L 209.9712 185.756094 
z
" clip-path="url(#p3f1c7ffa12)" style="fill: #000080; opacity: 0.5; stroke: #0000ff; stroke-linejoin: miter"/>
   </g>
   <g id="patch_47">
    <path d="M 212.352 254.3616 
L 214.7328 254.3616 
L 214.7328 184.782312 
L 212.352 184.782312 
z
" clip-path="url(#p3f1c7ffa12)" style="fill: #000080; opacity: 0.5; stroke: #0000ff; stroke-linejoin: miter"/>
   </g>
   <g id="patch_48">
    <path d="M 214.7328 254.3616 
L 217.1136 254.3616 
L 217.1136 183.792125 
L 214.7328 183.792125 
z
" clip-path="url(#p3f1c7ffa12)" style="fill: #000080; opacity: 0.5; stroke: #0000ff; stroke-linejoin: miter"/>
   </g>
   <g id="patch_49">
    <path d="M 217.1136 254.3616 
L 219.4944 254.3616 
L 219.4944 182.787117 
L 217.1136 182.787117 
z
" clip-path="url(#p3f1c7ffa12)" style="fill: #000080; opacity: 0.5; stroke: #0000ff; stroke-linejoin: miter"/>
   </g>
   <g id="patch_50">
    <path d="M 219.4944 254.3616 
L 221.8752 254.3616 
L 221.8752 181.768897 
L 219.4944 181.768897 
z
" clip-path="url(#p3f1c7ffa12)" style="fill: #000080; opacity: 0.5; stroke: #0000ff; stroke-linejoin: miter"/>
   </g>
   <g id="patch_51">
    <path d="M 221.8752 254.3616 
L 224.256 254.3616 
L 224.256 180.739093 
L 221.8752 180.739093 
z
" clip-path="url(#p3f1c7ffa12)" style="fill: #000080; opacity: 0.5; stroke: #0000ff; stroke-linejoin: miter"/>
   </g>
   <g id="patch_52">
    <path d="M 224.256 254.3616 
L 226.6368 254.3616 
L 226.6368 179.699352 
L 224.256 179.699352 
z
" clip-path="url(#p3f1c7ffa12)" style="fill: #000080; opacity: 0.5; stroke: #0000ff; stroke-linejoin: miter"/>
   </g>
   <g id="patch_53">
    <path d="M 226.6368 254.3616 
L 229.0176 254.3616 
L 229.0176 178.651338 
L 226.6368 178.651338 
z
" clip-path="url(#p3f1c7ffa12)" style="fill: #000080; opacity: 0.5; stroke: #0000ff; stroke-linejoin: miter"/>
   </g>
   <g id="patch_54">
    <path d="M 229.0176 254.3616 
L 231.3984 254.3616 
L 231.3984 177.596728 
L 229.0176 177.596728 
z
" clip-path="url(#p3f1c7ffa12)" style="fill: #000080; opacity: 0.5; stroke: #0000ff; stroke-linejoin: miter"/>
   </g>
   <g id="patch_55">
    <path d="M 231.3984 254.3616 
L 233.7792 254.3616 
L 233.7792 176.537209 
L 231.3984 176.537209 
z
" clip-path="url(#p3f1c7ffa12)" style="fill: #000080; opacity: 0.5; stroke: #0000ff; stroke-linejoin: miter"/>
   </g>
   <g id="patch_56">
    <path d="M 233.7792 254.3616 
L 236.16 254.3616 
L 236.16 175.474475 
L 233.7792 175.474475 
z
" clip-path="url(#p3f1c7ffa12)" style="fill: #000080; opacity: 0.5; stroke: #0000ff; stroke-linejoin: miter"/>
   </g>
   <g id="patch_57">
    <path d="M 236.16 254.3616 
L 238.5408 254.3616 
L 238.5408 174.410227 
L 236.16 174.410227 
z
" clip-path="url(#p3f1c7ffa12)" style="fill: #000080; opacity: 0.5; stroke: #0000ff; stroke-linejoin: miter"/>
   </g>
   <g id="patch_58">
    <path d="M 238.5408 254.3616 
L 240.9216 254.3616 
L 240.9216 173.346167 
L 238.5408 173.346167 
z
" clip-path="url(#p3f1c7ffa12)" style="fill: #000080; opacity: 0.5; stroke: #0000ff; stroke-linejoin: miter"/>
   </g>
   <g id="patch_59">
    <path d="M 240.9216 254.3616 
L 243.3024 254.3616 
L 243.3024 172.283998 
L 240.9216 172.283998 
z
" clip-path="url(#p3f1c7ffa12)" style="fill: #000080; opacity: 0.5; stroke: #0000ff; stroke-linejoin: miter"/>
   </g>
   <g id="patch_60">
    <path d="M 243.3024 254.3616 
L 245.6832 254.3616 
L 245.6832 171.22542 
L 243.3024 171.22542 
z
" clip-path="url(#p3f1c7ffa12)" style="fill: #000080; opacity: 0.5; stroke: #0000ff; stroke-linejoin: miter"/>
   </g>
   <g id="patch_61">
    <path d="M 245.6832 254.3616 
L 248.064 254.3616 
L 248.064 170.172124 
L 245.6832 170.172124 
z
" clip-path="url(#p3f1c7ffa12)" style="fill: #000080; opacity: 0.5; stroke: #0000ff; stroke-linejoin: miter"/>
   </g>
   <g id="patch_62">
    <path d="M 248.064 254.3616 
L 250.4448 254.3616 
L 250.4448 169.125797 
L 248.064 169.125797 
z
" clip-path="url(#p3f1c7ffa12)" style="fill: #000080; opacity: 0.5; stroke: #0000ff; stroke-linejoin: miter"/>
   </g>
   <g id="patch_63">
    <path d="M 250.4448 254.3616 
L 252.8256 254.3616 
L 252.8256 168.088112 
L 250.4448 168.088112 
z
" clip-path="url(#p3f1c7ffa12)" style="fill: #000080; opacity: 0.5; stroke: #0000ff; stroke-linejoin: miter"/>
   </g>
   <g id="patch_64">
    <path d="M 252.8256 254.3616 
L 255.2064 254.3616 
L 255.2064 167.06073 
L 252.8256 167.06073 
z
" clip-path="url(#p3f1c7ffa12)" style="fill: #000080; opacity: 0.5; stroke: #0000ff; stroke-linejoin: miter"/>
   </g>
   <g id="patch_65">
    <path d="M 255.2064 254.3616 
L 257.5872 254.3616 
L 257.5872 166.045294 
L 255.2064 166.045294 
z
" clip-path="url(#p3f1c7ffa12)" style="fill: #000080; opacity: 0.5; stroke: #0000ff; stroke-linejoin: miter"/>
   </g>
   <g id="patch_66">
    <path d="M 257.5872 254.3616 
L 259.968 254.3616 
L 259.968 165.043428 
L 257.5872 165.043428 
z
" clip-path="url(#p3f1c7ffa12)" style="fill: #000080; opacity: 0.5; stroke: #0000ff; stroke-linejoin: miter"/>
   </g>
   <g id="patch_67">
    <path d="M 259.968 254.3616 
L 262.3488 254.3616 
L 262.3488 164.056736 
L 259.968 164.056736 
z
" clip-path="url(#p3f1c7ffa12)" style="fill: #000080; opacity: 0.5; stroke: #0000ff; stroke-linejoin: miter"/>
   </g>
   <g id="patch_68">
    <path d="M 262.3488 254.3616 
L 264.7296 254.3616 
L 264.7296 163.086795 
L 262.3488 163.086795 
z
" clip-path="url(#p3f1c7ffa12)" style="fill: #000080; opacity: 0.5; stroke: #0000ff; stroke-linejoin: miter"/>
   </g>
   <g id="patch_69">
    <path d="M 264.7296 254.3616 
L 267.1104 254.3616 
L 267.1104 162.135158 
L 264.7296 162.135158 
z
" clip-path="url(#p3f1c7ffa12)" style="fill: #000080; opacity: 0.5; stroke: #0000ff; stroke-linejoin: miter"/>
   </g>
   <g id="patch_70">
    <path d="M 267.1104 254.3616 
L 269.4912 254.3616 
L 269.4912 161.203347 
L 267.1104 161.203347 
z
" clip-path="url(#p3f1c7ffa12)" style="fill: #000080; opacity: 0.5; stroke: #0000ff; stroke-linejoin: miter"/>
   </g>
   <g id="patch_71">
    <path d="M 269.4912 254.3616 
L 271.872 254.3616 
L 271.872 160.292852 
L 269.4912 160.292852 
z
" clip-path="url(#p3f1c7ffa12)" style="fill: #000080; opacity: 0.5; stroke: #0000ff; stroke-linejoin: miter"/>
   </g>
   <g id="patch_72">
    <path d="M 271.872 254.3616 
L 274.2528 254.3616 
L 274.2528 159.405131 
L 271.872 159.405131 
z
" clip-path="url(#p3f1c7ffa12)" style="fill: #000080; opacity: 0.5; stroke: #0000ff; stroke-linejoin: miter"/>
   </g>
   <g id="patch_73">
    <path d="M 274.2528 254.3616 
L 276.6336 254.3616 
L 276.6336 158.541603 
L 274.2528 158.541603 
z
" clip-path="url(#p3f1c7ffa12)" style="fill: #000080; opacity: 0.5; stroke: #0000ff; stroke-linejoin: miter"/>
   </g>
   <g id="patch_74">
    <path d="M 276.6336 254.3616 
L 279.0144 254.3616 
L 279.0144 157.70365 
L 276.6336 157.70365 
z
" clip-path="url(#p3f1c7ffa12)" style="fill: #000080; opacity: 0.5; stroke: #0000ff; stroke-linejoin: miter"/>
   </g>
   <g id="patch_75">
    <path d="M 279.0144 254.3616 
L 281.3952 254.3616 
L 281.3952 156.892612 
L 279.0144 156.892612 
z
" clip-path="url(#p3f1c7ffa12)" style="fill: #000080; opacity: 0.5; stroke: #0000ff; stroke-linejoin: miter"/>
   </g>
   <g id="patch_76">
    <path d="M 281.3952 254.3616 
L 283.776 254.3616 
L 283.776 156.109787 
L 281.3952 156.109787 
z
" clip-path="url(#p3f1c7ffa12)" style="fill: #000080; opacity: 0.5; stroke: #0000ff; stroke-linejoin: miter"/>
   </g>
   <g id="patch_77">
    <path d="M 283.776 254.3616 
L 286.1568 254.3616 
L 286.1568 155.356427 
L 283.776 155.356427 
z
" clip-path="url(#p3f1c7ffa12)" style="fill: #000080; opacity: 0.5; stroke: #0000ff; stroke-linejoin: miter"/>
   </g>
   <g id="patch_78">
    <path d="M 286.1568 254.3616 
L 288.5376 254.3616 
L 288.5376 154.633738 
L 286.1568 154.633738 
z
" clip-path="url(#p3f1c7ffa12)" style="fill: #000080; opacity: 0.5; stroke: #0000ff; stroke-linejoin: miter"/>
   </g>
   <g id="patch_79">
    <path d="M 288.5376 254.3616 
L 290.9184 254.3616 
L 290.9184 153.942875 
L 288.5376 153.942875 
z
" clip-path="url(#p3f1c7ffa12)" style="fill: #000080; opacity: 0.5; stroke: #0000ff; stroke-linejoin: miter"/>
   </g>
   <g id="patch_80">
    <path d="M 290.9184 254.3616 
L 293.2992 254.3616 
L 293.2992 153.284944 
L 290.9184 153.284944 
z
" clip-path="url(#p3f1c7ffa12)" style="fill: #000080; opacity: 0.5; stroke: #0000ff; stroke-linejoin: miter"/>
   </g>
   <g id="patch_81">
    <path d="M 293.2992 254.3616 
L 295.68 254.3616 
L 295.68 152.660998 
L 293.2992 152.660998 
z
" clip-path="url(#p3f1c7ffa12)" style="fill: #000080; opacity: 0.5; stroke: #0000ff; stroke-linejoin: miter"/>
   </g>
   <g id="patch_82">
    <path d="M 295.68 254.3616 
L 298.0608 254.3616 
L 298.0608 152.072034 
L 295.68 152.072034 
z
" clip-path="url(#p3f1c7ffa12)" style="fill: #000080; opacity: 0.5; stroke: #0000ff; stroke-linejoin: miter"/>
   </g>
   <g id="patch_83">
    <path d="M 298.0608 254.3616 
L 300.4416 254.3616 
L 300.4416 151.518994 
L 298.0608 151.518994 
z
" clip-path="url(#p3f1c7ffa12)" style="fill: #000080; opacity: 0.5; stroke: #0000ff; stroke-linejoin: miter"/>
   </g>
   <g id="patch_84">
    <path d="M 300.4416 254.3616 
L 302.8224 254.3616 
L 302.8224 151.002764 
L 300.4416 151.002764 
z
" clip-path="url(#p3f1c7ffa12)" style="fill: #000080; opacity: 0.5; stroke: #0000ff; stroke-linejoin: miter"/>
   </g>
   <g id="patch_85">
    <path d="M 302.8224 254.3616 
L 305.2032 254.3616 
L 305.2032 150.52417 
L 302.8224 150.52417 
z
" clip-path="url(#p3f1c7ffa12)" style="fill: #000080; opacity: 0.5; stroke: #0000ff; stroke-linejoin: miter"/>
   </g>
   <g id="patch_86">
    <path d="M 305.2032 254.3616 
L 307.584 254.3616 
L 307.584 150.083977 
L 305.2032 150.083977 
z
" clip-path="url(#p3f1c7ffa12)" style="fill: #000080; opacity: 0.5; stroke: #0000ff; stroke-linejoin: miter"/>
   </g>
   <g id="patch_87">
    <path d="M 307.584 254.3616 
L 309.9648 254.3616 
L 309.9648 149.682888 
L 307.584 149.682888 
z
" clip-path="url(#p3f1c7ffa12)" style="fill: #000080; opacity: 0.5; stroke: #0000ff; stroke-linejoin: miter"/>
   </g>
   <g id="patch_88">
    <path d="M 309.9648 254.3616 
L 312.3456 254.3616 
L 312.3456 149.321547 
L 309.9648 149.321547 
z
" clip-path="url(#p3f1c7ffa12)" style="fill: #000080; opacity: 0.5; stroke: #0000ff; stroke-linejoin: miter"/>
   </g>
   <g id="patch_89">
    <path d="M 312.3456 254.3616 
L 314.7264 254.3616 
L 314.7264 149.000531 
L 312.3456 149.000531 
z
" clip-path="url(#p3f1c7ffa12)" style="fill: #000080; opacity: 0.5; stroke: #0000ff; stroke-linejoin: miter"/>
   </g>
   <g id="patch_90">
    <path d="M 314.7264 254.3616 
L 317.1072 254.3616 
L 317.1072 148.720353 
L 314.7264 148.720353 
z
" clip-path="url(#p3f1c7ffa12)" style="fill: #000080; opacity: 0.5; stroke: #0000ff; stroke-linejoin: miter"/>
   </g>
   <g id="patch_91">
    <path d="M 317.1072 254.3616 
L 319.488 254.3616 
L 319.488 148.481462 
L 317.1072 148.481462 
z
" clip-path="url(#p3f1c7ffa12)" style="fill: #000080; opacity: 0.5; stroke: #0000ff; stroke-linejoin: miter"/>
   </g>
   <g id="patch_92">
    <path d="M 319.488 254.3616 
L 321.8688 254.3616 
L 321.8688 148.284239 
L 319.488 148.284239 
z
" clip-path="url(#p3f1c7ffa12)" style="fill: #000080; opacity: 0.5; stroke: #0000ff; stroke-linejoin: miter"/>
   </g>
   <g id="patch_93">
    <path d="M 321.8688 254.3616 
L 324.2496 254.3616 
L 324.2496 148.129002 
L 321.8688 148.129002 
z
" clip-path="url(#p3f1c7ffa12)" style="fill: #000080; opacity: 0.5; stroke: #0000ff; stroke-linejoin: miter"/>
   </g>
   <g id="patch_94">
    <path d="M 324.2496 254.3616 
L 326.6304 254.3616 
L 326.6304 148.015997 
L 324.2496 148.015997 
z
" clip-path="url(#p3f1c7ffa12)" style="fill: #000080; opacity: 0.5; stroke: #0000ff; stroke-linejoin: miter"/>
   </g>
   <g id="patch_95">
    <path d="M 326.6304 254.3616 
L 329.0112 254.3616 
L 329.0112 147.945405 
L 326.6304 147.945405 
z
" clip-path="url(#p3f1c7ffa12)" style="fill: #000080; opacity: 0.5; stroke: #0000ff; stroke-linejoin: miter"/>
   </g>
   <g id="patch_96">
    <path d="M 329.0112 254.3616 
L 331.392 254.3616 
L 331.392 147.91734 
L 329.0112 147.91734 
z
" clip-path="url(#p3f1c7ffa12)" style="fill: #000080; opacity: 0.5; stroke: #0000ff; stroke-linejoin: miter"/>
   </g>
   <g id="patch_97">
    <path d="M 331.392 254.3616 
L 333.7728 254.3616 
L 333.7728 147.931846 
L 331.392 147.931846 
z
" clip-path="url(#p3f1c7ffa12)" style="fill: #000080; opacity: 0.5; stroke: #0000ff; stroke-linejoin: miter"/>
   </g>
   <g id="patch_98">
    <path d="M 333.7728 254.3616 
L 336.1536 254.3616 
L 336.1536 147.988901 
L 333.7728 147.988901 
z
" clip-path="url(#p3f1c7ffa12)" style="fill: #000080; opacity: 0.5; stroke: #0000ff; stroke-linejoin: miter"/>
   </g>
   <g id="patch_99">
    <path d="M 336.1536 254.3616 
L 338.5344 254.3616 
L 338.5344 148.088412 
L 336.1536 148.088412 
z
" clip-path="url(#p3f1c7ffa12)" style="fill: #000080; opacity: 0.5; stroke: #0000ff; stroke-linejoin: miter"/>
   </g>
   <g id="patch_100">
    <path d="M 338.5344 254.3616 
L 340.9152 254.3616 
L 340.9152 148.230221 
L 338.5344 148.230221 
z
" clip-path="url(#p3f1c7ffa12)" style="fill: #000080; opacity: 0.5; stroke: #0000ff; stroke-linejoin: miter"/>
   </g>
   <g id="patch_101">
    <path d="M 340.9152 254.3616 
L 343.296 254.3616 
L 343.296 148.414101 
L 340.9152 148.414101 
z
" clip-path="url(#p3f1c7ffa12)" style="fill: #000080; opacity: 0.5; stroke: #0000ff; stroke-linejoin: miter"/>
   </g>
   <g id="patch_102">
    <path d="M 343.296 254.3616 
L 345.6768 254.3616 
L 345.6768 148.639758 
L 343.296 148.639758 
z
" clip-path="url(#p3f1c7ffa12)" style="fill: #000080; opacity: 0.5; stroke: #0000ff; stroke-linejoin: miter"/>
   </g>
   <g id="patch_103">
    <path d="M 345.6768 254.3616 
L 348.0576 254.3616 
L 348.0576 148.90683 
L 345.6768 148.90683 
z
" clip-path="url(#p3f1c7ffa12)" style="fill: #000080; opacity: 0.5; stroke: #0000ff; stroke-linejoin: miter"/>
   </g>
   <g id="patch_104">
    <path d="M 348.0576 254.3616 
L 350.4384 254.3616 
L 350.4384 149.214891 
L 348.0576 149.214891 
z
" clip-path="url(#p3f1c7ffa12)" style="fill: #000080; opacity: 0.5; stroke: #0000ff; stroke-linejoin: miter"/>
   </g>
   <g id="patch_105">
    <path d="M 350.4384 254.3616 
L 352.8192 254.3616 
L 352.8192 149.563447 
L 350.4384 149.563447 
z
" clip-path="url(#p3f1c7ffa12)" style="fill: #000080; opacity: 0.5; stroke: #0000ff; stroke-linejoin: miter"/>
   </g>
   <g id="patch_106">
    <path d="M 352.8192 254.3616 
L 355.2 254.3616 
L 355.2 149.951942 
L 352.8192 149.951942 
z
" clip-path="url(#p3f1c7ffa12)" style="fill: #000080; opacity: 0.5; stroke: #0000ff; stroke-linejoin: miter"/>
   </g>
   <g id="legend_1">
    <g id="patch_107">
     <path d="M 358.42 64.150125 
L 407.72 64.150125 
Q 409.72 64.150125 409.72 62.150125 
L 409.72 48.472 
Q 409.72 46.472 407.72 46.472 
L 358.42 46.472 
Q 356.42 46.472 356.42 48.472 
L 356.42 62.150125 
Q 356.42 64.150125 358.42 64.150125 
z
" style="fill: #ffffff; opacity: 0.8; stroke: #cccccc; stroke-linejoin: miter"/>
    </g>
    <g id="line2d_15">
     <path d="M 360.42 54.570438 
L 370.42 54.570438 
L 380.42 54.570438 
" style="fill: none; stroke: #00ced1; stroke-width: 1.5; stroke-linecap: square"/>
    </g>
    <g id="text_17">
     <!-- $f(x)$ -->
     <g transform="translate(388.42 58.070438) scale(0.1 -0.1)">
      <defs>
       <path id="DejaVuSans-Oblique-66" d="M 3059 4863 
L 2969 4384 
L 2419 4384 
Q 2106 4384 1964 4261 
Q 1822 4138 1753 3809 
L 1691 3500 
L 2638 3500 
L 2553 3053 
L 1606 3053 
L 1013 0 
L 434 0 
L 1031 3053 
L 481 3053 
L 563 3500 
L 1113 3500 
L 1159 3744 
Q 1278 4363 1576 4613 
Q 1875 4863 2516 4863 
L 3059 4863 
z
" transform="scale(0.015625)"/>
       <path id="DejaVuSans-Oblique-78" d="M 3841 3500 
L 2234 1784 
L 3219 0 
L 2559 0 
L 1819 1388 
L 531 0 
L -166 0 
L 1556 1844 
L 641 3500 
L 1300 3500 
L 1972 2234 
L 3144 3500 
L 3841 3500 
z
" transform="scale(0.015625)"/>
      </defs>
      <use xlink:href="#DejaVuSans-Oblique-66" transform="translate(0 0.015625)"/>
      <use xlink:href="#DejaVuSans-28" transform="translate(35.205078 0.015625)"/>
      <use xlink:href="#DejaVuSans-Oblique-78" transform="translate(74.21875 0.015625)"/>
      <use xlink:href="#DejaVuSans-29" transform="translate(133.398438 0.015625)"/>
     </g>
    </g>
   </g>
  </g>
 </g>
 <defs>
  <clipPath id="p3f1c7ffa12">
   <rect x="57.6" y="41.472" width="357.12" height="266.112"/>
  </clipPath>
 </defs>
</svg>
