<?xml version="1.0" encoding="utf-8" standalone="no"?>
<!DOCTYPE svg PUBLIC "-//W3C//DTD SVG 1.1//EN"
  "http://www.w3.org/Graphics/SVG/1.1/DTD/svg11.dtd">
<svg xmlns:xlink="http://www.w3.org/1999/xlink" width="460.8pt" height="345.6pt" viewBox="0 0 460.8 345.6" xmlns="http://www.w3.org/2000/svg" version="1.1">
 <metadata>
  <rdf:RDF xmlns:dc="http://purl.org/dc/elements/1.1/" xmlns:cc="http://creativecommons.org/ns#" xmlns:rdf="http://www.w3.org/1999/02/22-rdf-syntax-ns#">
   <cc:Work>
    <dc:type rdf:resource="http://purl.org/dc/dcmitype/StillImage"/>
    <dc:date>2024-08-09T21:43:27.397152</dc:date>
    <dc:format>image/svg+xml</dc:format>
    <dc:creator>
     <cc:Agent>
      <dc:title>Matplotlib v3.8.3, https://matplotlib.org/</dc:title>
     </cc:Agent>
    </dc:creator>
   </cc:Work>
  </rdf:RDF>
 </metadata>
 <defs>
  <style type="text/css">*{stroke-linejoin: round; stroke-linecap: butt}</style>
 </defs>
 <g id="figure_1">
  <g id="patch_1">
   <path d="M 0 345.6 
L 460.8 345.6 
L 460.8 0 
L 0 0 
L 0 345.6 
z
" style="fill: none"/>
  </g>
  <g id="axes_1">
   <g id="patch_2">
    <path d="M 57.6 307.584 
L 414.72 307.584 
L 414.72 41.472 
L 57.6 41.472 
z
" style="fill: none"/>
   </g>
   <g id="LineCollection_1">
    <path d="M 57.6 263.232 
L 414.72 263.232 
" clip-path="url(#p8daaa27ddb)" style="fill: none; stroke: #d3d3d3; stroke-width: 1.5"/>
   </g>
   <g id="LineCollection_2">
    <path d="M 129.024 307.584 
L 129.024 41.472 
" clip-path="url(#p8daaa27ddb)" style="fill: none; stroke: #d3d3d3; stroke-width: 1.5"/>
   </g>
   <g id="matplotlib.axis_1">
    <g id="text_1">
     <!-- X-as -->
     <g style="fill: #d3d3d3" transform="translate(225.512344 319.182437) scale(0.1 -0.1)">
      <defs>
       <path id="DejaVuSans-58" d="M 403 4666 
L 1081 4666 
L 2241 2931 
L 3406 4666 
L 4084 4666 
L 2584 2425 
L 4184 0 
L 3506 0 
L 2194 1984 
L 872 0 
L 191 0 
L 1856 2491 
L 403 4666 
z
" transform="scale(0.015625)"/>
       <path id="DejaVuSans-2d" d="M 313 2009 
L 1997 2009 
L 1997 1497 
L 313 1497 
L 313 2009 
z
" transform="scale(0.015625)"/>
       <path id="DejaVuSans-61" d="M 2194 1759 
Q 1497 1759 1228 1600 
Q 959 1441 959 1056 
Q 959 750 1161 570 
Q 1363 391 1709 391 
Q 2188 391 2477 730 
Q 2766 1069 2766 1631 
L 2766 1759 
L 2194 1759 
z
M 3341 1997 
L 3341 0 
L 2766 0 
L 2766 531 
Q 2569 213 2275 61 
Q 1981 -91 1556 -91 
Q 1019 -91 701 211 
Q 384 513 384 1019 
Q 384 1609 779 1909 
Q 1175 2209 1959 2209 
L 2766 2209 
L 2766 2266 
Q 2766 2663 2505 2880 
Q 2244 3097 1772 3097 
Q 1472 3097 1187 3025 
Q 903 2953 641 2809 
L 641 3341 
Q 956 3463 1253 3523 
Q 1550 3584 1831 3584 
Q 2591 3584 2966 3190 
Q 3341 2797 3341 1997 
z
" transform="scale(0.015625)"/>
       <path id="DejaVuSans-73" d="M 2834 3397 
L 2834 2853 
Q 2591 2978 2328 3040 
Q 2066 3103 1784 3103 
Q 1356 3103 1142 2972 
Q 928 2841 928 2578 
Q 928 2378 1081 2264 
Q 1234 2150 1697 2047 
L 1894 2003 
Q 2506 1872 2764 1633 
Q 3022 1394 3022 966 
Q 3022 478 2636 193 
Q 2250 -91 1575 -91 
Q 1294 -91 989 -36 
Q 684 19 347 128 
L 347 722 
Q 666 556 975 473 
Q 1284 391 1588 391 
Q 1994 391 2212 530 
Q 2431 669 2431 922 
Q 2431 1156 2273 1281 
Q 2116 1406 1581 1522 
L 1381 1569 
Q 847 1681 609 1914 
Q 372 2147 372 2553 
Q 372 3047 722 3315 
Q 1072 3584 1716 3584 
Q 2034 3584 2315 3537 
Q 2597 3491 2834 3397 
z
" transform="scale(0.015625)"/>
      </defs>
      <use xlink:href="#DejaVuSans-58"/>
      <use xlink:href="#DejaVuSans-2d" x="63.505859"/>
      <use xlink:href="#DejaVuSans-61" x="99.589844"/>
      <use xlink:href="#DejaVuSans-73" x="160.869141"/>
     </g>
    </g>
   </g>
   <g id="matplotlib.axis_2">
    <g id="text_2">
     <!-- Y-as -->
     <g style="fill: #d3d3d3" transform="translate(51.520313 184.460813) rotate(-90) scale(0.1 -0.1)">
      <defs>
       <path id="DejaVuSans-59" d="M -13 4666 
L 666 4666 
L 1959 2747 
L 3244 4666 
L 3922 4666 
L 2272 2222 
L 2272 0 
L 1638 0 
L 1638 2222 
L -13 4666 
z
" transform="scale(0.015625)"/>
      </defs>
      <use xlink:href="#DejaVuSans-59"/>
      <use xlink:href="#DejaVuSans-2d" x="49.208984"/>
      <use xlink:href="#DejaVuSans-61" x="85.292969"/>
      <use xlink:href="#DejaVuSans-73" x="146.572266"/>
     </g>
    </g>
   </g>
   <g id="line2d_1">
    <path d="M 91.01503 346.6 
L 96.16896 333.822643 
L 101.88288 320.197709 
L 107.5968 307.14048 
L 113.31072 294.650957 
L 119.02464 282.729139 
L 124.73856 271.375027 
L 129.73824 261.905875 
L 134.73792 252.871373 
L 139.7376 244.27152 
L 144.73728 236.106317 
L 149.73696 228.375763 
L 154.73664 221.079859 
L 159.73632 214.218605 
L 164.02176 208.683475 
L 168.3072 203.46768 
L 172.59264 198.571219 
L 176.87808 193.994093 
L 181.16352 189.736301 
L 185.44896 185.797843 
L 189.7344 182.17872 
L 194.01984 178.878931 
L 198.30528 175.898477 
L 201.87648 173.658701 
L 205.44768 171.640685 
L 209.01888 169.844429 
L 212.59008 168.269933 
L 216.16128 166.917197 
L 219.73248 165.786221 
L 223.30368 164.877005 
L 226.87488 164.189549 
L 230.44608 163.723853 
L 234.01728 163.479917 
L 237.58848 163.457741 
L 241.15968 163.657325 
L 244.73088 164.078669 
L 248.30208 164.721773 
L 251.87328 165.586637 
L 255.44448 166.673261 
L 259.01568 167.981645 
L 262.58688 169.511789 
L 266.15808 171.263693 
L 269.72928 173.237357 
L 273.30048 175.432781 
L 276.87168 177.849965 
L 281.15712 181.043309 
L 285.44256 184.555987 
L 289.728 188.388 
L 294.01344 192.539347 
L 298.29888 197.010029 
L 302.58432 201.800045 
L 306.86976 206.909395 
L 311.1552 212.33808 
L 315.44064 218.086099 
L 320.44032 225.195725 
L 325.44 232.74 
L 330.43968 240.718925 
L 335.43936 249.132499 
L 340.43904 257.980723 
L 345.43872 267.263597 
L 350.4384 276.98112 
L 355.43808 287.133293 
L 361.152 299.268 
L 366.86592 311.970413 
L 372.57984 325.240531 
L 378.29376 339.078355 
L 381.30497 346.6 
L 381.30497 346.6 
" clip-path="url(#p8daaa27ddb)" style="fill: none; stroke: #00ced1; stroke-width: 1.5; stroke-linecap: square"/>
   </g>
   <g id="line2d_2">
    <path d="M 57.6 63.648 
L 64.02816 81.251309 
L 69.74208 96.295507 
L 75.456 110.772 
L 81.16992 124.680787 
L 86.88384 138.021869 
L 92.59776 150.795245 
L 98.31168 163.000915 
L 104.0256 174.63888 
L 109.02528 184.356403 
L 114.02496 193.639277 
L 119.02464 202.487501 
L 124.02432 210.901075 
L 129.024 218.88 
L 134.02368 226.424275 
L 139.02336 233.533901 
L 144.02304 240.208877 
L 148.30848 245.584339 
L 152.59392 250.640467 
L 156.87936 255.377261 
L 161.1648 259.79472 
L 165.45024 263.892845 
L 169.73568 267.671635 
L 174.02112 271.131091 
L 178.30656 274.271213 
L 182.592 277.092 
L 186.1632 279.19872 
L 189.7344 281.08368 
L 193.3056 282.74688 
L 196.8768 284.18832 
L 200.448 285.408 
L 204.0192 286.40592 
L 207.5904 287.18208 
L 211.1616 287.73648 
L 214.7328 288.06912 
L 218.304 288.18 
L 221.8752 288.06912 
L 225.4464 287.73648 
L 229.0176 287.18208 
L 232.5888 286.40592 
L 236.16 285.408 
L 239.7312 284.18832 
L 243.3024 282.74688 
L 246.8736 281.08368 
L 250.4448 279.19872 
L 254.016 277.092 
L 257.5872 274.76352 
L 261.87264 271.676621 
L 266.15808 268.270387 
L 270.44352 264.544819 
L 274.72896 260.499917 
L 279.0144 256.13568 
L 283.29984 251.452109 
L 287.58528 246.449203 
L 291.87072 241.126963 
L 296.15616 235.485389 
L 301.15584 228.499949 
L 306.15552 221.079859 
L 311.1552 213.22512 
L 316.15488 204.935731 
L 321.15456 196.211693 
L 326.15424 187.053005 
L 331.15392 177.459667 
L 336.1536 167.43168 
L 341.86752 155.438899 
L 347.58144 142.878413 
L 353.29536 129.750221 
L 359.00928 116.054323 
L 364.7232 101.79072 
L 370.43712 86.959411 
L 376.15104 71.560397 
L 382.5792 53.55792 
L 389.00736 34.836941 
L 395.43552 15.397459 
L 400.681366 -1 
L 400.681366 -1 
" clip-path="url(#p8daaa27ddb)" style="fill: none; stroke: #dc143c; stroke-width: 1.5; stroke-linecap: square"/>
   </g>
   <g id="patch_3">
    <path d="M 57.6 307.584 
L 57.6 41.472 
" style="fill: none; stroke: #d3d3d3; stroke-width: 0.8; stroke-linejoin: miter; stroke-linecap: square"/>
   </g>
   <g id="patch_4">
    <path d="M 414.72 307.584 
L 414.72 41.472 
" style="fill: none; stroke: #d3d3d3; stroke-width: 0.8; stroke-linejoin: miter; stroke-linecap: square"/>
   </g>
   <g id="patch_5">
    <path d="M 57.6 307.584 
L 414.72 307.584 
" style="fill: none; stroke: #d3d3d3; stroke-width: 0.8; stroke-linejoin: miter; stroke-linecap: square"/>
   </g>
   <g id="patch_6">
    <path d="M 57.6 41.472 
L 414.72 41.472 
" style="fill: none; stroke: #d3d3d3; stroke-width: 0.8; stroke-linejoin: miter; stroke-linecap: square"/>
   </g>
   <g id="PolyCollection_1">
    <defs>
     <path id="mf09aa26b83" d="M 143.3088 -106.31808 
L 143.3088 -107.20512 
L 144.02304 -108.353837 
L 144.73728 -109.493683 
L 145.45152 -110.624659 
L 146.16576 -111.746765 
L 146.88 -112.86 
L 147.59424 -113.964365 
L 148.30848 -115.059859 
L 149.02272 -116.146483 
L 149.73696 -117.224237 
L 150.4512 -118.29312 
L 151.16544 -119.353133 
L 151.87968 -120.404275 
L 152.59392 -121.446547 
L 153.30816 -122.479949 
L 154.0224 -123.50448 
L 154.73664 -124.520141 
L 155.45088 -125.526931 
L 156.16512 -126.524851 
L 156.87936 -127.513901 
L 157.5936 -128.49408 
L 158.30784 -129.465389 
L 159.02208 -130.427827 
L 159.73632 -131.381395 
L 160.45056 -132.326093 
L 161.1648 -133.26192 
L 161.87904 -134.188877 
L 162.59328 -135.106963 
L 163.30752 -136.016179 
L 164.02176 -136.916525 
L 164.736 -137.808 
L 165.45024 -138.690605 
L 166.16448 -139.564339 
L 166.87872 -140.429203 
L 167.59296 -141.285197 
L 168.3072 -142.13232 
L 169.02144 -142.970573 
L 169.73568 -143.799955 
L 170.44992 -144.620467 
L 171.16416 -145.432109 
L 171.8784 -146.23488 
L 172.59264 -147.028781 
L 173.30688 -147.813811 
L 174.02112 -148.589971 
L 174.73536 -149.357261 
L 175.4496 -150.11568 
L 176.16384 -150.865229 
L 176.87808 -151.605907 
L 177.59232 -152.337715 
L 178.30656 -153.060653 
L 179.0208 -153.77472 
L 179.73504 -154.479917 
L 180.44928 -155.176243 
L 181.16352 -155.863699 
L 181.87776 -156.542285 
L 182.592 -157.212 
L 183.30624 -157.872845 
L 184.02048 -158.524819 
L 184.73472 -159.167923 
L 185.44896 -159.802157 
L 186.1632 -160.42752 
L 186.87744 -161.044013 
L 187.59168 -161.651635 
L 188.30592 -162.250387 
L 189.02016 -162.840269 
L 189.7344 -163.42128 
L 190.44864 -163.993421 
L 191.16288 -164.556691 
L 191.87712 -165.111091 
L 192.59136 -165.656621 
L 193.3056 -166.19328 
L 194.01984 -166.721069 
L 194.73408 -167.239987 
L 195.44832 -167.750035 
L 196.16256 -168.251213 
L 196.8768 -168.74352 
L 197.59104 -169.226957 
L 198.30528 -169.701523 
L 199.01952 -170.167219 
L 199.73376 -170.624045 
L 200.448 -171.072 
L 201.16224 -171.511085 
L 201.87648 -171.941299 
L 202.59072 -172.362643 
L 203.30496 -172.775117 
L 204.0192 -173.17872 
L 204.73344 -173.573453 
L 205.44768 -173.959315 
L 206.16192 -174.336307 
L 206.87616 -174.704429 
L 207.5904 -175.06368 
L 208.30464 -175.414061 
L 209.01888 -175.755571 
L 209.73312 -176.088211 
L 210.44736 -176.411981 
L 211.1616 -176.72688 
L 211.87584 -177.032909 
L 212.59008 -177.330067 
L 213.30432 -177.618355 
L 214.01856 -177.897773 
L 214.7328 -178.16832 
L 215.44704 -178.429997 
L 216.16128 -178.682803 
L 216.87552 -178.926739 
L 217.58976 -179.161805 
L 218.304 -179.388 
L 219.01824 -179.605325 
L 219.73248 -179.813779 
L 220.44672 -180.013363 
L 221.16096 -180.204077 
L 221.8752 -180.38592 
L 222.58944 -180.558893 
L 223.30368 -180.722995 
L 224.01792 -180.878227 
L 224.73216 -181.024589 
L 225.4464 -181.16208 
L 226.16064 -181.290701 
L 226.87488 -181.410451 
L 227.58912 -181.521331 
L 228.30336 -181.623341 
L 229.0176 -181.71648 
L 229.73184 -181.800749 
L 230.44608 -181.876147 
L 231.16032 -181.942675 
L 231.87456 -182.000333 
L 232.5888 -182.04912 
L 233.30304 -182.089037 
L 234.01728 -182.120083 
L 234.73152 -182.142259 
L 235.44576 -182.155565 
L 236.16 -182.16 
L 236.87424 -182.155565 
L 237.58848 -182.142259 
L 238.30272 -182.120083 
L 239.01696 -182.089037 
L 239.7312 -182.04912 
L 240.44544 -182.000333 
L 241.15968 -181.942675 
L 241.87392 -181.876147 
L 242.58816 -181.800749 
L 243.3024 -181.71648 
L 244.01664 -181.623341 
L 244.73088 -181.521331 
L 245.44512 -181.410451 
L 246.15936 -181.290701 
L 246.8736 -181.16208 
L 247.58784 -181.024589 
L 248.30208 -180.878227 
L 249.01632 -180.722995 
L 249.73056 -180.558893 
L 250.4448 -180.38592 
L 251.15904 -180.204077 
L 251.87328 -180.013363 
L 252.58752 -179.813779 
L 253.30176 -179.605325 
L 254.016 -179.388 
L 254.73024 -179.161805 
L 255.44448 -178.926739 
L 256.15872 -178.682803 
L 256.87296 -178.429997 
L 257.5872 -178.16832 
L 258.30144 -177.897773 
L 259.01568 -177.618355 
L 259.72992 -177.330067 
L 260.44416 -177.032909 
L 261.1584 -176.72688 
L 261.87264 -176.411981 
L 262.58688 -176.088211 
L 263.30112 -175.755571 
L 264.01536 -175.414061 
L 264.7296 -175.06368 
L 265.44384 -174.704429 
L 266.15808 -174.336307 
L 266.87232 -173.959315 
L 267.58656 -173.573453 
L 268.3008 -173.17872 
L 269.01504 -172.775117 
L 269.72928 -172.362643 
L 270.44352 -171.941299 
L 271.15776 -171.511085 
L 271.872 -171.072 
L 272.58624 -170.624045 
L 273.30048 -170.167219 
L 274.01472 -169.701523 
L 274.72896 -169.226957 
L 275.4432 -168.74352 
L 276.15744 -168.251213 
L 276.87168 -167.750035 
L 277.58592 -167.239987 
L 278.30016 -166.721069 
L 279.0144 -166.19328 
L 279.72864 -165.656621 
L 280.44288 -165.111091 
L 281.15712 -164.556691 
L 281.87136 -163.993421 
L 282.5856 -163.42128 
L 283.29984 -162.840269 
L 284.01408 -162.250387 
L 284.72832 -161.651635 
L 285.44256 -161.044013 
L 286.1568 -160.42752 
L 286.87104 -159.802157 
L 287.58528 -159.167923 
L 288.29952 -158.524819 
L 289.01376 -157.872845 
L 289.728 -157.212 
L 290.44224 -156.542285 
L 291.15648 -155.863699 
L 291.87072 -155.176243 
L 292.58496 -154.479917 
L 293.2992 -153.77472 
L 294.01344 -153.060653 
L 294.72768 -152.337715 
L 295.44192 -151.605907 
L 296.15616 -150.865229 
L 296.8704 -150.11568 
L 297.58464 -149.357261 
L 298.29888 -148.589971 
L 299.01312 -147.813811 
L 299.72736 -147.028781 
L 300.4416 -146.23488 
L 301.15584 -145.432109 
L 301.87008 -144.620467 
L 302.58432 -143.799955 
L 303.29856 -142.970573 
L 304.0128 -142.13232 
L 304.72704 -141.285197 
L 305.44128 -140.429203 
L 306.15552 -139.564339 
L 306.86976 -138.690605 
L 307.584 -137.808 
L 308.29824 -136.916525 
L 309.01248 -136.016179 
L 309.72672 -135.106963 
L 310.44096 -134.188877 
L 311.1552 -133.26192 
L 311.1552 -132.37488 
L 311.1552 -132.37488 
L 310.44096 -131.226163 
L 309.72672 -130.086317 
L 309.01248 -128.955341 
L 308.29824 -127.833235 
L 307.584 -126.72 
L 306.86976 -125.615635 
L 306.15552 -124.520141 
L 305.44128 -123.433517 
L 304.72704 -122.355763 
L 304.0128 -121.28688 
L 303.29856 -120.226867 
L 302.58432 -119.175725 
L 301.87008 -118.133453 
L 301.15584 -117.100051 
L 300.4416 -116.07552 
L 299.72736 -115.059859 
L 299.01312 -114.053069 
L 298.29888 -113.055149 
L 297.58464 -112.066099 
L 296.8704 -111.08592 
L 296.15616 -110.114611 
L 295.44192 -109.152173 
L 294.72768 -108.198605 
L 294.01344 -107.253907 
L 293.2992 -106.31808 
L 292.58496 -105.391123 
L 291.87072 -104.473037 
L 291.15648 -103.563821 
L 290.44224 -102.663475 
L 289.728 -101.772 
L 289.01376 -100.889395 
L 288.29952 -100.015661 
L 287.58528 -99.150797 
L 286.87104 -98.294803 
L 286.1568 -97.44768 
L 285.44256 -96.609427 
L 284.72832 -95.780045 
L 284.01408 -94.959533 
L 283.29984 -94.147891 
L 282.5856 -93.34512 
L 281.87136 -92.551219 
L 281.15712 -91.766189 
L 280.44288 -90.990029 
L 279.72864 -90.222739 
L 279.0144 -89.46432 
L 278.30016 -88.714771 
L 277.58592 -87.974093 
L 276.87168 -87.242285 
L 276.15744 -86.519347 
L 275.4432 -85.80528 
L 274.72896 -85.100083 
L 274.01472 -84.403757 
L 273.30048 -83.716301 
L 272.58624 -83.037715 
L 271.872 -82.368 
L 271.15776 -81.707155 
L 270.44352 -81.055181 
L 269.72928 -80.412077 
L 269.01504 -79.777843 
L 268.3008 -79.15248 
L 267.58656 -78.535987 
L 266.87232 -77.928365 
L 266.15808 -77.329613 
L 265.44384 -76.739731 
L 264.7296 -76.15872 
L 264.01536 -75.586579 
L 263.30112 -75.023309 
L 262.58688 -74.468909 
L 261.87264 -73.923379 
L 261.1584 -73.38672 
L 260.44416 -72.858931 
L 259.72992 -72.340013 
L 259.01568 -71.829965 
L 258.30144 -71.328787 
L 257.5872 -70.83648 
L 256.87296 -70.353043 
L 256.15872 -69.878477 
L 255.44448 -69.412781 
L 254.73024 -68.955955 
L 254.016 -68.508 
L 253.30176 -68.068915 
L 252.58752 -67.638701 
L 251.87328 -67.217357 
L 251.15904 -66.804883 
L 250.4448 -66.40128 
L 249.73056 -66.006547 
L 249.01632 -65.620685 
L 248.30208 -65.243693 
L 247.58784 -64.875571 
L 246.8736 -64.51632 
L 246.15936 -64.165939 
L 245.44512 -63.824429 
L 244.73088 -63.491789 
L 244.01664 -63.168019 
L 243.3024 -62.85312 
L 242.58816 -62.547091 
L 241.87392 -62.249933 
L 241.15968 -61.961645 
L 240.44544 -61.682227 
L 239.7312 -61.41168 
L 239.01696 -61.150003 
L 238.30272 -60.897197 
L 237.58848 -60.653261 
L 236.87424 -60.418195 
L 236.16 -60.192 
L 235.44576 -59.974675 
L 234.73152 -59.766221 
L 234.01728 -59.566637 
L 233.30304 -59.375923 
L 232.5888 -59.19408 
L 231.87456 -59.021107 
L 231.16032 -58.857005 
L 230.44608 -58.701773 
L 229.73184 -58.555411 
L 229.0176 -58.41792 
L 228.30336 -58.289299 
L 227.58912 -58.169549 
L 226.87488 -58.058669 
L 226.16064 -57.956659 
L 225.4464 -57.86352 
L 224.73216 -57.779251 
L 224.01792 -57.703853 
L 223.30368 -57.637325 
L 222.58944 -57.579667 
L 221.8752 -57.53088 
L 221.16096 -57.490963 
L 220.44672 -57.459917 
L 219.73248 -57.437741 
L 219.01824 -57.424435 
L 218.304 -57.42 
L 217.58976 -57.424435 
L 216.87552 -57.437741 
L 216.16128 -57.459917 
L 215.44704 -57.490963 
L 214.7328 -57.53088 
L 214.01856 -57.579667 
L 213.30432 -57.637325 
L 212.59008 -57.703853 
L 211.87584 -57.779251 
L 211.1616 -57.86352 
L 210.44736 -57.956659 
L 209.73312 -58.058669 
L 209.01888 -58.169549 
L 208.30464 -58.289299 
L 207.5904 -58.41792 
L 206.87616 -58.555411 
L 206.16192 -58.701773 
L 205.44768 -58.857005 
L 204.73344 -59.021107 
L 204.0192 -59.19408 
L 203.30496 -59.375923 
L 202.59072 -59.566637 
L 201.87648 -59.766221 
L 201.16224 -59.974675 
L 200.448 -60.192 
L 199.73376 -60.418195 
L 199.01952 -60.653261 
L 198.30528 -60.897197 
L 197.59104 -61.150003 
L 196.8768 -61.41168 
L 196.16256 -61.682227 
L 195.44832 -61.961645 
L 194.73408 -62.249933 
L 194.01984 -62.547091 
L 193.3056 -62.85312 
L 192.59136 -63.168019 
L 191.87712 -63.491789 
L 191.16288 -63.824429 
L 190.44864 -64.165939 
L 189.7344 -64.51632 
L 189.02016 -64.875571 
L 188.30592 -65.243693 
L 187.59168 -65.620685 
L 186.87744 -66.006547 
L 186.1632 -66.40128 
L 185.44896 -66.804883 
L 184.73472 -67.217357 
L 184.02048 -67.638701 
L 183.30624 -68.068915 
L 182.592 -68.508 
L 181.87776 -68.955955 
L 181.16352 -69.412781 
L 180.44928 -69.878477 
L 179.73504 -70.353043 
L 179.0208 -70.83648 
L 178.30656 -71.328787 
L 177.59232 -71.829965 
L 176.87808 -72.340013 
L 176.16384 -72.858931 
L 175.4496 -73.38672 
L 174.73536 -73.923379 
L 174.02112 -74.468909 
L 173.30688 -75.023309 
L 172.59264 -75.586579 
L 171.8784 -76.15872 
L 171.16416 -76.739731 
L 170.44992 -77.329613 
L 169.73568 -77.928365 
L 169.02144 -78.535987 
L 168.3072 -79.15248 
L 167.59296 -79.777843 
L 166.87872 -80.412077 
L 166.16448 -81.055181 
L 165.45024 -81.707155 
L 164.736 -82.368 
L 164.02176 -83.037715 
L 163.30752 -83.716301 
L 162.59328 -84.403757 
L 161.87904 -85.100083 
L 161.1648 -85.80528 
L 160.45056 -86.519347 
L 159.73632 -87.242285 
L 159.02208 -87.974093 
L 158.30784 -88.714771 
L 157.5936 -89.46432 
L 156.87936 -90.222739 
L 156.16512 -90.990029 
L 155.45088 -91.766189 
L 154.73664 -92.551219 
L 154.0224 -93.34512 
L 153.30816 -94.147891 
L 152.59392 -94.959533 
L 151.87968 -95.780045 
L 151.16544 -96.609427 
L 150.4512 -97.44768 
L 149.73696 -98.294803 
L 149.02272 -99.150797 
L 148.30848 -100.015661 
L 147.59424 -100.889395 
L 146.88 -101.772 
L 146.16576 -102.663475 
L 145.45152 -103.563821 
L 144.73728 -104.473037 
L 144.02304 -105.391123 
L 143.3088 -106.31808 
z
" style="stroke: #9400d3; stroke-opacity: 0.7"/>
    </defs>
    <g clip-path="url(#p8daaa27ddb)">
     <use xlink:href="#mf09aa26b83" x="0" y="345.6" style="fill: #9400d3; fill-opacity: 0.7; stroke: #9400d3; stroke-opacity: 0.7"/>
    </g>
   </g>
   <g id="text_3">
    <!-- $V$ -->
    <g style="fill: #ffffff" transform="translate(221.8752 227.7504) scale(0.1728 -0.1728)">
     <defs>
      <path id="DejaVuSans-Oblique-56" d="M 1319 0 
L 500 4666 
L 1119 4666 
L 1797 653 
L 4063 4666 
L 4750 4666 
L 2053 0 
L 1319 0 
z
" transform="scale(0.015625)"/>
     </defs>
     <use xlink:href="#DejaVuSans-Oblique-56" transform="translate(0 0.09375)"/>
    </g>
   </g>
   <g id="text_4">
    <!-- Oppervlakte tussen twee functies onder de x-as -->
    <g style="fill: #d3d3d3" transform="translate(91.949062 35.472) scale(0.12 -0.12)">
     <defs>
      <path id="DejaVuSans-4f" d="M 2522 4238 
Q 1834 4238 1429 3725 
Q 1025 3213 1025 2328 
Q 1025 1447 1429 934 
Q 1834 422 2522 422 
Q 3209 422 3611 934 
Q 4013 1447 4013 2328 
Q 4013 3213 3611 3725 
Q 3209 4238 2522 4238 
z
M 2522 4750 
Q 3503 4750 4090 4092 
Q 4678 3434 4678 2328 
Q 4678 1225 4090 567 
Q 3503 -91 2522 -91 
Q 1538 -91 948 565 
Q 359 1222 359 2328 
Q 359 3434 948 4092 
Q 1538 4750 2522 4750 
z
" transform="scale(0.015625)"/>
      <path id="DejaVuSans-70" d="M 1159 525 
L 1159 -1331 
L 581 -1331 
L 581 3500 
L 1159 3500 
L 1159 2969 
Q 1341 3281 1617 3432 
Q 1894 3584 2278 3584 
Q 2916 3584 3314 3078 
Q 3713 2572 3713 1747 
Q 3713 922 3314 415 
Q 2916 -91 2278 -91 
Q 1894 -91 1617 61 
Q 1341 213 1159 525 
z
M 3116 1747 
Q 3116 2381 2855 2742 
Q 2594 3103 2138 3103 
Q 1681 3103 1420 2742 
Q 1159 2381 1159 1747 
Q 1159 1113 1420 752 
Q 1681 391 2138 391 
Q 2594 391 2855 752 
Q 3116 1113 3116 1747 
z
" transform="scale(0.015625)"/>
      <path id="DejaVuSans-65" d="M 3597 1894 
L 3597 1613 
L 953 1613 
Q 991 1019 1311 708 
Q 1631 397 2203 397 
Q 2534 397 2845 478 
Q 3156 559 3463 722 
L 3463 178 
Q 3153 47 2828 -22 
Q 2503 -91 2169 -91 
Q 1331 -91 842 396 
Q 353 884 353 1716 
Q 353 2575 817 3079 
Q 1281 3584 2069 3584 
Q 2775 3584 3186 3129 
Q 3597 2675 3597 1894 
z
M 3022 2063 
Q 3016 2534 2758 2815 
Q 2500 3097 2075 3097 
Q 1594 3097 1305 2825 
Q 1016 2553 972 2059 
L 3022 2063 
z
" transform="scale(0.015625)"/>
      <path id="DejaVuSans-72" d="M 2631 2963 
Q 2534 3019 2420 3045 
Q 2306 3072 2169 3072 
Q 1681 3072 1420 2755 
Q 1159 2438 1159 1844 
L 1159 0 
L 581 0 
L 581 3500 
L 1159 3500 
L 1159 2956 
Q 1341 3275 1631 3429 
Q 1922 3584 2338 3584 
Q 2397 3584 2469 3576 
Q 2541 3569 2628 3553 
L 2631 2963 
z
" transform="scale(0.015625)"/>
      <path id="DejaVuSans-76" d="M 191 3500 
L 800 3500 
L 1894 563 
L 2988 3500 
L 3597 3500 
L 2284 0 
L 1503 0 
L 191 3500 
z
" transform="scale(0.015625)"/>
      <path id="DejaVuSans-6c" d="M 603 4863 
L 1178 4863 
L 1178 0 
L 603 0 
L 603 4863 
z
" transform="scale(0.015625)"/>
      <path id="DejaVuSans-6b" d="M 581 4863 
L 1159 4863 
L 1159 1991 
L 2875 3500 
L 3609 3500 
L 1753 1863 
L 3688 0 
L 2938 0 
L 1159 1709 
L 1159 0 
L 581 0 
L 581 4863 
z
" transform="scale(0.015625)"/>
      <path id="DejaVuSans-74" d="M 1172 4494 
L 1172 3500 
L 2356 3500 
L 2356 3053 
L 1172 3053 
L 1172 1153 
Q 1172 725 1289 603 
Q 1406 481 1766 481 
L 2356 481 
L 2356 0 
L 1766 0 
Q 1100 0 847 248 
Q 594 497 594 1153 
L 594 3053 
L 172 3053 
L 172 3500 
L 594 3500 
L 594 4494 
L 1172 4494 
z
" transform="scale(0.015625)"/>
      <path id="DejaVuSans-20" transform="scale(0.015625)"/>
      <path id="DejaVuSans-75" d="M 544 1381 
L 544 3500 
L 1119 3500 
L 1119 1403 
Q 1119 906 1312 657 
Q 1506 409 1894 409 
Q 2359 409 2629 706 
Q 2900 1003 2900 1516 
L 2900 3500 
L 3475 3500 
L 3475 0 
L 2900 0 
L 2900 538 
Q 2691 219 2414 64 
Q 2138 -91 1772 -91 
Q 1169 -91 856 284 
Q 544 659 544 1381 
z
M 1991 3584 
L 1991 3584 
z
" transform="scale(0.015625)"/>
      <path id="DejaVuSans-6e" d="M 3513 2113 
L 3513 0 
L 2938 0 
L 2938 2094 
Q 2938 2591 2744 2837 
Q 2550 3084 2163 3084 
Q 1697 3084 1428 2787 
Q 1159 2491 1159 1978 
L 1159 0 
L 581 0 
L 581 3500 
L 1159 3500 
L 1159 2956 
Q 1366 3272 1645 3428 
Q 1925 3584 2291 3584 
Q 2894 3584 3203 3211 
Q 3513 2838 3513 2113 
z
" transform="scale(0.015625)"/>
      <path id="DejaVuSans-77" d="M 269 3500 
L 844 3500 
L 1563 769 
L 2278 3500 
L 2956 3500 
L 3675 769 
L 4391 3500 
L 4966 3500 
L 4050 0 
L 3372 0 
L 2619 2869 
L 1863 0 
L 1184 0 
L 269 3500 
z
" transform="scale(0.015625)"/>
      <path id="DejaVuSans-66" d="M 2375 4863 
L 2375 4384 
L 1825 4384 
Q 1516 4384 1395 4259 
Q 1275 4134 1275 3809 
L 1275 3500 
L 2222 3500 
L 2222 3053 
L 1275 3053 
L 1275 0 
L 697 0 
L 697 3053 
L 147 3053 
L 147 3500 
L 697 3500 
L 697 3744 
Q 697 4328 969 4595 
Q 1241 4863 1831 4863 
L 2375 4863 
z
" transform="scale(0.015625)"/>
      <path id="DejaVuSans-63" d="M 3122 3366 
L 3122 2828 
Q 2878 2963 2633 3030 
Q 2388 3097 2138 3097 
Q 1578 3097 1268 2742 
Q 959 2388 959 1747 
Q 959 1106 1268 751 
Q 1578 397 2138 397 
Q 2388 397 2633 464 
Q 2878 531 3122 666 
L 3122 134 
Q 2881 22 2623 -34 
Q 2366 -91 2075 -91 
Q 1284 -91 818 406 
Q 353 903 353 1747 
Q 353 2603 823 3093 
Q 1294 3584 2113 3584 
Q 2378 3584 2631 3529 
Q 2884 3475 3122 3366 
z
" transform="scale(0.015625)"/>
      <path id="DejaVuSans-69" d="M 603 3500 
L 1178 3500 
L 1178 0 
L 603 0 
L 603 3500 
z
M 603 4863 
L 1178 4863 
L 1178 4134 
L 603 4134 
L 603 4863 
z
" transform="scale(0.015625)"/>
      <path id="DejaVuSans-6f" d="M 1959 3097 
Q 1497 3097 1228 2736 
Q 959 2375 959 1747 
Q 959 1119 1226 758 
Q 1494 397 1959 397 
Q 2419 397 2687 759 
Q 2956 1122 2956 1747 
Q 2956 2369 2687 2733 
Q 2419 3097 1959 3097 
z
M 1959 3584 
Q 2709 3584 3137 3096 
Q 3566 2609 3566 1747 
Q 3566 888 3137 398 
Q 2709 -91 1959 -91 
Q 1206 -91 779 398 
Q 353 888 353 1747 
Q 353 2609 779 3096 
Q 1206 3584 1959 3584 
z
" transform="scale(0.015625)"/>
      <path id="DejaVuSans-64" d="M 2906 2969 
L 2906 4863 
L 3481 4863 
L 3481 0 
L 2906 0 
L 2906 525 
Q 2725 213 2448 61 
Q 2172 -91 1784 -91 
Q 1150 -91 751 415 
Q 353 922 353 1747 
Q 353 2572 751 3078 
Q 1150 3584 1784 3584 
Q 2172 3584 2448 3432 
Q 2725 3281 2906 2969 
z
M 947 1747 
Q 947 1113 1208 752 
Q 1469 391 1925 391 
Q 2381 391 2643 752 
Q 2906 1113 2906 1747 
Q 2906 2381 2643 2742 
Q 2381 3103 1925 3103 
Q 1469 3103 1208 2742 
Q 947 2381 947 1747 
z
" transform="scale(0.015625)"/>
      <path id="DejaVuSans-78" d="M 3513 3500 
L 2247 1797 
L 3578 0 
L 2900 0 
L 1881 1375 
L 863 0 
L 184 0 
L 1544 1831 
L 300 3500 
L 978 3500 
L 1906 2253 
L 2834 3500 
L 3513 3500 
z
" transform="scale(0.015625)"/>
     </defs>
     <use xlink:href="#DejaVuSans-4f"/>
     <use xlink:href="#DejaVuSans-70" x="78.710938"/>
     <use xlink:href="#DejaVuSans-70" x="142.1875"/>
     <use xlink:href="#DejaVuSans-65" x="205.664062"/>
     <use xlink:href="#DejaVuSans-72" x="267.1875"/>
     <use xlink:href="#DejaVuSans-76" x="308.300781"/>
     <use xlink:href="#DejaVuSans-6c" x="367.480469"/>
     <use xlink:href="#DejaVuSans-61" x="395.263672"/>
     <use xlink:href="#DejaVuSans-6b" x="456.542969"/>
     <use xlink:href="#DejaVuSans-74" x="514.453125"/>
     <use xlink:href="#DejaVuSans-65" x="553.662109"/>
     <use xlink:href="#DejaVuSans-20" x="615.185547"/>
     <use xlink:href="#DejaVuSans-74" x="646.972656"/>
     <use xlink:href="#DejaVuSans-75" x="686.181641"/>
     <use xlink:href="#DejaVuSans-73" x="749.560547"/>
     <use xlink:href="#DejaVuSans-73" x="801.660156"/>
     <use xlink:href="#DejaVuSans-65" x="853.759766"/>
     <use xlink:href="#DejaVuSans-6e" x="915.283203"/>
     <use xlink:href="#DejaVuSans-20" x="978.662109"/>
     <use xlink:href="#DejaVuSans-74" x="1010.449219"/>
     <use xlink:href="#DejaVuSans-77" x="1049.658203"/>
     <use xlink:href="#DejaVuSans-65" x="1131.445312"/>
     <use xlink:href="#DejaVuSans-65" x="1192.96875"/>
     <use xlink:href="#DejaVuSans-20" x="1254.492188"/>
     <use xlink:href="#DejaVuSans-66" x="1286.279297"/>
     <use xlink:href="#DejaVuSans-75" x="1321.484375"/>
     <use xlink:href="#DejaVuSans-6e" x="1384.863281"/>
     <use xlink:href="#DejaVuSans-63" x="1448.242188"/>
     <use xlink:href="#DejaVuSans-74" x="1503.222656"/>
     <use xlink:href="#DejaVuSans-69" x="1542.431641"/>
     <use xlink:href="#DejaVuSans-65" x="1570.214844"/>
     <use xlink:href="#DejaVuSans-73" x="1631.738281"/>
     <use xlink:href="#DejaVuSans-20" x="1683.837891"/>
     <use xlink:href="#DejaVuSans-6f" x="1715.625"/>
     <use xlink:href="#DejaVuSans-6e" x="1776.806641"/>
     <use xlink:href="#DejaVuSans-64" x="1840.185547"/>
     <use xlink:href="#DejaVuSans-65" x="1903.662109"/>
     <use xlink:href="#DejaVuSans-72" x="1965.185547"/>
     <use xlink:href="#DejaVuSans-20" x="2006.298828"/>
     <use xlink:href="#DejaVuSans-64" x="2038.085938"/>
     <use xlink:href="#DejaVuSans-65" x="2101.5625"/>
     <use xlink:href="#DejaVuSans-20" x="2163.085938"/>
     <use xlink:href="#DejaVuSans-78" x="2194.873047"/>
     <use xlink:href="#DejaVuSans-2d" x="2254.052734"/>
     <use xlink:href="#DejaVuSans-61" x="2290.136719"/>
     <use xlink:href="#DejaVuSans-73" x="2351.416016"/>
    </g>
   </g>
   <g id="PathCollection_1">
    <defs>
     <path id="m85bced1d86" d="M 0 3 
C 0.795609 3 1.55874 2.683901 2.12132 2.12132 
C 2.683901 1.55874 3 0.795609 3 0 
C 3 -0.795609 2.683901 -1.55874 2.12132 -2.12132 
C 1.55874 -2.683901 0.795609 -3 0 -3 
C -0.795609 -3 -1.55874 -2.683901 -2.12132 -2.12132 
C -2.683901 -1.55874 -3 -0.795609 -3 0 
C -3 0.795609 -2.683901 1.55874 -2.12132 2.12132 
C -1.55874 2.683901 -0.795609 3 0 3 
z
" style="stroke: #7fffd4"/>
    </defs>
    <g clip-path="url(#p8daaa27ddb)">
     <use xlink:href="#m85bced1d86" x="143.005416" y="238.885498" style="fill: #7fffd4; stroke: #7fffd4"/>
    </g>
   </g>
   <g id="PathCollection_2">
    <g clip-path="url(#p8daaa27ddb)">
     <use xlink:href="#m85bced1d86" x="311.458584" y="212.734502" style="fill: #7fffd4; stroke: #7fffd4"/>
    </g>
   </g>
   <g id="legend_1">
    <g id="patch_7">
     <path d="M 355.62 78.850125 
L 407.72 78.850125 
Q 409.72 78.850125 409.72 76.850125 
L 409.72 48.472 
Q 409.72 46.472 407.72 46.472 
L 355.62 46.472 
Q 353.62 46.472 353.62 48.472 
L 353.62 76.850125 
Q 353.62 78.850125 355.62 78.850125 
z
" style="fill: #ffffff; opacity: 0.8; stroke: #cccccc; stroke-linejoin: miter"/>
    </g>
    <g id="line2d_3">
     <path d="M 357.62 54.570437 
L 367.62 54.570437 
L 377.62 54.570437 
" style="fill: none; stroke: #00ced1; stroke-width: 1.5; stroke-linecap: square"/>
    </g>
    <g id="text_5">
     <!-- $f(x)$ -->
     <g transform="translate(385.62 58.070437) scale(0.1 -0.1)">
      <defs>
       <path id="DejaVuSans-Oblique-66" d="M 3059 4863 
L 2969 4384 
L 2419 4384 
Q 2106 4384 1964 4261 
Q 1822 4138 1753 3809 
L 1691 3500 
L 2638 3500 
L 2553 3053 
L 1606 3053 
L 1013 0 
L 434 0 
L 1031 3053 
L 481 3053 
L 563 3500 
L 1113 3500 
L 1159 3744 
Q 1278 4363 1576 4613 
Q 1875 4863 2516 4863 
L 3059 4863 
z
" transform="scale(0.015625)"/>
       <path id="DejaVuSans-28" d="M 1984 4856 
Q 1566 4138 1362 3434 
Q 1159 2731 1159 2009 
Q 1159 1288 1364 580 
Q 1569 -128 1984 -844 
L 1484 -844 
Q 1016 -109 783 600 
Q 550 1309 550 2009 
Q 550 2706 781 3412 
Q 1013 4119 1484 4856 
L 1984 4856 
z
" transform="scale(0.015625)"/>
       <path id="DejaVuSans-Oblique-78" d="M 3841 3500 
L 2234 1784 
L 3219 0 
L 2559 0 
L 1819 1388 
L 531 0 
L -166 0 
L 1556 1844 
L 641 3500 
L 1300 3500 
L 1972 2234 
L 3144 3500 
L 3841 3500 
z
" transform="scale(0.015625)"/>
       <path id="DejaVuSans-29" d="M 513 4856 
L 1013 4856 
Q 1481 4119 1714 3412 
Q 1947 2706 1947 2009 
Q 1947 1309 1714 600 
Q 1481 -109 1013 -844 
L 513 -844 
Q 928 -128 1133 580 
Q 1338 1288 1338 2009 
Q 1338 2731 1133 3434 
Q 928 4138 513 4856 
z
" transform="scale(0.015625)"/>
      </defs>
      <use xlink:href="#DejaVuSans-Oblique-66" transform="translate(0 0.015625)"/>
      <use xlink:href="#DejaVuSans-28" transform="translate(35.205078 0.015625)"/>
      <use xlink:href="#DejaVuSans-Oblique-78" transform="translate(74.21875 0.015625)"/>
      <use xlink:href="#DejaVuSans-29" transform="translate(133.398438 0.015625)"/>
     </g>
    </g>
    <g id="line2d_4">
     <path d="M 357.62 69.250125 
L 367.62 69.250125 
L 377.62 69.250125 
" style="fill: none; stroke: #dc143c; stroke-width: 1.5; stroke-linecap: square"/>
    </g>
    <g id="text_6">
     <!-- $g(x)$ -->
     <g transform="translate(385.62 72.750125) scale(0.1 -0.1)">
      <defs>
       <path id="DejaVuSans-Oblique-67" d="M 3816 3500 
L 3219 434 
Q 3047 -456 2561 -893 
Q 2075 -1331 1253 -1331 
Q 950 -1331 690 -1286 
Q 431 -1241 206 -1147 
L 313 -588 
Q 525 -725 762 -790 
Q 1000 -856 1269 -856 
Q 1816 -856 2167 -557 
Q 2519 -259 2631 300 
L 2681 563 
Q 2441 288 2122 144 
Q 1803 0 1434 0 
Q 903 0 598 351 
Q 294 703 294 1319 
Q 294 1803 478 2267 
Q 663 2731 997 3091 
Q 1219 3328 1514 3456 
Q 1809 3584 2131 3584 
Q 2484 3584 2746 3420 
Q 3009 3256 3138 2956 
L 3238 3500 
L 3816 3500 
z
M 2950 2216 
Q 2950 2641 2750 2872 
Q 2550 3103 2181 3103 
Q 1953 3103 1747 3012 
Q 1541 2922 1394 2759 
Q 1156 2491 1023 2127 
Q 891 1763 891 1375 
Q 891 944 1092 712 
Q 1294 481 1672 481 
Q 2219 481 2584 976 
Q 2950 1472 2950 2216 
z
" transform="scale(0.015625)"/>
      </defs>
      <use xlink:href="#DejaVuSans-Oblique-67" transform="translate(0 0.125)"/>
      <use xlink:href="#DejaVuSans-28" transform="translate(63.476562 0.125)"/>
      <use xlink:href="#DejaVuSans-Oblique-78" transform="translate(102.490234 0.125)"/>
      <use xlink:href="#DejaVuSans-29" transform="translate(161.669922 0.125)"/>
     </g>
    </g>
   </g>
  </g>
 </g>
 <defs>
  <clipPath id="p8daaa27ddb">
   <rect x="57.6" y="41.472" width="357.12" height="266.112"/>
  </clipPath>
 </defs>
</svg>
