<svg width="756" height="720" xmlns="http://www.w3.org/2000/svg" xmlns:xlink="http://www.w3.org/1999/xlink" overflow="hidden"><defs><clipPath id="clip0"><rect x="0" y="0" width="756" height="720"/></clipPath><clipPath id="clip1"><rect x="73" y="67" width="290" height="290"/></clipPath><clipPath id="clip2"><rect x="73" y="67" width="290" height="290"/></clipPath><clipPath id="clip3"><rect x="73" y="67" width="290" height="290"/></clipPath><clipPath id="clip4"><rect x="399" y="372" width="291" height="290"/></clipPath><clipPath id="clip5"><rect x="399" y="372" width="291" height="290"/></clipPath><clipPath id="clip6"><rect x="399" y="372" width="291" height="290"/></clipPath><clipPath id="clip7"><rect x="73" y="364" width="290" height="290"/></clipPath><clipPath id="clip8"><rect x="73" y="364" width="290" height="290"/></clipPath><clipPath id="clip9"><rect x="73" y="364" width="290" height="290"/></clipPath><clipPath id="clip10"><rect x="409" y="83" width="263" height="262"/></clipPath><clipPath id="clip11"><rect x="409" y="83" width="263" height="262"/></clipPath><clipPath id="clip12"><rect x="409" y="83" width="263" height="262"/></clipPath></defs><g clip-path="url(#clip0)"><rect x="0" y="0" width="756" height="719.841" fill="none"/><path d="M14.5 130.474C14.5 66.9736 65.9883 15.4966 129.502 15.4966L627.498 15.4966C691.012 15.4966 742.5 66.9736 742.5 130.474L742.5 590.367C742.5 653.867 691.012 705.344 627.498 705.344L129.502 705.344C65.9883 705.344 14.5 653.867 14.5 590.367Z" stroke="#000000" stroke-width="1.33363" stroke-miterlimit="8" fill="#C00000" fill-rule="evenodd"/><path d="M49.5 157.968C49.5 100.817 95.8396 54.488 153.002 54.488L598.998 54.488C656.16 54.488 702.5 100.817 702.5 157.968L702.5 571.872C702.5 629.022 656.16 675.351 598.998 675.351L153.002 675.351C95.8396 675.351 49.5 629.022 49.5 571.872Z" stroke="#000000" stroke-width="1.33363" stroke-miterlimit="8" fill="#8FAADC" fill-rule="evenodd"/><g clip-path="url(#clip1)"><g clip-path="url(#clip2)"><g clip-path="url(#clip3)"><path d="M60.1951 42.1365 42.1365 42.1365 42.1365 246.8 246.8 246.8 246.8 228.741 60.1951 228.741 60.1951 42.1365Z" transform="matrix(1.00022 0 0 1 73 67.985)"/><path d="M76.5591 194.854 75.2438 194.854 75.2438 212.913 76.5591 212.913C133.443 212.913 191.613 202.018 223.754 73.0587L243.79 78.3529 222.722 42.1365 186.496 63.2048 206.294 68.4358C174.837 194.83 118.091 194.854 76.5591 194.854Z" transform="matrix(1.00022 0 0 1 73 67.985)"/></g></g></g><g clip-path="url(#clip4)"><g clip-path="url(#clip5)"><g clip-path="url(#clip6)"><path d="M198.644 102.332 90.2926 102.332 90.2926 54.1755 198.644 54.1755 198.644 102.332ZM198.644 144.468 180.585 144.468 180.585 126.41 198.644 126.41 198.644 144.468ZM198.644 174.566 180.585 174.566 180.585 156.507 198.644 156.507 198.644 174.566ZM198.644 204.663 180.585 204.663 180.585 186.605 198.644 186.605 198.644 204.663ZM198.644 234.761 180.585 234.761 180.585 216.702 198.644 216.702 198.644 234.761ZM168.546 144.468 150.488 144.468 150.488 126.41 168.546 126.41 168.546 144.468ZM168.546 174.566 150.488 174.566 150.488 156.507 168.546 156.507 168.546 174.566ZM168.546 204.663 150.488 204.663 150.488 186.605 168.546 186.605 168.546 204.663ZM168.546 234.761 150.488 234.761 150.488 216.702 168.546 216.702 168.546 234.761ZM138.449 144.468 120.39 144.468 120.39 126.41 138.449 126.41 138.449 144.468ZM138.449 174.566 120.39 174.566 120.39 156.507 138.449 156.507 138.449 174.566ZM138.449 204.663 120.39 204.663 120.39 186.605 138.449 186.605 138.449 204.663ZM138.449 234.761 90.2926 234.761 90.2926 216.702 138.449 216.702 138.449 234.761ZM90.2926 186.605 108.351 186.605 108.351 204.663 90.2926 204.663 90.2926 186.605ZM90.2926 156.507 108.351 156.507 108.351 174.566 90.2926 174.566 90.2926 156.507ZM90.2926 126.41 108.351 126.41 108.351 144.468 90.2926 144.468 90.2926 126.41ZM216.702 24.078 72.2341 24.078C65.6126 24.078 60.1951 29.4956 60.1951 36.117L60.1951 252.819C60.1951 259.441 65.6126 264.858 72.2341 264.858L216.702 264.858C223.324 264.858 228.741 259.441 228.741 252.819L228.741 36.117C228.741 29.4956 223.324 24.078 216.702 24.078Z" transform="matrix(1.00368 0 0 1 400 372.918)"/></g></g></g><g clip-path="url(#clip7)"><g clip-path="url(#clip8)"><g clip-path="url(#clip9)"><path d="M233.009 228.741 60.1951 55.9393 60.1951 30.0975 30.0975 30.0975 30.0975 60.1951 42.1365 60.1951 42.1365 228.741 30.0975 228.741 30.0975 258.839 60.1951 258.839 60.1951 246.8 228.741 246.8 228.741 258.839 258.839 258.839 258.839 228.741ZM36.117 36.117 54.1755 36.117 54.1755 54.1755 36.117 54.1755ZM54.1755 252.819 36.117 252.819 36.117 234.761 54.1755 234.761ZM48.156 228.741 48.156 186.605 102.332 186.605 102.332 240.78 60.1951 240.78 60.1951 228.741ZM108.351 240.78 108.351 180.585 48.156 180.585 48.156 60.1951 55.9393 60.1951 228.741 232.985 228.741 240.78ZM252.819 252.819 234.761 252.819 234.761 234.761 252.819 234.761Z" transform="matrix(1.00022 0 0 1 73 364.92)"/></g></g></g><g clip-path="url(#clip10)"><g clip-path="url(#clip11)"><g clip-path="url(#clip12)"><path d="M246.264 98.6689 232.13 93.5044 232.13 63.8765 246.264 57.8966 150.586 22.5606 34.2487 63.3329C23.1043 68.7692 22.8325 83.719 22.8325 95.9507 22.8325 100.028 23.3761 104.105 24.1915 107.911 14.9498 113.891 14.678 127.753 14.678 139.441 14.678 148.955 16.8525 157.653 22.8325 163.089 21.4734 167.71 22.2888 173.418 22.2888 180.213 22.2888 192.445 25.5506 203.589 36.4232 207.395L111.988 238.654 245.721 183.203 231.586 178.039 231.586 148.139 245.721 142.159 223.976 134.005 223.976 107.911 246.264 98.6689ZM37.5105 82.36 113.075 111.988 221.529 68.2256 221.529 91.6017 113.075 136.723 37.5105 106.823 37.5105 82.36ZM220.986 176.136 112.531 220.986 36.695 191.086 36.695 169.884 104.377 197.61 221.257 151.401 220.986 176.136ZM213.375 135.364 104.921 180.213 29.356 150.314 29.356 125.85 107.095 156.837 213.647 112.26 213.647 135.364Z" transform="matrix(1.00022 0 0 1 410 83.9815)"/></g></g></g><path d="M375.5 54.488 375.5 675.287" stroke="#000000" stroke-width="6.66814" stroke-miterlimit="8" fill="none" fill-rule="evenodd"/><path d="M0 0 653.281 0.000104987" stroke="#000000" stroke-width="6.66667" stroke-miterlimit="8" fill="none" fill-rule="evenodd" transform="matrix(-1.00022 0 0 1 702.925 365.419)"/></g></svg>