<svg width="756" height="720" xmlns="http://www.w3.org/2000/svg" xmlns:xlink="http://www.w3.org/1999/xlink" overflow="hidden"><defs><clipPath id="clip0"><rect x="0" y="0" width="756" height="720"/></clipPath><clipPath id="clip1"><rect x="93" y="74" width="571" height="571"/></clipPath><clipPath id="clip2"><rect x="93" y="74" width="571" height="571"/></clipPath><clipPath id="clip3"><rect x="93" y="74" width="571" height="571"/></clipPath></defs><g clip-path="url(#clip0)"><rect x="0" y="0" width="756" height="719.841" fill="none"/><g clip-path="url(#clip1)"><g clip-path="url(#clip2)"><g clip-path="url(#clip3)"><path d="M71.632 77.1705 71.632 480.831 487.165 480.831 487.165 77.1705ZM475.293 273.065 285.335 273.065 285.335 89.0429 475.293 89.0429ZM273.463 89.0429 273.463 273.065 83.5044 273.065 83.5044 89.0429ZM83.5044 284.937 273.463 284.937 273.463 468.959 83.5044 468.959ZM285.335 468.959 285.335 284.937 475.293 284.937 475.293 468.959Z" transform="matrix(1.00022 0 0 1 93 74.9835)"/><path d="M172.547 231.511 184.42 231.511 184.42 184.022 231.909 184.022 231.909 172.15 184.42 172.15 184.42 124.66 172.547 124.66 172.547 172.15 125.058 172.15 125.058 184.022 172.547 184.022 172.547 231.511Z" transform="matrix(1.00022 0 0 1 93 74.9835)"/><path d="M326.888 172.15 433.74 172.15 433.74 184.022 326.888 184.022Z" transform="matrix(1.00022 0 0 1 93 74.9835)"/><path d="M224.234 336.624 215.84 328.23 178.483 365.586 141.127 328.23 132.733 336.624 170.09 373.98 132.733 411.336 141.127 419.73 178.483 382.374 215.84 419.73 224.234 411.336 186.877 373.98 224.234 336.624Z" transform="matrix(1.00022 0 0 1 93 74.9835)"/><path d="M326.888 373.98 433.74 373.98 433.74 385.852 326.888 385.852Z" transform="matrix(1.00022 0 0 1 93 74.9835)"/><path d="M392.186 344.299C392.186 350.856 386.871 356.171 380.314 356.171 373.757 356.171 368.442 350.856 368.442 344.299 368.442 337.742 373.757 332.427 380.314 332.427 386.871 332.427 392.186 337.742 392.186 344.299Z" transform="matrix(1.00022 0 0 1 93 74.9835)"/><path d="M392.186 415.533C392.186 422.09 386.871 427.406 380.314 427.406 373.757 427.406 368.442 422.09 368.442 415.533 368.442 408.976 373.757 403.661 380.314 403.661 386.871 403.661 392.186 408.976 392.186 415.533Z" transform="matrix(1.00022 0 0 1 93 74.9835)"/></g></g></g></g></svg>