<svg width="756" height="720" xmlns="http://www.w3.org/2000/svg" xmlns:xlink="http://www.w3.org/1999/xlink" overflow="hidden"><defs><clipPath id="clip0"><rect x="0" y="0" width="756" height="720"/></clipPath><clipPath id="clip1"><rect x="77" y="59" width="601" height="601"/></clipPath><clipPath id="clip2"><rect x="77" y="59" width="601" height="601"/></clipPath><clipPath id="clip3"><rect x="77" y="59" width="601" height="601"/></clipPath></defs><g clip-path="url(#clip0)"><rect x="0" y="0" width="756" height="719.841" fill="none"/><g clip-path="url(#clip1)"><g clip-path="url(#clip2)"><g clip-path="url(#clip3)"><path d="M62.4862 68.7348 62.4862 518.636 524.884 518.636 524.884 68.7348ZM487.393 274.939 312.431 274.939 312.431 106.227 487.393 106.227ZM274.939 106.227 274.939 274.939 99.978 274.939 99.978 106.227ZM99.978 312.431 274.939 312.431 274.939 481.144 99.978 481.144ZM312.431 481.144 312.431 312.431 487.393 312.431 487.393 481.144Z" transform="matrix(1.00022 0 0 1 78 59.9868)"/><path d="M243.696 174.961 199.956 174.961 199.956 131.221 174.961 131.221 174.961 174.961 131.221 174.961 131.221 199.956 174.961 199.956 174.961 243.696 199.956 243.696 199.956 199.956 243.696 199.956 243.696 174.961Z" transform="matrix(1.00022 0 0 1 78 59.9868)"/><path d="M236.073 362.733 218.389 345.049 187.459 375.98 156.528 345.049 138.844 362.733 169.775 393.663 138.844 424.594 156.528 442.277 187.459 411.347 218.389 442.277 236.073 424.594 205.142 393.663 236.073 362.733Z" transform="matrix(1.00022 0 0 1 78 59.9868)"/><path d="M387.415 131.221 412.409 131.221 412.409 243.696 387.415 243.696Z" transform="matrix(6.12458e-17 -1 1.00022 6.12323e-17 290.5 647.357)"/><path d="M387.415 343.674 412.409 343.674 412.409 456.149 387.415 456.149Z" transform="matrix(6.12458e-17 -1 1.00022 6.12323e-17 78 859.81)"/><path d="M412.409 362.42C412.409 369.322 406.814 374.917 399.912 374.917 393.01 374.917 387.415 369.322 387.415 362.42 387.415 355.518 393.01 349.923 399.912 349.923 406.814 349.923 412.409 355.518 412.409 362.42Z" transform="matrix(1.00022 0 0 1 78 59.9868)"/><path d="M412.409 437.404C412.409 444.306 406.814 449.901 399.912 449.901 393.01 449.901 387.415 444.306 387.415 437.404 387.415 430.501 393.01 424.906 399.912 424.906 406.814 424.906 412.409 430.501 412.409 437.404Z" transform="matrix(1.00022 0 0 1 78 59.9868)"/></g></g></g></g></svg>